<?xml version="1.0" encoding="utf-8" standalone="no"?>
<!DOCTYPE svg PUBLIC "-//W3C//DTD SVG 1.1//EN"
  "http://www.w3.org/Graphics/SVG/1.1/DTD/svg11.dtd">
<!-- Created with matplotlib (https://matplotlib.org/) -->
<svg height="345.6pt" version="1.1" viewBox="0 0 460.8 345.6" width="460.8pt" xmlns="http://www.w3.org/2000/svg" xmlns:xlink="http://www.w3.org/1999/xlink">
 <defs>
  <style type="text/css">
*{stroke-linecap:butt;stroke-linejoin:round;}
  </style>
 </defs>
 <g id="figure_1">
  <g id="patch_1">
   <path d="M 0 345.6 
L 460.8 345.6 
L 460.8 0 
L 0 0 
z
" style="fill:#ffffff;"/>
  </g>
  <g id="axes_1">
   <g id="patch_2">
    <path d="M 87.734 84.388 
L 366.534 84.388 
L 366.534 37.089783 
L 87.734 37.089783 
z
" style="fill:#ffffff;"/>
   </g>
   <g id="matplotlib.axis_1">
    <g id="xtick_1">
     <g id="line2d_1">
      <defs>
       <path d="M 0 0 
L 0 3.5 
" id="m8a0782edce" style="stroke:#000000;stroke-width:0.8;"/>
      </defs>
      <g>
       <use style="stroke:#000000;stroke-width:0.8;" x="100.026898" xlink:href="#m8a0782edce" y="84.388"/>
      </g>
     </g>
    </g>
    <g id="xtick_2">
     <g id="line2d_2">
      <g>
       <use style="stroke:#000000;stroke-width:0.8;" x="141.766362" xlink:href="#m8a0782edce" y="84.388"/>
      </g>
     </g>
    </g>
    <g id="xtick_3">
     <g id="line2d_3">
      <g>
       <use style="stroke:#000000;stroke-width:0.8;" x="183.505826" xlink:href="#m8a0782edce" y="84.388"/>
      </g>
     </g>
    </g>
    <g id="xtick_4">
     <g id="line2d_4">
      <g>
       <use style="stroke:#000000;stroke-width:0.8;" x="225.245289" xlink:href="#m8a0782edce" y="84.388"/>
      </g>
     </g>
    </g>
    <g id="xtick_5">
     <g id="line2d_5">
      <g>
       <use style="stroke:#000000;stroke-width:0.8;" x="266.984753" xlink:href="#m8a0782edce" y="84.388"/>
      </g>
     </g>
    </g>
    <g id="xtick_6">
     <g id="line2d_6">
      <g>
       <use style="stroke:#000000;stroke-width:0.8;" x="308.724217" xlink:href="#m8a0782edce" y="84.388"/>
      </g>
     </g>
    </g>
    <g id="xtick_7">
     <g id="line2d_7">
      <g>
       <use style="stroke:#000000;stroke-width:0.8;" x="350.46368" xlink:href="#m8a0782edce" y="84.388"/>
      </g>
     </g>
    </g>
   </g>
   <g id="matplotlib.axis_2">
    <g id="ytick_1">
     <g id="line2d_8">
      <defs>
       <path d="M 0 0 
L -3.5 0 
" id="me397efe07a" style="stroke:#000000;stroke-width:0.8;"/>
      </defs>
      <g>
       <use style="stroke:#000000;stroke-width:0.8;" x="87.734" xlink:href="#me397efe07a" y="84.388"/>
      </g>
     </g>
     <g id="text_1">
      <!-- 0 -->
      <defs>
       <path d="M 31.78125 66.40625 
Q 24.171875 66.40625 20.328125 58.90625 
Q 16.5 51.421875 16.5 36.375 
Q 16.5 21.390625 20.328125 13.890625 
Q 24.171875 6.390625 31.78125 6.390625 
Q 39.453125 6.390625 43.28125 13.890625 
Q 47.125 21.390625 47.125 36.375 
Q 47.125 51.421875 43.28125 58.90625 
Q 39.453125 66.40625 31.78125 66.40625 
z
M 31.78125 74.21875 
Q 44.046875 74.21875 50.515625 64.515625 
Q 56.984375 54.828125 56.984375 36.375 
Q 56.984375 17.96875 50.515625 8.265625 
Q 44.046875 -1.421875 31.78125 -1.421875 
Q 19.53125 -1.421875 13.0625 8.265625 
Q 6.59375 17.96875 6.59375 36.375 
Q 6.59375 54.828125 13.0625 64.515625 
Q 19.53125 74.21875 31.78125 74.21875 
z
" id="DejaVuSans-48"/>
      </defs>
      <g transform="translate(74.3715 88.187219)scale(0.1 -0.1)">
       <use xlink:href="#DejaVuSans-48"/>
      </g>
     </g>
    </g>
    <g id="ytick_2">
     <g id="line2d_9">
      <g>
       <use style="stroke:#000000;stroke-width:0.8;" x="87.734" xlink:href="#me397efe07a" y="55.860728"/>
      </g>
     </g>
     <g id="text_2">
      <!-- 50 -->
      <defs>
       <path d="M 10.796875 72.90625 
L 49.515625 72.90625 
L 49.515625 64.59375 
L 19.828125 64.59375 
L 19.828125 46.734375 
Q 21.96875 47.46875 24.109375 47.828125 
Q 26.265625 48.1875 28.421875 48.1875 
Q 40.625 48.1875 47.75 41.5 
Q 54.890625 34.8125 54.890625 23.390625 
Q 54.890625 11.625 47.5625 5.09375 
Q 40.234375 -1.421875 26.90625 -1.421875 
Q 22.3125 -1.421875 17.546875 -0.640625 
Q 12.796875 0.140625 7.71875 1.703125 
L 7.71875 11.625 
Q 12.109375 9.234375 16.796875 8.0625 
Q 21.484375 6.890625 26.703125 6.890625 
Q 35.15625 6.890625 40.078125 11.328125 
Q 45.015625 15.765625 45.015625 23.390625 
Q 45.015625 31 40.078125 35.4375 
Q 35.15625 39.890625 26.703125 39.890625 
Q 22.75 39.890625 18.8125 39.015625 
Q 14.890625 38.140625 10.796875 36.28125 
z
" id="DejaVuSans-53"/>
      </defs>
      <g transform="translate(68.009 59.659946)scale(0.1 -0.1)">
       <use xlink:href="#DejaVuSans-53"/>
       <use x="63.623047" xlink:href="#DejaVuSans-48"/>
      </g>
     </g>
    </g>
    <g id="text_3">
     <!-- throughput -->
     <defs>
      <path d="M 18.3125 70.21875 
L 18.3125 54.6875 
L 36.8125 54.6875 
L 36.8125 47.703125 
L 18.3125 47.703125 
L 18.3125 18.015625 
Q 18.3125 11.328125 20.140625 9.421875 
Q 21.96875 7.515625 27.59375 7.515625 
L 36.8125 7.515625 
L 36.8125 0 
L 27.59375 0 
Q 17.1875 0 13.234375 3.875 
Q 9.28125 7.765625 9.28125 18.015625 
L 9.28125 47.703125 
L 2.6875 47.703125 
L 2.6875 54.6875 
L 9.28125 54.6875 
L 9.28125 70.21875 
z
" id="DejaVuSans-116"/>
      <path d="M 54.890625 33.015625 
L 54.890625 0 
L 45.90625 0 
L 45.90625 32.71875 
Q 45.90625 40.484375 42.875 44.328125 
Q 39.84375 48.1875 33.796875 48.1875 
Q 26.515625 48.1875 22.3125 43.546875 
Q 18.109375 38.921875 18.109375 30.90625 
L 18.109375 0 
L 9.078125 0 
L 9.078125 75.984375 
L 18.109375 75.984375 
L 18.109375 46.1875 
Q 21.34375 51.125 25.703125 53.5625 
Q 30.078125 56 35.796875 56 
Q 45.21875 56 50.046875 50.171875 
Q 54.890625 44.34375 54.890625 33.015625 
z
" id="DejaVuSans-104"/>
      <path d="M 41.109375 46.296875 
Q 39.59375 47.171875 37.8125 47.578125 
Q 36.03125 48 33.890625 48 
Q 26.265625 48 22.1875 43.046875 
Q 18.109375 38.09375 18.109375 28.8125 
L 18.109375 0 
L 9.078125 0 
L 9.078125 54.6875 
L 18.109375 54.6875 
L 18.109375 46.1875 
Q 20.953125 51.171875 25.484375 53.578125 
Q 30.03125 56 36.53125 56 
Q 37.453125 56 38.578125 55.875 
Q 39.703125 55.765625 41.0625 55.515625 
z
" id="DejaVuSans-114"/>
      <path d="M 30.609375 48.390625 
Q 23.390625 48.390625 19.1875 42.75 
Q 14.984375 37.109375 14.984375 27.296875 
Q 14.984375 17.484375 19.15625 11.84375 
Q 23.34375 6.203125 30.609375 6.203125 
Q 37.796875 6.203125 41.984375 11.859375 
Q 46.1875 17.53125 46.1875 27.296875 
Q 46.1875 37.015625 41.984375 42.703125 
Q 37.796875 48.390625 30.609375 48.390625 
z
M 30.609375 56 
Q 42.328125 56 49.015625 48.375 
Q 55.71875 40.765625 55.71875 27.296875 
Q 55.71875 13.875 49.015625 6.21875 
Q 42.328125 -1.421875 30.609375 -1.421875 
Q 18.84375 -1.421875 12.171875 6.21875 
Q 5.515625 13.875 5.515625 27.296875 
Q 5.515625 40.765625 12.171875 48.375 
Q 18.84375 56 30.609375 56 
z
" id="DejaVuSans-111"/>
      <path d="M 8.5 21.578125 
L 8.5 54.6875 
L 17.484375 54.6875 
L 17.484375 21.921875 
Q 17.484375 14.15625 20.5 10.265625 
Q 23.53125 6.390625 29.59375 6.390625 
Q 36.859375 6.390625 41.078125 11.03125 
Q 45.3125 15.671875 45.3125 23.6875 
L 45.3125 54.6875 
L 54.296875 54.6875 
L 54.296875 0 
L 45.3125 0 
L 45.3125 8.40625 
Q 42.046875 3.421875 37.71875 1 
Q 33.40625 -1.421875 27.6875 -1.421875 
Q 18.265625 -1.421875 13.375 4.4375 
Q 8.5 10.296875 8.5 21.578125 
z
M 31.109375 56 
z
" id="DejaVuSans-117"/>
      <path d="M 45.40625 27.984375 
Q 45.40625 37.75 41.375 43.109375 
Q 37.359375 48.484375 30.078125 48.484375 
Q 22.859375 48.484375 18.828125 43.109375 
Q 14.796875 37.75 14.796875 27.984375 
Q 14.796875 18.265625 18.828125 12.890625 
Q 22.859375 7.515625 30.078125 7.515625 
Q 37.359375 7.515625 41.375 12.890625 
Q 45.40625 18.265625 45.40625 27.984375 
z
M 54.390625 6.78125 
Q 54.390625 -7.171875 48.1875 -13.984375 
Q 42 -20.796875 29.203125 -20.796875 
Q 24.46875 -20.796875 20.265625 -20.09375 
Q 16.0625 -19.390625 12.109375 -17.921875 
L 12.109375 -9.1875 
Q 16.0625 -11.328125 19.921875 -12.34375 
Q 23.78125 -13.375 27.78125 -13.375 
Q 36.625 -13.375 41.015625 -8.765625 
Q 45.40625 -4.15625 45.40625 5.171875 
L 45.40625 9.625 
Q 42.625 4.78125 38.28125 2.390625 
Q 33.9375 0 27.875 0 
Q 17.828125 0 11.671875 7.65625 
Q 5.515625 15.328125 5.515625 27.984375 
Q 5.515625 40.671875 11.671875 48.328125 
Q 17.828125 56 27.875 56 
Q 33.9375 56 38.28125 53.609375 
Q 42.625 51.21875 45.40625 46.390625 
L 45.40625 54.6875 
L 54.390625 54.6875 
z
" id="DejaVuSans-103"/>
      <path d="M 18.109375 8.203125 
L 18.109375 -20.796875 
L 9.078125 -20.796875 
L 9.078125 54.6875 
L 18.109375 54.6875 
L 18.109375 46.390625 
Q 20.953125 51.265625 25.265625 53.625 
Q 29.59375 56 35.59375 56 
Q 45.5625 56 51.78125 48.09375 
Q 58.015625 40.1875 58.015625 27.296875 
Q 58.015625 14.40625 51.78125 6.484375 
Q 45.5625 -1.421875 35.59375 -1.421875 
Q 29.59375 -1.421875 25.265625 0.953125 
Q 20.953125 3.328125 18.109375 8.203125 
z
M 48.6875 27.296875 
Q 48.6875 37.203125 44.609375 42.84375 
Q 40.53125 48.484375 33.40625 48.484375 
Q 26.265625 48.484375 22.1875 42.84375 
Q 18.109375 37.203125 18.109375 27.296875 
Q 18.109375 17.390625 22.1875 11.75 
Q 26.265625 6.109375 33.40625 6.109375 
Q 40.53125 6.109375 44.609375 11.75 
Q 48.6875 17.390625 48.6875 27.296875 
z
" id="DejaVuSans-112"/>
     </defs>
     <g transform="translate(50.7315 88.795923)rotate(-90)scale(0.1 -0.1)">
      <use xlink:href="#DejaVuSans-116"/>
      <use x="39.208984" xlink:href="#DejaVuSans-104"/>
      <use x="102.587891" xlink:href="#DejaVuSans-114"/>
      <use x="143.669922" xlink:href="#DejaVuSans-111"/>
      <use x="204.851562" xlink:href="#DejaVuSans-117"/>
      <use x="268.230469" xlink:href="#DejaVuSans-103"/>
      <use x="331.707031" xlink:href="#DejaVuSans-104"/>
      <use x="395.085938" xlink:href="#DejaVuSans-112"/>
      <use x="458.5625" xlink:href="#DejaVuSans-117"/>
      <use x="521.941406" xlink:href="#DejaVuSans-116"/>
     </g>
     <!-- (mbit / second) -->
     <defs>
      <path d="M 31 75.875 
Q 24.46875 64.65625 21.28125 53.65625 
Q 18.109375 42.671875 18.109375 31.390625 
Q 18.109375 20.125 21.3125 9.0625 
Q 24.515625 -2 31 -13.1875 
L 23.1875 -13.1875 
Q 15.875 -1.703125 12.234375 9.375 
Q 8.59375 20.453125 8.59375 31.390625 
Q 8.59375 42.28125 12.203125 53.3125 
Q 15.828125 64.359375 23.1875 75.875 
z
" id="DejaVuSans-40"/>
      <path d="M 52 44.1875 
Q 55.375 50.25 60.0625 53.125 
Q 64.75 56 71.09375 56 
Q 79.640625 56 84.28125 50.015625 
Q 88.921875 44.046875 88.921875 33.015625 
L 88.921875 0 
L 79.890625 0 
L 79.890625 32.71875 
Q 79.890625 40.578125 77.09375 44.375 
Q 74.3125 48.1875 68.609375 48.1875 
Q 61.625 48.1875 57.5625 43.546875 
Q 53.515625 38.921875 53.515625 30.90625 
L 53.515625 0 
L 44.484375 0 
L 44.484375 32.71875 
Q 44.484375 40.625 41.703125 44.40625 
Q 38.921875 48.1875 33.109375 48.1875 
Q 26.21875 48.1875 22.15625 43.53125 
Q 18.109375 38.875 18.109375 30.90625 
L 18.109375 0 
L 9.078125 0 
L 9.078125 54.6875 
L 18.109375 54.6875 
L 18.109375 46.1875 
Q 21.1875 51.21875 25.484375 53.609375 
Q 29.78125 56 35.6875 56 
Q 41.65625 56 45.828125 52.96875 
Q 50 49.953125 52 44.1875 
z
" id="DejaVuSans-109"/>
      <path d="M 48.6875 27.296875 
Q 48.6875 37.203125 44.609375 42.84375 
Q 40.53125 48.484375 33.40625 48.484375 
Q 26.265625 48.484375 22.1875 42.84375 
Q 18.109375 37.203125 18.109375 27.296875 
Q 18.109375 17.390625 22.1875 11.75 
Q 26.265625 6.109375 33.40625 6.109375 
Q 40.53125 6.109375 44.609375 11.75 
Q 48.6875 17.390625 48.6875 27.296875 
z
M 18.109375 46.390625 
Q 20.953125 51.265625 25.265625 53.625 
Q 29.59375 56 35.59375 56 
Q 45.5625 56 51.78125 48.09375 
Q 58.015625 40.1875 58.015625 27.296875 
Q 58.015625 14.40625 51.78125 6.484375 
Q 45.5625 -1.421875 35.59375 -1.421875 
Q 29.59375 -1.421875 25.265625 0.953125 
Q 20.953125 3.328125 18.109375 8.203125 
L 18.109375 0 
L 9.078125 0 
L 9.078125 75.984375 
L 18.109375 75.984375 
z
" id="DejaVuSans-98"/>
      <path d="M 9.421875 54.6875 
L 18.40625 54.6875 
L 18.40625 0 
L 9.421875 0 
z
M 9.421875 75.984375 
L 18.40625 75.984375 
L 18.40625 64.59375 
L 9.421875 64.59375 
z
" id="DejaVuSans-105"/>
      <path id="DejaVuSans-32"/>
      <path d="M 25.390625 72.90625 
L 33.6875 72.90625 
L 8.296875 -9.28125 
L 0 -9.28125 
z
" id="DejaVuSans-47"/>
      <path d="M 44.28125 53.078125 
L 44.28125 44.578125 
Q 40.484375 46.53125 36.375 47.5 
Q 32.28125 48.484375 27.875 48.484375 
Q 21.1875 48.484375 17.84375 46.4375 
Q 14.5 44.390625 14.5 40.28125 
Q 14.5 37.15625 16.890625 35.375 
Q 19.28125 33.59375 26.515625 31.984375 
L 29.59375 31.296875 
Q 39.15625 29.25 43.1875 25.515625 
Q 47.21875 21.78125 47.21875 15.09375 
Q 47.21875 7.46875 41.1875 3.015625 
Q 35.15625 -1.421875 24.609375 -1.421875 
Q 20.21875 -1.421875 15.453125 -0.5625 
Q 10.6875 0.296875 5.421875 2 
L 5.421875 11.28125 
Q 10.40625 8.6875 15.234375 7.390625 
Q 20.0625 6.109375 24.8125 6.109375 
Q 31.15625 6.109375 34.5625 8.28125 
Q 37.984375 10.453125 37.984375 14.40625 
Q 37.984375 18.0625 35.515625 20.015625 
Q 33.0625 21.96875 24.703125 23.78125 
L 21.578125 24.515625 
Q 13.234375 26.265625 9.515625 29.90625 
Q 5.8125 33.546875 5.8125 39.890625 
Q 5.8125 47.609375 11.28125 51.796875 
Q 16.75 56 26.8125 56 
Q 31.78125 56 36.171875 55.265625 
Q 40.578125 54.546875 44.28125 53.078125 
z
" id="DejaVuSans-115"/>
      <path d="M 56.203125 29.59375 
L 56.203125 25.203125 
L 14.890625 25.203125 
Q 15.484375 15.921875 20.484375 11.0625 
Q 25.484375 6.203125 34.421875 6.203125 
Q 39.59375 6.203125 44.453125 7.46875 
Q 49.3125 8.734375 54.109375 11.28125 
L 54.109375 2.78125 
Q 49.265625 0.734375 44.1875 -0.34375 
Q 39.109375 -1.421875 33.890625 -1.421875 
Q 20.796875 -1.421875 13.15625 6.1875 
Q 5.515625 13.8125 5.515625 26.8125 
Q 5.515625 40.234375 12.765625 48.109375 
Q 20.015625 56 32.328125 56 
Q 43.359375 56 49.78125 48.890625 
Q 56.203125 41.796875 56.203125 29.59375 
z
M 47.21875 32.234375 
Q 47.125 39.59375 43.09375 43.984375 
Q 39.0625 48.390625 32.421875 48.390625 
Q 24.90625 48.390625 20.390625 44.140625 
Q 15.875 39.890625 15.1875 32.171875 
z
" id="DejaVuSans-101"/>
      <path d="M 48.78125 52.59375 
L 48.78125 44.1875 
Q 44.96875 46.296875 41.140625 47.34375 
Q 37.3125 48.390625 33.40625 48.390625 
Q 24.65625 48.390625 19.8125 42.84375 
Q 14.984375 37.3125 14.984375 27.296875 
Q 14.984375 17.28125 19.8125 11.734375 
Q 24.65625 6.203125 33.40625 6.203125 
Q 37.3125 6.203125 41.140625 7.25 
Q 44.96875 8.296875 48.78125 10.40625 
L 48.78125 2.09375 
Q 45.015625 0.34375 40.984375 -0.53125 
Q 36.96875 -1.421875 32.421875 -1.421875 
Q 20.0625 -1.421875 12.78125 6.34375 
Q 5.515625 14.109375 5.515625 27.296875 
Q 5.515625 40.671875 12.859375 48.328125 
Q 20.21875 56 33.015625 56 
Q 37.15625 56 41.109375 55.140625 
Q 45.0625 54.296875 48.78125 52.59375 
z
" id="DejaVuSans-99"/>
      <path d="M 54.890625 33.015625 
L 54.890625 0 
L 45.90625 0 
L 45.90625 32.71875 
Q 45.90625 40.484375 42.875 44.328125 
Q 39.84375 48.1875 33.796875 48.1875 
Q 26.515625 48.1875 22.3125 43.546875 
Q 18.109375 38.921875 18.109375 30.90625 
L 18.109375 0 
L 9.078125 0 
L 9.078125 54.6875 
L 18.109375 54.6875 
L 18.109375 46.1875 
Q 21.34375 51.125 25.703125 53.5625 
Q 30.078125 56 35.796875 56 
Q 45.21875 56 50.046875 50.171875 
Q 54.890625 44.34375 54.890625 33.015625 
z
" id="DejaVuSans-110"/>
      <path d="M 45.40625 46.390625 
L 45.40625 75.984375 
L 54.390625 75.984375 
L 54.390625 0 
L 45.40625 0 
L 45.40625 8.203125 
Q 42.578125 3.328125 38.25 0.953125 
Q 33.9375 -1.421875 27.875 -1.421875 
Q 17.96875 -1.421875 11.734375 6.484375 
Q 5.515625 14.40625 5.515625 27.296875 
Q 5.515625 40.1875 11.734375 48.09375 
Q 17.96875 56 27.875 56 
Q 33.9375 56 38.25 53.625 
Q 42.578125 51.265625 45.40625 46.390625 
z
M 14.796875 27.296875 
Q 14.796875 17.390625 18.875 11.75 
Q 22.953125 6.109375 30.078125 6.109375 
Q 37.203125 6.109375 41.296875 11.75 
Q 45.40625 17.390625 45.40625 27.296875 
Q 45.40625 37.203125 41.296875 42.84375 
Q 37.203125 48.484375 30.078125 48.484375 
Q 22.953125 48.484375 18.875 42.84375 
Q 14.796875 37.203125 14.796875 27.296875 
z
" id="DejaVuSans-100"/>
      <path d="M 8.015625 75.875 
L 15.828125 75.875 
Q 23.140625 64.359375 26.78125 53.3125 
Q 30.421875 42.28125 30.421875 31.390625 
Q 30.421875 20.453125 26.78125 9.375 
Q 23.140625 -1.703125 15.828125 -13.1875 
L 8.015625 -13.1875 
Q 14.5 -2 17.703125 9.0625 
Q 20.90625 20.125 20.90625 31.390625 
Q 20.90625 42.671875 17.703125 53.65625 
Q 14.5 64.65625 8.015625 75.875 
z
" id="DejaVuSans-41"/>
     </defs>
     <g transform="translate(61.929312 98.729516)rotate(-90)scale(0.1 -0.1)">
      <use xlink:href="#DejaVuSans-40"/>
      <use x="39.013672" xlink:href="#DejaVuSans-109"/>
      <use x="136.425781" xlink:href="#DejaVuSans-98"/>
      <use x="199.902344" xlink:href="#DejaVuSans-105"/>
      <use x="227.685547" xlink:href="#DejaVuSans-116"/>
      <use x="266.894531" xlink:href="#DejaVuSans-32"/>
      <use x="298.681641" xlink:href="#DejaVuSans-47"/>
      <use x="332.373047" xlink:href="#DejaVuSans-32"/>
      <use x="364.160156" xlink:href="#DejaVuSans-115"/>
      <use x="416.259766" xlink:href="#DejaVuSans-101"/>
      <use x="477.783203" xlink:href="#DejaVuSans-99"/>
      <use x="532.763672" xlink:href="#DejaVuSans-111"/>
      <use x="593.945312" xlink:href="#DejaVuSans-110"/>
      <use x="657.324219" xlink:href="#DejaVuSans-100"/>
      <use x="720.800781" xlink:href="#DejaVuSans-41"/>
     </g>
    </g>
   </g>
   <g id="line2d_10">
    <path clip-path="url(#pe3f5ec98de)" d="M 130.555142 76.970909 
L 132.642115 59.854546 
L 134.729088 60.425091 
L 136.816061 58.14291 
L 138.903035 55.860728 
L 140.990008 54.719637 
L 143.076981 53.578546 
L 145.163954 51.86691 
L 147.250927 51.296364 
L 149.337901 50.155273 
L 151.424874 50.155273 
L 153.511847 49.584728 
L 155.59882 50.155273 
L 157.685793 51.86691 
L 159.772767 52.437455 
L 161.85974 54.149091 
L 163.946713 54.149091 
L 166.033686 57.001819 
L 168.120659 59.854546 
L 170.207632 62.136728 
L 172.294606 75.259273 
L 174.381579 71.265455 
L 176.468552 71.265455 
L 178.555525 71.836 
L 180.642498 72.406546 
L 182.729472 72.977091 
L 184.816445 72.977091 
L 186.903418 73.547637 
L 188.990391 73.547637 
L 191.077364 74.118182 
L 193.164337 74.118182 
L 195.251311 73.547637 
L 197.338284 73.547637 
L 199.425257 74.118182 
L 201.51223 73.547637 
L 203.599203 73.547637 
L 205.686177 73.547637 
L 207.77315 73.547637 
L 209.860123 73.547637 
L 211.947096 73.547637 
L 214.034069 75.829818 
L 216.121043 75.259273 
L 218.208016 73.547637 
L 220.294989 73.547637 
L 222.381962 73.547637 
L 224.468935 73.547637 
L 226.555908 73.547637 
L 228.642882 73.547637 
L 230.729855 72.977091 
L 232.816828 73.547637 
L 234.903801 72.977091 
L 236.990774 72.977091 
L 239.077748 73.547637 
L 241.164721 73.547637 
L 243.251694 72.977091 
L 245.338667 72.977091 
L 247.42564 72.977091 
L 249.512613 73.547637 
L 251.599587 73.547637 
L 253.68656 73.547637 
L 255.773533 73.547637 
L 257.860506 76.400364 
L 259.947479 72.977091 
L 262.034453 73.547637 
L 264.121426 73.547637 
L 266.208399 72.977091 
L 268.295372 73.547637 
L 270.382345 73.547637 
L 272.469319 73.547637 
L 274.556292 73.547637 
L 276.643265 73.547637 
L 278.730238 73.547637 
L 280.817211 73.547637 
L 282.904184 73.547637 
L 284.991158 73.547637 
L 287.078131 73.547637 
L 289.165104 73.547637 
L 291.252077 73.547637 
L 293.33905 73.547637 
L 295.426024 73.547637 
L 297.512997 73.547637 
L 299.59997 76.970909 
L 301.686943 72.406546 
L 303.773916 72.406546 
L 305.860889 72.977091 
L 307.947863 72.977091 
L 310.034836 72.977091 
L 312.121809 72.977091 
L 314.208782 72.977091 
L 316.295755 72.977091 
L 318.382729 72.977091 
L 320.469702 73.547637 
L 322.556675 73.547637 
L 324.643648 72.977091 
L 326.730621 73.547637 
L 328.817595 72.977091 
L 330.904568 73.547637 
L 332.991541 73.547637 
L 335.078514 73.547637 
L 337.165487 73.547637 
L 339.25246 73.547637 
L 341.339434 73.547637 
L 343.426407 77.541455 
L 345.51338 73.547637 
L 347.600353 73.547637 
L 349.687326 73.547637 
L 351.7743 73.547637 
L 353.861273 72.977091 
" style="fill:none;stroke:#1f77b4;stroke-linecap:square;stroke-width:1.5;"/>
   </g>
   <g id="line2d_11">
    <path clip-path="url(#pe3f5ec98de)" d="M 100.406727 46.161455 
L 102.4937 39.31491 
L 104.580674 39.31491 
L 106.667647 39.31491 
L 108.75462 55.860728 
L 110.841593 62.707273 
L 112.928566 66.130546 
L 115.01554 68.412728 
L 117.102513 74.688727 
L 119.189486 79.823636 
L 121.276459 80.394182 
L 123.363432 80.964727 
L 125.450405 81.535273 
L 127.537379 83.246909 
L 129.624352 83.246909 
L 131.711325 83.246909 
L 133.798298 83.817455 
L 135.885271 83.246909 
L 137.972245 83.246909 
L 140.059218 83.246909 
L 142.146191 83.246909 
L 144.233164 83.246909 
L 146.320137 83.817455 
L 148.407111 82.105818 
L 150.494084 80.964727 
L 152.581057 79.823636 
L 154.66803 79.253091 
L 156.755003 78.112 
L 158.841976 76.970909 
L 160.92895 76.400364 
L 163.015923 75.259273 
L 165.102896 74.688727 
L 167.189869 70.124364 
L 169.276842 71.265455 
L 171.363816 72.406546 
L 173.450789 72.406546 
L 175.537762 72.406546 
L 177.624735 72.977091 
L 179.711708 72.977091 
L 181.798681 72.977091 
L 183.885655 73.547637 
L 185.972628 73.547637 
L 188.059601 73.547637 
L 190.146574 72.977091 
L 192.233547 72.977091 
L 194.320521 73.547637 
L 196.407494 73.547637 
L 198.494467 73.547637 
L 200.58144 73.547637 
L 202.668413 73.547637 
L 204.755387 73.547637 
L 206.84236 73.547637 
L 208.929333 75.259273 
L 211.016306 74.688727 
L 213.103279 72.977091 
L 215.190252 72.977091 
L 217.277226 72.977091 
L 219.364199 73.547637 
L 221.451172 73.547637 
L 223.538145 73.547637 
L 225.625118 73.547637 
L 227.712092 73.547637 
L 229.799065 73.547637 
L 231.886038 73.547637 
L 233.973011 73.547637 
L 236.059984 73.547637 
L 238.146957 73.547637 
L 240.233931 73.547637 
L 242.320904 73.547637 
L 244.407877 72.977091 
L 246.49485 73.547637 
L 248.581823 73.547637 
L 250.668797 73.547637 
L 252.75577 77.541455 
L 254.842743 74.118182 
L 256.929716 73.547637 
L 259.016689 73.547637 
L 261.103663 73.547637 
L 263.190636 73.547637 
L 265.277609 73.547637 
L 267.364582 73.547637 
L 269.451555 73.547637 
L 271.538528 73.547637 
L 273.625502 73.547637 
L 275.712475 73.547637 
L 277.799448 73.547637 
L 279.886421 73.547637 
L 281.973394 73.547637 
L 284.060368 73.547637 
L 286.147341 73.547637 
L 288.234314 73.547637 
L 290.321287 73.547637 
L 292.40826 73.547637 
L 294.495233 74.688727 
L 296.582207 76.400364 
L 298.66918 74.688727 
L 300.756153 74.118182 
L 302.843126 74.118182 
L 304.930099 74.118182 
L 307.017073 74.118182 
L 309.104046 74.118182 
L 311.191019 73.547637 
L 313.277992 73.547637 
L 315.364965 73.547637 
L 317.451939 73.547637 
L 319.538912 73.547637 
L 321.625885 73.547637 
L 323.712858 73.547637 
" style="fill:none;stroke:#ff7f0e;stroke-linecap:square;stroke-width:1.5;"/>
   </g>
   <g id="line2d_12">
    <path clip-path="url(#pe3f5ec98de)" d="M 120.024275 70.124364 
L 122.111248 57.572364 
L 124.198222 54.149091 
L 126.285195 51.296364 
L 128.372168 53.578546 
L 130.459141 67.842182 
L 132.546114 67.271637 
L 134.633088 68.983273 
L 136.720061 70.694909 
L 138.807034 72.406546 
L 140.894007 73.547637 
L 142.98098 75.259273 
L 145.067953 75.829818 
L 147.154927 76.400364 
L 149.2419 76.970909 
L 151.328873 78.682546 
L 153.415846 79.253091 
L 155.502819 80.394182 
L 157.589793 80.964727 
L 159.676766 81.535273 
L 161.763739 83.246909 
L 163.850712 80.964727 
L 165.937685 80.394182 
L 168.024658 79.823636 
L 170.111632 76.400364 
L 172.198605 75.259273 
L 174.285578 74.688727 
L 176.372551 74.118182 
L 178.459524 74.118182 
L 180.546498 73.547637 
L 182.633471 73.547637 
L 184.720444 72.977091 
L 186.807417 72.977091 
L 188.89439 72.977091 
L 190.981364 72.977091 
L 193.068337 72.977091 
L 195.15531 72.406546 
L 197.242283 72.977091 
L 199.329256 72.977091 
L 201.416229 72.977091 
L 203.503203 72.977091 
L 205.590176 72.977091 
L 207.677149 72.977091 
L 209.764122 72.977091 
L 211.851095 76.400364 
L 213.938069 74.688727 
L 216.025042 74.118182 
L 218.112015 74.118182 
L 220.198988 74.118182 
L 222.285961 74.118182 
L 224.372934 73.547637 
L 226.459908 72.977091 
L 228.546881 72.977091 
L 230.633854 72.977091 
L 232.720827 73.547637 
L 234.8078 73.547637 
L 236.894774 73.547637 
L 238.981747 73.547637 
L 241.06872 73.547637 
L 243.155693 73.547637 
L 245.242666 73.547637 
L 247.32964 73.547637 
L 249.416613 73.547637 
L 251.503586 73.547637 
L 253.590559 73.547637 
L 255.677532 77.541455 
L 257.764505 73.547637 
L 259.851479 73.547637 
L 261.938452 73.547637 
L 264.025425 73.547637 
L 266.112398 72.977091 
L 268.199371 72.977091 
L 270.286345 72.977091 
L 272.373318 72.977091 
L 274.460291 72.977091 
L 276.547264 72.977091 
L 278.634237 72.977091 
L 280.72121 72.977091 
L 282.808184 72.977091 
L 284.895157 72.977091 
L 286.98213 72.977091 
L 289.069103 73.547637 
L 291.156076 73.547637 
L 293.24305 73.547637 
L 295.330023 73.547637 
L 297.416996 76.400364 
L 299.503969 74.688727 
L 301.590942 73.547637 
L 303.677916 73.547637 
L 305.764889 73.547637 
L 307.851862 73.547637 
L 309.938835 73.547637 
L 312.025808 73.547637 
L 314.112781 73.547637 
L 316.199755 73.547637 
L 318.286728 73.547637 
L 320.373701 72.977091 
L 322.460674 72.977091 
L 324.547647 72.977091 
L 326.634621 72.977091 
L 328.721594 73.547637 
L 330.808567 73.547637 
L 332.89554 73.547637 
L 334.982513 73.547637 
L 337.069486 73.547637 
L 339.15646 73.547637 
L 341.243433 77.541455 
L 343.330406 73.547637 
" style="fill:none;stroke:#2ca02c;stroke-linecap:square;stroke-width:1.5;"/>
   </g>
   <g id="line2d_13">
    <path clip-path="url(#pe3f5ec98de)" d="M 109.146971 68.412728 
L 111.233944 61.566182 
L 113.320917 58.14291 
L 115.407891 55.290182 
L 117.494864 60.995637 
L 119.581837 71.265455 
L 121.66881 73.547637 
L 123.755783 75.829818 
L 125.842756 78.112 
L 127.92973 82.105818 
L 130.016703 82.676364 
L 132.103676 82.676364 
L 134.190649 82.676364 
L 136.277622 83.246909 
L 138.364596 83.246909 
L 140.451569 83.246909 
L 142.538542 83.246909 
L 144.625515 83.246909 
L 146.712488 82.676364 
L 148.799461 83.246909 
L 150.886435 83.817455 
L 152.973408 82.105818 
L 155.060381 80.964727 
L 157.147354 79.823636 
L 159.234327 79.253091 
L 161.321301 79.253091 
L 163.408274 78.682546 
L 165.495247 77.541455 
L 167.58222 74.688727 
L 169.669193 75.259273 
L 171.756167 75.259273 
L 173.84314 74.688727 
L 175.930113 74.688727 
L 178.017086 74.688727 
L 180.104059 74.118182 
L 182.191032 73.547637 
L 184.278006 73.547637 
L 186.364979 73.547637 
L 188.451952 73.547637 
L 190.538925 73.547637 
L 192.625898 73.547637 
L 194.712872 73.547637 
L 196.799845 73.547637 
L 198.886818 73.547637 
L 200.973791 73.547637 
L 203.060764 73.547637 
L 205.147737 73.547637 
L 207.234711 73.547637 
L 209.321684 75.259273 
L 211.408657 74.118182 
L 213.49563 72.406546 
L 215.582603 72.977091 
L 217.669577 72.977091 
L 219.75655 72.977091 
L 221.843523 72.977091 
L 223.930496 72.977091 
L 226.017469 73.547637 
L 228.104443 73.547637 
L 230.191416 73.547637 
L 232.278389 73.547637 
L 234.365362 73.547637 
L 236.452335 73.547637 
L 238.539308 73.547637 
L 240.626282 73.547637 
L 242.713255 72.977091 
L 244.800228 73.547637 
L 246.887201 72.977091 
L 248.974174 72.977091 
L 251.061148 72.977091 
L 253.148121 76.400364 
L 255.235094 72.977091 
L 257.322067 72.977091 
L 259.40904 73.547637 
L 261.496013 73.547637 
L 263.582987 73.547637 
L 265.66996 73.547637 
L 267.756933 73.547637 
L 269.843906 73.547637 
L 271.930879 73.547637 
L 274.017853 73.547637 
L 276.104826 73.547637 
L 278.191799 73.547637 
L 280.278772 73.547637 
L 282.365745 73.547637 
L 284.452719 73.547637 
L 286.539692 73.547637 
L 288.626665 72.977091 
L 290.713638 72.977091 
L 292.800611 72.977091 
L 294.887584 74.688727 
L 296.974558 74.688727 
L 299.061531 72.977091 
L 301.148504 72.977091 
L 303.235477 73.547637 
L 305.32245 73.547637 
L 307.409424 72.977091 
L 309.496397 72.977091 
L 311.58337 72.977091 
L 313.670343 72.977091 
L 315.757316 73.547637 
L 317.844289 73.547637 
L 319.931263 73.547637 
L 322.018236 72.977091 
L 324.105209 73.547637 
L 326.192182 73.547637 
L 328.279155 73.547637 
L 330.366129 72.977091 
L 332.453102 72.977091 
" style="fill:none;stroke:#d62728;stroke-linecap:square;stroke-width:1.5;"/>
   </g>
   <g id="patch_3">
    <path d="M 87.734 84.388 
L 87.734 37.089783 
" style="fill:none;stroke:#000000;stroke-linecap:square;stroke-linejoin:miter;stroke-width:0.8;"/>
   </g>
   <g id="patch_4">
    <path d="M 366.534 84.388 
L 366.534 37.089783 
" style="fill:none;stroke:#000000;stroke-linecap:square;stroke-linejoin:miter;stroke-width:0.8;"/>
   </g>
   <g id="patch_5">
    <path d="M 87.734 84.388 
L 366.534 84.388 
" style="fill:none;stroke:#000000;stroke-linecap:square;stroke-linejoin:miter;stroke-width:0.8;"/>
   </g>
   <g id="patch_6">
    <path d="M 87.734 37.089783 
L 366.534 37.089783 
" style="fill:none;stroke:#000000;stroke-linecap:square;stroke-linejoin:miter;stroke-width:0.8;"/>
   </g>
   <g id="legend_1">
    <g id="patch_7">
     <path d="M 382.474 98.802283 
L 444.006812 98.802283 
Q 446.006812 98.802283 446.006812 96.802283 
L 446.006812 39.089783 
Q 446.006812 37.089783 444.006812 37.089783 
L 382.474 37.089783 
Q 380.474 37.089783 380.474 39.089783 
L 380.474 96.802283 
Q 380.474 98.802283 382.474 98.802283 
z
" style="fill:#ffffff;opacity:0.8;stroke:#cccccc;stroke-linejoin:miter;"/>
    </g>
    <g id="line2d_14">
     <path d="M 384.474 45.18822 
L 404.474 45.18822 
" style="fill:none;stroke:#1f77b4;stroke-linecap:square;stroke-width:1.5;"/>
    </g>
    <g id="line2d_15"/>
    <g id="text_4">
     <!-- bbr-pi -->
     <defs>
      <path d="M 4.890625 31.390625 
L 31.203125 31.390625 
L 31.203125 23.390625 
L 4.890625 23.390625 
z
" id="DejaVuSans-45"/>
     </defs>
     <g transform="translate(412.474 48.68822)scale(0.1 -0.1)">
      <use xlink:href="#DejaVuSans-98"/>
      <use x="63.476562" xlink:href="#DejaVuSans-98"/>
      <use x="126.953125" xlink:href="#DejaVuSans-114"/>
      <use x="167.972656" xlink:href="#DejaVuSans-45"/>
      <use x="204.056641" xlink:href="#DejaVuSans-112"/>
      <use x="267.533203" xlink:href="#DejaVuSans-105"/>
     </g>
    </g>
    <g id="line2d_16">
     <path d="M 384.474 59.866345 
L 404.474 59.866345 
" style="fill:none;stroke:#ff7f0e;stroke-linecap:square;stroke-width:1.5;"/>
    </g>
    <g id="line2d_17"/>
    <g id="text_5">
     <!-- bbr-pi -->
     <g transform="translate(412.474 63.366345)scale(0.1 -0.1)">
      <use xlink:href="#DejaVuSans-98"/>
      <use x="63.476562" xlink:href="#DejaVuSans-98"/>
      <use x="126.953125" xlink:href="#DejaVuSans-114"/>
      <use x="167.972656" xlink:href="#DejaVuSans-45"/>
      <use x="204.056641" xlink:href="#DejaVuSans-112"/>
      <use x="267.533203" xlink:href="#DejaVuSans-105"/>
     </g>
    </g>
    <g id="line2d_18">
     <path d="M 384.474 74.54447 
L 404.474 74.54447 
" style="fill:none;stroke:#2ca02c;stroke-linecap:square;stroke-width:1.5;"/>
    </g>
    <g id="line2d_19"/>
    <g id="line2d_20">
     <path d="M 384.474 89.222595 
L 404.474 89.222595 
" style="fill:none;stroke:#d62728;stroke-linecap:square;stroke-width:1.5;"/>
    </g>
    <g id="line2d_21"/>
    <g id="text_6">
     <!-- bbr-pi -->
     <g transform="translate(412.474 92.722595)scale(0.1 -0.1)">
      <use xlink:href="#DejaVuSans-98"/>
      <use x="63.476562" xlink:href="#DejaVuSans-98"/>
      <use x="126.953125" xlink:href="#DejaVuSans-114"/>
      <use x="167.972656" xlink:href="#DejaVuSans-45"/>
      <use x="204.056641" xlink:href="#DejaVuSans-112"/>
      <use x="267.533203" xlink:href="#DejaVuSans-105"/>
     </g>
    </g>
   </g>
  </g>
  <g id="axes_2">
   <g id="patch_8">
    <path d="M 87.734 154.016 
L 366.534 154.016 
L 366.534 106.717783 
L 87.734 106.717783 
z
" style="fill:#ffffff;"/>
   </g>
   <g id="matplotlib.axis_3">
    <g id="xtick_8">
     <g id="line2d_22">
      <g>
       <use style="stroke:#000000;stroke-width:0.8;" x="100.026898" xlink:href="#m8a0782edce" y="154.016"/>
      </g>
     </g>
    </g>
    <g id="xtick_9">
     <g id="line2d_23">
      <g>
       <use style="stroke:#000000;stroke-width:0.8;" x="141.766362" xlink:href="#m8a0782edce" y="154.016"/>
      </g>
     </g>
    </g>
    <g id="xtick_10">
     <g id="line2d_24">
      <g>
       <use style="stroke:#000000;stroke-width:0.8;" x="183.505826" xlink:href="#m8a0782edce" y="154.016"/>
      </g>
     </g>
    </g>
    <g id="xtick_11">
     <g id="line2d_25">
      <g>
       <use style="stroke:#000000;stroke-width:0.8;" x="225.245289" xlink:href="#m8a0782edce" y="154.016"/>
      </g>
     </g>
    </g>
    <g id="xtick_12">
     <g id="line2d_26">
      <g>
       <use style="stroke:#000000;stroke-width:0.8;" x="266.984753" xlink:href="#m8a0782edce" y="154.016"/>
      </g>
     </g>
    </g>
    <g id="xtick_13">
     <g id="line2d_27">
      <g>
       <use style="stroke:#000000;stroke-width:0.8;" x="308.724217" xlink:href="#m8a0782edce" y="154.016"/>
      </g>
     </g>
    </g>
    <g id="xtick_14">
     <g id="line2d_28">
      <g>
       <use style="stroke:#000000;stroke-width:0.8;" x="350.46368" xlink:href="#m8a0782edce" y="154.016"/>
      </g>
     </g>
    </g>
   </g>
   <g id="matplotlib.axis_4">
    <g id="ytick_3">
     <g id="line2d_29">
      <g>
       <use style="stroke:#000000;stroke-width:0.8;" x="87.734" xlink:href="#me397efe07a" y="154.016"/>
      </g>
     </g>
     <g id="text_7">
      <!-- 0 -->
      <g transform="translate(74.3715 157.815219)scale(0.1 -0.1)">
       <use xlink:href="#DejaVuSans-48"/>
      </g>
     </g>
    </g>
    <g id="ytick_4">
     <g id="line2d_30">
      <g>
       <use style="stroke:#000000;stroke-width:0.8;" x="87.734" xlink:href="#me397efe07a" y="118.900418"/>
      </g>
     </g>
     <g id="text_8">
      <!-- 500000 -->
      <g transform="translate(42.559 122.699636)scale(0.1 -0.1)">
       <use xlink:href="#DejaVuSans-53"/>
       <use x="63.623047" xlink:href="#DejaVuSans-48"/>
       <use x="127.246094" xlink:href="#DejaVuSans-48"/>
       <use x="190.869141" xlink:href="#DejaVuSans-48"/>
       <use x="254.492188" xlink:href="#DejaVuSans-48"/>
       <use x="318.115234" xlink:href="#DejaVuSans-48"/>
      </g>
     </g>
    </g>
    <g id="text_9">
     <!-- inflight -->
     <defs>
      <path d="M 37.109375 75.984375 
L 37.109375 68.5 
L 28.515625 68.5 
Q 23.6875 68.5 21.796875 66.546875 
Q 19.921875 64.59375 19.921875 59.515625 
L 19.921875 54.6875 
L 34.71875 54.6875 
L 34.71875 47.703125 
L 19.921875 47.703125 
L 19.921875 0 
L 10.890625 0 
L 10.890625 47.703125 
L 2.296875 47.703125 
L 2.296875 54.6875 
L 10.890625 54.6875 
L 10.890625 58.5 
Q 10.890625 67.625 15.140625 71.796875 
Q 19.390625 75.984375 28.609375 75.984375 
z
" id="DejaVuSans-102"/>
      <path d="M 9.421875 75.984375 
L 18.40625 75.984375 
L 18.40625 0 
L 9.421875 0 
z
" id="DejaVuSans-108"/>
     </defs>
     <g transform="translate(25.2815 147.76611)rotate(-90)scale(0.1 -0.1)">
      <use xlink:href="#DejaVuSans-105"/>
      <use x="27.783203" xlink:href="#DejaVuSans-110"/>
      <use x="91.162109" xlink:href="#DejaVuSans-102"/>
      <use x="126.367188" xlink:href="#DejaVuSans-108"/>
      <use x="154.150391" xlink:href="#DejaVuSans-105"/>
      <use x="181.933594" xlink:href="#DejaVuSans-103"/>
      <use x="245.410156" xlink:href="#DejaVuSans-104"/>
      <use x="308.789062" xlink:href="#DejaVuSans-116"/>
     </g>
     <!-- (bytes) -->
     <defs>
      <path d="M 32.171875 -5.078125 
Q 28.375 -14.84375 24.75 -17.8125 
Q 21.140625 -20.796875 15.09375 -20.796875 
L 7.90625 -20.796875 
L 7.90625 -13.28125 
L 13.1875 -13.28125 
Q 16.890625 -13.28125 18.9375 -11.515625 
Q 21 -9.765625 23.484375 -3.21875 
L 25.09375 0.875 
L 2.984375 54.6875 
L 12.5 54.6875 
L 29.59375 11.921875 
L 46.6875 54.6875 
L 56.203125 54.6875 
z
" id="DejaVuSans-121"/>
     </defs>
     <g transform="translate(36.479312 148.043454)rotate(-90)scale(0.1 -0.1)">
      <use xlink:href="#DejaVuSans-40"/>
      <use x="39.013672" xlink:href="#DejaVuSans-98"/>
      <use x="102.490234" xlink:href="#DejaVuSans-121"/>
      <use x="161.669922" xlink:href="#DejaVuSans-116"/>
      <use x="200.878906" xlink:href="#DejaVuSans-101"/>
      <use x="262.402344" xlink:href="#DejaVuSans-115"/>
      <use x="314.501953" xlink:href="#DejaVuSans-41"/>
     </g>
    </g>
   </g>
   <g id="line2d_31">
    <path clip-path="url(#pbae5f9b38c)" d="M 110.211327 144.151612 
L 112.2983 144.55839 
L 114.385274 144.151612 
L 116.472247 142.321106 
L 118.55922 140.083822 
L 120.646193 146.69398 
L 122.733166 148.42279 
L 124.82014 149.541432 
L 126.907113 150.1516 
L 128.994086 150.253295 
L 131.081059 152.185495 
L 133.168032 152.490579 
L 135.255006 152.693969 
L 137.341979 152.795663 
L 139.428952 152.693969 
L 141.515925 152.693969 
L 143.602898 152.693969 
L 145.689871 152.693969 
L 147.776845 152.693969 
L 149.863818 152.693969 
L 151.950791 151.982105 
L 154.037764 149.948211 
L 156.124737 148.42279 
L 158.211711 148.42279 
L 160.298684 148.219401 
L 162.385657 146.185506 
L 164.47263 144.965169 
L 166.559603 143.948222 
L 168.646576 149.032958 
L 170.73355 150.35499 
L 172.820523 150.253295 
L 174.907496 150.049906 
L 176.994469 150.253295 
L 179.081442 149.948211 
L 181.168416 150.253295 
L 183.255389 149.643127 
L 185.342362 149.846516 
L 187.429335 149.643127 
L 189.516308 149.439737 
L 191.603282 149.643127 
L 193.690255 149.846516 
L 195.777228 149.643127 
L 197.864201 149.948211 
L 199.951174 149.541432 
L 202.038147 149.846516 
L 204.125121 149.643127 
L 206.212094 149.643127 
L 208.299067 149.643127 
L 210.38604 153.914305 
L 212.473013 149.236348 
L 214.559987 149.439737 
L 216.64696 149.439737 
L 218.733933 149.541432 
L 220.820906 149.846516 
L 222.907879 149.643127 
L 224.994852 149.744821 
L 227.081826 149.643127 
L 229.168799 149.846516 
L 231.255772 149.846516 
L 233.342745 149.846516 
L 235.429718 149.643127 
L 237.516692 149.948211 
L 239.603665 149.643127 
L 241.690638 149.846516 
L 243.777611 149.744821 
L 245.864584 149.846516 
L 247.951558 149.439737 
L 250.038531 149.643127 
L 252.125504 149.439737 
L 254.212477 151.168548 
L 256.29945 149.744821 
L 258.386423 149.541432 
L 260.473397 149.744821 
L 262.56037 149.643127 
L 264.647343 150.049906 
L 266.734316 149.744821 
L 268.821289 150.049906 
L 270.908263 149.643127 
L 272.995236 149.846516 
L 275.082209 149.846516 
L 277.169182 149.846516 
L 279.256155 149.541432 
L 281.343128 150.253295 
L 283.430102 149.643127 
L 285.517075 149.948211 
L 287.604048 149.643127 
L 289.691021 149.744821 
L 291.777994 149.338043 
L 293.864968 149.948211 
L 295.951941 153.914305 
L 298.038914 149.439737 
L 300.125887 149.541432 
L 302.21286 149.541432 
L 304.299834 149.948211 
L 306.386807 149.643127 
L 308.47378 149.948211 
L 310.560753 149.439737 
L 312.647726 149.643127 
L 314.734699 149.744821 
L 316.821673 149.541432 
L 318.908646 149.948211 
L 320.995619 149.744821 
L 323.082592 149.643127 
L 325.169565 149.744821 
L 327.256539 149.846516 
L 329.343512 149.643127 
L 331.430485 149.948211 
L 333.517458 149.541432 
" style="fill:none;stroke:#1f77b4;stroke-linecap:square;stroke-width:1.5;"/>
   </g>
   <g id="line2d_32">
    <path clip-path="url(#pbae5f9b38c)" d="M 127.428856 123.507582 
L 129.515829 108.965236 
L 131.602802 128.490624 
L 133.689776 124.829613 
L 135.776749 127.778761 
L 137.863722 128.388929 
L 139.950695 124.524529 
L 142.037668 123.710971 
L 144.124642 124.524529 
L 146.211615 124.524529 
L 148.298588 119.338098 
L 150.385561 117.609288 
L 152.472534 116.79573 
L 154.559507 113.744888 
L 156.646481 120.049961 
L 158.733454 115.270309 
L 160.820427 116.694035 
L 162.9074 117.914372 
L 164.994373 121.270298 
L 167.081347 123.710971 
L 169.16832 148.117706 
L 171.255293 148.42279 
L 173.342266 149.338043 
L 175.429239 149.236348 
L 177.516213 149.439737 
L 179.603186 149.744821 
L 181.690159 149.846516 
L 183.777132 150.1516 
L 185.864105 150.1516 
L 187.951078 149.846516 
L 190.038052 149.846516 
L 192.125025 149.744821 
L 194.211998 150.049906 
L 196.298971 149.948211 
L 198.385944 150.1516 
L 200.472918 149.744821 
L 202.559891 149.948211 
L 204.646864 149.643127 
L 206.733837 149.541432 
L 208.82081 149.846516 
L 210.907783 153.914305 
L 212.994757 150.35499 
L 215.08173 149.744821 
L 217.168703 149.948211 
L 219.255676 149.744821 
L 221.342649 150.1516 
L 223.429623 149.541432 
L 225.516596 149.744821 
L 227.603569 149.948211 
L 229.690542 149.643127 
L 231.777515 149.643127 
L 233.864489 149.948211 
L 235.951462 149.744821 
L 238.038435 149.744821 
L 240.125408 149.439737 
L 242.212381 149.439737 
L 244.299354 149.643127 
L 246.386328 149.948211 
L 248.473301 149.541432 
L 250.560274 149.846516 
L 252.647247 149.643127 
L 254.73422 150.558379 
L 256.821194 149.948211 
L 258.908167 149.846516 
L 260.99514 149.541432 
L 263.082113 149.541432 
L 265.169086 149.948211 
L 267.256059 149.948211 
L 269.343033 149.744821 
L 271.430006 149.948211 
L 273.516979 149.541432 
L 275.603952 149.846516 
L 277.690925 149.643127 
L 279.777899 149.846516 
L 281.864872 149.643127 
L 283.951845 150.35499 
L 286.038818 149.439737 
L 288.125791 150.253295 
L 290.212765 149.744821 
L 292.299738 149.744821 
L 294.386711 149.643127 
L 296.473684 153.914305 
L 298.560657 149.236348 
L 300.64763 149.338043 
L 302.734604 149.541432 
L 304.821577 149.948211 
L 306.90855 149.439737 
L 308.995523 149.744821 
L 311.082496 149.846516 
L 313.16947 149.744821 
L 315.256443 149.338043 
L 317.343416 149.643127 
L 319.430389 149.439737 
L 321.517362 150.1516 
L 323.604335 149.541432 
L 325.691309 149.846516 
L 327.778282 149.643127 
L 329.865255 150.049906 
L 331.952228 149.643127 
L 334.039201 150.1516 
L 336.126175 149.744821 
L 338.213148 150.049906 
L 340.300121 149.439737 
L 342.387094 149.846516 
L 344.474067 149.846516 
L 346.561041 149.846516 
L 348.648014 150.049906 
L 350.734987 149.846516 
" style="fill:none;stroke:#ff7f0e;stroke-linecap:square;stroke-width:1.5;"/>
   </g>
   <g id="line2d_33">
    <path clip-path="url(#pbae5f9b38c)" d="M 101.967783 144.456696 
L 104.054756 144.049917 
L 106.14173 145.575338 
L 108.228703 144.863475 
L 110.315676 140.795686 
L 112.402649 146.083811 
L 114.489622 147.507537 
L 116.576596 148.117706 
L 118.663569 148.42279 
L 120.750542 151.473632 
L 122.837515 151.880411 
L 124.924488 152.0838 
L 127.011461 152.28719 
L 129.098435 152.388884 
L 131.185408 152.897358 
L 133.272381 153.100747 
L 135.359354 153.100747 
L 137.446327 152.999053 
L 139.533301 152.897358 
L 141.620274 152.795663 
L 143.707247 152.897358 
L 145.79422 153.914305 
L 147.881193 152.0838 
L 149.968166 150.761769 
L 152.05514 149.439737 
L 154.142113 147.304148 
L 156.229086 146.49059 
L 158.316059 146.083811 
L 160.403032 144.76178 
L 162.490006 141.812633 
L 164.576979 140.999075 
L 166.663952 139.371959 
L 168.750925 146.999064 
L 170.837898 148.829569 
L 172.924872 149.236348 
L 175.011845 149.338043 
L 177.098818 149.643127 
L 179.185791 149.846516 
L 181.272764 149.846516 
L 183.359737 149.948211 
L 185.446711 149.948211 
L 187.533684 150.1516 
L 189.620657 149.439737 
L 191.70763 149.541432 
L 193.794603 149.643127 
L 195.881577 150.1516 
L 197.96855 149.643127 
L 200.055523 150.049906 
L 202.142496 149.541432 
L 204.229469 150.1516 
L 206.316442 149.643127 
L 208.403416 149.744821 
L 210.490389 153.914305 
L 212.577362 149.439737 
L 214.664335 149.439737 
L 216.751308 149.643127 
L 218.838282 149.643127 
L 220.925255 150.1516 
L 223.012228 149.744821 
L 225.099201 149.744821 
L 227.186174 149.643127 
L 229.273148 149.948211 
L 231.360121 149.846516 
L 233.447094 149.846516 
L 235.534067 150.049906 
L 237.62104 149.948211 
L 239.708013 150.049906 
L 241.794987 149.744821 
L 243.88196 150.1516 
L 245.968933 149.744821 
L 248.055906 149.948211 
L 250.142879 149.541432 
L 252.229853 149.948211 
L 254.316826 151.168548 
L 256.403799 150.35499 
L 258.490772 149.948211 
L 260.577745 150.049906 
L 262.664718 149.643127 
L 264.751692 150.1516 
L 266.838665 149.948211 
L 268.925638 149.948211 
L 271.012611 149.643127 
L 273.099584 149.846516 
L 275.186558 149.541432 
L 277.273531 150.049906 
L 279.360504 149.643127 
L 281.447477 150.049906 
L 283.53445 149.744821 
L 285.621424 150.049906 
L 287.708397 149.744821 
L 289.79537 149.846516 
L 291.882343 149.744821 
L 293.969316 150.1516 
L 296.056289 153.914305 
L 298.143263 150.1516 
L 300.230236 150.965158 
L 302.317209 149.744821 
L 304.404182 150.253295 
L 306.491155 149.744821 
L 308.578129 150.1516 
L 310.665102 149.846516 
L 312.752075 150.253295 
L 314.839048 149.541432 
L 316.926021 149.846516 
L 319.012994 149.948211 
L 321.099968 150.35499 
L 323.186941 149.846516 
L 325.273914 149.948211 
" style="fill:none;stroke:#2ca02c;stroke-linecap:square;stroke-width:1.5;"/>
   </g>
   <g id="line2d_34">
    <path clip-path="url(#pbae5f9b38c)" d="M 118.87644 122.694024 
L 120.963413 136.727896 
L 123.050386 131.948244 
L 125.13736 135.30417 
L 127.224333 127.066897 
L 129.311306 128.490624 
L 131.398279 138.355012 
L 133.485252 137.846538 
L 135.572225 142.82958 
L 137.659199 144.049917 
L 139.746172 144.253306 
L 141.833145 145.575338 
L 143.920118 146.49059 
L 146.007091 146.897369 
L 148.094065 148.016011 
L 150.181038 147.609232 
L 152.268011 148.829569 
L 154.354984 150.049906 
L 156.441957 150.049906 
L 158.52893 150.863463 
L 160.615904 149.541432 
L 162.702877 148.727874 
L 164.78985 147.710927 
L 166.876823 146.897369 
L 168.963796 149.032958 
L 171.05077 150.253295 
L 173.137743 150.456685 
L 175.224716 149.948211 
L 177.311689 150.049906 
L 179.398662 149.541432 
L 181.485636 149.439737 
L 183.572609 149.541432 
L 185.659582 149.541432 
L 187.746555 149.338043 
L 189.833528 149.236348 
L 191.920501 149.134653 
L 194.007475 149.236348 
L 196.094448 149.439737 
L 198.181421 149.439737 
L 200.268394 149.439737 
L 202.355367 149.439737 
L 204.442341 149.439737 
L 206.529314 149.541432 
L 208.616287 149.541432 
L 210.70326 153.914305 
L 212.790233 150.1516 
L 214.877206 149.948211 
L 216.96418 150.35499 
L 219.051153 150.253295 
L 221.138126 149.744821 
L 223.225099 149.948211 
L 225.312072 149.643127 
L 227.399046 149.744821 
L 229.486019 149.439737 
L 231.572992 149.541432 
L 233.659965 149.643127 
L 235.746938 149.541432 
L 237.833912 149.643127 
L 239.920885 149.643127 
L 242.007858 149.948211 
L 244.094831 149.948211 
L 246.181804 149.846516 
L 248.268777 149.541432 
L 250.355751 149.948211 
L 252.442724 149.744821 
L 254.529697 151.270242 
L 256.61667 149.948211 
L 258.703643 149.948211 
L 260.790617 149.643127 
L 262.87759 149.846516 
L 264.964563 149.744821 
L 267.051536 149.744821 
L 269.138509 149.541432 
L 271.225482 149.846516 
L 273.312456 149.541432 
L 275.399429 149.846516 
L 277.486402 149.439737 
L 279.573375 149.541432 
L 281.660348 149.439737 
L 283.747322 149.948211 
L 285.834295 149.948211 
L 287.921268 149.643127 
L 290.008241 149.541432 
L 292.095214 149.643127 
L 294.182188 149.846516 
L 296.269161 153.914305 
L 298.356134 150.049906 
L 300.443107 149.948211 
L 302.53008 149.948211 
L 304.617053 149.846516 
L 306.704027 149.948211 
L 308.791 149.744821 
L 310.877973 150.049906 
L 312.964946 149.846516 
L 315.051919 149.846516 
L 317.138893 149.439737 
L 319.225866 149.439737 
L 321.312839 149.439737 
L 323.399812 149.439737 
L 325.486785 149.541432 
L 327.573758 149.541432 
L 329.660732 149.744821 
L 331.747705 149.744821 
L 333.834678 149.744821 
L 335.921651 149.643127 
L 338.008624 149.846516 
L 340.095598 149.846516 
L 342.182571 149.744821 
" style="fill:none;stroke:#d62728;stroke-linecap:square;stroke-width:1.5;"/>
   </g>
   <g id="patch_9">
    <path d="M 87.734 154.016 
L 87.734 106.717783 
" style="fill:none;stroke:#000000;stroke-linecap:square;stroke-linejoin:miter;stroke-width:0.8;"/>
   </g>
   <g id="patch_10">
    <path d="M 366.534 154.016 
L 366.534 106.717783 
" style="fill:none;stroke:#000000;stroke-linecap:square;stroke-linejoin:miter;stroke-width:0.8;"/>
   </g>
   <g id="patch_11">
    <path d="M 87.734 154.016 
L 366.534 154.016 
" style="fill:none;stroke:#000000;stroke-linecap:square;stroke-linejoin:miter;stroke-width:0.8;"/>
   </g>
   <g id="patch_12">
    <path d="M 87.734 106.717783 
L 366.534 106.717783 
" style="fill:none;stroke:#000000;stroke-linecap:square;stroke-linejoin:miter;stroke-width:0.8;"/>
   </g>
   <g id="legend_2">
    <g id="patch_13">
     <path d="M 382.474 168.430283 
L 444.006812 168.430283 
Q 446.006812 168.430283 446.006812 166.430283 
L 446.006812 108.717783 
Q 446.006812 106.717783 444.006812 106.717783 
L 382.474 106.717783 
Q 380.474 106.717783 380.474 108.717783 
L 380.474 166.430283 
Q 380.474 168.430283 382.474 168.430283 
z
" style="fill:#ffffff;opacity:0.8;stroke:#cccccc;stroke-linejoin:miter;"/>
    </g>
    <g id="line2d_35">
     <path d="M 384.474 114.81622 
L 404.474 114.81622 
" style="fill:none;stroke:#1f77b4;stroke-linecap:square;stroke-width:1.5;"/>
    </g>
    <g id="line2d_36"/>
    <g id="text_10">
     <!-- bbr-pi -->
     <g transform="translate(412.474 118.31622)scale(0.1 -0.1)">
      <use xlink:href="#DejaVuSans-98"/>
      <use x="63.476562" xlink:href="#DejaVuSans-98"/>
      <use x="126.953125" xlink:href="#DejaVuSans-114"/>
      <use x="167.972656" xlink:href="#DejaVuSans-45"/>
      <use x="204.056641" xlink:href="#DejaVuSans-112"/>
      <use x="267.533203" xlink:href="#DejaVuSans-105"/>
     </g>
    </g>
    <g id="line2d_37">
     <path d="M 384.474 129.494345 
L 404.474 129.494345 
" style="fill:none;stroke:#ff7f0e;stroke-linecap:square;stroke-width:1.5;"/>
    </g>
    <g id="line2d_38"/>
    <g id="text_11">
     <!-- bbr-pi -->
     <g transform="translate(412.474 132.994345)scale(0.1 -0.1)">
      <use xlink:href="#DejaVuSans-98"/>
      <use x="63.476562" xlink:href="#DejaVuSans-98"/>
      <use x="126.953125" xlink:href="#DejaVuSans-114"/>
      <use x="167.972656" xlink:href="#DejaVuSans-45"/>
      <use x="204.056641" xlink:href="#DejaVuSans-112"/>
      <use x="267.533203" xlink:href="#DejaVuSans-105"/>
     </g>
    </g>
    <g id="line2d_39">
     <path d="M 384.474 144.17247 
L 404.474 144.17247 
" style="fill:none;stroke:#2ca02c;stroke-linecap:square;stroke-width:1.5;"/>
    </g>
    <g id="line2d_40"/>
    <g id="line2d_41">
     <path d="M 384.474 158.850595 
L 404.474 158.850595 
" style="fill:none;stroke:#d62728;stroke-linecap:square;stroke-width:1.5;"/>
    </g>
    <g id="line2d_42"/>
    <g id="text_12">
     <!-- bbr-pi -->
     <g transform="translate(412.474 162.350595)scale(0.1 -0.1)">
      <use xlink:href="#DejaVuSans-98"/>
      <use x="63.476562" xlink:href="#DejaVuSans-98"/>
      <use x="126.953125" xlink:href="#DejaVuSans-114"/>
      <use x="167.972656" xlink:href="#DejaVuSans-45"/>
      <use x="204.056641" xlink:href="#DejaVuSans-112"/>
      <use x="267.533203" xlink:href="#DejaVuSans-105"/>
     </g>
    </g>
   </g>
  </g>
  <g id="axes_3">
   <g id="patch_14">
    <path d="M 87.734 223.644 
L 366.534 223.644 
L 366.534 176.345783 
L 87.734 176.345783 
z
" style="fill:#ffffff;"/>
   </g>
   <g id="matplotlib.axis_5">
    <g id="xtick_15">
     <g id="line2d_43">
      <g>
       <use style="stroke:#000000;stroke-width:0.8;" x="100.026898" xlink:href="#m8a0782edce" y="223.644"/>
      </g>
     </g>
    </g>
    <g id="xtick_16">
     <g id="line2d_44">
      <g>
       <use style="stroke:#000000;stroke-width:0.8;" x="141.766362" xlink:href="#m8a0782edce" y="223.644"/>
      </g>
     </g>
    </g>
    <g id="xtick_17">
     <g id="line2d_45">
      <g>
       <use style="stroke:#000000;stroke-width:0.8;" x="183.505826" xlink:href="#m8a0782edce" y="223.644"/>
      </g>
     </g>
    </g>
    <g id="xtick_18">
     <g id="line2d_46">
      <g>
       <use style="stroke:#000000;stroke-width:0.8;" x="225.245289" xlink:href="#m8a0782edce" y="223.644"/>
      </g>
     </g>
    </g>
    <g id="xtick_19">
     <g id="line2d_47">
      <g>
       <use style="stroke:#000000;stroke-width:0.8;" x="266.984753" xlink:href="#m8a0782edce" y="223.644"/>
      </g>
     </g>
    </g>
    <g id="xtick_20">
     <g id="line2d_48">
      <g>
       <use style="stroke:#000000;stroke-width:0.8;" x="308.724217" xlink:href="#m8a0782edce" y="223.644"/>
      </g>
     </g>
    </g>
    <g id="xtick_21">
     <g id="line2d_49">
      <g>
       <use style="stroke:#000000;stroke-width:0.8;" x="350.46368" xlink:href="#m8a0782edce" y="223.644"/>
      </g>
     </g>
    </g>
   </g>
   <g id="matplotlib.axis_6">
    <g id="ytick_5">
     <g id="line2d_50">
      <g>
       <use style="stroke:#000000;stroke-width:0.8;" x="87.734" xlink:href="#me397efe07a" y="223.644"/>
      </g>
     </g>
     <g id="text_13">
      <!-- 0 -->
      <g transform="translate(74.3715 227.443219)scale(0.1 -0.1)">
       <use xlink:href="#DejaVuSans-48"/>
      </g>
     </g>
    </g>
    <g id="ytick_6">
     <g id="line2d_51">
      <g>
       <use style="stroke:#000000;stroke-width:0.8;" x="87.734" xlink:href="#me397efe07a" y="180.071253"/>
      </g>
     </g>
     <g id="text_14">
      <!-- 100 -->
      <defs>
       <path d="M 12.40625 8.296875 
L 28.515625 8.296875 
L 28.515625 63.921875 
L 10.984375 60.40625 
L 10.984375 69.390625 
L 28.421875 72.90625 
L 38.28125 72.90625 
L 38.28125 8.296875 
L 54.390625 8.296875 
L 54.390625 0 
L 12.40625 0 
z
" id="DejaVuSans-49"/>
      </defs>
      <g transform="translate(61.6465 183.870471)scale(0.1 -0.1)">
       <use xlink:href="#DejaVuSans-49"/>
       <use x="63.623047" xlink:href="#DejaVuSans-48"/>
       <use x="127.246094" xlink:href="#DejaVuSans-48"/>
      </g>
     </g>
    </g>
    <g id="text_15">
     <!-- rtt -->
     <g transform="translate(44.369 205.970673)rotate(-90)scale(0.1 -0.1)">
      <use xlink:href="#DejaVuSans-114"/>
      <use x="41.113281" xlink:href="#DejaVuSans-116"/>
      <use x="80.322266" xlink:href="#DejaVuSans-116"/>
     </g>
     <!-- (ms) -->
     <g transform="translate(55.566812 211.371454)rotate(-90)scale(0.1 -0.1)">
      <use xlink:href="#DejaVuSans-40"/>
      <use x="39.013672" xlink:href="#DejaVuSans-109"/>
      <use x="136.425781" xlink:href="#DejaVuSans-115"/>
      <use x="188.525391" xlink:href="#DejaVuSans-41"/>
     </g>
    </g>
   </g>
   <g id="line2d_52">
    <path clip-path="url(#pa39caecc83)" d="M 110.211327 207.086356 
L 112.2983 211.443631 
L 114.385274 212.315086 
L 116.472247 212.315086 
L 118.55922 208.393538 
L 120.646193 197.500352 
L 122.733166 205.779174 
L 124.82014 206.214901 
L 126.907113 206.214901 
L 128.994086 183.557072 
L 131.081059 183.557072 
L 133.168032 193.578804 
L 135.255006 195.757442 
L 137.341979 198.371806 
L 139.428952 198.807534 
L 141.515925 197.936079 
L 143.602898 197.500352 
L 145.689871 198.371806 
L 147.776845 199.243261 
L 149.863818 194.885987 
L 151.950791 195.757442 
L 154.037764 190.528712 
L 156.124737 189.657257 
L 158.211711 188.785802 
L 160.298684 190.528712 
L 162.385657 186.171437 
L 164.47263 182.685617 
L 166.559603 183.121345 
L 168.646576 200.550444 
L 170.73355 209.700721 
L 172.820523 212.315086 
L 174.907496 212.750813 
L 176.994469 212.750813 
L 179.081442 212.750813 
L 181.168416 212.750813 
L 183.255389 212.750813 
L 185.342362 212.750813 
L 187.429335 212.750813 
L 189.516308 212.750813 
L 191.603282 212.750813 
L 193.690255 212.315086 
L 195.777228 212.750813 
L 197.864201 212.750813 
L 199.951174 212.750813 
L 202.038147 212.750813 
L 204.125121 212.750813 
L 206.212094 212.750813 
L 208.299067 212.750813 
L 210.38604 213.186541 
L 212.473013 213.186541 
L 214.559987 212.750813 
L 216.64696 212.750813 
L 218.733933 212.750813 
L 220.820906 212.750813 
L 222.907879 213.186541 
L 224.994852 212.750813 
L 227.081826 212.750813 
L 229.168799 212.750813 
L 231.255772 212.750813 
L 233.342745 212.750813 
L 235.429718 212.750813 
L 237.516692 212.750813 
L 239.603665 212.750813 
L 241.690638 212.750813 
L 243.777611 212.315086 
L 245.864584 212.315086 
L 247.951558 212.750813 
L 250.038531 212.750813 
L 252.125504 212.315086 
L 254.212477 215.800905 
L 256.29945 213.622268 
L 258.386423 213.186541 
L 260.473397 213.186541 
L 262.56037 212.750813 
L 264.647343 212.750813 
L 266.734316 212.750813 
L 268.821289 212.750813 
L 270.908263 212.750813 
L 272.995236 212.750813 
L 275.082209 212.750813 
L 277.169182 212.750813 
L 279.256155 212.315086 
L 281.343128 212.750813 
L 283.430102 212.315086 
L 285.517075 212.750813 
L 287.604048 212.315086 
L 289.691021 212.750813 
L 291.777994 212.315086 
L 293.864968 212.315086 
L 295.951941 212.750813 
L 298.038914 214.493723 
L 300.125887 212.750813 
L 302.21286 212.750813 
L 304.299834 212.750813 
L 306.386807 212.750813 
L 308.47378 212.750813 
L 310.560753 212.750813 
L 312.647726 212.315086 
L 314.734699 212.750813 
L 316.821673 212.750813 
L 318.908646 212.750813 
L 320.995619 212.750813 
L 323.082592 212.315086 
L 325.169565 212.315086 
L 327.256539 212.750813 
L 329.343512 212.750813 
L 331.430485 212.750813 
L 333.517458 212.315086 
" style="fill:none;stroke:#1f77b4;stroke-linecap:square;stroke-width:1.5;"/>
   </g>
   <g id="line2d_53">
    <path clip-path="url(#pa39caecc83)" d="M 127.428856 196.193169 
L 129.515829 178.328343 
L 131.602802 183.9928 
L 133.689776 193.578804 
L 135.776749 194.885987 
L 137.863722 197.064624 
L 139.950695 197.500352 
L 142.037668 196.193169 
L 144.124642 196.628897 
L 146.211615 197.064624 
L 148.298588 197.064624 
L 150.385561 192.271622 
L 152.472534 194.014532 
L 154.559507 189.221529 
L 156.646481 188.785802 
L 158.733454 188.785802 
L 160.820427 190.092984 
L 162.9074 184.864255 
L 164.994373 182.685617 
L 167.081347 183.121345 
L 169.16832 195.321714 
L 171.255293 210.572176 
L 173.342266 212.750813 
L 175.429239 212.750813 
L 177.516213 212.750813 
L 179.603186 212.750813 
L 181.690159 212.750813 
L 183.777132 212.750813 
L 185.864105 212.750813 
L 187.951078 212.750813 
L 190.038052 212.750813 
L 192.125025 212.750813 
L 194.211998 212.315086 
L 196.298971 212.750813 
L 198.385944 212.750813 
L 200.472918 212.750813 
L 202.559891 212.750813 
L 204.646864 212.750813 
L 206.733837 212.750813 
L 208.82081 212.750813 
L 210.907783 214.493723 
L 212.994757 211.879358 
L 215.08173 212.750813 
L 217.168703 212.750813 
L 219.255676 212.750813 
L 221.342649 212.750813 
L 223.429623 212.750813 
L 225.516596 212.750813 
L 227.603569 212.750813 
L 229.690542 212.750813 
L 231.777515 212.750813 
L 233.864489 212.750813 
L 235.951462 212.750813 
L 238.038435 212.750813 
L 240.125408 212.750813 
L 242.212381 212.750813 
L 244.299354 212.750813 
L 246.386328 212.315086 
L 248.473301 212.750813 
L 250.560274 212.750813 
L 252.647247 212.750813 
L 254.73422 216.67236 
L 256.821194 213.186541 
L 258.908167 212.750813 
L 260.99514 212.750813 
L 263.082113 212.750813 
L 265.169086 212.750813 
L 267.256059 212.750813 
L 269.343033 212.750813 
L 271.430006 212.750813 
L 273.516979 212.750813 
L 275.603952 212.750813 
L 277.690925 212.750813 
L 279.777899 212.315086 
L 281.864872 212.750813 
L 283.951845 212.750813 
L 286.038818 212.750813 
L 288.125791 212.315086 
L 290.212765 212.750813 
L 292.299738 212.315086 
L 294.386711 212.750813 
L 296.473684 213.622268 
L 298.560657 213.622268 
L 300.64763 212.750813 
L 302.734604 212.750813 
L 304.821577 213.186541 
L 306.90855 212.750813 
L 308.995523 212.750813 
L 311.082496 212.750813 
L 313.16947 212.750813 
L 315.256443 212.750813 
L 317.343416 212.750813 
L 319.430389 212.750813 
L 321.517362 212.750813 
L 323.604335 212.750813 
L 325.691309 212.315086 
L 327.778282 212.750813 
L 329.865255 212.750813 
L 331.952228 212.750813 
L 334.039201 212.315086 
L 336.126175 212.315086 
L 338.213148 212.315086 
L 340.300121 216.236633 
L 342.387094 212.315086 
L 344.474067 212.750813 
L 346.561041 212.750813 
L 348.648014 212.750813 
L 350.734987 212.750813 
" style="fill:none;stroke:#ff7f0e;stroke-linecap:square;stroke-width:1.5;"/>
   </g>
   <g id="line2d_54">
    <path clip-path="url(#pa39caecc83)" d="M 101.967783 214.493723 
L 104.054756 217.979543 
L 106.14173 217.979543 
L 108.228703 217.979543 
L 110.315676 210.136448 
L 112.402649 211.443631 
L 114.489622 212.315086 
L 116.576596 212.315086 
L 118.663569 208.393538 
L 120.750542 197.500352 
L 122.837515 206.214901 
L 124.924488 206.650628 
L 127.011461 206.214901 
L 129.098435 184.428527 
L 131.185408 184.428527 
L 133.272381 194.885987 
L 135.359354 196.628897 
L 137.446327 199.243261 
L 139.533301 198.807534 
L 141.620274 198.371806 
L 143.707247 197.936079 
L 145.79422 199.243261 
L 147.881193 200.114716 
L 149.968166 193.143077 
L 152.05514 194.014532 
L 154.142113 190.528712 
L 156.229086 189.221529 
L 158.316059 188.785802 
L 160.403032 190.528712 
L 162.490006 186.171437 
L 164.576979 182.685617 
L 166.663952 183.121345 
L 168.750925 201.421899 
L 170.837898 209.700721 
L 172.924872 212.315086 
L 175.011845 212.750813 
L 177.098818 212.750813 
L 179.185791 212.750813 
L 181.272764 212.750813 
L 183.359737 212.750813 
L 185.446711 212.750813 
L 187.533684 212.750813 
L 189.620657 212.750813 
L 191.70763 212.750813 
L 193.794603 212.315086 
L 195.881577 212.315086 
L 197.96855 212.750813 
L 200.055523 212.315086 
L 202.142496 212.750813 
L 204.229469 212.750813 
L 206.316442 212.750813 
L 208.403416 212.750813 
L 210.490389 213.186541 
L 212.577362 213.186541 
L 214.664335 212.750813 
L 216.751308 212.750813 
L 218.838282 212.750813 
L 220.925255 212.750813 
L 223.012228 213.186541 
L 225.099201 212.750813 
L 227.186174 212.750813 
L 229.273148 212.750813 
L 231.360121 212.750813 
L 233.447094 212.750813 
L 235.534067 212.750813 
L 237.62104 212.750813 
L 239.708013 212.750813 
L 241.794987 212.750813 
L 243.88196 212.315086 
L 245.968933 212.315086 
L 248.055906 212.750813 
L 250.142879 212.750813 
L 252.229853 212.315086 
L 254.316826 215.800905 
L 256.403799 213.622268 
L 258.490772 212.750813 
L 260.577745 212.750813 
L 262.664718 212.750813 
L 264.751692 212.750813 
L 266.838665 212.750813 
L 268.925638 212.750813 
L 271.012611 212.750813 
L 273.099584 212.750813 
L 275.186558 212.750813 
L 277.273531 212.750813 
L 279.360504 212.315086 
L 281.447477 212.750813 
L 283.53445 212.315086 
L 285.621424 212.315086 
L 287.708397 212.315086 
L 289.79537 212.750813 
L 291.882343 212.315086 
L 293.969316 212.315086 
L 296.056289 213.186541 
L 298.143263 214.493723 
L 300.230236 212.750813 
L 302.317209 212.750813 
L 304.404182 212.750813 
L 306.491155 212.750813 
L 308.578129 212.750813 
L 310.665102 212.750813 
L 312.752075 212.315086 
L 314.839048 212.750813 
L 316.926021 212.750813 
L 319.012994 212.750813 
L 321.099968 212.750813 
L 323.186941 212.315086 
L 325.273914 212.315086 
" style="fill:none;stroke:#2ca02c;stroke-linecap:square;stroke-width:1.5;"/>
   </g>
   <g id="line2d_55">
    <path clip-path="url(#pa39caecc83)" d="M 118.87644 199.243261 
L 120.963413 198.807534 
L 123.050386 205.779174 
L 125.13736 206.214901 
L 127.224333 204.471991 
L 129.311306 180.50698 
L 131.398279 183.557072 
L 133.485252 193.143077 
L 135.572225 194.450259 
L 137.659199 197.500352 
L 139.746172 197.500352 
L 141.833145 196.193169 
L 143.920118 196.628897 
L 146.007091 197.064624 
L 148.094065 197.500352 
L 150.181038 193.143077 
L 152.268011 194.014532 
L 154.354984 190.092984 
L 156.441957 190.092984 
L 158.52893 189.221529 
L 160.615904 191.400167 
L 162.702877 185.73571 
L 164.78985 183.121345 
L 166.876823 183.557072 
L 168.963796 205.343446 
L 171.05077 210.136448 
L 173.137743 212.750813 
L 175.224716 212.750813 
L 177.311689 212.750813 
L 179.398662 212.750813 
L 181.485636 212.750813 
L 183.572609 212.750813 
L 185.659582 212.750813 
L 187.746555 212.750813 
L 189.833528 212.750813 
L 191.920501 212.750813 
L 194.007475 212.315086 
L 196.094448 212.750813 
L 198.181421 212.750813 
L 200.268394 212.750813 
L 202.355367 212.750813 
L 204.442341 212.750813 
L 206.529314 212.750813 
L 208.616287 212.750813 
L 210.70326 213.186541 
L 212.790233 212.750813 
L 214.877206 212.750813 
L 216.96418 212.750813 
L 219.051153 212.750813 
L 221.138126 212.750813 
L 223.225099 212.750813 
L 225.312072 212.750813 
L 227.399046 212.750813 
L 229.486019 212.750813 
L 231.572992 212.750813 
L 233.659965 212.750813 
L 235.746938 212.750813 
L 237.833912 212.750813 
L 239.920885 212.750813 
L 242.007858 212.750813 
L 244.094831 212.315086 
L 246.181804 212.315086 
L 248.268777 212.750813 
L 250.355751 212.750813 
L 252.442724 212.315086 
L 254.529697 216.236633 
L 256.61667 213.622268 
L 258.703643 212.750813 
L 260.790617 213.186541 
L 262.87759 212.750813 
L 264.964563 212.750813 
L 267.051536 212.750813 
L 269.138509 212.750813 
L 271.225482 212.750813 
L 273.312456 212.750813 
L 275.399429 212.750813 
L 277.486402 212.750813 
L 279.573375 212.315086 
L 281.660348 212.750813 
L 283.747322 212.315086 
L 285.834295 212.750813 
L 287.921268 212.315086 
L 290.008241 212.750813 
L 292.095214 212.315086 
L 294.182188 212.750813 
L 296.269161 213.186541 
L 298.356134 214.057996 
L 300.443107 212.750813 
L 302.53008 212.750813 
L 304.617053 212.750813 
L 306.704027 212.750813 
L 308.791 212.750813 
L 310.877973 212.750813 
L 312.964946 212.315086 
L 315.051919 212.750813 
L 317.138893 212.750813 
L 319.225866 212.750813 
L 321.312839 212.750813 
L 323.399812 212.315086 
L 325.486785 212.315086 
L 327.573758 212.750813 
L 329.660732 212.750813 
L 331.747705 212.750813 
L 333.834678 212.315086 
L 335.921651 212.315086 
L 338.008624 212.315086 
L 340.095598 216.236633 
L 342.182571 212.315086 
" style="fill:none;stroke:#d62728;stroke-linecap:square;stroke-width:1.5;"/>
   </g>
   <g id="patch_15">
    <path d="M 87.734 223.644 
L 87.734 176.345783 
" style="fill:none;stroke:#000000;stroke-linecap:square;stroke-linejoin:miter;stroke-width:0.8;"/>
   </g>
   <g id="patch_16">
    <path d="M 366.534 223.644 
L 366.534 176.345783 
" style="fill:none;stroke:#000000;stroke-linecap:square;stroke-linejoin:miter;stroke-width:0.8;"/>
   </g>
   <g id="patch_17">
    <path d="M 87.734 223.644 
L 366.534 223.644 
" style="fill:none;stroke:#000000;stroke-linecap:square;stroke-linejoin:miter;stroke-width:0.8;"/>
   </g>
   <g id="patch_18">
    <path d="M 87.734 176.345783 
L 366.534 176.345783 
" style="fill:none;stroke:#000000;stroke-linecap:square;stroke-linejoin:miter;stroke-width:0.8;"/>
   </g>
   <g id="legend_3">
    <g id="patch_19">
     <path d="M 382.474 238.058283 
L 444.006812 238.058283 
Q 446.006812 238.058283 446.006812 236.058283 
L 446.006812 178.345783 
Q 446.006812 176.345783 444.006812 176.345783 
L 382.474 176.345783 
Q 380.474 176.345783 380.474 178.345783 
L 380.474 236.058283 
Q 380.474 238.058283 382.474 238.058283 
z
" style="fill:#ffffff;opacity:0.8;stroke:#cccccc;stroke-linejoin:miter;"/>
    </g>
    <g id="line2d_56">
     <path d="M 384.474 184.44422 
L 404.474 184.44422 
" style="fill:none;stroke:#1f77b4;stroke-linecap:square;stroke-width:1.5;"/>
    </g>
    <g id="line2d_57"/>
    <g id="text_16">
     <!-- bbr-pi -->
     <g transform="translate(412.474 187.94422)scale(0.1 -0.1)">
      <use xlink:href="#DejaVuSans-98"/>
      <use x="63.476562" xlink:href="#DejaVuSans-98"/>
      <use x="126.953125" xlink:href="#DejaVuSans-114"/>
      <use x="167.972656" xlink:href="#DejaVuSans-45"/>
      <use x="204.056641" xlink:href="#DejaVuSans-112"/>
      <use x="267.533203" xlink:href="#DejaVuSans-105"/>
     </g>
    </g>
    <g id="line2d_58">
     <path d="M 384.474 199.122345 
L 404.474 199.122345 
" style="fill:none;stroke:#ff7f0e;stroke-linecap:square;stroke-width:1.5;"/>
    </g>
    <g id="line2d_59"/>
    <g id="text_17">
     <!-- bbr-pi -->
     <g transform="translate(412.474 202.622345)scale(0.1 -0.1)">
      <use xlink:href="#DejaVuSans-98"/>
      <use x="63.476562" xlink:href="#DejaVuSans-98"/>
      <use x="126.953125" xlink:href="#DejaVuSans-114"/>
      <use x="167.972656" xlink:href="#DejaVuSans-45"/>
      <use x="204.056641" xlink:href="#DejaVuSans-112"/>
      <use x="267.533203" xlink:href="#DejaVuSans-105"/>
     </g>
    </g>
    <g id="line2d_60">
     <path d="M 384.474 213.80047 
L 404.474 213.80047 
" style="fill:none;stroke:#2ca02c;stroke-linecap:square;stroke-width:1.5;"/>
    </g>
    <g id="line2d_61"/>
    <g id="line2d_62">
     <path d="M 384.474 228.478595 
L 404.474 228.478595 
" style="fill:none;stroke:#d62728;stroke-linecap:square;stroke-width:1.5;"/>
    </g>
    <g id="line2d_63"/>
    <g id="text_18">
     <!-- bbr-pi -->
     <g transform="translate(412.474 231.978595)scale(0.1 -0.1)">
      <use xlink:href="#DejaVuSans-98"/>
      <use x="63.476562" xlink:href="#DejaVuSans-98"/>
      <use x="126.953125" xlink:href="#DejaVuSans-114"/>
      <use x="167.972656" xlink:href="#DejaVuSans-45"/>
      <use x="204.056641" xlink:href="#DejaVuSans-112"/>
      <use x="267.533203" xlink:href="#DejaVuSans-105"/>
     </g>
    </g>
   </g>
  </g>
  <g id="axes_4">
   <g id="patch_20">
    <path d="M 87.734 293.272 
L 366.534 293.272 
L 366.534 245.973783 
L 87.734 245.973783 
z
" style="fill:#ffffff;"/>
   </g>
   <g id="matplotlib.axis_7">
    <g id="xtick_22">
     <g id="line2d_64">
      <g>
       <use style="stroke:#000000;stroke-width:0.8;" x="100.026898" xlink:href="#m8a0782edce" y="293.272"/>
      </g>
     </g>
     <g id="text_19">
      <!-- 0 -->
      <g transform="translate(96.845648 307.870437)scale(0.1 -0.1)">
       <use xlink:href="#DejaVuSans-48"/>
      </g>
     </g>
    </g>
    <g id="xtick_23">
     <g id="line2d_65">
      <g>
       <use style="stroke:#000000;stroke-width:0.8;" x="141.766362" xlink:href="#m8a0782edce" y="293.272"/>
      </g>
     </g>
     <g id="text_20">
      <!-- 10 -->
      <g transform="translate(135.403862 307.870437)scale(0.1 -0.1)">
       <use xlink:href="#DejaVuSans-49"/>
       <use x="63.623047" xlink:href="#DejaVuSans-48"/>
      </g>
     </g>
    </g>
    <g id="xtick_24">
     <g id="line2d_66">
      <g>
       <use style="stroke:#000000;stroke-width:0.8;" x="183.505826" xlink:href="#m8a0782edce" y="293.272"/>
      </g>
     </g>
     <g id="text_21">
      <!-- 20 -->
      <defs>
       <path d="M 19.1875 8.296875 
L 53.609375 8.296875 
L 53.609375 0 
L 7.328125 0 
L 7.328125 8.296875 
Q 12.9375 14.109375 22.625 23.890625 
Q 32.328125 33.6875 34.8125 36.53125 
Q 39.546875 41.84375 41.421875 45.53125 
Q 43.3125 49.21875 43.3125 52.78125 
Q 43.3125 58.59375 39.234375 62.25 
Q 35.15625 65.921875 28.609375 65.921875 
Q 23.96875 65.921875 18.8125 64.3125 
Q 13.671875 62.703125 7.8125 59.421875 
L 7.8125 69.390625 
Q 13.765625 71.78125 18.9375 73 
Q 24.125 74.21875 28.421875 74.21875 
Q 39.75 74.21875 46.484375 68.546875 
Q 53.21875 62.890625 53.21875 53.421875 
Q 53.21875 48.921875 51.53125 44.890625 
Q 49.859375 40.875 45.40625 35.40625 
Q 44.1875 33.984375 37.640625 27.21875 
Q 31.109375 20.453125 19.1875 8.296875 
z
" id="DejaVuSans-50"/>
      </defs>
      <g transform="translate(177.143326 307.870437)scale(0.1 -0.1)">
       <use xlink:href="#DejaVuSans-50"/>
       <use x="63.623047" xlink:href="#DejaVuSans-48"/>
      </g>
     </g>
    </g>
    <g id="xtick_25">
     <g id="line2d_67">
      <g>
       <use style="stroke:#000000;stroke-width:0.8;" x="225.245289" xlink:href="#m8a0782edce" y="293.272"/>
      </g>
     </g>
     <g id="text_22">
      <!-- 30 -->
      <defs>
       <path d="M 40.578125 39.3125 
Q 47.65625 37.796875 51.625 33 
Q 55.609375 28.21875 55.609375 21.1875 
Q 55.609375 10.40625 48.1875 4.484375 
Q 40.765625 -1.421875 27.09375 -1.421875 
Q 22.515625 -1.421875 17.65625 -0.515625 
Q 12.796875 0.390625 7.625 2.203125 
L 7.625 11.71875 
Q 11.71875 9.328125 16.59375 8.109375 
Q 21.484375 6.890625 26.8125 6.890625 
Q 36.078125 6.890625 40.9375 10.546875 
Q 45.796875 14.203125 45.796875 21.1875 
Q 45.796875 27.640625 41.28125 31.265625 
Q 36.765625 34.90625 28.71875 34.90625 
L 20.21875 34.90625 
L 20.21875 43.015625 
L 29.109375 43.015625 
Q 36.375 43.015625 40.234375 45.921875 
Q 44.09375 48.828125 44.09375 54.296875 
Q 44.09375 59.90625 40.109375 62.90625 
Q 36.140625 65.921875 28.71875 65.921875 
Q 24.65625 65.921875 20.015625 65.03125 
Q 15.375 64.15625 9.8125 62.3125 
L 9.8125 71.09375 
Q 15.4375 72.65625 20.34375 73.4375 
Q 25.25 74.21875 29.59375 74.21875 
Q 40.828125 74.21875 47.359375 69.109375 
Q 53.90625 64.015625 53.90625 55.328125 
Q 53.90625 49.265625 50.4375 45.09375 
Q 46.96875 40.921875 40.578125 39.3125 
z
" id="DejaVuSans-51"/>
      </defs>
      <g transform="translate(218.882789 307.870437)scale(0.1 -0.1)">
       <use xlink:href="#DejaVuSans-51"/>
       <use x="63.623047" xlink:href="#DejaVuSans-48"/>
      </g>
     </g>
    </g>
    <g id="xtick_26">
     <g id="line2d_68">
      <g>
       <use style="stroke:#000000;stroke-width:0.8;" x="266.984753" xlink:href="#m8a0782edce" y="293.272"/>
      </g>
     </g>
     <g id="text_23">
      <!-- 40 -->
      <defs>
       <path d="M 37.796875 64.3125 
L 12.890625 25.390625 
L 37.796875 25.390625 
z
M 35.203125 72.90625 
L 47.609375 72.90625 
L 47.609375 25.390625 
L 58.015625 25.390625 
L 58.015625 17.1875 
L 47.609375 17.1875 
L 47.609375 0 
L 37.796875 0 
L 37.796875 17.1875 
L 4.890625 17.1875 
L 4.890625 26.703125 
z
" id="DejaVuSans-52"/>
      </defs>
      <g transform="translate(260.622253 307.870437)scale(0.1 -0.1)">
       <use xlink:href="#DejaVuSans-52"/>
       <use x="63.623047" xlink:href="#DejaVuSans-48"/>
      </g>
     </g>
    </g>
    <g id="xtick_27">
     <g id="line2d_69">
      <g>
       <use style="stroke:#000000;stroke-width:0.8;" x="308.724217" xlink:href="#m8a0782edce" y="293.272"/>
      </g>
     </g>
     <g id="text_24">
      <!-- 50 -->
      <g transform="translate(302.361717 307.870437)scale(0.1 -0.1)">
       <use xlink:href="#DejaVuSans-53"/>
       <use x="63.623047" xlink:href="#DejaVuSans-48"/>
      </g>
     </g>
    </g>
    <g id="xtick_28">
     <g id="line2d_70">
      <g>
       <use style="stroke:#000000;stroke-width:0.8;" x="350.46368" xlink:href="#m8a0782edce" y="293.272"/>
      </g>
     </g>
     <g id="text_25">
      <!-- 60 -->
      <defs>
       <path d="M 33.015625 40.375 
Q 26.375 40.375 22.484375 35.828125 
Q 18.609375 31.296875 18.609375 23.390625 
Q 18.609375 15.53125 22.484375 10.953125 
Q 26.375 6.390625 33.015625 6.390625 
Q 39.65625 6.390625 43.53125 10.953125 
Q 47.40625 15.53125 47.40625 23.390625 
Q 47.40625 31.296875 43.53125 35.828125 
Q 39.65625 40.375 33.015625 40.375 
z
M 52.59375 71.296875 
L 52.59375 62.3125 
Q 48.875 64.0625 45.09375 64.984375 
Q 41.3125 65.921875 37.59375 65.921875 
Q 27.828125 65.921875 22.671875 59.328125 
Q 17.53125 52.734375 16.796875 39.40625 
Q 19.671875 43.65625 24.015625 45.921875 
Q 28.375 48.1875 33.59375 48.1875 
Q 44.578125 48.1875 50.953125 41.515625 
Q 57.328125 34.859375 57.328125 23.390625 
Q 57.328125 12.15625 50.6875 5.359375 
Q 44.046875 -1.421875 33.015625 -1.421875 
Q 20.359375 -1.421875 13.671875 8.265625 
Q 6.984375 17.96875 6.984375 36.375 
Q 6.984375 53.65625 15.1875 63.9375 
Q 23.390625 74.21875 37.203125 74.21875 
Q 40.921875 74.21875 44.703125 73.484375 
Q 48.484375 72.75 52.59375 71.296875 
z
" id="DejaVuSans-54"/>
      </defs>
      <g transform="translate(344.10118 307.870437)scale(0.1 -0.1)">
       <use xlink:href="#DejaVuSans-54"/>
       <use x="63.623047" xlink:href="#DejaVuSans-48"/>
      </g>
     </g>
    </g>
    <g id="text_26">
     <!-- time (seconds) -->
     <g transform="translate(189.909781 321.548562)scale(0.1 -0.1)">
      <use xlink:href="#DejaVuSans-116"/>
      <use x="39.208984" xlink:href="#DejaVuSans-105"/>
      <use x="66.992188" xlink:href="#DejaVuSans-109"/>
      <use x="164.404297" xlink:href="#DejaVuSans-101"/>
      <use x="225.927734" xlink:href="#DejaVuSans-32"/>
      <use x="257.714844" xlink:href="#DejaVuSans-40"/>
      <use x="296.728516" xlink:href="#DejaVuSans-115"/>
      <use x="348.828125" xlink:href="#DejaVuSans-101"/>
      <use x="410.351562" xlink:href="#DejaVuSans-99"/>
      <use x="465.332031" xlink:href="#DejaVuSans-111"/>
      <use x="526.513672" xlink:href="#DejaVuSans-110"/>
      <use x="589.892578" xlink:href="#DejaVuSans-100"/>
      <use x="653.369141" xlink:href="#DejaVuSans-115"/>
      <use x="705.46875" xlink:href="#DejaVuSans-41"/>
     </g>
    </g>
   </g>
   <g id="matplotlib.axis_8">
    <g id="ytick_7">
     <g id="line2d_71">
      <g>
       <use style="stroke:#000000;stroke-width:0.8;" x="87.734" xlink:href="#me397efe07a" y="293.272"/>
      </g>
     </g>
     <g id="text_27">
      <!-- 0 -->
      <g transform="translate(74.3715 297.071219)scale(0.1 -0.1)">
       <use xlink:href="#DejaVuSans-48"/>
      </g>
     </g>
    </g>
    <g id="ytick_8">
     <g id="line2d_72">
      <g>
       <use style="stroke:#000000;stroke-width:0.8;" x="87.734" xlink:href="#me397efe07a" y="248.930837"/>
      </g>
     </g>
     <g id="text_28">
      <!-- 1000000 -->
      <g transform="translate(36.1965 252.730056)scale(0.1 -0.1)">
       <use xlink:href="#DejaVuSans-49"/>
       <use x="63.623047" xlink:href="#DejaVuSans-48"/>
       <use x="127.246094" xlink:href="#DejaVuSans-48"/>
       <use x="190.869141" xlink:href="#DejaVuSans-48"/>
       <use x="254.492188" xlink:href="#DejaVuSans-48"/>
       <use x="318.115234" xlink:href="#DejaVuSans-48"/>
       <use x="381.738281" xlink:href="#DejaVuSans-48"/>
      </g>
     </g>
    </g>
    <g id="text_29">
     <!-- queue -->
     <defs>
      <path d="M 14.796875 27.296875 
Q 14.796875 17.390625 18.875 11.75 
Q 22.953125 6.109375 30.078125 6.109375 
Q 37.203125 6.109375 41.296875 11.75 
Q 45.40625 17.390625 45.40625 27.296875 
Q 45.40625 37.203125 41.296875 42.84375 
Q 37.203125 48.484375 30.078125 48.484375 
Q 22.953125 48.484375 18.875 42.84375 
Q 14.796875 37.203125 14.796875 27.296875 
z
M 45.40625 8.203125 
Q 42.578125 3.328125 38.25 0.953125 
Q 33.9375 -1.421875 27.875 -1.421875 
Q 17.96875 -1.421875 11.734375 6.484375 
Q 5.515625 14.40625 5.515625 27.296875 
Q 5.515625 40.1875 11.734375 48.09375 
Q 17.96875 56 27.875 56 
Q 33.9375 56 38.25 53.625 
Q 42.578125 51.265625 45.40625 46.390625 
L 45.40625 54.6875 
L 54.390625 54.6875 
L 54.390625 -20.796875 
L 45.40625 -20.796875 
z
" id="DejaVuSans-113"/>
     </defs>
     <g transform="translate(18.919 285.287735)rotate(-90)scale(0.1 -0.1)">
      <use xlink:href="#DejaVuSans-113"/>
      <use x="63.476562" xlink:href="#DejaVuSans-117"/>
      <use x="126.855469" xlink:href="#DejaVuSans-101"/>
      <use x="188.378906" xlink:href="#DejaVuSans-117"/>
      <use x="251.757812" xlink:href="#DejaVuSans-101"/>
     </g>
     <!-- (bytes) -->
     <g transform="translate(30.116812 287.299454)rotate(-90)scale(0.1 -0.1)">
      <use xlink:href="#DejaVuSans-40"/>
      <use x="39.013672" xlink:href="#DejaVuSans-98"/>
      <use x="102.490234" xlink:href="#DejaVuSans-121"/>
      <use x="161.669922" xlink:href="#DejaVuSans-116"/>
      <use x="200.878906" xlink:href="#DejaVuSans-101"/>
      <use x="262.402344" xlink:href="#DejaVuSans-115"/>
      <use x="314.501953" xlink:href="#DejaVuSans-41"/>
     </g>
    </g>
   </g>
   <g id="line2d_73">
    <path clip-path="url(#p7d4c8ae907)" d="M 109.906997 278.771376 
L 110.348022 283.000724 
L 110.792072 285.887423 
L 111.233005 285.618893 
L 111.673445 285.887423 
L 112.563335 285.28323 
L 113.022153 285.82029 
L 113.462794 285.55176 
L 113.905235 285.82029 
L 114.34888 286.424483 
L 114.789438 286.290218 
L 115.236451 286.62588 
L 115.683254 285.954555 
L 116.122545 286.08882 
L 116.565138 286.021688 
L 117.009617 286.349857 
L 117.453484 284.276242 
L 118.345398 268.432967 
L 118.793343 265.344871 
L 119.239875 264.002221 
L 119.680063 277.361593 
L 120.119966 276.086075 
L 120.566416 279.308436 
L 121.008249 279.644098 
L 121.466636 277.428725 
L 121.90866 278.637111 
L 122.354826 280.315424 
L 122.809511 280.181158 
L 123.249575 279.912628 
L 123.697892 279.778363 
L 125.015502 281.255279 
L 125.464735 280.647805 
L 125.912583 281.050955 
L 126.356231 276.22034 
L 127.687591 253.32815 
L 128.129721 250.172922 
L 128.587748 248.494609 
L 129.03006 248.226079 
L 129.473233 248.628874 
L 129.922661 253.59668 
L 130.372371 266.821787 
L 130.816822 260.51133 
L 131.701109 267.828775 
L 132.1391 267.023184 
L 132.577092 265.412004 
L 133.01586 267.42598 
L 133.454094 266.553257 
L 133.902863 264.472149 
L 134.780113 270.446943 
L 135.217837 268.970028 
L 135.655512 271.588196 
L 136.531224 270.178413 
L 137.406799 271.252533 
L 137.84461 272.058123 
L 138.288657 291.134756 
L 138.733134 270.849738 
L 139.170827 271.453931 
L 139.6084 270.178413 
L 140.048047 270.044148 
L 140.485378 271.118268 
L 140.922756 270.245545 
L 141.369509 268.634365 
L 141.809888 270.581208 
L 142.258381 270.312678 
L 142.709772 290.682476 
L 143.155989 270.581208 
L 143.597691 270.715473 
L 144.035263 268.5001 
L 144.473023 291.134756 
L 144.916265 270.782606 
L 145.353243 290.983996 
L 145.790786 272.125256 
L 146.687286 272.595184 
L 147.130572 270.916871 
L 148.462054 267.560245 
L 148.90055 265.076341 
L 149.346837 265.747667 
L 149.799592 264.740679 
L 150.247531 262.726703 
L 150.686406 268.5001 
L 151.13001 269.104293 
L 151.578838 266.351859 
L 152.016901 267.291715 
L 152.892779 263.196631 
L 153.78035 260.914125 
L 154.235925 263.599426 
L 154.684607 261.58545 
L 155.133976 262.189643 
L 155.572241 264.270751 
L 156.01781 262.793836 
L 156.455637 260.2428 
L 156.893412 263.599426 
L 157.331 261.115523 
L 157.776212 261.58545 
L 158.214186 262.860968 
L 158.654208 260.175667 
L 159.533365 266.016197 
L 159.97065 265.814799 
L 160.408192 261.58545 
L 161.289324 257.020439 
L 161.730805 259.504342 
L 162.168955 257.154704 
L 162.609471 256.147716 
L 163.060192 255.409258 
L 163.510252 257.423234 
L 163.961143 256.953306 
L 164.842038 255.677788 
L 165.28047 289.613854 
L 165.71793 289.764614 
L 166.155276 255.073596 
L 166.592507 256.214849 
L 167.029806 256.013451 
L 167.484614 263.733691 
L 167.924053 285.55176 
L 168.37013 292.869205 
L 168.807628 280.449689 
L 169.245163 282.262267 
L 169.682816 282.262267 
L 170.120115 284.679037 
L 170.557824 285.686025 
L 171.448132 285.82029 
L 171.885766 286.827278 
L 172.324024 286.290218 
L 172.768418 286.155953 
L 173.210351 286.693013 
L 173.653111 286.693013 
L 174.095057 286.961543 
L 174.537056 286.760146 
L 174.979028 286.693013 
L 175.4208 285.887423 
L 175.860964 286.62588 
L 176.299357 286.62588 
L 176.73826 286.894411 
L 177.175664 286.827278 
L 178.051525 286.290218 
L 178.48872 286.290218 
L 178.932058 287.364338 
L 179.374114 286.558748 
L 180.709004 286.223085 
L 181.151432 286.290218 
L 181.596181 287.028676 
L 182.039232 286.424483 
L 182.920782 286.021688 
L 183.803636 286.693013 
L 185.129546 286.491615 
L 185.569597 286.558748 
L 186.014804 286.290218 
L 186.903875 286.894411 
L 187.345372 286.827278 
L 188.225638 286.290218 
L 188.664029 286.558748 
L 189.10261 286.155953 
L 189.985371 286.491615 
L 190.424141 286.35735 
L 190.862558 286.35735 
L 191.301013 286.62588 
L 191.739357 286.021688 
L 192.177797 286.021688 
L 192.620386 286.827278 
L 193.062025 286.290218 
L 193.504174 286.491615 
L 193.944935 286.08882 
L 194.826701 286.155953 
L 195.268178 286.961543 
L 195.709961 286.08882 
L 196.151279 286.62588 
L 197.037472 286.155953 
L 197.481472 286.558748 
L 197.9229 286.693013 
L 198.366074 286.35735 
L 198.809612 286.290218 
L 199.252268 286.021688 
L 199.694841 286.155953 
L 200.13792 286.491615 
L 200.583444 286.62588 
L 201.024089 286.62588 
L 201.465219 286.491615 
L 201.90668 285.954555 
L 202.349021 286.290218 
L 202.790601 286.424483 
L 203.230928 286.693013 
L 203.669479 286.693013 
L 204.108337 286.558748 
L 204.549201 286.08882 
L 204.993028 286.155953 
L 205.432619 286.35735 
L 205.875597 286.894411 
L 206.316141 286.62588 
L 207.199088 286.290218 
L 207.642526 286.693013 
L 208.09049 286.290218 
L 208.531346 286.760146 
L 208.98064 286.760146 
L 209.419362 286.491615 
L 209.860589 286.35735 
L 210.312027 293.272 
L 210.779816 293.272 
L 211.242 293.070602 
L 211.683925 283.94058 
L 212.126789 284.007712 
L 212.571311 284.410507 
L 213.011824 287.028676 
L 213.454637 287.162941 
L 213.896236 286.155953 
L 214.343137 285.954555 
L 214.786032 286.290218 
L 215.229279 286.827278 
L 215.675256 286.693013 
L 216.117683 286.894411 
L 216.561369 285.954555 
L 217.000531 285.887423 
L 217.449377 286.223085 
L 217.892706 287.028676 
L 218.333941 286.760146 
L 218.778148 287.095808 
L 219.660766 286.223085 
L 220.100226 286.223085 
L 220.539251 287.028676 
L 221.425271 287.095808 
L 221.867971 286.558748 
L 222.308472 286.35735 
L 223.192472 286.894411 
L 223.638945 287.431471 
L 224.081226 286.827278 
L 224.522654 285.887423 
L 225.410485 286.223085 
L 225.852462 286.894411 
L 226.29174 286.760146 
L 226.733242 287.095808 
L 227.175173 285.686025 
L 227.614951 285.82029 
L 228.054577 286.290218 
L 228.494392 286.961543 
L 228.934639 286.894411 
L 229.374429 286.290218 
L 229.819335 285.954555 
L 230.261703 285.887423 
L 230.700547 286.62588 
L 231.139445 286.827278 
L 231.587171 286.693013 
L 232.475027 285.954555 
L 232.916395 286.223085 
L 233.355765 286.894411 
L 233.80083 286.961543 
L 234.683931 286.35735 
L 235.122991 286.424483 
L 235.561656 286.290218 
L 236.450461 287.095808 
L 236.889565 286.491615 
L 237.342942 286.491615 
L 237.796793 286.35735 
L 238.241857 286.693013 
L 238.685165 286.760146 
L 239.131245 287.632868 
L 239.577707 286.290218 
L 240.02077 285.753158 
L 240.464555 286.021688 
L 241.350281 286.827278 
L 241.794532 286.961543 
L 242.239217 285.82029 
L 242.685454 285.686025 
L 243.129746 286.155953 
L 244.019038 286.760146 
L 244.46684 286.35735 
L 244.906937 285.618893 
L 245.345588 285.753158 
L 245.784425 286.424483 
L 246.223963 286.290218 
L 246.671918 287.230073 
L 247.551638 285.954555 
L 247.991007 286.424483 
L 248.430431 286.290218 
L 248.871111 286.424483 
L 249.310313 287.028676 
L 250.193308 285.954555 
L 250.633374 286.424483 
L 251.078592 286.021688 
L 251.52074 286.08882 
L 251.959422 286.760146 
L 252.399573 286.558748 
L 252.842572 287.297206 
L 253.284939 293.272 
L 253.747073 293.272 
L 254.187676 290.385302 
L 255.517215 286.62588 
L 255.955208 286.558748 
L 256.395802 286.290218 
L 256.834067 286.693013 
L 257.276446 287.297206 
L 257.718465 286.827278 
L 258.160665 286.827278 
L 259.044431 286.021688 
L 259.486022 286.961543 
L 259.927715 287.095808 
L 260.370221 287.095808 
L 260.811752 286.62588 
L 261.694556 286.35735 
L 262.137562 286.558748 
L 262.57865 286.62588 
L 263.470102 286.155953 
L 264.366927 286.223085 
L 264.813331 286.894411 
L 265.253478 287.028676 
L 265.692352 286.290218 
L 266.138967 285.82029 
L 266.581748 286.558748 
L 267.905838 286.760146 
L 268.346634 286.693013 
L 268.785458 286.155953 
L 269.668261 286.290218 
L 270.108263 286.491615 
L 270.550287 286.558748 
L 271.433939 285.82029 
L 271.878256 286.155953 
L 272.317164 286.223085 
L 272.755778 286.693013 
L 274.084926 286.489753 
L 274.531983 285.954555 
L 274.975786 286.424483 
L 275.41484 286.693013 
L 275.860955 286.62588 
L 276.305698 286.424483 
L 276.749438 286.021688 
L 277.190721 286.08882 
L 278.081029 286.693013 
L 278.526444 286.424483 
L 278.966464 286.290218 
L 279.407163 285.887423 
L 280.301626 286.223085 
L 280.746884 286.491615 
L 281.193562 286.62588 
L 281.642617 286.155953 
L 282.090689 286.223085 
L 282.536545 286.155953 
L 283.424276 286.35735 
L 283.869675 286.827278 
L 284.324124 286.08882 
L 285.210066 286.155953 
L 285.651811 286.827278 
L 286.529758 285.954555 
L 287.420625 286.021688 
L 287.861506 286.155953 
L 288.300872 286.491615 
L 288.740342 286.35735 
L 289.178096 286.558748 
L 289.616465 286.08882 
L 290.495509 285.954555 
L 290.94203 286.35735 
L 292.265637 286.290218 
L 292.71059 286.223085 
L 293.152455 285.954555 
L 293.593946 286.62588 
L 294.032849 286.155953 
L 295.356604 286.223085 
L 295.799424 293.272 
L 296.261725 293.272 
L 296.71337 292.130747 
L 297.155898 287.700001 
L 297.595073 286.021688 
L 298.476963 286.08882 
L 298.917913 287.095808 
L 299.801211 285.82029 
L 300.243968 286.827278 
L 300.687981 286.894411 
L 301.128615 286.760146 
L 301.571014 286.35735 
L 302.013117 286.424483 
L 302.455544 286.021688 
L 302.895107 286.491615 
L 303.335702 286.760146 
L 303.776681 286.894411 
L 304.217209 286.62588 
L 304.65774 286.693013 
L 305.108262 286.155953 
L 305.553638 286.424483 
L 305.998594 287.028676 
L 306.443988 286.760146 
L 306.891237 286.290218 
L 307.333326 286.08882 
L 308.226173 286.558748 
L 308.66631 286.961543 
L 309.996689 285.82029 
L 310.434858 286.558748 
L 310.87387 286.290218 
L 311.31322 286.558748 
L 311.751978 286.290218 
L 313.088167 286.35735 
L 313.968206 286.760146 
L 314.406171 286.223085 
L 314.844935 286.424483 
L 315.285442 286.155953 
L 315.735026 286.155953 
L 316.179063 286.894411 
L 316.617899 287.230073 
L 317.057622 286.08882 
L 317.505261 285.753158 
L 317.944926 285.618893 
L 318.385007 286.290218 
L 318.823962 287.364338 
L 319.69882 286.155953 
L 320.574042 286.35735 
L 321.011733 286.693013 
L 321.449388 286.290218 
L 322.774852 286.424483 
L 324.095152 286.155953 
L 324.969917 286.424483 
L 325.852033 286.08882 
L 326.292732 286.62588 
L 326.743937 286.827278 
L 327.195202 286.558748 
L 328.098726 286.290218 
L 328.545142 286.424483 
L 328.984744 286.35735 
L 329.423782 286.424483 
L 329.860772 286.760146 
L 330.740179 286.693013 
L 331.180026 286.155953 
L 331.617636 286.290218 
L 332.055093 286.223085 
L 333.367841 286.491615 
L 333.805157 286.08882 
L 334.684382 286.021688 
L 335.559009 286.424483 
L 335.996723 286.424483 
L 336.434588 286.223085 
L 337.309721 286.290218 
L 337.747056 286.155953 
L 338.184448 286.35735 
L 338.625767 293.272 
L 339.083123 293.272 
L 339.545311 291.459422 
L 340.0076 287.431471 
L 340.445946 292.504898 
L 340.885616 285.82029 
L 341.330497 285.753158 
L 341.770791 286.760146 
L 342.208903 286.155953 
L 342.652614 286.290218 
L 343.092189 286.827278 
L 343.530544 286.693013 
L 343.968706 286.693013 
L 344.408921 286.558748 
L 344.848197 286.693013 
L 345.286203 285.954555 
L 345.724119 286.62588 
L 346.161764 286.760146 
L 346.599695 286.760146 
L 347.0412 286.491615 
L 347.47932 286.021688 
L 347.917173 286.08882 
L 348.354865 286.424483 
L 348.354865 286.424483 
" style="fill:none;stroke:#1f77b4;stroke-linecap:square;stroke-width:1.5;"/>
   </g>
   <g id="patch_21">
    <path d="M 87.734 293.272 
L 87.734 245.973783 
" style="fill:none;stroke:#000000;stroke-linecap:square;stroke-linejoin:miter;stroke-width:0.8;"/>
   </g>
   <g id="patch_22">
    <path d="M 366.534 293.272 
L 366.534 245.973783 
" style="fill:none;stroke:#000000;stroke-linecap:square;stroke-linejoin:miter;stroke-width:0.8;"/>
   </g>
   <g id="patch_23">
    <path d="M 87.734 293.272 
L 366.534 293.272 
" style="fill:none;stroke:#000000;stroke-linecap:square;stroke-linejoin:miter;stroke-width:0.8;"/>
   </g>
   <g id="patch_24">
    <path d="M 87.734 245.973783 
L 366.534 245.973783 
" style="fill:none;stroke:#000000;stroke-linecap:square;stroke-linejoin:miter;stroke-width:0.8;"/>
   </g>
   <g id="legend_4">
    <g id="patch_25">
     <path d="M 382.474 263.651908 
L 444.006812 263.651908 
Q 446.006812 263.651908 446.006812 261.651908 
L 446.006812 247.973783 
Q 446.006812 245.973783 444.006812 245.973783 
L 382.474 245.973783 
Q 380.474 245.973783 380.474 247.973783 
L 380.474 261.651908 
Q 380.474 263.651908 382.474 263.651908 
z
" style="fill:#ffffff;opacity:0.8;stroke:#cccccc;stroke-linejoin:miter;"/>
    </g>
    <g id="line2d_74">
     <path d="M 384.474 254.07222 
L 404.474 254.07222 
" style="fill:none;stroke:#1f77b4;stroke-linecap:square;stroke-width:1.5;"/>
    </g>
    <g id="line2d_75"/>
    <g id="text_30">
     <!-- bbr-pi -->
     <g transform="translate(412.474 257.57222)scale(0.1 -0.1)">
      <use xlink:href="#DejaVuSans-98"/>
      <use x="63.476562" xlink:href="#DejaVuSans-98"/>
      <use x="126.953125" xlink:href="#DejaVuSans-114"/>
      <use x="167.972656" xlink:href="#DejaVuSans-45"/>
      <use x="204.056641" xlink:href="#DejaVuSans-112"/>
      <use x="267.533203" xlink:href="#DejaVuSans-105"/>
     </g>
    </g>
   </g>
  </g>
  <g id="text_31">
   <!-- 4 -->
   <g transform="translate(225.31 19.0695)scale(0.16 -0.16)">
    <use xlink:href="#DejaVuSans-52"/>
   </g>
  </g>
 </g>
 <defs>
  <clipPath id="pe3f5ec98de">
   <rect height="47.298217" width="278.8" x="87.734" y="37.089783"/>
  </clipPath>
  <clipPath id="pbae5f9b38c">
   <rect height="47.298217" width="278.8" x="87.734" y="106.717783"/>
  </clipPath>
  <clipPath id="pa39caecc83">
   <rect height="47.298217" width="278.8" x="87.734" y="176.345783"/>
  </clipPath>
  <clipPath id="p7d4c8ae907">
   <rect height="47.298217" width="278.8" x="87.734" y="245.973783"/>
  </clipPath>
 </defs>
</svg>
