<?xml version="1.0" encoding="utf-8" standalone="no"?>
<!DOCTYPE svg PUBLIC "-//W3C//DTD SVG 1.1//EN"
  "http://www.w3.org/Graphics/SVG/1.1/DTD/svg11.dtd">
<!-- Created with matplotlib (https://matplotlib.org/) -->
<svg height="396pt" version="1.1" viewBox="0 0 684 396" width="684pt" xmlns="http://www.w3.org/2000/svg" xmlns:xlink="http://www.w3.org/1999/xlink">
 <defs>
  <style type="text/css">
*{stroke-linecap:butt;stroke-linejoin:round;}
  </style>
 </defs>
 <g id="figure_1">
  <g id="patch_1">
   <path d="M 0 396 
L 684 396 
L 684 0 
L 0 0 
z
" style="fill:#ffffff;"/>
  </g>
  <g id="axes_1">
   <g id="patch_2">
    <path d="M 130.230156 352.174167 
L 544.073906 352.174167 
L 544.073906 35.0625 
L 130.230156 35.0625 
z
" style="fill:#ffffff;"/>
   </g>
   <g id="matplotlib.axis_1">
    <g id="xtick_1">
     <g id="line2d_1">
      <defs>
       <path d="M 0 0 
L 0 3.5 
" id="m0f39095e82" style="stroke:#000000;stroke-width:0.8;"/>
      </defs>
      <g>
       <use style="stroke:#000000;stroke-width:0.8;" x="133.452476" xlink:href="#m0f39095e82" y="352.174167"/>
      </g>
     </g>
     <g id="text_1">
      <!-- 0 -->
      <defs>
       <path d="M 31.78125 66.40625 
Q 24.171875 66.40625 20.328125 58.90625 
Q 16.5 51.421875 16.5 36.375 
Q 16.5 21.390625 20.328125 13.890625 
Q 24.171875 6.390625 31.78125 6.390625 
Q 39.453125 6.390625 43.28125 13.890625 
Q 47.125 21.390625 47.125 36.375 
Q 47.125 51.421875 43.28125 58.90625 
Q 39.453125 66.40625 31.78125 66.40625 
z
M 31.78125 74.21875 
Q 44.046875 74.21875 50.515625 64.515625 
Q 56.984375 54.828125 56.984375 36.375 
Q 56.984375 17.96875 50.515625 8.265625 
Q 44.046875 -1.421875 31.78125 -1.421875 
Q 19.53125 -1.421875 13.0625 8.265625 
Q 6.59375 17.96875 6.59375 36.375 
Q 6.59375 54.828125 13.0625 64.515625 
Q 19.53125 74.21875 31.78125 74.21875 
z
" id="DejaVuSans-48"/>
      </defs>
      <g transform="translate(130.271226 366.772604)scale(0.1 -0.1)">
       <use xlink:href="#DejaVuSans-48"/>
      </g>
     </g>
    </g>
    <g id="xtick_2">
     <g id="line2d_2">
      <g>
       <use style="stroke:#000000;stroke-width:0.8;" x="199.308747" xlink:href="#m0f39095e82" y="352.174167"/>
      </g>
     </g>
     <g id="text_2">
      <!-- 10 -->
      <defs>
       <path d="M 12.40625 8.296875 
L 28.515625 8.296875 
L 28.515625 63.921875 
L 10.984375 60.40625 
L 10.984375 69.390625 
L 28.421875 72.90625 
L 38.28125 72.90625 
L 38.28125 8.296875 
L 54.390625 8.296875 
L 54.390625 0 
L 12.40625 0 
z
" id="DejaVuSans-49"/>
      </defs>
      <g transform="translate(192.946247 366.772604)scale(0.1 -0.1)">
       <use xlink:href="#DejaVuSans-49"/>
       <use x="63.623047" xlink:href="#DejaVuSans-48"/>
      </g>
     </g>
    </g>
    <g id="xtick_3">
     <g id="line2d_3">
      <g>
       <use style="stroke:#000000;stroke-width:0.8;" x="265.165018" xlink:href="#m0f39095e82" y="352.174167"/>
      </g>
     </g>
     <g id="text_3">
      <!-- 20 -->
      <defs>
       <path d="M 19.1875 8.296875 
L 53.609375 8.296875 
L 53.609375 0 
L 7.328125 0 
L 7.328125 8.296875 
Q 12.9375 14.109375 22.625 23.890625 
Q 32.328125 33.6875 34.8125 36.53125 
Q 39.546875 41.84375 41.421875 45.53125 
Q 43.3125 49.21875 43.3125 52.78125 
Q 43.3125 58.59375 39.234375 62.25 
Q 35.15625 65.921875 28.609375 65.921875 
Q 23.96875 65.921875 18.8125 64.3125 
Q 13.671875 62.703125 7.8125 59.421875 
L 7.8125 69.390625 
Q 13.765625 71.78125 18.9375 73 
Q 24.125 74.21875 28.421875 74.21875 
Q 39.75 74.21875 46.484375 68.546875 
Q 53.21875 62.890625 53.21875 53.421875 
Q 53.21875 48.921875 51.53125 44.890625 
Q 49.859375 40.875 45.40625 35.40625 
Q 44.1875 33.984375 37.640625 27.21875 
Q 31.109375 20.453125 19.1875 8.296875 
z
" id="DejaVuSans-50"/>
      </defs>
      <g transform="translate(258.802518 366.772604)scale(0.1 -0.1)">
       <use xlink:href="#DejaVuSans-50"/>
       <use x="63.623047" xlink:href="#DejaVuSans-48"/>
      </g>
     </g>
    </g>
    <g id="xtick_4">
     <g id="line2d_4">
      <g>
       <use style="stroke:#000000;stroke-width:0.8;" x="331.021289" xlink:href="#m0f39095e82" y="352.174167"/>
      </g>
     </g>
     <g id="text_4">
      <!-- 30 -->
      <defs>
       <path d="M 40.578125 39.3125 
Q 47.65625 37.796875 51.625 33 
Q 55.609375 28.21875 55.609375 21.1875 
Q 55.609375 10.40625 48.1875 4.484375 
Q 40.765625 -1.421875 27.09375 -1.421875 
Q 22.515625 -1.421875 17.65625 -0.515625 
Q 12.796875 0.390625 7.625 2.203125 
L 7.625 11.71875 
Q 11.71875 9.328125 16.59375 8.109375 
Q 21.484375 6.890625 26.8125 6.890625 
Q 36.078125 6.890625 40.9375 10.546875 
Q 45.796875 14.203125 45.796875 21.1875 
Q 45.796875 27.640625 41.28125 31.265625 
Q 36.765625 34.90625 28.71875 34.90625 
L 20.21875 34.90625 
L 20.21875 43.015625 
L 29.109375 43.015625 
Q 36.375 43.015625 40.234375 45.921875 
Q 44.09375 48.828125 44.09375 54.296875 
Q 44.09375 59.90625 40.109375 62.90625 
Q 36.140625 65.921875 28.71875 65.921875 
Q 24.65625 65.921875 20.015625 65.03125 
Q 15.375 64.15625 9.8125 62.3125 
L 9.8125 71.09375 
Q 15.4375 72.65625 20.34375 73.4375 
Q 25.25 74.21875 29.59375 74.21875 
Q 40.828125 74.21875 47.359375 69.109375 
Q 53.90625 64.015625 53.90625 55.328125 
Q 53.90625 49.265625 50.4375 45.09375 
Q 46.96875 40.921875 40.578125 39.3125 
z
" id="DejaVuSans-51"/>
      </defs>
      <g transform="translate(324.658789 366.772604)scale(0.1 -0.1)">
       <use xlink:href="#DejaVuSans-51"/>
       <use x="63.623047" xlink:href="#DejaVuSans-48"/>
      </g>
     </g>
    </g>
    <g id="xtick_5">
     <g id="line2d_5">
      <g>
       <use style="stroke:#000000;stroke-width:0.8;" x="396.87756" xlink:href="#m0f39095e82" y="352.174167"/>
      </g>
     </g>
     <g id="text_5">
      <!-- 40 -->
      <defs>
       <path d="M 37.796875 64.3125 
L 12.890625 25.390625 
L 37.796875 25.390625 
z
M 35.203125 72.90625 
L 47.609375 72.90625 
L 47.609375 25.390625 
L 58.015625 25.390625 
L 58.015625 17.1875 
L 47.609375 17.1875 
L 47.609375 0 
L 37.796875 0 
L 37.796875 17.1875 
L 4.890625 17.1875 
L 4.890625 26.703125 
z
" id="DejaVuSans-52"/>
      </defs>
      <g transform="translate(390.51506 366.772604)scale(0.1 -0.1)">
       <use xlink:href="#DejaVuSans-52"/>
       <use x="63.623047" xlink:href="#DejaVuSans-48"/>
      </g>
     </g>
    </g>
    <g id="xtick_6">
     <g id="line2d_6">
      <g>
       <use style="stroke:#000000;stroke-width:0.8;" x="462.733831" xlink:href="#m0f39095e82" y="352.174167"/>
      </g>
     </g>
     <g id="text_6">
      <!-- 50 -->
      <defs>
       <path d="M 10.796875 72.90625 
L 49.515625 72.90625 
L 49.515625 64.59375 
L 19.828125 64.59375 
L 19.828125 46.734375 
Q 21.96875 47.46875 24.109375 47.828125 
Q 26.265625 48.1875 28.421875 48.1875 
Q 40.625 48.1875 47.75 41.5 
Q 54.890625 34.8125 54.890625 23.390625 
Q 54.890625 11.625 47.5625 5.09375 
Q 40.234375 -1.421875 26.90625 -1.421875 
Q 22.3125 -1.421875 17.546875 -0.640625 
Q 12.796875 0.140625 7.71875 1.703125 
L 7.71875 11.625 
Q 12.109375 9.234375 16.796875 8.0625 
Q 21.484375 6.890625 26.703125 6.890625 
Q 35.15625 6.890625 40.078125 11.328125 
Q 45.015625 15.765625 45.015625 23.390625 
Q 45.015625 31 40.078125 35.4375 
Q 35.15625 39.890625 26.703125 39.890625 
Q 22.75 39.890625 18.8125 39.015625 
Q 14.890625 38.140625 10.796875 36.28125 
z
" id="DejaVuSans-53"/>
      </defs>
      <g transform="translate(456.371331 366.772604)scale(0.1 -0.1)">
       <use xlink:href="#DejaVuSans-53"/>
       <use x="63.623047" xlink:href="#DejaVuSans-48"/>
      </g>
     </g>
    </g>
    <g id="xtick_7">
     <g id="line2d_7">
      <g>
       <use style="stroke:#000000;stroke-width:0.8;" x="528.590102" xlink:href="#m0f39095e82" y="352.174167"/>
      </g>
     </g>
     <g id="text_7">
      <!-- 60 -->
      <defs>
       <path d="M 33.015625 40.375 
Q 26.375 40.375 22.484375 35.828125 
Q 18.609375 31.296875 18.609375 23.390625 
Q 18.609375 15.53125 22.484375 10.953125 
Q 26.375 6.390625 33.015625 6.390625 
Q 39.65625 6.390625 43.53125 10.953125 
Q 47.40625 15.53125 47.40625 23.390625 
Q 47.40625 31.296875 43.53125 35.828125 
Q 39.65625 40.375 33.015625 40.375 
z
M 52.59375 71.296875 
L 52.59375 62.3125 
Q 48.875 64.0625 45.09375 64.984375 
Q 41.3125 65.921875 37.59375 65.921875 
Q 27.828125 65.921875 22.671875 59.328125 
Q 17.53125 52.734375 16.796875 39.40625 
Q 19.671875 43.65625 24.015625 45.921875 
Q 28.375 48.1875 33.59375 48.1875 
Q 44.578125 48.1875 50.953125 41.515625 
Q 57.328125 34.859375 57.328125 23.390625 
Q 57.328125 12.15625 50.6875 5.359375 
Q 44.046875 -1.421875 33.015625 -1.421875 
Q 20.359375 -1.421875 13.671875 8.265625 
Q 6.984375 17.96875 6.984375 36.375 
Q 6.984375 53.65625 15.1875 63.9375 
Q 23.390625 74.21875 37.203125 74.21875 
Q 40.921875 74.21875 44.703125 73.484375 
Q 48.484375 72.75 52.59375 71.296875 
z
" id="DejaVuSans-54"/>
      </defs>
      <g transform="translate(522.227602 366.772604)scale(0.1 -0.1)">
       <use xlink:href="#DejaVuSans-54"/>
       <use x="63.623047" xlink:href="#DejaVuSans-48"/>
      </g>
     </g>
    </g>
   </g>
   <g id="matplotlib.axis_2">
    <g id="ytick_1">
     <g id="line2d_8">
      <defs>
       <path d="M 0 0 
L -3.5 0 
" id="m0446a5cab3" style="stroke:#000000;stroke-width:0.8;"/>
      </defs>
      <g>
       <use style="stroke:#000000;stroke-width:0.8;" x="130.230156" xlink:href="#m0446a5cab3" y="352.174167"/>
      </g>
     </g>
     <g id="text_8">
      <!-- 0 -->
      <g transform="translate(116.867656 355.973385)scale(0.1 -0.1)">
       <use xlink:href="#DejaVuSans-48"/>
      </g>
     </g>
    </g>
    <g id="ytick_2">
     <g id="line2d_9">
      <g>
       <use style="stroke:#000000;stroke-width:0.8;" x="130.230156" xlink:href="#m0446a5cab3" y="292.716957"/>
      </g>
     </g>
     <g id="text_9">
      <!-- 200000 -->
      <g transform="translate(85.055156 296.516176)scale(0.1 -0.1)">
       <use xlink:href="#DejaVuSans-50"/>
       <use x="63.623047" xlink:href="#DejaVuSans-48"/>
       <use x="127.246094" xlink:href="#DejaVuSans-48"/>
       <use x="190.869141" xlink:href="#DejaVuSans-48"/>
       <use x="254.492188" xlink:href="#DejaVuSans-48"/>
       <use x="318.115234" xlink:href="#DejaVuSans-48"/>
      </g>
     </g>
    </g>
    <g id="ytick_3">
     <g id="line2d_10">
      <g>
       <use style="stroke:#000000;stroke-width:0.8;" x="130.230156" xlink:href="#m0446a5cab3" y="233.259748"/>
      </g>
     </g>
     <g id="text_10">
      <!-- 400000 -->
      <g transform="translate(85.055156 237.058967)scale(0.1 -0.1)">
       <use xlink:href="#DejaVuSans-52"/>
       <use x="63.623047" xlink:href="#DejaVuSans-48"/>
       <use x="127.246094" xlink:href="#DejaVuSans-48"/>
       <use x="190.869141" xlink:href="#DejaVuSans-48"/>
       <use x="254.492188" xlink:href="#DejaVuSans-48"/>
       <use x="318.115234" xlink:href="#DejaVuSans-48"/>
      </g>
     </g>
    </g>
    <g id="ytick_4">
     <g id="line2d_11">
      <g>
       <use style="stroke:#000000;stroke-width:0.8;" x="130.230156" xlink:href="#m0446a5cab3" y="173.802539"/>
      </g>
     </g>
     <g id="text_11">
      <!-- 600000 -->
      <g transform="translate(85.055156 177.601757)scale(0.1 -0.1)">
       <use xlink:href="#DejaVuSans-54"/>
       <use x="63.623047" xlink:href="#DejaVuSans-48"/>
       <use x="127.246094" xlink:href="#DejaVuSans-48"/>
       <use x="190.869141" xlink:href="#DejaVuSans-48"/>
       <use x="254.492188" xlink:href="#DejaVuSans-48"/>
       <use x="318.115234" xlink:href="#DejaVuSans-48"/>
      </g>
     </g>
    </g>
    <g id="ytick_5">
     <g id="line2d_12">
      <g>
       <use style="stroke:#000000;stroke-width:0.8;" x="130.230156" xlink:href="#m0446a5cab3" y="114.345329"/>
      </g>
     </g>
     <g id="text_12">
      <!-- 800000 -->
      <defs>
       <path d="M 31.78125 34.625 
Q 24.75 34.625 20.71875 30.859375 
Q 16.703125 27.09375 16.703125 20.515625 
Q 16.703125 13.921875 20.71875 10.15625 
Q 24.75 6.390625 31.78125 6.390625 
Q 38.8125 6.390625 42.859375 10.171875 
Q 46.921875 13.96875 46.921875 20.515625 
Q 46.921875 27.09375 42.890625 30.859375 
Q 38.875 34.625 31.78125 34.625 
z
M 21.921875 38.8125 
Q 15.578125 40.375 12.03125 44.71875 
Q 8.5 49.078125 8.5 55.328125 
Q 8.5 64.0625 14.71875 69.140625 
Q 20.953125 74.21875 31.78125 74.21875 
Q 42.671875 74.21875 48.875 69.140625 
Q 55.078125 64.0625 55.078125 55.328125 
Q 55.078125 49.078125 51.53125 44.71875 
Q 48 40.375 41.703125 38.8125 
Q 48.828125 37.15625 52.796875 32.3125 
Q 56.78125 27.484375 56.78125 20.515625 
Q 56.78125 9.90625 50.3125 4.234375 
Q 43.84375 -1.421875 31.78125 -1.421875 
Q 19.734375 -1.421875 13.25 4.234375 
Q 6.78125 9.90625 6.78125 20.515625 
Q 6.78125 27.484375 10.78125 32.3125 
Q 14.796875 37.15625 21.921875 38.8125 
z
M 18.3125 54.390625 
Q 18.3125 48.734375 21.84375 45.5625 
Q 25.390625 42.390625 31.78125 42.390625 
Q 38.140625 42.390625 41.71875 45.5625 
Q 45.3125 48.734375 45.3125 54.390625 
Q 45.3125 60.0625 41.71875 63.234375 
Q 38.140625 66.40625 31.78125 66.40625 
Q 25.390625 66.40625 21.84375 63.234375 
Q 18.3125 60.0625 18.3125 54.390625 
z
" id="DejaVuSans-56"/>
      </defs>
      <g transform="translate(85.055156 118.144548)scale(0.1 -0.1)">
       <use xlink:href="#DejaVuSans-56"/>
       <use x="63.623047" xlink:href="#DejaVuSans-48"/>
       <use x="127.246094" xlink:href="#DejaVuSans-48"/>
       <use x="190.869141" xlink:href="#DejaVuSans-48"/>
       <use x="254.492188" xlink:href="#DejaVuSans-48"/>
       <use x="318.115234" xlink:href="#DejaVuSans-48"/>
      </g>
     </g>
    </g>
    <g id="ytick_6">
     <g id="line2d_13">
      <g>
       <use style="stroke:#000000;stroke-width:0.8;" x="130.230156" xlink:href="#m0446a5cab3" y="54.88812"/>
      </g>
     </g>
     <g id="text_13">
      <!-- 1000000 -->
      <g transform="translate(78.692656 58.687339)scale(0.1 -0.1)">
       <use xlink:href="#DejaVuSans-49"/>
       <use x="63.623047" xlink:href="#DejaVuSans-48"/>
       <use x="127.246094" xlink:href="#DejaVuSans-48"/>
       <use x="190.869141" xlink:href="#DejaVuSans-48"/>
       <use x="254.492188" xlink:href="#DejaVuSans-48"/>
       <use x="318.115234" xlink:href="#DejaVuSans-48"/>
       <use x="381.738281" xlink:href="#DejaVuSans-48"/>
      </g>
     </g>
    </g>
    <g id="text_14">
     <!-- queue -->
     <defs>
      <path d="M 14.796875 27.296875 
Q 14.796875 17.390625 18.875 11.75 
Q 22.953125 6.109375 30.078125 6.109375 
Q 37.203125 6.109375 41.296875 11.75 
Q 45.40625 17.390625 45.40625 27.296875 
Q 45.40625 37.203125 41.296875 42.84375 
Q 37.203125 48.484375 30.078125 48.484375 
Q 22.953125 48.484375 18.875 42.84375 
Q 14.796875 37.203125 14.796875 27.296875 
z
M 45.40625 8.203125 
Q 42.578125 3.328125 38.25 0.953125 
Q 33.9375 -1.421875 27.875 -1.421875 
Q 17.96875 -1.421875 11.734375 6.484375 
Q 5.515625 14.40625 5.515625 27.296875 
Q 5.515625 40.1875 11.734375 48.09375 
Q 17.96875 56 27.875 56 
Q 33.9375 56 38.25 53.625 
Q 42.578125 51.265625 45.40625 46.390625 
L 45.40625 54.6875 
L 54.390625 54.6875 
L 54.390625 -20.796875 
L 45.40625 -20.796875 
z
" id="DejaVuSans-113"/>
      <path d="M 8.5 21.578125 
L 8.5 54.6875 
L 17.484375 54.6875 
L 17.484375 21.921875 
Q 17.484375 14.15625 20.5 10.265625 
Q 23.53125 6.390625 29.59375 6.390625 
Q 36.859375 6.390625 41.078125 11.03125 
Q 45.3125 15.671875 45.3125 23.6875 
L 45.3125 54.6875 
L 54.296875 54.6875 
L 54.296875 0 
L 45.3125 0 
L 45.3125 8.40625 
Q 42.046875 3.421875 37.71875 1 
Q 33.40625 -1.421875 27.6875 -1.421875 
Q 18.265625 -1.421875 13.375 4.4375 
Q 8.5 10.296875 8.5 21.578125 
z
M 31.109375 56 
z
" id="DejaVuSans-117"/>
      <path d="M 56.203125 29.59375 
L 56.203125 25.203125 
L 14.890625 25.203125 
Q 15.484375 15.921875 20.484375 11.0625 
Q 25.484375 6.203125 34.421875 6.203125 
Q 39.59375 6.203125 44.453125 7.46875 
Q 49.3125 8.734375 54.109375 11.28125 
L 54.109375 2.78125 
Q 49.265625 0.734375 44.1875 -0.34375 
Q 39.109375 -1.421875 33.890625 -1.421875 
Q 20.796875 -1.421875 13.15625 6.1875 
Q 5.515625 13.8125 5.515625 26.8125 
Q 5.515625 40.234375 12.765625 48.109375 
Q 20.015625 56 32.328125 56 
Q 43.359375 56 49.78125 48.890625 
Q 56.203125 41.796875 56.203125 29.59375 
z
M 47.21875 32.234375 
Q 47.125 39.59375 43.09375 43.984375 
Q 39.0625 48.390625 32.421875 48.390625 
Q 24.90625 48.390625 20.390625 44.140625 
Q 15.875 39.890625 15.1875 32.171875 
z
" id="DejaVuSans-101"/>
     </defs>
     <g transform="translate(61.415156 209.283177)rotate(-90)scale(0.1 -0.1)">
      <use xlink:href="#DejaVuSans-113"/>
      <use x="63.476562" xlink:href="#DejaVuSans-117"/>
      <use x="126.855469" xlink:href="#DejaVuSans-101"/>
      <use x="188.378906" xlink:href="#DejaVuSans-117"/>
      <use x="251.757812" xlink:href="#DejaVuSans-101"/>
     </g>
     <!-- (bytes) -->
     <defs>
      <path d="M 31 75.875 
Q 24.46875 64.65625 21.28125 53.65625 
Q 18.109375 42.671875 18.109375 31.390625 
Q 18.109375 20.125 21.3125 9.0625 
Q 24.515625 -2 31 -13.1875 
L 23.1875 -13.1875 
Q 15.875 -1.703125 12.234375 9.375 
Q 8.59375 20.453125 8.59375 31.390625 
Q 8.59375 42.28125 12.203125 53.3125 
Q 15.828125 64.359375 23.1875 75.875 
z
" id="DejaVuSans-40"/>
      <path d="M 48.6875 27.296875 
Q 48.6875 37.203125 44.609375 42.84375 
Q 40.53125 48.484375 33.40625 48.484375 
Q 26.265625 48.484375 22.1875 42.84375 
Q 18.109375 37.203125 18.109375 27.296875 
Q 18.109375 17.390625 22.1875 11.75 
Q 26.265625 6.109375 33.40625 6.109375 
Q 40.53125 6.109375 44.609375 11.75 
Q 48.6875 17.390625 48.6875 27.296875 
z
M 18.109375 46.390625 
Q 20.953125 51.265625 25.265625 53.625 
Q 29.59375 56 35.59375 56 
Q 45.5625 56 51.78125 48.09375 
Q 58.015625 40.1875 58.015625 27.296875 
Q 58.015625 14.40625 51.78125 6.484375 
Q 45.5625 -1.421875 35.59375 -1.421875 
Q 29.59375 -1.421875 25.265625 0.953125 
Q 20.953125 3.328125 18.109375 8.203125 
L 18.109375 0 
L 9.078125 0 
L 9.078125 75.984375 
L 18.109375 75.984375 
z
" id="DejaVuSans-98"/>
      <path d="M 32.171875 -5.078125 
Q 28.375 -14.84375 24.75 -17.8125 
Q 21.140625 -20.796875 15.09375 -20.796875 
L 7.90625 -20.796875 
L 7.90625 -13.28125 
L 13.1875 -13.28125 
Q 16.890625 -13.28125 18.9375 -11.515625 
Q 21 -9.765625 23.484375 -3.21875 
L 25.09375 0.875 
L 2.984375 54.6875 
L 12.5 54.6875 
L 29.59375 11.921875 
L 46.6875 54.6875 
L 56.203125 54.6875 
z
" id="DejaVuSans-121"/>
      <path d="M 18.3125 70.21875 
L 18.3125 54.6875 
L 36.8125 54.6875 
L 36.8125 47.703125 
L 18.3125 47.703125 
L 18.3125 18.015625 
Q 18.3125 11.328125 20.140625 9.421875 
Q 21.96875 7.515625 27.59375 7.515625 
L 36.8125 7.515625 
L 36.8125 0 
L 27.59375 0 
Q 17.1875 0 13.234375 3.875 
Q 9.28125 7.765625 9.28125 18.015625 
L 9.28125 47.703125 
L 2.6875 47.703125 
L 2.6875 54.6875 
L 9.28125 54.6875 
L 9.28125 70.21875 
z
" id="DejaVuSans-116"/>
      <path d="M 44.28125 53.078125 
L 44.28125 44.578125 
Q 40.484375 46.53125 36.375 47.5 
Q 32.28125 48.484375 27.875 48.484375 
Q 21.1875 48.484375 17.84375 46.4375 
Q 14.5 44.390625 14.5 40.28125 
Q 14.5 37.15625 16.890625 35.375 
Q 19.28125 33.59375 26.515625 31.984375 
L 29.59375 31.296875 
Q 39.15625 29.25 43.1875 25.515625 
Q 47.21875 21.78125 47.21875 15.09375 
Q 47.21875 7.46875 41.1875 3.015625 
Q 35.15625 -1.421875 24.609375 -1.421875 
Q 20.21875 -1.421875 15.453125 -0.5625 
Q 10.6875 0.296875 5.421875 2 
L 5.421875 11.28125 
Q 10.40625 8.6875 15.234375 7.390625 
Q 20.0625 6.109375 24.8125 6.109375 
Q 31.15625 6.109375 34.5625 8.28125 
Q 37.984375 10.453125 37.984375 14.40625 
Q 37.984375 18.0625 35.515625 20.015625 
Q 33.0625 21.96875 24.703125 23.78125 
L 21.578125 24.515625 
Q 13.234375 26.265625 9.515625 29.90625 
Q 5.8125 33.546875 5.8125 39.890625 
Q 5.8125 47.609375 11.28125 51.796875 
Q 16.75 56 26.8125 56 
Q 31.78125 56 36.171875 55.265625 
Q 40.578125 54.546875 44.28125 53.078125 
z
" id="DejaVuSans-115"/>
      <path d="M 8.015625 75.875 
L 15.828125 75.875 
Q 23.140625 64.359375 26.78125 53.3125 
Q 30.421875 42.28125 30.421875 31.390625 
Q 30.421875 20.453125 26.78125 9.375 
Q 23.140625 -1.703125 15.828125 -13.1875 
L 8.015625 -13.1875 
Q 14.5 -2 17.703125 9.0625 
Q 20.90625 20.125 20.90625 31.390625 
Q 20.90625 42.671875 17.703125 53.65625 
Q 14.5 64.65625 8.015625 75.875 
z
" id="DejaVuSans-41"/>
     </defs>
     <g transform="translate(72.612969 211.294896)rotate(-90)scale(0.1 -0.1)">
      <use xlink:href="#DejaVuSans-40"/>
      <use x="39.013672" xlink:href="#DejaVuSans-98"/>
      <use x="102.490234" xlink:href="#DejaVuSans-121"/>
      <use x="161.669922" xlink:href="#DejaVuSans-116"/>
      <use x="200.878906" xlink:href="#DejaVuSans-101"/>
      <use x="262.402344" xlink:href="#DejaVuSans-115"/>
      <use x="314.501953" xlink:href="#DejaVuSans-41"/>
     </g>
    </g>
   </g>
   <g id="line2d_14">
    <path clip-path="url(#pa8b395ee64)" d="M 149.041236 254.954495 
L 149.737082 283.310232 
L 150.437702 302.664148 
L 151.133402 300.863784 
L 151.828326 302.664148 
L 152.523949 300.863784 
L 153.232389 298.613329 
L 153.95631 302.214057 
L 154.65155 300.413693 
L 155.349631 302.214057 
L 156.049612 306.264877 
L 156.744722 305.364695 
L 157.450016 307.61515 
L 158.154978 303.11424 
L 158.84809 304.014422 
L 159.546409 303.564331 
L 160.247706 305.764545 
L 160.948037 291.861963 
L 161.659702 242.802036 
L 162.355293 185.640469 
L 163.062058 164.93628 
L 163.766593 155.934458 
L 164.46112 245.502582 
L 165.155196 236.950852 
L 165.859603 258.555223 
L 166.556724 260.805679 
L 167.279963 245.952673 
L 167.977387 254.054312 
L 168.681344 265.306589 
L 169.398744 264.406407 
L 170.093074 262.606043 
L 170.800426 261.705861 
L 172.188353 269.33541 
L 172.879342 271.607864 
L 173.58814 267.535045 
L 174.294752 270.23797 
L 174.994737 237.851034 
L 177.095348 84.369977 
L 177.792939 63.215697 
L 178.51561 51.96342 
L 179.213487 50.163056 
L 179.912723 52.863602 
L 180.621828 86.170342 
L 181.331377 174.838283 
L 182.032629 132.529722 
L 182.73173 154.584185 
L 183.427853 181.589649 
L 184.118911 176.188556 
L 184.809973 165.386371 
L 185.502258 178.889103 
L 186.193702 173.037919 
L 186.901766 159.085096 
L 188.285886 199.143201 
L 188.976525 189.241198 
L 189.667085 206.79475 
L 191.048779 197.342837 
L 192.430256 204.544294 
L 193.121031 209.945387 
L 193.821646 337.844979 
L 194.522938 201.843748 
L 195.213527 205.894567 
L 195.903928 197.342837 
L 196.597601 196.442655 
L 197.287619 203.644112 
L 197.977711 197.792928 
L 198.682595 186.990742 
L 199.377422 200.043383 
L 200.085052 198.243019 
L 200.797253 334.812662 
L 201.501293 200.043383 
L 202.198207 200.943566 
L 202.888606 186.09056 
L 203.579301 337.844979 
L 204.278645 201.393657 
L 204.968106 336.834207 
L 205.658459 210.395478 
L 206.367224 212.195842 
L 207.072951 213.546116 
L 207.772365 202.293839 
L 208.479656 194.642291 
L 209.178417 188.341015 
L 209.873169 179.789285 
L 210.565026 163.135915 
L 211.269175 167.636826 
L 211.983529 160.88546 
L 212.690285 147.382728 
L 213.382739 186.09056 
L 214.082654 190.14138 
L 214.790812 171.687646 
L 215.481984 177.988921 
L 216.86394 150.533365 
L 217.555341 143.781999 
L 218.264344 135.230269 
L 218.983147 153.233912 
L 219.691075 139.731179 
L 220.400088 143.781999 
L 221.091579 157.734822 
L 221.794594 147.832819 
L 222.485395 130.729358 
L 223.176114 153.233912 
L 223.866538 136.580542 
L 224.568991 139.731179 
L 225.260023 148.28291 
L 225.954288 130.279267 
L 226.650687 148.28291 
L 227.341416 169.43719 
L 228.031362 168.086917 
L 228.721712 139.731179 
L 229.412256 123.07781 
L 230.111958 109.124986 
L 230.808523 125.778356 
L 231.499834 110.025168 
L 232.194877 103.273802 
L 232.906022 98.322801 
L 233.616124 111.825533 
L 234.327538 108.674895 
L 235.717407 100.123165 
L 236.409164 327.648068 
L 237.099386 328.65884 
L 237.789426 96.072345 
L 238.479287 103.723893 
L 239.169255 102.37362 
L 239.886849 154.134094 
L 240.580192 300.413693 
L 241.28401 349.47362 
L 241.974292 266.206771 
L 242.664631 278.35923 
L 243.355158 278.35923 
L 244.045126 294.562509 
L 244.73574 301.313875 
L 246.140463 302.214057 
L 246.830959 308.965423 
L 247.52244 305.364695 
L 248.223602 304.464513 
L 248.920881 308.065241 
L 249.619465 308.065241 
L 250.316765 309.865606 
L 251.014149 308.515332 
L 251.711489 308.065241 
L 252.408514 302.664148 
L 253.103002 307.61515 
L 253.794697 307.61515 
L 254.487194 309.415515 
L 255.177328 308.965423 
L 255.867466 306.714968 
L 256.559256 305.364695 
L 257.249059 305.364695 
L 257.948555 312.566152 
L 258.646029 307.165059 
L 260.052923 305.364695 
L 260.752211 304.914604 
L 261.450271 305.364695 
L 262.151992 310.315697 
L 262.851035 306.264877 
L 264.24194 303.564331 
L 265.634902 308.065241 
L 266.332452 307.61515 
L 267.03072 307.61515 
L 267.726914 306.714968 
L 268.421225 307.165059 
L 269.12367 305.364695 
L 269.821904 307.165059 
L 270.52644 309.415515 
L 271.223031 308.965423 
L 272.611909 305.364695 
L 273.303601 307.165059 
L 273.99559 304.464513 
L 274.692901 305.364695 
L 275.388405 306.714968 
L 276.080693 305.814786 
L 276.772425 305.814786 
L 277.464217 307.61515 
L 278.155833 303.564331 
L 278.847602 303.564331 
L 279.545917 308.965423 
L 280.242731 305.364695 
L 280.940351 306.714968 
L 281.635781 304.014422 
L 282.329177 304.014422 
L 283.027027 304.464513 
L 283.723585 309.865606 
L 284.420628 304.014422 
L 285.116938 307.61515 
L 285.817273 305.814786 
L 286.515168 304.464513 
L 287.215707 307.165059 
L 287.912191 308.065241 
L 288.611428 305.814786 
L 289.311239 305.364695 
L 290.009658 303.564331 
L 290.707948 304.464513 
L 291.407035 306.714968 
L 292.10998 307.61515 
L 292.805228 307.61515 
L 293.50124 306.714968 
L 294.197774 303.11424 
L 294.895697 305.364695 
L 295.592419 306.264877 
L 296.287164 308.065241 
L 296.979107 308.065241 
L 297.671535 307.165059 
L 298.367128 304.014422 
L 299.067396 304.464513 
L 299.760978 305.814786 
L 300.459907 309.415515 
L 301.154994 307.61515 
L 301.853269 306.714968 
L 302.548104 305.364695 
L 303.247757 308.065241 
L 303.954551 305.364695 
L 304.650131 308.515332 
L 305.359025 308.515332 
L 306.051238 306.714968 
L 306.747402 305.814786 
L 307.459679 352.174167 
L 308.197753 352.174167 
L 308.926985 350.823893 
L 309.624251 289.611507 
L 310.322999 290.061598 
L 311.024364 292.762145 
L 311.719403 310.315697 
L 312.418069 311.215879 
L 313.114823 304.464513 
L 313.81994 303.11424 
L 314.518737 305.364695 
L 315.21809 308.965423 
L 315.921749 308.065241 
L 316.619807 309.415515 
L 317.319853 303.11424 
L 318.012759 302.664148 
L 318.720947 304.914604 
L 319.420429 310.315697 
L 320.116606 308.515332 
L 320.817473 310.765788 
L 322.210063 304.914604 
L 322.903439 304.914604 
L 323.596131 310.315697 
L 324.295319 310.765788 
L 324.994088 310.765788 
L 325.692576 307.165059 
L 326.387596 305.814786 
L 327.782366 309.415515 
L 328.486808 313.016243 
L 329.184637 308.965423 
L 329.88112 302.664148 
L 330.580383 303.564331 
L 331.281934 304.914604 
L 331.979282 309.415515 
L 332.672373 308.515332 
L 333.368972 310.765788 
L 334.066248 301.313875 
L 334.760126 302.214057 
L 335.453767 305.364695 
L 336.147703 309.865606 
L 336.842323 309.415515 
L 337.53622 305.364695 
L 338.238191 303.11424 
L 338.936157 302.664148 
L 339.628562 307.61515 
L 340.321052 308.965423 
L 341.027471 308.065241 
L 341.728511 305.364695 
L 342.428325 303.11424 
L 343.124713 304.914604 
L 343.817949 309.415515 
L 344.520169 309.865606 
L 345.215719 307.61515 
L 345.913521 305.814786 
L 346.606267 306.264877 
L 347.29839 305.364695 
L 348.001123 307.61515 
L 348.700741 310.765788 
L 349.393557 306.714968 
L 350.108892 306.714968 
L 350.824976 305.814786 
L 351.527194 308.065241 
L 352.226643 308.515332 
L 352.930465 314.366516 
L 353.63489 305.364695 
L 354.333952 301.763966 
L 355.034154 303.564331 
L 356.431647 308.965423 
L 357.132584 309.865606 
L 357.834205 302.214057 
L 358.538274 301.313875 
L 359.239275 304.464513 
L 359.940789 306.264877 
L 360.642395 308.515332 
L 361.348935 305.814786 
L 362.043317 300.863784 
L 362.735418 301.763966 
L 363.427813 306.264877 
L 364.121312 305.364695 
L 364.828093 311.66597 
L 365.522952 306.714968 
L 366.21611 303.11424 
L 366.909344 306.264877 
L 367.602665 305.364695 
L 368.297966 306.264877 
L 368.990936 310.315697 
L 369.687805 306.264877 
L 370.384121 303.11424 
L 371.078454 306.264877 
L 371.780917 303.564331 
L 372.478535 304.014422 
L 373.170685 308.515332 
L 373.865152 307.165059 
L 374.564113 312.116061 
L 375.262077 352.174167 
L 375.991229 352.174167 
L 376.68641 332.82025 
L 377.387755 324.718611 
L 378.092782 315.266699 
L 378.784149 307.61515 
L 379.475211 307.165059 
L 380.170377 305.364695 
L 380.86187 308.065241 
L 381.559853 312.116061 
L 382.257267 308.965423 
L 382.954967 308.965423 
L 383.654923 306.714968 
L 384.349369 303.564331 
L 385.046108 309.865606 
L 385.743009 310.765788 
L 386.441192 310.765788 
L 387.137837 307.61515 
L 388.53072 305.814786 
L 389.229692 307.165059 
L 389.925638 307.61515 
L 390.618084 306.264877 
L 391.332165 304.464513 
L 392.048681 304.914604 
L 392.747171 304.914604 
L 393.451503 309.415515 
L 394.145966 310.315697 
L 394.838418 305.364695 
L 395.543085 302.214057 
L 396.241701 307.165059 
L 396.940117 307.61515 
L 397.63651 308.515332 
L 398.330842 308.515332 
L 399.026328 308.065241 
L 399.718702 304.464513 
L 401.111583 305.364695 
L 401.805815 306.714968 
L 402.503237 307.165059 
L 403.199531 304.464513 
L 403.897459 302.214057 
L 404.598499 304.464513 
L 405.291006 304.914604 
L 405.983048 308.065241 
L 406.681771 307.61515 
L 407.387838 306.714968 
L 408.08017 306.702482 
L 408.785533 303.11424 
L 409.485763 306.264877 
L 410.178499 308.065241 
L 410.882377 307.61515 
L 411.58409 306.264877 
L 412.28422 303.564331 
L 412.980475 304.014422 
L 413.683462 305.814786 
L 414.385197 308.065241 
L 415.08797 306.264877 
L 415.782231 305.364695 
L 416.477563 302.664148 
L 417.184311 303.564331 
L 417.888841 304.914604 
L 418.591366 306.714968 
L 419.296133 307.61515 
L 420.004649 304.464513 
L 420.711614 304.914604 
L 421.415083 304.464513 
L 422.114889 305.364695 
L 422.815739 305.814786 
L 423.518488 308.965423 
L 424.235514 304.014422 
L 424.929693 304.464513 
L 425.633347 304.464513 
L 426.33033 308.965423 
L 427.024103 306.264877 
L 427.71555 303.11424 
L 428.415583 303.11424 
L 429.121154 303.564331 
L 429.816774 304.464513 
L 430.510002 306.714968 
L 431.203395 305.814786 
L 431.894081 307.165059 
L 432.585737 304.014422 
L 433.972687 303.11424 
L 434.677206 305.814786 
L 435.374694 305.814786 
L 436.069609 305.364695 
L 436.765584 305.364695 
L 437.467629 304.914604 
L 438.1648 303.11424 
L 438.861383 307.61515 
L 439.55388 304.464513 
L 440.948916 304.464513 
L 441.642494 304.914604 
L 442.341172 352.174167 
L 443.070588 352.174167 
L 443.783191 344.522618 
L 444.481409 314.816607 
L 445.174337 303.564331 
L 445.867486 303.564331 
L 446.565777 304.014422 
L 447.261505 310.765788 
L 448.655167 302.214057 
L 449.353747 308.965423 
L 450.054308 309.415515 
L 450.749537 308.515332 
L 451.447552 305.814786 
L 452.145099 306.264877 
L 452.843158 303.564331 
L 453.536697 306.714968 
L 454.231865 308.515332 
L 454.927639 309.415515 
L 455.622701 307.61515 
L 456.31777 308.065241 
L 457.028599 304.464513 
L 457.731311 306.264877 
L 458.43336 310.315697 
L 459.1361 308.515332 
L 459.841767 305.364695 
L 460.539293 304.014422 
L 461.24174 305.364695 
L 461.948021 307.165059 
L 462.642467 309.865606 
L 463.34875 307.165059 
L 464.047852 305.364695 
L 464.741531 302.214057 
L 465.432871 307.165059 
L 466.125542 305.364695 
L 466.818745 307.165059 
L 467.511014 305.364695 
L 468.205206 305.364695 
L 468.926856 304.914604 
L 469.619246 305.814786 
L 471.007765 308.515332 
L 471.698785 304.914604 
L 472.391063 306.264877 
L 473.086093 304.464513 
L 473.795443 304.464513 
L 474.496043 309.415515 
L 475.188435 311.66597 
L 475.882227 304.014422 
L 476.58851 301.763966 
L 477.28221 300.863784 
L 477.976567 305.364695 
L 478.669148 312.566152 
L 479.359228 308.065241 
L 480.049493 304.464513 
L 480.740458 305.364695 
L 481.430414 305.814786 
L 482.120999 308.065241 
L 482.811529 305.364695 
L 483.506764 305.814786 
L 484.201083 305.814786 
L 484.902838 306.264877 
L 485.604364 305.814786 
L 486.294975 304.914604 
L 486.986 304.464513 
L 488.366198 306.264877 
L 489.058281 304.914604 
L 489.757995 304.014422 
L 490.453327 307.61515 
L 491.165236 308.965423 
L 491.877239 307.165059 
L 493.302814 305.364695 
L 494.007166 306.264877 
L 494.700767 305.814786 
L 495.393479 306.264877 
L 496.08296 308.515332 
L 496.778869 308.065241 
L 497.470482 308.065241 
L 498.16447 304.464513 
L 498.854928 305.364695 
L 499.545146 304.914604 
L 500.235796 305.364695 
L 500.926417 306.264877 
L 501.616391 306.714968 
L 502.306385 304.014422 
L 503.00192 304.014422 
L 503.693621 303.564331 
L 505.073603 306.264877 
L 505.764225 306.264877 
L 506.455086 304.914604 
L 507.145373 305.364695 
L 507.835865 305.364695 
L 508.52589 304.464513 
L 509.216004 305.814786 
L 509.912315 352.174167 
L 510.633929 352.174167 
L 511.363166 340.021708 
L 512.092563 313.016243 
L 512.784182 347.031118 
L 513.47789 302.214057 
L 514.179821 301.763966 
L 514.874514 308.515332 
L 515.565764 304.464513 
L 516.265849 305.364695 
L 516.959409 308.965423 
L 517.651041 308.065241 
L 518.342371 308.065241 
L 519.036939 307.165059 
L 519.730027 308.065241 
L 520.421109 303.11424 
L 521.112052 307.61515 
L 521.802565 308.515332 
L 522.49353 308.515332 
L 523.190134 306.714968 
L 523.881397 303.564331 
L 524.572238 304.014422 
L 525.262827 306.264877 
L 525.262827 306.264877 
" style="fill:none;stroke:#1f77b4;stroke-linecap:square;stroke-width:1.5;"/>
   </g>
   <g id="patch_3">
    <path d="M 130.230156 352.174167 
L 130.230156 35.0625 
" style="fill:none;stroke:#000000;stroke-linecap:square;stroke-linejoin:miter;stroke-width:0.8;"/>
   </g>
   <g id="patch_4">
    <path d="M 544.073906 352.174167 
L 544.073906 35.0625 
" style="fill:none;stroke:#000000;stroke-linecap:square;stroke-linejoin:miter;stroke-width:0.8;"/>
   </g>
   <g id="patch_5">
    <path d="M 130.230156 352.174167 
L 544.073906 352.174167 
" style="fill:none;stroke:#000000;stroke-linecap:square;stroke-linejoin:miter;stroke-width:0.8;"/>
   </g>
   <g id="patch_6">
    <path d="M 130.230156 35.0625 
L 544.073906 35.0625 
" style="fill:none;stroke:#000000;stroke-linecap:square;stroke-linejoin:miter;stroke-width:0.8;"/>
   </g>
   <g id="legend_1">
    <g id="patch_7">
     <path d="M 566.766094 52.740625 
L 628.298906 52.740625 
Q 630.298906 52.740625 630.298906 50.740625 
L 630.298906 37.0625 
Q 630.298906 35.0625 628.298906 35.0625 
L 566.766094 35.0625 
Q 564.766094 35.0625 564.766094 37.0625 
L 564.766094 50.740625 
Q 564.766094 52.740625 566.766094 52.740625 
z
" style="fill:#ffffff;opacity:0.8;stroke:#cccccc;stroke-linejoin:miter;"/>
    </g>
    <g id="line2d_15">
     <path d="M 568.766094 43.160938 
L 588.766094 43.160938 
" style="fill:none;stroke:#1f77b4;stroke-linecap:square;stroke-width:1.5;"/>
    </g>
    <g id="line2d_16"/>
    <g id="text_15">
     <!-- bbr-pi -->
     <defs>
      <path d="M 41.109375 46.296875 
Q 39.59375 47.171875 37.8125 47.578125 
Q 36.03125 48 33.890625 48 
Q 26.265625 48 22.1875 43.046875 
Q 18.109375 38.09375 18.109375 28.8125 
L 18.109375 0 
L 9.078125 0 
L 9.078125 54.6875 
L 18.109375 54.6875 
L 18.109375 46.1875 
Q 20.953125 51.171875 25.484375 53.578125 
Q 30.03125 56 36.53125 56 
Q 37.453125 56 38.578125 55.875 
Q 39.703125 55.765625 41.0625 55.515625 
z
" id="DejaVuSans-114"/>
      <path d="M 4.890625 31.390625 
L 31.203125 31.390625 
L 31.203125 23.390625 
L 4.890625 23.390625 
z
" id="DejaVuSans-45"/>
      <path d="M 18.109375 8.203125 
L 18.109375 -20.796875 
L 9.078125 -20.796875 
L 9.078125 54.6875 
L 18.109375 54.6875 
L 18.109375 46.390625 
Q 20.953125 51.265625 25.265625 53.625 
Q 29.59375 56 35.59375 56 
Q 45.5625 56 51.78125 48.09375 
Q 58.015625 40.1875 58.015625 27.296875 
Q 58.015625 14.40625 51.78125 6.484375 
Q 45.5625 -1.421875 35.59375 -1.421875 
Q 29.59375 -1.421875 25.265625 0.953125 
Q 20.953125 3.328125 18.109375 8.203125 
z
M 48.6875 27.296875 
Q 48.6875 37.203125 44.609375 42.84375 
Q 40.53125 48.484375 33.40625 48.484375 
Q 26.265625 48.484375 22.1875 42.84375 
Q 18.109375 37.203125 18.109375 27.296875 
Q 18.109375 17.390625 22.1875 11.75 
Q 26.265625 6.109375 33.40625 6.109375 
Q 40.53125 6.109375 44.609375 11.75 
Q 48.6875 17.390625 48.6875 27.296875 
z
" id="DejaVuSans-112"/>
      <path d="M 9.421875 54.6875 
L 18.40625 54.6875 
L 18.40625 0 
L 9.421875 0 
z
M 9.421875 75.984375 
L 18.40625 75.984375 
L 18.40625 64.59375 
L 9.421875 64.59375 
z
" id="DejaVuSans-105"/>
     </defs>
     <g transform="translate(596.766094 46.660938)scale(0.1 -0.1)">
      <use xlink:href="#DejaVuSans-98"/>
      <use x="63.476562" xlink:href="#DejaVuSans-98"/>
      <use x="126.953125" xlink:href="#DejaVuSans-114"/>
      <use x="167.972656" xlink:href="#DejaVuSans-45"/>
      <use x="204.056641" xlink:href="#DejaVuSans-112"/>
      <use x="267.533203" xlink:href="#DejaVuSans-105"/>
     </g>
    </g>
   </g>
  </g>
  <g id="text_16">
   <!-- 4 queue (bytes) -->
   <defs>
    <path id="DejaVuSans-32"/>
   </defs>
   <g transform="translate(294.359062 17.038125)scale(0.12 -0.12)">
    <use xlink:href="#DejaVuSans-52"/>
    <use x="63.623047" xlink:href="#DejaVuSans-32"/>
    <use x="95.410156" xlink:href="#DejaVuSans-113"/>
    <use x="158.886719" xlink:href="#DejaVuSans-117"/>
    <use x="222.265625" xlink:href="#DejaVuSans-101"/>
    <use x="283.789062" xlink:href="#DejaVuSans-117"/>
    <use x="347.167969" xlink:href="#DejaVuSans-101"/>
    <use x="408.691406" xlink:href="#DejaVuSans-32"/>
    <use x="440.478516" xlink:href="#DejaVuSans-40"/>
    <use x="479.492188" xlink:href="#DejaVuSans-98"/>
    <use x="542.96875" xlink:href="#DejaVuSans-121"/>
    <use x="602.148438" xlink:href="#DejaVuSans-116"/>
    <use x="641.357422" xlink:href="#DejaVuSans-101"/>
    <use x="702.880859" xlink:href="#DejaVuSans-115"/>
    <use x="754.980469" xlink:href="#DejaVuSans-41"/>
   </g>
  </g>
 </g>
 <defs>
  <clipPath id="pa8b395ee64">
   <rect height="317.111667" width="413.84375" x="130.230156" y="35.0625"/>
  </clipPath>
 </defs>
</svg>
