<?xml version="1.0" encoding="utf-8" standalone="no"?>
<!DOCTYPE svg PUBLIC "-//W3C//DTD SVG 1.1//EN"
  "http://www.w3.org/Graphics/SVG/1.1/DTD/svg11.dtd">
<!-- Created with matplotlib (https://matplotlib.org/) -->
<svg height="396pt" version="1.1" viewBox="0 0 684 396" width="684pt" xmlns="http://www.w3.org/2000/svg" xmlns:xlink="http://www.w3.org/1999/xlink">
 <defs>
  <style type="text/css">
*{stroke-linecap:butt;stroke-linejoin:round;}
  </style>
 </defs>
 <g id="figure_1">
  <g id="patch_1">
   <path d="M 0 396 
L 684 396 
L 684 0 
L 0 0 
z
" style="fill:#ffffff;"/>
  </g>
  <g id="axes_1">
   <g id="patch_2">
    <path d="M 92.823906 352.174167 
L 544.073906 352.174167 
L 544.073906 35.0625 
L 92.823906 35.0625 
z
" style="fill:#ffffff;"/>
   </g>
   <g id="matplotlib.axis_1">
    <g id="xtick_1">
     <g id="line2d_1">
      <defs>
       <path d="M 0 0 
L 0 3.5 
" id="m3061983111" style="stroke:#000000;stroke-width:0.8;"/>
      </defs>
      <g>
       <use style="stroke:#000000;stroke-width:0.8;" x="110.134671" xlink:href="#m3061983111" y="352.174167"/>
      </g>
     </g>
     <g id="text_1">
      <!-- 0 -->
      <defs>
       <path d="M 31.78125 66.40625 
Q 24.171875 66.40625 20.328125 58.90625 
Q 16.5 51.421875 16.5 36.375 
Q 16.5 21.390625 20.328125 13.890625 
Q 24.171875 6.390625 31.78125 6.390625 
Q 39.453125 6.390625 43.28125 13.890625 
Q 47.125 21.390625 47.125 36.375 
Q 47.125 51.421875 43.28125 58.90625 
Q 39.453125 66.40625 31.78125 66.40625 
z
M 31.78125 74.21875 
Q 44.046875 74.21875 50.515625 64.515625 
Q 56.984375 54.828125 56.984375 36.375 
Q 56.984375 17.96875 50.515625 8.265625 
Q 44.046875 -1.421875 31.78125 -1.421875 
Q 19.53125 -1.421875 13.0625 8.265625 
Q 6.59375 17.96875 6.59375 36.375 
Q 6.59375 54.828125 13.0625 64.515625 
Q 19.53125 74.21875 31.78125 74.21875 
z
" id="DejaVuSans-48"/>
      </defs>
      <g transform="translate(106.953421 366.772604)scale(0.1 -0.1)">
       <use xlink:href="#DejaVuSans-48"/>
      </g>
     </g>
    </g>
    <g id="xtick_2">
     <g id="line2d_2">
      <g>
       <use style="stroke:#000000;stroke-width:0.8;" x="178.964751" xlink:href="#m3061983111" y="352.174167"/>
      </g>
     </g>
     <g id="text_2">
      <!-- 10 -->
      <defs>
       <path d="M 12.40625 8.296875 
L 28.515625 8.296875 
L 28.515625 63.921875 
L 10.984375 60.40625 
L 10.984375 69.390625 
L 28.421875 72.90625 
L 38.28125 72.90625 
L 38.28125 8.296875 
L 54.390625 8.296875 
L 54.390625 0 
L 12.40625 0 
z
" id="DejaVuSans-49"/>
      </defs>
      <g transform="translate(172.602251 366.772604)scale(0.1 -0.1)">
       <use xlink:href="#DejaVuSans-49"/>
       <use x="63.623047" xlink:href="#DejaVuSans-48"/>
      </g>
     </g>
    </g>
    <g id="xtick_3">
     <g id="line2d_3">
      <g>
       <use style="stroke:#000000;stroke-width:0.8;" x="247.79483" xlink:href="#m3061983111" y="352.174167"/>
      </g>
     </g>
     <g id="text_3">
      <!-- 20 -->
      <defs>
       <path d="M 19.1875 8.296875 
L 53.609375 8.296875 
L 53.609375 0 
L 7.328125 0 
L 7.328125 8.296875 
Q 12.9375 14.109375 22.625 23.890625 
Q 32.328125 33.6875 34.8125 36.53125 
Q 39.546875 41.84375 41.421875 45.53125 
Q 43.3125 49.21875 43.3125 52.78125 
Q 43.3125 58.59375 39.234375 62.25 
Q 35.15625 65.921875 28.609375 65.921875 
Q 23.96875 65.921875 18.8125 64.3125 
Q 13.671875 62.703125 7.8125 59.421875 
L 7.8125 69.390625 
Q 13.765625 71.78125 18.9375 73 
Q 24.125 74.21875 28.421875 74.21875 
Q 39.75 74.21875 46.484375 68.546875 
Q 53.21875 62.890625 53.21875 53.421875 
Q 53.21875 48.921875 51.53125 44.890625 
Q 49.859375 40.875 45.40625 35.40625 
Q 44.1875 33.984375 37.640625 27.21875 
Q 31.109375 20.453125 19.1875 8.296875 
z
" id="DejaVuSans-50"/>
      </defs>
      <g transform="translate(241.43233 366.772604)scale(0.1 -0.1)">
       <use xlink:href="#DejaVuSans-50"/>
       <use x="63.623047" xlink:href="#DejaVuSans-48"/>
      </g>
     </g>
    </g>
    <g id="xtick_4">
     <g id="line2d_4">
      <g>
       <use style="stroke:#000000;stroke-width:0.8;" x="316.624909" xlink:href="#m3061983111" y="352.174167"/>
      </g>
     </g>
     <g id="text_4">
      <!-- 30 -->
      <defs>
       <path d="M 40.578125 39.3125 
Q 47.65625 37.796875 51.625 33 
Q 55.609375 28.21875 55.609375 21.1875 
Q 55.609375 10.40625 48.1875 4.484375 
Q 40.765625 -1.421875 27.09375 -1.421875 
Q 22.515625 -1.421875 17.65625 -0.515625 
Q 12.796875 0.390625 7.625 2.203125 
L 7.625 11.71875 
Q 11.71875 9.328125 16.59375 8.109375 
Q 21.484375 6.890625 26.8125 6.890625 
Q 36.078125 6.890625 40.9375 10.546875 
Q 45.796875 14.203125 45.796875 21.1875 
Q 45.796875 27.640625 41.28125 31.265625 
Q 36.765625 34.90625 28.71875 34.90625 
L 20.21875 34.90625 
L 20.21875 43.015625 
L 29.109375 43.015625 
Q 36.375 43.015625 40.234375 45.921875 
Q 44.09375 48.828125 44.09375 54.296875 
Q 44.09375 59.90625 40.109375 62.90625 
Q 36.140625 65.921875 28.71875 65.921875 
Q 24.65625 65.921875 20.015625 65.03125 
Q 15.375 64.15625 9.8125 62.3125 
L 9.8125 71.09375 
Q 15.4375 72.65625 20.34375 73.4375 
Q 25.25 74.21875 29.59375 74.21875 
Q 40.828125 74.21875 47.359375 69.109375 
Q 53.90625 64.015625 53.90625 55.328125 
Q 53.90625 49.265625 50.4375 45.09375 
Q 46.96875 40.921875 40.578125 39.3125 
z
" id="DejaVuSans-51"/>
      </defs>
      <g transform="translate(310.262409 366.772604)scale(0.1 -0.1)">
       <use xlink:href="#DejaVuSans-51"/>
       <use x="63.623047" xlink:href="#DejaVuSans-48"/>
      </g>
     </g>
    </g>
    <g id="xtick_5">
     <g id="line2d_5">
      <g>
       <use style="stroke:#000000;stroke-width:0.8;" x="385.454988" xlink:href="#m3061983111" y="352.174167"/>
      </g>
     </g>
     <g id="text_5">
      <!-- 40 -->
      <defs>
       <path d="M 37.796875 64.3125 
L 12.890625 25.390625 
L 37.796875 25.390625 
z
M 35.203125 72.90625 
L 47.609375 72.90625 
L 47.609375 25.390625 
L 58.015625 25.390625 
L 58.015625 17.1875 
L 47.609375 17.1875 
L 47.609375 0 
L 37.796875 0 
L 37.796875 17.1875 
L 4.890625 17.1875 
L 4.890625 26.703125 
z
" id="DejaVuSans-52"/>
      </defs>
      <g transform="translate(379.092488 366.772604)scale(0.1 -0.1)">
       <use xlink:href="#DejaVuSans-52"/>
       <use x="63.623047" xlink:href="#DejaVuSans-48"/>
      </g>
     </g>
    </g>
    <g id="xtick_6">
     <g id="line2d_6">
      <g>
       <use style="stroke:#000000;stroke-width:0.8;" x="454.285068" xlink:href="#m3061983111" y="352.174167"/>
      </g>
     </g>
     <g id="text_6">
      <!-- 50 -->
      <defs>
       <path d="M 10.796875 72.90625 
L 49.515625 72.90625 
L 49.515625 64.59375 
L 19.828125 64.59375 
L 19.828125 46.734375 
Q 21.96875 47.46875 24.109375 47.828125 
Q 26.265625 48.1875 28.421875 48.1875 
Q 40.625 48.1875 47.75 41.5 
Q 54.890625 34.8125 54.890625 23.390625 
Q 54.890625 11.625 47.5625 5.09375 
Q 40.234375 -1.421875 26.90625 -1.421875 
Q 22.3125 -1.421875 17.546875 -0.640625 
Q 12.796875 0.140625 7.71875 1.703125 
L 7.71875 11.625 
Q 12.109375 9.234375 16.796875 8.0625 
Q 21.484375 6.890625 26.703125 6.890625 
Q 35.15625 6.890625 40.078125 11.328125 
Q 45.015625 15.765625 45.015625 23.390625 
Q 45.015625 31 40.078125 35.4375 
Q 35.15625 39.890625 26.703125 39.890625 
Q 22.75 39.890625 18.8125 39.015625 
Q 14.890625 38.140625 10.796875 36.28125 
z
" id="DejaVuSans-53"/>
      </defs>
      <g transform="translate(447.922568 366.772604)scale(0.1 -0.1)">
       <use xlink:href="#DejaVuSans-53"/>
       <use x="63.623047" xlink:href="#DejaVuSans-48"/>
      </g>
     </g>
    </g>
    <g id="xtick_7">
     <g id="line2d_7">
      <g>
       <use style="stroke:#000000;stroke-width:0.8;" x="523.115147" xlink:href="#m3061983111" y="352.174167"/>
      </g>
     </g>
     <g id="text_7">
      <!-- 60 -->
      <defs>
       <path d="M 33.015625 40.375 
Q 26.375 40.375 22.484375 35.828125 
Q 18.609375 31.296875 18.609375 23.390625 
Q 18.609375 15.53125 22.484375 10.953125 
Q 26.375 6.390625 33.015625 6.390625 
Q 39.65625 6.390625 43.53125 10.953125 
Q 47.40625 15.53125 47.40625 23.390625 
Q 47.40625 31.296875 43.53125 35.828125 
Q 39.65625 40.375 33.015625 40.375 
z
M 52.59375 71.296875 
L 52.59375 62.3125 
Q 48.875 64.0625 45.09375 64.984375 
Q 41.3125 65.921875 37.59375 65.921875 
Q 27.828125 65.921875 22.671875 59.328125 
Q 17.53125 52.734375 16.796875 39.40625 
Q 19.671875 43.65625 24.015625 45.921875 
Q 28.375 48.1875 33.59375 48.1875 
Q 44.578125 48.1875 50.953125 41.515625 
Q 57.328125 34.859375 57.328125 23.390625 
Q 57.328125 12.15625 50.6875 5.359375 
Q 44.046875 -1.421875 33.015625 -1.421875 
Q 20.359375 -1.421875 13.671875 8.265625 
Q 6.984375 17.96875 6.984375 36.375 
Q 6.984375 53.65625 15.1875 63.9375 
Q 23.390625 74.21875 37.203125 74.21875 
Q 40.921875 74.21875 44.703125 73.484375 
Q 48.484375 72.75 52.59375 71.296875 
z
" id="DejaVuSans-54"/>
      </defs>
      <g transform="translate(516.752647 366.772604)scale(0.1 -0.1)">
       <use xlink:href="#DejaVuSans-54"/>
       <use x="63.623047" xlink:href="#DejaVuSans-48"/>
      </g>
     </g>
    </g>
   </g>
   <g id="matplotlib.axis_2">
    <g id="ytick_1">
     <g id="line2d_8">
      <defs>
       <path d="M 0 0 
L -3.5 0 
" id="m08e7501ee5" style="stroke:#000000;stroke-width:0.8;"/>
      </defs>
      <g>
       <use style="stroke:#000000;stroke-width:0.8;" x="92.823906" xlink:href="#m08e7501ee5" y="352.174167"/>
      </g>
     </g>
     <g id="text_8">
      <!-- 0 -->
      <g transform="translate(79.461406 355.973385)scale(0.1 -0.1)">
       <use xlink:href="#DejaVuSans-48"/>
      </g>
     </g>
    </g>
    <g id="ytick_2">
     <g id="line2d_9">
      <g>
       <use style="stroke:#000000;stroke-width:0.8;" x="92.823906" xlink:href="#m08e7501ee5" y="293.747328"/>
      </g>
     </g>
     <g id="text_9">
      <!-- 20 -->
      <g transform="translate(73.098906 297.546547)scale(0.1 -0.1)">
       <use xlink:href="#DejaVuSans-50"/>
       <use x="63.623047" xlink:href="#DejaVuSans-48"/>
      </g>
     </g>
    </g>
    <g id="ytick_3">
     <g id="line2d_10">
      <g>
       <use style="stroke:#000000;stroke-width:0.8;" x="92.823906" xlink:href="#m08e7501ee5" y="235.320489"/>
      </g>
     </g>
     <g id="text_10">
      <!-- 40 -->
      <g transform="translate(73.098906 239.119708)scale(0.1 -0.1)">
       <use xlink:href="#DejaVuSans-52"/>
       <use x="63.623047" xlink:href="#DejaVuSans-48"/>
      </g>
     </g>
    </g>
    <g id="ytick_4">
     <g id="line2d_11">
      <g>
       <use style="stroke:#000000;stroke-width:0.8;" x="92.823906" xlink:href="#m08e7501ee5" y="176.893651"/>
      </g>
     </g>
     <g id="text_11">
      <!-- 60 -->
      <g transform="translate(73.098906 180.69287)scale(0.1 -0.1)">
       <use xlink:href="#DejaVuSans-54"/>
       <use x="63.623047" xlink:href="#DejaVuSans-48"/>
      </g>
     </g>
    </g>
    <g id="ytick_5">
     <g id="line2d_12">
      <g>
       <use style="stroke:#000000;stroke-width:0.8;" x="92.823906" xlink:href="#m08e7501ee5" y="118.466812"/>
      </g>
     </g>
     <g id="text_12">
      <!-- 80 -->
      <defs>
       <path d="M 31.78125 34.625 
Q 24.75 34.625 20.71875 30.859375 
Q 16.703125 27.09375 16.703125 20.515625 
Q 16.703125 13.921875 20.71875 10.15625 
Q 24.75 6.390625 31.78125 6.390625 
Q 38.8125 6.390625 42.859375 10.171875 
Q 46.921875 13.96875 46.921875 20.515625 
Q 46.921875 27.09375 42.890625 30.859375 
Q 38.875 34.625 31.78125 34.625 
z
M 21.921875 38.8125 
Q 15.578125 40.375 12.03125 44.71875 
Q 8.5 49.078125 8.5 55.328125 
Q 8.5 64.0625 14.71875 69.140625 
Q 20.953125 74.21875 31.78125 74.21875 
Q 42.671875 74.21875 48.875 69.140625 
Q 55.078125 64.0625 55.078125 55.328125 
Q 55.078125 49.078125 51.53125 44.71875 
Q 48 40.375 41.703125 38.8125 
Q 48.828125 37.15625 52.796875 32.3125 
Q 56.78125 27.484375 56.78125 20.515625 
Q 56.78125 9.90625 50.3125 4.234375 
Q 43.84375 -1.421875 31.78125 -1.421875 
Q 19.734375 -1.421875 13.25 4.234375 
Q 6.78125 9.90625 6.78125 20.515625 
Q 6.78125 27.484375 10.78125 32.3125 
Q 14.796875 37.15625 21.921875 38.8125 
z
M 18.3125 54.390625 
Q 18.3125 48.734375 21.84375 45.5625 
Q 25.390625 42.390625 31.78125 42.390625 
Q 38.140625 42.390625 41.71875 45.5625 
Q 45.3125 48.734375 45.3125 54.390625 
Q 45.3125 60.0625 41.71875 63.234375 
Q 38.140625 66.40625 31.78125 66.40625 
Q 25.390625 66.40625 21.84375 63.234375 
Q 18.3125 60.0625 18.3125 54.390625 
z
" id="DejaVuSans-56"/>
      </defs>
      <g transform="translate(73.098906 122.266031)scale(0.1 -0.1)">
       <use xlink:href="#DejaVuSans-56"/>
       <use x="63.623047" xlink:href="#DejaVuSans-48"/>
      </g>
     </g>
    </g>
    <g id="ytick_6">
     <g id="line2d_13">
      <g>
       <use style="stroke:#000000;stroke-width:0.8;" x="92.823906" xlink:href="#m08e7501ee5" y="60.039974"/>
      </g>
     </g>
     <g id="text_13">
      <!-- 100 -->
      <g transform="translate(66.736406 63.839192)scale(0.1 -0.1)">
       <use xlink:href="#DejaVuSans-49"/>
       <use x="63.623047" xlink:href="#DejaVuSans-48"/>
       <use x="127.246094" xlink:href="#DejaVuSans-48"/>
      </g>
     </g>
    </g>
    <g id="text_14">
     <!-- rtt -->
     <defs>
      <path d="M 41.109375 46.296875 
Q 39.59375 47.171875 37.8125 47.578125 
Q 36.03125 48 33.890625 48 
Q 26.265625 48 22.1875 43.046875 
Q 18.109375 38.09375 18.109375 28.8125 
L 18.109375 0 
L 9.078125 0 
L 9.078125 54.6875 
L 18.109375 54.6875 
L 18.109375 46.1875 
Q 20.953125 51.171875 25.484375 53.578125 
Q 30.03125 56 36.53125 56 
Q 37.453125 56 38.578125 55.875 
Q 39.703125 55.765625 41.0625 55.515625 
z
" id="DejaVuSans-114"/>
      <path d="M 18.3125 70.21875 
L 18.3125 54.6875 
L 36.8125 54.6875 
L 36.8125 47.703125 
L 18.3125 47.703125 
L 18.3125 18.015625 
Q 18.3125 11.328125 20.140625 9.421875 
Q 21.96875 7.515625 27.59375 7.515625 
L 36.8125 7.515625 
L 36.8125 0 
L 27.59375 0 
Q 17.1875 0 13.234375 3.875 
Q 9.28125 7.765625 9.28125 18.015625 
L 9.28125 47.703125 
L 2.6875 47.703125 
L 2.6875 54.6875 
L 9.28125 54.6875 
L 9.28125 70.21875 
z
" id="DejaVuSans-116"/>
     </defs>
     <g transform="translate(49.458906 199.594115)rotate(-90)scale(0.1 -0.1)">
      <use xlink:href="#DejaVuSans-114"/>
      <use x="41.113281" xlink:href="#DejaVuSans-116"/>
      <use x="80.322266" xlink:href="#DejaVuSans-116"/>
     </g>
     <!-- (ms) -->
     <defs>
      <path d="M 31 75.875 
Q 24.46875 64.65625 21.28125 53.65625 
Q 18.109375 42.671875 18.109375 31.390625 
Q 18.109375 20.125 21.3125 9.0625 
Q 24.515625 -2 31 -13.1875 
L 23.1875 -13.1875 
Q 15.875 -1.703125 12.234375 9.375 
Q 8.59375 20.453125 8.59375 31.390625 
Q 8.59375 42.28125 12.203125 53.3125 
Q 15.828125 64.359375 23.1875 75.875 
z
" id="DejaVuSans-40"/>
      <path d="M 52 44.1875 
Q 55.375 50.25 60.0625 53.125 
Q 64.75 56 71.09375 56 
Q 79.640625 56 84.28125 50.015625 
Q 88.921875 44.046875 88.921875 33.015625 
L 88.921875 0 
L 79.890625 0 
L 79.890625 32.71875 
Q 79.890625 40.578125 77.09375 44.375 
Q 74.3125 48.1875 68.609375 48.1875 
Q 61.625 48.1875 57.5625 43.546875 
Q 53.515625 38.921875 53.515625 30.90625 
L 53.515625 0 
L 44.484375 0 
L 44.484375 32.71875 
Q 44.484375 40.625 41.703125 44.40625 
Q 38.921875 48.1875 33.109375 48.1875 
Q 26.21875 48.1875 22.15625 43.53125 
Q 18.109375 38.875 18.109375 30.90625 
L 18.109375 0 
L 9.078125 0 
L 9.078125 54.6875 
L 18.109375 54.6875 
L 18.109375 46.1875 
Q 21.1875 51.21875 25.484375 53.609375 
Q 29.78125 56 35.6875 56 
Q 41.65625 56 45.828125 52.96875 
Q 50 49.953125 52 44.1875 
z
" id="DejaVuSans-109"/>
      <path d="M 44.28125 53.078125 
L 44.28125 44.578125 
Q 40.484375 46.53125 36.375 47.5 
Q 32.28125 48.484375 27.875 48.484375 
Q 21.1875 48.484375 17.84375 46.4375 
Q 14.5 44.390625 14.5 40.28125 
Q 14.5 37.15625 16.890625 35.375 
Q 19.28125 33.59375 26.515625 31.984375 
L 29.59375 31.296875 
Q 39.15625 29.25 43.1875 25.515625 
Q 47.21875 21.78125 47.21875 15.09375 
Q 47.21875 7.46875 41.1875 3.015625 
Q 35.15625 -1.421875 24.609375 -1.421875 
Q 20.21875 -1.421875 15.453125 -0.5625 
Q 10.6875 0.296875 5.421875 2 
L 5.421875 11.28125 
Q 10.40625 8.6875 15.234375 7.390625 
Q 20.0625 6.109375 24.8125 6.109375 
Q 31.15625 6.109375 34.5625 8.28125 
Q 37.984375 10.453125 37.984375 14.40625 
Q 37.984375 18.0625 35.515625 20.015625 
Q 33.0625 21.96875 24.703125 23.78125 
L 21.578125 24.515625 
Q 13.234375 26.265625 9.515625 29.90625 
Q 5.8125 33.546875 5.8125 39.890625 
Q 5.8125 47.609375 11.28125 51.796875 
Q 16.75 56 26.8125 56 
Q 31.78125 56 36.171875 55.265625 
Q 40.578125 54.546875 44.28125 53.078125 
z
" id="DejaVuSans-115"/>
      <path d="M 8.015625 75.875 
L 15.828125 75.875 
Q 23.140625 64.359375 26.78125 53.3125 
Q 30.421875 42.28125 30.421875 31.390625 
Q 30.421875 20.453125 26.78125 9.375 
Q 23.140625 -1.703125 15.828125 -13.1875 
L 8.015625 -13.1875 
Q 14.5 -2 17.703125 9.0625 
Q 20.90625 20.125 20.90625 31.390625 
Q 20.90625 42.671875 17.703125 53.65625 
Q 14.5 64.65625 8.015625 75.875 
z
" id="DejaVuSans-41"/>
     </defs>
     <g transform="translate(60.656719 204.994896)rotate(-90)scale(0.1 -0.1)">
      <use xlink:href="#DejaVuSans-40"/>
      <use x="39.013672" xlink:href="#DejaVuSans-109"/>
      <use x="136.425781" xlink:href="#DejaVuSans-115"/>
      <use x="188.525391" xlink:href="#DejaVuSans-41"/>
     </g>
    </g>
   </g>
   <g id="line2d_14">
    <path clip-path="url(#p885b7ba403)" d="M 126.929211 241.163173 
L 130.370715 270.376593 
L 133.812218 276.219276 
L 137.253722 276.219276 
L 140.695226 249.927199 
L 144.13673 176.893651 
L 147.578234 232.399147 
L 151.019738 235.320489 
L 154.461242 235.320489 
L 157.902746 83.410709 
L 161.34425 83.410709 
L 164.785754 150.601573 
L 168.227258 165.208283 
L 171.668762 182.736335 
L 175.110266 185.657677 
L 178.55177 179.814993 
L 181.993274 176.893651 
L 185.434778 182.736335 
L 188.876282 188.579019 
L 192.317786 159.365599 
L 195.75929 165.208283 
L 199.200794 130.15218 
L 202.642298 124.309496 
L 206.083802 118.466812 
L 209.525306 130.15218 
L 212.96681 100.938761 
L 216.408314 77.568025 
L 219.849818 80.489367 
L 223.291322 197.343044 
L 226.732826 258.691225 
L 230.17433 276.219276 
L 233.615833 279.140618 
L 237.057337 279.140618 
L 240.498841 279.140618 
L 243.940345 279.140618 
L 247.381849 279.140618 
L 250.823353 279.140618 
L 254.264857 279.140618 
L 257.706361 279.140618 
L 261.147865 279.140618 
L 264.589369 276.219276 
L 268.030873 279.140618 
L 271.472377 279.140618 
L 274.913881 279.140618 
L 278.355385 279.140618 
L 281.796889 279.140618 
L 285.238393 279.140618 
L 288.679897 279.140618 
L 292.121401 282.06196 
L 295.562905 282.06196 
L 299.004409 279.140618 
L 302.445913 279.140618 
L 305.887417 279.140618 
L 309.328921 279.140618 
L 312.770425 282.06196 
L 316.211929 279.140618 
L 319.653433 279.140618 
L 323.094937 279.140618 
L 326.536441 279.140618 
L 329.977945 279.140618 
L 333.419449 279.140618 
L 336.860952 279.140618 
L 340.302456 279.140618 
L 343.74396 279.140618 
L 347.185464 276.219276 
L 350.626968 276.219276 
L 354.068472 279.140618 
L 357.509976 279.140618 
L 360.95148 276.219276 
L 364.392984 299.590012 
L 367.834488 284.983302 
L 371.275992 282.06196 
L 374.717496 282.06196 
L 378.159 279.140618 
L 381.600504 279.140618 
L 385.042008 279.140618 
L 388.483512 279.140618 
L 391.925016 279.140618 
L 395.36652 279.140618 
L 398.808024 279.140618 
L 402.249528 279.140618 
L 405.691032 276.219276 
L 409.132536 279.140618 
L 412.57404 276.219276 
L 416.015544 279.140618 
L 419.457048 276.219276 
L 422.898552 279.140618 
L 426.340056 276.219276 
L 429.78156 276.219276 
L 433.223064 279.140618 
L 436.664567 290.825986 
L 440.106071 279.140618 
L 443.547575 279.140618 
L 446.989079 279.140618 
L 450.430583 279.140618 
L 453.872087 279.140618 
L 457.313591 279.140618 
L 460.755095 276.219276 
L 464.196599 279.140618 
L 467.638103 279.140618 
L 471.079607 279.140618 
L 474.521111 279.140618 
L 477.962615 276.219276 
L 481.404119 276.219276 
L 484.845623 279.140618 
L 488.287127 279.140618 
L 491.728631 279.140618 
L 495.170135 276.219276 
" style="fill:none;stroke:#1f77b4;stroke-linecap:square;stroke-width:1.5;"/>
   </g>
   <g id="line2d_15">
    <path clip-path="url(#p885b7ba403)" d="M 155.321618 168.129625 
L 158.763122 48.354606 
L 162.204626 86.332051 
L 165.64613 150.601573 
L 169.087634 159.365599 
L 172.529138 173.972309 
L 175.970642 176.893651 
L 179.412146 168.129625 
L 182.85365 171.050967 
L 186.295154 173.972309 
L 189.736658 173.972309 
L 193.178162 141.837548 
L 196.619666 153.522915 
L 200.06117 121.388154 
L 203.502674 118.466812 
L 206.944178 118.466812 
L 210.385682 127.230838 
L 213.827186 92.174735 
L 217.26869 77.568025 
L 220.710194 80.489367 
L 224.151698 162.286941 
L 227.593202 264.533909 
L 231.034706 279.140618 
L 234.476209 279.140618 
L 237.917713 279.140618 
L 241.359217 279.140618 
L 244.800721 279.140618 
L 248.242225 279.140618 
L 251.683729 279.140618 
L 255.125233 279.140618 
L 258.566737 279.140618 
L 262.008241 279.140618 
L 265.449745 276.219276 
L 268.891249 279.140618 
L 272.332753 279.140618 
L 275.774257 279.140618 
L 279.215761 279.140618 
L 282.657265 279.140618 
L 286.098769 279.140618 
L 289.540273 279.140618 
L 292.981777 290.825986 
L 296.423281 273.297935 
L 299.864785 279.140618 
L 303.306289 279.140618 
L 306.747793 279.140618 
L 310.189297 279.140618 
L 313.630801 279.140618 
L 317.072305 279.140618 
L 320.513809 279.140618 
L 323.955313 279.140618 
L 327.396817 279.140618 
L 330.838321 279.140618 
L 334.279824 279.140618 
L 337.721328 279.140618 
L 341.162832 279.140618 
L 344.604336 279.140618 
L 348.04584 279.140618 
L 351.487344 276.219276 
L 354.928848 279.140618 
L 358.370352 279.140618 
L 361.811856 279.140618 
L 365.25336 305.432696 
L 368.694864 282.06196 
L 372.136368 279.140618 
L 375.577872 279.140618 
L 379.019376 279.140618 
L 382.46088 279.140618 
L 385.902384 279.140618 
L 389.343888 279.140618 
L 392.785392 279.140618 
L 396.226896 279.140618 
L 399.6684 279.140618 
L 403.109904 279.140618 
L 406.551408 276.219276 
L 409.992912 279.140618 
L 413.434416 279.140618 
L 416.87592 279.140618 
L 420.317424 276.219276 
L 423.758928 279.140618 
L 427.200432 276.219276 
L 430.641936 279.140618 
L 434.08344 284.983302 
L 437.524943 284.983302 
L 440.966447 279.140618 
L 444.407951 279.140618 
L 447.849455 282.06196 
L 451.290959 279.140618 
L 454.732463 279.140618 
L 458.173967 279.140618 
L 461.615471 279.140618 
L 465.056975 279.140618 
L 468.498479 279.140618 
L 471.939983 279.140618 
L 475.381487 279.140618 
L 478.822991 279.140618 
L 482.264495 276.219276 
L 485.705999 279.140618 
L 489.147503 279.140618 
L 492.589007 279.140618 
L 496.030511 276.219276 
L 499.472015 276.219276 
L 502.913519 276.219276 
L 506.355023 302.511354 
L 509.796527 276.219276 
L 513.238031 279.140618 
L 516.679535 279.140618 
L 520.121039 279.140618 
L 523.562543 279.140618 
" style="fill:none;stroke:#ff7f0e;stroke-linecap:square;stroke-width:1.5;"/>
   </g>
   <g id="line2d_16">
    <path clip-path="url(#p885b7ba403)" d="M 113.33527 290.825986 
L 116.776774 314.196722 
L 120.218278 314.196722 
L 123.659782 314.196722 
L 127.101286 261.612567 
L 130.54279 270.376593 
L 133.984294 276.219276 
L 137.425798 276.219276 
L 140.867302 249.927199 
L 144.308806 176.893651 
L 147.75031 235.320489 
L 151.191814 238.241831 
L 154.633317 235.320489 
L 158.074821 89.253393 
L 161.516325 89.253393 
L 164.957829 159.365599 
L 168.399333 171.050967 
L 171.840837 188.579019 
L 175.282341 185.657677 
L 178.723845 182.736335 
L 182.165349 179.814993 
L 185.606853 188.579019 
L 189.048357 194.421702 
L 192.489861 147.680231 
L 195.931365 153.522915 
L 199.372869 130.15218 
L 202.814373 121.388154 
L 206.255877 118.466812 
L 209.697381 130.15218 
L 213.138885 100.938761 
L 216.580389 77.568025 
L 220.021893 80.489367 
L 223.463397 203.185728 
L 226.904901 258.691225 
L 230.346405 276.219276 
L 233.787909 279.140618 
L 237.229413 279.140618 
L 240.670917 279.140618 
L 244.112421 279.140618 
L 247.553925 279.140618 
L 250.995429 279.140618 
L 254.436932 279.140618 
L 257.878436 279.140618 
L 261.31994 279.140618 
L 264.761444 276.219276 
L 268.202948 276.219276 
L 271.644452 279.140618 
L 275.085956 276.219276 
L 278.52746 279.140618 
L 281.968964 279.140618 
L 285.410468 279.140618 
L 288.851972 279.140618 
L 292.293476 282.06196 
L 295.73498 282.06196 
L 299.176484 279.140618 
L 302.617988 279.140618 
L 306.059492 279.140618 
L 309.500996 279.140618 
L 312.9425 282.06196 
L 316.384004 279.140618 
L 319.825508 279.140618 
L 323.267012 279.140618 
L 326.708516 279.140618 
L 330.15002 279.140618 
L 333.591524 279.140618 
L 337.033028 279.140618 
L 340.474532 279.140618 
L 343.916036 279.140618 
L 347.35754 276.219276 
L 350.799044 276.219276 
L 354.240547 279.140618 
L 357.682051 279.140618 
L 361.123555 276.219276 
L 364.565059 299.590012 
L 368.006563 284.983302 
L 371.448067 279.140618 
L 374.889571 279.140618 
L 378.331075 279.140618 
L 381.772579 279.140618 
L 385.214083 279.140618 
L 388.655587 279.140618 
L 392.097091 279.140618 
L 395.538595 279.140618 
L 398.980099 279.140618 
L 402.421603 279.140618 
L 405.863107 276.219276 
L 409.304611 279.140618 
L 412.746115 276.219276 
L 416.187619 276.219276 
L 419.629123 276.219276 
L 423.070627 279.140618 
L 426.512131 276.219276 
L 429.953635 276.219276 
L 433.395139 282.06196 
L 436.836643 290.825986 
L 440.278147 279.140618 
L 443.719651 279.140618 
L 447.161155 279.140618 
L 450.602659 279.140618 
L 454.044163 279.140618 
L 457.485666 279.140618 
L 460.92717 276.219276 
L 464.368674 279.140618 
L 467.810178 279.140618 
L 471.251682 279.140618 
L 474.693186 279.140618 
L 478.13469 276.219276 
L 481.576194 276.219276 
" style="fill:none;stroke:#2ca02c;stroke-linecap:square;stroke-width:1.5;"/>
   </g>
   <g id="line2d_17">
    <path clip-path="url(#p885b7ba403)" d="M 141.218335 188.579019 
L 144.659839 185.657677 
L 148.101343 232.399147 
L 151.542847 235.320489 
L 154.984351 223.635122 
L 158.425855 62.961315 
L 161.867359 83.410709 
L 165.308863 147.680231 
L 168.750367 156.444257 
L 172.191871 176.893651 
L 175.633375 176.893651 
L 179.074879 168.129625 
L 182.516383 171.050967 
L 185.957887 173.972309 
L 189.399391 176.893651 
L 192.840895 147.680231 
L 196.282398 153.522915 
L 199.723902 127.230838 
L 203.165406 127.230838 
L 206.60691 121.388154 
L 210.048414 135.994864 
L 213.489918 98.017419 
L 216.931422 80.489367 
L 220.372926 83.410709 
L 223.81443 229.477806 
L 227.255934 261.612567 
L 230.697438 279.140618 
L 234.138942 279.140618 
L 237.580446 279.140618 
L 241.02195 279.140618 
L 244.463454 279.140618 
L 247.904958 279.140618 
L 251.346462 279.140618 
L 254.787966 279.140618 
L 258.22947 279.140618 
L 261.670974 279.140618 
L 265.112478 276.219276 
L 268.553982 279.140618 
L 271.995486 279.140618 
L 275.43699 279.140618 
L 278.878494 279.140618 
L 282.319998 279.140618 
L 285.761502 279.140618 
L 289.203006 279.140618 
L 292.64451 282.06196 
L 296.086013 279.140618 
L 299.527517 279.140618 
L 302.969021 279.140618 
L 306.410525 279.140618 
L 309.852029 279.140618 
L 313.293533 279.140618 
L 316.735037 279.140618 
L 320.176541 279.140618 
L 323.618045 279.140618 
L 327.059549 279.140618 
L 330.501053 279.140618 
L 333.942557 279.140618 
L 337.384061 279.140618 
L 340.825565 279.140618 
L 344.267069 279.140618 
L 347.708573 276.219276 
L 351.150077 276.219276 
L 354.591581 279.140618 
L 358.033085 279.140618 
L 361.474589 276.219276 
L 364.916093 302.511354 
L 368.357597 284.983302 
L 371.799101 279.140618 
L 375.240605 282.06196 
L 378.682109 279.140618 
L 382.123613 279.140618 
L 385.565117 279.140618 
L 389.006621 279.140618 
L 392.448125 279.140618 
L 395.889628 279.140618 
L 399.331132 279.140618 
L 402.772636 279.140618 
L 406.21414 276.219276 
L 409.655644 279.140618 
L 413.097148 276.219276 
L 416.538652 279.140618 
L 419.980156 276.219276 
L 423.42166 279.140618 
L 426.863164 276.219276 
L 430.304668 279.140618 
L 433.746172 282.06196 
L 437.187676 287.904644 
L 440.62918 279.140618 
L 444.070684 279.140618 
L 447.512188 279.140618 
L 450.953692 279.140618 
L 454.395196 279.140618 
L 457.8367 279.140618 
L 461.278204 276.219276 
L 464.719708 279.140618 
L 468.161212 279.140618 
L 471.602716 279.140618 
L 475.04422 279.140618 
L 478.485724 276.219276 
L 481.927228 276.219276 
L 485.368732 279.140618 
L 488.810236 279.140618 
L 492.25174 279.140618 
L 495.693243 276.219276 
L 499.134747 276.219276 
L 502.576251 276.219276 
L 506.017755 302.511354 
L 509.459259 276.219276 
" style="fill:none;stroke:#d62728;stroke-linecap:square;stroke-width:1.5;"/>
   </g>
   <g id="patch_3">
    <path d="M 92.823906 352.174167 
L 92.823906 35.0625 
" style="fill:none;stroke:#000000;stroke-linecap:square;stroke-linejoin:miter;stroke-width:0.8;"/>
   </g>
   <g id="patch_4">
    <path d="M 544.073906 352.174167 
L 544.073906 35.0625 
" style="fill:none;stroke:#000000;stroke-linecap:square;stroke-linejoin:miter;stroke-width:0.8;"/>
   </g>
   <g id="patch_5">
    <path d="M 92.823906 352.174167 
L 544.073906 352.174167 
" style="fill:none;stroke:#000000;stroke-linecap:square;stroke-linejoin:miter;stroke-width:0.8;"/>
   </g>
   <g id="patch_6">
    <path d="M 92.823906 35.0625 
L 544.073906 35.0625 
" style="fill:none;stroke:#000000;stroke-linecap:square;stroke-linejoin:miter;stroke-width:0.8;"/>
   </g>
   <g id="legend_1">
    <g id="patch_7">
     <path d="M 568.636406 96.775 
L 630.169219 96.775 
Q 632.169219 96.775 632.169219 94.775 
L 632.169219 37.0625 
Q 632.169219 35.0625 630.169219 35.0625 
L 568.636406 35.0625 
Q 566.636406 35.0625 566.636406 37.0625 
L 566.636406 94.775 
Q 566.636406 96.775 568.636406 96.775 
z
" style="fill:#ffffff;opacity:0.8;stroke:#cccccc;stroke-linejoin:miter;"/>
    </g>
    <g id="line2d_18">
     <path d="M 570.636406 43.160937 
L 590.636406 43.160937 
" style="fill:none;stroke:#1f77b4;stroke-linecap:square;stroke-width:1.5;"/>
    </g>
    <g id="line2d_19"/>
    <g id="text_15">
     <!-- bbr-pi -->
     <defs>
      <path d="M 48.6875 27.296875 
Q 48.6875 37.203125 44.609375 42.84375 
Q 40.53125 48.484375 33.40625 48.484375 
Q 26.265625 48.484375 22.1875 42.84375 
Q 18.109375 37.203125 18.109375 27.296875 
Q 18.109375 17.390625 22.1875 11.75 
Q 26.265625 6.109375 33.40625 6.109375 
Q 40.53125 6.109375 44.609375 11.75 
Q 48.6875 17.390625 48.6875 27.296875 
z
M 18.109375 46.390625 
Q 20.953125 51.265625 25.265625 53.625 
Q 29.59375 56 35.59375 56 
Q 45.5625 56 51.78125 48.09375 
Q 58.015625 40.1875 58.015625 27.296875 
Q 58.015625 14.40625 51.78125 6.484375 
Q 45.5625 -1.421875 35.59375 -1.421875 
Q 29.59375 -1.421875 25.265625 0.953125 
Q 20.953125 3.328125 18.109375 8.203125 
L 18.109375 0 
L 9.078125 0 
L 9.078125 75.984375 
L 18.109375 75.984375 
z
" id="DejaVuSans-98"/>
      <path d="M 4.890625 31.390625 
L 31.203125 31.390625 
L 31.203125 23.390625 
L 4.890625 23.390625 
z
" id="DejaVuSans-45"/>
      <path d="M 18.109375 8.203125 
L 18.109375 -20.796875 
L 9.078125 -20.796875 
L 9.078125 54.6875 
L 18.109375 54.6875 
L 18.109375 46.390625 
Q 20.953125 51.265625 25.265625 53.625 
Q 29.59375 56 35.59375 56 
Q 45.5625 56 51.78125 48.09375 
Q 58.015625 40.1875 58.015625 27.296875 
Q 58.015625 14.40625 51.78125 6.484375 
Q 45.5625 -1.421875 35.59375 -1.421875 
Q 29.59375 -1.421875 25.265625 0.953125 
Q 20.953125 3.328125 18.109375 8.203125 
z
M 48.6875 27.296875 
Q 48.6875 37.203125 44.609375 42.84375 
Q 40.53125 48.484375 33.40625 48.484375 
Q 26.265625 48.484375 22.1875 42.84375 
Q 18.109375 37.203125 18.109375 27.296875 
Q 18.109375 17.390625 22.1875 11.75 
Q 26.265625 6.109375 33.40625 6.109375 
Q 40.53125 6.109375 44.609375 11.75 
Q 48.6875 17.390625 48.6875 27.296875 
z
" id="DejaVuSans-112"/>
      <path d="M 9.421875 54.6875 
L 18.40625 54.6875 
L 18.40625 0 
L 9.421875 0 
z
M 9.421875 75.984375 
L 18.40625 75.984375 
L 18.40625 64.59375 
L 9.421875 64.59375 
z
" id="DejaVuSans-105"/>
     </defs>
     <g transform="translate(598.636406 46.660937)scale(0.1 -0.1)">
      <use xlink:href="#DejaVuSans-98"/>
      <use x="63.476562" xlink:href="#DejaVuSans-98"/>
      <use x="126.953125" xlink:href="#DejaVuSans-114"/>
      <use x="167.972656" xlink:href="#DejaVuSans-45"/>
      <use x="204.056641" xlink:href="#DejaVuSans-112"/>
      <use x="267.533203" xlink:href="#DejaVuSans-105"/>
     </g>
    </g>
    <g id="line2d_20">
     <path d="M 570.636406 57.839063 
L 590.636406 57.839063 
" style="fill:none;stroke:#ff7f0e;stroke-linecap:square;stroke-width:1.5;"/>
    </g>
    <g id="line2d_21"/>
    <g id="text_16">
     <!-- bbr-pi -->
     <g transform="translate(598.636406 61.339063)scale(0.1 -0.1)">
      <use xlink:href="#DejaVuSans-98"/>
      <use x="63.476562" xlink:href="#DejaVuSans-98"/>
      <use x="126.953125" xlink:href="#DejaVuSans-114"/>
      <use x="167.972656" xlink:href="#DejaVuSans-45"/>
      <use x="204.056641" xlink:href="#DejaVuSans-112"/>
      <use x="267.533203" xlink:href="#DejaVuSans-105"/>
     </g>
    </g>
    <g id="line2d_22">
     <path d="M 570.636406 72.517187 
L 590.636406 72.517187 
" style="fill:none;stroke:#2ca02c;stroke-linecap:square;stroke-width:1.5;"/>
    </g>
    <g id="line2d_23"/>
    <g id="line2d_24">
     <path d="M 570.636406 87.195312 
L 590.636406 87.195312 
" style="fill:none;stroke:#d62728;stroke-linecap:square;stroke-width:1.5;"/>
    </g>
    <g id="line2d_25"/>
    <g id="text_17">
     <!-- bbr-pi -->
     <g transform="translate(598.636406 90.695312)scale(0.1 -0.1)">
      <use xlink:href="#DejaVuSans-98"/>
      <use x="63.476562" xlink:href="#DejaVuSans-98"/>
      <use x="126.953125" xlink:href="#DejaVuSans-114"/>
      <use x="167.972656" xlink:href="#DejaVuSans-45"/>
      <use x="204.056641" xlink:href="#DejaVuSans-112"/>
      <use x="267.533203" xlink:href="#DejaVuSans-105"/>
     </g>
    </g>
   </g>
  </g>
  <g id="text_18">
   <!-- 4 rtt -->
   <defs>
    <path id="DejaVuSans-32"/>
   </defs>
   <g transform="translate(329.104688 17.038125)scale(0.12 -0.12)">
    <use xlink:href="#DejaVuSans-52"/>
    <use x="63.623047" xlink:href="#DejaVuSans-32"/>
    <use x="95.410156" xlink:href="#DejaVuSans-114"/>
    <use x="136.523438" xlink:href="#DejaVuSans-116"/>
    <use x="175.732422" xlink:href="#DejaVuSans-116"/>
   </g>
  </g>
 </g>
 <defs>
  <clipPath id="p885b7ba403">
   <rect height="317.111667" width="451.25" x="92.823906" y="35.0625"/>
  </clipPath>
 </defs>
</svg>
