<?xml version="1.0" encoding="utf-8" standalone="no"?>
<!DOCTYPE svg PUBLIC "-//W3C//DTD SVG 1.1//EN"
  "http://www.w3.org/Graphics/SVG/1.1/DTD/svg11.dtd">
<!-- Created with matplotlib (https://matplotlib.org/) -->
<svg height="396pt" version="1.1" viewBox="0 0 684 396" width="684pt" xmlns="http://www.w3.org/2000/svg" xmlns:xlink="http://www.w3.org/1999/xlink">
 <defs>
  <style type="text/css">
*{stroke-linecap:butt;stroke-linejoin:round;}
  </style>
 </defs>
 <g id="figure_1">
  <g id="patch_1">
   <path d="M 0 396 
L 684 396 
L 684 0 
L 0 0 
z
" style="fill:#ffffff;"/>
  </g>
  <g id="axes_1">
   <g id="patch_2">
    <path d="M 83.472344 352.174167 
L 529.912969 352.174167 
L 529.912969 35.0625 
L 83.472344 35.0625 
z
" style="fill:#ffffff;"/>
   </g>
   <g id="matplotlib.axis_1">
    <g id="xtick_1">
     <g id="line2d_1">
      <defs>
       <path d="M 0 0 
L 0 3.5 
" id="ma8b4c1e532" style="stroke:#000000;stroke-width:0.8;"/>
      </defs>
      <g>
       <use style="stroke:#000000;stroke-width:0.8;" x="103.763626" xlink:href="#ma8b4c1e532" y="352.174167"/>
      </g>
     </g>
     <g id="text_1">
      <!-- 0 -->
      <defs>
       <path d="M 31.78125 66.40625 
Q 24.171875 66.40625 20.328125 58.90625 
Q 16.5 51.421875 16.5 36.375 
Q 16.5 21.390625 20.328125 13.890625 
Q 24.171875 6.390625 31.78125 6.390625 
Q 39.453125 6.390625 43.28125 13.890625 
Q 47.125 21.390625 47.125 36.375 
Q 47.125 51.421875 43.28125 58.90625 
Q 39.453125 66.40625 31.78125 66.40625 
z
M 31.78125 74.21875 
Q 44.046875 74.21875 50.515625 64.515625 
Q 56.984375 54.828125 56.984375 36.375 
Q 56.984375 17.96875 50.515625 8.265625 
Q 44.046875 -1.421875 31.78125 -1.421875 
Q 19.53125 -1.421875 13.0625 8.265625 
Q 6.59375 17.96875 6.59375 36.375 
Q 6.59375 54.828125 13.0625 64.515625 
Q 19.53125 74.21875 31.78125 74.21875 
z
" id="DejaVuSans-48"/>
      </defs>
      <g transform="translate(100.582376 366.772604)scale(0.1 -0.1)">
       <use xlink:href="#DejaVuSans-48"/>
      </g>
     </g>
    </g>
    <g id="xtick_2">
     <g id="line2d_2">
      <g>
       <use style="stroke:#000000;stroke-width:0.8;" x="177.414591" xlink:href="#ma8b4c1e532" y="352.174167"/>
      </g>
     </g>
     <g id="text_2">
      <!-- 50 -->
      <defs>
       <path d="M 10.796875 72.90625 
L 49.515625 72.90625 
L 49.515625 64.59375 
L 19.828125 64.59375 
L 19.828125 46.734375 
Q 21.96875 47.46875 24.109375 47.828125 
Q 26.265625 48.1875 28.421875 48.1875 
Q 40.625 48.1875 47.75 41.5 
Q 54.890625 34.8125 54.890625 23.390625 
Q 54.890625 11.625 47.5625 5.09375 
Q 40.234375 -1.421875 26.90625 -1.421875 
Q 22.3125 -1.421875 17.546875 -0.640625 
Q 12.796875 0.140625 7.71875 1.703125 
L 7.71875 11.625 
Q 12.109375 9.234375 16.796875 8.0625 
Q 21.484375 6.890625 26.703125 6.890625 
Q 35.15625 6.890625 40.078125 11.328125 
Q 45.015625 15.765625 45.015625 23.390625 
Q 45.015625 31 40.078125 35.4375 
Q 35.15625 39.890625 26.703125 39.890625 
Q 22.75 39.890625 18.8125 39.015625 
Q 14.890625 38.140625 10.796875 36.28125 
z
" id="DejaVuSans-53"/>
      </defs>
      <g transform="translate(171.052091 366.772604)scale(0.1 -0.1)">
       <use xlink:href="#DejaVuSans-53"/>
       <use x="63.623047" xlink:href="#DejaVuSans-48"/>
      </g>
     </g>
    </g>
    <g id="xtick_3">
     <g id="line2d_3">
      <g>
       <use style="stroke:#000000;stroke-width:0.8;" x="251.065556" xlink:href="#ma8b4c1e532" y="352.174167"/>
      </g>
     </g>
     <g id="text_3">
      <!-- 100 -->
      <defs>
       <path d="M 12.40625 8.296875 
L 28.515625 8.296875 
L 28.515625 63.921875 
L 10.984375 60.40625 
L 10.984375 69.390625 
L 28.421875 72.90625 
L 38.28125 72.90625 
L 38.28125 8.296875 
L 54.390625 8.296875 
L 54.390625 0 
L 12.40625 0 
z
" id="DejaVuSans-49"/>
      </defs>
      <g transform="translate(241.521806 366.772604)scale(0.1 -0.1)">
       <use xlink:href="#DejaVuSans-49"/>
       <use x="63.623047" xlink:href="#DejaVuSans-48"/>
       <use x="127.246094" xlink:href="#DejaVuSans-48"/>
      </g>
     </g>
    </g>
    <g id="xtick_4">
     <g id="line2d_4">
      <g>
       <use style="stroke:#000000;stroke-width:0.8;" x="324.71652" xlink:href="#ma8b4c1e532" y="352.174167"/>
      </g>
     </g>
     <g id="text_4">
      <!-- 150 -->
      <g transform="translate(315.17277 366.772604)scale(0.1 -0.1)">
       <use xlink:href="#DejaVuSans-49"/>
       <use x="63.623047" xlink:href="#DejaVuSans-53"/>
       <use x="127.246094" xlink:href="#DejaVuSans-48"/>
      </g>
     </g>
    </g>
    <g id="xtick_5">
     <g id="line2d_5">
      <g>
       <use style="stroke:#000000;stroke-width:0.8;" x="398.367485" xlink:href="#ma8b4c1e532" y="352.174167"/>
      </g>
     </g>
     <g id="text_5">
      <!-- 200 -->
      <defs>
       <path d="M 19.1875 8.296875 
L 53.609375 8.296875 
L 53.609375 0 
L 7.328125 0 
L 7.328125 8.296875 
Q 12.9375 14.109375 22.625 23.890625 
Q 32.328125 33.6875 34.8125 36.53125 
Q 39.546875 41.84375 41.421875 45.53125 
Q 43.3125 49.21875 43.3125 52.78125 
Q 43.3125 58.59375 39.234375 62.25 
Q 35.15625 65.921875 28.609375 65.921875 
Q 23.96875 65.921875 18.8125 64.3125 
Q 13.671875 62.703125 7.8125 59.421875 
L 7.8125 69.390625 
Q 13.765625 71.78125 18.9375 73 
Q 24.125 74.21875 28.421875 74.21875 
Q 39.75 74.21875 46.484375 68.546875 
Q 53.21875 62.890625 53.21875 53.421875 
Q 53.21875 48.921875 51.53125 44.890625 
Q 49.859375 40.875 45.40625 35.40625 
Q 44.1875 33.984375 37.640625 27.21875 
Q 31.109375 20.453125 19.1875 8.296875 
z
" id="DejaVuSans-50"/>
      </defs>
      <g transform="translate(388.823735 366.772604)scale(0.1 -0.1)">
       <use xlink:href="#DejaVuSans-50"/>
       <use x="63.623047" xlink:href="#DejaVuSans-48"/>
       <use x="127.246094" xlink:href="#DejaVuSans-48"/>
      </g>
     </g>
    </g>
    <g id="xtick_6">
     <g id="line2d_6">
      <g>
       <use style="stroke:#000000;stroke-width:0.8;" x="472.01845" xlink:href="#ma8b4c1e532" y="352.174167"/>
      </g>
     </g>
     <g id="text_6">
      <!-- 250 -->
      <g transform="translate(462.4747 366.772604)scale(0.1 -0.1)">
       <use xlink:href="#DejaVuSans-50"/>
       <use x="63.623047" xlink:href="#DejaVuSans-53"/>
       <use x="127.246094" xlink:href="#DejaVuSans-48"/>
      </g>
     </g>
    </g>
   </g>
   <g id="matplotlib.axis_2">
    <g id="ytick_1">
     <g id="line2d_7">
      <defs>
       <path d="M 0 0 
L -3.5 0 
" id="me03ecbb31e" style="stroke:#000000;stroke-width:0.8;"/>
      </defs>
      <g>
       <use style="stroke:#000000;stroke-width:0.8;" x="83.472344" xlink:href="#me03ecbb31e" y="352.174167"/>
      </g>
     </g>
     <g id="text_7">
      <!-- 0 -->
      <g transform="translate(70.109844 355.973385)scale(0.1 -0.1)">
       <use xlink:href="#DejaVuSans-48"/>
      </g>
     </g>
    </g>
    <g id="ytick_2">
     <g id="line2d_8">
      <g>
       <use style="stroke:#000000;stroke-width:0.8;" x="83.472344" xlink:href="#me03ecbb31e" y="313.944912"/>
      </g>
     </g>
     <g id="text_8">
      <!-- 10 -->
      <g transform="translate(63.747344 317.744131)scale(0.1 -0.1)">
       <use xlink:href="#DejaVuSans-49"/>
       <use x="63.623047" xlink:href="#DejaVuSans-48"/>
      </g>
     </g>
    </g>
    <g id="ytick_3">
     <g id="line2d_9">
      <g>
       <use style="stroke:#000000;stroke-width:0.8;" x="83.472344" xlink:href="#me03ecbb31e" y="275.715658"/>
      </g>
     </g>
     <g id="text_9">
      <!-- 20 -->
      <g transform="translate(63.747344 279.514876)scale(0.1 -0.1)">
       <use xlink:href="#DejaVuSans-50"/>
       <use x="63.623047" xlink:href="#DejaVuSans-48"/>
      </g>
     </g>
    </g>
    <g id="ytick_4">
     <g id="line2d_10">
      <g>
       <use style="stroke:#000000;stroke-width:0.8;" x="83.472344" xlink:href="#me03ecbb31e" y="237.486403"/>
      </g>
     </g>
     <g id="text_10">
      <!-- 30 -->
      <defs>
       <path d="M 40.578125 39.3125 
Q 47.65625 37.796875 51.625 33 
Q 55.609375 28.21875 55.609375 21.1875 
Q 55.609375 10.40625 48.1875 4.484375 
Q 40.765625 -1.421875 27.09375 -1.421875 
Q 22.515625 -1.421875 17.65625 -0.515625 
Q 12.796875 0.390625 7.625 2.203125 
L 7.625 11.71875 
Q 11.71875 9.328125 16.59375 8.109375 
Q 21.484375 6.890625 26.8125 6.890625 
Q 36.078125 6.890625 40.9375 10.546875 
Q 45.796875 14.203125 45.796875 21.1875 
Q 45.796875 27.640625 41.28125 31.265625 
Q 36.765625 34.90625 28.71875 34.90625 
L 20.21875 34.90625 
L 20.21875 43.015625 
L 29.109375 43.015625 
Q 36.375 43.015625 40.234375 45.921875 
Q 44.09375 48.828125 44.09375 54.296875 
Q 44.09375 59.90625 40.109375 62.90625 
Q 36.140625 65.921875 28.71875 65.921875 
Q 24.65625 65.921875 20.015625 65.03125 
Q 15.375 64.15625 9.8125 62.3125 
L 9.8125 71.09375 
Q 15.4375 72.65625 20.34375 73.4375 
Q 25.25 74.21875 29.59375 74.21875 
Q 40.828125 74.21875 47.359375 69.109375 
Q 53.90625 64.015625 53.90625 55.328125 
Q 53.90625 49.265625 50.4375 45.09375 
Q 46.96875 40.921875 40.578125 39.3125 
z
" id="DejaVuSans-51"/>
      </defs>
      <g transform="translate(63.747344 241.285622)scale(0.1 -0.1)">
       <use xlink:href="#DejaVuSans-51"/>
       <use x="63.623047" xlink:href="#DejaVuSans-48"/>
      </g>
     </g>
    </g>
    <g id="ytick_5">
     <g id="line2d_11">
      <g>
       <use style="stroke:#000000;stroke-width:0.8;" x="83.472344" xlink:href="#me03ecbb31e" y="199.257148"/>
      </g>
     </g>
     <g id="text_11">
      <!-- 40 -->
      <defs>
       <path d="M 37.796875 64.3125 
L 12.890625 25.390625 
L 37.796875 25.390625 
z
M 35.203125 72.90625 
L 47.609375 72.90625 
L 47.609375 25.390625 
L 58.015625 25.390625 
L 58.015625 17.1875 
L 47.609375 17.1875 
L 47.609375 0 
L 37.796875 0 
L 37.796875 17.1875 
L 4.890625 17.1875 
L 4.890625 26.703125 
z
" id="DejaVuSans-52"/>
      </defs>
      <g transform="translate(63.747344 203.056367)scale(0.1 -0.1)">
       <use xlink:href="#DejaVuSans-52"/>
       <use x="63.623047" xlink:href="#DejaVuSans-48"/>
      </g>
     </g>
    </g>
    <g id="ytick_6">
     <g id="line2d_12">
      <g>
       <use style="stroke:#000000;stroke-width:0.8;" x="83.472344" xlink:href="#me03ecbb31e" y="161.027894"/>
      </g>
     </g>
     <g id="text_12">
      <!-- 50 -->
      <g transform="translate(63.747344 164.827113)scale(0.1 -0.1)">
       <use xlink:href="#DejaVuSans-53"/>
       <use x="63.623047" xlink:href="#DejaVuSans-48"/>
      </g>
     </g>
    </g>
    <g id="ytick_7">
     <g id="line2d_13">
      <g>
       <use style="stroke:#000000;stroke-width:0.8;" x="83.472344" xlink:href="#me03ecbb31e" y="122.798639"/>
      </g>
     </g>
     <g id="text_13">
      <!-- 60 -->
      <defs>
       <path d="M 33.015625 40.375 
Q 26.375 40.375 22.484375 35.828125 
Q 18.609375 31.296875 18.609375 23.390625 
Q 18.609375 15.53125 22.484375 10.953125 
Q 26.375 6.390625 33.015625 6.390625 
Q 39.65625 6.390625 43.53125 10.953125 
Q 47.40625 15.53125 47.40625 23.390625 
Q 47.40625 31.296875 43.53125 35.828125 
Q 39.65625 40.375 33.015625 40.375 
z
M 52.59375 71.296875 
L 52.59375 62.3125 
Q 48.875 64.0625 45.09375 64.984375 
Q 41.3125 65.921875 37.59375 65.921875 
Q 27.828125 65.921875 22.671875 59.328125 
Q 17.53125 52.734375 16.796875 39.40625 
Q 19.671875 43.65625 24.015625 45.921875 
Q 28.375 48.1875 33.59375 48.1875 
Q 44.578125 48.1875 50.953125 41.515625 
Q 57.328125 34.859375 57.328125 23.390625 
Q 57.328125 12.15625 50.6875 5.359375 
Q 44.046875 -1.421875 33.015625 -1.421875 
Q 20.359375 -1.421875 13.671875 8.265625 
Q 6.984375 17.96875 6.984375 36.375 
Q 6.984375 53.65625 15.1875 63.9375 
Q 23.390625 74.21875 37.203125 74.21875 
Q 40.921875 74.21875 44.703125 73.484375 
Q 48.484375 72.75 52.59375 71.296875 
z
" id="DejaVuSans-54"/>
      </defs>
      <g transform="translate(63.747344 126.597858)scale(0.1 -0.1)">
       <use xlink:href="#DejaVuSans-54"/>
       <use x="63.623047" xlink:href="#DejaVuSans-48"/>
      </g>
     </g>
    </g>
    <g id="ytick_8">
     <g id="line2d_14">
      <g>
       <use style="stroke:#000000;stroke-width:0.8;" x="83.472344" xlink:href="#me03ecbb31e" y="84.569385"/>
      </g>
     </g>
     <g id="text_14">
      <!-- 70 -->
      <defs>
       <path d="M 8.203125 72.90625 
L 55.078125 72.90625 
L 55.078125 68.703125 
L 28.609375 0 
L 18.3125 0 
L 43.21875 64.59375 
L 8.203125 64.59375 
z
" id="DejaVuSans-55"/>
      </defs>
      <g transform="translate(63.747344 88.368603)scale(0.1 -0.1)">
       <use xlink:href="#DejaVuSans-55"/>
       <use x="63.623047" xlink:href="#DejaVuSans-48"/>
      </g>
     </g>
    </g>
    <g id="ytick_9">
     <g id="line2d_15">
      <g>
       <use style="stroke:#000000;stroke-width:0.8;" x="83.472344" xlink:href="#me03ecbb31e" y="46.34013"/>
      </g>
     </g>
     <g id="text_15">
      <!-- 80 -->
      <defs>
       <path d="M 31.78125 34.625 
Q 24.75 34.625 20.71875 30.859375 
Q 16.703125 27.09375 16.703125 20.515625 
Q 16.703125 13.921875 20.71875 10.15625 
Q 24.75 6.390625 31.78125 6.390625 
Q 38.8125 6.390625 42.859375 10.171875 
Q 46.921875 13.96875 46.921875 20.515625 
Q 46.921875 27.09375 42.890625 30.859375 
Q 38.875 34.625 31.78125 34.625 
z
M 21.921875 38.8125 
Q 15.578125 40.375 12.03125 44.71875 
Q 8.5 49.078125 8.5 55.328125 
Q 8.5 64.0625 14.71875 69.140625 
Q 20.953125 74.21875 31.78125 74.21875 
Q 42.671875 74.21875 48.875 69.140625 
Q 55.078125 64.0625 55.078125 55.328125 
Q 55.078125 49.078125 51.53125 44.71875 
Q 48 40.375 41.703125 38.8125 
Q 48.828125 37.15625 52.796875 32.3125 
Q 56.78125 27.484375 56.78125 20.515625 
Q 56.78125 9.90625 50.3125 4.234375 
Q 43.84375 -1.421875 31.78125 -1.421875 
Q 19.734375 -1.421875 13.25 4.234375 
Q 6.78125 9.90625 6.78125 20.515625 
Q 6.78125 27.484375 10.78125 32.3125 
Q 14.796875 37.15625 21.921875 38.8125 
z
M 18.3125 54.390625 
Q 18.3125 48.734375 21.84375 45.5625 
Q 25.390625 42.390625 31.78125 42.390625 
Q 38.140625 42.390625 41.71875 45.5625 
Q 45.3125 48.734375 45.3125 54.390625 
Q 45.3125 60.0625 41.71875 63.234375 
Q 38.140625 66.40625 31.78125 66.40625 
Q 25.390625 66.40625 21.84375 63.234375 
Q 18.3125 60.0625 18.3125 54.390625 
z
" id="DejaVuSans-56"/>
      </defs>
      <g transform="translate(63.747344 50.139349)scale(0.1 -0.1)">
       <use xlink:href="#DejaVuSans-56"/>
       <use x="63.623047" xlink:href="#DejaVuSans-48"/>
      </g>
     </g>
    </g>
    <g id="text_16">
     <!-- throughput -->
     <defs>
      <path d="M 18.3125 70.21875 
L 18.3125 54.6875 
L 36.8125 54.6875 
L 36.8125 47.703125 
L 18.3125 47.703125 
L 18.3125 18.015625 
Q 18.3125 11.328125 20.140625 9.421875 
Q 21.96875 7.515625 27.59375 7.515625 
L 36.8125 7.515625 
L 36.8125 0 
L 27.59375 0 
Q 17.1875 0 13.234375 3.875 
Q 9.28125 7.765625 9.28125 18.015625 
L 9.28125 47.703125 
L 2.6875 47.703125 
L 2.6875 54.6875 
L 9.28125 54.6875 
L 9.28125 70.21875 
z
" id="DejaVuSans-116"/>
      <path d="M 54.890625 33.015625 
L 54.890625 0 
L 45.90625 0 
L 45.90625 32.71875 
Q 45.90625 40.484375 42.875 44.328125 
Q 39.84375 48.1875 33.796875 48.1875 
Q 26.515625 48.1875 22.3125 43.546875 
Q 18.109375 38.921875 18.109375 30.90625 
L 18.109375 0 
L 9.078125 0 
L 9.078125 75.984375 
L 18.109375 75.984375 
L 18.109375 46.1875 
Q 21.34375 51.125 25.703125 53.5625 
Q 30.078125 56 35.796875 56 
Q 45.21875 56 50.046875 50.171875 
Q 54.890625 44.34375 54.890625 33.015625 
z
" id="DejaVuSans-104"/>
      <path d="M 41.109375 46.296875 
Q 39.59375 47.171875 37.8125 47.578125 
Q 36.03125 48 33.890625 48 
Q 26.265625 48 22.1875 43.046875 
Q 18.109375 38.09375 18.109375 28.8125 
L 18.109375 0 
L 9.078125 0 
L 9.078125 54.6875 
L 18.109375 54.6875 
L 18.109375 46.1875 
Q 20.953125 51.171875 25.484375 53.578125 
Q 30.03125 56 36.53125 56 
Q 37.453125 56 38.578125 55.875 
Q 39.703125 55.765625 41.0625 55.515625 
z
" id="DejaVuSans-114"/>
      <path d="M 30.609375 48.390625 
Q 23.390625 48.390625 19.1875 42.75 
Q 14.984375 37.109375 14.984375 27.296875 
Q 14.984375 17.484375 19.15625 11.84375 
Q 23.34375 6.203125 30.609375 6.203125 
Q 37.796875 6.203125 41.984375 11.859375 
Q 46.1875 17.53125 46.1875 27.296875 
Q 46.1875 37.015625 41.984375 42.703125 
Q 37.796875 48.390625 30.609375 48.390625 
z
M 30.609375 56 
Q 42.328125 56 49.015625 48.375 
Q 55.71875 40.765625 55.71875 27.296875 
Q 55.71875 13.875 49.015625 6.21875 
Q 42.328125 -1.421875 30.609375 -1.421875 
Q 18.84375 -1.421875 12.171875 6.21875 
Q 5.515625 13.875 5.515625 27.296875 
Q 5.515625 40.765625 12.171875 48.375 
Q 18.84375 56 30.609375 56 
z
" id="DejaVuSans-111"/>
      <path d="M 8.5 21.578125 
L 8.5 54.6875 
L 17.484375 54.6875 
L 17.484375 21.921875 
Q 17.484375 14.15625 20.5 10.265625 
Q 23.53125 6.390625 29.59375 6.390625 
Q 36.859375 6.390625 41.078125 11.03125 
Q 45.3125 15.671875 45.3125 23.6875 
L 45.3125 54.6875 
L 54.296875 54.6875 
L 54.296875 0 
L 45.3125 0 
L 45.3125 8.40625 
Q 42.046875 3.421875 37.71875 1 
Q 33.40625 -1.421875 27.6875 -1.421875 
Q 18.265625 -1.421875 13.375 4.4375 
Q 8.5 10.296875 8.5 21.578125 
z
M 31.109375 56 
z
" id="DejaVuSans-117"/>
      <path d="M 45.40625 27.984375 
Q 45.40625 37.75 41.375 43.109375 
Q 37.359375 48.484375 30.078125 48.484375 
Q 22.859375 48.484375 18.828125 43.109375 
Q 14.796875 37.75 14.796875 27.984375 
Q 14.796875 18.265625 18.828125 12.890625 
Q 22.859375 7.515625 30.078125 7.515625 
Q 37.359375 7.515625 41.375 12.890625 
Q 45.40625 18.265625 45.40625 27.984375 
z
M 54.390625 6.78125 
Q 54.390625 -7.171875 48.1875 -13.984375 
Q 42 -20.796875 29.203125 -20.796875 
Q 24.46875 -20.796875 20.265625 -20.09375 
Q 16.0625 -19.390625 12.109375 -17.921875 
L 12.109375 -9.1875 
Q 16.0625 -11.328125 19.921875 -12.34375 
Q 23.78125 -13.375 27.78125 -13.375 
Q 36.625 -13.375 41.015625 -8.765625 
Q 45.40625 -4.15625 45.40625 5.171875 
L 45.40625 9.625 
Q 42.625 4.78125 38.28125 2.390625 
Q 33.9375 0 27.875 0 
Q 17.828125 0 11.671875 7.65625 
Q 5.515625 15.328125 5.515625 27.984375 
Q 5.515625 40.671875 11.671875 48.328125 
Q 17.828125 56 27.875 56 
Q 33.9375 56 38.28125 53.609375 
Q 42.625 51.21875 45.40625 46.390625 
L 45.40625 54.6875 
L 54.390625 54.6875 
z
" id="DejaVuSans-103"/>
      <path d="M 18.109375 8.203125 
L 18.109375 -20.796875 
L 9.078125 -20.796875 
L 9.078125 54.6875 
L 18.109375 54.6875 
L 18.109375 46.390625 
Q 20.953125 51.265625 25.265625 53.625 
Q 29.59375 56 35.59375 56 
Q 45.5625 56 51.78125 48.09375 
Q 58.015625 40.1875 58.015625 27.296875 
Q 58.015625 14.40625 51.78125 6.484375 
Q 45.5625 -1.421875 35.59375 -1.421875 
Q 29.59375 -1.421875 25.265625 0.953125 
Q 20.953125 3.328125 18.109375 8.203125 
z
M 48.6875 27.296875 
Q 48.6875 37.203125 44.609375 42.84375 
Q 40.53125 48.484375 33.40625 48.484375 
Q 26.265625 48.484375 22.1875 42.84375 
Q 18.109375 37.203125 18.109375 27.296875 
Q 18.109375 17.390625 22.1875 11.75 
Q 26.265625 6.109375 33.40625 6.109375 
Q 40.53125 6.109375 44.609375 11.75 
Q 48.6875 17.390625 48.6875 27.296875 
z
" id="DejaVuSans-112"/>
     </defs>
     <g transform="translate(46.469844 221.675365)rotate(-90)scale(0.1 -0.1)">
      <use xlink:href="#DejaVuSans-116"/>
      <use x="39.208984" xlink:href="#DejaVuSans-104"/>
      <use x="102.587891" xlink:href="#DejaVuSans-114"/>
      <use x="143.669922" xlink:href="#DejaVuSans-111"/>
      <use x="204.851562" xlink:href="#DejaVuSans-117"/>
      <use x="268.230469" xlink:href="#DejaVuSans-103"/>
      <use x="331.707031" xlink:href="#DejaVuSans-104"/>
      <use x="395.085938" xlink:href="#DejaVuSans-112"/>
      <use x="458.5625" xlink:href="#DejaVuSans-117"/>
      <use x="521.941406" xlink:href="#DejaVuSans-116"/>
     </g>
     <!-- (mbit / second) -->
     <defs>
      <path d="M 31 75.875 
Q 24.46875 64.65625 21.28125 53.65625 
Q 18.109375 42.671875 18.109375 31.390625 
Q 18.109375 20.125 21.3125 9.0625 
Q 24.515625 -2 31 -13.1875 
L 23.1875 -13.1875 
Q 15.875 -1.703125 12.234375 9.375 
Q 8.59375 20.453125 8.59375 31.390625 
Q 8.59375 42.28125 12.203125 53.3125 
Q 15.828125 64.359375 23.1875 75.875 
z
" id="DejaVuSans-40"/>
      <path d="M 52 44.1875 
Q 55.375 50.25 60.0625 53.125 
Q 64.75 56 71.09375 56 
Q 79.640625 56 84.28125 50.015625 
Q 88.921875 44.046875 88.921875 33.015625 
L 88.921875 0 
L 79.890625 0 
L 79.890625 32.71875 
Q 79.890625 40.578125 77.09375 44.375 
Q 74.3125 48.1875 68.609375 48.1875 
Q 61.625 48.1875 57.5625 43.546875 
Q 53.515625 38.921875 53.515625 30.90625 
L 53.515625 0 
L 44.484375 0 
L 44.484375 32.71875 
Q 44.484375 40.625 41.703125 44.40625 
Q 38.921875 48.1875 33.109375 48.1875 
Q 26.21875 48.1875 22.15625 43.53125 
Q 18.109375 38.875 18.109375 30.90625 
L 18.109375 0 
L 9.078125 0 
L 9.078125 54.6875 
L 18.109375 54.6875 
L 18.109375 46.1875 
Q 21.1875 51.21875 25.484375 53.609375 
Q 29.78125 56 35.6875 56 
Q 41.65625 56 45.828125 52.96875 
Q 50 49.953125 52 44.1875 
z
" id="DejaVuSans-109"/>
      <path d="M 48.6875 27.296875 
Q 48.6875 37.203125 44.609375 42.84375 
Q 40.53125 48.484375 33.40625 48.484375 
Q 26.265625 48.484375 22.1875 42.84375 
Q 18.109375 37.203125 18.109375 27.296875 
Q 18.109375 17.390625 22.1875 11.75 
Q 26.265625 6.109375 33.40625 6.109375 
Q 40.53125 6.109375 44.609375 11.75 
Q 48.6875 17.390625 48.6875 27.296875 
z
M 18.109375 46.390625 
Q 20.953125 51.265625 25.265625 53.625 
Q 29.59375 56 35.59375 56 
Q 45.5625 56 51.78125 48.09375 
Q 58.015625 40.1875 58.015625 27.296875 
Q 58.015625 14.40625 51.78125 6.484375 
Q 45.5625 -1.421875 35.59375 -1.421875 
Q 29.59375 -1.421875 25.265625 0.953125 
Q 20.953125 3.328125 18.109375 8.203125 
L 18.109375 0 
L 9.078125 0 
L 9.078125 75.984375 
L 18.109375 75.984375 
z
" id="DejaVuSans-98"/>
      <path d="M 9.421875 54.6875 
L 18.40625 54.6875 
L 18.40625 0 
L 9.421875 0 
z
M 9.421875 75.984375 
L 18.40625 75.984375 
L 18.40625 64.59375 
L 9.421875 64.59375 
z
" id="DejaVuSans-105"/>
      <path id="DejaVuSans-32"/>
      <path d="M 25.390625 72.90625 
L 33.6875 72.90625 
L 8.296875 -9.28125 
L 0 -9.28125 
z
" id="DejaVuSans-47"/>
      <path d="M 44.28125 53.078125 
L 44.28125 44.578125 
Q 40.484375 46.53125 36.375 47.5 
Q 32.28125 48.484375 27.875 48.484375 
Q 21.1875 48.484375 17.84375 46.4375 
Q 14.5 44.390625 14.5 40.28125 
Q 14.5 37.15625 16.890625 35.375 
Q 19.28125 33.59375 26.515625 31.984375 
L 29.59375 31.296875 
Q 39.15625 29.25 43.1875 25.515625 
Q 47.21875 21.78125 47.21875 15.09375 
Q 47.21875 7.46875 41.1875 3.015625 
Q 35.15625 -1.421875 24.609375 -1.421875 
Q 20.21875 -1.421875 15.453125 -0.5625 
Q 10.6875 0.296875 5.421875 2 
L 5.421875 11.28125 
Q 10.40625 8.6875 15.234375 7.390625 
Q 20.0625 6.109375 24.8125 6.109375 
Q 31.15625 6.109375 34.5625 8.28125 
Q 37.984375 10.453125 37.984375 14.40625 
Q 37.984375 18.0625 35.515625 20.015625 
Q 33.0625 21.96875 24.703125 23.78125 
L 21.578125 24.515625 
Q 13.234375 26.265625 9.515625 29.90625 
Q 5.8125 33.546875 5.8125 39.890625 
Q 5.8125 47.609375 11.28125 51.796875 
Q 16.75 56 26.8125 56 
Q 31.78125 56 36.171875 55.265625 
Q 40.578125 54.546875 44.28125 53.078125 
z
" id="DejaVuSans-115"/>
      <path d="M 56.203125 29.59375 
L 56.203125 25.203125 
L 14.890625 25.203125 
Q 15.484375 15.921875 20.484375 11.0625 
Q 25.484375 6.203125 34.421875 6.203125 
Q 39.59375 6.203125 44.453125 7.46875 
Q 49.3125 8.734375 54.109375 11.28125 
L 54.109375 2.78125 
Q 49.265625 0.734375 44.1875 -0.34375 
Q 39.109375 -1.421875 33.890625 -1.421875 
Q 20.796875 -1.421875 13.15625 6.1875 
Q 5.515625 13.8125 5.515625 26.8125 
Q 5.515625 40.234375 12.765625 48.109375 
Q 20.015625 56 32.328125 56 
Q 43.359375 56 49.78125 48.890625 
Q 56.203125 41.796875 56.203125 29.59375 
z
M 47.21875 32.234375 
Q 47.125 39.59375 43.09375 43.984375 
Q 39.0625 48.390625 32.421875 48.390625 
Q 24.90625 48.390625 20.390625 44.140625 
Q 15.875 39.890625 15.1875 32.171875 
z
" id="DejaVuSans-101"/>
      <path d="M 48.78125 52.59375 
L 48.78125 44.1875 
Q 44.96875 46.296875 41.140625 47.34375 
Q 37.3125 48.390625 33.40625 48.390625 
Q 24.65625 48.390625 19.8125 42.84375 
Q 14.984375 37.3125 14.984375 27.296875 
Q 14.984375 17.28125 19.8125 11.734375 
Q 24.65625 6.203125 33.40625 6.203125 
Q 37.3125 6.203125 41.140625 7.25 
Q 44.96875 8.296875 48.78125 10.40625 
L 48.78125 2.09375 
Q 45.015625 0.34375 40.984375 -0.53125 
Q 36.96875 -1.421875 32.421875 -1.421875 
Q 20.0625 -1.421875 12.78125 6.34375 
Q 5.515625 14.109375 5.515625 27.296875 
Q 5.515625 40.671875 12.859375 48.328125 
Q 20.21875 56 33.015625 56 
Q 37.15625 56 41.109375 55.140625 
Q 45.0625 54.296875 48.78125 52.59375 
z
" id="DejaVuSans-99"/>
      <path d="M 54.890625 33.015625 
L 54.890625 0 
L 45.90625 0 
L 45.90625 32.71875 
Q 45.90625 40.484375 42.875 44.328125 
Q 39.84375 48.1875 33.796875 48.1875 
Q 26.515625 48.1875 22.3125 43.546875 
Q 18.109375 38.921875 18.109375 30.90625 
L 18.109375 0 
L 9.078125 0 
L 9.078125 54.6875 
L 18.109375 54.6875 
L 18.109375 46.1875 
Q 21.34375 51.125 25.703125 53.5625 
Q 30.078125 56 35.796875 56 
Q 45.21875 56 50.046875 50.171875 
Q 54.890625 44.34375 54.890625 33.015625 
z
" id="DejaVuSans-110"/>
      <path d="M 45.40625 46.390625 
L 45.40625 75.984375 
L 54.390625 75.984375 
L 54.390625 0 
L 45.40625 0 
L 45.40625 8.203125 
Q 42.578125 3.328125 38.25 0.953125 
Q 33.9375 -1.421875 27.875 -1.421875 
Q 17.96875 -1.421875 11.734375 6.484375 
Q 5.515625 14.40625 5.515625 27.296875 
Q 5.515625 40.1875 11.734375 48.09375 
Q 17.96875 56 27.875 56 
Q 33.9375 56 38.25 53.625 
Q 42.578125 51.265625 45.40625 46.390625 
z
M 14.796875 27.296875 
Q 14.796875 17.390625 18.875 11.75 
Q 22.953125 6.109375 30.078125 6.109375 
Q 37.203125 6.109375 41.296875 11.75 
Q 45.40625 17.390625 45.40625 27.296875 
Q 45.40625 37.203125 41.296875 42.84375 
Q 37.203125 48.484375 30.078125 48.484375 
Q 22.953125 48.484375 18.875 42.84375 
Q 14.796875 37.203125 14.796875 27.296875 
z
" id="DejaVuSans-100"/>
      <path d="M 8.015625 75.875 
L 15.828125 75.875 
Q 23.140625 64.359375 26.78125 53.3125 
Q 30.421875 42.28125 30.421875 31.390625 
Q 30.421875 20.453125 26.78125 9.375 
Q 23.140625 -1.703125 15.828125 -13.1875 
L 8.015625 -13.1875 
Q 14.5 -2 17.703125 9.0625 
Q 20.90625 20.125 20.90625 31.390625 
Q 20.90625 42.671875 17.703125 53.65625 
Q 14.5 64.65625 8.015625 75.875 
z
" id="DejaVuSans-41"/>
     </defs>
     <g transform="translate(57.667656 231.608958)rotate(-90)scale(0.1 -0.1)">
      <use xlink:href="#DejaVuSans-40"/>
      <use x="39.013672" xlink:href="#DejaVuSans-109"/>
      <use x="136.425781" xlink:href="#DejaVuSans-98"/>
      <use x="199.902344" xlink:href="#DejaVuSans-105"/>
      <use x="227.685547" xlink:href="#DejaVuSans-116"/>
      <use x="266.894531" xlink:href="#DejaVuSans-32"/>
      <use x="298.681641" xlink:href="#DejaVuSans-47"/>
      <use x="332.373047" xlink:href="#DejaVuSans-32"/>
      <use x="364.160156" xlink:href="#DejaVuSans-115"/>
      <use x="416.259766" xlink:href="#DejaVuSans-101"/>
      <use x="477.783203" xlink:href="#DejaVuSans-99"/>
      <use x="532.763672" xlink:href="#DejaVuSans-111"/>
      <use x="593.945312" xlink:href="#DejaVuSans-110"/>
      <use x="657.324219" xlink:href="#DejaVuSans-100"/>
      <use x="720.800781" xlink:href="#DejaVuSans-41"/>
     </g>
    </g>
   </g>
   <g id="line2d_16">
    <path clip-path="url(#p9e7c82354f)" d="M 112.641514 333.059539 
L 113.378023 325.413688 
L 115.587552 313.944912 
L 116.324062 313.944912 
L 117.797081 306.299061 
L 118.533591 294.830285 
L 119.270101 302.476136 
L 120.00661 302.476136 
L 120.74312 306.299061 
L 121.479629 298.65321 
L 122.216139 313.944912 
L 123.689158 321.590763 
L 125.162178 336.882465 
L 125.898687 348.351241 
L 126.635197 352.174167 
L 134.000293 352.174167 
L 142.1019 310.121987 
L 142.838409 310.121987 
L 143.574919 302.476136 
L 144.311428 291.007359 
L 145.047938 287.184434 
L 145.784448 287.184434 
L 147.993977 275.715658 
L 148.730486 245.132254 
L 149.466996 279.538583 
L 150.203506 291.007359 
L 150.940015 298.65321 
L 152.413035 321.590763 
L 153.149544 329.236614 
L 153.886054 333.059539 
L 154.622564 340.70539 
L 155.359073 344.528316 
L 156.095583 344.528316 
L 156.832092 348.351241 
L 158.305112 348.351241 
L 159.041621 352.174167 
L 163.460679 352.174167 
L 174.508324 294.830285 
L 175.981343 279.538583 
L 176.717853 279.538583 
L 178.190872 271.892732 
L 178.927382 241.309328 
L 179.663892 271.892732 
L 180.400401 279.538583 
L 181.87342 302.476136 
L 182.60993 310.121987 
L 184.082949 317.767838 
L 185.555969 340.70539 
L 187.028988 348.351241 
L 187.765498 348.351241 
L 188.502007 352.174167 
L 193.657575 352.174167 
L 194.394084 348.351241 
L 195.130594 348.351241 
L 198.813142 329.236614 
L 199.549652 321.590763 
L 200.286162 321.590763 
L 201.022671 313.944912 
L 201.759181 313.944912 
L 202.495691 310.121987 
L 203.2322 310.121987 
L 203.96871 298.65321 
L 205.441729 298.65321 
L 207.651258 287.184434 
L 208.387768 287.184434 
L 209.124277 268.069807 
L 209.860787 283.361508 
L 210.597297 283.361508 
L 211.333806 287.184434 
L 212.070316 294.830285 
L 212.806826 298.65321 
L 214.279845 321.590763 
L 215.016355 329.236614 
L 215.752864 340.70539 
L 217.225883 348.351241 
L 217.962393 348.351241 
L 218.698903 352.174167 
L 220.171922 352.174167 
L 220.908432 348.351241 
L 221.644941 348.351241 
L 222.381451 352.174167 
L 223.85447 352.174167 
L 224.59098 348.351241 
L 225.32749 348.351241 
L 227.537019 336.882465 
L 228.273528 329.236614 
L 229.010038 325.413688 
L 229.746547 325.413688 
L 230.483057 317.767838 
L 231.956076 310.121987 
L 232.692586 298.65321 
L 234.902115 252.778105 
L 235.638625 248.955179 
L 236.375134 248.955179 
L 237.111644 245.132254 
L 237.848154 237.486403 
L 238.584663 233.663477 
L 239.321173 210.725925 
L 240.057683 222.194701 
L 240.794192 245.132254 
L 241.530702 256.60103 
L 242.267211 271.892732 
L 243.003721 279.538583 
L 243.740231 306.299061 
L 245.21325 321.590763 
L 246.686269 344.528316 
L 247.422779 348.351241 
L 248.159289 348.351241 
L 248.895798 352.174167 
L 252.578346 352.174167 
L 253.314856 348.351241 
L 254.051366 348.351241 
L 254.787875 344.528316 
L 255.524385 344.528316 
L 264.362501 298.65321 
L 265.09901 291.007359 
L 265.83552 279.538583 
L 266.57203 271.892732 
L 267.308539 275.715658 
L 268.045049 268.069807 
L 268.781559 264.246881 
L 269.518068 248.955179 
L 270.254578 245.132254 
L 270.991088 268.069807 
L 271.727597 275.715658 
L 272.464107 287.184434 
L 273.937126 302.476136 
L 274.673636 313.944912 
L 276.146655 329.236614 
L 276.883165 333.059539 
L 277.619674 340.70539 
L 279.092694 348.351241 
L 281.302223 348.351241 
L 282.038732 344.528316 
L 282.775242 348.351241 
L 284.248261 348.351241 
L 284.984771 340.70539 
L 295.295906 287.184434 
L 296.768925 264.246881 
L 297.505435 248.955179 
L 298.241945 226.017627 
L 298.978454 199.257148 
L 299.714964 203.080074 
L 300.451474 168.673745 
L 301.187983 218.371776 
L 303.397512 264.246881 
L 304.870531 302.476136 
L 306.343551 333.059539 
L 307.08006 340.70539 
L 307.81657 344.528316 
L 309.289589 344.528316 
L 310.762609 352.174167 
L 312.972137 352.174167 
L 313.708647 348.351241 
L 314.445157 348.351241 
L 315.918176 340.70539 
L 316.654686 340.70539 
L 317.391195 336.882465 
L 318.127705 329.236614 
L 324.019782 298.65321 
L 324.756292 298.65321 
L 325.492801 291.007359 
L 326.229311 291.007359 
L 327.70233 275.715658 
L 328.43884 275.715658 
L 329.911859 268.069807 
L 330.648369 237.486403 
L 331.384879 271.892732 
L 332.121388 279.538583 
L 332.857898 294.830285 
L 333.594408 298.65321 
L 334.330917 310.121987 
L 335.067427 317.767838 
L 336.540446 325.413688 
L 337.276956 336.882465 
L 338.013465 336.882465 
L 338.749975 344.528316 
L 339.486485 348.351241 
L 340.959504 348.351241 
L 341.696014 352.174167 
L 342.432523 352.174167 
L 343.169033 348.351241 
L 345.378562 348.351241 
L 346.115072 340.70539 
L 346.851581 340.70539 
L 347.588091 333.059539 
L 355.689697 291.007359 
L 357.162716 268.069807 
L 357.899226 260.423956 
L 358.635736 271.892732 
L 360.108755 279.538583 
L 360.845265 256.60103 
L 361.581774 279.538583 
L 362.318284 298.65321 
L 364.527813 310.121987 
L 365.264322 302.476136 
L 366.000832 310.121987 
L 366.737342 313.944912 
L 367.473851 321.590763 
L 368.210361 321.590763 
L 368.946871 325.413688 
L 369.68338 333.059539 
L 371.892909 344.528316 
L 372.629419 344.528316 
L 373.365928 340.70539 
L 374.838948 348.351241 
L 375.575457 348.351241 
L 376.311967 344.528316 
L 377.048477 344.528316 
L 377.784986 340.70539 
L 378.521496 333.059539 
L 379.258006 329.236614 
L 379.994515 329.236614 
L 380.731025 321.590763 
L 383.677064 306.299061 
L 384.413573 306.299061 
L 385.150083 298.65321 
L 385.886592 294.830285 
L 386.623102 283.361508 
L 388.096121 268.069807 
L 388.832631 271.892732 
L 389.569141 268.069807 
L 390.30565 260.423956 
L 391.04216 229.840552 
L 391.77867 260.423956 
L 392.515179 256.60103 
L 393.251689 268.069807 
L 393.988199 275.715658 
L 394.724708 287.184434 
L 395.461218 294.830285 
L 396.934237 317.767838 
L 397.670747 325.413688 
L 398.407256 329.236614 
L 399.143766 336.882465 
L 399.880276 340.70539 
L 400.616785 348.351241 
L 401.353295 344.528316 
L 402.826314 352.174167 
L 403.562824 348.351241 
L 404.299334 352.174167 
L 405.772353 352.174167 
L 414.610469 306.299061 
L 415.346978 298.65321 
L 416.083488 298.65321 
L 416.819998 294.830285 
L 417.556507 287.184434 
L 418.293017 275.715658 
L 419.029527 275.715658 
L 420.502546 268.069807 
L 421.239056 248.955179 
L 421.975565 260.423956 
L 422.712075 256.60103 
L 423.448584 264.246881 
L 424.185094 291.007359 
L 424.921604 306.299061 
L 426.394623 321.590763 
L 427.131133 333.059539 
L 427.867642 336.882465 
L 428.604152 333.059539 
L 430.813681 333.059539 
L 431.550191 329.236614 
L 433.02321 336.882465 
L 433.759719 336.882465 
L 434.496229 340.70539 
L 435.232739 336.882465 
L 435.969248 340.70539 
L 436.705758 321.590763 
L 437.442268 329.236614 
L 446.280383 283.361508 
L 447.016893 283.361508 
L 447.753403 279.538583 
L 448.489912 279.538583 
L 449.226422 271.892732 
L 450.699441 271.892732 
L 451.435951 256.60103 
L 452.172461 252.778105 
L 452.90897 275.715658 
L 455.118499 298.65321 
L 455.855009 310.121987 
L 457.328028 325.413688 
L 458.064538 336.882465 
L 458.801047 344.528316 
L 460.274067 352.174167 
L 466.166144 352.174167 
L 466.902654 348.351241 
L 467.639163 348.351241 
L 475.00426 310.121987 
L 475.740769 310.121987 
L 476.477279 306.299061 
L 477.213789 298.65321 
L 477.950298 302.476136 
L 478.686808 294.830285 
L 480.159827 287.184434 
L 480.896337 287.184434 
L 482.369356 271.892732 
L 483.105866 291.007359 
L 483.842375 294.830285 
L 484.578885 302.476136 
L 485.315395 306.299061 
L 486.051904 317.767838 
L 488.261433 340.70539 
L 490.470962 352.174167 
L 497.836059 352.174167 
L 500.045588 340.70539 
L 500.782097 333.059539 
L 501.518607 321.590763 
L 502.991626 283.361508 
L 503.728136 252.778105 
L 504.464646 233.663477 
L 505.201155 233.663477 
L 505.937665 222.194701 
L 506.674174 218.371776 
L 507.410684 210.725925 
L 508.883703 203.080074 
L 509.620213 203.080074 
L 509.620213 203.080074 
" style="fill:none;stroke:#1f77b4;stroke-linecap:square;stroke-width:1.5;"/>
   </g>
   <g id="line2d_17">
    <path clip-path="url(#p9e7c82354f)" d="M 109.685164 333.059539 
L 110.421674 313.944912 
L 111.894693 268.069807 
L 112.631203 252.778105 
L 113.367712 256.60103 
L 114.104222 245.132254 
L 115.577241 229.840552 
L 117.05026 222.194701 
L 117.78677 222.194701 
L 118.52328 199.257148 
L 119.259789 229.840552 
L 119.996299 237.486403 
L 120.732809 252.778105 
L 121.469318 237.486403 
L 122.205828 271.892732 
L 122.942338 291.007359 
L 123.678847 302.476136 
L 125.151867 333.059539 
L 125.888376 344.528316 
L 126.624886 352.174167 
L 133.253473 352.174167 
L 133.989982 348.351241 
L 134.726492 348.351241 
L 135.463002 340.70539 
L 136.199511 336.882465 
L 136.936021 336.882465 
L 137.672531 329.236614 
L 139.14555 321.590763 
L 139.882059 321.590763 
L 140.618569 313.944912 
L 141.355079 313.944912 
L 142.091588 310.121987 
L 142.828098 302.476136 
L 143.564608 287.184434 
L 144.301117 275.715658 
L 145.037627 268.069807 
L 145.774137 271.892732 
L 146.510646 268.069807 
L 147.247156 260.423956 
L 147.983666 256.60103 
L 148.720175 222.194701 
L 149.456685 264.246881 
L 150.929704 287.184434 
L 151.666214 302.476136 
L 152.402723 313.944912 
L 153.139233 321.590763 
L 153.875743 321.590763 
L 154.612252 329.236614 
L 155.348762 340.70539 
L 156.085272 348.351241 
L 158.294801 348.351241 
L 159.03131 344.528316 
L 159.76782 344.528316 
L 160.50433 348.351241 
L 161.240839 348.351241 
L 161.977349 352.174167 
L 163.450368 352.174167 
L 164.186878 348.351241 
L 164.923387 348.351241 
L 165.659897 340.70539 
L 173.024994 302.476136 
L 173.761503 294.830285 
L 175.234522 271.892732 
L 175.971032 264.246881 
L 176.707542 268.069807 
L 178.180561 260.423956 
L 178.917071 222.194701 
L 179.65358 260.423956 
L 180.39009 271.892732 
L 181.1266 279.538583 
L 184.072638 325.413688 
L 187.018677 340.70539 
L 187.755186 348.351241 
L 188.491696 352.174167 
L 192.174244 352.174167 
L 193.647264 344.528316 
L 194.383773 333.059539 
L 195.120283 336.882465 
L 198.066322 321.590763 
L 198.802831 313.944912 
L 199.539341 310.121987 
L 200.27585 310.121987 
L 201.74887 294.830285 
L 202.485379 283.361508 
L 203.221889 268.069807 
L 203.958399 248.955179 
L 204.694908 245.132254 
L 205.431418 248.955179 
L 206.167928 241.309328 
L 206.904437 237.486403 
L 207.640947 229.840552 
L 208.377457 226.017627 
L 209.113966 187.788372 
L 209.850476 226.017627 
L 210.586986 248.955179 
L 211.323495 268.069807 
L 212.060005 275.715658 
L 213.533024 298.65321 
L 214.269534 313.944912 
L 215.742553 329.236614 
L 216.479063 340.70539 
L 217.952082 348.351241 
L 219.425101 348.351241 
L 220.161611 352.174167 
L 223.844159 352.174167 
L 224.580669 348.351241 
L 225.317178 348.351241 
L 226.053688 344.528316 
L 226.790198 336.882465 
L 232.682275 306.299061 
L 233.418785 306.299061 
L 234.155294 302.476136 
L 234.891804 294.830285 
L 235.628313 291.007359 
L 236.364823 291.007359 
L 237.101333 283.361508 
L 237.837842 283.361508 
L 238.574352 279.538583 
L 239.310862 264.246881 
L 240.047371 271.892732 
L 240.783881 287.184434 
L 241.520391 291.007359 
L 242.99341 306.299061 
L 243.72992 310.121987 
L 244.466429 321.590763 
L 245.202939 340.70539 
L 247.412468 352.174167 
L 254.041055 352.174167 
L 254.777564 348.351241 
L 255.514074 348.351241 
L 263.61568 306.299061 
L 265.088699 291.007359 
L 265.825209 279.538583 
L 266.561719 275.715658 
L 267.298228 275.715658 
L 268.034738 271.892732 
L 268.771248 264.246881 
L 270.244267 241.309328 
L 270.980777 268.069807 
L 271.717286 275.715658 
L 272.453796 287.184434 
L 273.190305 294.830285 
L 273.926815 306.299061 
L 276.872854 336.882465 
L 278.345873 336.882465 
L 279.082383 344.528316 
L 279.818892 344.528316 
L 280.555402 348.351241 
L 282.028421 348.351241 
L 282.764931 352.174167 
L 283.501441 352.174167 
L 284.23795 348.351241 
L 284.97446 348.351241 
L 285.710969 340.70539 
L 286.447479 340.70539 
L 289.393518 325.413688 
L 290.130027 317.767838 
L 290.866537 317.767838 
L 291.603047 313.944912 
L 292.339556 306.299061 
L 293.812576 298.65321 
L 294.549085 298.65321 
L 295.285595 294.830285 
L 296.758614 279.538583 
L 297.495124 279.538583 
L 298.231633 283.361508 
L 298.968143 306.299061 
L 299.704653 306.299061 
L 300.441162 294.830285 
L 301.177672 313.944912 
L 301.914182 313.944912 
L 303.387201 321.590763 
L 304.123711 329.236614 
L 304.86022 333.059539 
L 305.59673 340.70539 
L 306.33324 340.70539 
L 307.806259 348.351241 
L 311.488807 348.351241 
L 312.225317 352.174167 
L 313.698336 352.174167 
L 314.434846 348.351241 
L 315.171355 348.351241 
L 326.219 291.007359 
L 327.692019 268.069807 
L 328.428529 271.892732 
L 329.901548 264.246881 
L 330.638058 229.840552 
L 331.374568 268.069807 
L 332.111077 275.715658 
L 332.847587 287.184434 
L 333.584096 294.830285 
L 334.320606 306.299061 
L 335.057116 313.944912 
L 335.793625 325.413688 
L 336.530135 329.236614 
L 337.266645 340.70539 
L 339.476174 352.174167 
L 340.212683 352.174167 
L 340.949193 348.351241 
L 343.895232 348.351241 
L 344.631741 352.174167 
L 345.368251 348.351241 
L 346.10476 348.351241 
L 356.415895 294.830285 
L 357.152405 287.184434 
L 357.888915 275.715658 
L 358.625424 252.778105 
L 360.098444 252.778105 
L 360.834953 210.725925 
L 361.571463 245.132254 
L 362.307973 241.309328 
L 363.044482 245.132254 
L 363.780992 256.60103 
L 365.254011 287.184434 
L 365.990521 291.007359 
L 366.727031 298.65321 
L 368.20005 321.590763 
L 371.882598 340.70539 
L 373.355617 340.70539 
L 374.828637 348.351241 
L 375.565146 344.528316 
L 376.301656 329.236614 
L 377.038166 333.059539 
L 386.612791 283.361508 
L 387.349301 275.715658 
L 388.08581 271.892732 
L 388.82232 271.892732 
L 390.295339 264.246881 
L 391.031849 233.663477 
L 391.768359 260.423956 
L 392.504868 279.538583 
L 393.241378 291.007359 
L 395.450907 313.944912 
L 396.187416 317.767838 
L 398.396945 340.70539 
L 400.606474 340.70539 
L 401.342984 348.351241 
L 402.816003 348.351241 
L 403.552513 352.174167 
L 405.762042 352.174167 
L 406.498551 348.351241 
L 407.235061 348.351241 
L 407.971571 344.528316 
L 408.70808 336.882465 
L 415.336667 302.476136 
L 416.073177 294.830285 
L 418.282706 260.423956 
L 419.019215 256.60103 
L 419.755725 256.60103 
L 420.492235 252.778105 
L 421.228744 229.840552 
L 421.965254 241.309328 
L 422.701764 283.361508 
L 423.438273 298.65321 
L 424.174783 298.65321 
L 424.911293 310.121987 
L 427.857331 340.70539 
L 428.593841 340.70539 
L 429.33035 344.528316 
L 431.539879 344.528316 
L 432.276389 348.351241 
L 435.958937 348.351241 
L 447.006582 291.007359 
L 449.216111 256.60103 
L 449.952621 260.423956 
L 450.68913 256.60103 
L 451.42564 241.309328 
L 452.16215 233.663477 
L 452.898659 264.246881 
L 453.635169 271.892732 
L 454.371678 283.361508 
L 455.108188 291.007359 
L 457.317717 325.413688 
L 458.054227 325.413688 
L 458.790736 336.882465 
L 459.527246 344.528316 
L 460.263756 348.351241 
L 461.000265 348.351241 
L 461.736775 352.174167 
L 466.155833 352.174167 
L 466.892342 348.351241 
L 467.628852 348.351241 
L 468.365362 344.528316 
L 469.101871 336.882465 
L 469.838381 336.882465 
L 470.574891 329.236614 
L 473.520929 313.944912 
L 474.993949 291.007359 
L 477.203477 245.132254 
L 477.939987 248.955179 
L 478.676497 248.955179 
L 480.149516 233.663477 
L 480.886026 229.840552 
L 481.622535 218.371776 
L 482.359045 199.257148 
L 483.095555 237.486403 
L 483.832064 248.955179 
L 484.568574 268.069807 
L 485.305084 279.538583 
L 486.041593 294.830285 
L 487.514613 317.767838 
L 488.251122 321.590763 
L 489.724141 344.528316 
L 490.460651 348.351241 
L 491.197161 348.351241 
L 491.93367 352.174167 
L 492.67018 352.174167 
L 493.40669 348.351241 
L 494.143199 352.174167 
L 497.089238 352.174167 
L 501.508296 329.236614 
L 502.244805 329.236614 
L 502.981315 325.413688 
L 505.190844 325.413688 
L 506.663863 317.767838 
L 506.663863 317.767838 
" style="fill:none;stroke:#ff7f0e;stroke-linecap:square;stroke-width:1.5;"/>
   </g>
   <g id="line2d_18">
    <path clip-path="url(#p9e7c82354f)" d="M 106.830453 279.538583 
L 107.566962 275.715658 
L 108.303472 264.246881 
L 109.039982 260.423956 
L 111.24951 271.892732 
L 112.72253 287.184434 
L 113.459039 287.184434 
L 114.195549 291.007359 
L 114.932059 291.007359 
L 116.405078 298.65321 
L 117.878097 298.65321 
L 118.614607 294.830285 
L 120.087626 302.476136 
L 120.824136 298.65321 
L 121.560646 329.236614 
L 122.297155 294.830285 
L 124.506684 260.423956 
L 125.243194 245.132254 
L 125.979703 226.017627 
L 126.716213 218.371776 
L 127.452723 218.371776 
L 128.189232 222.194701 
L 128.925742 222.194701 
L 129.662252 226.017627 
L 130.398761 218.371776 
L 131.135271 222.194701 
L 132.60829 222.194701 
L 133.3448 206.902999 
L 134.081309 176.319596 
L 134.817819 180.142521 
L 135.554329 180.142521 
L 136.290838 183.965447 
L 137.027348 183.965447 
L 138.500367 191.611297 
L 139.236877 191.611297 
L 139.973387 199.257148 
L 140.709896 199.257148 
L 142.182916 206.902999 
L 142.919425 214.54885 
L 143.655935 226.017627 
L 144.392445 241.309328 
L 145.128954 248.955179 
L 145.865464 248.955179 
L 146.601973 252.778105 
L 147.338483 260.423956 
L 148.074993 271.892732 
L 148.811502 310.121987 
L 149.548012 260.423956 
L 150.284522 248.955179 
L 151.021031 241.309328 
L 151.757541 229.840552 
L 153.23056 214.54885 
L 153.96707 214.54885 
L 154.70358 203.080074 
L 155.440089 199.257148 
L 156.176599 191.611297 
L 156.913109 195.434223 
L 157.649618 195.434223 
L 159.122637 210.725925 
L 159.859147 206.902999 
L 160.595657 206.902999 
L 161.332166 203.080074 
L 162.068676 203.080074 
L 162.805186 214.54885 
L 163.541695 256.60103 
L 164.278205 218.371776 
L 165.014715 203.080074 
L 170.170282 229.840552 
L 170.906792 237.486403 
L 173.116321 248.955179 
L 174.58934 264.246881 
L 175.32585 275.715658 
L 176.062359 279.538583 
L 176.798869 279.538583 
L 178.271888 287.184434 
L 179.008398 325.413688 
L 179.744908 287.184434 
L 180.481417 275.715658 
L 181.217927 268.069807 
L 182.690946 245.132254 
L 184.163965 229.840552 
L 184.900475 229.840552 
L 186.373494 222.194701 
L 187.110004 222.194701 
L 187.846514 214.54885 
L 188.583023 210.725925 
L 189.319533 214.54885 
L 190.056043 214.54885 
L 190.792552 218.371776 
L 192.265572 218.371776 
L 193.002081 214.54885 
L 194.4751 260.423956 
L 195.21161 218.371776 
L 196.684629 226.017627 
L 197.421139 233.663477 
L 200.367178 248.955179 
L 201.103687 248.955179 
L 203.313216 271.892732 
L 204.049726 283.361508 
L 205.522745 283.361508 
L 208.468784 298.65321 
L 209.205293 329.236614 
L 209.941803 298.65321 
L 210.678313 283.361508 
L 211.414822 271.892732 
L 213.624351 248.955179 
L 215.097371 218.371776 
L 216.57039 195.434223 
L 217.3069 187.788372 
L 218.043409 187.788372 
L 218.779919 191.611297 
L 219.516428 191.611297 
L 220.252938 195.434223 
L 220.989448 195.434223 
L 221.725957 203.080074 
L 222.462467 199.257148 
L 223.198977 191.611297 
L 223.935486 191.611297 
L 224.671996 275.715658 
L 225.408506 195.434223 
L 228.354544 210.725925 
L 229.091054 218.371776 
L 229.827564 218.371776 
L 230.564073 226.017627 
L 232.037092 233.663477 
L 232.773602 241.309328 
L 233.510112 252.778105 
L 234.246621 260.423956 
L 234.983131 275.715658 
L 235.719641 283.361508 
L 236.45615 283.361508 
L 237.92917 291.007359 
L 238.665679 298.65321 
L 239.402189 317.767838 
L 240.138699 306.299061 
L 240.875208 287.184434 
L 241.611718 279.538583 
L 242.348228 264.246881 
L 243.821247 241.309328 
L 246.767285 210.725925 
L 247.503795 214.54885 
L 248.240305 210.725925 
L 248.976814 214.54885 
L 249.713324 210.725925 
L 250.449834 214.54885 
L 251.186343 210.725925 
L 251.922853 214.54885 
L 253.395872 214.54885 
L 254.132382 210.725925 
L 254.868891 279.538583 
L 255.605401 214.54885 
L 258.55144 229.840552 
L 259.287949 237.486403 
L 260.024459 237.486403 
L 261.497478 245.132254 
L 262.233988 245.132254 
L 262.970498 252.778105 
L 263.707007 252.778105 
L 264.443517 256.60103 
L 265.180027 264.246881 
L 265.916536 275.715658 
L 266.653046 279.538583 
L 267.389555 275.715658 
L 268.126065 283.361508 
L 268.862575 287.184434 
L 269.599084 306.299061 
L 270.335594 306.299061 
L 271.072104 279.538583 
L 271.808613 271.892732 
L 272.545123 260.423956 
L 273.281633 256.60103 
L 274.018142 245.132254 
L 274.754652 237.486403 
L 275.491162 233.663477 
L 276.227671 233.663477 
L 276.964181 226.017627 
L 277.700691 222.194701 
L 278.4372 222.194701 
L 279.17371 226.017627 
L 279.910219 222.194701 
L 280.646729 226.017627 
L 281.383239 226.017627 
L 282.119748 222.194701 
L 282.856258 214.54885 
L 283.592768 214.54885 
L 284.329277 218.371776 
L 285.065787 279.538583 
L 285.802297 222.194701 
L 286.538806 222.194701 
L 287.275316 229.840552 
L 288.011826 233.663477 
L 288.748335 241.309328 
L 292.430883 260.423956 
L 293.167393 268.069807 
L 293.903903 268.069807 
L 295.376922 275.715658 
L 296.113432 283.361508 
L 296.849941 294.830285 
L 297.586451 298.65321 
L 298.322961 310.121987 
L 299.05947 310.121987 
L 299.79598 313.944912 
L 300.53249 325.413688 
L 301.268999 302.476136 
L 302.005509 298.65321 
L 302.742019 287.184434 
L 303.478528 279.538583 
L 304.215038 268.069807 
L 304.951547 264.246881 
L 305.688057 256.60103 
L 306.424567 237.486403 
L 307.161076 233.663477 
L 307.897586 226.017627 
L 308.634096 222.194701 
L 309.370605 214.54885 
L 310.107115 210.725925 
L 310.843625 199.257148 
L 311.580134 183.965447 
L 312.316644 187.788372 
L 313.053154 183.965447 
L 314.526173 191.611297 
L 315.262682 268.069807 
L 315.999192 203.080074 
L 317.472211 210.725925 
L 318.208721 218.371776 
L 318.945231 218.371776 
L 319.68174 226.017627 
L 323.364289 245.132254 
L 324.100798 252.778105 
L 324.837308 252.778105 
L 325.573818 256.60103 
L 327.046837 271.892732 
L 327.783346 283.361508 
L 328.519856 279.538583 
L 329.992875 287.184434 
L 330.729385 325.413688 
L 331.465895 287.184434 
L 332.202404 279.538583 
L 332.938914 268.069807 
L 333.675424 260.423956 
L 335.148443 237.486403 
L 335.884953 229.840552 
L 336.621462 226.017627 
L 337.357972 218.371776 
L 338.094482 214.54885 
L 338.830991 199.257148 
L 339.567501 191.611297 
L 340.30401 187.788372 
L 341.77703 187.788372 
L 342.513539 195.434223 
L 343.250049 199.257148 
L 343.986559 195.434223 
L 344.723068 195.434223 
L 345.459578 245.132254 
L 346.932597 195.434223 
L 349.142126 206.902999 
L 349.878636 214.54885 
L 352.088165 226.017627 
L 352.824674 233.663477 
L 355.034203 245.132254 
L 356.507223 260.423956 
L 357.243732 271.892732 
L 357.980242 287.184434 
L 359.453261 287.184434 
L 360.189771 283.361508 
L 360.926281 321.590763 
L 361.66279 283.361508 
L 363.872319 271.892732 
L 364.608829 260.423956 
L 366.081848 252.778105 
L 367.554867 237.486403 
L 369.027887 237.486403 
L 371.973925 222.194701 
L 374.183454 222.194701 
L 374.919964 214.54885 
L 376.392983 264.246881 
L 377.129493 226.017627 
L 378.602512 233.663477 
L 379.339022 233.663477 
L 385.967609 268.069807 
L 387.440628 283.361508 
L 388.177137 287.184434 
L 388.913647 287.184434 
L 390.386666 294.830285 
L 391.123176 325.413688 
L 391.859686 302.476136 
L 393.332705 279.538583 
L 394.069215 275.715658 
L 394.805724 264.246881 
L 396.278744 248.955179 
L 397.751763 226.017627 
L 398.488273 218.371776 
L 399.961292 210.725925 
L 400.697801 214.54885 
L 401.434311 214.54885 
L 403.64384 203.080074 
L 405.116859 210.725925 
L 405.853369 210.725925 
L 406.589879 279.538583 
L 407.326388 214.54885 
L 412.481956 241.309328 
L 413.218465 248.955179 
L 413.954975 248.955179 
L 416.164504 260.423956 
L 416.901014 268.069807 
L 418.374033 291.007359 
L 419.847052 291.007359 
L 420.583562 298.65321 
L 421.320072 321.590763 
L 422.056581 306.299061 
L 422.793091 287.184434 
L 423.529601 271.892732 
L 424.26611 260.423956 
L 425.00262 241.309328 
L 425.739129 233.663477 
L 426.475639 222.194701 
L 427.948658 206.902999 
L 428.685168 210.725925 
L 430.158187 210.725925 
L 430.894697 214.54885 
L 431.631207 214.54885 
L 432.367716 210.725925 
L 436.050264 210.725925 
L 436.786774 279.538583 
L 437.523284 218.371776 
L 438.259793 222.194701 
L 438.996303 229.840552 
L 447.097909 271.892732 
L 449.307438 294.830285 
L 450.043948 287.184434 
L 450.780457 291.007359 
L 451.516967 306.299061 
L 452.253477 313.944912 
L 452.989986 287.184434 
L 453.726496 279.538583 
L 454.463006 264.246881 
L 455.936025 248.955179 
L 456.672535 233.663477 
L 458.145554 210.725925 
L 458.882064 191.611297 
L 459.618573 180.142521 
L 461.828102 168.673745 
L 462.564612 168.673745 
L 463.301121 172.49667 
L 464.774141 172.49667 
L 465.51065 168.673745 
L 466.24716 168.673745 
L 466.98367 256.60103 
L 467.720179 206.902999 
L 468.456689 206.902999 
L 469.193199 214.54885 
L 469.929708 214.54885 
L 471.402728 222.194701 
L 472.139237 229.840552 
L 474.348766 241.309328 
L 475.085276 252.778105 
L 475.821785 260.423956 
L 477.294805 283.361508 
L 478.031314 279.538583 
L 478.767824 287.184434 
L 480.977353 298.65321 
L 481.713863 306.299061 
L 482.450372 321.590763 
L 483.186882 294.830285 
L 483.923392 279.538583 
L 484.659901 268.069807 
L 485.396411 260.423956 
L 486.13292 245.132254 
L 486.86943 237.486403 
L 487.60594 226.017627 
L 488.342449 226.017627 
L 489.078959 222.194701 
L 490.551978 222.194701 
L 491.288488 218.371776 
L 492.024998 218.371776 
L 492.761507 222.194701 
L 493.498017 218.371776 
L 494.234527 218.371776 
L 494.971036 206.902999 
L 495.707546 214.54885 
L 496.444055 206.902999 
L 497.180565 275.715658 
L 497.917075 183.965447 
L 499.390094 199.257148 
L 500.126604 203.080074 
L 501.599623 218.371776 
L 503.072642 241.309328 
L 503.809152 260.423956 
L 503.809152 260.423956 
" style="fill:none;stroke:#2ca02c;stroke-linecap:square;stroke-width:1.5;"/>
   </g>
   <g id="line2d_19">
    <path clip-path="url(#p9e7c82354f)" d="M 103.765099 118.975714 
L 104.501609 50.163056 
L 105.974628 50.163056 
L 106.711138 115.152788 
L 107.447648 130.44449 
L 108.920667 145.736192 
L 109.657177 161.027894 
L 110.393686 180.142521 
L 111.130196 195.434223 
L 111.866706 214.54885 
L 112.603215 241.309328 
L 116.285763 279.538583 
L 117.758783 287.184434 
L 118.495292 321.590763 
L 119.231802 283.361508 
L 120.704821 260.423956 
L 121.441331 245.132254 
L 122.91435 222.194701 
L 124.38737 206.902999 
L 125.123879 195.434223 
L 125.860389 195.434223 
L 126.596898 191.611297 
L 127.333408 191.611297 
L 128.069918 187.788372 
L 128.806427 187.788372 
L 129.542937 183.965447 
L 130.279447 187.788372 
L 131.015956 183.965447 
L 132.488976 183.965447 
L 133.225485 233.663477 
L 133.961995 260.423956 
L 134.698505 237.486403 
L 136.171524 252.778105 
L 138.381053 264.246881 
L 139.117562 271.892732 
L 143.53662 294.830285 
L 144.27313 302.476136 
L 145.00964 306.299061 
L 145.746149 306.299061 
L 147.219169 313.944912 
L 147.955678 313.944912 
L 148.692188 333.059539 
L 149.428698 306.299061 
L 150.901717 291.007359 
L 151.638226 271.892732 
L 153.111246 248.955179 
L 153.847755 245.132254 
L 155.320775 229.840552 
L 156.057284 229.840552 
L 156.793794 222.194701 
L 157.530304 222.194701 
L 158.266813 214.54885 
L 159.739833 206.902999 
L 161.949361 206.902999 
L 162.685871 199.257148 
L 163.422381 229.840552 
L 164.15889 252.778105 
L 164.8954 218.371776 
L 170.050968 245.132254 
L 170.787477 245.132254 
L 173.733516 260.423956 
L 174.470025 268.069807 
L 175.206535 279.538583 
L 175.943045 287.184434 
L 176.679554 287.184434 
L 178.152574 294.830285 
L 178.889083 325.413688 
L 179.625593 294.830285 
L 180.362103 287.184434 
L 181.098612 271.892732 
L 181.835122 264.246881 
L 182.571632 252.778105 
L 183.308141 248.955179 
L 184.044651 237.486403 
L 184.781161 229.840552 
L 185.51767 210.725925 
L 186.990689 203.080074 
L 187.727199 203.080074 
L 188.463709 199.257148 
L 189.200218 199.257148 
L 190.673238 191.611297 
L 191.409747 191.611297 
L 193.619276 203.080074 
L 194.355786 271.892732 
L 195.092296 210.725925 
L 200.247863 237.486403 
L 200.984373 245.132254 
L 201.720882 248.955179 
L 203.193902 264.246881 
L 203.930411 279.538583 
L 208.349469 302.476136 
L 209.085979 325.413688 
L 209.822489 306.299061 
L 210.558998 294.830285 
L 212.032017 279.538583 
L 212.768527 268.069807 
L 213.505037 260.423956 
L 214.241546 248.955179 
L 214.978056 241.309328 
L 217.187585 229.840552 
L 217.924095 229.840552 
L 218.660604 226.017627 
L 219.397114 218.371776 
L 220.133624 218.371776 
L 221.606643 210.725925 
L 222.343152 210.725925 
L 223.816172 218.371776 
L 224.552681 283.361508 
L 225.289191 226.017627 
L 226.025701 226.017627 
L 226.76221 233.663477 
L 229.708249 248.955179 
L 230.444759 248.955179 
L 231.181268 252.778105 
L 231.917778 260.423956 
L 232.654288 264.246881 
L 234.127307 279.538583 
L 234.863816 291.007359 
L 235.600326 294.830285 
L 237.073345 294.830285 
L 238.546365 302.476136 
L 239.282874 317.767838 
L 240.019384 313.944912 
L 240.755894 294.830285 
L 242.228913 279.538583 
L 242.965423 275.715658 
L 243.701932 256.60103 
L 245.174952 226.017627 
L 245.911461 222.194701 
L 246.647971 206.902999 
L 247.38448 199.257148 
L 248.8575 199.257148 
L 249.594009 195.434223 
L 252.540048 195.434223 
L 254.013067 203.080074 
L 254.749577 271.892732 
L 255.486087 206.902999 
L 257.695616 218.371776 
L 258.432125 218.371776 
L 259.168635 226.017627 
L 259.905144 226.017627 
L 260.641654 233.663477 
L 261.378164 237.486403 
L 262.114673 245.132254 
L 264.324202 256.60103 
L 265.060712 264.246881 
L 265.797222 279.538583 
L 266.533731 287.184434 
L 268.006751 287.184434 
L 268.74326 294.830285 
L 269.47977 306.299061 
L 270.21628 321.590763 
L 270.952789 294.830285 
L 272.425808 279.538583 
L 273.162318 268.069807 
L 273.898828 260.423956 
L 274.635337 248.955179 
L 275.371847 233.663477 
L 276.108357 222.194701 
L 277.581376 214.54885 
L 279.054395 199.257148 
L 280.527415 191.611297 
L 282.000434 191.611297 
L 282.736943 199.257148 
L 283.473453 199.257148 
L 284.209963 195.434223 
L 284.946472 279.538583 
L 285.682982 222.194701 
L 286.419492 214.54885 
L 287.892511 222.194701 
L 288.629021 222.194701 
L 295.257607 256.60103 
L 295.994117 264.246881 
L 296.730627 275.715658 
L 297.467136 283.361508 
L 298.203646 294.830285 
L 298.940156 298.65321 
L 299.676665 294.830285 
L 300.413175 321.590763 
L 301.149685 283.361508 
L 301.886194 268.069807 
L 302.622704 256.60103 
L 303.359214 248.955179 
L 304.095723 237.486403 
L 304.832233 214.54885 
L 305.568743 203.080074 
L 307.041762 195.434223 
L 307.778271 195.434223 
L 309.251291 203.080074 
L 309.9878 203.080074 
L 311.46082 226.017627 
L 312.197329 222.194701 
L 312.933839 226.017627 
L 314.406858 226.017627 
L 315.143368 260.423956 
L 315.879878 245.132254 
L 316.616387 226.017627 
L 319.562426 241.309328 
L 320.298935 241.309328 
L 321.035445 248.955179 
L 321.771955 248.955179 
L 326.927522 275.715658 
L 327.664032 287.184434 
L 329.137051 287.184434 
L 329.873561 291.007359 
L 330.610071 325.413688 
L 331.34658 291.007359 
L 332.08309 275.715658 
L 332.819599 264.246881 
L 333.556109 260.423956 
L 334.292619 248.955179 
L 335.029128 245.132254 
L 335.765638 237.486403 
L 336.502148 233.663477 
L 337.238657 218.371776 
L 337.975167 218.371776 
L 338.711677 222.194701 
L 340.184696 222.194701 
L 340.921206 229.840552 
L 343.130734 218.371776 
L 343.867244 222.194701 
L 344.603754 222.194701 
L 345.340263 241.309328 
L 346.076773 264.246881 
L 346.813283 237.486403 
L 347.549792 237.486403 
L 348.286302 245.132254 
L 349.022812 245.132254 
L 351.232341 256.60103 
L 351.96885 256.60103 
L 354.178379 268.069807 
L 354.914889 268.069807 
L 356.387908 275.715658 
L 357.124418 287.184434 
L 357.860927 291.007359 
L 358.597437 298.65321 
L 360.070456 298.65321 
L 360.806966 325.413688 
L 361.543476 302.476136 
L 364.489514 271.892732 
L 365.226024 268.069807 
L 365.962534 260.423956 
L 366.699043 256.60103 
L 368.172062 233.663477 
L 368.908572 226.017627 
L 369.645082 214.54885 
L 370.381591 214.54885 
L 371.118101 206.902999 
L 373.32763 206.902999 
L 374.06414 203.080074 
L 374.800649 203.080074 
L 375.537159 210.725925 
L 376.273669 268.069807 
L 377.010178 210.725925 
L 377.746688 214.54885 
L 378.483198 222.194701 
L 379.219707 222.194701 
L 379.956217 229.840552 
L 385.111784 256.60103 
L 385.848294 264.246881 
L 386.584804 268.069807 
L 387.321313 279.538583 
L 388.057823 287.184434 
L 388.794333 283.361508 
L 390.267352 291.007359 
L 391.003862 321.590763 
L 391.740371 298.65321 
L 393.9499 264.246881 
L 394.68641 256.60103 
L 395.422919 245.132254 
L 396.159429 241.309328 
L 396.895939 229.840552 
L 397.632448 229.840552 
L 398.368958 226.017627 
L 399.105468 226.017627 
L 399.841977 222.194701 
L 400.578487 214.54885 
L 401.314997 203.080074 
L 402.051506 206.902999 
L 404.261035 206.902999 
L 404.997545 199.257148 
L 405.734054 199.257148 
L 406.470564 271.892732 
L 407.207074 206.902999 
L 407.943583 206.902999 
L 408.680093 214.54885 
L 409.416603 218.371776 
L 410.153112 226.017627 
L 410.889622 226.017627 
L 411.626132 233.663477 
L 416.045189 256.60103 
L 416.781699 264.246881 
L 418.254718 287.184434 
L 418.991228 291.007359 
L 419.727738 291.007359 
L 420.464247 294.830285 
L 421.200757 313.944912 
L 421.937267 310.121987 
L 422.673776 287.184434 
L 423.410286 279.538583 
L 424.146796 264.246881 
L 427.829344 226.017627 
L 430.038873 226.017627 
L 430.775382 222.194701 
L 431.511892 226.017627 
L 432.984911 218.371776 
L 433.721421 218.371776 
L 434.457931 214.54885 
L 435.93095 214.54885 
L 436.66746 279.538583 
L 437.403969 226.017627 
L 438.140479 226.017627 
L 438.876989 229.840552 
L 439.613498 229.840552 
L 440.350008 237.486403 
L 441.823027 245.132254 
L 442.559537 245.132254 
L 443.296046 252.778105 
L 444.032556 252.778105 
L 447.715104 271.892732 
L 448.451614 283.361508 
L 449.188124 291.007359 
L 449.924633 291.007359 
L 450.661143 294.830285 
L 452.134162 317.767838 
L 452.870672 283.361508 
L 453.607181 279.538583 
L 457.28973 241.309328 
L 458.762749 241.309328 
L 459.499259 237.486403 
L 460.972278 237.486403 
L 461.708788 245.132254 
L 462.445297 237.486403 
L 463.181807 233.663477 
L 464.654826 241.309328 
L 465.391336 237.486403 
L 466.127845 245.132254 
L 466.864355 283.361508 
L 467.600865 214.54885 
L 473.492942 245.132254 
L 476.43898 275.715658 
L 477.17549 287.184434 
L 477.912 283.361508 
L 478.648509 283.361508 
L 479.385019 291.007359 
L 481.594548 302.476136 
L 482.331058 321.590763 
L 483.067567 291.007359 
L 483.804077 287.184434 
L 486.013606 252.778105 
L 488.223135 229.840552 
L 488.959644 214.54885 
L 489.696154 203.080074 
L 490.432664 195.434223 
L 491.169173 191.611297 
L 491.905683 191.611297 
L 492.642193 187.788372 
L 493.378702 191.611297 
L 494.115212 191.611297 
L 494.851722 199.257148 
L 495.588231 195.434223 
L 496.324741 195.434223 
L 497.061251 271.892732 
L 497.79776 268.069807 
L 498.53427 226.017627 
L 499.27078 226.017627 
L 500.007289 229.840552 
L 500.743799 237.486403 
L 500.743799 237.486403 
" style="fill:none;stroke:#d62728;stroke-linecap:square;stroke-width:1.5;"/>
   </g>
   <g id="patch_3">
    <path d="M 83.472344 352.174167 
L 83.472344 35.0625 
" style="fill:none;stroke:#000000;stroke-linecap:square;stroke-linejoin:miter;stroke-width:0.8;"/>
   </g>
   <g id="patch_4">
    <path d="M 529.912969 352.174167 
L 529.912969 35.0625 
" style="fill:none;stroke:#000000;stroke-linecap:square;stroke-linejoin:miter;stroke-width:0.8;"/>
   </g>
   <g id="patch_5">
    <path d="M 83.472344 352.174167 
L 529.912969 352.174167 
" style="fill:none;stroke:#000000;stroke-linecap:square;stroke-linejoin:miter;stroke-width:0.8;"/>
   </g>
   <g id="patch_6">
    <path d="M 83.472344 35.0625 
L 529.912969 35.0625 
" style="fill:none;stroke:#000000;stroke-linecap:square;stroke-linejoin:miter;stroke-width:0.8;"/>
   </g>
   <g id="legend_1">
    <g id="patch_7">
     <path d="M 554.235 96.775 
L 625.430312 96.775 
Q 627.430312 96.775 627.430312 94.775 
L 627.430312 37.0625 
Q 627.430312 35.0625 625.430312 35.0625 
L 554.235 35.0625 
Q 552.235 35.0625 552.235 37.0625 
L 552.235 94.775 
Q 552.235 96.775 554.235 96.775 
z
" style="fill:#ffffff;opacity:0.8;stroke:#cccccc;stroke-linejoin:miter;"/>
    </g>
    <g id="line2d_20">
     <path d="M 556.235 43.160937 
L 576.235 43.160937 
" style="fill:none;stroke:#1f77b4;stroke-linecap:square;stroke-width:1.5;"/>
    </g>
    <g id="line2d_21"/>
    <g id="text_17">
     <!-- cubic-pi -->
     <defs>
      <path d="M 4.890625 31.390625 
L 31.203125 31.390625 
L 31.203125 23.390625 
L 4.890625 23.390625 
z
" id="DejaVuSans-45"/>
     </defs>
     <g transform="translate(584.235 46.660937)scale(0.1 -0.1)">
      <use xlink:href="#DejaVuSans-99"/>
      <use x="54.980469" xlink:href="#DejaVuSans-117"/>
      <use x="118.359375" xlink:href="#DejaVuSans-98"/>
      <use x="181.835938" xlink:href="#DejaVuSans-105"/>
      <use x="209.619141" xlink:href="#DejaVuSans-99"/>
      <use x="264.599609" xlink:href="#DejaVuSans-45"/>
      <use x="300.683594" xlink:href="#DejaVuSans-112"/>
      <use x="364.160156" xlink:href="#DejaVuSans-105"/>
     </g>
    </g>
    <g id="line2d_22">
     <path d="M 556.235 57.839063 
L 576.235 57.839063 
" style="fill:none;stroke:#ff7f0e;stroke-linecap:square;stroke-width:1.5;"/>
    </g>
    <g id="line2d_23"/>
    <g id="text_18">
     <!-- cubic-pi -->
     <g transform="translate(584.235 61.339063)scale(0.1 -0.1)">
      <use xlink:href="#DejaVuSans-99"/>
      <use x="54.980469" xlink:href="#DejaVuSans-117"/>
      <use x="118.359375" xlink:href="#DejaVuSans-98"/>
      <use x="181.835938" xlink:href="#DejaVuSans-105"/>
      <use x="209.619141" xlink:href="#DejaVuSans-99"/>
      <use x="264.599609" xlink:href="#DejaVuSans-45"/>
      <use x="300.683594" xlink:href="#DejaVuSans-112"/>
      <use x="364.160156" xlink:href="#DejaVuSans-105"/>
     </g>
    </g>
    <g id="line2d_24">
     <path d="M 556.235 72.517187 
L 576.235 72.517187 
" style="fill:none;stroke:#2ca02c;stroke-linecap:square;stroke-width:1.5;"/>
    </g>
    <g id="line2d_25"/>
    <g id="text_19">
     <!-- bbr-pi -->
     <g transform="translate(584.235 76.017187)scale(0.1 -0.1)">
      <use xlink:href="#DejaVuSans-98"/>
      <use x="63.476562" xlink:href="#DejaVuSans-98"/>
      <use x="126.953125" xlink:href="#DejaVuSans-114"/>
      <use x="167.972656" xlink:href="#DejaVuSans-45"/>
      <use x="204.056641" xlink:href="#DejaVuSans-112"/>
      <use x="267.533203" xlink:href="#DejaVuSans-105"/>
     </g>
    </g>
    <g id="line2d_26">
     <path d="M 556.235 87.195312 
L 576.235 87.195312 
" style="fill:none;stroke:#d62728;stroke-linecap:square;stroke-width:1.5;"/>
    </g>
    <g id="line2d_27"/>
    <g id="text_20">
     <!-- bbr-pi -->
     <g transform="translate(584.235 90.695312)scale(0.1 -0.1)">
      <use xlink:href="#DejaVuSans-98"/>
      <use x="63.476562" xlink:href="#DejaVuSans-98"/>
      <use x="126.953125" xlink:href="#DejaVuSans-114"/>
      <use x="167.972656" xlink:href="#DejaVuSans-45"/>
      <use x="204.056641" xlink:href="#DejaVuSans-112"/>
      <use x="267.533203" xlink:href="#DejaVuSans-105"/>
     </g>
    </g>
   </g>
  </g>
  <g id="text_21">
   <!-- result throughput -->
   <defs>
    <path d="M 9.421875 75.984375 
L 18.40625 75.984375 
L 18.40625 0 
L 9.421875 0 
z
" id="DejaVuSans-108"/>
   </defs>
   <g transform="translate(289.320938 17.038125)scale(0.12 -0.12)">
    <use xlink:href="#DejaVuSans-114"/>
    <use x="41.082031" xlink:href="#DejaVuSans-101"/>
    <use x="102.605469" xlink:href="#DejaVuSans-115"/>
    <use x="154.705078" xlink:href="#DejaVuSans-117"/>
    <use x="218.083984" xlink:href="#DejaVuSans-108"/>
    <use x="245.867188" xlink:href="#DejaVuSans-116"/>
    <use x="285.076172" xlink:href="#DejaVuSans-32"/>
    <use x="316.863281" xlink:href="#DejaVuSans-116"/>
    <use x="356.072266" xlink:href="#DejaVuSans-104"/>
    <use x="419.451172" xlink:href="#DejaVuSans-114"/>
    <use x="460.533203" xlink:href="#DejaVuSans-111"/>
    <use x="521.714844" xlink:href="#DejaVuSans-117"/>
    <use x="585.09375" xlink:href="#DejaVuSans-103"/>
    <use x="648.570312" xlink:href="#DejaVuSans-104"/>
    <use x="711.949219" xlink:href="#DejaVuSans-112"/>
    <use x="775.425781" xlink:href="#DejaVuSans-117"/>
    <use x="838.804688" xlink:href="#DejaVuSans-116"/>
   </g>
  </g>
 </g>
 <defs>
  <clipPath id="p9e7c82354f">
   <rect height="317.111667" width="446.440625" x="83.472344" y="35.0625"/>
  </clipPath>
 </defs>
</svg>
