<?xml version="1.0" encoding="utf-8" standalone="no"?>
<!DOCTYPE svg PUBLIC "-//W3C//DTD SVG 1.1//EN"
  "http://www.w3.org/Graphics/SVG/1.1/DTD/svg11.dtd">
<!-- Created with matplotlib (https://matplotlib.org/) -->
<svg height="396pt" version="1.1" viewBox="0 0 684 396" width="684pt" xmlns="http://www.w3.org/2000/svg" xmlns:xlink="http://www.w3.org/1999/xlink">
 <defs>
  <style type="text/css">
*{stroke-linecap:butt;stroke-linejoin:round;}
  </style>
 </defs>
 <g id="figure_1">
  <g id="patch_1">
   <path d="M 0 396 
L 684 396 
L 684 0 
L 0 0 
z
" style="fill:#ffffff;"/>
  </g>
  <g id="axes_1">
   <g id="patch_2">
    <path d="M 83.472344 352.174167 
L 529.912969 352.174167 
L 529.912969 35.0625 
L 83.472344 35.0625 
z
" style="fill:#ffffff;"/>
   </g>
   <g id="matplotlib.axis_1">
    <g id="xtick_1">
     <g id="line2d_1">
      <defs>
       <path d="M 0 0 
L 0 3.5 
" id="m55b42c9078" style="stroke:#000000;stroke-width:0.8;"/>
      </defs>
      <g>
       <use style="stroke:#000000;stroke-width:0.8;" x="103.765099" xlink:href="#m55b42c9078" y="352.174167"/>
      </g>
     </g>
     <g id="text_1">
      <!-- 0 -->
      <defs>
       <path d="M 31.78125 66.40625 
Q 24.171875 66.40625 20.328125 58.90625 
Q 16.5 51.421875 16.5 36.375 
Q 16.5 21.390625 20.328125 13.890625 
Q 24.171875 6.390625 31.78125 6.390625 
Q 39.453125 6.390625 43.28125 13.890625 
Q 47.125 21.390625 47.125 36.375 
Q 47.125 51.421875 43.28125 58.90625 
Q 39.453125 66.40625 31.78125 66.40625 
z
M 31.78125 74.21875 
Q 44.046875 74.21875 50.515625 64.515625 
Q 56.984375 54.828125 56.984375 36.375 
Q 56.984375 17.96875 50.515625 8.265625 
Q 44.046875 -1.421875 31.78125 -1.421875 
Q 19.53125 -1.421875 13.0625 8.265625 
Q 6.59375 17.96875 6.59375 36.375 
Q 6.59375 54.828125 13.0625 64.515625 
Q 19.53125 74.21875 31.78125 74.21875 
z
" id="DejaVuSans-48"/>
      </defs>
      <g transform="translate(100.583849 366.772604)scale(0.1 -0.1)">
       <use xlink:href="#DejaVuSans-48"/>
      </g>
     </g>
    </g>
    <g id="xtick_2">
     <g id="line2d_2">
      <g>
       <use style="stroke:#000000;stroke-width:0.8;" x="177.291175" xlink:href="#m55b42c9078" y="352.174167"/>
      </g>
     </g>
     <g id="text_2">
      <!-- 50 -->
      <defs>
       <path d="M 10.796875 72.90625 
L 49.515625 72.90625 
L 49.515625 64.59375 
L 19.828125 64.59375 
L 19.828125 46.734375 
Q 21.96875 47.46875 24.109375 47.828125 
Q 26.265625 48.1875 28.421875 48.1875 
Q 40.625 48.1875 47.75 41.5 
Q 54.890625 34.8125 54.890625 23.390625 
Q 54.890625 11.625 47.5625 5.09375 
Q 40.234375 -1.421875 26.90625 -1.421875 
Q 22.3125 -1.421875 17.546875 -0.640625 
Q 12.796875 0.140625 7.71875 1.703125 
L 7.71875 11.625 
Q 12.109375 9.234375 16.796875 8.0625 
Q 21.484375 6.890625 26.703125 6.890625 
Q 35.15625 6.890625 40.078125 11.328125 
Q 45.015625 15.765625 45.015625 23.390625 
Q 45.015625 31 40.078125 35.4375 
Q 35.15625 39.890625 26.703125 39.890625 
Q 22.75 39.890625 18.8125 39.015625 
Q 14.890625 38.140625 10.796875 36.28125 
z
" id="DejaVuSans-53"/>
      </defs>
      <g transform="translate(170.928675 366.772604)scale(0.1 -0.1)">
       <use xlink:href="#DejaVuSans-53"/>
       <use x="63.623047" xlink:href="#DejaVuSans-48"/>
      </g>
     </g>
    </g>
    <g id="xtick_3">
     <g id="line2d_3">
      <g>
       <use style="stroke:#000000;stroke-width:0.8;" x="250.81725" xlink:href="#m55b42c9078" y="352.174167"/>
      </g>
     </g>
     <g id="text_3">
      <!-- 100 -->
      <defs>
       <path d="M 12.40625 8.296875 
L 28.515625 8.296875 
L 28.515625 63.921875 
L 10.984375 60.40625 
L 10.984375 69.390625 
L 28.421875 72.90625 
L 38.28125 72.90625 
L 38.28125 8.296875 
L 54.390625 8.296875 
L 54.390625 0 
L 12.40625 0 
z
" id="DejaVuSans-49"/>
      </defs>
      <g transform="translate(241.2735 366.772604)scale(0.1 -0.1)">
       <use xlink:href="#DejaVuSans-49"/>
       <use x="63.623047" xlink:href="#DejaVuSans-48"/>
       <use x="127.246094" xlink:href="#DejaVuSans-48"/>
      </g>
     </g>
    </g>
    <g id="xtick_4">
     <g id="line2d_4">
      <g>
       <use style="stroke:#000000;stroke-width:0.8;" x="324.343326" xlink:href="#m55b42c9078" y="352.174167"/>
      </g>
     </g>
     <g id="text_4">
      <!-- 150 -->
      <g transform="translate(314.799576 366.772604)scale(0.1 -0.1)">
       <use xlink:href="#DejaVuSans-49"/>
       <use x="63.623047" xlink:href="#DejaVuSans-53"/>
       <use x="127.246094" xlink:href="#DejaVuSans-48"/>
      </g>
     </g>
    </g>
    <g id="xtick_5">
     <g id="line2d_5">
      <g>
       <use style="stroke:#000000;stroke-width:0.8;" x="397.869401" xlink:href="#m55b42c9078" y="352.174167"/>
      </g>
     </g>
     <g id="text_5">
      <!-- 200 -->
      <defs>
       <path d="M 19.1875 8.296875 
L 53.609375 8.296875 
L 53.609375 0 
L 7.328125 0 
L 7.328125 8.296875 
Q 12.9375 14.109375 22.625 23.890625 
Q 32.328125 33.6875 34.8125 36.53125 
Q 39.546875 41.84375 41.421875 45.53125 
Q 43.3125 49.21875 43.3125 52.78125 
Q 43.3125 58.59375 39.234375 62.25 
Q 35.15625 65.921875 28.609375 65.921875 
Q 23.96875 65.921875 18.8125 64.3125 
Q 13.671875 62.703125 7.8125 59.421875 
L 7.8125 69.390625 
Q 13.765625 71.78125 18.9375 73 
Q 24.125 74.21875 28.421875 74.21875 
Q 39.75 74.21875 46.484375 68.546875 
Q 53.21875 62.890625 53.21875 53.421875 
Q 53.21875 48.921875 51.53125 44.890625 
Q 49.859375 40.875 45.40625 35.40625 
Q 44.1875 33.984375 37.640625 27.21875 
Q 31.109375 20.453125 19.1875 8.296875 
z
" id="DejaVuSans-50"/>
      </defs>
      <g transform="translate(388.325651 366.772604)scale(0.1 -0.1)">
       <use xlink:href="#DejaVuSans-50"/>
       <use x="63.623047" xlink:href="#DejaVuSans-48"/>
       <use x="127.246094" xlink:href="#DejaVuSans-48"/>
      </g>
     </g>
    </g>
    <g id="xtick_6">
     <g id="line2d_6">
      <g>
       <use style="stroke:#000000;stroke-width:0.8;" x="471.395477" xlink:href="#m55b42c9078" y="352.174167"/>
      </g>
     </g>
     <g id="text_6">
      <!-- 250 -->
      <g transform="translate(461.851727 366.772604)scale(0.1 -0.1)">
       <use xlink:href="#DejaVuSans-50"/>
       <use x="63.623047" xlink:href="#DejaVuSans-53"/>
       <use x="127.246094" xlink:href="#DejaVuSans-48"/>
      </g>
     </g>
    </g>
   </g>
   <g id="matplotlib.axis_2">
    <g id="ytick_1">
     <g id="line2d_7">
      <defs>
       <path d="M 0 0 
L -3.5 0 
" id="m364d005b79" style="stroke:#000000;stroke-width:0.8;"/>
      </defs>
      <g>
       <use style="stroke:#000000;stroke-width:0.8;" x="83.472344" xlink:href="#m364d005b79" y="352.174167"/>
      </g>
     </g>
     <g id="text_7">
      <!-- 0 -->
      <g transform="translate(70.109844 355.973385)scale(0.1 -0.1)">
       <use xlink:href="#DejaVuSans-48"/>
      </g>
     </g>
    </g>
    <g id="ytick_2">
     <g id="line2d_8">
      <g>
       <use style="stroke:#000000;stroke-width:0.8;" x="83.472344" xlink:href="#m364d005b79" y="313.944912"/>
      </g>
     </g>
     <g id="text_8">
      <!-- 10 -->
      <g transform="translate(63.747344 317.744131)scale(0.1 -0.1)">
       <use xlink:href="#DejaVuSans-49"/>
       <use x="63.623047" xlink:href="#DejaVuSans-48"/>
      </g>
     </g>
    </g>
    <g id="ytick_3">
     <g id="line2d_9">
      <g>
       <use style="stroke:#000000;stroke-width:0.8;" x="83.472344" xlink:href="#m364d005b79" y="275.715658"/>
      </g>
     </g>
     <g id="text_9">
      <!-- 20 -->
      <g transform="translate(63.747344 279.514876)scale(0.1 -0.1)">
       <use xlink:href="#DejaVuSans-50"/>
       <use x="63.623047" xlink:href="#DejaVuSans-48"/>
      </g>
     </g>
    </g>
    <g id="ytick_4">
     <g id="line2d_10">
      <g>
       <use style="stroke:#000000;stroke-width:0.8;" x="83.472344" xlink:href="#m364d005b79" y="237.486403"/>
      </g>
     </g>
     <g id="text_10">
      <!-- 30 -->
      <defs>
       <path d="M 40.578125 39.3125 
Q 47.65625 37.796875 51.625 33 
Q 55.609375 28.21875 55.609375 21.1875 
Q 55.609375 10.40625 48.1875 4.484375 
Q 40.765625 -1.421875 27.09375 -1.421875 
Q 22.515625 -1.421875 17.65625 -0.515625 
Q 12.796875 0.390625 7.625 2.203125 
L 7.625 11.71875 
Q 11.71875 9.328125 16.59375 8.109375 
Q 21.484375 6.890625 26.8125 6.890625 
Q 36.078125 6.890625 40.9375 10.546875 
Q 45.796875 14.203125 45.796875 21.1875 
Q 45.796875 27.640625 41.28125 31.265625 
Q 36.765625 34.90625 28.71875 34.90625 
L 20.21875 34.90625 
L 20.21875 43.015625 
L 29.109375 43.015625 
Q 36.375 43.015625 40.234375 45.921875 
Q 44.09375 48.828125 44.09375 54.296875 
Q 44.09375 59.90625 40.109375 62.90625 
Q 36.140625 65.921875 28.71875 65.921875 
Q 24.65625 65.921875 20.015625 65.03125 
Q 15.375 64.15625 9.8125 62.3125 
L 9.8125 71.09375 
Q 15.4375 72.65625 20.34375 73.4375 
Q 25.25 74.21875 29.59375 74.21875 
Q 40.828125 74.21875 47.359375 69.109375 
Q 53.90625 64.015625 53.90625 55.328125 
Q 53.90625 49.265625 50.4375 45.09375 
Q 46.96875 40.921875 40.578125 39.3125 
z
" id="DejaVuSans-51"/>
      </defs>
      <g transform="translate(63.747344 241.285622)scale(0.1 -0.1)">
       <use xlink:href="#DejaVuSans-51"/>
       <use x="63.623047" xlink:href="#DejaVuSans-48"/>
      </g>
     </g>
    </g>
    <g id="ytick_5">
     <g id="line2d_11">
      <g>
       <use style="stroke:#000000;stroke-width:0.8;" x="83.472344" xlink:href="#m364d005b79" y="199.257148"/>
      </g>
     </g>
     <g id="text_11">
      <!-- 40 -->
      <defs>
       <path d="M 37.796875 64.3125 
L 12.890625 25.390625 
L 37.796875 25.390625 
z
M 35.203125 72.90625 
L 47.609375 72.90625 
L 47.609375 25.390625 
L 58.015625 25.390625 
L 58.015625 17.1875 
L 47.609375 17.1875 
L 47.609375 0 
L 37.796875 0 
L 37.796875 17.1875 
L 4.890625 17.1875 
L 4.890625 26.703125 
z
" id="DejaVuSans-52"/>
      </defs>
      <g transform="translate(63.747344 203.056367)scale(0.1 -0.1)">
       <use xlink:href="#DejaVuSans-52"/>
       <use x="63.623047" xlink:href="#DejaVuSans-48"/>
      </g>
     </g>
    </g>
    <g id="ytick_6">
     <g id="line2d_12">
      <g>
       <use style="stroke:#000000;stroke-width:0.8;" x="83.472344" xlink:href="#m364d005b79" y="161.027894"/>
      </g>
     </g>
     <g id="text_12">
      <!-- 50 -->
      <g transform="translate(63.747344 164.827113)scale(0.1 -0.1)">
       <use xlink:href="#DejaVuSans-53"/>
       <use x="63.623047" xlink:href="#DejaVuSans-48"/>
      </g>
     </g>
    </g>
    <g id="ytick_7">
     <g id="line2d_13">
      <g>
       <use style="stroke:#000000;stroke-width:0.8;" x="83.472344" xlink:href="#m364d005b79" y="122.798639"/>
      </g>
     </g>
     <g id="text_13">
      <!-- 60 -->
      <defs>
       <path d="M 33.015625 40.375 
Q 26.375 40.375 22.484375 35.828125 
Q 18.609375 31.296875 18.609375 23.390625 
Q 18.609375 15.53125 22.484375 10.953125 
Q 26.375 6.390625 33.015625 6.390625 
Q 39.65625 6.390625 43.53125 10.953125 
Q 47.40625 15.53125 47.40625 23.390625 
Q 47.40625 31.296875 43.53125 35.828125 
Q 39.65625 40.375 33.015625 40.375 
z
M 52.59375 71.296875 
L 52.59375 62.3125 
Q 48.875 64.0625 45.09375 64.984375 
Q 41.3125 65.921875 37.59375 65.921875 
Q 27.828125 65.921875 22.671875 59.328125 
Q 17.53125 52.734375 16.796875 39.40625 
Q 19.671875 43.65625 24.015625 45.921875 
Q 28.375 48.1875 33.59375 48.1875 
Q 44.578125 48.1875 50.953125 41.515625 
Q 57.328125 34.859375 57.328125 23.390625 
Q 57.328125 12.15625 50.6875 5.359375 
Q 44.046875 -1.421875 33.015625 -1.421875 
Q 20.359375 -1.421875 13.671875 8.265625 
Q 6.984375 17.96875 6.984375 36.375 
Q 6.984375 53.65625 15.1875 63.9375 
Q 23.390625 74.21875 37.203125 74.21875 
Q 40.921875 74.21875 44.703125 73.484375 
Q 48.484375 72.75 52.59375 71.296875 
z
" id="DejaVuSans-54"/>
      </defs>
      <g transform="translate(63.747344 126.597858)scale(0.1 -0.1)">
       <use xlink:href="#DejaVuSans-54"/>
       <use x="63.623047" xlink:href="#DejaVuSans-48"/>
      </g>
     </g>
    </g>
    <g id="ytick_8">
     <g id="line2d_14">
      <g>
       <use style="stroke:#000000;stroke-width:0.8;" x="83.472344" xlink:href="#m364d005b79" y="84.569385"/>
      </g>
     </g>
     <g id="text_14">
      <!-- 70 -->
      <defs>
       <path d="M 8.203125 72.90625 
L 55.078125 72.90625 
L 55.078125 68.703125 
L 28.609375 0 
L 18.3125 0 
L 43.21875 64.59375 
L 8.203125 64.59375 
z
" id="DejaVuSans-55"/>
      </defs>
      <g transform="translate(63.747344 88.368603)scale(0.1 -0.1)">
       <use xlink:href="#DejaVuSans-55"/>
       <use x="63.623047" xlink:href="#DejaVuSans-48"/>
      </g>
     </g>
    </g>
    <g id="ytick_9">
     <g id="line2d_15">
      <g>
       <use style="stroke:#000000;stroke-width:0.8;" x="83.472344" xlink:href="#m364d005b79" y="46.34013"/>
      </g>
     </g>
     <g id="text_15">
      <!-- 80 -->
      <defs>
       <path d="M 31.78125 34.625 
Q 24.75 34.625 20.71875 30.859375 
Q 16.703125 27.09375 16.703125 20.515625 
Q 16.703125 13.921875 20.71875 10.15625 
Q 24.75 6.390625 31.78125 6.390625 
Q 38.8125 6.390625 42.859375 10.171875 
Q 46.921875 13.96875 46.921875 20.515625 
Q 46.921875 27.09375 42.890625 30.859375 
Q 38.875 34.625 31.78125 34.625 
z
M 21.921875 38.8125 
Q 15.578125 40.375 12.03125 44.71875 
Q 8.5 49.078125 8.5 55.328125 
Q 8.5 64.0625 14.71875 69.140625 
Q 20.953125 74.21875 31.78125 74.21875 
Q 42.671875 74.21875 48.875 69.140625 
Q 55.078125 64.0625 55.078125 55.328125 
Q 55.078125 49.078125 51.53125 44.71875 
Q 48 40.375 41.703125 38.8125 
Q 48.828125 37.15625 52.796875 32.3125 
Q 56.78125 27.484375 56.78125 20.515625 
Q 56.78125 9.90625 50.3125 4.234375 
Q 43.84375 -1.421875 31.78125 -1.421875 
Q 19.734375 -1.421875 13.25 4.234375 
Q 6.78125 9.90625 6.78125 20.515625 
Q 6.78125 27.484375 10.78125 32.3125 
Q 14.796875 37.15625 21.921875 38.8125 
z
M 18.3125 54.390625 
Q 18.3125 48.734375 21.84375 45.5625 
Q 25.390625 42.390625 31.78125 42.390625 
Q 38.140625 42.390625 41.71875 45.5625 
Q 45.3125 48.734375 45.3125 54.390625 
Q 45.3125 60.0625 41.71875 63.234375 
Q 38.140625 66.40625 31.78125 66.40625 
Q 25.390625 66.40625 21.84375 63.234375 
Q 18.3125 60.0625 18.3125 54.390625 
z
" id="DejaVuSans-56"/>
      </defs>
      <g transform="translate(63.747344 50.139349)scale(0.1 -0.1)">
       <use xlink:href="#DejaVuSans-56"/>
       <use x="63.623047" xlink:href="#DejaVuSans-48"/>
      </g>
     </g>
    </g>
    <g id="text_16">
     <!-- throughput -->
     <defs>
      <path d="M 18.3125 70.21875 
L 18.3125 54.6875 
L 36.8125 54.6875 
L 36.8125 47.703125 
L 18.3125 47.703125 
L 18.3125 18.015625 
Q 18.3125 11.328125 20.140625 9.421875 
Q 21.96875 7.515625 27.59375 7.515625 
L 36.8125 7.515625 
L 36.8125 0 
L 27.59375 0 
Q 17.1875 0 13.234375 3.875 
Q 9.28125 7.765625 9.28125 18.015625 
L 9.28125 47.703125 
L 2.6875 47.703125 
L 2.6875 54.6875 
L 9.28125 54.6875 
L 9.28125 70.21875 
z
" id="DejaVuSans-116"/>
      <path d="M 54.890625 33.015625 
L 54.890625 0 
L 45.90625 0 
L 45.90625 32.71875 
Q 45.90625 40.484375 42.875 44.328125 
Q 39.84375 48.1875 33.796875 48.1875 
Q 26.515625 48.1875 22.3125 43.546875 
Q 18.109375 38.921875 18.109375 30.90625 
L 18.109375 0 
L 9.078125 0 
L 9.078125 75.984375 
L 18.109375 75.984375 
L 18.109375 46.1875 
Q 21.34375 51.125 25.703125 53.5625 
Q 30.078125 56 35.796875 56 
Q 45.21875 56 50.046875 50.171875 
Q 54.890625 44.34375 54.890625 33.015625 
z
" id="DejaVuSans-104"/>
      <path d="M 41.109375 46.296875 
Q 39.59375 47.171875 37.8125 47.578125 
Q 36.03125 48 33.890625 48 
Q 26.265625 48 22.1875 43.046875 
Q 18.109375 38.09375 18.109375 28.8125 
L 18.109375 0 
L 9.078125 0 
L 9.078125 54.6875 
L 18.109375 54.6875 
L 18.109375 46.1875 
Q 20.953125 51.171875 25.484375 53.578125 
Q 30.03125 56 36.53125 56 
Q 37.453125 56 38.578125 55.875 
Q 39.703125 55.765625 41.0625 55.515625 
z
" id="DejaVuSans-114"/>
      <path d="M 30.609375 48.390625 
Q 23.390625 48.390625 19.1875 42.75 
Q 14.984375 37.109375 14.984375 27.296875 
Q 14.984375 17.484375 19.15625 11.84375 
Q 23.34375 6.203125 30.609375 6.203125 
Q 37.796875 6.203125 41.984375 11.859375 
Q 46.1875 17.53125 46.1875 27.296875 
Q 46.1875 37.015625 41.984375 42.703125 
Q 37.796875 48.390625 30.609375 48.390625 
z
M 30.609375 56 
Q 42.328125 56 49.015625 48.375 
Q 55.71875 40.765625 55.71875 27.296875 
Q 55.71875 13.875 49.015625 6.21875 
Q 42.328125 -1.421875 30.609375 -1.421875 
Q 18.84375 -1.421875 12.171875 6.21875 
Q 5.515625 13.875 5.515625 27.296875 
Q 5.515625 40.765625 12.171875 48.375 
Q 18.84375 56 30.609375 56 
z
" id="DejaVuSans-111"/>
      <path d="M 8.5 21.578125 
L 8.5 54.6875 
L 17.484375 54.6875 
L 17.484375 21.921875 
Q 17.484375 14.15625 20.5 10.265625 
Q 23.53125 6.390625 29.59375 6.390625 
Q 36.859375 6.390625 41.078125 11.03125 
Q 45.3125 15.671875 45.3125 23.6875 
L 45.3125 54.6875 
L 54.296875 54.6875 
L 54.296875 0 
L 45.3125 0 
L 45.3125 8.40625 
Q 42.046875 3.421875 37.71875 1 
Q 33.40625 -1.421875 27.6875 -1.421875 
Q 18.265625 -1.421875 13.375 4.4375 
Q 8.5 10.296875 8.5 21.578125 
z
M 31.109375 56 
z
" id="DejaVuSans-117"/>
      <path d="M 45.40625 27.984375 
Q 45.40625 37.75 41.375 43.109375 
Q 37.359375 48.484375 30.078125 48.484375 
Q 22.859375 48.484375 18.828125 43.109375 
Q 14.796875 37.75 14.796875 27.984375 
Q 14.796875 18.265625 18.828125 12.890625 
Q 22.859375 7.515625 30.078125 7.515625 
Q 37.359375 7.515625 41.375 12.890625 
Q 45.40625 18.265625 45.40625 27.984375 
z
M 54.390625 6.78125 
Q 54.390625 -7.171875 48.1875 -13.984375 
Q 42 -20.796875 29.203125 -20.796875 
Q 24.46875 -20.796875 20.265625 -20.09375 
Q 16.0625 -19.390625 12.109375 -17.921875 
L 12.109375 -9.1875 
Q 16.0625 -11.328125 19.921875 -12.34375 
Q 23.78125 -13.375 27.78125 -13.375 
Q 36.625 -13.375 41.015625 -8.765625 
Q 45.40625 -4.15625 45.40625 5.171875 
L 45.40625 9.625 
Q 42.625 4.78125 38.28125 2.390625 
Q 33.9375 0 27.875 0 
Q 17.828125 0 11.671875 7.65625 
Q 5.515625 15.328125 5.515625 27.984375 
Q 5.515625 40.671875 11.671875 48.328125 
Q 17.828125 56 27.875 56 
Q 33.9375 56 38.28125 53.609375 
Q 42.625 51.21875 45.40625 46.390625 
L 45.40625 54.6875 
L 54.390625 54.6875 
z
" id="DejaVuSans-103"/>
      <path d="M 18.109375 8.203125 
L 18.109375 -20.796875 
L 9.078125 -20.796875 
L 9.078125 54.6875 
L 18.109375 54.6875 
L 18.109375 46.390625 
Q 20.953125 51.265625 25.265625 53.625 
Q 29.59375 56 35.59375 56 
Q 45.5625 56 51.78125 48.09375 
Q 58.015625 40.1875 58.015625 27.296875 
Q 58.015625 14.40625 51.78125 6.484375 
Q 45.5625 -1.421875 35.59375 -1.421875 
Q 29.59375 -1.421875 25.265625 0.953125 
Q 20.953125 3.328125 18.109375 8.203125 
z
M 48.6875 27.296875 
Q 48.6875 37.203125 44.609375 42.84375 
Q 40.53125 48.484375 33.40625 48.484375 
Q 26.265625 48.484375 22.1875 42.84375 
Q 18.109375 37.203125 18.109375 27.296875 
Q 18.109375 17.390625 22.1875 11.75 
Q 26.265625 6.109375 33.40625 6.109375 
Q 40.53125 6.109375 44.609375 11.75 
Q 48.6875 17.390625 48.6875 27.296875 
z
" id="DejaVuSans-112"/>
     </defs>
     <g transform="translate(46.469844 221.675365)rotate(-90)scale(0.1 -0.1)">
      <use xlink:href="#DejaVuSans-116"/>
      <use x="39.208984" xlink:href="#DejaVuSans-104"/>
      <use x="102.587891" xlink:href="#DejaVuSans-114"/>
      <use x="143.669922" xlink:href="#DejaVuSans-111"/>
      <use x="204.851562" xlink:href="#DejaVuSans-117"/>
      <use x="268.230469" xlink:href="#DejaVuSans-103"/>
      <use x="331.707031" xlink:href="#DejaVuSans-104"/>
      <use x="395.085938" xlink:href="#DejaVuSans-112"/>
      <use x="458.5625" xlink:href="#DejaVuSans-117"/>
      <use x="521.941406" xlink:href="#DejaVuSans-116"/>
     </g>
     <!-- (mbit / second) -->
     <defs>
      <path d="M 31 75.875 
Q 24.46875 64.65625 21.28125 53.65625 
Q 18.109375 42.671875 18.109375 31.390625 
Q 18.109375 20.125 21.3125 9.0625 
Q 24.515625 -2 31 -13.1875 
L 23.1875 -13.1875 
Q 15.875 -1.703125 12.234375 9.375 
Q 8.59375 20.453125 8.59375 31.390625 
Q 8.59375 42.28125 12.203125 53.3125 
Q 15.828125 64.359375 23.1875 75.875 
z
" id="DejaVuSans-40"/>
      <path d="M 52 44.1875 
Q 55.375 50.25 60.0625 53.125 
Q 64.75 56 71.09375 56 
Q 79.640625 56 84.28125 50.015625 
Q 88.921875 44.046875 88.921875 33.015625 
L 88.921875 0 
L 79.890625 0 
L 79.890625 32.71875 
Q 79.890625 40.578125 77.09375 44.375 
Q 74.3125 48.1875 68.609375 48.1875 
Q 61.625 48.1875 57.5625 43.546875 
Q 53.515625 38.921875 53.515625 30.90625 
L 53.515625 0 
L 44.484375 0 
L 44.484375 32.71875 
Q 44.484375 40.625 41.703125 44.40625 
Q 38.921875 48.1875 33.109375 48.1875 
Q 26.21875 48.1875 22.15625 43.53125 
Q 18.109375 38.875 18.109375 30.90625 
L 18.109375 0 
L 9.078125 0 
L 9.078125 54.6875 
L 18.109375 54.6875 
L 18.109375 46.1875 
Q 21.1875 51.21875 25.484375 53.609375 
Q 29.78125 56 35.6875 56 
Q 41.65625 56 45.828125 52.96875 
Q 50 49.953125 52 44.1875 
z
" id="DejaVuSans-109"/>
      <path d="M 48.6875 27.296875 
Q 48.6875 37.203125 44.609375 42.84375 
Q 40.53125 48.484375 33.40625 48.484375 
Q 26.265625 48.484375 22.1875 42.84375 
Q 18.109375 37.203125 18.109375 27.296875 
Q 18.109375 17.390625 22.1875 11.75 
Q 26.265625 6.109375 33.40625 6.109375 
Q 40.53125 6.109375 44.609375 11.75 
Q 48.6875 17.390625 48.6875 27.296875 
z
M 18.109375 46.390625 
Q 20.953125 51.265625 25.265625 53.625 
Q 29.59375 56 35.59375 56 
Q 45.5625 56 51.78125 48.09375 
Q 58.015625 40.1875 58.015625 27.296875 
Q 58.015625 14.40625 51.78125 6.484375 
Q 45.5625 -1.421875 35.59375 -1.421875 
Q 29.59375 -1.421875 25.265625 0.953125 
Q 20.953125 3.328125 18.109375 8.203125 
L 18.109375 0 
L 9.078125 0 
L 9.078125 75.984375 
L 18.109375 75.984375 
z
" id="DejaVuSans-98"/>
      <path d="M 9.421875 54.6875 
L 18.40625 54.6875 
L 18.40625 0 
L 9.421875 0 
z
M 9.421875 75.984375 
L 18.40625 75.984375 
L 18.40625 64.59375 
L 9.421875 64.59375 
z
" id="DejaVuSans-105"/>
      <path id="DejaVuSans-32"/>
      <path d="M 25.390625 72.90625 
L 33.6875 72.90625 
L 8.296875 -9.28125 
L 0 -9.28125 
z
" id="DejaVuSans-47"/>
      <path d="M 44.28125 53.078125 
L 44.28125 44.578125 
Q 40.484375 46.53125 36.375 47.5 
Q 32.28125 48.484375 27.875 48.484375 
Q 21.1875 48.484375 17.84375 46.4375 
Q 14.5 44.390625 14.5 40.28125 
Q 14.5 37.15625 16.890625 35.375 
Q 19.28125 33.59375 26.515625 31.984375 
L 29.59375 31.296875 
Q 39.15625 29.25 43.1875 25.515625 
Q 47.21875 21.78125 47.21875 15.09375 
Q 47.21875 7.46875 41.1875 3.015625 
Q 35.15625 -1.421875 24.609375 -1.421875 
Q 20.21875 -1.421875 15.453125 -0.5625 
Q 10.6875 0.296875 5.421875 2 
L 5.421875 11.28125 
Q 10.40625 8.6875 15.234375 7.390625 
Q 20.0625 6.109375 24.8125 6.109375 
Q 31.15625 6.109375 34.5625 8.28125 
Q 37.984375 10.453125 37.984375 14.40625 
Q 37.984375 18.0625 35.515625 20.015625 
Q 33.0625 21.96875 24.703125 23.78125 
L 21.578125 24.515625 
Q 13.234375 26.265625 9.515625 29.90625 
Q 5.8125 33.546875 5.8125 39.890625 
Q 5.8125 47.609375 11.28125 51.796875 
Q 16.75 56 26.8125 56 
Q 31.78125 56 36.171875 55.265625 
Q 40.578125 54.546875 44.28125 53.078125 
z
" id="DejaVuSans-115"/>
      <path d="M 56.203125 29.59375 
L 56.203125 25.203125 
L 14.890625 25.203125 
Q 15.484375 15.921875 20.484375 11.0625 
Q 25.484375 6.203125 34.421875 6.203125 
Q 39.59375 6.203125 44.453125 7.46875 
Q 49.3125 8.734375 54.109375 11.28125 
L 54.109375 2.78125 
Q 49.265625 0.734375 44.1875 -0.34375 
Q 39.109375 -1.421875 33.890625 -1.421875 
Q 20.796875 -1.421875 13.15625 6.1875 
Q 5.515625 13.8125 5.515625 26.8125 
Q 5.515625 40.234375 12.765625 48.109375 
Q 20.015625 56 32.328125 56 
Q 43.359375 56 49.78125 48.890625 
Q 56.203125 41.796875 56.203125 29.59375 
z
M 47.21875 32.234375 
Q 47.125 39.59375 43.09375 43.984375 
Q 39.0625 48.390625 32.421875 48.390625 
Q 24.90625 48.390625 20.390625 44.140625 
Q 15.875 39.890625 15.1875 32.171875 
z
" id="DejaVuSans-101"/>
      <path d="M 48.78125 52.59375 
L 48.78125 44.1875 
Q 44.96875 46.296875 41.140625 47.34375 
Q 37.3125 48.390625 33.40625 48.390625 
Q 24.65625 48.390625 19.8125 42.84375 
Q 14.984375 37.3125 14.984375 27.296875 
Q 14.984375 17.28125 19.8125 11.734375 
Q 24.65625 6.203125 33.40625 6.203125 
Q 37.3125 6.203125 41.140625 7.25 
Q 44.96875 8.296875 48.78125 10.40625 
L 48.78125 2.09375 
Q 45.015625 0.34375 40.984375 -0.53125 
Q 36.96875 -1.421875 32.421875 -1.421875 
Q 20.0625 -1.421875 12.78125 6.34375 
Q 5.515625 14.109375 5.515625 27.296875 
Q 5.515625 40.671875 12.859375 48.328125 
Q 20.21875 56 33.015625 56 
Q 37.15625 56 41.109375 55.140625 
Q 45.0625 54.296875 48.78125 52.59375 
z
" id="DejaVuSans-99"/>
      <path d="M 54.890625 33.015625 
L 54.890625 0 
L 45.90625 0 
L 45.90625 32.71875 
Q 45.90625 40.484375 42.875 44.328125 
Q 39.84375 48.1875 33.796875 48.1875 
Q 26.515625 48.1875 22.3125 43.546875 
Q 18.109375 38.921875 18.109375 30.90625 
L 18.109375 0 
L 9.078125 0 
L 9.078125 54.6875 
L 18.109375 54.6875 
L 18.109375 46.1875 
Q 21.34375 51.125 25.703125 53.5625 
Q 30.078125 56 35.796875 56 
Q 45.21875 56 50.046875 50.171875 
Q 54.890625 44.34375 54.890625 33.015625 
z
" id="DejaVuSans-110"/>
      <path d="M 45.40625 46.390625 
L 45.40625 75.984375 
L 54.390625 75.984375 
L 54.390625 0 
L 45.40625 0 
L 45.40625 8.203125 
Q 42.578125 3.328125 38.25 0.953125 
Q 33.9375 -1.421875 27.875 -1.421875 
Q 17.96875 -1.421875 11.734375 6.484375 
Q 5.515625 14.40625 5.515625 27.296875 
Q 5.515625 40.1875 11.734375 48.09375 
Q 17.96875 56 27.875 56 
Q 33.9375 56 38.25 53.625 
Q 42.578125 51.265625 45.40625 46.390625 
z
M 14.796875 27.296875 
Q 14.796875 17.390625 18.875 11.75 
Q 22.953125 6.109375 30.078125 6.109375 
Q 37.203125 6.109375 41.296875 11.75 
Q 45.40625 17.390625 45.40625 27.296875 
Q 45.40625 37.203125 41.296875 42.84375 
Q 37.203125 48.484375 30.078125 48.484375 
Q 22.953125 48.484375 18.875 42.84375 
Q 14.796875 37.203125 14.796875 27.296875 
z
" id="DejaVuSans-100"/>
      <path d="M 8.015625 75.875 
L 15.828125 75.875 
Q 23.140625 64.359375 26.78125 53.3125 
Q 30.421875 42.28125 30.421875 31.390625 
Q 30.421875 20.453125 26.78125 9.375 
Q 23.140625 -1.703125 15.828125 -13.1875 
L 8.015625 -13.1875 
Q 14.5 -2 17.703125 9.0625 
Q 20.90625 20.125 20.90625 31.390625 
Q 20.90625 42.671875 17.703125 53.65625 
Q 14.5 64.65625 8.015625 75.875 
z
" id="DejaVuSans-41"/>
     </defs>
     <g transform="translate(57.667656 231.608958)rotate(-90)scale(0.1 -0.1)">
      <use xlink:href="#DejaVuSans-40"/>
      <use x="39.013672" xlink:href="#DejaVuSans-109"/>
      <use x="136.425781" xlink:href="#DejaVuSans-98"/>
      <use x="199.902344" xlink:href="#DejaVuSans-105"/>
      <use x="227.685547" xlink:href="#DejaVuSans-116"/>
      <use x="266.894531" xlink:href="#DejaVuSans-32"/>
      <use x="298.681641" xlink:href="#DejaVuSans-47"/>
      <use x="332.373047" xlink:href="#DejaVuSans-32"/>
      <use x="364.160156" xlink:href="#DejaVuSans-115"/>
      <use x="416.259766" xlink:href="#DejaVuSans-101"/>
      <use x="477.783203" xlink:href="#DejaVuSans-99"/>
      <use x="532.763672" xlink:href="#DejaVuSans-111"/>
      <use x="593.945312" xlink:href="#DejaVuSans-110"/>
      <use x="657.324219" xlink:href="#DejaVuSans-100"/>
      <use x="720.800781" xlink:href="#DejaVuSans-41"/>
     </g>
    </g>
   </g>
   <g id="line2d_16">
    <path clip-path="url(#pec22fdc758)" d="M 103.765099 122.798639 
L 104.50036 50.163056 
L 105.970882 50.163056 
L 106.706142 122.798639 
L 107.441403 164.850819 
L 108.911925 164.850819 
L 109.647185 168.673745 
L 110.382446 161.027894 
L 112.588228 183.965447 
L 113.323489 180.142521 
L 114.794011 187.788372 
L 115.529272 199.257148 
L 116.264532 199.257148 
L 117.735054 206.902999 
L 118.470315 294.830285 
L 119.205575 256.60103 
L 119.940836 260.423956 
L 122.881879 260.423956 
L 123.61714 256.60103 
L 124.352401 245.132254 
L 125.822922 229.840552 
L 126.558183 241.309328 
L 127.293444 241.309328 
L 128.028704 237.486403 
L 128.763965 229.840552 
L 130.234487 222.194701 
L 130.969747 214.54885 
L 131.705008 214.54885 
L 132.440269 210.725925 
L 133.17553 271.892732 
L 133.91079 237.486403 
L 134.646051 222.194701 
L 135.381312 214.54885 
L 136.116573 203.080074 
L 137.587094 203.080074 
L 138.322355 206.902999 
L 139.792876 222.194701 
L 140.528137 226.017627 
L 141.263398 222.194701 
L 141.998659 214.54885 
L 142.733919 210.725925 
L 143.46918 214.54885 
L 144.204441 206.902999 
L 145.674962 199.257148 
L 146.410223 199.257148 
L 147.145484 203.080074 
L 147.880745 203.080074 
L 148.616005 264.246881 
L 149.351266 199.257148 
L 150.086527 195.434223 
L 150.821788 199.257148 
L 151.557049 210.725925 
L 152.292309 218.371776 
L 153.762831 226.017627 
L 154.498092 226.017627 
L 155.233352 229.840552 
L 155.968613 229.840552 
L 156.703874 226.017627 
L 157.439135 229.840552 
L 158.174395 226.017627 
L 158.909656 226.017627 
L 159.644917 214.54885 
L 161.115438 214.54885 
L 162.58596 222.194701 
L 163.321221 268.069807 
L 164.056481 245.132254 
L 164.791742 187.788372 
L 165.527003 191.611297 
L 166.262264 191.611297 
L 166.997524 195.434223 
L 167.732785 191.611297 
L 168.468046 191.611297 
L 169.203307 199.257148 
L 170.673828 206.902999 
L 171.409089 199.257148 
L 172.14435 203.080074 
L 172.87961 203.080074 
L 173.614871 206.902999 
L 174.350132 199.257148 
L 175.085393 183.965447 
L 175.820653 180.142521 
L 178.026436 191.611297 
L 178.761696 291.007359 
L 179.496957 229.840552 
L 180.232218 206.902999 
L 180.967479 210.725925 
L 181.702739 203.080074 
L 182.438 203.080074 
L 183.173261 206.902999 
L 183.908522 203.080074 
L 184.643782 210.725925 
L 185.379043 210.725925 
L 186.849565 218.371776 
L 188.320086 218.371776 
L 189.055347 214.54885 
L 191.261129 226.017627 
L 191.99639 222.194701 
L 193.466912 229.840552 
L 194.202172 291.007359 
L 194.937433 248.955179 
L 195.672694 248.955179 
L 196.407955 252.778105 
L 197.143215 252.778105 
L 197.878476 237.486403 
L 198.613737 226.017627 
L 200.084258 226.017627 
L 200.819519 214.54885 
L 202.290041 214.54885 
L 203.025301 222.194701 
L 204.495823 222.194701 
L 205.231084 218.371776 
L 205.966344 222.194701 
L 206.701605 218.371776 
L 208.172127 218.371776 
L 209.642648 313.944912 
L 210.377909 268.069807 
L 211.11317 271.892732 
L 211.84843 271.892732 
L 212.583691 275.715658 
L 213.318952 268.069807 
L 214.054213 256.60103 
L 214.789473 248.955179 
L 215.524734 248.955179 
L 216.259995 233.663477 
L 216.995256 237.486403 
L 217.730516 237.486403 
L 218.465777 222.194701 
L 219.201038 218.371776 
L 219.936299 218.371776 
L 220.671559 214.54885 
L 221.40682 203.080074 
L 222.142081 206.902999 
L 223.612602 206.902999 
L 224.347863 222.194701 
L 225.083124 248.955179 
L 225.818385 241.309328 
L 226.553646 245.132254 
L 227.288906 241.309328 
L 228.024167 241.309328 
L 228.759428 229.840552 
L 229.494689 222.194701 
L 230.229949 222.194701 
L 230.96521 218.371776 
L 233.170992 229.840552 
L 233.906253 222.194701 
L 234.641514 222.194701 
L 235.376775 218.371776 
L 236.847296 218.371776 
L 237.582557 214.54885 
L 238.317818 218.371776 
L 239.053078 206.902999 
L 239.788339 264.246881 
L 240.5236 176.319596 
L 241.258861 187.788372 
L 241.994121 183.965447 
L 242.729382 183.965447 
L 243.464643 180.142521 
L 244.199904 180.142521 
L 244.935164 172.49667 
L 245.670425 176.319596 
L 246.405686 176.319596 
L 247.140947 180.142521 
L 247.876207 187.788372 
L 248.611468 191.611297 
L 249.346729 187.788372 
L 250.08199 180.142521 
L 250.81725 187.788372 
L 252.287772 180.142521 
L 253.023033 180.142521 
L 253.758293 176.319596 
L 255.228815 291.007359 
L 255.964076 210.725925 
L 256.699336 210.725925 
L 257.434597 214.54885 
L 258.169858 222.194701 
L 258.905119 218.371776 
L 259.640379 210.725925 
L 261.110901 210.725925 
L 262.581423 203.080074 
L 264.051944 203.080074 
L 264.787205 210.725925 
L 265.522466 210.725925 
L 266.257726 206.902999 
L 267.728248 214.54885 
L 269.198769 214.54885 
L 269.93403 252.778105 
L 270.669291 260.423956 
L 271.404552 248.955179 
L 272.139812 256.60103 
L 272.875073 256.60103 
L 274.345595 248.955179 
L 277.286638 248.955179 
L 278.021898 252.778105 
L 278.757159 248.955179 
L 279.49242 241.309328 
L 280.227681 237.486403 
L 280.962941 226.017627 
L 282.433463 218.371776 
L 283.903984 203.080074 
L 284.639245 199.257148 
L 285.374506 302.476136 
L 286.109767 260.423956 
L 288.315549 260.423956 
L 289.05081 248.955179 
L 289.78607 241.309328 
L 290.521331 237.486403 
L 291.256592 245.132254 
L 291.991853 245.132254 
L 292.727113 229.840552 
L 293.462374 172.49667 
L 294.932896 172.49667 
L 295.668156 176.319596 
L 296.403417 176.319596 
L 297.138678 172.49667 
L 298.6092 180.142521 
L 299.34446 195.434223 
L 300.079721 229.840552 
L 300.814982 291.007359 
L 301.550243 268.069807 
L 302.285503 271.892732 
L 303.756025 271.892732 
L 305.226546 264.246881 
L 306.697068 248.955179 
L 307.432329 245.132254 
L 308.167589 214.54885 
L 308.90285 134.267416 
L 309.638111 161.027894 
L 311.108632 161.027894 
L 311.843893 164.850819 
L 312.579154 161.027894 
L 313.314415 164.850819 
L 314.784936 164.850819 
L 315.520197 264.246881 
L 316.255458 252.778105 
L 316.990718 252.778105 
L 317.725979 256.60103 
L 318.46124 256.60103 
L 319.196501 252.778105 
L 319.931761 241.309328 
L 320.667022 237.486403 
L 321.402283 229.840552 
L 322.137544 229.840552 
L 322.872804 226.017627 
L 323.608065 157.204968 
L 324.343326 149.559117 
L 325.078587 157.204968 
L 325.813847 153.382043 
L 326.549108 153.382043 
L 327.284369 161.027894 
L 328.01963 153.382043 
L 328.75489 157.204968 
L 329.490151 176.319596 
L 330.225412 206.902999 
L 330.960673 264.246881 
L 331.695933 237.486403 
L 332.431194 233.663477 
L 333.166455 233.663477 
L 334.636977 226.017627 
L 336.107498 210.725925 
L 336.842759 206.902999 
L 337.57802 199.257148 
L 338.31328 203.080074 
L 339.048541 130.44449 
L 339.783802 161.027894 
L 341.254323 176.319596 
L 341.989584 180.142521 
L 343.460106 180.142521 
L 344.195366 183.965447 
L 344.930627 183.965447 
L 345.665888 279.538583 
L 346.401149 283.361508 
L 347.136409 252.778105 
L 347.87167 260.423956 
L 348.606931 256.60103 
L 349.342192 256.60103 
L 350.077452 260.423956 
L 351.547974 260.423956 
L 353.753756 237.486403 
L 354.489017 237.486403 
L 355.224278 233.663477 
L 355.959538 233.663477 
L 356.694799 226.017627 
L 358.165321 218.371776 
L 359.635842 195.434223 
L 360.371103 191.611297 
L 361.106364 294.830285 
L 361.841624 271.892732 
L 362.576885 252.778105 
L 364.782667 252.778105 
L 365.517928 248.955179 
L 366.253189 195.434223 
L 366.98845 164.850819 
L 367.72371 180.142521 
L 368.458971 183.965447 
L 370.664754 172.49667 
L 371.400014 176.319596 
L 372.135275 187.788372 
L 372.870536 195.434223 
L 373.605797 199.257148 
L 374.341057 199.257148 
L 375.076318 195.434223 
L 375.811579 199.257148 
L 376.54684 199.257148 
L 377.2821 203.080074 
L 378.017361 203.080074 
L 378.752622 199.257148 
L 379.487883 191.611297 
L 380.223143 306.299061 
L 380.958404 268.069807 
L 382.428926 275.715658 
L 383.164186 271.892732 
L 383.899447 264.246881 
L 384.634708 264.246881 
L 386.105229 248.955179 
L 386.84049 233.663477 
L 387.575751 229.840552 
L 388.311012 222.194701 
L 389.046272 222.194701 
L 389.781533 229.840552 
L 391.987315 218.371776 
L 392.722576 222.194701 
L 393.457837 229.840552 
L 394.193098 226.017627 
L 394.928358 233.663477 
L 395.663619 226.017627 
L 396.39888 176.319596 
L 397.134141 164.850819 
L 399.339923 176.319596 
L 400.075184 252.778105 
L 400.810444 306.299061 
L 401.545705 241.309328 
L 402.280966 245.132254 
L 403.016227 245.132254 
L 403.751487 248.955179 
L 404.486748 237.486403 
L 405.222009 229.840552 
L 405.95727 214.54885 
L 406.69253 210.725925 
L 407.427791 203.080074 
L 408.163052 203.080074 
L 408.898313 206.902999 
L 409.633574 203.080074 
L 411.104095 203.080074 
L 411.839356 126.621565 
L 412.574617 153.382043 
L 413.309877 153.382043 
L 414.045138 164.850819 
L 414.780399 168.673745 
L 415.51566 233.663477 
L 416.25092 248.955179 
L 416.986181 229.840552 
L 417.721442 222.194701 
L 418.456703 210.725925 
L 419.191963 203.080074 
L 419.927224 210.725925 
L 420.662485 199.257148 
L 421.397746 199.257148 
L 422.133006 195.434223 
L 422.868267 195.434223 
L 424.338789 187.788372 
L 425.074049 191.611297 
L 425.80931 199.257148 
L 426.544571 199.257148 
L 427.279832 111.329863 
L 428.015092 145.736192 
L 429.485614 161.027894 
L 430.220875 161.027894 
L 430.956135 268.069807 
L 431.691396 218.371776 
L 432.426657 222.194701 
L 433.161918 229.840552 
L 433.897178 229.840552 
L 434.632439 222.194701 
L 435.3677 218.371776 
L 437.573482 195.434223 
L 438.308743 195.434223 
L 439.044004 199.257148 
L 439.779264 199.257148 
L 441.249786 206.902999 
L 441.985047 206.902999 
L 442.720307 203.080074 
L 443.455568 191.611297 
L 444.92609 191.611297 
L 445.661351 241.309328 
L 446.396611 271.892732 
L 447.131872 260.423956 
L 449.337654 260.423956 
L 450.072915 252.778105 
L 450.808176 256.60103 
L 452.278697 233.663477 
L 453.749219 233.663477 
L 454.48448 229.840552 
L 455.21974 229.840552 
L 455.955001 222.194701 
L 456.690262 222.194701 
L 457.425523 229.840552 
L 458.896044 229.840552 
L 459.631305 226.017627 
L 460.366566 180.142521 
L 461.101826 252.778105 
L 461.837087 233.663477 
L 462.572348 233.663477 
L 463.307609 241.309328 
L 464.042869 237.486403 
L 464.77813 229.840552 
L 465.513391 218.371776 
L 466.248652 222.194701 
L 466.983912 222.194701 
L 467.719173 214.54885 
L 469.189695 214.54885 
L 469.924955 218.371776 
L 471.395477 233.663477 
L 472.130738 218.371776 
L 472.865998 210.725925 
L 473.601259 206.902999 
L 474.33652 206.902999 
L 475.071781 203.080074 
L 475.807041 229.840552 
L 476.542302 222.194701 
L 477.277563 187.788372 
L 478.012824 187.788372 
L 478.748084 199.257148 
L 479.483345 203.080074 
L 480.218606 203.080074 
L 480.953867 206.902999 
L 481.689128 206.902999 
L 482.424388 214.54885 
L 483.159649 218.371776 
L 483.89491 218.371776 
L 484.630171 226.017627 
L 486.100692 218.371776 
L 486.835953 210.725925 
L 487.571214 206.902999 
L 489.776996 206.902999 
L 490.512257 210.725925 
L 491.247517 271.892732 
L 491.982778 183.965447 
L 492.718039 180.142521 
L 493.4533 187.788372 
L 494.18856 187.788372 
L 494.923821 195.434223 
L 495.659082 206.902999 
L 496.394343 206.902999 
L 497.129603 210.725925 
L 497.864864 206.902999 
L 498.600125 206.902999 
L 499.335386 203.080074 
L 500.070646 210.725925 
L 500.070646 210.725925 
" style="fill:none;stroke:#1f77b4;stroke-linecap:square;stroke-width:1.5;"/>
   </g>
   <g id="line2d_17">
    <path clip-path="url(#pec22fdc758)" d="M 109.656009 348.351241 
L 110.391269 352.174167 
L 117.743877 352.174167 
L 118.479138 348.351241 
L 119.214398 352.174167 
L 119.949659 348.351241 
L 120.68492 348.351241 
L 121.420181 344.528316 
L 122.155441 348.351241 
L 122.890702 348.351241 
L 123.625963 352.174167 
L 132.449092 352.174167 
L 133.919614 344.528316 
L 135.390135 352.174167 
L 163.330044 352.174167 
L 164.065304 344.528316 
L 164.800565 352.174167 
L 165.535826 348.351241 
L 166.271087 352.174167 
L 178.035259 352.174167 
L 179.50578 344.528316 
L 180.241041 352.174167 
L 193.475735 352.174167 
L 194.210995 348.351241 
L 194.946256 352.174167 
L 208.916211 352.174167 
L 209.651471 348.351241 
L 210.386732 352.174167 
L 211.857254 344.528316 
L 213.327775 344.528316 
L 214.063036 348.351241 
L 214.798297 348.351241 
L 215.533557 352.174167 
L 225.827208 352.174167 
L 226.562469 344.528316 
L 227.297729 344.528316 
L 228.768251 352.174167 
L 239.061901 352.174167 
L 239.797162 348.351241 
L 240.532423 348.351241 
L 241.267684 344.528316 
L 242.002945 352.174167 
L 242.738205 352.174167 
L 243.473466 348.351241 
L 244.208727 352.174167 
L 254.502377 352.174167 
L 255.237638 348.351241 
L 255.972899 352.174167 
L 269.207592 352.174167 
L 269.942853 348.351241 
L 270.678114 352.174167 
L 271.413375 348.351241 
L 272.883896 348.351241 
L 273.619157 344.528316 
L 275.089678 352.174167 
L 275.824939 348.351241 
L 277.295461 348.351241 
L 278.030721 344.528316 
L 279.501243 352.174167 
L 284.648068 352.174167 
L 285.383329 348.351241 
L 286.11859 348.351241 
L 286.853851 344.528316 
L 287.589111 344.528316 
L 288.324372 348.351241 
L 289.059633 348.351241 
L 289.794894 352.174167 
L 290.530154 352.174167 
L 291.265415 348.351241 
L 292.000676 352.174167 
L 292.735937 352.174167 
L 293.471197 348.351241 
L 294.206458 352.174167 
L 294.941719 344.528316 
L 295.67698 340.70539 
L 296.41224 344.528316 
L 297.147501 344.528316 
L 297.882762 348.351241 
L 301.559066 348.351241 
L 302.294326 340.70539 
L 304.500109 340.70539 
L 305.235369 352.174167 
L 308.911673 352.174167 
L 309.646934 348.351241 
L 310.382195 340.70539 
L 311.117455 344.528316 
L 311.852716 340.70539 
L 312.587977 344.528316 
L 314.058498 344.528316 
L 314.793759 348.351241 
L 315.52902 348.351241 
L 316.264281 352.174167 
L 317.734802 344.528316 
L 318.470063 344.528316 
L 319.205324 352.174167 
L 325.08741 352.174167 
L 325.822671 348.351241 
L 328.763714 348.351241 
L 329.498974 352.174167 
L 330.234235 352.174167 
L 330.969496 348.351241 
L 331.704757 352.174167 
L 338.322103 352.174167 
L 339.057364 348.351241 
L 339.792625 352.174167 
L 347.145232 352.174167 
L 347.880493 348.351241 
L 350.821536 348.351241 
L 351.556797 344.528316 
L 352.292058 348.351241 
L 353.027319 348.351241 
L 353.762579 352.174167 
L 361.850448 352.174167 
L 362.585708 344.528316 
L 364.05623 344.528316 
L 364.791491 348.351241 
L 365.526751 344.528316 
L 366.262012 336.882465 
L 366.997273 352.174167 
L 379.496706 352.174167 
L 380.231966 348.351241 
L 380.967227 352.174167 
L 381.702488 344.528316 
L 383.173009 344.528316 
L 383.90827 348.351241 
L 386.114052 348.351241 
L 386.849313 352.174167 
L 397.142964 352.174167 
L 398.613485 344.528316 
L 399.348746 344.528316 
L 400.084007 348.351241 
L 400.819268 344.528316 
L 401.554528 352.174167 
L 402.289789 344.528316 
L 403.760311 344.528316 
L 405.230832 352.174167 
L 411.112918 352.174167 
L 411.848179 348.351241 
L 412.58344 352.174167 
L 413.3187 344.528316 
L 414.789222 344.528316 
L 415.524483 340.70539 
L 416.259743 340.70539 
L 416.995004 352.174167 
L 425.082873 352.174167 
L 425.818133 348.351241 
L 427.288655 348.351241 
L 428.023916 352.174167 
L 428.759176 352.174167 
L 430.229698 344.528316 
L 430.964959 344.528316 
L 431.700219 352.174167 
L 439.788088 352.174167 
L 440.523348 348.351241 
L 441.99387 348.351241 
L 442.729131 352.174167 
L 445.670174 352.174167 
L 446.405434 348.351241 
L 447.140695 348.351241 
L 447.875956 344.528316 
L 448.611217 348.351241 
L 450.816999 348.351241 
L 451.55226 352.174167 
L 453.022781 352.174167 
L 453.758042 348.351241 
L 454.493303 352.174167 
L 460.375389 352.174167 
L 461.110649 348.351241 
L 461.84591 352.174167 
L 462.581171 348.351241 
L 464.051693 348.351241 
L 464.786953 352.174167 
L 467.727996 352.174167 
L 468.463257 348.351241 
L 469.198518 352.174167 
L 475.815865 352.174167 
L 476.551125 348.351241 
L 477.286386 352.174167 
L 480.227429 352.174167 
L 480.96269 348.351241 
L 481.697951 352.174167 
L 490.52108 352.174167 
L 491.25634 348.351241 
L 491.991601 348.351241 
L 492.726862 352.174167 
L 505.961556 352.174167 
L 505.961556 352.174167 
" style="fill:none;stroke:#ff7f0e;stroke-linecap:square;stroke-width:1.5;"/>
   </g>
   <g id="line2d_18">
    <path clip-path="url(#pec22fdc758)" d="M 106.744376 283.361508 
L 107.479637 237.486403 
L 108.214898 241.309328 
L 108.950158 237.486403 
L 110.42068 245.132254 
L 111.155941 241.309328 
L 111.891201 229.840552 
L 113.361723 229.840552 
L 114.096984 222.194701 
L 114.832244 222.194701 
L 115.567505 210.725925 
L 116.302766 210.725925 
L 117.773287 203.080074 
L 118.508548 157.204968 
L 119.243809 153.382043 
L 119.97907 161.027894 
L 121.449591 161.027894 
L 122.920113 153.382043 
L 123.655373 157.204968 
L 124.390634 164.850819 
L 125.125895 168.673745 
L 125.861156 180.142521 
L 126.596416 168.673745 
L 127.331677 168.673745 
L 128.066938 172.49667 
L 128.802199 180.142521 
L 129.537459 183.965447 
L 130.27272 183.965447 
L 131.007981 195.434223 
L 131.743242 195.434223 
L 132.478502 199.257148 
L 133.213763 268.069807 
L 133.949024 199.257148 
L 134.684285 195.434223 
L 135.419545 199.257148 
L 136.154806 206.902999 
L 136.890067 206.902999 
L 137.625328 203.080074 
L 138.360588 203.080074 
L 139.095849 191.611297 
L 139.83111 187.788372 
L 140.566371 180.142521 
L 142.036892 195.434223 
L 142.772153 199.257148 
L 143.507414 195.434223 
L 144.242675 203.080074 
L 144.977935 203.080074 
L 145.713196 210.725925 
L 146.448457 210.725925 
L 147.183718 206.902999 
L 147.918978 206.902999 
L 148.654239 271.892732 
L 149.3895 210.725925 
L 150.124761 214.54885 
L 150.860021 210.725925 
L 151.595282 203.080074 
L 152.330543 191.611297 
L 153.065804 191.611297 
L 153.801064 183.965447 
L 155.271586 183.965447 
L 156.006847 180.142521 
L 157.477368 180.142521 
L 158.94789 187.788372 
L 159.68315 195.434223 
L 161.153672 195.434223 
L 162.624193 187.788372 
L 163.359454 245.132254 
L 164.094715 291.007359 
L 164.829976 222.194701 
L 165.565236 218.371776 
L 168.506279 218.371776 
L 169.24154 210.725925 
L 170.712062 203.080074 
L 171.447322 210.725925 
L 172.182583 206.902999 
L 172.917844 206.902999 
L 173.653105 203.080074 
L 174.388365 210.725925 
L 175.123626 226.017627 
L 175.858887 229.840552 
L 177.329408 222.194701 
L 178.064669 222.194701 
L 178.79993 275.715658 
L 179.535191 210.725925 
L 181.005712 203.080074 
L 181.740973 206.902999 
L 182.476234 206.902999 
L 183.211495 203.080074 
L 183.946755 203.080074 
L 184.682016 199.257148 
L 185.417277 199.257148 
L 186.887798 191.611297 
L 187.623059 195.434223 
L 189.093581 195.434223 
L 189.828841 191.611297 
L 190.564102 183.965447 
L 192.769884 183.965447 
L 193.505145 180.142521 
L 194.240406 256.60103 
L 194.975667 161.027894 
L 195.710927 161.027894 
L 196.446188 157.204968 
L 197.181449 157.204968 
L 197.91671 172.49667 
L 198.65197 180.142521 
L 199.387231 183.965447 
L 200.122492 180.142521 
L 200.857753 195.434223 
L 201.593013 195.434223 
L 203.063535 187.788372 
L 203.798796 187.788372 
L 204.534056 183.965447 
L 205.269317 191.611297 
L 206.004578 187.788372 
L 206.739839 191.611297 
L 207.475099 191.611297 
L 208.21036 187.788372 
L 208.945621 248.955179 
L 209.680882 172.49667 
L 210.416142 141.913267 
L 211.151403 149.559117 
L 211.886664 149.559117 
L 212.621925 145.736192 
L 213.357185 157.204968 
L 214.092446 161.027894 
L 215.562968 161.027894 
L 216.298229 176.319596 
L 217.033489 172.49667 
L 217.76875 172.49667 
L 218.504011 187.788372 
L 219.239272 191.611297 
L 219.974532 191.611297 
L 220.709793 199.257148 
L 221.445054 203.080074 
L 222.180315 199.257148 
L 222.915575 203.080074 
L 223.650836 203.080074 
L 224.386097 260.423956 
L 225.121358 161.027894 
L 225.856618 176.319596 
L 226.591879 183.965447 
L 227.32714 176.319596 
L 228.062401 176.319596 
L 228.797661 183.965447 
L 229.532922 183.965447 
L 230.268183 187.788372 
L 231.738704 187.788372 
L 233.209226 180.142521 
L 233.944487 187.788372 
L 234.679747 187.788372 
L 235.415008 191.611297 
L 236.88553 191.611297 
L 237.62079 195.434223 
L 238.356051 191.611297 
L 239.091312 226.017627 
L 239.826573 310.121987 
L 240.561833 233.663477 
L 242.032355 226.017627 
L 242.767616 229.840552 
L 244.238137 229.840552 
L 244.973398 237.486403 
L 245.708659 233.663477 
L 246.443919 233.663477 
L 247.17918 229.840552 
L 247.914441 218.371776 
L 248.649702 218.371776 
L 249.384962 222.194701 
L 250.120223 229.840552 
L 250.855484 222.194701 
L 252.326006 229.840552 
L 253.796527 229.840552 
L 254.531788 260.423956 
L 255.267049 233.663477 
L 256.002309 199.257148 
L 256.73757 199.257148 
L 257.472831 195.434223 
L 258.208092 187.788372 
L 259.678613 195.434223 
L 260.413874 195.434223 
L 261.884395 203.080074 
L 262.619656 210.725925 
L 263.354917 210.725925 
L 264.090178 206.902999 
L 264.825438 199.257148 
L 265.560699 199.257148 
L 266.29596 203.080074 
L 268.501742 191.611297 
L 269.237003 191.611297 
L 269.972264 252.778105 
L 270.707524 153.382043 
L 271.442785 164.850819 
L 272.178046 168.673745 
L 272.913307 161.027894 
L 274.383828 168.673745 
L 275.119089 161.027894 
L 275.85435 164.850819 
L 278.060132 164.850819 
L 279.530653 172.49667 
L 280.265914 172.49667 
L 281.001175 183.965447 
L 282.471696 191.611297 
L 283.942218 206.902999 
L 284.677479 206.902999 
L 285.412739 157.204968 
L 286.148 149.559117 
L 286.883261 157.204968 
L 287.618522 161.027894 
L 288.353782 157.204968 
L 289.089043 164.850819 
L 290.559565 172.49667 
L 291.294826 168.673745 
L 292.030086 161.027894 
L 292.765347 248.955179 
L 293.500608 287.184434 
L 294.235869 241.309328 
L 294.971129 248.955179 
L 295.70639 245.132254 
L 296.441651 245.132254 
L 297.176912 248.955179 
L 297.912172 237.486403 
L 298.647433 237.486403 
L 299.382694 226.017627 
L 300.117955 210.725925 
L 300.853215 134.267416 
L 301.588476 145.736192 
L 303.058998 153.382043 
L 304.529519 153.382043 
L 305.26478 149.559117 
L 307.470562 161.027894 
L 308.205823 260.423956 
L 308.941084 279.538583 
L 309.676344 256.60103 
L 310.411605 260.423956 
L 311.146866 256.60103 
L 312.617387 264.246881 
L 314.82317 252.778105 
L 315.55843 199.257148 
L 316.293691 157.204968 
L 317.028952 168.673745 
L 318.499473 168.673745 
L 319.234734 164.850819 
L 319.969995 168.673745 
L 320.705256 176.319596 
L 321.440516 180.142521 
L 322.175777 180.142521 
L 322.911038 183.965447 
L 323.646299 287.184434 
L 324.381559 260.423956 
L 325.11682 256.60103 
L 325.852081 260.423956 
L 327.322603 260.423956 
L 328.057863 264.246881 
L 328.793124 256.60103 
L 329.528385 233.663477 
L 330.263646 218.371776 
L 330.998906 172.49667 
L 331.734167 172.49667 
L 332.469428 176.319596 
L 333.204689 176.319596 
L 333.939949 180.142521 
L 334.67521 180.142521 
L 335.410471 191.611297 
L 336.145732 199.257148 
L 337.616253 206.902999 
L 338.351514 203.080074 
L 339.086775 291.007359 
L 339.822035 245.132254 
L 341.292557 229.840552 
L 342.027818 226.017627 
L 342.763078 229.840552 
L 343.498339 226.017627 
L 344.968861 226.017627 
L 345.704121 191.611297 
L 346.439382 138.090341 
L 347.174643 161.027894 
L 350.115686 161.027894 
L 350.850947 157.204968 
L 351.586207 161.027894 
L 352.321468 172.49667 
L 353.056729 172.49667 
L 353.79199 176.319596 
L 354.52725 172.49667 
L 355.262511 176.319596 
L 355.997772 176.319596 
L 356.733033 180.142521 
L 357.468293 187.788372 
L 358.203554 191.611297 
L 358.938815 203.080074 
L 359.674076 206.902999 
L 360.409336 214.54885 
L 361.144597 161.027894 
L 361.879858 141.913267 
L 362.615119 164.850819 
L 363.35038 168.673745 
L 364.08564 168.673745 
L 364.820901 164.850819 
L 365.556162 176.319596 
L 366.291423 294.830285 
L 367.026683 245.132254 
L 367.761944 226.017627 
L 368.497205 226.017627 
L 370.702987 237.486403 
L 371.438248 233.663477 
L 372.173509 222.194701 
L 372.908769 214.54885 
L 373.64403 210.725925 
L 374.379291 210.725925 
L 375.114552 214.54885 
L 375.849812 210.725925 
L 376.585073 210.725925 
L 378.055595 203.080074 
L 378.790855 206.902999 
L 379.526116 214.54885 
L 380.261377 161.027894 
L 380.996638 222.194701 
L 381.731898 199.257148 
L 382.467159 149.559117 
L 383.20242 149.559117 
L 383.937681 153.382043 
L 384.672941 153.382043 
L 385.408202 161.027894 
L 386.143463 164.850819 
L 386.878724 176.319596 
L 387.613984 180.142521 
L 388.349245 187.788372 
L 389.819767 180.142521 
L 390.555027 187.788372 
L 391.290288 183.965447 
L 392.025549 191.611297 
L 392.76081 187.788372 
L 393.49607 180.142521 
L 394.231331 183.965447 
L 394.966592 180.142521 
L 395.701853 183.965447 
L 396.437113 306.299061 
L 397.172374 248.955179 
L 397.907635 245.132254 
L 398.642896 248.955179 
L 399.378157 245.132254 
L 400.113417 233.663477 
L 400.848678 126.621565 
L 401.583939 172.49667 
L 402.3192 183.965447 
L 403.05446 180.142521 
L 403.789721 180.142521 
L 404.524982 176.319596 
L 405.260243 180.142521 
L 405.995503 191.611297 
L 407.466025 206.902999 
L 408.936546 199.257148 
L 409.671807 206.902999 
L 410.407068 206.902999 
L 411.142329 203.080074 
L 411.877589 329.236614 
L 412.61285 256.60103 
L 413.348111 260.423956 
L 414.083372 256.60103 
L 414.818632 256.60103 
L 415.553893 245.132254 
L 416.289154 183.965447 
L 417.024415 180.142521 
L 417.759675 187.788372 
L 418.494936 199.257148 
L 419.230197 203.080074 
L 419.965458 199.257148 
L 420.700718 206.902999 
L 422.17124 214.54885 
L 423.641761 214.54885 
L 424.377022 218.371776 
L 425.112283 218.371776 
L 425.847544 210.725925 
L 426.582804 210.725925 
L 427.318065 344.528316 
L 428.053326 268.069807 
L 428.788587 260.423956 
L 429.523847 260.423956 
L 430.259108 264.246881 
L 431.72963 195.434223 
L 432.46489 187.788372 
L 433.200151 183.965447 
L 433.935412 183.965447 
L 435.405934 191.611297 
L 436.141194 199.257148 
L 436.876455 203.080074 
L 437.611716 214.54885 
L 438.346977 210.725925 
L 442.758541 210.725925 
L 444.229063 218.371776 
L 444.964323 218.371776 
L 445.699584 195.434223 
L 446.434845 141.913267 
L 447.170106 157.204968 
L 448.640627 164.850819 
L 449.375888 157.204968 
L 450.111149 161.027894 
L 450.846409 161.027894 
L 451.58167 164.850819 
L 452.316931 172.49667 
L 453.052192 176.319596 
L 453.787452 176.319596 
L 454.522713 180.142521 
L 455.257974 180.142521 
L 455.993235 191.611297 
L 456.728495 187.788372 
L 457.463756 180.142521 
L 458.934278 180.142521 
L 459.669538 183.965447 
L 460.404799 245.132254 
L 461.14006 237.486403 
L 461.875321 176.319596 
L 462.610581 183.965447 
L 463.345842 180.142521 
L 464.081103 183.965447 
L 464.816364 183.965447 
L 465.551624 191.611297 
L 467.757407 191.611297 
L 468.492667 199.257148 
L 469.227928 191.611297 
L 470.69845 183.965447 
L 471.43371 176.319596 
L 472.904232 199.257148 
L 473.639493 203.080074 
L 474.374754 203.080074 
L 475.110014 206.902999 
L 475.845275 283.361508 
L 476.580536 237.486403 
L 477.315797 222.194701 
L 478.051057 218.371776 
L 479.521579 203.080074 
L 481.727361 203.080074 
L 483.197883 187.788372 
L 483.933143 191.611297 
L 484.668404 180.142521 
L 485.403665 183.965447 
L 486.138926 195.434223 
L 487.609447 203.080074 
L 489.815229 203.080074 
L 490.55049 199.257148 
L 491.285751 317.767838 
L 492.021012 233.663477 
L 492.756272 226.017627 
L 494.226794 218.371776 
L 495.697315 203.080074 
L 496.432576 199.257148 
L 497.167837 199.257148 
L 497.903098 203.080074 
L 499.373619 203.080074 
L 500.10888 199.257148 
L 501.579401 183.965447 
L 502.314662 187.788372 
L 503.049923 183.965447 
L 503.785184 203.080074 
L 503.785184 203.080074 
" style="fill:none;stroke:#2ca02c;stroke-linecap:square;stroke-width:1.5;"/>
   </g>
   <g id="line2d_19">
    <path clip-path="url(#pec22fdc758)" d="M 112.579405 348.351241 
L 113.314666 352.174167 
L 119.196752 352.174167 
L 120.667274 344.528316 
L 121.402534 348.351241 
L 122.137795 344.528316 
L 122.873056 348.351241 
L 123.608317 348.351241 
L 124.343577 352.174167 
L 131.696185 352.174167 
L 132.431446 348.351241 
L 133.166707 340.70539 
L 133.901967 340.70539 
L 134.637228 344.528316 
L 135.372489 352.174167 
L 150.077704 352.174167 
L 150.812965 348.351241 
L 151.548225 348.351241 
L 152.283486 352.174167 
L 154.489268 352.174167 
L 155.224529 348.351241 
L 155.95979 352.174167 
L 158.165572 352.174167 
L 158.900833 348.351241 
L 159.636094 352.174167 
L 177.282352 352.174167 
L 178.017613 348.351241 
L 178.752873 348.351241 
L 179.488134 344.528316 
L 180.958656 352.174167 
L 186.840742 352.174167 
L 187.576002 348.351241 
L 188.311263 348.351241 
L 189.046524 352.174167 
L 193.458088 352.174167 
L 194.193349 348.351241 
L 194.92861 352.174167 
L 208.898564 352.174167 
L 209.633825 344.528316 
L 210.369086 352.174167 
L 211.104347 344.528316 
L 211.839607 348.351241 
L 212.574868 348.351241 
L 213.310129 344.528316 
L 214.78065 352.174167 
L 225.074301 352.174167 
L 226.544822 344.528316 
L 227.280083 348.351241 
L 228.015344 344.528316 
L 228.750605 344.528316 
L 229.485865 352.174167 
L 239.044255 352.174167 
L 239.779516 348.351241 
L 240.514777 352.174167 
L 254.484731 352.174167 
L 255.219992 348.351241 
L 255.955253 352.174167 
L 262.572599 352.174167 
L 263.30786 348.351241 
L 264.043121 352.174167 
L 270.660468 352.174167 
L 271.395728 348.351241 
L 272.130989 340.70539 
L 272.86625 348.351241 
L 273.601511 348.351241 
L 274.336771 352.174167 
L 275.807293 352.174167 
L 276.542554 348.351241 
L 277.277814 352.174167 
L 278.013075 348.351241 
L 279.483597 348.351241 
L 280.218858 352.174167 
L 284.630422 352.174167 
L 285.365683 348.351241 
L 286.100944 352.174167 
L 286.836204 352.174167 
L 287.571465 348.351241 
L 288.306726 348.351241 
L 289.041987 352.174167 
L 289.777247 352.174167 
L 290.512508 348.351241 
L 291.247769 352.174167 
L 294.188812 352.174167 
L 294.924073 344.528316 
L 295.659333 348.351241 
L 298.600376 348.351241 
L 299.335637 344.528316 
L 300.070898 348.351241 
L 300.806159 348.351241 
L 301.541419 352.174167 
L 302.27668 348.351241 
L 304.482462 348.351241 
L 305.217723 352.174167 
L 308.158766 352.174167 
L 308.894027 348.351241 
L 309.629288 352.174167 
L 310.364548 348.351241 
L 311.099809 352.174167 
L 311.83507 344.528316 
L 314.040852 344.528316 
L 314.776113 348.351241 
L 315.511374 348.351241 
L 316.246635 352.174167 
L 318.452417 340.70539 
L 319.187678 348.351241 
L 319.922938 348.351241 
L 320.658199 352.174167 
L 321.39346 352.174167 
L 322.128721 348.351241 
L 322.863981 352.174167 
L 324.334503 352.174167 
L 325.069764 348.351241 
L 326.540285 348.351241 
L 327.275546 344.528316 
L 328.010807 344.528316 
L 329.481328 352.174167 
L 347.127586 352.174167 
L 347.862847 344.528316 
L 350.068629 344.528316 
L 350.80389 348.351241 
L 351.539151 348.351241 
L 352.274411 340.70539 
L 354.480194 352.174167 
L 355.215455 348.351241 
L 355.950715 352.174167 
L 360.36228 352.174167 
L 361.097541 348.351241 
L 361.832801 348.351241 
L 362.568062 352.174167 
L 363.303323 344.528316 
L 364.038584 344.528316 
L 364.773844 348.351241 
L 365.509105 344.528316 
L 366.244366 344.528316 
L 366.979627 352.174167 
L 379.479059 352.174167 
L 380.21432 348.351241 
L 380.949581 352.174167 
L 381.684842 344.528316 
L 382.420102 344.528316 
L 383.155363 348.351241 
L 383.890624 344.528316 
L 384.625885 348.351241 
L 385.361145 348.351241 
L 386.096406 352.174167 
L 396.390057 352.174167 
L 397.125318 348.351241 
L 397.860578 352.174167 
L 398.595839 344.528316 
L 399.3311 348.351241 
L 400.801621 340.70539 
L 401.536882 348.351241 
L 402.272143 340.70539 
L 403.007404 340.70539 
L 403.742664 344.528316 
L 404.477925 352.174167 
L 411.095272 352.174167 
L 411.830533 348.351241 
L 412.565793 348.351241 
L 413.301054 352.174167 
L 414.771576 344.528316 
L 415.506836 344.528316 
L 416.242097 348.351241 
L 416.977358 348.351241 
L 417.712619 352.174167 
L 426.535748 352.174167 
L 427.271009 348.351241 
L 428.006269 352.174167 
L 429.476791 344.528316 
L 430.212052 344.528316 
L 430.947312 336.882465 
L 431.682573 348.351241 
L 432.417834 352.174167 
L 439.770441 352.174167 
L 440.505702 348.351241 
L 441.976224 348.351241 
L 442.711484 352.174167 
L 446.387788 352.174167 
L 448.59357 340.70539 
L 450.064092 348.351241 
L 450.799353 344.528316 
L 451.534613 352.174167 
L 455.210917 352.174167 
L 455.946178 348.351241 
L 456.681439 352.174167 
L 461.828264 352.174167 
L 463.298786 344.528316 
L 464.034046 344.528316 
L 465.504568 352.174167 
L 466.239829 348.351241 
L 466.975089 348.351241 
L 467.71035 352.174167 
L 490.503433 352.174167 
L 491.238694 348.351241 
L 491.973955 352.174167 
L 503.002866 352.174167 
L 503.738127 348.351241 
L 504.473388 352.174167 
L 509.620213 352.174167 
L 509.620213 352.174167 
" style="fill:none;stroke:#d62728;stroke-linecap:square;stroke-width:1.5;"/>
   </g>
   <g id="patch_3">
    <path d="M 83.472344 352.174167 
L 83.472344 35.0625 
" style="fill:none;stroke:#000000;stroke-linecap:square;stroke-linejoin:miter;stroke-width:0.8;"/>
   </g>
   <g id="patch_4">
    <path d="M 529.912969 352.174167 
L 529.912969 35.0625 
" style="fill:none;stroke:#000000;stroke-linecap:square;stroke-linejoin:miter;stroke-width:0.8;"/>
   </g>
   <g id="patch_5">
    <path d="M 83.472344 352.174167 
L 529.912969 352.174167 
" style="fill:none;stroke:#000000;stroke-linecap:square;stroke-linejoin:miter;stroke-width:0.8;"/>
   </g>
   <g id="patch_6">
    <path d="M 83.472344 35.0625 
L 529.912969 35.0625 
" style="fill:none;stroke:#000000;stroke-linecap:square;stroke-linejoin:miter;stroke-width:0.8;"/>
   </g>
   <g id="legend_1">
    <g id="patch_7">
     <path d="M 554.235 96.775 
L 625.430312 96.775 
Q 627.430312 96.775 627.430312 94.775 
L 627.430312 37.0625 
Q 627.430312 35.0625 625.430312 35.0625 
L 554.235 35.0625 
Q 552.235 35.0625 552.235 37.0625 
L 552.235 94.775 
Q 552.235 96.775 554.235 96.775 
z
" style="fill:#ffffff;opacity:0.8;stroke:#cccccc;stroke-linejoin:miter;"/>
    </g>
    <g id="line2d_20">
     <path d="M 556.235 43.160937 
L 576.235 43.160937 
" style="fill:none;stroke:#1f77b4;stroke-linecap:square;stroke-width:1.5;"/>
    </g>
    <g id="line2d_21"/>
    <g id="text_17">
     <!-- bbr-pi -->
     <defs>
      <path d="M 4.890625 31.390625 
L 31.203125 31.390625 
L 31.203125 23.390625 
L 4.890625 23.390625 
z
" id="DejaVuSans-45"/>
     </defs>
     <g transform="translate(584.235 46.660937)scale(0.1 -0.1)">
      <use xlink:href="#DejaVuSans-98"/>
      <use x="63.476562" xlink:href="#DejaVuSans-98"/>
      <use x="126.953125" xlink:href="#DejaVuSans-114"/>
      <use x="167.972656" xlink:href="#DejaVuSans-45"/>
      <use x="204.056641" xlink:href="#DejaVuSans-112"/>
      <use x="267.533203" xlink:href="#DejaVuSans-105"/>
     </g>
    </g>
    <g id="line2d_22">
     <path d="M 556.235 57.839063 
L 576.235 57.839063 
" style="fill:none;stroke:#ff7f0e;stroke-linecap:square;stroke-width:1.5;"/>
    </g>
    <g id="line2d_23"/>
    <g id="text_18">
     <!-- cubic-pi -->
     <g transform="translate(584.235 61.339063)scale(0.1 -0.1)">
      <use xlink:href="#DejaVuSans-99"/>
      <use x="54.980469" xlink:href="#DejaVuSans-117"/>
      <use x="118.359375" xlink:href="#DejaVuSans-98"/>
      <use x="181.835938" xlink:href="#DejaVuSans-105"/>
      <use x="209.619141" xlink:href="#DejaVuSans-99"/>
      <use x="264.599609" xlink:href="#DejaVuSans-45"/>
      <use x="300.683594" xlink:href="#DejaVuSans-112"/>
      <use x="364.160156" xlink:href="#DejaVuSans-105"/>
     </g>
    </g>
    <g id="line2d_24">
     <path d="M 556.235 72.517187 
L 576.235 72.517187 
" style="fill:none;stroke:#2ca02c;stroke-linecap:square;stroke-width:1.5;"/>
    </g>
    <g id="line2d_25"/>
    <g id="text_19">
     <!-- bbr-pi -->
     <g transform="translate(584.235 76.017187)scale(0.1 -0.1)">
      <use xlink:href="#DejaVuSans-98"/>
      <use x="63.476562" xlink:href="#DejaVuSans-98"/>
      <use x="126.953125" xlink:href="#DejaVuSans-114"/>
      <use x="167.972656" xlink:href="#DejaVuSans-45"/>
      <use x="204.056641" xlink:href="#DejaVuSans-112"/>
      <use x="267.533203" xlink:href="#DejaVuSans-105"/>
     </g>
    </g>
    <g id="line2d_26">
     <path d="M 556.235 87.195312 
L 576.235 87.195312 
" style="fill:none;stroke:#d62728;stroke-linecap:square;stroke-width:1.5;"/>
    </g>
    <g id="line2d_27"/>
    <g id="text_20">
     <!-- cubic-pi -->
     <g transform="translate(584.235 90.695312)scale(0.1 -0.1)">
      <use xlink:href="#DejaVuSans-99"/>
      <use x="54.980469" xlink:href="#DejaVuSans-117"/>
      <use x="118.359375" xlink:href="#DejaVuSans-98"/>
      <use x="181.835938" xlink:href="#DejaVuSans-105"/>
      <use x="209.619141" xlink:href="#DejaVuSans-99"/>
      <use x="264.599609" xlink:href="#DejaVuSans-45"/>
      <use x="300.683594" xlink:href="#DejaVuSans-112"/>
      <use x="364.160156" xlink:href="#DejaVuSans-105"/>
     </g>
    </g>
   </g>
  </g>
  <g id="text_21">
   <!-- result throughput -->
   <defs>
    <path d="M 9.421875 75.984375 
L 18.40625 75.984375 
L 18.40625 0 
L 9.421875 0 
z
" id="DejaVuSans-108"/>
   </defs>
   <g transform="translate(289.320938 17.038125)scale(0.12 -0.12)">
    <use xlink:href="#DejaVuSans-114"/>
    <use x="41.082031" xlink:href="#DejaVuSans-101"/>
    <use x="102.605469" xlink:href="#DejaVuSans-115"/>
    <use x="154.705078" xlink:href="#DejaVuSans-117"/>
    <use x="218.083984" xlink:href="#DejaVuSans-108"/>
    <use x="245.867188" xlink:href="#DejaVuSans-116"/>
    <use x="285.076172" xlink:href="#DejaVuSans-32"/>
    <use x="316.863281" xlink:href="#DejaVuSans-116"/>
    <use x="356.072266" xlink:href="#DejaVuSans-104"/>
    <use x="419.451172" xlink:href="#DejaVuSans-114"/>
    <use x="460.533203" xlink:href="#DejaVuSans-111"/>
    <use x="521.714844" xlink:href="#DejaVuSans-117"/>
    <use x="585.09375" xlink:href="#DejaVuSans-103"/>
    <use x="648.570312" xlink:href="#DejaVuSans-104"/>
    <use x="711.949219" xlink:href="#DejaVuSans-112"/>
    <use x="775.425781" xlink:href="#DejaVuSans-117"/>
    <use x="838.804688" xlink:href="#DejaVuSans-116"/>
   </g>
  </g>
 </g>
 <defs>
  <clipPath id="pec22fdc758">
   <rect height="317.111667" width="446.440625" x="83.472344" y="35.0625"/>
  </clipPath>
 </defs>
</svg>
