<?xml version="1.0" encoding="utf-8" standalone="no"?>
<!DOCTYPE svg PUBLIC "-//W3C//DTD SVG 1.1//EN"
  "http://www.w3.org/Graphics/SVG/1.1/DTD/svg11.dtd">
<!-- Created with matplotlib (https://matplotlib.org/) -->
<svg height="396pt" version="1.1" viewBox="0 0 684 396" width="684pt" xmlns="http://www.w3.org/2000/svg" xmlns:xlink="http://www.w3.org/1999/xlink">
 <defs>
  <style type="text/css">
*{stroke-linecap:butt;stroke-linejoin:round;}
  </style>
 </defs>
 <g id="figure_1">
  <g id="patch_1">
   <path d="M 0 396 
L 684 396 
L 684 0 
L 0 0 
z
" style="fill:#ffffff;"/>
  </g>
  <g id="axes_1">
   <g id="patch_2">
    <path d="M 80.185938 352.174167 
L 516.019219 352.174167 
L 516.019219 35.0625 
L 80.185938 35.0625 
z
" style="fill:#ffffff;"/>
   </g>
   <g id="matplotlib.axis_1">
    <g id="xtick_1">
     <g id="line2d_1">
      <defs>
       <path d="M 0 0 
L 0 3.5 
" id="mc2f9ee3024" style="stroke:#000000;stroke-width:0.8;"/>
      </defs>
      <g>
       <use style="stroke:#000000;stroke-width:0.8;" x="104.936092" xlink:href="#mc2f9ee3024" y="352.174167"/>
      </g>
     </g>
     <g id="text_1">
      <!-- 0 -->
      <defs>
       <path d="M 31.78125 66.40625 
Q 24.171875 66.40625 20.328125 58.90625 
Q 16.5 51.421875 16.5 36.375 
Q 16.5 21.390625 20.328125 13.890625 
Q 24.171875 6.390625 31.78125 6.390625 
Q 39.453125 6.390625 43.28125 13.890625 
Q 47.125 21.390625 47.125 36.375 
Q 47.125 51.421875 43.28125 58.90625 
Q 39.453125 66.40625 31.78125 66.40625 
z
M 31.78125 74.21875 
Q 44.046875 74.21875 50.515625 64.515625 
Q 56.984375 54.828125 56.984375 36.375 
Q 56.984375 17.96875 50.515625 8.265625 
Q 44.046875 -1.421875 31.78125 -1.421875 
Q 19.53125 -1.421875 13.0625 8.265625 
Q 6.59375 17.96875 6.59375 36.375 
Q 6.59375 54.828125 13.0625 64.515625 
Q 19.53125 74.21875 31.78125 74.21875 
z
" id="DejaVuSans-48"/>
      </defs>
      <g transform="translate(101.754842 366.772604)scale(0.1 -0.1)">
       <use xlink:href="#DejaVuSans-48"/>
      </g>
     </g>
    </g>
    <g id="xtick_2">
     <g id="line2d_2">
      <g>
       <use style="stroke:#000000;stroke-width:0.8;" x="174.107817" xlink:href="#mc2f9ee3024" y="352.174167"/>
      </g>
     </g>
     <g id="text_2">
      <!-- 50 -->
      <defs>
       <path d="M 10.796875 72.90625 
L 49.515625 72.90625 
L 49.515625 64.59375 
L 19.828125 64.59375 
L 19.828125 46.734375 
Q 21.96875 47.46875 24.109375 47.828125 
Q 26.265625 48.1875 28.421875 48.1875 
Q 40.625 48.1875 47.75 41.5 
Q 54.890625 34.8125 54.890625 23.390625 
Q 54.890625 11.625 47.5625 5.09375 
Q 40.234375 -1.421875 26.90625 -1.421875 
Q 22.3125 -1.421875 17.546875 -0.640625 
Q 12.796875 0.140625 7.71875 1.703125 
L 7.71875 11.625 
Q 12.109375 9.234375 16.796875 8.0625 
Q 21.484375 6.890625 26.703125 6.890625 
Q 35.15625 6.890625 40.078125 11.328125 
Q 45.015625 15.765625 45.015625 23.390625 
Q 45.015625 31 40.078125 35.4375 
Q 35.15625 39.890625 26.703125 39.890625 
Q 22.75 39.890625 18.8125 39.015625 
Q 14.890625 38.140625 10.796875 36.28125 
z
" id="DejaVuSans-53"/>
      </defs>
      <g transform="translate(167.745317 366.772604)scale(0.1 -0.1)">
       <use xlink:href="#DejaVuSans-53"/>
       <use x="63.623047" xlink:href="#DejaVuSans-48"/>
      </g>
     </g>
    </g>
    <g id="xtick_3">
     <g id="line2d_3">
      <g>
       <use style="stroke:#000000;stroke-width:0.8;" x="243.279543" xlink:href="#mc2f9ee3024" y="352.174167"/>
      </g>
     </g>
     <g id="text_3">
      <!-- 100 -->
      <defs>
       <path d="M 12.40625 8.296875 
L 28.515625 8.296875 
L 28.515625 63.921875 
L 10.984375 60.40625 
L 10.984375 69.390625 
L 28.421875 72.90625 
L 38.28125 72.90625 
L 38.28125 8.296875 
L 54.390625 8.296875 
L 54.390625 0 
L 12.40625 0 
z
" id="DejaVuSans-49"/>
      </defs>
      <g transform="translate(233.735793 366.772604)scale(0.1 -0.1)">
       <use xlink:href="#DejaVuSans-49"/>
       <use x="63.623047" xlink:href="#DejaVuSans-48"/>
       <use x="127.246094" xlink:href="#DejaVuSans-48"/>
      </g>
     </g>
    </g>
    <g id="xtick_4">
     <g id="line2d_4">
      <g>
       <use style="stroke:#000000;stroke-width:0.8;" x="312.451269" xlink:href="#mc2f9ee3024" y="352.174167"/>
      </g>
     </g>
     <g id="text_4">
      <!-- 150 -->
      <g transform="translate(302.907519 366.772604)scale(0.1 -0.1)">
       <use xlink:href="#DejaVuSans-49"/>
       <use x="63.623047" xlink:href="#DejaVuSans-53"/>
       <use x="127.246094" xlink:href="#DejaVuSans-48"/>
      </g>
     </g>
    </g>
    <g id="xtick_5">
     <g id="line2d_5">
      <g>
       <use style="stroke:#000000;stroke-width:0.8;" x="381.622994" xlink:href="#mc2f9ee3024" y="352.174167"/>
      </g>
     </g>
     <g id="text_5">
      <!-- 200 -->
      <defs>
       <path d="M 19.1875 8.296875 
L 53.609375 8.296875 
L 53.609375 0 
L 7.328125 0 
L 7.328125 8.296875 
Q 12.9375 14.109375 22.625 23.890625 
Q 32.328125 33.6875 34.8125 36.53125 
Q 39.546875 41.84375 41.421875 45.53125 
Q 43.3125 49.21875 43.3125 52.78125 
Q 43.3125 58.59375 39.234375 62.25 
Q 35.15625 65.921875 28.609375 65.921875 
Q 23.96875 65.921875 18.8125 64.3125 
Q 13.671875 62.703125 7.8125 59.421875 
L 7.8125 69.390625 
Q 13.765625 71.78125 18.9375 73 
Q 24.125 74.21875 28.421875 74.21875 
Q 39.75 74.21875 46.484375 68.546875 
Q 53.21875 62.890625 53.21875 53.421875 
Q 53.21875 48.921875 51.53125 44.890625 
Q 49.859375 40.875 45.40625 35.40625 
Q 44.1875 33.984375 37.640625 27.21875 
Q 31.109375 20.453125 19.1875 8.296875 
z
" id="DejaVuSans-50"/>
      </defs>
      <g transform="translate(372.079244 366.772604)scale(0.1 -0.1)">
       <use xlink:href="#DejaVuSans-50"/>
       <use x="63.623047" xlink:href="#DejaVuSans-48"/>
       <use x="127.246094" xlink:href="#DejaVuSans-48"/>
      </g>
     </g>
    </g>
    <g id="xtick_6">
     <g id="line2d_6">
      <g>
       <use style="stroke:#000000;stroke-width:0.8;" x="450.79472" xlink:href="#mc2f9ee3024" y="352.174167"/>
      </g>
     </g>
     <g id="text_6">
      <!-- 250 -->
      <g transform="translate(441.25097 366.772604)scale(0.1 -0.1)">
       <use xlink:href="#DejaVuSans-50"/>
       <use x="63.623047" xlink:href="#DejaVuSans-53"/>
       <use x="127.246094" xlink:href="#DejaVuSans-48"/>
      </g>
     </g>
    </g>
   </g>
   <g id="matplotlib.axis_2">
    <g id="ytick_1">
     <g id="line2d_7">
      <defs>
       <path d="M 0 0 
L -3.5 0 
" id="m0e59b87648" style="stroke:#000000;stroke-width:0.8;"/>
      </defs>
      <g>
       <use style="stroke:#000000;stroke-width:0.8;" x="80.185938" xlink:href="#m0e59b87648" y="352.174167"/>
      </g>
     </g>
     <g id="text_7">
      <!-- 0.0 -->
      <defs>
       <path d="M 10.6875 12.40625 
L 21 12.40625 
L 21 0 
L 10.6875 0 
z
" id="DejaVuSans-46"/>
      </defs>
      <g transform="translate(57.282813 355.973385)scale(0.1 -0.1)">
       <use xlink:href="#DejaVuSans-48"/>
       <use x="63.623047" xlink:href="#DejaVuSans-46"/>
       <use x="95.410156" xlink:href="#DejaVuSans-48"/>
      </g>
     </g>
    </g>
    <g id="ytick_2">
     <g id="line2d_8">
      <g>
       <use style="stroke:#000000;stroke-width:0.8;" x="80.185938" xlink:href="#m0e59b87648" y="309.771807"/>
      </g>
     </g>
     <g id="text_8">
      <!-- 2.5 -->
      <g transform="translate(57.282813 313.571025)scale(0.1 -0.1)">
       <use xlink:href="#DejaVuSans-50"/>
       <use x="63.623047" xlink:href="#DejaVuSans-46"/>
       <use x="95.410156" xlink:href="#DejaVuSans-53"/>
      </g>
     </g>
    </g>
    <g id="ytick_3">
     <g id="line2d_9">
      <g>
       <use style="stroke:#000000;stroke-width:0.8;" x="80.185938" xlink:href="#m0e59b87648" y="267.369447"/>
      </g>
     </g>
     <g id="text_9">
      <!-- 5.0 -->
      <g transform="translate(57.282813 271.168665)scale(0.1 -0.1)">
       <use xlink:href="#DejaVuSans-53"/>
       <use x="63.623047" xlink:href="#DejaVuSans-46"/>
       <use x="95.410156" xlink:href="#DejaVuSans-48"/>
      </g>
     </g>
    </g>
    <g id="ytick_4">
     <g id="line2d_10">
      <g>
       <use style="stroke:#000000;stroke-width:0.8;" x="80.185938" xlink:href="#m0e59b87648" y="224.967087"/>
      </g>
     </g>
     <g id="text_10">
      <!-- 7.5 -->
      <defs>
       <path d="M 8.203125 72.90625 
L 55.078125 72.90625 
L 55.078125 68.703125 
L 28.609375 0 
L 18.3125 0 
L 43.21875 64.59375 
L 8.203125 64.59375 
z
" id="DejaVuSans-55"/>
      </defs>
      <g transform="translate(57.282813 228.766305)scale(0.1 -0.1)">
       <use xlink:href="#DejaVuSans-55"/>
       <use x="63.623047" xlink:href="#DejaVuSans-46"/>
       <use x="95.410156" xlink:href="#DejaVuSans-53"/>
      </g>
     </g>
    </g>
    <g id="ytick_5">
     <g id="line2d_11">
      <g>
       <use style="stroke:#000000;stroke-width:0.8;" x="80.185938" xlink:href="#m0e59b87648" y="182.564727"/>
      </g>
     </g>
     <g id="text_11">
      <!-- 10.0 -->
      <g transform="translate(50.920313 186.363945)scale(0.1 -0.1)">
       <use xlink:href="#DejaVuSans-49"/>
       <use x="63.623047" xlink:href="#DejaVuSans-48"/>
       <use x="127.246094" xlink:href="#DejaVuSans-46"/>
       <use x="159.033203" xlink:href="#DejaVuSans-48"/>
      </g>
     </g>
    </g>
    <g id="ytick_6">
     <g id="line2d_12">
      <g>
       <use style="stroke:#000000;stroke-width:0.8;" x="80.185938" xlink:href="#m0e59b87648" y="140.162367"/>
      </g>
     </g>
     <g id="text_12">
      <!-- 12.5 -->
      <g transform="translate(50.920313 143.961585)scale(0.1 -0.1)">
       <use xlink:href="#DejaVuSans-49"/>
       <use x="63.623047" xlink:href="#DejaVuSans-50"/>
       <use x="127.246094" xlink:href="#DejaVuSans-46"/>
       <use x="159.033203" xlink:href="#DejaVuSans-53"/>
      </g>
     </g>
    </g>
    <g id="ytick_7">
     <g id="line2d_13">
      <g>
       <use style="stroke:#000000;stroke-width:0.8;" x="80.185938" xlink:href="#m0e59b87648" y="97.760007"/>
      </g>
     </g>
     <g id="text_13">
      <!-- 15.0 -->
      <g transform="translate(50.920313 101.559225)scale(0.1 -0.1)">
       <use xlink:href="#DejaVuSans-49"/>
       <use x="63.623047" xlink:href="#DejaVuSans-53"/>
       <use x="127.246094" xlink:href="#DejaVuSans-46"/>
       <use x="159.033203" xlink:href="#DejaVuSans-48"/>
      </g>
     </g>
    </g>
    <g id="ytick_8">
     <g id="line2d_14">
      <g>
       <use style="stroke:#000000;stroke-width:0.8;" x="80.185938" xlink:href="#m0e59b87648" y="55.357647"/>
      </g>
     </g>
     <g id="text_14">
      <!-- 17.5 -->
      <g transform="translate(50.920313 59.156865)scale(0.1 -0.1)">
       <use xlink:href="#DejaVuSans-49"/>
       <use x="63.623047" xlink:href="#DejaVuSans-55"/>
       <use x="127.246094" xlink:href="#DejaVuSans-46"/>
       <use x="159.033203" xlink:href="#DejaVuSans-53"/>
      </g>
     </g>
    </g>
    <g id="text_15">
     <!-- droprate -->
     <defs>
      <path d="M 45.40625 46.390625 
L 45.40625 75.984375 
L 54.390625 75.984375 
L 54.390625 0 
L 45.40625 0 
L 45.40625 8.203125 
Q 42.578125 3.328125 38.25 0.953125 
Q 33.9375 -1.421875 27.875 -1.421875 
Q 17.96875 -1.421875 11.734375 6.484375 
Q 5.515625 14.40625 5.515625 27.296875 
Q 5.515625 40.1875 11.734375 48.09375 
Q 17.96875 56 27.875 56 
Q 33.9375 56 38.25 53.625 
Q 42.578125 51.265625 45.40625 46.390625 
z
M 14.796875 27.296875 
Q 14.796875 17.390625 18.875 11.75 
Q 22.953125 6.109375 30.078125 6.109375 
Q 37.203125 6.109375 41.296875 11.75 
Q 45.40625 17.390625 45.40625 27.296875 
Q 45.40625 37.203125 41.296875 42.84375 
Q 37.203125 48.484375 30.078125 48.484375 
Q 22.953125 48.484375 18.875 42.84375 
Q 14.796875 37.203125 14.796875 27.296875 
z
" id="DejaVuSans-100"/>
      <path d="M 41.109375 46.296875 
Q 39.59375 47.171875 37.8125 47.578125 
Q 36.03125 48 33.890625 48 
Q 26.265625 48 22.1875 43.046875 
Q 18.109375 38.09375 18.109375 28.8125 
L 18.109375 0 
L 9.078125 0 
L 9.078125 54.6875 
L 18.109375 54.6875 
L 18.109375 46.1875 
Q 20.953125 51.171875 25.484375 53.578125 
Q 30.03125 56 36.53125 56 
Q 37.453125 56 38.578125 55.875 
Q 39.703125 55.765625 41.0625 55.515625 
z
" id="DejaVuSans-114"/>
      <path d="M 30.609375 48.390625 
Q 23.390625 48.390625 19.1875 42.75 
Q 14.984375 37.109375 14.984375 27.296875 
Q 14.984375 17.484375 19.15625 11.84375 
Q 23.34375 6.203125 30.609375 6.203125 
Q 37.796875 6.203125 41.984375 11.859375 
Q 46.1875 17.53125 46.1875 27.296875 
Q 46.1875 37.015625 41.984375 42.703125 
Q 37.796875 48.390625 30.609375 48.390625 
z
M 30.609375 56 
Q 42.328125 56 49.015625 48.375 
Q 55.71875 40.765625 55.71875 27.296875 
Q 55.71875 13.875 49.015625 6.21875 
Q 42.328125 -1.421875 30.609375 -1.421875 
Q 18.84375 -1.421875 12.171875 6.21875 
Q 5.515625 13.875 5.515625 27.296875 
Q 5.515625 40.765625 12.171875 48.375 
Q 18.84375 56 30.609375 56 
z
" id="DejaVuSans-111"/>
      <path d="M 18.109375 8.203125 
L 18.109375 -20.796875 
L 9.078125 -20.796875 
L 9.078125 54.6875 
L 18.109375 54.6875 
L 18.109375 46.390625 
Q 20.953125 51.265625 25.265625 53.625 
Q 29.59375 56 35.59375 56 
Q 45.5625 56 51.78125 48.09375 
Q 58.015625 40.1875 58.015625 27.296875 
Q 58.015625 14.40625 51.78125 6.484375 
Q 45.5625 -1.421875 35.59375 -1.421875 
Q 29.59375 -1.421875 25.265625 0.953125 
Q 20.953125 3.328125 18.109375 8.203125 
z
M 48.6875 27.296875 
Q 48.6875 37.203125 44.609375 42.84375 
Q 40.53125 48.484375 33.40625 48.484375 
Q 26.265625 48.484375 22.1875 42.84375 
Q 18.109375 37.203125 18.109375 27.296875 
Q 18.109375 17.390625 22.1875 11.75 
Q 26.265625 6.109375 33.40625 6.109375 
Q 40.53125 6.109375 44.609375 11.75 
Q 48.6875 17.390625 48.6875 27.296875 
z
" id="DejaVuSans-112"/>
      <path d="M 34.28125 27.484375 
Q 23.390625 27.484375 19.1875 25 
Q 14.984375 22.515625 14.984375 16.5 
Q 14.984375 11.71875 18.140625 8.90625 
Q 21.296875 6.109375 26.703125 6.109375 
Q 34.1875 6.109375 38.703125 11.40625 
Q 43.21875 16.703125 43.21875 25.484375 
L 43.21875 27.484375 
z
M 52.203125 31.203125 
L 52.203125 0 
L 43.21875 0 
L 43.21875 8.296875 
Q 40.140625 3.328125 35.546875 0.953125 
Q 30.953125 -1.421875 24.3125 -1.421875 
Q 15.921875 -1.421875 10.953125 3.296875 
Q 6 8.015625 6 15.921875 
Q 6 25.140625 12.171875 29.828125 
Q 18.359375 34.515625 30.609375 34.515625 
L 43.21875 34.515625 
L 43.21875 35.40625 
Q 43.21875 41.609375 39.140625 45 
Q 35.0625 48.390625 27.6875 48.390625 
Q 23 48.390625 18.546875 47.265625 
Q 14.109375 46.140625 10.015625 43.890625 
L 10.015625 52.203125 
Q 14.9375 54.109375 19.578125 55.046875 
Q 24.21875 56 28.609375 56 
Q 40.484375 56 46.34375 49.84375 
Q 52.203125 43.703125 52.203125 31.203125 
z
" id="DejaVuSans-97"/>
      <path d="M 18.3125 70.21875 
L 18.3125 54.6875 
L 36.8125 54.6875 
L 36.8125 47.703125 
L 18.3125 47.703125 
L 18.3125 18.015625 
Q 18.3125 11.328125 20.140625 9.421875 
Q 21.96875 7.515625 27.59375 7.515625 
L 36.8125 7.515625 
L 36.8125 0 
L 27.59375 0 
Q 17.1875 0 13.234375 3.875 
Q 9.28125 7.765625 9.28125 18.015625 
L 9.28125 47.703125 
L 2.6875 47.703125 
L 2.6875 54.6875 
L 9.28125 54.6875 
L 9.28125 70.21875 
z
" id="DejaVuSans-116"/>
      <path d="M 56.203125 29.59375 
L 56.203125 25.203125 
L 14.890625 25.203125 
Q 15.484375 15.921875 20.484375 11.0625 
Q 25.484375 6.203125 34.421875 6.203125 
Q 39.59375 6.203125 44.453125 7.46875 
Q 49.3125 8.734375 54.109375 11.28125 
L 54.109375 2.78125 
Q 49.265625 0.734375 44.1875 -0.34375 
Q 39.109375 -1.421875 33.890625 -1.421875 
Q 20.796875 -1.421875 13.15625 6.1875 
Q 5.515625 13.8125 5.515625 26.8125 
Q 5.515625 40.234375 12.765625 48.109375 
Q 20.015625 56 32.328125 56 
Q 43.359375 56 49.78125 48.890625 
Q 56.203125 41.796875 56.203125 29.59375 
z
M 47.21875 32.234375 
Q 47.125 39.59375 43.09375 43.984375 
Q 39.0625 48.390625 32.421875 48.390625 
Q 24.90625 48.390625 20.390625 44.140625 
Q 15.875 39.890625 15.1875 32.171875 
z
" id="DejaVuSans-101"/>
     </defs>
     <g transform="translate(44.840625 215.236302)rotate(-90)scale(0.1 -0.1)">
      <use xlink:href="#DejaVuSans-100"/>
      <use x="63.476562" xlink:href="#DejaVuSans-114"/>
      <use x="104.558594" xlink:href="#DejaVuSans-111"/>
      <use x="165.740234" xlink:href="#DejaVuSans-112"/>
      <use x="229.216797" xlink:href="#DejaVuSans-114"/>
      <use x="270.330078" xlink:href="#DejaVuSans-97"/>
      <use x="331.609375" xlink:href="#DejaVuSans-116"/>
      <use x="370.818359" xlink:href="#DejaVuSans-101"/>
     </g>
    </g>
   </g>
   <g id="line2d_15">
    <path clip-path="url(#pfea0e87ab7)" d="M 99.996541 352.174167 
L 104.438528 352.174167 
L 104.590601 129.944931 
L 104.739318 349.788661 
L 104.887787 139.265279 
L 105.038753 352.174167 
L 107.380606 352.174167 
L 107.526229 222.831716 
L 107.671634 195.987056 
L 107.821367 352.174167 
L 107.972396 319.240295 
L 108.265004 352.174167 
L 112.796002 352.174167 
L 112.941187 281.503567 
L 113.086493 347.286287 
L 113.240165 352.174167 
L 119.945197 352.174167 
L 120.090332 342.3843 
L 120.235433 313.0147 
L 120.380585 352.174167 
L 121.544421 352.174167 
L 121.689497 202.8787 
L 121.834803 352.174167 
L 122.418728 352.174167 
L 122.564073 339.954466 
L 122.710343 264.696519 
L 122.857463 352.174167 
L 123.445212 352.174167 
L 123.591108 322.973115 
L 123.736788 322.846886 
L 123.883024 352.174167 
L 124.175021 352.174167 
L 124.320825 349.737249 
L 124.467637 269.909959 
L 124.614553 284.523678 
L 124.908239 352.174167 
L 125.056401 313.84435 
L 125.202298 176.967858 
L 125.347994 327.769931 
L 125.493811 315.672852 
L 125.639362 278.961459 
L 125.784782 352.174167 
L 125.930235 352.174167 
L 126.076191 318.106273 
L 126.222946 187.410711 
L 126.368793 293.772064 
L 126.514248 286.187785 
L 126.660723 204.160206 
L 126.806925 291.512707 
L 126.952525 259.43807 
L 127.098106 300.925271 
L 127.243706 205.537763 
L 127.389454 278.961459 
L 127.534931 140.162367 
L 127.68218 315.932833 
L 127.828922 245.714604 
L 127.974728 242.512891 
L 128.120327 235.202139 
L 128.265901 220.391292 
L 128.411716 308.309656 
L 128.558486 129.258903 
L 128.704139 249.676376 
L 129.289862 291.338643 
L 129.726961 172.359001 
L 129.872655 218.143718 
L 130.164966 100.182999 
L 130.459428 251.558397 
L 130.762546 78.760042 
L 130.910103 256.349624 
L 131.056919 168.81261 
L 131.203979 161.030861 
L 131.350786 50.163056 
L 131.496799 298.638906 
L 131.64284 262.137592 
L 131.792582 185.657185 
L 131.940952 227.777962 
L 132.087874 352.174167 
L 132.23337 242.670224 
L 132.379149 220.580636 
L 132.525287 352.174167 
L 143.264767 352.174167 
L 143.41243 330.552567 
L 143.558889 352.174167 
L 147.393727 352.174167 
L 147.685386 325.406536 
L 147.830905 352.174167 
L 148.562174 352.174167 
L 148.855282 286.753383 
L 149.001239 352.174167 
L 149.445079 352.174167 
L 149.591172 335.188958 
L 149.743275 352.174167 
L 150.332297 352.174167 
L 150.478334 296.12507 
L 150.625561 352.174167 
L 151.064684 352.174167 
L 151.214453 287.946188 
L 151.369047 352.174167 
L 151.514604 352.174167 
L 151.663063 337.800485 
L 151.808831 293.772064 
L 152.100445 352.174167 
L 152.246215 352.174167 
L 152.392258 308.435343 
L 152.541653 352.174167 
L 152.689536 352.174167 
L 152.835501 337.573641 
L 152.980843 352.174167 
L 153.126578 252.26056 
L 153.274236 337.698254 
L 153.422257 352.174167 
L 153.568365 269.556388 
L 153.714325 352.174167 
L 153.860901 352.174167 
L 154.007682 332.817883 
L 154.158635 349.811918 
L 154.306016 256.078167 
L 154.454598 352.174167 
L 154.601182 352.174167 
L 154.747677 228.601575 
L 155.038738 352.174167 
L 155.478445 352.174167 
L 155.623895 266.636265 
L 155.769245 352.174167 
L 155.914576 352.174167 
L 156.060202 259.43807 
L 156.205597 352.174167 
L 156.350889 327.734766 
L 156.496086 271.407767 
L 156.642077 352.174167 
L 156.792595 224.077527 
L 156.939362 352.174167 
L 157.087499 352.174167 
L 157.232757 256.997646 
L 157.524668 352.174167 
L 157.670293 257.134394 
L 157.815979 322.846886 
L 157.961975 320.539694 
L 158.109022 233.785811 
L 158.255279 352.174167 
L 158.400718 188.900711 
L 158.548205 344.946492 
L 158.693461 308.183246 
L 158.838962 193.546633 
L 159.129627 352.174167 
L 159.283061 228.524919 
L 159.43034 328.218031 
L 159.575919 322.889084 
L 159.721451 247.235952 
L 159.866893 342.412472 
L 160.012156 303.224833 
L 160.157915 313.183491 
L 160.303583 295.963545 
L 160.449306 344.863415 
L 160.740841 188.665786 
L 160.891992 352.174167 
L 172.348993 352.174167 
L 172.494396 330.146967 
L 172.640541 352.174167 
L 176.010467 352.174167 
L 176.159374 323.46735 
L 176.306045 352.174167 
L 177.185191 352.174167 
L 177.33143 335.164624 
L 177.479238 352.174167 
L 178.215223 352.174167 
L 178.362921 330.583149 
L 178.508796 352.174167 
L 179.242228 352.174167 
L 179.38839 320.585016 
L 179.535161 352.174167 
L 179.680265 352.174167 
L 179.827544 299.171217 
L 179.974591 352.174167 
L 180.415593 352.174167 
L 180.563318 328.150167 
L 180.857901 352.174167 
L 181.004181 318.155081 
L 181.150667 352.174167 
L 181.442542 352.174167 
L 181.590501 272.782514 
L 181.739539 347.423202 
L 181.885782 352.174167 
L 182.031547 335.091201 
L 182.181362 340.280097 
L 182.327405 352.174167 
L 182.476494 268.681475 
L 182.624315 352.174167 
L 182.918279 352.174167 
L 183.065686 284.715867 
L 183.211057 303.295366 
L 183.356275 352.174167 
L 183.503155 272.443233 
L 183.650417 262.90604 
L 183.797034 352.174167 
L 183.944392 212.439117 
L 184.091626 352.174167 
L 184.388178 245.277461 
L 184.535171 352.174167 
L 184.826332 266.636265 
L 184.97198 352.174167 
L 185.119202 277.275411 
L 185.265668 296.445351 
L 185.41342 352.174167 
L 185.559143 274.304696 
L 185.706471 352.174167 
L 186.144627 352.174167 
L 186.29095 281.806874 
L 186.437569 340.041875 
L 186.583173 352.174167 
L 186.729332 284.135996 
L 186.876929 352.174167 
L 187.024532 352.174167 
L 187.174078 328.319112 
L 187.320599 352.174167 
L 187.46783 248.430128 
L 187.614447 352.174167 
L 187.760565 352.174167 
L 187.907866 255.94186 
L 188.056522 352.174167 
L 188.202451 352.174167 
L 188.349757 277.381953 
L 188.50074 352.174167 
L 188.647039 313.350833 
L 188.793254 315.725147 
L 188.939657 352.174167 
L 189.087533 279.897417 
L 189.235922 352.174167 
L 199.101508 352.174167 
L 199.246833 335.0419 
L 199.394632 352.174167 
L 204.681951 352.174167 
L 204.830201 335.452109 
L 204.976257 352.174167 
L 205.418264 352.174167 
L 205.564727 332.7625 
L 205.711634 352.174167 
L 206.445188 352.174167 
L 206.592425 349.761515 
L 206.739435 352.174167 
L 206.88797 301.866282 
L 207.035698 352.174167 
L 207.770135 352.174167 
L 207.919734 278.65139 
L 208.068088 342.468333 
L 208.215351 352.174167 
L 208.360846 352.174167 
L 208.51262 349.792012 
L 208.659456 303.505748 
L 208.808641 352.174167 
L 209.103132 352.174167 
L 209.395524 230.655208 
L 209.541355 352.174167 
L 209.834502 352.174167 
L 209.983279 292.368299 
L 210.129992 352.174167 
L 210.27652 250.262915 
L 210.425871 352.174167 
L 210.573319 352.174167 
L 210.720524 291.943542 
L 210.866064 327.804994 
L 211.011881 332.650778 
L 211.160618 232.730899 
L 211.306349 352.174167 
L 211.459136 352.174167 
L 211.605209 255.530611 
L 211.751166 352.174167 
L 211.896711 352.174167 
L 212.043564 226.35832 
L 212.190278 352.174167 
L 212.336831 323.098263 
L 212.484477 200.392992 
L 212.630423 352.174167 
L 212.775974 298.484848 
L 213.068862 352.174167 
L 213.215579 257.677479 
L 213.361439 352.174167 
L 213.507349 352.174167 
L 213.653189 271.755898 
L 213.79966 352.174167 
L 214.236104 352.174167 
L 214.381532 325.290826 
L 214.527004 230.152987 
L 214.672386 352.174167 
L 214.81946 352.174167 
L 214.965964 238.130623 
L 215.112099 352.174167 
L 215.257868 352.174167 
L 215.403315 244.795528 
L 215.553619 352.174167 
L 215.69938 294.022359 
L 215.844934 313.071126 
L 215.991191 352.174167 
L 216.13714 252.546845 
L 216.430015 342.468333 
L 216.576298 191.798478 
L 216.722498 352.174167 
L 216.868854 303.575473 
L 217.015213 213.86604 
L 217.161439 352.174167 
L 217.307564 252.546845 
L 217.453921 286.659791 
L 217.602821 352.174167 
L 217.75156 275.622656 
L 217.904635 352.174167 
L 228.323461 352.174167 
L 228.46881 344.852896 
L 228.617869 347.389697 
L 228.764967 352.174167 
L 233.162393 352.174167 
L 233.308639 315.725147 
L 233.454857 352.174167 
L 234.481149 352.174167 
L 234.631257 309.415484 
L 234.777495 352.174167 
L 235.653872 352.174167 
L 235.800235 323.014951 
L 235.947785 330.460298 
L 236.098663 352.174167 
L 236.683661 352.174167 
L 236.829808 315.725147 
L 237.124405 352.174167 
L 237.270242 296.205485 
L 237.56295 352.174167 
L 237.854988 352.174167 
L 238.004792 237.991093 
L 238.151112 352.174167 
L 238.296836 310.806011 
L 238.442343 320.402946 
L 238.588687 206.378086 
L 238.736381 308.869629 
L 238.882537 216.292498 
L 239.031058 349.781932 
L 239.178671 352.174167 
L 239.325471 201.948663 
L 239.471854 352.174167 
L 239.618571 228.777855 
L 239.764933 323.056666 
L 239.911326 191.798478 
L 240.057596 352.174167 
L 240.204087 250.262915 
L 240.350334 330.336041 
L 240.49675 315.725147 
L 240.790611 149.511393 
L 240.937484 265.194967 
L 241.234034 137.448133 
L 241.380401 323.014951 
L 241.675108 150.778122 
L 241.821769 313.461598 
L 241.968004 262.266584 
L 242.114188 111.610634 
L 242.260502 352.174167 
L 242.407564 352.174167 
L 242.554087 90.491031 
L 242.700487 352.174167 
L 242.992937 228.247498 
L 243.139149 352.174167 
L 243.285468 257.54229 
L 243.431687 254.97678 
L 243.577056 352.174167 
L 243.724693 352.174167 
L 243.870933 175.042706 
L 244.016767 352.174167 
L 244.162303 352.174167 
L 244.308271 252.403908 
L 244.453804 352.174167 
L 245.037803 352.174167 
L 245.183722 235.369961 
L 245.3295 352.174167 
L 245.475877 352.174167 
L 245.622118 150.778122 
L 245.769261 352.174167 
L 245.915565 344.894792 
L 246.061995 170.189789 
L 246.208254 352.174167 
L 257.226182 352.174167 
L 257.522454 340.128042 
L 257.669435 352.174167 
L 261.648109 352.174167 
L 261.794605 332.734689 
L 261.941668 352.174167 
L 263.111976 352.174167 
L 263.260067 320.854242 
L 263.406861 352.174167 
L 264.141278 352.174167 
L 264.436134 315.881134 
L 264.584836 352.174167 
L 265.171166 352.174167 
L 265.464923 301.508473 
L 265.611335 352.174167 
L 265.905309 352.174167 
L 266.052543 327.978811 
L 266.344978 352.174167 
L 266.491181 352.174167 
L 266.78364 332.7625 
L 266.929925 352.174167 
L 267.076206 306.005408 
L 267.222394 349.744232 
L 267.368456 352.174167 
L 267.514907 352.174167 
L 267.662857 294.352767 
L 267.809468 352.174167 
L 268.101949 352.174167 
L 268.248343 257.54229 
L 268.394889 352.174167 
L 268.541151 320.630208 
L 268.687123 352.174167 
L 268.8337 279.588101 
L 268.980056 352.174167 
L 269.126484 352.174167 
L 269.272684 293.855735 
L 269.418847 352.174167 
L 269.565398 320.675271 
L 269.711862 344.894792 
L 269.858155 349.744232 
L 270.004317 301.145539 
L 270.150078 347.300332 
L 270.295616 318.008236 
L 270.440961 352.174167 
L 270.58623 313.071126 
L 270.731533 352.174167 
L 270.876955 337.489367 
L 271.022415 300.925271 
L 271.167955 352.174167 
L 271.314208 293.855735 
L 271.463211 352.174167 
L 271.755156 352.174167 
L 271.900986 322.93116 
L 272.046899 352.174167 
L 272.192931 352.174167 
L 272.340343 277.488192 
L 272.633766 352.174167 
L 272.779508 239.914681 
L 272.929247 342.672237 
L 273.077533 352.174167 
L 273.225146 262.90604 
L 273.370726 352.174167 
L 273.517058 325.444885 
L 273.663107 269.556388 
L 273.811982 352.174167 
L 273.958044 347.328183 
L 274.106488 328.184147 
L 274.253928 287.309367 
L 274.399303 339.972049 
L 274.54465 352.174167 
L 274.691528 335.237418 
L 274.841883 352.174167 
L 286.374766 352.174167 
L 286.520169 344.842346 
L 286.66702 352.174167 
L 287.396127 352.174167 
L 287.687455 342.412472 
L 287.83303 352.174167 
L 288.125873 352.174167 
L 288.272104 342.468333 
L 288.567887 352.174167 
L 289.898291 352.174167 
L 290.043728 349.733743 
L 290.189249 320.44866 
L 290.480995 352.174167 
L 291.362355 352.174167 
L 291.508114 332.734689 
L 291.653973 352.174167 
L 292.384367 352.174167 
L 292.529911 325.368077 
L 292.821285 352.174167 
L 292.966676 352.174167 
L 293.258403 347.300332 
L 293.404118 327.839957 
L 293.549713 352.174167 
L 293.841595 352.174167 
L 293.987708 301.145539 
L 294.133299 352.174167 
L 294.424306 352.174167 
L 294.570452 330.304755 
L 294.716995 325.559276 
L 294.862674 352.174167 
L 295.010921 352.174167 
L 295.158063 315.984386 
L 295.305033 352.174167 
L 295.451588 318.252279 
L 295.598071 318.252279 
L 295.744174 352.174167 
L 295.891382 340.110906 
L 296.037427 340.007062 
L 296.183275 352.174167 
L 296.32915 330.241911 
L 296.475447 349.747708 
L 296.623683 243.545122 
L 296.916919 352.174167 
L 297.063611 238.455997 
L 297.21045 352.174167 
L 297.508371 256.619553 
L 297.655041 352.174167 
L 297.801416 247.836457 
L 297.947939 352.174167 
L 298.094768 332.790231 
L 298.241504 214.063623 
L 298.388123 352.174167 
L 298.53477 262.395207 
L 298.681636 330.429367 
L 298.828207 323.098263 
L 298.97469 235.870551 
L 299.124227 352.174167 
L 299.271507 200.392992 
L 299.418914 299.171217 
L 299.712265 252.831495 
L 300.006118 308.74643 
L 300.308438 204.381709 
L 300.454733 303.714327 
L 300.747157 349.751175 
L 300.893529 281.806874 
L 301.332657 347.314297 
L 301.479075 201.518217 
L 301.624431 352.174167 
L 301.770027 244.640804 
L 302.074115 352.174167 
L 302.220107 274.416257 
L 302.365833 352.174167 
L 302.514801 352.174167 
L 302.662509 292.114167 
L 302.810306 352.174167 
L 302.957953 251.273367 
L 303.253365 352.174167 
L 315.225207 352.174167 
L 315.371821 332.790231 
L 315.518665 352.174167 
L 318.314 352.174167 
L 318.609412 335.164624 
L 318.755992 352.174167 
L 319.634471 352.174167 
L 319.782952 323.386143 
L 319.929736 352.174167 
L 320.804738 352.174167 
L 320.950312 335.115746 
L 321.095837 352.174167 
L 321.682545 352.174167 
L 321.828873 327.839957 
L 321.975015 352.174167 
L 322.412279 352.174167 
L 322.561654 325.970461 
L 322.709185 352.174167 
L 322.856458 352.174167 
L 323.005882 304.531066 
L 323.15357 352.174167 
L 323.446455 352.174167 
L 323.592316 349.737249 
L 323.7381 276.738117 
L 323.883999 349.737249 
L 324.032271 352.174167 
L 324.324683 352.174167 
L 324.470619 269.556388 
L 324.616226 313.183491 
L 324.762062 305.872739 
L 324.907575 266.759341 
L 325.053548 352.174167 
L 325.199823 250.262915 
L 325.492753 352.174167 
L 325.638745 233.277707 
L 325.784757 349.737249 
L 325.930639 284.03838 
L 326.222141 300.998905 
L 326.368262 352.174167 
L 326.514229 189.368544 
L 326.660126 352.174167 
L 326.811311 323.866611 
L 326.958764 232.054167 
L 327.105023 352.174167 
L 327.250626 264.696519 
L 327.397036 340.024493 
L 327.543033 352.174167 
L 327.688865 310.865277 
L 327.835295 352.174167 
L 327.981211 344.884363 
L 328.127059 298.561987 
L 328.273636 352.174167 
L 328.419753 318.203749 
L 328.711514 352.174167 
L 328.858706 313.626567 
L 329.004294 352.174167 
L 329.150484 276.846192 
L 329.296049 352.174167 
L 329.442021 352.174167 
L 329.588124 271.986323 
L 329.738883 352.174167 
L 330.032905 269.792439 
L 330.178488 352.174167 
L 330.324048 254.416564 
L 330.469756 352.174167 
L 330.615472 339.98958 
L 330.761336 266.882063 
L 330.907238 352.174167 
L 331.054339 325.597189 
L 331.200509 347.307325 
L 331.346186 352.174167 
L 331.492326 250.262915 
L 331.638604 352.174167 
L 343.272321 352.174167 
L 343.418795 340.041875 
L 343.711633 352.174167 
L 344.447792 352.174167 
L 344.593594 335.14022 
L 344.739211 352.174167 
L 347.082676 352.174167 
L 347.228763 344.884363 
L 347.374384 352.174167 
L 347.815216 352.174167 
L 347.960774 349.733743 
L 348.105959 352.174167 
L 348.25165 317.959006 
L 348.397743 352.174167 
L 349.276942 352.174167 
L 349.424198 347.341989 
L 349.57218 352.174167 
L 349.717876 325.368077 
L 349.864181 352.174167 
L 350.740056 352.174167 
L 350.88533 342.398406 
L 351.030897 352.174167 
L 351.759075 352.174167 
L 351.905423 323.098263 
L 352.051542 352.174167 
L 352.635171 352.174167 
L 352.781435 347.307325 
L 352.927736 315.829287 
L 353.074701 352.174167 
L 353.366209 352.174167 
L 353.659059 318.106273 
L 353.807339 352.174167 
L 353.953516 352.174167 
L 354.099297 320.494243 
L 354.245357 352.174167 
L 354.391346 352.174167 
L 354.537606 330.336041 
L 354.683613 352.174167 
L 354.8312 315.932833 
L 354.97864 352.174167 
L 355.419057 352.174167 
L 355.566253 318.348922 
L 355.711813 352.174167 
L 356.004824 352.174167 
L 356.151667 327.978811 
L 356.297472 352.174167 
L 356.443203 337.552663 
L 356.589141 352.174167 
L 356.73509 327.839957 
L 356.881051 352.174167 
L 357.026868 286.28273 
L 357.172814 352.174167 
L 357.318834 347.300332 
L 357.464373 296.12507 
L 357.610354 352.174167 
L 357.755899 278.961459 
L 357.902192 352.174167 
L 358.049391 352.174167 
L 358.195699 291.512707 
L 358.341577 352.174167 
L 358.781705 352.174167 
L 358.927343 296.12507 
L 359.072756 352.174167 
L 359.218193 339.972049 
L 359.363872 337.510526 
L 359.510346 352.174167 
L 359.656389 305.939169 
L 359.802189 352.174167 
L 359.94814 337.594559 
L 360.245626 352.174167 
L 371.369543 352.174167 
L 371.514939 339.954466 
L 371.660321 342.398406 
L 371.805843 352.174167 
L 375.453425 352.174167 
L 375.599086 335.14022 
L 375.744378 352.174167 
L 376.180485 352.174167 
L 376.326005 322.846886 
L 376.61832 352.174167 
L 377.497041 352.174167 
L 377.643627 286.939767 
L 377.790502 352.174167 
L 378.37357 352.174167 
L 378.518897 349.737249 
L 378.664251 352.174167 
L 378.80949 242.355105 
L 378.954887 352.174167 
L 379.537183 352.174167 
L 379.682587 259.304444 
L 379.828119 352.174167 
L 380.264889 352.174167 
L 380.411164 250.116911 
L 380.556509 337.531625 
L 380.70223 352.174167 
L 380.848267 352.174167 
L 380.998566 330.854544 
L 381.145595 352.174167 
L 381.292866 250.986717 
L 381.440965 352.174167 
L 381.879028 352.174167 
L 382.024854 347.300332 
L 382.172544 256.078167 
L 382.318545 352.174167 
L 382.613572 352.174167 
L 382.760718 315.932833 
L 382.908491 323.345367 
L 383.056608 352.174167 
L 383.204639 352.174167 
L 383.351301 233.107368 
L 383.497802 352.174167 
L 383.643753 352.174167 
L 383.792648 261.524958 
L 383.938949 352.174167 
L 384.085252 332.734689 
L 384.231027 281.604959 
L 384.377511 352.174167 
L 384.523842 221.145415 
L 384.670106 337.594559 
L 384.816336 352.174167 
L 384.965429 218.019807 
L 385.110907 352.174167 
L 385.25681 352.174167 
L 385.40307 254.97678 
L 385.549241 352.174167 
L 385.695576 352.174167 
L 385.842326 303.644999 
L 385.98859 352.174167 
L 386.134806 276.846192 
L 386.281929 352.174167 
L 386.428697 347.348863 
L 386.575091 220.957694 
L 386.721209 352.174167 
L 386.867334 262.137592 
L 387.013465 306.005408 
L 387.159519 291.4258 
L 387.305709 250.116911 
L 387.451953 352.174167 
L 387.744143 291.251236 
L 387.891385 328.047646 
L 388.03793 325.559276 
L 388.18417 235.537302 
L 388.330452 240.397172 
L 388.476776 342.468333 
L 388.623412 262.395207 
L 388.776097 352.174167 
L 400.356823 352.174167 
L 400.503597 335.213223 
L 400.650494 352.174167 
L 403.739049 352.174167 
L 403.886591 325.747767 
L 404.035605 352.174167 
L 404.916238 352.174167 
L 405.062426 344.884363 
L 405.208551 306.005408 
L 405.355035 352.174167 
L 406.232838 352.174167 
L 406.525198 288.995865 
L 406.671598 352.174167 
L 407.110284 352.174167 
L 407.256499 238.130623 
L 407.402333 335.14022 
L 407.547933 352.174167 
L 407.988311 352.174167 
L 408.134531 213.66789 
L 408.281563 352.174167 
L 408.427699 352.174167 
L 408.573248 322.889084 
L 408.720658 352.174167 
L 408.867031 352.174167 
L 409.013329 337.615416 
L 409.159581 352.174167 
L 409.305787 323.014951 
L 409.453465 260.753476 
L 409.603787 352.174167 
L 409.753084 321.249584 
L 409.899106 349.747708 
L 410.044788 352.174167 
L 410.483568 352.174167 
L 410.629675 279.171538 
L 410.776248 352.174167 
L 411.652799 352.174167 
L 411.945134 323.014951 
L 412.091707 352.174167 
L 412.531483 352.174167 
L 412.677524 233.107368 
L 412.828565 352.174167 
L 412.976346 352.174167 
L 413.126955 238.469514 
L 413.276955 352.174167 
L 413.719488 352.174167 
L 414.011454 269.556388 
L 414.157024 352.174167 
L 414.596457 352.174167 
L 414.741892 239.752924 
L 414.890104 352.174167 
L 415.474617 352.174167 
L 415.623952 268.563879 
L 415.770267 352.174167 
L 415.917058 352.174167 
L 416.063957 332.790231 
L 416.210826 352.174167 
L 416.35784 272.443233 
L 416.503668 301.072327 
L 416.649453 352.174167 
L 416.796164 291.512707 
L 416.942013 349.744232 
L 417.09343 352.174167 
L 429.112171 352.174167 
L 429.258827 332.817883 
L 429.404764 352.174167 
L 432.0617 352.174167 
L 432.208061 318.155081 
L 432.354477 352.174167 
L 433.54345 352.174167 
L 433.693695 271.633371 
L 433.839755 352.174167 
L 434.725903 352.174167 
L 434.87332 265.194967 
L 435.021421 352.174167 
L 435.61335 352.174167 
L 435.760658 272.556649 
L 435.908479 352.174167 
L 436.346464 352.174167 
L 436.494288 255.94186 
L 436.785098 352.174167 
L 437.081246 352.174167 
L 437.376396 301.866282 
L 437.526564 352.174167 
L 437.673633 272.556649 
L 437.965178 352.174167 
L 438.111574 250.262915 
L 438.258338 347.328183 
L 438.403957 352.174167 
L 438.549803 264.571013 
L 438.844057 337.615416 
L 438.996013 249.096606 
L 439.143239 335.333513 
L 439.438904 301.795125 
L 439.585091 352.174167 
L 439.731292 352.174167 
L 439.87798 279.484407 
L 440.024472 352.174167 
L 440.171402 352.174167 
L 440.318031 160.483956 
L 440.464832 289.266243 
L 440.612691 280.30576 
L 440.760035 284.523678 
L 440.906661 209.421571 
L 441.053352 310.924374 
L 441.346632 153.772254 
L 441.495596 306.721707 
L 441.786822 169.142397 
L 441.933101 352.174167 
L 442.079533 230.851248 
L 442.372008 352.174167 
L 442.518373 342.468333 
L 442.664756 179.648805 
L 442.811053 306.071458 
L 442.957369 306.071458 
L 443.103403 252.546845 
L 443.249987 315.777291 
L 443.396416 308.497916 
L 443.542769 240.557082 
L 443.689367 349.744232 
L 443.981754 233.107368 
L 444.128017 352.174167 
L 444.274261 313.295212 
L 444.420977 211.841106 
L 444.567508 332.7625 
L 444.713128 325.368077 
L 444.859449 225.817564 
L 445.005746 320.585016 
L 445.152054 308.497916 
L 445.29819 208.808021 
L 445.590775 352.174167 
L 455.420032 352.174167 
L 455.566142 349.740746 
L 455.712093 332.678829 
L 455.860949 352.174167 
L 460.857912 352.174167 
L 461.003754 325.368077 
L 461.149412 352.174167 
L 462.173346 352.174167 
L 462.319667 288.995865 
L 462.466979 352.174167 
L 463.052928 352.174167 
L 463.199625 337.615416 
L 463.347943 352.174167 
L 463.937039 352.174167 
L 464.082899 308.309656 
L 464.230505 352.174167 
L 464.816393 352.174167 
L 464.962235 284.135996 
L 465.258624 352.174167 
L 465.404656 352.174167 
L 465.550456 308.37259 
L 465.696217 352.174167 
L 465.842769 352.174167 
L 465.98854 308.309656 
L 466.134555 352.174167 
L 466.280542 352.174167 
L 466.427521 291.599367 
L 466.573991 352.174167 
L 466.720344 352.174167 
L 466.868137 217.257567 
L 467.013435 352.174167 
L 467.158718 352.174167 
L 467.304032 225.089284 
L 467.449335 352.174167 
L 467.59464 315.515066 
L 467.739882 217.757463 
L 468.037262 337.840975 
L 468.182653 267.004434 
L 468.328125 352.174167 
L 468.618785 273.968085 
L 468.76407 330.146967 
L 468.909286 227.533224 
L 469.054874 303.295366 
L 469.200563 271.640188 
L 469.348451 76.919279 
L 469.495753 352.174167 
L 469.642915 291.857865 
L 469.789697 352.174167 
L 469.935651 242.355105 
L 470.08304 303.989667 
L 470.230314 236.531367 
L 470.376189 352.174167 
L 470.522453 177.469164 
L 470.821563 340.296755 
L 470.973042 256.124622 
L 471.119429 250.698433 
L 471.5579 132.851615 
L 471.704866 291.943542 
L 471.850826 171.58282 
L 471.99672 245.103645 
L 472.142961 252.403908 
L 472.290706 150.658 
L 472.439172 352.174167 
L 472.585123 199.088282 
L 472.730764 293.688153 
L 472.876639 274.192815 
L 473.022386 181.58996 
L 473.168157 237.639056 
L 473.314126 194.001805 
L 473.463202 115.676497 
L 473.614758 277.001008 
L 473.764114 190.414813 
L 473.910146 172.872759 
L 474.361112 352.174167 
L 480.669195 352.174167 
L 480.815403 337.615416 
L 480.961499 342.454428 
L 481.107946 352.174167 
L 489.608915 352.174167 
L 489.755419 325.483125 
L 490.047634 352.174167 
L 490.77609 352.174167 
L 490.922081 288.905222 
L 491.067808 352.174167 
L 491.801715 352.174167 
L 491.948663 330.429367 
L 492.09556 352.174167 
L 492.534868 352.174167 
L 492.680426 281.401882 
L 492.826555 352.174167 
L 493.265079 352.174167 
L 493.411056 291.338643 
L 493.556948 352.174167 
L 493.994838 352.174167 
L 494.139958 276.412025 
L 494.430664 352.174167 
L 494.577059 352.174167 
L 494.724548 332.87295 
L 494.872001 352.174167 
L 495.01942 352.174167 
L 495.166778 279.897417 
L 495.313227 352.174167 
L 495.458249 352.174167 
L 495.604378 245.103645 
L 495.759667 352.174167 
L 496.062053 277.275411 
L 496.208615 352.174167 
L 496.208615 352.174167 
" style="fill:none;stroke:#1f77b4;stroke-linecap:square;stroke-width:1.5;"/>
   </g>
   <g id="patch_3">
    <path d="M 80.185938 352.174167 
L 80.185938 35.0625 
" style="fill:none;stroke:#000000;stroke-linecap:square;stroke-linejoin:miter;stroke-width:0.8;"/>
   </g>
   <g id="patch_4">
    <path d="M 516.019219 352.174167 
L 516.019219 35.0625 
" style="fill:none;stroke:#000000;stroke-linecap:square;stroke-linejoin:miter;stroke-width:0.8;"/>
   </g>
   <g id="patch_5">
    <path d="M 80.185938 352.174167 
L 516.019219 352.174167 
" style="fill:none;stroke:#000000;stroke-linecap:square;stroke-linejoin:miter;stroke-width:0.8;"/>
   </g>
   <g id="patch_6">
    <path d="M 80.185938 35.0625 
L 516.019219 35.0625 
" style="fill:none;stroke:#000000;stroke-linecap:square;stroke-linejoin:miter;stroke-width:0.8;"/>
   </g>
   <g id="legend_1">
    <g id="patch_7">
     <path d="M 539.810883 53.01875 
L 620.04682 53.01875 
Q 622.04682 53.01875 622.04682 51.01875 
L 622.04682 37.0625 
Q 622.04682 35.0625 620.04682 35.0625 
L 539.810883 35.0625 
Q 537.810883 35.0625 537.810883 37.0625 
L 537.810883 51.01875 
Q 537.810883 53.01875 539.810883 53.01875 
z
" style="fill:#ffffff;opacity:0.8;stroke:#cccccc;stroke-linejoin:miter;"/>
    </g>
    <g id="line2d_16">
     <path d="M 541.810883 43.160937 
L 561.810883 43.160937 
" style="fill:none;stroke:#1f77b4;stroke-linecap:square;stroke-width:1.5;"/>
    </g>
    <g id="line2d_17"/>
    <g id="text_16">
     <!-- drop_rate -->
     <defs>
      <path d="M 50.984375 -16.609375 
L 50.984375 -23.578125 
L -0.984375 -23.578125 
L -0.984375 -16.609375 
z
" id="DejaVuSans-95"/>
     </defs>
     <g transform="translate(569.810883 46.660937)scale(0.1 -0.1)">
      <use xlink:href="#DejaVuSans-100"/>
      <use x="63.476562" xlink:href="#DejaVuSans-114"/>
      <use x="104.558594" xlink:href="#DejaVuSans-111"/>
      <use x="165.740234" xlink:href="#DejaVuSans-112"/>
      <use x="229.216797" xlink:href="#DejaVuSans-95"/>
      <use x="279.216797" xlink:href="#DejaVuSans-114"/>
      <use x="320.330078" xlink:href="#DejaVuSans-97"/>
      <use x="381.609375" xlink:href="#DejaVuSans-116"/>
      <use x="420.818359" xlink:href="#DejaVuSans-101"/>
     </g>
    </g>
   </g>
  </g>
  <g id="text_17">
   <!-- result droprate -->
   <defs>
    <path d="M 44.28125 53.078125 
L 44.28125 44.578125 
Q 40.484375 46.53125 36.375 47.5 
Q 32.28125 48.484375 27.875 48.484375 
Q 21.1875 48.484375 17.84375 46.4375 
Q 14.5 44.390625 14.5 40.28125 
Q 14.5 37.15625 16.890625 35.375 
Q 19.28125 33.59375 26.515625 31.984375 
L 29.59375 31.296875 
Q 39.15625 29.25 43.1875 25.515625 
Q 47.21875 21.78125 47.21875 15.09375 
Q 47.21875 7.46875 41.1875 3.015625 
Q 35.15625 -1.421875 24.609375 -1.421875 
Q 20.21875 -1.421875 15.453125 -0.5625 
Q 10.6875 0.296875 5.421875 2 
L 5.421875 11.28125 
Q 10.40625 8.6875 15.234375 7.390625 
Q 20.0625 6.109375 24.8125 6.109375 
Q 31.15625 6.109375 34.5625 8.28125 
Q 37.984375 10.453125 37.984375 14.40625 
Q 37.984375 18.0625 35.515625 20.015625 
Q 33.0625 21.96875 24.703125 23.78125 
L 21.578125 24.515625 
Q 13.234375 26.265625 9.515625 29.90625 
Q 5.8125 33.546875 5.8125 39.890625 
Q 5.8125 47.609375 11.28125 51.796875 
Q 16.75 56 26.8125 56 
Q 31.78125 56 36.171875 55.265625 
Q 40.578125 54.546875 44.28125 53.078125 
z
" id="DejaVuSans-115"/>
    <path d="M 8.5 21.578125 
L 8.5 54.6875 
L 17.484375 54.6875 
L 17.484375 21.921875 
Q 17.484375 14.15625 20.5 10.265625 
Q 23.53125 6.390625 29.59375 6.390625 
Q 36.859375 6.390625 41.078125 11.03125 
Q 45.3125 15.671875 45.3125 23.6875 
L 45.3125 54.6875 
L 54.296875 54.6875 
L 54.296875 0 
L 45.3125 0 
L 45.3125 8.40625 
Q 42.046875 3.421875 37.71875 1 
Q 33.40625 -1.421875 27.6875 -1.421875 
Q 18.265625 -1.421875 13.375 4.4375 
Q 8.5 10.296875 8.5 21.578125 
z
M 31.109375 56 
z
" id="DejaVuSans-117"/>
    <path d="M 9.421875 75.984375 
L 18.40625 75.984375 
L 18.40625 0 
L 9.421875 0 
z
" id="DejaVuSans-108"/>
    <path id="DejaVuSans-32"/>
   </defs>
   <g transform="translate(297.047813 17.038125)scale(0.12 -0.12)">
    <use xlink:href="#DejaVuSans-114"/>
    <use x="41.082031" xlink:href="#DejaVuSans-101"/>
    <use x="102.605469" xlink:href="#DejaVuSans-115"/>
    <use x="154.705078" xlink:href="#DejaVuSans-117"/>
    <use x="218.083984" xlink:href="#DejaVuSans-108"/>
    <use x="245.867188" xlink:href="#DejaVuSans-116"/>
    <use x="285.076172" xlink:href="#DejaVuSans-32"/>
    <use x="316.863281" xlink:href="#DejaVuSans-100"/>
    <use x="380.339844" xlink:href="#DejaVuSans-114"/>
    <use x="421.421875" xlink:href="#DejaVuSans-111"/>
    <use x="482.603516" xlink:href="#DejaVuSans-112"/>
    <use x="546.080078" xlink:href="#DejaVuSans-114"/>
    <use x="587.193359" xlink:href="#DejaVuSans-97"/>
    <use x="648.472656" xlink:href="#DejaVuSans-116"/>
    <use x="687.681641" xlink:href="#DejaVuSans-101"/>
   </g>
  </g>
 </g>
 <defs>
  <clipPath id="pfea0e87ab7">
   <rect height="317.111667" width="435.833281" x="80.185938" y="35.0625"/>
  </clipPath>
 </defs>
</svg>
