<?xml version="1.0" encoding="utf-8" standalone="no"?>
<!DOCTYPE svg PUBLIC "-//W3C//DTD SVG 1.1//EN"
  "http://www.w3.org/Graphics/SVG/1.1/DTD/svg11.dtd">
<!-- Created with matplotlib (https://matplotlib.org/) -->
<svg height="396pt" version="1.1" viewBox="0 0 684 396" width="684pt" xmlns="http://www.w3.org/2000/svg" xmlns:xlink="http://www.w3.org/1999/xlink">
 <defs>
  <style type="text/css">
*{stroke-linecap:butt;stroke-linejoin:round;}
  </style>
 </defs>
 <g id="figure_1">
  <g id="patch_1">
   <path d="M 0 396 
L 684 396 
L 684 0 
L 0 0 
z
" style="fill:#ffffff;"/>
  </g>
  <g id="axes_1">
   <g id="patch_2">
    <path d="M 130.230156 352.174167 
L 540.734062 352.174167 
L 540.734062 35.0625 
L 130.230156 35.0625 
z
" style="fill:#ffffff;"/>
   </g>
   <g id="matplotlib.axis_1">
    <g id="xtick_1">
     <g id="line2d_1">
      <defs>
       <path d="M 0 0 
L 0 3.5 
" id="me941b7988a" style="stroke:#000000;stroke-width:0.8;"/>
      </defs>
      <g>
       <use style="stroke:#000000;stroke-width:0.8;" x="153.653043" xlink:href="#me941b7988a" y="352.174167"/>
      </g>
     </g>
     <g id="text_1">
      <!-- 0 -->
      <defs>
       <path d="M 31.78125 66.40625 
Q 24.171875 66.40625 20.328125 58.90625 
Q 16.5 51.421875 16.5 36.375 
Q 16.5 21.390625 20.328125 13.890625 
Q 24.171875 6.390625 31.78125 6.390625 
Q 39.453125 6.390625 43.28125 13.890625 
Q 47.125 21.390625 47.125 36.375 
Q 47.125 51.421875 43.28125 58.90625 
Q 39.453125 66.40625 31.78125 66.40625 
z
M 31.78125 74.21875 
Q 44.046875 74.21875 50.515625 64.515625 
Q 56.984375 54.828125 56.984375 36.375 
Q 56.984375 17.96875 50.515625 8.265625 
Q 44.046875 -1.421875 31.78125 -1.421875 
Q 19.53125 -1.421875 13.0625 8.265625 
Q 6.59375 17.96875 6.59375 36.375 
Q 6.59375 54.828125 13.0625 64.515625 
Q 19.53125 74.21875 31.78125 74.21875 
z
" id="DejaVuSans-48"/>
      </defs>
      <g transform="translate(150.471793 366.772604)scale(0.1 -0.1)">
       <use xlink:href="#DejaVuSans-48"/>
      </g>
     </g>
    </g>
    <g id="xtick_2">
     <g id="line2d_2">
      <g>
       <use style="stroke:#000000;stroke-width:0.8;" x="218.811922" xlink:href="#me941b7988a" y="352.174167"/>
      </g>
     </g>
     <g id="text_2">
      <!-- 50 -->
      <defs>
       <path d="M 10.796875 72.90625 
L 49.515625 72.90625 
L 49.515625 64.59375 
L 19.828125 64.59375 
L 19.828125 46.734375 
Q 21.96875 47.46875 24.109375 47.828125 
Q 26.265625 48.1875 28.421875 48.1875 
Q 40.625 48.1875 47.75 41.5 
Q 54.890625 34.8125 54.890625 23.390625 
Q 54.890625 11.625 47.5625 5.09375 
Q 40.234375 -1.421875 26.90625 -1.421875 
Q 22.3125 -1.421875 17.546875 -0.640625 
Q 12.796875 0.140625 7.71875 1.703125 
L 7.71875 11.625 
Q 12.109375 9.234375 16.796875 8.0625 
Q 21.484375 6.890625 26.703125 6.890625 
Q 35.15625 6.890625 40.078125 11.328125 
Q 45.015625 15.765625 45.015625 23.390625 
Q 45.015625 31 40.078125 35.4375 
Q 35.15625 39.890625 26.703125 39.890625 
Q 22.75 39.890625 18.8125 39.015625 
Q 14.890625 38.140625 10.796875 36.28125 
z
" id="DejaVuSans-53"/>
      </defs>
      <g transform="translate(212.449422 366.772604)scale(0.1 -0.1)">
       <use xlink:href="#DejaVuSans-53"/>
       <use x="63.623047" xlink:href="#DejaVuSans-48"/>
      </g>
     </g>
    </g>
    <g id="xtick_3">
     <g id="line2d_3">
      <g>
       <use style="stroke:#000000;stroke-width:0.8;" x="283.970801" xlink:href="#me941b7988a" y="352.174167"/>
      </g>
     </g>
     <g id="text_3">
      <!-- 100 -->
      <defs>
       <path d="M 12.40625 8.296875 
L 28.515625 8.296875 
L 28.515625 63.921875 
L 10.984375 60.40625 
L 10.984375 69.390625 
L 28.421875 72.90625 
L 38.28125 72.90625 
L 38.28125 8.296875 
L 54.390625 8.296875 
L 54.390625 0 
L 12.40625 0 
z
" id="DejaVuSans-49"/>
      </defs>
      <g transform="translate(274.427051 366.772604)scale(0.1 -0.1)">
       <use xlink:href="#DejaVuSans-49"/>
       <use x="63.623047" xlink:href="#DejaVuSans-48"/>
       <use x="127.246094" xlink:href="#DejaVuSans-48"/>
      </g>
     </g>
    </g>
    <g id="xtick_4">
     <g id="line2d_4">
      <g>
       <use style="stroke:#000000;stroke-width:0.8;" x="349.12968" xlink:href="#me941b7988a" y="352.174167"/>
      </g>
     </g>
     <g id="text_4">
      <!-- 150 -->
      <g transform="translate(339.58593 366.772604)scale(0.1 -0.1)">
       <use xlink:href="#DejaVuSans-49"/>
       <use x="63.623047" xlink:href="#DejaVuSans-53"/>
       <use x="127.246094" xlink:href="#DejaVuSans-48"/>
      </g>
     </g>
    </g>
    <g id="xtick_5">
     <g id="line2d_5">
      <g>
       <use style="stroke:#000000;stroke-width:0.8;" x="414.288559" xlink:href="#me941b7988a" y="352.174167"/>
      </g>
     </g>
     <g id="text_5">
      <!-- 200 -->
      <defs>
       <path d="M 19.1875 8.296875 
L 53.609375 8.296875 
L 53.609375 0 
L 7.328125 0 
L 7.328125 8.296875 
Q 12.9375 14.109375 22.625 23.890625 
Q 32.328125 33.6875 34.8125 36.53125 
Q 39.546875 41.84375 41.421875 45.53125 
Q 43.3125 49.21875 43.3125 52.78125 
Q 43.3125 58.59375 39.234375 62.25 
Q 35.15625 65.921875 28.609375 65.921875 
Q 23.96875 65.921875 18.8125 64.3125 
Q 13.671875 62.703125 7.8125 59.421875 
L 7.8125 69.390625 
Q 13.765625 71.78125 18.9375 73 
Q 24.125 74.21875 28.421875 74.21875 
Q 39.75 74.21875 46.484375 68.546875 
Q 53.21875 62.890625 53.21875 53.421875 
Q 53.21875 48.921875 51.53125 44.890625 
Q 49.859375 40.875 45.40625 35.40625 
Q 44.1875 33.984375 37.640625 27.21875 
Q 31.109375 20.453125 19.1875 8.296875 
z
" id="DejaVuSans-50"/>
      </defs>
      <g transform="translate(404.744809 366.772604)scale(0.1 -0.1)">
       <use xlink:href="#DejaVuSans-50"/>
       <use x="63.623047" xlink:href="#DejaVuSans-48"/>
       <use x="127.246094" xlink:href="#DejaVuSans-48"/>
      </g>
     </g>
    </g>
    <g id="xtick_6">
     <g id="line2d_6">
      <g>
       <use style="stroke:#000000;stroke-width:0.8;" x="479.447438" xlink:href="#me941b7988a" y="352.174167"/>
      </g>
     </g>
     <g id="text_6">
      <!-- 250 -->
      <g transform="translate(469.903688 366.772604)scale(0.1 -0.1)">
       <use xlink:href="#DejaVuSans-50"/>
       <use x="63.623047" xlink:href="#DejaVuSans-53"/>
       <use x="127.246094" xlink:href="#DejaVuSans-48"/>
      </g>
     </g>
    </g>
   </g>
   <g id="matplotlib.axis_2">
    <g id="ytick_1">
     <g id="line2d_7">
      <defs>
       <path d="M 0 0 
L -3.5 0 
" id="m2c56fa507c" style="stroke:#000000;stroke-width:0.8;"/>
      </defs>
      <g>
       <use style="stroke:#000000;stroke-width:0.8;" x="130.230156" xlink:href="#m2c56fa507c" y="352.174167"/>
      </g>
     </g>
     <g id="text_7">
      <!-- 0 -->
      <g transform="translate(116.867656 355.973385)scale(0.1 -0.1)">
       <use xlink:href="#DejaVuSans-48"/>
      </g>
     </g>
    </g>
    <g id="ytick_2">
     <g id="line2d_8">
      <g>
       <use style="stroke:#000000;stroke-width:0.8;" x="130.230156" xlink:href="#m2c56fa507c" y="314.394065"/>
      </g>
     </g>
     <g id="text_8">
      <!-- 250000 -->
      <g transform="translate(85.055156 318.193284)scale(0.1 -0.1)">
       <use xlink:href="#DejaVuSans-50"/>
       <use x="63.623047" xlink:href="#DejaVuSans-53"/>
       <use x="127.246094" xlink:href="#DejaVuSans-48"/>
       <use x="190.869141" xlink:href="#DejaVuSans-48"/>
       <use x="254.492188" xlink:href="#DejaVuSans-48"/>
       <use x="318.115234" xlink:href="#DejaVuSans-48"/>
      </g>
     </g>
    </g>
    <g id="ytick_3">
     <g id="line2d_9">
      <g>
       <use style="stroke:#000000;stroke-width:0.8;" x="130.230156" xlink:href="#m2c56fa507c" y="276.613963"/>
      </g>
     </g>
     <g id="text_9">
      <!-- 500000 -->
      <g transform="translate(85.055156 280.413182)scale(0.1 -0.1)">
       <use xlink:href="#DejaVuSans-53"/>
       <use x="63.623047" xlink:href="#DejaVuSans-48"/>
       <use x="127.246094" xlink:href="#DejaVuSans-48"/>
       <use x="190.869141" xlink:href="#DejaVuSans-48"/>
       <use x="254.492188" xlink:href="#DejaVuSans-48"/>
       <use x="318.115234" xlink:href="#DejaVuSans-48"/>
      </g>
     </g>
    </g>
    <g id="ytick_4">
     <g id="line2d_10">
      <g>
       <use style="stroke:#000000;stroke-width:0.8;" x="130.230156" xlink:href="#m2c56fa507c" y="238.833861"/>
      </g>
     </g>
     <g id="text_10">
      <!-- 750000 -->
      <defs>
       <path d="M 8.203125 72.90625 
L 55.078125 72.90625 
L 55.078125 68.703125 
L 28.609375 0 
L 18.3125 0 
L 43.21875 64.59375 
L 8.203125 64.59375 
z
" id="DejaVuSans-55"/>
      </defs>
      <g transform="translate(85.055156 242.63308)scale(0.1 -0.1)">
       <use xlink:href="#DejaVuSans-55"/>
       <use x="63.623047" xlink:href="#DejaVuSans-53"/>
       <use x="127.246094" xlink:href="#DejaVuSans-48"/>
       <use x="190.869141" xlink:href="#DejaVuSans-48"/>
       <use x="254.492188" xlink:href="#DejaVuSans-48"/>
       <use x="318.115234" xlink:href="#DejaVuSans-48"/>
      </g>
     </g>
    </g>
    <g id="ytick_5">
     <g id="line2d_11">
      <g>
       <use style="stroke:#000000;stroke-width:0.8;" x="130.230156" xlink:href="#m2c56fa507c" y="201.05376"/>
      </g>
     </g>
     <g id="text_11">
      <!-- 1000000 -->
      <g transform="translate(78.692656 204.852978)scale(0.1 -0.1)">
       <use xlink:href="#DejaVuSans-49"/>
       <use x="63.623047" xlink:href="#DejaVuSans-48"/>
       <use x="127.246094" xlink:href="#DejaVuSans-48"/>
       <use x="190.869141" xlink:href="#DejaVuSans-48"/>
       <use x="254.492188" xlink:href="#DejaVuSans-48"/>
       <use x="318.115234" xlink:href="#DejaVuSans-48"/>
       <use x="381.738281" xlink:href="#DejaVuSans-48"/>
      </g>
     </g>
    </g>
    <g id="ytick_6">
     <g id="line2d_12">
      <g>
       <use style="stroke:#000000;stroke-width:0.8;" x="130.230156" xlink:href="#m2c56fa507c" y="163.273658"/>
      </g>
     </g>
     <g id="text_12">
      <!-- 1250000 -->
      <g transform="translate(78.692656 167.072877)scale(0.1 -0.1)">
       <use xlink:href="#DejaVuSans-49"/>
       <use x="63.623047" xlink:href="#DejaVuSans-50"/>
       <use x="127.246094" xlink:href="#DejaVuSans-53"/>
       <use x="190.869141" xlink:href="#DejaVuSans-48"/>
       <use x="254.492188" xlink:href="#DejaVuSans-48"/>
       <use x="318.115234" xlink:href="#DejaVuSans-48"/>
       <use x="381.738281" xlink:href="#DejaVuSans-48"/>
      </g>
     </g>
    </g>
    <g id="ytick_7">
     <g id="line2d_13">
      <g>
       <use style="stroke:#000000;stroke-width:0.8;" x="130.230156" xlink:href="#m2c56fa507c" y="125.493556"/>
      </g>
     </g>
     <g id="text_13">
      <!-- 1500000 -->
      <g transform="translate(78.692656 129.292775)scale(0.1 -0.1)">
       <use xlink:href="#DejaVuSans-49"/>
       <use x="63.623047" xlink:href="#DejaVuSans-53"/>
       <use x="127.246094" xlink:href="#DejaVuSans-48"/>
       <use x="190.869141" xlink:href="#DejaVuSans-48"/>
       <use x="254.492188" xlink:href="#DejaVuSans-48"/>
       <use x="318.115234" xlink:href="#DejaVuSans-48"/>
       <use x="381.738281" xlink:href="#DejaVuSans-48"/>
      </g>
     </g>
    </g>
    <g id="ytick_8">
     <g id="line2d_14">
      <g>
       <use style="stroke:#000000;stroke-width:0.8;" x="130.230156" xlink:href="#m2c56fa507c" y="87.713454"/>
      </g>
     </g>
     <g id="text_14">
      <!-- 1750000 -->
      <g transform="translate(78.692656 91.512673)scale(0.1 -0.1)">
       <use xlink:href="#DejaVuSans-49"/>
       <use x="63.623047" xlink:href="#DejaVuSans-55"/>
       <use x="127.246094" xlink:href="#DejaVuSans-53"/>
       <use x="190.869141" xlink:href="#DejaVuSans-48"/>
       <use x="254.492188" xlink:href="#DejaVuSans-48"/>
       <use x="318.115234" xlink:href="#DejaVuSans-48"/>
       <use x="381.738281" xlink:href="#DejaVuSans-48"/>
      </g>
     </g>
    </g>
    <g id="ytick_9">
     <g id="line2d_15">
      <g>
       <use style="stroke:#000000;stroke-width:0.8;" x="130.230156" xlink:href="#m2c56fa507c" y="49.933353"/>
      </g>
     </g>
     <g id="text_15">
      <!-- 2000000 -->
      <g transform="translate(78.692656 53.732571)scale(0.1 -0.1)">
       <use xlink:href="#DejaVuSans-50"/>
       <use x="63.623047" xlink:href="#DejaVuSans-48"/>
       <use x="127.246094" xlink:href="#DejaVuSans-48"/>
       <use x="190.869141" xlink:href="#DejaVuSans-48"/>
       <use x="254.492188" xlink:href="#DejaVuSans-48"/>
       <use x="318.115234" xlink:href="#DejaVuSans-48"/>
       <use x="381.738281" xlink:href="#DejaVuSans-48"/>
      </g>
     </g>
    </g>
    <g id="text_16">
     <!-- queue -->
     <defs>
      <path d="M 14.796875 27.296875 
Q 14.796875 17.390625 18.875 11.75 
Q 22.953125 6.109375 30.078125 6.109375 
Q 37.203125 6.109375 41.296875 11.75 
Q 45.40625 17.390625 45.40625 27.296875 
Q 45.40625 37.203125 41.296875 42.84375 
Q 37.203125 48.484375 30.078125 48.484375 
Q 22.953125 48.484375 18.875 42.84375 
Q 14.796875 37.203125 14.796875 27.296875 
z
M 45.40625 8.203125 
Q 42.578125 3.328125 38.25 0.953125 
Q 33.9375 -1.421875 27.875 -1.421875 
Q 17.96875 -1.421875 11.734375 6.484375 
Q 5.515625 14.40625 5.515625 27.296875 
Q 5.515625 40.1875 11.734375 48.09375 
Q 17.96875 56 27.875 56 
Q 33.9375 56 38.25 53.625 
Q 42.578125 51.265625 45.40625 46.390625 
L 45.40625 54.6875 
L 54.390625 54.6875 
L 54.390625 -20.796875 
L 45.40625 -20.796875 
z
" id="DejaVuSans-113"/>
      <path d="M 8.5 21.578125 
L 8.5 54.6875 
L 17.484375 54.6875 
L 17.484375 21.921875 
Q 17.484375 14.15625 20.5 10.265625 
Q 23.53125 6.390625 29.59375 6.390625 
Q 36.859375 6.390625 41.078125 11.03125 
Q 45.3125 15.671875 45.3125 23.6875 
L 45.3125 54.6875 
L 54.296875 54.6875 
L 54.296875 0 
L 45.3125 0 
L 45.3125 8.40625 
Q 42.046875 3.421875 37.71875 1 
Q 33.40625 -1.421875 27.6875 -1.421875 
Q 18.265625 -1.421875 13.375 4.4375 
Q 8.5 10.296875 8.5 21.578125 
z
M 31.109375 56 
z
" id="DejaVuSans-117"/>
      <path d="M 56.203125 29.59375 
L 56.203125 25.203125 
L 14.890625 25.203125 
Q 15.484375 15.921875 20.484375 11.0625 
Q 25.484375 6.203125 34.421875 6.203125 
Q 39.59375 6.203125 44.453125 7.46875 
Q 49.3125 8.734375 54.109375 11.28125 
L 54.109375 2.78125 
Q 49.265625 0.734375 44.1875 -0.34375 
Q 39.109375 -1.421875 33.890625 -1.421875 
Q 20.796875 -1.421875 13.15625 6.1875 
Q 5.515625 13.8125 5.515625 26.8125 
Q 5.515625 40.234375 12.765625 48.109375 
Q 20.015625 56 32.328125 56 
Q 43.359375 56 49.78125 48.890625 
Q 56.203125 41.796875 56.203125 29.59375 
z
M 47.21875 32.234375 
Q 47.125 39.59375 43.09375 43.984375 
Q 39.0625 48.390625 32.421875 48.390625 
Q 24.90625 48.390625 20.390625 44.140625 
Q 15.875 39.890625 15.1875 32.171875 
z
" id="DejaVuSans-101"/>
     </defs>
     <g transform="translate(61.415156 209.283177)rotate(-90)scale(0.1 -0.1)">
      <use xlink:href="#DejaVuSans-113"/>
      <use x="63.476562" xlink:href="#DejaVuSans-117"/>
      <use x="126.855469" xlink:href="#DejaVuSans-101"/>
      <use x="188.378906" xlink:href="#DejaVuSans-117"/>
      <use x="251.757812" xlink:href="#DejaVuSans-101"/>
     </g>
     <!-- (bytes) -->
     <defs>
      <path d="M 31 75.875 
Q 24.46875 64.65625 21.28125 53.65625 
Q 18.109375 42.671875 18.109375 31.390625 
Q 18.109375 20.125 21.3125 9.0625 
Q 24.515625 -2 31 -13.1875 
L 23.1875 -13.1875 
Q 15.875 -1.703125 12.234375 9.375 
Q 8.59375 20.453125 8.59375 31.390625 
Q 8.59375 42.28125 12.203125 53.3125 
Q 15.828125 64.359375 23.1875 75.875 
z
" id="DejaVuSans-40"/>
      <path d="M 48.6875 27.296875 
Q 48.6875 37.203125 44.609375 42.84375 
Q 40.53125 48.484375 33.40625 48.484375 
Q 26.265625 48.484375 22.1875 42.84375 
Q 18.109375 37.203125 18.109375 27.296875 
Q 18.109375 17.390625 22.1875 11.75 
Q 26.265625 6.109375 33.40625 6.109375 
Q 40.53125 6.109375 44.609375 11.75 
Q 48.6875 17.390625 48.6875 27.296875 
z
M 18.109375 46.390625 
Q 20.953125 51.265625 25.265625 53.625 
Q 29.59375 56 35.59375 56 
Q 45.5625 56 51.78125 48.09375 
Q 58.015625 40.1875 58.015625 27.296875 
Q 58.015625 14.40625 51.78125 6.484375 
Q 45.5625 -1.421875 35.59375 -1.421875 
Q 29.59375 -1.421875 25.265625 0.953125 
Q 20.953125 3.328125 18.109375 8.203125 
L 18.109375 0 
L 9.078125 0 
L 9.078125 75.984375 
L 18.109375 75.984375 
z
" id="DejaVuSans-98"/>
      <path d="M 32.171875 -5.078125 
Q 28.375 -14.84375 24.75 -17.8125 
Q 21.140625 -20.796875 15.09375 -20.796875 
L 7.90625 -20.796875 
L 7.90625 -13.28125 
L 13.1875 -13.28125 
Q 16.890625 -13.28125 18.9375 -11.515625 
Q 21 -9.765625 23.484375 -3.21875 
L 25.09375 0.875 
L 2.984375 54.6875 
L 12.5 54.6875 
L 29.59375 11.921875 
L 46.6875 54.6875 
L 56.203125 54.6875 
z
" id="DejaVuSans-121"/>
      <path d="M 18.3125 70.21875 
L 18.3125 54.6875 
L 36.8125 54.6875 
L 36.8125 47.703125 
L 18.3125 47.703125 
L 18.3125 18.015625 
Q 18.3125 11.328125 20.140625 9.421875 
Q 21.96875 7.515625 27.59375 7.515625 
L 36.8125 7.515625 
L 36.8125 0 
L 27.59375 0 
Q 17.1875 0 13.234375 3.875 
Q 9.28125 7.765625 9.28125 18.015625 
L 9.28125 47.703125 
L 2.6875 47.703125 
L 2.6875 54.6875 
L 9.28125 54.6875 
L 9.28125 70.21875 
z
" id="DejaVuSans-116"/>
      <path d="M 44.28125 53.078125 
L 44.28125 44.578125 
Q 40.484375 46.53125 36.375 47.5 
Q 32.28125 48.484375 27.875 48.484375 
Q 21.1875 48.484375 17.84375 46.4375 
Q 14.5 44.390625 14.5 40.28125 
Q 14.5 37.15625 16.890625 35.375 
Q 19.28125 33.59375 26.515625 31.984375 
L 29.59375 31.296875 
Q 39.15625 29.25 43.1875 25.515625 
Q 47.21875 21.78125 47.21875 15.09375 
Q 47.21875 7.46875 41.1875 3.015625 
Q 35.15625 -1.421875 24.609375 -1.421875 
Q 20.21875 -1.421875 15.453125 -0.5625 
Q 10.6875 0.296875 5.421875 2 
L 5.421875 11.28125 
Q 10.40625 8.6875 15.234375 7.390625 
Q 20.0625 6.109375 24.8125 6.109375 
Q 31.15625 6.109375 34.5625 8.28125 
Q 37.984375 10.453125 37.984375 14.40625 
Q 37.984375 18.0625 35.515625 20.015625 
Q 33.0625 21.96875 24.703125 23.78125 
L 21.578125 24.515625 
Q 13.234375 26.265625 9.515625 29.90625 
Q 5.8125 33.546875 5.8125 39.890625 
Q 5.8125 47.609375 11.28125 51.796875 
Q 16.75 56 26.8125 56 
Q 31.78125 56 36.171875 55.265625 
Q 40.578125 54.546875 44.28125 53.078125 
z
" id="DejaVuSans-115"/>
      <path d="M 8.015625 75.875 
L 15.828125 75.875 
Q 23.140625 64.359375 26.78125 53.3125 
Q 30.421875 42.28125 30.421875 31.390625 
Q 30.421875 20.453125 26.78125 9.375 
Q 23.140625 -1.703125 15.828125 -13.1875 
L 8.015625 -13.1875 
Q 14.5 -2 17.703125 9.0625 
Q 20.90625 20.125 20.90625 31.390625 
Q 20.90625 42.671875 17.703125 53.65625 
Q 14.5 64.65625 8.015625 75.875 
z
" id="DejaVuSans-41"/>
     </defs>
     <g transform="translate(72.612969 211.294896)rotate(-90)scale(0.1 -0.1)">
      <use xlink:href="#DejaVuSans-40"/>
      <use x="39.013672" xlink:href="#DejaVuSans-98"/>
      <use x="102.490234" xlink:href="#DejaVuSans-121"/>
      <use x="161.669922" xlink:href="#DejaVuSans-116"/>
      <use x="200.878906" xlink:href="#DejaVuSans-101"/>
      <use x="262.402344" xlink:href="#DejaVuSans-115"/>
      <use x="314.501953" xlink:href="#DejaVuSans-41"/>
     </g>
    </g>
   </g>
   <g id="line2d_16">
    <path clip-path="url(#pad6a2fbbba)" d="M 148.889425 352.174167 
L 153.219907 352.174167 
L 153.360603 268.434722 
L 153.498647 270.036296 
L 153.636236 345.310278 
L 153.773264 349.199815 
L 153.910251 348.971019 
L 154.048156 348.513426 
L 154.187438 349.199815 
L 154.325171 349.199815 
L 154.46297 347.827037 
L 154.600355 350.572593 
L 154.737386 343.9375 
L 154.874818 350.115 
L 155.012172 340.734352 
L 155.149666 350.801389 
L 155.288464 346.225463 
L 155.426803 350.343796 
L 155.567637 350.572593 
L 155.707859 340.276759 
L 155.98683 273.239444 
L 156.124622 269.349907 
L 156.401562 281.704907 
L 156.539368 294.288704 
L 156.680106 294.746296 
L 156.954136 302.52537 
L 157.091433 302.754167 
L 157.22877 303.669352 
L 157.365578 309.160463 
L 157.502727 307.330093 
L 157.6397 313.05 
L 157.776513 308.245278 
L 157.914283 311.677222 
L 158.052876 306.643704 
L 158.19547 312.134815 
L 158.332668 305.609436 
L 158.47113 307.548915 
L 158.610555 292.458333 
L 159.305169 157.239722 
L 159.581837 150.833426 
L 159.721468 161.129259 
L 159.996613 254.020556 
L 160.273933 261.342037 
L 160.414018 261.801745 
L 160.552139 252.647778 
L 160.827605 265.220391 
L 160.965011 265.112491 
L 161.102723 252.418981 
L 161.241254 259.740463 
L 161.382074 244.639907 
L 161.656675 172.111481 
L 162.073191 76.932222 
L 162.348009 50.620648 
L 162.486437 50.849444 
L 162.624162 50.163056 
L 162.762316 67.093981 
L 163.03807 57.026944 
L 163.17822 80.821759 
L 163.317278 52.898637 
L 163.454315 59.543704 
L 163.728464 176.687407 
L 164.139726 103.930185 
L 164.27711 104.616574 
L 164.414367 115.801147 
L 164.552172 159.070093 
L 164.826561 160.442266 
L 165.102319 167.077963 
L 165.239869 151.291019 
L 165.377142 170.509907 
L 165.794397 158.841296 
L 165.933684 155.409352 
L 166.071137 144.658042 
L 166.348086 171.425093 
L 166.624429 180.576944 
L 166.761686 198.194259 
L 166.899352 180.576944 
L 167.03761 200.482222 
L 167.176871 201.05376 
L 167.727647 156.78213 
L 167.866036 168.450741 
L 168.003095 169.594722 
L 168.140704 165.933981 
L 168.278454 158.154907 
L 168.416597 159.527685 
L 168.55529 149.231852 
L 168.967208 184.695278 
L 169.104436 182.407315 
L 169.24158 184.008889 
L 169.516073 165.703674 
L 169.653042 173.713056 
L 169.791175 171.425093 
L 170.204732 155.866944 
L 170.342163 143.740741 
L 170.479684 159.070093 
L 170.616798 154.951759 
L 170.753824 155.866944 
L 170.891568 150.147037 
L 171.034262 153.807778 
L 171.171642 151.291019 
L 171.72181 201.626204 
L 171.859647 213.066019 
L 171.996927 176.916204 
L 172.13435 182.178519 
L 172.821101 96.8375 
L 172.958066 102.786204 
L 173.233156 81.965741 
L 173.370434 79.677778 
L 173.507734 80.592661 
L 173.645355 79.906574 
L 173.783074 85.854069 
L 173.920931 70.983519 
L 174.059339 70.754722 
L 174.47706 347.827037 
L 174.619585 352.174167 
L 174.761172 285.594444 
L 174.90036 281.247315 
L 175.038445 280.789722 
L 175.176547 279.874537 
L 175.313877 281.933704 
L 175.451277 279.874537 
L 175.588568 284.450463 
L 175.868619 307.558889 
L 176.005448 306.414907 
L 176.143315 308.474074 
L 176.283523 305.270926 
L 176.421012 305.728519 
L 176.558199 305.499722 
L 176.695579 306.186111 
L 176.832586 304.357252 
L 176.969437 305.957315 
L 177.106535 304.126944 
L 177.244347 304.813333 
L 177.381407 302.067778 
L 177.521738 303.898148 
L 177.660304 300.923796 
L 177.798272 303.898148 
L 177.936149 302.296574 
L 178.073757 304.584537 
L 178.211092 303.898148 
L 178.485308 300.237407 
L 178.62259 304.126944 
L 178.760058 300.008611 
L 178.898617 303.211759 
L 179.036644 302.296574 
L 179.174045 304.357252 
L 179.31148 302.296574 
L 179.448537 304.813333 
L 179.585453 302.067778 
L 179.722713 302.067778 
L 179.860396 302.52537 
L 180.137634 300.008611 
L 180.276358 303.211759 
L 180.551285 299.544671 
L 180.68863 300.923796 
L 180.963213 298.407037 
L 181.100329 300.008611 
L 181.238548 294.5175 
L 181.375653 294.288704 
L 181.519487 297.949444 
L 181.798514 293.831111 
L 181.935522 294.5175 
L 182.210387 291.085556 
L 182.34751 294.059907 
L 182.48579 291.771944 
L 182.760752 294.288704 
L 182.898573 293.373519 
L 183.036358 291.543148 
L 183.174849 293.831111 
L 183.312189 290.399167 
L 183.449765 294.5175 
L 183.587415 292.000741 
L 183.728075 292.000741 
L 183.869254 291.771944 
L 184.007011 288.568796 
L 184.144757 281.476111 
L 184.283795 290.17037 
L 184.56419 285.594444 
L 184.704379 292.000741 
L 184.980108 278.959352 
L 185.118392 285.365648 
L 185.256574 282.620093 
L 185.394755 275.985 
L 185.532845 284.221667 
L 185.670618 283.306481 
L 185.807619 275.069815 
L 185.94443 282.620093 
L 186.081474 281.476111 
L 186.219047 275.069815 
L 186.356079 280.789722 
L 186.493241 279.645741 
L 186.633603 279.645741 
L 186.770653 283.306481 
L 187.045207 281.018519 
L 187.182151 281.933704 
L 187.319893 280.33213 
L 187.458999 281.018519 
L 187.596702 279.874537 
L 187.735053 352.174167 
L 188.023054 352.174167 
L 188.726565 302.52537 
L 188.863993 302.067778 
L 189.001643 302.982963 
L 189.139017 302.067778 
L 189.276927 311.448426 
L 189.414962 307.101296 
L 189.552666 308.245278 
L 189.689975 304.584537 
L 189.827222 305.270926 
L 189.966269 305.270926 
L 190.106017 303.898148 
L 190.243273 305.728519 
L 190.380469 304.126944 
L 190.519137 306.414907 
L 190.65767 305.957315 
L 190.795707 304.357252 
L 190.932877 304.813333 
L 191.07025 304.813333 
L 191.208182 305.270926 
L 191.346016 307.101296 
L 191.484948 307.101296 
L 191.624516 305.499722 
L 191.761576 305.270926 
L 191.900122 305.728519 
L 192.037414 305.499722 
L 192.174339 306.186111 
L 192.312127 305.499722 
L 192.588033 307.558889 
L 192.728616 304.813333 
L 192.869341 309.61866 
L 193.009908 305.728519 
L 193.147786 310.075648 
L 193.285388 306.414907 
L 193.422608 310.762037 
L 193.559546 306.414907 
L 193.697239 308.474074 
L 193.834212 307.787685 
L 193.971543 309.389259 
L 194.108546 307.101296 
L 194.245371 307.787685 
L 194.382176 304.126944 
L 194.519533 305.04213 
L 194.659089 302.982963 
L 194.795911 304.584537 
L 194.932646 304.357252 
L 195.206161 304.813333 
L 195.343296 306.643704 
L 195.480372 306.8725 
L 195.755118 305.499722 
L 195.893047 305.04213 
L 196.029922 308.70287 
L 196.166952 307.101296 
L 196.304816 307.558889 
L 196.443016 306.186111 
L 196.719041 308.245278 
L 196.856392 308.70287 
L 196.993853 308.016481 
L 197.131658 308.70287 
L 197.268884 306.643704 
L 197.408654 307.787685 
L 197.546335 305.04213 
L 197.683859 309.846852 
L 197.821951 305.499722 
L 197.959747 308.70287 
L 198.098529 305.728519 
L 198.236665 308.931667 
L 198.375972 304.357252 
L 198.654424 305.728519 
L 198.792069 307.787685 
L 198.929209 307.558889 
L 199.067773 305.270926 
L 199.207341 306.186111 
L 199.344976 308.016481 
L 199.483028 305.957315 
L 199.620509 305.957315 
L 199.89683 307.330093 
L 200.171384 306.414907 
L 200.310526 307.330093 
L 200.448275 306.643704 
L 200.585644 308.016481 
L 200.724667 306.186111 
L 200.863441 307.455523 
L 201.002139 307.558889 
L 201.141315 352.174167 
L 201.2786 352.174167 
L 201.4227 351.258981 
L 201.984963 306.643704 
L 202.122578 302.067778 
L 202.261284 301.610185 
L 202.399476 307.101296 
L 202.539034 302.754167 
L 202.677112 308.70287 
L 202.815376 306.186111 
L 202.953566 311.677222 
L 203.093098 306.8725 
L 203.231951 308.70287 
L 203.370046 308.016481 
L 203.508042 308.931667 
L 203.646012 307.101296 
L 203.783372 309.389259 
L 203.921455 306.643704 
L 204.059232 309.846852 
L 204.197014 307.558889 
L 204.334729 308.70287 
L 204.473031 305.270926 
L 204.611007 306.643704 
L 204.748808 305.957315 
L 204.886423 307.330093 
L 205.023871 304.126944 
L 205.301617 306.643704 
L 205.445685 306.186111 
L 205.58402 310.304444 
L 205.721516 306.643704 
L 205.859378 309.846852 
L 205.997675 306.643704 
L 206.135403 309.61866 
L 206.273433 307.101296 
L 206.415512 310.533241 
L 206.554081 307.101296 
L 206.69223 308.70287 
L 206.830876 307.101296 
L 206.97017 310.075648 
L 207.108784 308.245278 
L 207.246552 308.474074 
L 207.38457 305.957315 
L 207.522372 308.016481 
L 207.660615 305.270926 
L 207.79858 305.499722 
L 208.075663 304.813333 
L 208.353057 309.160463 
L 208.490314 310.533241 
L 208.627473 306.643704 
L 208.765286 308.474074 
L 208.902972 307.101296 
L 209.041879 310.075648 
L 209.180621 309.160463 
L 209.318332 309.389259 
L 209.459586 307.558889 
L 209.597016 309.160463 
L 209.734369 307.101296 
L 209.874432 308.474074 
L 210.011562 306.186111 
L 210.15172 308.70287 
L 210.293756 305.728519 
L 210.432116 307.330093 
L 210.569122 305.728519 
L 210.706191 306.186111 
L 210.844189 305.04213 
L 210.982072 305.04213 
L 211.120465 305.957315 
L 211.258997 305.957315 
L 211.396942 308.245278 
L 211.534256 306.643704 
L 211.672158 309.160463 
L 211.811071 307.101296 
L 211.948553 311.906019 
L 212.087029 309.846852 
L 212.225003 309.846852 
L 212.362304 306.8725 
L 212.499444 309.389259 
L 212.637188 307.101296 
L 212.774613 309.846852 
L 212.912485 308.474074 
L 213.050171 310.533241 
L 213.18706 306.8725 
L 213.324063 307.787685 
L 213.461805 305.04213 
L 213.598678 308.245278 
L 213.736395 306.414907 
L 213.874219 308.016481 
L 214.011558 304.813333 
L 214.148517 306.8725 
L 214.286378 305.728519 
L 214.424072 318.541111 
L 214.56415 352.174167 
L 214.708794 352.174167 
L 215.001211 324.718611 
L 215.284574 297.491852 
L 215.422412 300.695 
L 215.561958 298.40069 
L 215.700665 306.414907 
L 215.838135 301.381389 
L 215.977252 306.643704 
L 216.115169 304.126944 
L 216.256705 308.016481 
L 216.394669 304.584537 
L 216.532577 306.8725 
L 216.671982 305.499722 
L 216.809984 309.160463 
L 216.948488 305.957315 
L 217.08637 309.61866 
L 217.224391 307.330093 
L 217.361467 310.075648 
L 217.499329 307.330093 
L 217.637294 308.931667 
L 217.775033 306.8725 
L 217.912751 306.853459 
L 218.187113 308.016481 
L 218.461109 306.643704 
L 218.598029 309.160463 
L 218.734909 307.558889 
L 218.871995 311.21963 
L 219.284728 304.126944 
L 219.422336 307.558889 
L 219.560944 305.04213 
L 219.699082 308.016481 
L 219.836328 305.728519 
L 219.973695 308.474074 
L 220.11148 306.186111 
L 220.249321 310.990833 
L 220.38706 308.474074 
L 220.524676 309.389259 
L 220.662534 305.957315 
L 220.800439 308.70287 
L 220.937698 306.186111 
L 221.074854 308.245278 
L 221.21401 306.414907 
L 221.351708 308.016481 
L 221.489011 305.04213 
L 221.626614 307.787685 
L 221.763961 305.04213 
L 222.039396 307.558889 
L 222.176483 306.8725 
L 222.313616 307.787685 
L 222.450543 305.270926 
L 222.58744 307.330093 
L 222.724536 306.186111 
L 222.861609 307.330093 
L 222.998588 305.957315 
L 223.135992 308.245278 
L 223.272958 306.186111 
L 223.409991 309.160463 
L 223.546894 307.787685 
L 223.683878 309.61866 
L 223.820772 308.931667 
L 223.957715 309.389259 
L 224.09475 307.558889 
L 224.231733 311.677222 
L 224.368663 308.70287 
L 224.506061 309.846852 
L 224.643334 307.330093 
L 224.78032 308.474074 
L 224.917688 305.499722 
L 225.057324 309.61866 
L 225.19469 305.04213 
L 225.334139 306.643704 
L 225.473297 303.898148 
L 225.610284 306.643704 
L 225.747532 305.270926 
L 225.884568 306.414907 
L 226.021655 306.186111 
L 226.161429 306.414907 
L 226.30123 309.389259 
L 226.439376 307.787685 
L 226.57778 310.762037 
L 226.715406 308.016481 
L 226.852751 310.075648 
L 226.990367 308.245278 
L 227.128248 310.304444 
L 227.265958 308.931667 
L 227.403476 310.075648 
L 227.540855 308.016481 
L 227.678263 310.762037 
L 227.815772 322.888241 
L 227.957633 352.174167 
L 228.098246 352.174167 
L 228.378641 325.633796 
L 228.51576 301.381389 
L 228.653658 297.720648 
L 228.795457 298.635833 
L 228.932801 297.949444 
L 229.350561 307.787685 
L 229.488044 306.643704 
L 229.626664 309.846852 
L 229.763917 307.101296 
L 229.901462 309.61866 
L 230.038843 305.04213 
L 230.176091 309.160463 
L 230.313359 304.357252 
L 230.450691 308.70287 
L 230.588402 305.270926 
L 230.726219 310.762037 
L 230.86381 305.270926 
L 231.003197 309.61866 
L 231.142672 306.186111 
L 231.281562 308.245278 
L 231.419126 306.643704 
L 231.556753 307.558889 
L 231.694211 307.558889 
L 231.831402 308.245278 
L 231.968928 308.245278 
L 232.106335 307.101296 
L 232.24383 309.389259 
L 232.381652 307.101296 
L 232.519017 309.389259 
L 232.655932 306.414907 
L 232.793303 308.70287 
L 232.930331 305.957315 
L 233.067207 310.075648 
L 233.204523 306.8725 
L 233.341504 310.533241 
L 233.478716 306.414907 
L 233.616242 310.762037 
L 233.75553 305.957315 
L 233.892783 310.990833 
L 234.030291 306.186111 
L 234.167534 311.21963 
L 234.304552 306.186111 
L 234.441941 308.474074 
L 234.57918 306.186111 
L 234.716539 308.474074 
L 234.853779 306.186111 
L 234.998254 309.61866 
L 235.288253 308.016481 
L 235.432762 309.61866 
L 235.576672 306.8725 
L 235.718607 310.075648 
L 235.855451 305.957315 
L 235.99234 310.304444 
L 236.129437 306.186111 
L 236.267676 310.762037 
L 236.405679 305.728519 
L 236.543342 309.389259 
L 236.680244 305.957315 
L 236.817981 310.304444 
L 236.955277 307.330093 
L 237.092426 310.075648 
L 237.229568 307.558889 
L 237.366847 309.846852 
L 237.507168 307.101296 
L 237.645023 309.389259 
L 237.782727 308.474074 
L 237.919833 309.160463 
L 238.056985 309.160463 
L 238.194426 308.474074 
L 238.333583 310.990833 
L 238.470557 307.558889 
L 238.607577 309.389259 
L 238.746492 305.957315 
L 238.884322 309.61866 
L 239.021278 305.499722 
L 239.158046 312.592407 
L 239.29481 306.643704 
L 239.432364 310.304444 
L 239.569206 305.728519 
L 239.706946 310.304444 
L 239.843757 307.101296 
L 239.98077 310.990833 
L 240.119735 307.558889 
L 240.256595 310.762037 
L 240.394891 305.957315 
L 240.531789 308.931667 
L 240.668669 306.414907 
L 240.805571 308.931667 
L 240.942627 307.558889 
L 241.079962 309.61866 
L 241.358228 352.174167 
L 241.502338 352.174167 
L 242.337821 299.322222 
L 242.475046 304.126944 
L 242.612175 301.610185 
L 242.751114 306.186111 
L 242.888297 305.04213 
L 243.025325 310.075648 
L 243.162559 309.160463 
L 243.299528 311.906019 
L 243.436703 310.533241 
L 243.574898 311.677222 
L 243.713207 307.787685 
L 243.850689 309.389259 
L 243.989591 303.898148 
L 244.127118 309.846852 
L 244.264629 304.584537 
L 244.40248 309.61866 
L 244.541215 304.126944 
L 244.678991 310.304444 
L 244.816851 305.957315 
L 244.956043 310.762037 
L 245.093749 308.70287 
L 245.231434 310.533241 
L 245.371932 308.474074 
L 245.648606 309.846852 
L 245.786019 310.075648 
L 245.923357 309.846852 
L 246.060656 309.389259 
L 246.198396 311.448426 
L 246.335965 308.70287 
L 246.474488 309.61866 
L 246.615357 309.160463 
L 246.753393 311.21963 
L 246.891437 307.101296 
L 247.030256 312.134815 
L 247.168763 306.414907 
L 247.306742 312.134815 
L 247.444688 307.558889 
L 247.583077 312.821204 
L 247.721337 306.414907 
L 247.859495 310.533241 
L 247.997501 306.414907 
L 248.135416 311.906019 
L 248.272736 307.787685 
L 248.411032 309.389259 
L 248.687394 306.8725 
L 248.833721 310.533241 
L 248.972902 308.931667 
L 249.112083 311.21963 
L 249.250079 308.016481 
L 249.387269 309.846852 
L 249.525514 308.474074 
L 249.663408 311.21963 
L 249.801818 307.787685 
L 249.940155 312.357264 
L 250.078315 308.016481 
L 250.216427 311.906019 
L 250.354435 306.8725 
L 250.493834 310.304444 
L 250.632609 306.414907 
L 250.770057 310.762037 
L 250.907409 306.414907 
L 251.046611 308.931667 
L 251.184022 308.245278 
L 251.321124 310.075648 
L 251.458471 308.474074 
L 251.734573 309.389259 
L 251.872591 309.160463 
L 252.011864 311.677222 
L 252.150381 309.846852 
L 252.287878 310.990833 
L 252.425343 308.245278 
L 252.562771 309.160463 
L 252.700116 306.8725 
L 252.837125 308.70287 
L 252.974686 305.728519 
L 253.112269 309.389259 
L 253.249973 305.499722 
L 253.38751 309.160463 
L 253.52505 306.643704 
L 253.662521 309.389259 
L 253.802537 305.957315 
L 253.940431 308.931667 
L 254.07802 307.101296 
L 254.215163 310.075648 
L 254.352192 306.186111 
L 254.489604 307.330093 
L 254.631861 352.174167 
L 254.919825 352.174167 
L 255.617546 298.86463 
L 256.170731 302.754167 
L 256.309068 305.270926 
L 256.447388 305.499722 
L 256.590106 306.643704 
L 256.728732 306.186111 
L 256.866067 308.931667 
L 257.00382 307.558889 
L 257.28024 310.075648 
L 257.418495 308.70287 
L 257.555645 309.389259 
L 257.967573 307.787685 
L 258.106632 308.931667 
L 258.246063 307.787685 
L 258.384914 307.787685 
L 258.522347 309.160463 
L 258.659689 306.8725 
L 258.797347 307.330093 
L 258.934749 307.330093 
L 259.072048 306.643704 
L 259.209585 305.270926 
L 259.346983 306.186111 
L 259.484312 305.957315 
L 259.623152 305.270926 
L 259.761598 305.499722 
L 259.899261 305.957315 
L 260.037018 308.245278 
L 260.17395 307.558889 
L 260.312712 309.61866 
L 260.451345 305.957315 
L 260.588582 307.558889 
L 260.72825 307.330093 
L 260.86579 308.016481 
L 261.00567 307.787685 
L 261.142871 309.160463 
L 261.280429 308.70287 
L 261.417954 309.61866 
L 261.555686 307.558889 
L 261.692784 307.330093 
L 261.829756 308.016481 
L 262.106106 306.637357 
L 262.245212 308.245278 
L 262.382688 307.101296 
L 262.519897 307.558889 
L 262.656624 305.270926 
L 262.793519 306.643704 
L 263.067316 305.499722 
L 263.208757 306.643704 
L 263.350094 304.813333 
L 263.487465 308.245278 
L 263.625734 305.04213 
L 263.763776 308.70287 
L 263.902844 306.186111 
L 264.0395 311.906019 
L 264.176159 309.160463 
L 264.315756 309.846852 
L 264.454661 307.787685 
L 264.592896 308.245278 
L 264.730964 309.160463 
L 264.868889 304.584537 
L 265.007244 308.474074 
L 265.147743 307.787685 
L 265.284767 308.70287 
L 265.423035 308.016481 
L 265.561182 308.016481 
L 265.700691 306.186111 
L 265.838794 306.186111 
L 265.976358 305.04213 
L 266.114103 306.414907 
L 266.252367 305.04213 
L 266.391037 309.160463 
L 266.529605 307.787685 
L 266.669108 311.21963 
L 266.807448 305.728519 
L 266.944633 309.846852 
L 267.083025 306.186111 
L 267.221038 310.533241 
L 267.360195 307.330093 
L 267.497586 309.160463 
L 267.639076 308.931667 
L 267.777062 309.846852 
L 267.915342 308.931667 
L 268.053568 352.174167 
L 268.343105 352.174167 
L 268.635317 324.489815 
L 268.910646 296.119074 
L 269.049098 299.322222 
L 269.187023 296.805463 
L 269.600648 303.669352 
L 269.738884 305.499722 
L 269.876621 310.075648 
L 270.014853 309.160463 
L 270.152516 310.990833 
L 270.290675 307.101296 
L 270.428481 313.05 
L 270.566281 307.101296 
L 270.703988 312.134815 
L 270.841661 306.643704 
L 270.978973 310.304444 
L 271.115858 305.957315 
L 271.252996 310.304444 
L 271.394865 307.101296 
L 271.536585 309.846852 
L 271.674393 307.101296 
L 271.812094 308.70287 
L 271.949179 306.643704 
L 272.086899 307.787685 
L 272.224561 307.330093 
L 272.362257 309.61866 
L 272.499884 308.016481 
L 272.637926 308.245278 
L 272.783644 308.245278 
L 272.930376 306.186111 
L 273.067985 310.533241 
L 273.206064 305.728519 
L 273.344221 309.846852 
L 273.481845 305.270926 
L 273.619829 310.304444 
L 273.758199 305.728519 
L 273.896704 310.304444 
L 274.035289 306.8725 
L 274.172709 310.075648 
L 274.309923 307.558889 
L 274.447643 310.762037 
L 274.584814 308.245278 
L 274.722617 310.304444 
L 274.86076 307.787685 
L 274.998167 309.61866 
L 275.136266 307.330093 
L 275.27675 310.304444 
L 275.413839 306.8725 
L 275.688816 309.160463 
L 275.826585 309.846852 
L 275.963613 309.389259 
L 276.100783 308.245278 
L 276.23785 311.21963 
L 276.374824 308.245278 
L 276.511858 313.05 
L 276.649721 308.016481 
L 276.786803 311.906019 
L 276.923945 308.245278 
L 277.060928 313.05 
L 277.19954 308.70287 
L 277.336689 310.990833 
L 277.474145 306.643704 
L 277.611734 310.990833 
L 277.748672 307.787685 
L 277.886803 310.304444 
L 278.02479 308.016481 
L 278.162186 311.21963 
L 278.299543 307.558889 
L 278.436829 309.389259 
L 278.573906 307.101296 
L 278.711405 309.846852 
L 278.848845 307.558889 
L 278.985992 309.61866 
L 279.123435 306.8725 
L 279.260933 309.61866 
L 279.398436 308.474074 
L 279.673367 309.61866 
L 279.810831 307.787685 
L 279.948352 310.533241 
L 280.085993 307.558889 
L 280.223232 311.677222 
L 280.360401 306.8725 
L 280.50038 312.134815 
L 280.638324 309.160463 
L 280.775799 311.677222 
L 280.91339 307.787685 
L 281.050726 310.075648 
L 281.188256 308.245278 
L 281.325752 310.075648 
L 281.466279 352.174167 
L 281.609947 352.174167 
L 281.75688 349.886204 
L 282.032226 318.998704 
L 282.169478 300.237407 
L 282.30679 297.034259 
L 282.44426 299.551019 
L 282.581793 296.576667 
L 282.721028 305.04213 
L 282.860356 302.067778 
L 283.000003 308.245278 
L 283.14367 306.414907 
L 283.281146 313.278796 
L 283.418502 309.61866 
L 283.556991 311.677222 
L 283.695638 306.643704 
L 283.832602 308.70287 
L 283.970142 305.728519 
L 284.107618 308.70287 
L 284.245297 306.8725 
L 284.383988 310.075648 
L 284.522369 308.016481 
L 284.660689 310.304444 
L 284.797674 308.016481 
L 284.934592 308.245278 
L 285.071463 309.61866 
L 285.208395 308.016481 
L 285.346065 311.21963 
L 285.483242 307.787685 
L 285.620577 311.21963 
L 285.758402 306.414907 
L 285.895766 311.21963 
L 286.033402 306.186111 
L 286.17056 312.134815 
L 286.307813 308.016481 
L 286.44531 310.990833 
L 286.5832 308.010134 
L 286.720429 311.906019 
L 286.858185 308.474074 
L 286.996076 311.677222 
L 287.133607 308.016481 
L 287.270985 311.21963 
L 287.408158 308.931667 
L 287.545113 310.762037 
L 287.682448 308.245278 
L 287.819938 310.075648 
L 287.957667 307.101296 
L 288.09534 308.474074 
L 288.232902 306.643704 
L 288.370256 307.558889 
L 288.507271 307.101296 
L 288.645253 307.101296 
L 288.786814 309.61866 
L 288.924993 307.330093 
L 289.063104 310.304444 
L 289.201972 305.270926 
L 289.339318 309.160463 
L 289.477115 305.04213 
L 289.614502 308.245278 
L 289.75258 306.8725 
L 289.889703 309.61866 
L 290.026709 307.787685 
L 290.163831 309.846852 
L 290.301801 306.643704 
L 290.439834 309.160463 
L 290.57936 306.414907 
L 290.717616 308.70287 
L 290.854705 306.186111 
L 290.992749 309.61866 
L 291.130979 306.643704 
L 291.268103 307.787685 
L 291.405723 307.101296 
L 291.542835 307.101296 
L 291.680085 305.957315 
L 291.817486 307.787685 
L 291.955087 308.016481 
L 292.095535 307.787685 
L 292.234636 309.846852 
L 292.372609 306.8725 
L 292.510818 310.762037 
L 292.647944 308.245278 
L 292.787144 310.304444 
L 292.925678 308.931667 
L 293.062867 309.846852 
L 293.201772 307.558889 
L 293.339379 310.075648 
L 293.477501 307.787685 
L 293.614809 309.846852 
L 293.751689 307.558889 
L 293.889323 310.533241 
L 294.026785 306.643704 
L 294.164145 308.016481 
L 294.302309 305.957315 
L 294.442644 307.101296 
L 294.580589 306.186111 
L 294.717654 307.330093 
L 294.862459 352.174167 
L 295.00687 352.174167 
L 295.152514 348.971019 
L 295.702324 297.034259 
L 295.978957 298.635833 
L 296.117177 304.357252 
L 296.254488 301.610185 
L 296.528684 307.101296 
L 296.665514 308.245278 
L 296.802501 306.186111 
L 297.076517 306.186111 
L 297.214485 307.101296 
L 297.352741 307.101296 
L 297.627668 305.957315 
L 297.76484 307.330093 
L 298.038934 305.957315 
L 298.17612 307.787685 
L 298.31497 305.499722 
L 298.452766 309.389259 
L 298.590371 307.558889 
L 298.729412 308.245278 
L 298.866289 305.957315 
L 299.003768 307.558889 
L 299.141226 306.8725 
L 299.278601 308.931667 
L 299.419371 308.474074 
L 299.558336 306.8725 
L 299.696036 306.8725 
L 299.970323 305.270926 
L 300.109044 307.330093 
L 300.247147 307.101296 
L 300.523793 305.728519 
L 300.662092 305.957315 
L 300.799021 306.643704 
L 300.937954 306.414907 
L 301.075179 305.270926 
L 301.212666 306.186111 
L 301.350402 306.186111 
L 301.487451 307.330093 
L 301.624435 306.8725 
L 301.761524 307.101296 
L 301.89865 306.8725 
L 302.035339 308.70287 
L 302.447836 307.101296 
L 302.586251 308.016481 
L 302.728043 307.787685 
L 302.865116 309.160463 
L 303.002189 308.474074 
L 303.139217 306.643704 
L 303.276801 307.558889 
L 303.550918 306.414907 
L 303.687892 308.245278 
L 303.824889 307.787685 
L 303.962679 305.04213 
L 304.237303 306.8725 
L 304.374515 305.499722 
L 304.511657 306.414907 
L 304.648604 305.04213 
L 304.922632 306.414907 
L 305.059656 306.8725 
L 305.333835 305.957315 
L 305.47096 306.8725 
L 305.607996 305.957315 
L 305.744913 307.101296 
L 305.88182 306.643704 
L 306.019542 308.931667 
L 306.157683 307.101296 
L 306.294879 310.762037 
L 306.431941 307.330093 
L 306.56928 306.8725 
L 306.843643 309.389259 
L 306.980649 307.558889 
L 307.11773 309.389259 
L 307.254768 308.70287 
L 307.391768 306.186111 
L 307.528844 307.101296 
L 307.665961 307.101296 
L 307.802896 306.186111 
L 307.944574 308.016481 
L 308.086275 305.957315 
L 308.223397 352.174167 
L 308.497285 352.174167 
L 309.184676 298.86463 
L 309.321792 300.923796 
L 309.458931 298.635833 
L 310.007018 308.016481 
L 310.144336 308.70287 
L 310.420355 304.813333 
L 310.970544 307.330093 
L 311.107521 306.414907 
L 311.244442 307.787685 
L 311.381373 307.330093 
L 311.518351 309.61866 
L 311.655341 306.186111 
L 311.79266 308.245278 
L 311.929699 306.643704 
L 312.066913 308.245278 
L 312.203908 308.245278 
L 312.340913 308.016481 
L 312.477834 309.61866 
L 312.614836 308.70287 
L 312.751891 308.70287 
L 313.027031 309.160463 
L 313.316392 305.957315 
L 313.461218 304.584537 
L 313.873725 307.787685 
L 314.010815 306.643704 
L 314.147815 309.61866 
L 314.284755 306.414907 
L 314.426365 309.389259 
L 314.571274 308.245278 
L 314.716085 310.075648 
L 314.989919 308.70287 
L 315.263877 307.558889 
L 315.400999 307.787685 
L 315.538065 308.245278 
L 315.815671 306.414907 
L 315.95284 307.787685 
L 316.089915 307.330093 
L 316.226872 306.186111 
L 316.363921 306.643704 
L 316.500895 306.186111 
L 316.638419 305.04213 
L 316.77545 307.101296 
L 316.912308 305.04213 
L 317.049734 308.245278 
L 317.186651 305.499722 
L 317.323667 308.245278 
L 317.46049 307.101296 
L 317.597477 308.70287 
L 317.734435 307.558889 
L 317.871286 309.846852 
L 318.008393 308.245278 
L 318.145545 308.931667 
L 318.287146 308.016481 
L 318.425084 308.245278 
L 318.562147 308.245278 
L 318.699223 309.61866 
L 319.247329 307.558889 
L 319.384342 308.016481 
L 319.521341 309.61866 
L 319.795862 307.330093 
L 319.932869 307.330093 
L 320.069907 306.186111 
L 320.206949 307.787685 
L 320.346776 304.813333 
L 320.486531 308.931667 
L 320.626299 305.728519 
L 320.763343 307.330093 
L 320.900834 305.04213 
L 321.17595 309.160463 
L 321.312993 310.075648 
L 321.450419 307.101296 
L 321.593429 352.174167 
L 321.880779 352.174167 
L 322.157888 324.489815 
L 322.433298 297.491852 
L 322.709183 299.322222 
L 322.8467 302.754167 
L 322.984889 299.779815 
L 323.397061 309.160463 
L 323.53442 305.270926 
L 323.673351 308.245278 
L 323.813248 305.270926 
L 323.950215 308.245278 
L 324.087549 307.787685 
L 324.224795 310.075648 
L 324.363159 307.330093 
L 324.500796 309.160463 
L 324.637993 308.016481 
L 324.914558 308.016481 
L 325.051874 306.414907 
L 325.326584 307.558889 
L 325.464121 308.245278 
L 325.603611 307.330093 
L 325.742665 308.931667 
L 325.881896 306.414907 
L 326.019814 307.330093 
L 326.15872 304.357252 
L 326.297048 307.330093 
L 326.435137 303.898148 
L 326.573088 307.787685 
L 326.711172 304.126944 
L 326.85702 310.762037 
L 326.995255 305.270926 
L 327.133587 310.075648 
L 327.271872 306.8725 
L 327.409581 309.61866 
L 327.547595 307.787685 
L 327.687586 310.075648 
L 328.102955 307.558889 
L 328.379287 308.70287 
L 328.791846 306.414907 
L 328.931152 307.330093 
L 329.068357 304.813333 
L 329.205344 308.70287 
L 329.342417 305.957315 
L 329.479474 309.846852 
L 329.61653 307.330093 
L 329.753514 309.846852 
L 329.890641 304.584537 
L 330.028246 310.304444 
L 330.165462 305.270926 
L 330.302697 310.304444 
L 330.440911 307.330093 
L 330.579101 310.304444 
L 330.718305 306.643704 
L 330.855912 309.61866 
L 330.993259 307.101296 
L 331.131241 308.70287 
L 331.26901 308.245278 
L 331.545767 309.61866 
L 331.683298 308.016481 
L 331.820629 307.787685 
L 332.096561 308.474074 
L 332.233925 308.474074 
L 332.51028 307.787685 
L 332.649877 309.160463 
L 332.787606 306.414907 
L 332.92502 310.990833 
L 333.061954 307.101296 
L 333.199072 312.592407 
L 333.337282 305.957315 
L 333.47485 310.075648 
L 333.612746 305.728519 
L 333.750936 310.075648 
L 333.889111 305.728519 
L 334.027267 310.075648 
L 334.164833 306.414907 
L 334.303811 308.931667 
L 334.441081 307.558889 
L 334.578311 307.558889 
L 334.715964 306.414907 
L 334.854414 308.245278 
L 334.994455 352.174167 
L 335.281047 352.174167 
L 335.563974 335.243241 
L 335.838741 303.211759 
L 335.977103 298.635833 
L 336.11542 300.237407 
L 336.252445 298.86463 
L 336.390213 302.067778 
L 336.530194 302.067778 
L 336.668578 306.643704 
L 336.807329 306.414907 
L 336.944707 310.075648 
L 337.081639 307.330093 
L 337.224732 310.533241 
L 337.3687 307.787685 
L 337.512879 309.160463 
L 337.654391 306.8725 
L 337.791988 308.245278 
L 337.929083 305.957315 
L 338.204118 308.474074 
L 338.341862 305.499722 
L 338.479085 308.016481 
L 338.618171 306.414907 
L 338.758638 307.787685 
L 338.896527 306.186111 
L 339.033875 311.21963 
L 339.17129 308.245278 
L 339.308532 309.389259 
L 339.445846 307.101296 
L 339.583188 308.70287 
L 339.720557 307.330093 
L 339.858559 309.846852 
L 339.996714 307.101296 
L 340.134925 308.931667 
L 340.272716 306.8725 
L 340.415153 309.389259 
L 340.552397 306.414907 
L 340.689944 308.474074 
L 340.827524 305.270926 
L 340.965735 307.330093 
L 341.103983 305.957315 
L 341.242775 309.160463 
L 341.518927 306.643704 
L 341.656501 308.70287 
L 341.799263 307.558889 
L 341.936579 307.787685 
L 342.074581 306.8725 
L 342.211582 310.533241 
L 342.348557 307.558889 
L 342.486385 309.160463 
L 342.624034 308.016481 
L 342.762018 309.61866 
L 342.898927 306.8725 
L 343.039334 309.846852 
L 343.176523 305.957315 
L 343.313536 311.677222 
L 343.451445 308.016481 
L 343.589237 308.016481 
L 343.726989 305.728519 
L 343.864979 308.474074 
L 344.003545 304.813333 
L 344.146467 307.330093 
L 344.289579 306.643704 
L 344.565533 308.245278 
L 344.703476 307.787685 
L 344.841367 308.931667 
L 344.97918 306.643704 
L 345.116899 308.70287 
L 345.255064 305.957315 
L 345.39338 308.016481 
L 345.531104 307.330093 
L 345.669087 309.61866 
L 345.806879 306.8725 
L 345.944774 310.990833 
L 346.081809 308.474074 
L 346.219076 310.762037 
L 346.357146 307.558889 
L 346.495171 308.931667 
L 346.634643 306.8725 
L 346.772492 308.016481 
L 346.912736 305.728519 
L 347.051927 308.70287 
L 347.189747 304.813333 
L 347.327831 308.016481 
L 347.465288 305.270926 
L 347.602518 306.643704 
L 347.739704 305.728519 
L 347.877107 306.643704 
L 348.152211 305.728519 
L 348.292241 308.016481 
L 348.436084 352.174167 
L 348.580031 352.174167 
L 348.86439 343.479907 
L 349.556249 301.152593 
L 349.694009 303.440556 
L 349.831965 302.52537 
L 350.24666 308.931667 
L 350.389326 310.304444 
L 350.527036 308.70287 
L 350.664533 310.762037 
L 350.802209 306.643704 
L 350.940108 310.304444 
L 351.077483 308.016481 
L 351.214676 310.533241 
L 351.352393 307.101296 
L 351.489519 309.846852 
L 351.626958 305.728519 
L 351.7641 308.016481 
L 351.901659 306.414907 
L 352.03976 308.245278 
L 352.182491 304.813333 
L 352.325538 306.643704 
L 352.463829 304.126944 
L 352.601245 306.8725 
L 352.738256 307.101296 
L 352.875611 309.846852 
L 353.012912 306.414907 
L 353.150195 308.70287 
L 353.426444 307.558889 
L 353.563578 310.762037 
L 353.701463 307.787685 
L 353.839284 311.21963 
L 353.977156 308.931667 
L 354.115158 309.846852 
L 354.252784 307.330093 
L 354.390332 310.990833 
L 354.527801 308.016481 
L 354.665108 309.846852 
L 354.803778 308.016481 
L 354.941222 308.245278 
L 355.079731 305.957315 
L 355.217704 308.70287 
L 355.355909 305.04213 
L 355.494067 308.016481 
L 355.632234 303.898148 
L 355.770541 307.101296 
L 355.908703 305.270926 
L 356.046373 307.101296 
L 356.183919 305.499722 
L 356.321323 308.931667 
L 356.458931 307.558889 
L 356.596032 308.70287 
L 356.733487 307.558889 
L 357.008438 310.533241 
L 357.145736 307.330093 
L 357.283136 310.304444 
L 357.421764 306.8725 
L 357.559288 310.075648 
L 357.699521 307.330093 
L 357.838643 309.846852 
L 357.975933 306.414907 
L 358.113718 308.016481 
L 358.251231 305.957315 
L 358.388619 307.330093 
L 358.525803 304.357252 
L 358.663514 308.245278 
L 358.801944 306.414907 
L 358.939174 307.101296 
L 359.076761 305.270926 
L 359.214121 309.389259 
L 359.351918 307.330093 
L 359.489634 310.990833 
L 359.626896 306.8725 
L 359.764169 309.61866 
L 359.901705 306.388461 
L 360.176797 308.016481 
L 360.314402 308.245278 
L 360.451739 308.016481 
L 360.726631 309.846852 
L 360.864153 308.016481 
L 361.001059 308.245278 
L 361.138005 307.101296 
L 361.277211 308.016481 
L 361.416588 305.270926 
L 361.553643 308.931667 
L 361.691145 306.186111 
L 361.833875 352.174167 
L 361.978398 352.174167 
L 362.262951 332.497685 
L 362.537627 297.949444 
L 362.675091 299.551019 
L 362.813103 297.491852 
L 362.950802 303.211759 
L 363.087961 300.237407 
L 363.226652 303.440556 
L 363.366143 303.669352 
L 363.50336 310.304444 
L 363.641994 306.8725 
L 363.781163 311.448426 
L 363.919006 307.330093 
L 364.059899 310.304444 
L 364.198007 305.499722 
L 364.335435 309.61866 
L 364.472373 306.414907 
L 364.609679 309.389259 
L 364.747126 306.414907 
L 364.884743 310.075648 
L 365.022095 305.270926 
L 365.161774 308.245278 
L 365.299775 307.330093 
L 365.439813 309.61866 
L 365.579187 306.414907 
L 365.855114 307.558889 
L 365.993321 307.101296 
L 366.131842 309.61866 
L 366.272054 305.957315 
L 366.411586 309.389259 
L 366.550892 305.728519 
L 366.689973 309.61866 
L 366.830004 305.957315 
L 366.967346 310.533241 
L 367.105199 306.8725 
L 367.242964 310.304444 
L 367.380694 306.8725 
L 367.517824 310.075648 
L 367.654843 305.728519 
L 367.796419 309.389259 
L 367.93359 306.643704 
L 368.071138 308.70287 
L 368.209069 305.957315 
L 368.346289 308.70287 
L 368.483525 306.643704 
L 368.622146 308.245278 
L 368.759393 308.245278 
L 368.89877 308.474074 
L 369.03834 310.304444 
L 369.17626 308.70287 
L 369.313657 310.533241 
L 369.451265 306.8725 
L 369.58884 310.304444 
L 369.726174 307.330093 
L 369.863587 310.304444 
L 370.00077 306.643704 
L 370.138278 310.075648 
L 370.275784 304.584537 
L 370.413777 310.075648 
L 370.554013 304.584537 
L 370.691715 309.160463 
L 370.829283 306.643704 
L 370.966662 310.075648 
L 371.104335 308.474074 
L 371.241927 310.762037 
L 371.380631 307.330093 
L 371.518331 310.533241 
L 371.655775 306.643704 
L 371.793479 308.245278 
L 371.930875 307.101296 
L 372.071111 307.558889 
L 372.209526 305.499722 
L 372.346523 307.330093 
L 372.484025 307.101296 
L 372.75922 308.931667 
L 372.900388 307.330093 
L 373.037886 309.61866 
L 373.175813 306.643704 
L 373.314175 310.533241 
L 373.451592 306.8725 
L 373.588568 310.762037 
L 373.725969 306.643704 
L 373.86344 310.990833 
L 374.004287 307.330093 
L 374.141708 311.906019 
L 374.280146 309.389259 
L 374.417769 311.21963 
L 374.554996 308.016481 
L 374.692209 310.533241 
L 374.829286 307.787685 
L 375.103106 313.278796 
L 375.239751 352.174167 
L 375.379187 352.174167 
L 375.516259 348.742222 
L 376.066556 297.263056 
L 376.204004 298.178241 
L 376.616544 303.669352 
L 376.892266 308.016481 
L 377.167052 309.160463 
L 377.441279 309.61866 
L 377.578441 308.245278 
L 377.715941 310.304444 
L 377.853336 307.787685 
L 377.991297 310.304444 
L 378.128345 306.186111 
L 378.266171 309.389259 
L 378.403329 306.414907 
L 378.540315 309.160463 
L 378.677396 305.728519 
L 378.814383 309.61866 
L 378.951347 305.499722 
L 379.088402 308.70287 
L 379.225494 307.558889 
L 379.362424 310.304444 
L 379.499922 307.787685 
L 379.63709 309.61866 
L 379.774085 306.637357 
L 379.911187 309.389259 
L 380.048195 305.957315 
L 380.185234 308.70287 
L 380.322989 305.04213 
L 380.460748 308.016481 
L 380.597771 304.357252 
L 380.735785 307.101296 
L 380.873851 305.728519 
L 381.01266 308.474074 
L 381.149571 307.330093 
L 381.290061 307.558889 
L 381.427033 308.245278 
L 381.563964 306.186111 
L 381.700836 308.70287 
L 381.837856 307.558889 
L 381.97476 308.70287 
L 382.112129 307.101296 
L 382.249128 309.160463 
L 382.386185 309.160463 
L 382.523316 308.474074 
L 382.660991 308.70287 
L 382.800428 308.245278 
L 383.076143 309.160463 
L 383.216007 307.101296 
L 383.353559 308.016481 
L 383.491629 305.728519 
L 383.635626 308.474074 
L 383.778381 303.898148 
L 383.916199 308.016481 
L 384.053738 305.04213 
L 384.191287 306.643704 
L 384.328333 306.414907 
L 384.608262 308.245278 
L 384.745576 307.101296 
L 384.883319 307.787685 
L 385.020903 307.558889 
L 385.160249 308.70287 
L 385.29809 307.787685 
L 385.435222 308.70287 
L 385.575319 306.643704 
L 385.714408 307.101296 
L 385.853016 306.643704 
L 385.990149 309.160463 
L 386.12932 306.8725 
L 386.270471 308.70287 
L 386.408141 306.414907 
L 386.545431 308.931667 
L 386.68343 306.414907 
L 386.821315 308.016481 
L 386.958997 305.499722 
L 387.377804 309.389259 
L 387.515089 306.643704 
L 387.653002 307.330093 
L 387.790438 307.101296 
L 387.929172 308.245278 
L 388.074006 308.016481 
L 388.214154 306.8725 
L 388.498777 311.21963 
L 388.643457 352.174167 
L 388.788146 352.174167 
L 388.932583 345.996667 
L 389.208419 314.651574 
L 389.348175 299.551019 
L 389.485677 299.093426 
L 389.623911 298.178241 
L 389.761833 301.152593 
L 389.899833 299.322222 
L 390.313635 309.846852 
L 390.451783 308.474074 
L 390.59139 310.762037 
L 390.728831 306.643704 
L 390.866033 309.389259 
L 391.004012 308.016481 
L 391.141637 310.533241 
L 391.279629 306.186111 
L 391.416826 308.474074 
L 391.553562 305.04213 
L 391.691278 308.245278 
L 391.828924 307.101296 
L 391.965634 309.61866 
L 392.239172 307.787685 
L 392.376034 308.016481 
L 392.512938 309.389259 
L 392.649988 308.70287 
L 392.786754 307.330093 
L 393.060559 308.474074 
L 393.333892 307.101296 
L 393.471642 307.330093 
L 393.608805 307.330093 
L 393.74566 308.474074 
L 393.884101 306.414907 
L 394.022001 311.21963 
L 394.158765 307.330093 
L 394.295767 312.363611 
L 394.433736 307.558889 
L 394.57096 311.21963 
L 394.707544 305.728519 
L 394.845006 308.474074 
L 394.981869 305.499722 
L 395.118718 309.61866 
L 395.255706 305.957315 
L 395.392351 308.931667 
L 395.529071 307.101296 
L 395.665709 309.846852 
L 395.80229 308.016481 
L 395.938987 309.389259 
L 396.075627 308.245278 
L 396.212352 308.931667 
L 396.349226 308.70287 
L 396.626115 310.075648 
L 396.763046 308.245278 
L 396.900133 308.474074 
L 397.03688 307.787685 
L 397.173598 308.70287 
L 397.310245 307.787685 
L 397.448789 308.70287 
L 397.586679 307.330093 
L 397.724028 310.304444 
L 397.862586 307.330093 
L 397.999878 310.533241 
L 398.13804 306.186111 
L 398.275291 311.21963 
L 398.412435 305.04213 
L 398.550332 309.389259 
L 398.687412 305.04213 
L 398.824791 310.990833 
L 398.962258 308.70287 
L 399.100435 309.389259 
L 399.237794 308.474074 
L 399.375052 309.846852 
L 399.515151 309.61866 
L 399.653169 310.533241 
L 399.790572 308.016481 
L 399.928954 309.389259 
L 400.066524 308.70287 
L 400.204044 308.931667 
L 400.343229 307.558889 
L 400.481766 308.931667 
L 400.619878 306.643704 
L 400.757535 306.643704 
L 400.895559 308.474074 
L 401.032753 308.245278 
L 401.169951 310.533241 
L 401.307188 308.474074 
L 401.445284 310.762037 
L 401.583616 305.957315 
L 401.722442 311.21963 
L 401.864332 305.728519 
L 402.00763 352.174167 
L 402.154204 352.174167 
L 402.294885 349.886204 
L 402.432208 339.59037 
L 402.705934 303.898148 
L 402.842814 297.949444 
L 402.981193 300.237407 
L 403.118755 299.779815 
L 403.39594 300.923796 
L 403.810586 310.304444 
L 404.086929 308.245278 
L 404.2266 308.245278 
L 404.368959 307.558889 
L 404.506192 308.245278 
L 404.645026 308.245278 
L 404.783783 308.016481 
L 404.921359 306.186111 
L 405.059137 308.016481 
L 405.196188 305.270926 
L 405.334997 308.70287 
L 405.476276 306.186111 
L 405.615962 309.61866 
L 405.75509 305.728519 
L 405.894216 309.61866 
L 406.034481 307.330093 
L 406.173824 309.61866 
L 406.312188 307.330093 
L 406.450142 310.075648 
L 406.589776 306.643704 
L 406.729693 308.016481 
L 406.872264 307.101296 
L 407.011906 307.787685 
L 407.151451 306.186111 
L 407.290969 307.101296 
L 407.567552 305.728519 
L 407.704851 306.643704 
L 407.842747 305.270926 
L 407.979933 309.61866 
L 408.117765 307.101296 
L 408.255277 309.389259 
L 408.392737 307.330093 
L 408.529994 308.245278 
L 408.667109 306.8725 
L 408.804849 309.160463 
L 408.942287 307.787685 
L 409.081687 309.389259 
L 409.219184 307.330093 
L 409.357038 311.21963 
L 409.498327 308.245278 
L 409.637283 309.389259 
L 409.776262 306.8725 
L 409.914247 308.931667 
L 410.052029 306.414907 
L 410.189365 307.330093 
L 410.326664 305.728519 
L 410.463882 307.101296 
L 410.602111 305.957315 
L 410.880028 308.931667 
L 411.01958 306.414907 
L 411.160125 306.186111 
L 411.299426 303.669352 
L 411.438807 305.499722 
L 411.578083 304.126944 
L 411.715916 309.160463 
L 411.853888 306.8725 
L 411.991949 309.389259 
L 412.130278 306.8725 
L 412.267747 309.846852 
L 412.405599 306.8725 
L 412.542962 309.61866 
L 412.680046 306.8725 
L 412.817366 309.61866 
L 412.954735 306.643704 
L 413.092096 309.846852 
L 413.229413 305.728519 
L 413.368339 307.330093 
L 413.507332 307.558889 
L 413.644826 309.61866 
L 413.783539 304.357252 
L 413.921213 304.357252 
L 414.058735 304.584537 
L 414.198356 303.211759 
L 414.335782 305.728519 
L 414.473417 305.728519 
L 414.610978 307.558889 
L 414.749253 307.787685 
L 414.887081 309.389259 
L 415.029032 309.160463 
L 415.166569 310.762037 
L 415.592902 352.174167 
L 415.737028 351.487778 
L 416.014638 319.2275 
L 416.289237 297.949444 
L 416.426249 299.551019 
L 416.563393 298.407037 
L 416.700221 302.296574 
L 416.837466 300.008611 
L 417.253469 311.677222 
L 417.391633 308.245278 
L 417.529437 310.304444 
L 417.669305 306.643704 
L 417.806695 306.8725 
L 417.944542 307.787685 
L 418.08184 307.558889 
L 418.224514 309.160463 
L 418.362672 309.389259 
L 418.503407 309.389259 
L 418.641971 305.728519 
L 418.779457 309.61866 
L 418.916388 304.813333 
L 419.054118 310.075648 
L 419.190911 306.8725 
L 419.328194 311.448426 
L 419.466339 306.643704 
L 419.605046 309.61866 
L 419.743294 307.101296 
L 419.882711 310.304444 
L 420.021195 307.558889 
L 420.159408 309.61866 
L 420.296974 306.186111 
L 420.434513 307.787685 
L 420.5734 305.499722 
L 420.711219 308.931667 
L 420.849031 305.728519 
L 420.987287 308.474074 
L 421.125273 308.70287 
L 421.263535 308.245278 
L 421.539564 308.70287 
L 421.677292 308.70287 
L 421.81511 307.330093 
L 421.953357 307.558889 
L 422.090827 304.357252 
L 422.22875 307.558889 
L 422.367377 305.270926 
L 422.509325 309.61866 
L 422.647483 305.270926 
L 422.785662 308.931667 
L 422.923196 305.957315 
L 423.061776 308.70287 
L 423.199547 307.101296 
L 423.337615 309.160463 
L 423.476386 305.728519 
L 423.615385 307.558889 
L 423.754708 306.8725 
L 423.893088 307.787685 
L 424.030774 305.957315 
L 424.168462 308.931667 
L 424.305454 308.245278 
L 424.442407 309.160463 
L 424.579243 306.8725 
L 424.716111 306.643704 
L 424.853111 307.101296 
L 424.990249 306.186111 
L 425.129045 307.101296 
L 425.267521 305.04213 
L 425.405858 308.245278 
L 425.543442 307.558889 
L 425.680919 308.016481 
L 425.819343 305.957315 
L 425.95771 308.245278 
L 426.09476 307.539848 
L 426.23179 308.474074 
L 426.36869 307.101296 
L 426.507002 308.70287 
L 426.644844 307.101296 
L 426.78256 308.931667 
L 426.919898 307.101296 
L 427.056874 308.474074 
L 427.193787 307.101296 
L 427.330784 308.931667 
L 427.468244 306.414907 
L 427.605372 309.61866 
L 427.744559 305.04213 
L 427.881809 308.016481 
L 428.018624 305.728519 
L 428.156506 307.101296 
L 428.294281 307.330093 
L 428.569291 305.728519 
L 428.845916 352.174167 
L 428.987835 352.174167 
L 429.536986 305.499722 
L 429.676524 300.466204 
L 429.813531 300.237407 
L 430.088873 304.126944 
L 430.225899 300.695 
L 430.363453 302.754167 
L 430.5012 308.245278 
L 430.639049 309.160463 
L 430.777016 308.70287 
L 430.914477 309.846852 
L 431.052109 306.8725 
L 431.189353 307.330093 
L 431.32668 306.414907 
L 431.464287 309.160463 
L 431.739484 306.643704 
L 431.876848 307.101296 
L 432.014134 306.186111 
L 432.151459 306.414907 
L 432.288805 305.499722 
L 432.426051 309.846852 
L 432.563511 306.414907 
L 432.701853 308.931667 
L 432.838807 306.414907 
L 432.977505 309.389259 
L 433.115115 306.643704 
L 433.252459 308.245278 
L 433.390715 306.186111 
L 433.528385 310.533241 
L 433.666344 305.04213 
L 433.804127 308.016481 
L 433.941936 305.270926 
L 434.079325 307.787685 
L 434.49175 305.728519 
L 434.629035 307.787685 
L 434.767483 305.499722 
L 434.905372 308.70287 
L 435.04339 306.186111 
L 435.318382 308.245278 
L 435.455789 306.414907 
L 435.593854 307.787685 
L 435.730904 305.957315 
L 435.867837 309.389259 
L 436.004964 306.8725 
L 436.141975 310.304444 
L 436.278974 309.389259 
L 436.415985 310.762037 
L 436.553608 307.330093 
L 436.691111 309.61866 
L 436.830738 307.330093 
L 436.972306 310.762037 
L 437.11245 307.787685 
L 437.253371 310.533241 
L 437.390865 308.245278 
L 437.528019 309.160463 
L 437.66521 306.414907 
L 437.802539 308.474074 
L 437.939913 305.957315 
L 438.078447 308.70287 
L 438.217216 305.957315 
L 438.356251 305.957315 
L 438.49354 306.186111 
L 438.631339 305.499722 
L 438.769428 307.101296 
L 438.90801 304.813333 
L 439.04655 308.931667 
L 439.185248 308.245278 
L 439.322691 310.304444 
L 439.460435 307.330093 
L 439.5978 311.21963 
L 439.735434 308.70287 
L 439.872817 311.448426 
L 440.010184 308.245278 
L 440.147672 309.389259 
L 440.285565 306.643704 
L 440.424541 309.389259 
L 440.564371 306.414907 
L 440.704368 308.016481 
L 440.843521 305.728519 
L 440.981747 308.474074 
L 441.120215 305.728519 
L 441.258565 308.931667 
L 441.396568 305.04213 
L 441.534793 307.330093 
L 441.672477 305.04213 
L 441.949854 306.8725 
L 442.08866 321.973056 
L 442.22815 352.174167 
L 442.372877 352.174167 
L 443.065153 300.923796 
L 443.203356 298.635833 
L 443.342513 303.669352 
L 443.48014 300.695 
L 443.893639 311.677222 
L 444.03136 308.931667 
L 444.169364 309.846852 
L 444.307087 308.245278 
L 444.445259 310.075648 
L 444.583656 308.245278 
L 444.722033 309.389259 
L 444.860222 305.728519 
L 444.998336 309.846852 
L 445.136721 304.357252 
L 445.274826 310.304444 
L 445.412567 304.813333 
L 445.550391 311.21963 
L 445.68944 305.499722 
L 445.831681 311.21963 
L 445.970121 308.016481 
L 446.107539 311.448426 
L 446.245325 309.160463 
L 446.384206 308.931667 
L 446.524534 309.61866 
L 446.661953 308.016481 
L 446.79935 310.762037 
L 446.936861 306.8725 
L 447.074781 309.160463 
L 447.213678 306.643704 
L 447.352052 310.304444 
L 447.492316 306.643704 
L 447.630427 308.474074 
L 447.768377 306.643704 
L 447.905603 308.016481 
L 448.043013 305.957315 
L 448.180777 309.846852 
L 448.319463 305.270926 
L 448.457508 310.533241 
L 448.596979 304.357252 
L 448.734842 310.304444 
L 448.873544 305.035783 
L 449.011143 310.075648 
L 449.150256 306.414907 
L 449.287455 309.846852 
L 449.426169 309.389259 
L 449.563949 310.075648 
L 449.702449 309.160463 
L 449.840666 309.389259 
L 449.981053 310.762037 
L 450.11896 309.389259 
L 450.259317 310.762037 
L 450.397457 309.389259 
L 450.534699 309.389259 
L 450.671648 308.016481 
L 450.808695 309.160463 
L 450.946628 307.558889 
L 451.085584 309.389259 
L 451.223654 306.414907 
L 451.361682 310.075648 
L 451.499393 306.186111 
L 451.641185 312.363611 
L 451.779485 305.499722 
L 451.918536 308.245278 
L 452.057203 304.813333 
L 452.194433 308.245278 
L 452.333698 306.643704 
L 452.472783 308.245278 
L 452.611564 308.245278 
L 452.750117 309.160463 
L 452.888638 309.160463 
L 453.026173 308.70287 
L 453.164953 309.846852 
L 453.303125 307.101296 
L 453.441512 310.304444 
L 453.580295 308.70287 
L 453.71796 309.61866 
L 453.856835 307.787685 
L 453.994381 308.931667 
L 454.133093 306.414907 
L 454.27116 309.160463 
L 454.408517 306.8725 
L 454.545574 309.846852 
L 454.682931 305.499722 
L 454.820925 310.990833 
L 454.959354 305.957315 
L 455.097603 309.160463 
L 455.234873 305.499722 
L 455.372633 309.846852 
L 455.513476 346.225463 
L 455.655973 352.174167 
L 455.799938 352.174167 
L 456.354205 298.635833 
L 456.494281 300.008611 
L 456.633935 297.949444 
L 456.771709 302.296574 
L 456.909361 300.923796 
L 457.184971 305.270926 
L 457.324439 310.762037 
L 457.462444 308.474074 
L 457.599892 310.533241 
L 457.744238 310.304444 
L 457.890097 310.762037 
L 458.026945 305.499722 
L 458.165598 312.134815 
L 458.305756 306.414907 
L 458.444375 311.906019 
L 458.581504 307.787685 
L 458.718687 310.762037 
L 458.858156 307.558889 
L 458.99603 311.448426 
L 459.134651 308.474074 
L 459.272464 310.304444 
L 459.547951 309.160463 
L 459.685583 308.70287 
L 459.823135 310.075648 
L 460.099084 308.70287 
L 460.236229 308.245278 
L 460.373795 305.728519 
L 460.510965 307.558889 
L 460.647943 305.728519 
L 460.784964 308.683829 
L 460.921889 305.728519 
L 461.058865 310.304444 
L 461.195826 307.330093 
L 461.332873 310.990833 
L 461.469976 306.186111 
L 461.607491 312.821204 
L 461.744587 306.8725 
L 461.882262 312.363611 
L 462.019438 307.330093 
L 462.157191 310.990833 
L 462.294928 307.330093 
L 462.432048 310.075648 
L 462.569775 309.160463 
L 462.707768 309.160463 
L 462.845913 308.016481 
L 463.121958 309.61866 
L 463.259795 309.61866 
L 463.535418 307.330093 
L 463.673125 307.787685 
L 463.810928 306.643704 
L 464.08686 307.558889 
L 464.225542 310.762037 
L 464.363592 307.787685 
L 464.50149 310.990833 
L 464.639269 305.270926 
L 464.776357 310.304444 
L 464.914204 304.813333 
L 465.051996 310.533241 
L 465.189994 305.04213 
L 465.32709 311.906019 
L 465.464008 307.101296 
L 465.606788 310.533241 
L 465.744805 309.160463 
L 465.882613 310.762037 
L 466.02084 309.61866 
L 466.158839 309.61866 
L 466.296777 310.990833 
L 466.572778 307.330093 
L 466.710861 306.8725 
L 466.848476 308.474074 
L 466.985726 307.787685 
L 467.122911 309.389259 
L 467.537578 305.957315 
L 467.675282 308.245278 
L 467.8131 305.04213 
L 467.950203 308.474074 
L 468.087326 304.126944 
L 468.225638 309.389259 
L 468.363254 305.270926 
L 468.501141 311.677222 
L 468.638854 306.186111 
L 468.776743 310.304444 
L 468.914424 352.174167 
L 469.200849 352.174167 
L 469.476636 336.844815 
L 469.751815 302.982963 
L 469.889946 300.008611 
L 470.165597 298.86463 
L 470.303374 301.152593 
L 470.441219 300.923796 
L 470.856978 310.304444 
L 470.996004 308.474074 
L 471.27216 308.016481 
L 471.410023 306.643704 
L 471.548095 308.016481 
L 471.686361 305.270926 
L 471.825144 308.016481 
L 471.96512 305.728519 
L 472.103857 308.245278 
L 472.241503 306.414907 
L 472.379565 310.533241 
L 472.517141 306.8725 
L 472.655218 310.990833 
L 472.793324 307.101296 
L 472.931283 308.931667 
L 473.069602 306.643704 
L 473.207573 308.70287 
L 473.345105 306.186111 
L 473.482937 309.846852 
L 473.621549 307.330093 
L 473.759641 308.474074 
L 474.037161 305.957315 
L 474.175886 306.643704 
L 474.313834 305.499722 
L 474.452001 307.330093 
L 474.590109 306.414907 
L 474.73094 307.330093 
L 474.870201 305.957315 
L 475.008185 307.558889 
L 475.146088 306.643704 
L 475.285765 309.61866 
L 475.42311 307.558889 
L 475.56088 310.762037 
L 475.698259 307.558889 
L 475.835649 310.762037 
L 475.973071 306.643704 
L 476.11243 308.931667 
L 476.255981 305.728519 
L 476.393174 308.70287 
L 476.530484 305.499722 
L 476.668315 308.70287 
L 476.805772 306.414907 
L 477.083793 307.558889 
L 477.221742 306.8725 
L 477.359801 307.101296 
L 477.497676 306.8725 
L 477.635175 308.016481 
L 477.773598 307.101296 
L 477.912249 308.70287 
L 478.050868 307.787685 
L 478.18943 308.016481 
L 478.329482 307.330093 
L 478.468465 308.245278 
L 478.606989 306.186111 
L 478.743965 308.931667 
L 478.881694 306.643704 
L 479.018876 308.245278 
L 479.156541 305.957315 
L 479.294211 307.787685 
L 479.431932 305.04213 
L 479.569748 308.245278 
L 479.707095 305.728519 
L 479.844942 307.787685 
L 479.982382 306.643704 
L 480.121026 308.474074 
L 480.258929 306.643704 
L 480.397419 308.70287 
L 480.535822 307.787685 
L 480.673731 310.075648 
L 480.811419 307.330093 
L 480.949213 310.075648 
L 481.086305 306.8725 
L 481.224068 310.075648 
L 481.362348 306.643704 
L 481.500219 307.787685 
L 481.775728 306.643704 
L 481.913481 309.61866 
L 482.051262 307.101296 
L 482.188723 308.474074 
L 482.328109 352.174167 
L 482.615588 352.174167 
L 482.892484 330.209722 
L 483.16873 298.86463 
L 483.306992 302.754167 
L 483.445551 299.322222 
L 483.584555 303.440556 
L 483.722874 300.923796 
L 484.137526 309.389259 
L 484.275927 306.414907 
L 484.415057 309.846852 
L 484.552978 304.584537 
L 484.690696 308.245278 
L 484.828935 303.898148 
L 484.967475 306.643704 
L 485.106221 304.126944 
L 485.244901 306.186111 
L 485.382551 304.584537 
L 485.521198 305.957315 
L 485.659497 305.728519 
L 485.938101 306.8725 
L 486.076471 307.101296 
L 486.214661 308.70287 
L 486.352265 308.70287 
L 486.490208 308.474074 
L 486.628632 307.101296 
L 486.766733 308.245278 
L 486.904633 307.787685 
L 487.043146 310.075648 
L 487.18186 308.245278 
L 487.320009 309.61866 
L 487.458561 306.414907 
L 487.597086 308.245278 
L 487.735152 305.499722 
L 487.87255 308.474074 
L 488.00982 305.499722 
L 488.147901 306.643704 
L 488.285787 304.584537 
L 488.423444 306.643704 
L 488.561129 304.584537 
L 488.698876 307.558889 
L 488.838504 308.016481 
L 488.976847 310.533241 
L 489.113836 307.101296 
L 489.251649 308.016481 
L 489.389407 305.499722 
L 489.527256 306.643704 
L 489.664927 306.643704 
L 489.802717 306.8725 
L 489.940472 306.643704 
L 490.078275 306.8725 
L 490.216191 308.931667 
L 490.354129 307.330093 
L 490.491539 309.61866 
L 490.631352 307.101296 
L 490.771195 308.016481 
L 490.910869 305.04213 
L 491.050567 306.186111 
L 491.190342 303.669352 
L 491.329892 306.8725 
L 491.467086 304.126944 
L 491.604793 308.016481 
L 491.742584 306.414907 
L 491.879615 309.846852 
L 492.016536 307.101296 
L 492.153659 309.389259 
L 492.290739 306.8725 
L 492.427728 308.70287 
L 492.56471 307.330093 
L 492.706014 308.245278 
L 492.847178 307.101296 
L 492.985508 307.101296 
L 493.123941 308.016481 
L 493.400346 306.643704 
L 493.538935 306.8725 
L 493.678053 308.016481 
L 493.816377 304.813333 
L 493.954639 308.245278 
L 494.093099 306.8725 
L 494.231474 307.101296 
L 494.368991 304.584537 
L 494.507236 306.643704 
L 494.648255 303.440556 
L 494.786807 307.787685 
L 494.925147 304.584537 
L 495.063624 307.787685 
L 495.201855 305.957315 
L 495.341026 308.931667 
L 495.48036 307.99744 
L 495.617418 308.474074 
L 495.757989 352.174167 
L 495.90149 352.174167 
L 496.046706 351.716574 
L 496.600973 300.923796 
L 496.738666 301.610185 
L 496.876521 300.695 
L 497.014091 300.923796 
L 497.151648 300.695 
L 497.430956 306.8725 
L 497.707788 307.787685 
L 497.84587 307.787685 
L 497.983229 306.186111 
L 498.123251 308.016481 
L 498.261055 306.643704 
L 498.399438 307.330093 
L 498.537562 305.04213 
L 498.675686 308.245278 
L 498.813618 305.04213 
L 498.952035 307.101296 
L 499.090157 305.04213 
L 499.228383 307.330093 
L 499.504823 305.270926 
L 499.641948 306.414907 
L 499.778923 306.414907 
L 499.916808 306.8725 
L 500.056303 305.957315 
L 500.194041 308.245278 
L 500.331816 306.8725 
L 500.46955 307.558889 
L 500.884981 306.414907 
L 501.024733 308.016481 
L 501.164417 307.558889 
L 501.302378 310.990833 
L 501.440089 306.643704 
L 501.57773 308.931667 
L 501.715528 305.270926 
L 501.85262 307.558889 
L 501.992585 306.414907 
L 502.130041 308.245278 
L 502.267367 306.414907 
L 502.405139 307.101296 
L 502.543054 306.8725 
L 502.680871 307.101296 
L 502.818161 309.389259 
L 502.95605 306.8725 
L 503.093956 307.558889 
L 503.232125 307.330093 
L 503.369835 308.245278 
L 503.506865 306.643704 
L 503.644542 308.245278 
L 503.921058 306.643704 
L 504.196548 307.787685 
L 504.471961 306.414907 
L 504.611746 306.414907 
L 504.75252 306.8725 
L 504.890501 306.414907 
L 505.170842 307.558889 
L 505.308951 305.728519 
L 505.447163 306.8725 
L 505.585348 306.186111 
L 505.724361 306.8725 
L 505.862453 305.728519 
L 506.001792 307.330093 
L 506.141757 306.186111 
L 506.418716 307.101296 
L 506.697691 308.016481 
L 506.83615 305.957315 
L 506.974268 307.101296 
L 507.112412 309.846852 
L 507.251322 306.8725 
L 507.393528 308.931667 
L 507.531244 305.957315 
L 507.669477 308.016481 
L 507.807581 306.186111 
L 507.949084 307.558889 
L 508.08701 305.957315 
L 508.226316 307.787685 
L 508.368852 306.643704 
L 508.506703 308.245278 
L 508.64528 307.330093 
L 508.783656 307.330093 
L 508.924207 308.474074 
L 509.064299 320.371481 
L 509.205994 352.174167 
L 509.350494 352.174167 
L 509.492009 347.369444 
L 509.630319 337.76 
L 510.044696 297.949444 
L 510.181817 300.008611 
L 510.319381 299.779815 
L 510.458796 303.211759 
L 510.596527 301.610185 
L 511.009322 311.21963 
L 511.158023 307.558889 
L 511.296595 307.787685 
L 511.575458 305.499722 
L 511.714754 309.160463 
L 511.85384 305.957315 
L 511.9929 308.931667 
L 512.132554 306.186111 
L 512.271628 311.21963 
L 512.411426 308.70287 
L 512.549432 310.533241 
L 512.686954 308.245278 
L 512.825083 310.304444 
L 512.963862 307.787685 
L 513.10348 309.389259 
L 513.241925 307.787685 
L 513.379757 307.787685 
L 513.656507 308.70287 
L 513.793993 308.016481 
L 513.931612 309.611708 
L 514.070657 306.414907 
L 514.209848 306.643704 
L 514.348379 307.558889 
L 514.486788 307.558889 
L 514.624949 309.160463 
L 514.762721 307.558889 
L 514.901069 309.61866 
L 515.039076 305.957315 
L 515.177011 308.70287 
L 515.315332 306.643704 
L 515.453527 309.61866 
L 515.592868 307.787685 
L 515.73131 309.160463 
L 515.869408 307.330093 
L 516.0074 309.61866 
L 516.145806 308.016481 
L 516.283835 308.474074 
L 516.421908 306.186111 
L 516.560152 307.330093 
L 516.697894 307.330093 
L 516.835564 308.474074 
L 517.113627 306.8725 
L 517.251841 308.245278 
L 517.389384 306.414907 
L 517.528343 307.101296 
L 517.666557 305.04213 
L 517.803855 307.787685 
L 517.940966 305.04213 
L 518.078594 307.330093 
L 518.216056 305.728519 
L 518.353813 309.160463 
L 518.491098 308.016481 
L 518.628247 309.61866 
L 518.765516 307.558889 
L 518.903599 310.762037 
L 519.041644 308.245278 
L 519.179424 308.931667 
L 519.317222 307.101296 
L 519.454564 308.245278 
L 519.591777 306.8725 
L 519.729241 309.160463 
L 519.866361 305.728519 
L 520.003323 307.330093 
L 520.142645 305.728519 
L 520.420899 308.245278 
L 520.560995 306.643704 
L 520.697894 309.389259 
L 520.835277 307.101296 
L 520.976068 310.304444 
L 521.113485 308.245278 
L 521.250408 308.245278 
L 521.387418 306.186111 
L 521.662865 307.558889 
L 521.799901 307.330093 
L 521.936862 305.728519 
L 522.074794 308.016481 
L 522.074794 308.016481 
" style="fill:none;stroke:#1f77b4;stroke-linecap:square;stroke-width:1.5;"/>
   </g>
   <g id="patch_3">
    <path d="M 130.230156 352.174167 
L 130.230156 35.0625 
" style="fill:none;stroke:#000000;stroke-linecap:square;stroke-linejoin:miter;stroke-width:0.8;"/>
   </g>
   <g id="patch_4">
    <path d="M 540.734062 352.174167 
L 540.734062 35.0625 
" style="fill:none;stroke:#000000;stroke-linecap:square;stroke-linejoin:miter;stroke-width:0.8;"/>
   </g>
   <g id="patch_5">
    <path d="M 130.230156 352.174167 
L 540.734062 352.174167 
" style="fill:none;stroke:#000000;stroke-linecap:square;stroke-linejoin:miter;stroke-width:0.8;"/>
   </g>
   <g id="patch_6">
    <path d="M 130.230156 35.0625 
L 540.734062 35.0625 
" style="fill:none;stroke:#000000;stroke-linecap:square;stroke-linejoin:miter;stroke-width:0.8;"/>
   </g>
   <g id="legend_1">
    <g id="patch_7">
     <path d="M 563.259258 63.938438 
L 627.134258 63.938438 
Q 629.134258 63.938438 629.134258 61.938438 
L 629.134258 37.0625 
Q 629.134258 35.0625 627.134258 35.0625 
L 563.259258 35.0625 
Q 561.259258 35.0625 561.259258 37.0625 
L 561.259258 61.938438 
Q 561.259258 63.938438 563.259258 63.938438 
z
" style="fill:#ffffff;opacity:0.8;stroke:#cccccc;stroke-linejoin:miter;"/>
    </g>
    <g id="line2d_17">
     <path d="M 565.259258 49.799688 
L 585.259258 49.799688 
" style="fill:none;stroke:#1f77b4;stroke-linecap:square;stroke-width:1.5;"/>
    </g>
    <g id="line2d_18"/>
    <g id="text_17">
     <!-- queue -->
     <g transform="translate(593.259258 46.660937)scale(0.1 -0.1)">
      <use xlink:href="#DejaVuSans-113"/>
      <use x="63.476562" xlink:href="#DejaVuSans-117"/>
      <use x="126.855469" xlink:href="#DejaVuSans-101"/>
      <use x="188.378906" xlink:href="#DejaVuSans-117"/>
      <use x="251.757812" xlink:href="#DejaVuSans-101"/>
     </g>
     <!-- length -->
     <defs>
      <path d="M 9.421875 75.984375 
L 18.40625 75.984375 
L 18.40625 0 
L 9.421875 0 
z
" id="DejaVuSans-108"/>
      <path d="M 54.890625 33.015625 
L 54.890625 0 
L 45.90625 0 
L 45.90625 32.71875 
Q 45.90625 40.484375 42.875 44.328125 
Q 39.84375 48.1875 33.796875 48.1875 
Q 26.515625 48.1875 22.3125 43.546875 
Q 18.109375 38.921875 18.109375 30.90625 
L 18.109375 0 
L 9.078125 0 
L 9.078125 54.6875 
L 18.109375 54.6875 
L 18.109375 46.1875 
Q 21.34375 51.125 25.703125 53.5625 
Q 30.078125 56 35.796875 56 
Q 45.21875 56 50.046875 50.171875 
Q 54.890625 44.34375 54.890625 33.015625 
z
" id="DejaVuSans-110"/>
      <path d="M 45.40625 27.984375 
Q 45.40625 37.75 41.375 43.109375 
Q 37.359375 48.484375 30.078125 48.484375 
Q 22.859375 48.484375 18.828125 43.109375 
Q 14.796875 37.75 14.796875 27.984375 
Q 14.796875 18.265625 18.828125 12.890625 
Q 22.859375 7.515625 30.078125 7.515625 
Q 37.359375 7.515625 41.375 12.890625 
Q 45.40625 18.265625 45.40625 27.984375 
z
M 54.390625 6.78125 
Q 54.390625 -7.171875 48.1875 -13.984375 
Q 42 -20.796875 29.203125 -20.796875 
Q 24.46875 -20.796875 20.265625 -20.09375 
Q 16.0625 -19.390625 12.109375 -17.921875 
L 12.109375 -9.1875 
Q 16.0625 -11.328125 19.921875 -12.34375 
Q 23.78125 -13.375 27.78125 -13.375 
Q 36.625 -13.375 41.015625 -8.765625 
Q 45.40625 -4.15625 45.40625 5.171875 
L 45.40625 9.625 
Q 42.625 4.78125 38.28125 2.390625 
Q 33.9375 0 27.875 0 
Q 17.828125 0 11.671875 7.65625 
Q 5.515625 15.328125 5.515625 27.984375 
Q 5.515625 40.671875 11.671875 48.328125 
Q 17.828125 56 27.875 56 
Q 33.9375 56 38.28125 53.609375 
Q 42.625 51.21875 45.40625 46.390625 
L 45.40625 54.6875 
L 54.390625 54.6875 
z
" id="DejaVuSans-103"/>
      <path d="M 54.890625 33.015625 
L 54.890625 0 
L 45.90625 0 
L 45.90625 32.71875 
Q 45.90625 40.484375 42.875 44.328125 
Q 39.84375 48.1875 33.796875 48.1875 
Q 26.515625 48.1875 22.3125 43.546875 
Q 18.109375 38.921875 18.109375 30.90625 
L 18.109375 0 
L 9.078125 0 
L 9.078125 75.984375 
L 18.109375 75.984375 
L 18.109375 46.1875 
Q 21.34375 51.125 25.703125 53.5625 
Q 30.078125 56 35.796875 56 
Q 45.21875 56 50.046875 50.171875 
Q 54.890625 44.34375 54.890625 33.015625 
z
" id="DejaVuSans-104"/>
     </defs>
     <g transform="translate(593.259258 57.85875)scale(0.1 -0.1)">
      <use xlink:href="#DejaVuSans-108"/>
      <use x="27.783203" xlink:href="#DejaVuSans-101"/>
      <use x="89.306641" xlink:href="#DejaVuSans-110"/>
      <use x="152.685547" xlink:href="#DejaVuSans-103"/>
      <use x="216.162109" xlink:href="#DejaVuSans-116"/>
      <use x="255.371094" xlink:href="#DejaVuSans-104"/>
     </g>
    </g>
   </g>
  </g>
  <g id="text_18">
   <!-- result queue (bytes) -->
   <defs>
    <path d="M 41.109375 46.296875 
Q 39.59375 47.171875 37.8125 47.578125 
Q 36.03125 48 33.890625 48 
Q 26.265625 48 22.1875 43.046875 
Q 18.109375 38.09375 18.109375 28.8125 
L 18.109375 0 
L 9.078125 0 
L 9.078125 54.6875 
L 18.109375 54.6875 
L 18.109375 46.1875 
Q 20.953125 51.171875 25.484375 53.578125 
Q 30.03125 56 36.53125 56 
Q 37.453125 56 38.578125 55.875 
Q 39.703125 55.765625 41.0625 55.515625 
z
" id="DejaVuSans-114"/>
    <path id="DejaVuSans-32"/>
   </defs>
   <g transform="translate(281.072812 17.038125)scale(0.12 -0.12)">
    <use xlink:href="#DejaVuSans-114"/>
    <use x="41.082031" xlink:href="#DejaVuSans-101"/>
    <use x="102.605469" xlink:href="#DejaVuSans-115"/>
    <use x="154.705078" xlink:href="#DejaVuSans-117"/>
    <use x="218.083984" xlink:href="#DejaVuSans-108"/>
    <use x="245.867188" xlink:href="#DejaVuSans-116"/>
    <use x="285.076172" xlink:href="#DejaVuSans-32"/>
    <use x="316.863281" xlink:href="#DejaVuSans-113"/>
    <use x="380.339844" xlink:href="#DejaVuSans-117"/>
    <use x="443.71875" xlink:href="#DejaVuSans-101"/>
    <use x="505.242188" xlink:href="#DejaVuSans-117"/>
    <use x="568.621094" xlink:href="#DejaVuSans-101"/>
    <use x="630.144531" xlink:href="#DejaVuSans-32"/>
    <use x="661.931641" xlink:href="#DejaVuSans-40"/>
    <use x="700.945312" xlink:href="#DejaVuSans-98"/>
    <use x="764.421875" xlink:href="#DejaVuSans-121"/>
    <use x="823.601562" xlink:href="#DejaVuSans-116"/>
    <use x="862.810547" xlink:href="#DejaVuSans-101"/>
    <use x="924.333984" xlink:href="#DejaVuSans-115"/>
    <use x="976.433594" xlink:href="#DejaVuSans-41"/>
   </g>
  </g>
 </g>
 <defs>
  <clipPath id="pad6a2fbbba">
   <rect height="317.111667" width="410.503906" x="130.230156" y="35.0625"/>
  </clipPath>
 </defs>
</svg>
