<?xml version="1.0" encoding="utf-8" standalone="no"?>
<!DOCTYPE svg PUBLIC "-//W3C//DTD SVG 1.1//EN"
  "http://www.w3.org/Graphics/SVG/1.1/DTD/svg11.dtd">
<!-- Created with matplotlib (https://matplotlib.org/) -->
<svg height="396pt" version="1.1" viewBox="0 0 684 396" width="684pt" xmlns="http://www.w3.org/2000/svg" xmlns:xlink="http://www.w3.org/1999/xlink">
 <defs>
  <style type="text/css">
*{stroke-linecap:butt;stroke-linejoin:round;}
  </style>
 </defs>
 <g id="figure_1">
  <g id="patch_1">
   <path d="M 0 396 
L 684 396 
L 684 0 
L 0 0 
z
" style="fill:#ffffff;"/>
  </g>
  <g id="axes_1">
   <g id="patch_2">
    <path d="M 130.230156 352.174167 
L 544.073906 352.174167 
L 544.073906 35.0625 
L 130.230156 35.0625 
z
" style="fill:#ffffff;"/>
   </g>
   <g id="matplotlib.axis_1">
    <g id="xtick_1">
     <g id="line2d_1">
      <defs>
       <path d="M 0 0 
L 0 3.5 
" id="m0f28f12409" style="stroke:#000000;stroke-width:0.8;"/>
      </defs>
      <g>
       <use style="stroke:#000000;stroke-width:0.8;" x="147.063578" xlink:href="#m0f28f12409" y="352.174167"/>
      </g>
     </g>
     <g id="text_1">
      <!-- 0 -->
      <defs>
       <path d="M 31.78125 66.40625 
Q 24.171875 66.40625 20.328125 58.90625 
Q 16.5 51.421875 16.5 36.375 
Q 16.5 21.390625 20.328125 13.890625 
Q 24.171875 6.390625 31.78125 6.390625 
Q 39.453125 6.390625 43.28125 13.890625 
Q 47.125 21.390625 47.125 36.375 
Q 47.125 51.421875 43.28125 58.90625 
Q 39.453125 66.40625 31.78125 66.40625 
z
M 31.78125 74.21875 
Q 44.046875 74.21875 50.515625 64.515625 
Q 56.984375 54.828125 56.984375 36.375 
Q 56.984375 17.96875 50.515625 8.265625 
Q 44.046875 -1.421875 31.78125 -1.421875 
Q 19.53125 -1.421875 13.0625 8.265625 
Q 6.59375 17.96875 6.59375 36.375 
Q 6.59375 54.828125 13.0625 64.515625 
Q 19.53125 74.21875 31.78125 74.21875 
z
" id="DejaVuSans-48"/>
      </defs>
      <g transform="translate(143.882328 366.772604)scale(0.1 -0.1)">
       <use xlink:href="#DejaVuSans-48"/>
      </g>
     </g>
    </g>
    <g id="xtick_2">
     <g id="line2d_2">
      <g>
       <use style="stroke:#000000;stroke-width:0.8;" x="205.401552" xlink:href="#m0f28f12409" y="352.174167"/>
      </g>
     </g>
     <g id="text_2">
      <!-- 10 -->
      <defs>
       <path d="M 12.40625 8.296875 
L 28.515625 8.296875 
L 28.515625 63.921875 
L 10.984375 60.40625 
L 10.984375 69.390625 
L 28.421875 72.90625 
L 38.28125 72.90625 
L 38.28125 8.296875 
L 54.390625 8.296875 
L 54.390625 0 
L 12.40625 0 
z
" id="DejaVuSans-49"/>
      </defs>
      <g transform="translate(199.039052 366.772604)scale(0.1 -0.1)">
       <use xlink:href="#DejaVuSans-49"/>
       <use x="63.623047" xlink:href="#DejaVuSans-48"/>
      </g>
     </g>
    </g>
    <g id="xtick_3">
     <g id="line2d_3">
      <g>
       <use style="stroke:#000000;stroke-width:0.8;" x="263.739525" xlink:href="#m0f28f12409" y="352.174167"/>
      </g>
     </g>
     <g id="text_3">
      <!-- 20 -->
      <defs>
       <path d="M 19.1875 8.296875 
L 53.609375 8.296875 
L 53.609375 0 
L 7.328125 0 
L 7.328125 8.296875 
Q 12.9375 14.109375 22.625 23.890625 
Q 32.328125 33.6875 34.8125 36.53125 
Q 39.546875 41.84375 41.421875 45.53125 
Q 43.3125 49.21875 43.3125 52.78125 
Q 43.3125 58.59375 39.234375 62.25 
Q 35.15625 65.921875 28.609375 65.921875 
Q 23.96875 65.921875 18.8125 64.3125 
Q 13.671875 62.703125 7.8125 59.421875 
L 7.8125 69.390625 
Q 13.765625 71.78125 18.9375 73 
Q 24.125 74.21875 28.421875 74.21875 
Q 39.75 74.21875 46.484375 68.546875 
Q 53.21875 62.890625 53.21875 53.421875 
Q 53.21875 48.921875 51.53125 44.890625 
Q 49.859375 40.875 45.40625 35.40625 
Q 44.1875 33.984375 37.640625 27.21875 
Q 31.109375 20.453125 19.1875 8.296875 
z
" id="DejaVuSans-50"/>
      </defs>
      <g transform="translate(257.377025 366.772604)scale(0.1 -0.1)">
       <use xlink:href="#DejaVuSans-50"/>
       <use x="63.623047" xlink:href="#DejaVuSans-48"/>
      </g>
     </g>
    </g>
    <g id="xtick_4">
     <g id="line2d_4">
      <g>
       <use style="stroke:#000000;stroke-width:0.8;" x="322.077499" xlink:href="#m0f28f12409" y="352.174167"/>
      </g>
     </g>
     <g id="text_4">
      <!-- 30 -->
      <defs>
       <path d="M 40.578125 39.3125 
Q 47.65625 37.796875 51.625 33 
Q 55.609375 28.21875 55.609375 21.1875 
Q 55.609375 10.40625 48.1875 4.484375 
Q 40.765625 -1.421875 27.09375 -1.421875 
Q 22.515625 -1.421875 17.65625 -0.515625 
Q 12.796875 0.390625 7.625 2.203125 
L 7.625 11.71875 
Q 11.71875 9.328125 16.59375 8.109375 
Q 21.484375 6.890625 26.8125 6.890625 
Q 36.078125 6.890625 40.9375 10.546875 
Q 45.796875 14.203125 45.796875 21.1875 
Q 45.796875 27.640625 41.28125 31.265625 
Q 36.765625 34.90625 28.71875 34.90625 
L 20.21875 34.90625 
L 20.21875 43.015625 
L 29.109375 43.015625 
Q 36.375 43.015625 40.234375 45.921875 
Q 44.09375 48.828125 44.09375 54.296875 
Q 44.09375 59.90625 40.109375 62.90625 
Q 36.140625 65.921875 28.71875 65.921875 
Q 24.65625 65.921875 20.015625 65.03125 
Q 15.375 64.15625 9.8125 62.3125 
L 9.8125 71.09375 
Q 15.4375 72.65625 20.34375 73.4375 
Q 25.25 74.21875 29.59375 74.21875 
Q 40.828125 74.21875 47.359375 69.109375 
Q 53.90625 64.015625 53.90625 55.328125 
Q 53.90625 49.265625 50.4375 45.09375 
Q 46.96875 40.921875 40.578125 39.3125 
z
" id="DejaVuSans-51"/>
      </defs>
      <g transform="translate(315.714999 366.772604)scale(0.1 -0.1)">
       <use xlink:href="#DejaVuSans-51"/>
       <use x="63.623047" xlink:href="#DejaVuSans-48"/>
      </g>
     </g>
    </g>
    <g id="xtick_5">
     <g id="line2d_5">
      <g>
       <use style="stroke:#000000;stroke-width:0.8;" x="380.415472" xlink:href="#m0f28f12409" y="352.174167"/>
      </g>
     </g>
     <g id="text_5">
      <!-- 40 -->
      <defs>
       <path d="M 37.796875 64.3125 
L 12.890625 25.390625 
L 37.796875 25.390625 
z
M 35.203125 72.90625 
L 47.609375 72.90625 
L 47.609375 25.390625 
L 58.015625 25.390625 
L 58.015625 17.1875 
L 47.609375 17.1875 
L 47.609375 0 
L 37.796875 0 
L 37.796875 17.1875 
L 4.890625 17.1875 
L 4.890625 26.703125 
z
" id="DejaVuSans-52"/>
      </defs>
      <g transform="translate(374.052972 366.772604)scale(0.1 -0.1)">
       <use xlink:href="#DejaVuSans-52"/>
       <use x="63.623047" xlink:href="#DejaVuSans-48"/>
      </g>
     </g>
    </g>
    <g id="xtick_6">
     <g id="line2d_6">
      <g>
       <use style="stroke:#000000;stroke-width:0.8;" x="438.753446" xlink:href="#m0f28f12409" y="352.174167"/>
      </g>
     </g>
     <g id="text_6">
      <!-- 50 -->
      <defs>
       <path d="M 10.796875 72.90625 
L 49.515625 72.90625 
L 49.515625 64.59375 
L 19.828125 64.59375 
L 19.828125 46.734375 
Q 21.96875 47.46875 24.109375 47.828125 
Q 26.265625 48.1875 28.421875 48.1875 
Q 40.625 48.1875 47.75 41.5 
Q 54.890625 34.8125 54.890625 23.390625 
Q 54.890625 11.625 47.5625 5.09375 
Q 40.234375 -1.421875 26.90625 -1.421875 
Q 22.3125 -1.421875 17.546875 -0.640625 
Q 12.796875 0.140625 7.71875 1.703125 
L 7.71875 11.625 
Q 12.109375 9.234375 16.796875 8.0625 
Q 21.484375 6.890625 26.703125 6.890625 
Q 35.15625 6.890625 40.078125 11.328125 
Q 45.015625 15.765625 45.015625 23.390625 
Q 45.015625 31 40.078125 35.4375 
Q 35.15625 39.890625 26.703125 39.890625 
Q 22.75 39.890625 18.8125 39.015625 
Q 14.890625 38.140625 10.796875 36.28125 
z
" id="DejaVuSans-53"/>
      </defs>
      <g transform="translate(432.390946 366.772604)scale(0.1 -0.1)">
       <use xlink:href="#DejaVuSans-53"/>
       <use x="63.623047" xlink:href="#DejaVuSans-48"/>
      </g>
     </g>
    </g>
    <g id="xtick_7">
     <g id="line2d_7">
      <g>
       <use style="stroke:#000000;stroke-width:0.8;" x="497.091419" xlink:href="#m0f28f12409" y="352.174167"/>
      </g>
     </g>
     <g id="text_7">
      <!-- 60 -->
      <defs>
       <path d="M 33.015625 40.375 
Q 26.375 40.375 22.484375 35.828125 
Q 18.609375 31.296875 18.609375 23.390625 
Q 18.609375 15.53125 22.484375 10.953125 
Q 26.375 6.390625 33.015625 6.390625 
Q 39.65625 6.390625 43.53125 10.953125 
Q 47.40625 15.53125 47.40625 23.390625 
Q 47.40625 31.296875 43.53125 35.828125 
Q 39.65625 40.375 33.015625 40.375 
z
M 52.59375 71.296875 
L 52.59375 62.3125 
Q 48.875 64.0625 45.09375 64.984375 
Q 41.3125 65.921875 37.59375 65.921875 
Q 27.828125 65.921875 22.671875 59.328125 
Q 17.53125 52.734375 16.796875 39.40625 
Q 19.671875 43.65625 24.015625 45.921875 
Q 28.375 48.1875 33.59375 48.1875 
Q 44.578125 48.1875 50.953125 41.515625 
Q 57.328125 34.859375 57.328125 23.390625 
Q 57.328125 12.15625 50.6875 5.359375 
Q 44.046875 -1.421875 33.015625 -1.421875 
Q 20.359375 -1.421875 13.671875 8.265625 
Q 6.984375 17.96875 6.984375 36.375 
Q 6.984375 53.65625 15.1875 63.9375 
Q 23.390625 74.21875 37.203125 74.21875 
Q 40.921875 74.21875 44.703125 73.484375 
Q 48.484375 72.75 52.59375 71.296875 
z
" id="DejaVuSans-54"/>
      </defs>
      <g transform="translate(490.728919 366.772604)scale(0.1 -0.1)">
       <use xlink:href="#DejaVuSans-54"/>
       <use x="63.623047" xlink:href="#DejaVuSans-48"/>
      </g>
     </g>
    </g>
   </g>
   <g id="matplotlib.axis_2">
    <g id="ytick_1">
     <g id="line2d_8">
      <defs>
       <path d="M 0 0 
L -3.5 0 
" id="m555fffdf31" style="stroke:#000000;stroke-width:0.8;"/>
      </defs>
      <g>
       <use style="stroke:#000000;stroke-width:0.8;" x="130.230156" xlink:href="#m555fffdf31" y="352.174167"/>
      </g>
     </g>
     <g id="text_8">
      <!-- 0 -->
      <g transform="translate(116.867656 355.973385)scale(0.1 -0.1)">
       <use xlink:href="#DejaVuSans-48"/>
      </g>
     </g>
    </g>
    <g id="ytick_2">
     <g id="line2d_9">
      <g>
       <use style="stroke:#000000;stroke-width:0.8;" x="130.230156" xlink:href="#m555fffdf31" y="294.619892"/>
      </g>
     </g>
     <g id="text_9">
      <!-- 500000 -->
      <g transform="translate(85.055156 298.419111)scale(0.1 -0.1)">
       <use xlink:href="#DejaVuSans-53"/>
       <use x="63.623047" xlink:href="#DejaVuSans-48"/>
       <use x="127.246094" xlink:href="#DejaVuSans-48"/>
       <use x="190.869141" xlink:href="#DejaVuSans-48"/>
       <use x="254.492188" xlink:href="#DejaVuSans-48"/>
       <use x="318.115234" xlink:href="#DejaVuSans-48"/>
      </g>
     </g>
    </g>
    <g id="ytick_3">
     <g id="line2d_10">
      <g>
       <use style="stroke:#000000;stroke-width:0.8;" x="130.230156" xlink:href="#m555fffdf31" y="237.065618"/>
      </g>
     </g>
     <g id="text_10">
      <!-- 1000000 -->
      <g transform="translate(78.692656 240.864836)scale(0.1 -0.1)">
       <use xlink:href="#DejaVuSans-49"/>
       <use x="63.623047" xlink:href="#DejaVuSans-48"/>
       <use x="127.246094" xlink:href="#DejaVuSans-48"/>
       <use x="190.869141" xlink:href="#DejaVuSans-48"/>
       <use x="254.492188" xlink:href="#DejaVuSans-48"/>
       <use x="318.115234" xlink:href="#DejaVuSans-48"/>
       <use x="381.738281" xlink:href="#DejaVuSans-48"/>
      </g>
     </g>
    </g>
    <g id="ytick_4">
     <g id="line2d_11">
      <g>
       <use style="stroke:#000000;stroke-width:0.8;" x="130.230156" xlink:href="#m555fffdf31" y="179.511343"/>
      </g>
     </g>
     <g id="text_11">
      <!-- 1500000 -->
      <g transform="translate(78.692656 183.310562)scale(0.1 -0.1)">
       <use xlink:href="#DejaVuSans-49"/>
       <use x="63.623047" xlink:href="#DejaVuSans-53"/>
       <use x="127.246094" xlink:href="#DejaVuSans-48"/>
       <use x="190.869141" xlink:href="#DejaVuSans-48"/>
       <use x="254.492188" xlink:href="#DejaVuSans-48"/>
       <use x="318.115234" xlink:href="#DejaVuSans-48"/>
       <use x="381.738281" xlink:href="#DejaVuSans-48"/>
      </g>
     </g>
    </g>
    <g id="ytick_5">
     <g id="line2d_12">
      <g>
       <use style="stroke:#000000;stroke-width:0.8;" x="130.230156" xlink:href="#m555fffdf31" y="121.957069"/>
      </g>
     </g>
     <g id="text_12">
      <!-- 2000000 -->
      <g transform="translate(78.692656 125.756288)scale(0.1 -0.1)">
       <use xlink:href="#DejaVuSans-50"/>
       <use x="63.623047" xlink:href="#DejaVuSans-48"/>
       <use x="127.246094" xlink:href="#DejaVuSans-48"/>
       <use x="190.869141" xlink:href="#DejaVuSans-48"/>
       <use x="254.492188" xlink:href="#DejaVuSans-48"/>
       <use x="318.115234" xlink:href="#DejaVuSans-48"/>
       <use x="381.738281" xlink:href="#DejaVuSans-48"/>
      </g>
     </g>
    </g>
    <g id="ytick_6">
     <g id="line2d_13">
      <g>
       <use style="stroke:#000000;stroke-width:0.8;" x="130.230156" xlink:href="#m555fffdf31" y="64.402794"/>
      </g>
     </g>
     <g id="text_13">
      <!-- 2500000 -->
      <g transform="translate(78.692656 68.202013)scale(0.1 -0.1)">
       <use xlink:href="#DejaVuSans-50"/>
       <use x="63.623047" xlink:href="#DejaVuSans-53"/>
       <use x="127.246094" xlink:href="#DejaVuSans-48"/>
       <use x="190.869141" xlink:href="#DejaVuSans-48"/>
       <use x="254.492188" xlink:href="#DejaVuSans-48"/>
       <use x="318.115234" xlink:href="#DejaVuSans-48"/>
       <use x="381.738281" xlink:href="#DejaVuSans-48"/>
      </g>
     </g>
    </g>
    <g id="text_14">
     <!-- inflight -->
     <defs>
      <path d="M 9.421875 54.6875 
L 18.40625 54.6875 
L 18.40625 0 
L 9.421875 0 
z
M 9.421875 75.984375 
L 18.40625 75.984375 
L 18.40625 64.59375 
L 9.421875 64.59375 
z
" id="DejaVuSans-105"/>
      <path d="M 54.890625 33.015625 
L 54.890625 0 
L 45.90625 0 
L 45.90625 32.71875 
Q 45.90625 40.484375 42.875 44.328125 
Q 39.84375 48.1875 33.796875 48.1875 
Q 26.515625 48.1875 22.3125 43.546875 
Q 18.109375 38.921875 18.109375 30.90625 
L 18.109375 0 
L 9.078125 0 
L 9.078125 54.6875 
L 18.109375 54.6875 
L 18.109375 46.1875 
Q 21.34375 51.125 25.703125 53.5625 
Q 30.078125 56 35.796875 56 
Q 45.21875 56 50.046875 50.171875 
Q 54.890625 44.34375 54.890625 33.015625 
z
" id="DejaVuSans-110"/>
      <path d="M 37.109375 75.984375 
L 37.109375 68.5 
L 28.515625 68.5 
Q 23.6875 68.5 21.796875 66.546875 
Q 19.921875 64.59375 19.921875 59.515625 
L 19.921875 54.6875 
L 34.71875 54.6875 
L 34.71875 47.703125 
L 19.921875 47.703125 
L 19.921875 0 
L 10.890625 0 
L 10.890625 47.703125 
L 2.296875 47.703125 
L 2.296875 54.6875 
L 10.890625 54.6875 
L 10.890625 58.5 
Q 10.890625 67.625 15.140625 71.796875 
Q 19.390625 75.984375 28.609375 75.984375 
z
" id="DejaVuSans-102"/>
      <path d="M 9.421875 75.984375 
L 18.40625 75.984375 
L 18.40625 0 
L 9.421875 0 
z
" id="DejaVuSans-108"/>
      <path d="M 45.40625 27.984375 
Q 45.40625 37.75 41.375 43.109375 
Q 37.359375 48.484375 30.078125 48.484375 
Q 22.859375 48.484375 18.828125 43.109375 
Q 14.796875 37.75 14.796875 27.984375 
Q 14.796875 18.265625 18.828125 12.890625 
Q 22.859375 7.515625 30.078125 7.515625 
Q 37.359375 7.515625 41.375 12.890625 
Q 45.40625 18.265625 45.40625 27.984375 
z
M 54.390625 6.78125 
Q 54.390625 -7.171875 48.1875 -13.984375 
Q 42 -20.796875 29.203125 -20.796875 
Q 24.46875 -20.796875 20.265625 -20.09375 
Q 16.0625 -19.390625 12.109375 -17.921875 
L 12.109375 -9.1875 
Q 16.0625 -11.328125 19.921875 -12.34375 
Q 23.78125 -13.375 27.78125 -13.375 
Q 36.625 -13.375 41.015625 -8.765625 
Q 45.40625 -4.15625 45.40625 5.171875 
L 45.40625 9.625 
Q 42.625 4.78125 38.28125 2.390625 
Q 33.9375 0 27.875 0 
Q 17.828125 0 11.671875 7.65625 
Q 5.515625 15.328125 5.515625 27.984375 
Q 5.515625 40.671875 11.671875 48.328125 
Q 17.828125 56 27.875 56 
Q 33.9375 56 38.28125 53.609375 
Q 42.625 51.21875 45.40625 46.390625 
L 45.40625 54.6875 
L 54.390625 54.6875 
z
" id="DejaVuSans-103"/>
      <path d="M 54.890625 33.015625 
L 54.890625 0 
L 45.90625 0 
L 45.90625 32.71875 
Q 45.90625 40.484375 42.875 44.328125 
Q 39.84375 48.1875 33.796875 48.1875 
Q 26.515625 48.1875 22.3125 43.546875 
Q 18.109375 38.921875 18.109375 30.90625 
L 18.109375 0 
L 9.078125 0 
L 9.078125 75.984375 
L 18.109375 75.984375 
L 18.109375 46.1875 
Q 21.34375 51.125 25.703125 53.5625 
Q 30.078125 56 35.796875 56 
Q 45.21875 56 50.046875 50.171875 
Q 54.890625 44.34375 54.890625 33.015625 
z
" id="DejaVuSans-104"/>
      <path d="M 18.3125 70.21875 
L 18.3125 54.6875 
L 36.8125 54.6875 
L 36.8125 47.703125 
L 18.3125 47.703125 
L 18.3125 18.015625 
Q 18.3125 11.328125 20.140625 9.421875 
Q 21.96875 7.515625 27.59375 7.515625 
L 36.8125 7.515625 
L 36.8125 0 
L 27.59375 0 
Q 17.1875 0 13.234375 3.875 
Q 9.28125 7.765625 9.28125 18.015625 
L 9.28125 47.703125 
L 2.6875 47.703125 
L 2.6875 54.6875 
L 9.28125 54.6875 
L 9.28125 70.21875 
z
" id="DejaVuSans-116"/>
     </defs>
     <g transform="translate(61.415156 211.017552)rotate(-90)scale(0.1 -0.1)">
      <use xlink:href="#DejaVuSans-105"/>
      <use x="27.783203" xlink:href="#DejaVuSans-110"/>
      <use x="91.162109" xlink:href="#DejaVuSans-102"/>
      <use x="126.367188" xlink:href="#DejaVuSans-108"/>
      <use x="154.150391" xlink:href="#DejaVuSans-105"/>
      <use x="181.933594" xlink:href="#DejaVuSans-103"/>
      <use x="245.410156" xlink:href="#DejaVuSans-104"/>
      <use x="308.789062" xlink:href="#DejaVuSans-116"/>
     </g>
     <!-- (bytes) -->
     <defs>
      <path d="M 31 75.875 
Q 24.46875 64.65625 21.28125 53.65625 
Q 18.109375 42.671875 18.109375 31.390625 
Q 18.109375 20.125 21.3125 9.0625 
Q 24.515625 -2 31 -13.1875 
L 23.1875 -13.1875 
Q 15.875 -1.703125 12.234375 9.375 
Q 8.59375 20.453125 8.59375 31.390625 
Q 8.59375 42.28125 12.203125 53.3125 
Q 15.828125 64.359375 23.1875 75.875 
z
" id="DejaVuSans-40"/>
      <path d="M 48.6875 27.296875 
Q 48.6875 37.203125 44.609375 42.84375 
Q 40.53125 48.484375 33.40625 48.484375 
Q 26.265625 48.484375 22.1875 42.84375 
Q 18.109375 37.203125 18.109375 27.296875 
Q 18.109375 17.390625 22.1875 11.75 
Q 26.265625 6.109375 33.40625 6.109375 
Q 40.53125 6.109375 44.609375 11.75 
Q 48.6875 17.390625 48.6875 27.296875 
z
M 18.109375 46.390625 
Q 20.953125 51.265625 25.265625 53.625 
Q 29.59375 56 35.59375 56 
Q 45.5625 56 51.78125 48.09375 
Q 58.015625 40.1875 58.015625 27.296875 
Q 58.015625 14.40625 51.78125 6.484375 
Q 45.5625 -1.421875 35.59375 -1.421875 
Q 29.59375 -1.421875 25.265625 0.953125 
Q 20.953125 3.328125 18.109375 8.203125 
L 18.109375 0 
L 9.078125 0 
L 9.078125 75.984375 
L 18.109375 75.984375 
z
" id="DejaVuSans-98"/>
      <path d="M 32.171875 -5.078125 
Q 28.375 -14.84375 24.75 -17.8125 
Q 21.140625 -20.796875 15.09375 -20.796875 
L 7.90625 -20.796875 
L 7.90625 -13.28125 
L 13.1875 -13.28125 
Q 16.890625 -13.28125 18.9375 -11.515625 
Q 21 -9.765625 23.484375 -3.21875 
L 25.09375 0.875 
L 2.984375 54.6875 
L 12.5 54.6875 
L 29.59375 11.921875 
L 46.6875 54.6875 
L 56.203125 54.6875 
z
" id="DejaVuSans-121"/>
      <path d="M 56.203125 29.59375 
L 56.203125 25.203125 
L 14.890625 25.203125 
Q 15.484375 15.921875 20.484375 11.0625 
Q 25.484375 6.203125 34.421875 6.203125 
Q 39.59375 6.203125 44.453125 7.46875 
Q 49.3125 8.734375 54.109375 11.28125 
L 54.109375 2.78125 
Q 49.265625 0.734375 44.1875 -0.34375 
Q 39.109375 -1.421875 33.890625 -1.421875 
Q 20.796875 -1.421875 13.15625 6.1875 
Q 5.515625 13.8125 5.515625 26.8125 
Q 5.515625 40.234375 12.765625 48.109375 
Q 20.015625 56 32.328125 56 
Q 43.359375 56 49.78125 48.890625 
Q 56.203125 41.796875 56.203125 29.59375 
z
M 47.21875 32.234375 
Q 47.125 39.59375 43.09375 43.984375 
Q 39.0625 48.390625 32.421875 48.390625 
Q 24.90625 48.390625 20.390625 44.140625 
Q 15.875 39.890625 15.1875 32.171875 
z
" id="DejaVuSans-101"/>
      <path d="M 44.28125 53.078125 
L 44.28125 44.578125 
Q 40.484375 46.53125 36.375 47.5 
Q 32.28125 48.484375 27.875 48.484375 
Q 21.1875 48.484375 17.84375 46.4375 
Q 14.5 44.390625 14.5 40.28125 
Q 14.5 37.15625 16.890625 35.375 
Q 19.28125 33.59375 26.515625 31.984375 
L 29.59375 31.296875 
Q 39.15625 29.25 43.1875 25.515625 
Q 47.21875 21.78125 47.21875 15.09375 
Q 47.21875 7.46875 41.1875 3.015625 
Q 35.15625 -1.421875 24.609375 -1.421875 
Q 20.21875 -1.421875 15.453125 -0.5625 
Q 10.6875 0.296875 5.421875 2 
L 5.421875 11.28125 
Q 10.40625 8.6875 15.234375 7.390625 
Q 20.0625 6.109375 24.8125 6.109375 
Q 31.15625 6.109375 34.5625 8.28125 
Q 37.984375 10.453125 37.984375 14.40625 
Q 37.984375 18.0625 35.515625 20.015625 
Q 33.0625 21.96875 24.703125 23.78125 
L 21.578125 24.515625 
Q 13.234375 26.265625 9.515625 29.90625 
Q 5.8125 33.546875 5.8125 39.890625 
Q 5.8125 47.609375 11.28125 51.796875 
Q 16.75 56 26.8125 56 
Q 31.78125 56 36.171875 55.265625 
Q 40.578125 54.546875 44.28125 53.078125 
z
" id="DejaVuSans-115"/>
      <path d="M 8.015625 75.875 
L 15.828125 75.875 
Q 23.140625 64.359375 26.78125 53.3125 
Q 30.421875 42.28125 30.421875 31.390625 
Q 30.421875 20.453125 26.78125 9.375 
Q 23.140625 -1.703125 15.828125 -13.1875 
L 8.015625 -13.1875 
Q 14.5 -2 17.703125 9.0625 
Q 20.90625 20.125 20.90625 31.390625 
Q 20.90625 42.671875 17.703125 53.65625 
Q 14.5 64.65625 8.015625 75.875 
z
" id="DejaVuSans-41"/>
     </defs>
     <g transform="translate(72.612969 211.294896)rotate(-90)scale(0.1 -0.1)">
      <use xlink:href="#DejaVuSans-40"/>
      <use x="39.013672" xlink:href="#DejaVuSans-98"/>
      <use x="102.490234" xlink:href="#DejaVuSans-121"/>
      <use x="161.669922" xlink:href="#DejaVuSans-116"/>
      <use x="200.878906" xlink:href="#DejaVuSans-101"/>
      <use x="262.402344" xlink:href="#DejaVuSans-115"/>
      <use x="314.501953" xlink:href="#DejaVuSans-41"/>
     </g>
    </g>
   </g>
   <g id="line2d_14">
    <path clip-path="url(#p874397f942)" d="M 154.880867 336.839866 
L 157.797766 337.506575 
L 160.714664 335.339772 
L 163.631563 343.506953 
L 166.548462 344.006985 
L 169.46536 346.007111 
L 172.382259 348.673946 
L 175.299158 349.674009 
L 178.216056 349.674009 
L 181.132955 349.674009 
L 184.049854 350.340718 
L 186.966752 350.340718 
L 189.883651 350.340718 
L 192.80055 350.507395 
L 195.717448 351.174104 
L 198.634347 351.174104 
L 201.551246 351.174104 
L 204.468144 351.174104 
L 207.385043 351.174104 
L 210.301942 351.174104 
L 213.21884 351.840812 
L 216.135739 351.840812 
L 219.052638 350.340718 
L 221.969536 350.507395 
L 224.886435 349.0073 
L 227.803334 348.840623 
L 230.720232 349.173977 
L 233.637131 348.340592 
L 236.55403 348.007237 
L 239.470928 348.507269 
L 242.387827 348.340592 
L 245.304726 347.507206 
L 248.221624 350.174041 
L 251.138523 350.840749 
L 254.055422 350.340718 
L 256.972321 348.840623 
L 259.889219 348.840623 
L 262.806118 348.673946 
L 265.723017 348.840623 
L 268.639915 348.673946 
L 271.556814 348.840623 
L 274.473713 349.173977 
L 277.390611 349.0073 
L 280.30751 349.0073 
L 283.224409 349.0073 
L 286.141307 348.840623 
L 289.058206 349.0073 
L 291.975105 349.0073 
L 294.892003 349.0073 
L 297.808902 349.507332 
L 300.725801 349.173977 
L 303.642699 349.674009 
L 306.559598 349.0073 
L 309.476497 350.340718 
L 312.393395 352.007489 
L 315.310294 351.340781 
L 318.227193 350.840749 
L 321.144091 349.840686 
L 324.06099 350.007363 
L 326.977889 349.674009 
L 329.894787 349.507332 
L 332.811686 349.507332 
L 335.728585 349.674009 
L 338.645483 349.507332 
L 341.562382 349.507332 
L 344.479281 349.507332 
L 347.396179 349.507332 
L 350.313078 349.507332 
L 353.229977 349.674009 
L 356.146875 349.674009 
L 359.063774 349.674009 
L 361.980673 349.674009 
L 364.897571 349.507332 
L 367.81447 349.674009 
L 370.731369 349.340655 
L 373.648267 351.674135 
L 376.565166 349.340655 
L 379.482065 349.674009 
L 382.398963 349.340655 
L 385.315862 349.340655 
L 388.232761 349.173977 
L 391.149659 349.340655 
L 394.066558 349.340655 
L 396.983457 349.340655 
L 399.900356 349.173977 
L 402.817254 349.173977 
L 405.734153 349.340655 
L 408.651052 349.0073 
L 411.56795 349.0073 
L 414.484849 349.340655 
L 417.401748 349.507332 
L 420.318646 349.173977 
L 423.235545 349.340655 
L 426.152444 349.173977 
L 429.069342 349.507332 
L 431.986241 352.007489 
L 434.90314 347.673883 
L 437.820038 348.673946 
L 440.736937 349.0073 
L 443.653836 349.340655 
L 446.570734 349.340655 
L 449.487633 349.173977 
L 452.404532 349.507332 
L 455.32143 349.173977 
L 458.238329 349.340655 
L 461.155228 349.340655 
L 464.072126 349.0073 
L 466.989025 349.173977 
L 469.905924 349.340655 
L 472.822822 349.173977 
" style="fill:none;stroke:#1f77b4;stroke-linecap:square;stroke-width:1.5;"/>
   </g>
   <g id="line2d_15">
    <path clip-path="url(#p874397f942)" d="M 160.714664 327.339267 
L 163.631563 338.839992 
L 166.548462 335.673126 
L 169.46536 336.00648 
L 172.382259 343.006922 
L 175.299158 343.006922 
L 178.216056 343.006922 
L 181.132955 343.006922 
L 184.049854 346.67382 
L 186.966752 346.67382 
L 189.883651 348.507269 
L 192.80055 348.507269 
L 195.717448 348.673946 
L 198.634347 349.173977 
L 201.551246 349.173977 
L 204.468144 349.173977 
L 207.385043 349.173977 
L 210.301942 349.840686 
L 213.21884 350.007363 
L 216.135739 349.840686 
L 219.052638 351.840812 
L 221.969536 351.674135 
L 224.886435 349.173977 
L 227.803334 348.673946 
L 230.720232 345.840434 
L 233.637131 349.173977 
L 236.55403 343.673631 
L 239.470928 345.173725 
L 242.387827 347.340528 
L 245.304726 344.507016 
L 248.221624 346.67382 
L 251.138523 349.507332 
L 254.055422 348.340592 
L 256.972321 346.340465 
L 259.889219 346.340465 
L 262.806118 346.340465 
L 265.723017 346.340465 
L 268.639915 346.340465 
L 271.556814 346.007111 
L 274.473713 346.340465 
L 277.390611 346.007111 
L 280.30751 346.007111 
L 283.224409 346.340465 
L 286.141307 346.007111 
L 289.058206 346.340465 
L 291.975105 346.340465 
L 294.892003 346.340465 
L 297.808902 347.507206 
L 300.725801 347.007174 
L 303.642699 347.007174 
L 306.559598 347.340528 
L 309.476497 347.507206 
L 312.393395 352.007489 
L 315.310294 350.340718 
L 318.227193 350.174041 
L 321.144091 350.007363 
L 324.06099 349.674009 
L 326.977889 349.507332 
L 329.894787 349.674009 
L 332.811686 350.007363 
L 335.728585 349.507332 
L 338.645483 349.507332 
L 341.562382 349.507332 
L 344.479281 349.674009 
L 347.396179 349.507332 
L 350.313078 349.674009 
L 353.229977 349.507332 
L 356.146875 349.840686 
L 359.063774 349.674009 
L 361.980673 349.674009 
L 364.897571 349.674009 
L 367.81447 349.674009 
L 370.731369 349.674009 
L 373.648267 351.174104 
L 376.565166 349.0073 
L 379.482065 349.340655 
L 382.398963 349.173977 
L 385.315862 349.0073 
L 388.232761 349.340655 
L 391.149659 349.340655 
L 394.066558 349.340655 
L 396.983457 349.340655 
L 399.900356 349.173977 
L 402.817254 349.507332 
L 405.734153 349.340655 
L 408.651052 349.340655 
L 411.56795 349.340655 
L 414.484849 349.507332 
L 417.401748 349.173977 
L 420.318646 349.340655 
L 423.235545 349.0073 
L 426.152444 349.173977 
L 429.069342 349.340655 
L 431.986241 351.674135 
L 434.90314 349.340655 
L 437.820038 349.507332 
L 440.736937 349.507332 
L 443.653836 349.674009 
L 446.570734 349.507332 
L 449.487633 349.674009 
L 452.404532 349.674009 
L 455.32143 349.674009 
L 458.238329 349.674009 
L 461.155228 350.007363 
L 464.072126 349.340655 
L 466.989025 349.507332 
L 469.905924 349.674009 
L 472.822822 349.507332 
L 475.739721 350.007363 
L 478.65662 349.674009 
" style="fill:none;stroke:#ff7f0e;stroke-linecap:square;stroke-width:1.5;"/>
   </g>
   <g id="line2d_16">
    <path clip-path="url(#p874397f942)" d="M 189.79031 350.840749 
L 192.707209 349.173977 
L 195.624108 346.340465 
L 198.541006 342.340213 
L 201.457905 334.83974 
L 204.374804 318.672054 
L 207.291702 275.502664 
L 210.208601 224.33277 
L 213.1255 177.829838 
L 216.042398 147.994623 
L 218.959297 120.659565 
L 221.876196 97.658115 
L 224.793094 88.324193 
L 227.709993 74.156632 
L 230.626892 65.156065 
L 233.54379 63.489293 
L 236.460689 57.488914 
L 239.377588 55.98882 
L 242.294486 115.325895 
L 245.211385 215.332203 
L 248.128284 268.835577 
L 251.045182 352.007489 
L 253.962081 236.833559 
L 256.87898 178.329869 
L 259.795878 178.329869 
L 262.712777 178.329869 
L 265.629676 178.329869 
L 268.546574 178.329869 
L 271.463473 178.329869 
L 274.380372 178.329869 
L 277.29727 178.329869 
L 280.214169 178.163192 
L 283.131068 178.329869 
L 286.047966 178.329869 
L 288.964865 239.167039 
L 291.881764 253.834631 
L 294.798663 254.334663 
L 297.715561 248.500961 
L 300.63246 248.667639 
L 303.549359 248.667639 
L 306.466257 248.500961 
L 309.383156 249.000993 
L 312.300055 333.006291 
L 315.216953 347.173851 
L 318.133852 348.340592 
L 321.050751 348.673946 
L 323.967649 349.340655 
L 326.884548 349.173977 
L 329.801447 349.173977 
L 332.718345 349.674009 
L 335.635244 349.340655 
L 338.552143 349.674009 
L 341.469041 349.507332 
L 344.38594 349.674009 
L 347.302839 349.507332 
L 350.219737 349.674009 
L 353.136636 349.840686 
L 356.053535 350.007363 
L 358.970433 349.507332 
L 361.887332 350.007363 
L 364.804231 349.840686 
L 367.721129 350.007363 
L 370.638028 349.340655 
L 373.554927 352.007489 
L 376.471825 349.674009 
L 379.388724 349.674009 
L 382.305623 349.507332 
L 385.222521 349.507332 
L 388.13942 349.674009 
L 391.056319 349.840686 
L 393.973217 349.674009 
L 396.890116 349.340655 
L 399.807015 349.674009 
L 402.723913 349.507332 
L 405.640812 349.674009 
L 408.557711 349.340655 
L 411.474609 349.674009 
L 414.391508 349.507332 
L 417.308407 349.507332 
L 420.225305 349.674009 
L 423.142204 349.674009 
L 426.059103 349.674009 
L 428.976001 349.507332 
L 431.8929 349.674009 
L 434.809799 350.007363 
L 437.726698 349.840686 
L 440.643596 349.340655 
L 443.560495 349.674009 
L 446.477394 349.674009 
L 449.394292 349.507332 
L 452.311191 349.674009 
L 455.22809 349.840686 
L 458.144988 349.507332 
L 461.061887 349.674009 
L 463.978786 349.507332 
L 466.895684 349.674009 
L 469.812583 349.674009 
L 472.729482 350.007363 
L 475.64638 349.674009 
L 478.563279 350.007363 
L 481.480178 349.674009 
L 484.397076 349.674009 
L 487.313975 350.007363 
L 490.230874 349.674009 
L 493.147772 352.007489 
L 496.064671 349.840686 
L 498.98157 349.674009 
L 501.898468 349.674009 
L 504.815367 349.507332 
L 507.732266 349.674009 
L 510.649164 350.007363 
L 513.566063 349.674009 
L 516.482962 349.507332 
L 519.39986 349.340655 
L 522.316759 349.340655 
L 525.233658 349.0073 
" style="fill:none;stroke:#2ca02c;stroke-linecap:square;stroke-width:1.5;"/>
   </g>
   <g id="line2d_17">
    <path clip-path="url(#p874397f942)" d="M 172.178076 343.506953 
L 175.094975 266.835451 
L 178.011873 244.000678 
L 180.928772 240.667134 
L 183.845671 289.170193 
L 186.762569 275.836019 
L 189.679468 275.836019 
L 192.596367 275.669342 
L 195.513265 275.669342 
L 198.430164 275.836019 
L 201.347063 282.336429 
L 204.263961 291.003642 
L 207.18086 291.003642 
L 210.097759 291.170319 
L 213.014658 301.670981 
L 215.931556 301.670981 
L 218.848455 301.670981 
L 221.765354 303.337753 
L 224.682252 320.005471 
L 227.599151 320.005471 
L 230.51605 325.672495 
L 233.432948 337.339898 
L 236.349847 351.840812 
L 239.266746 351.674135 
L 242.183644 319.172085 
L 245.100543 312.838352 
L 248.017442 288.670162 
L 250.93434 317.505313 
L 253.851239 306.50462 
L 256.768138 283.669846 
L 259.685036 283.669846 
L 262.601935 283.669846 
L 265.518834 283.669846 
L 268.435732 283.669846 
L 271.352631 283.669846 
L 274.26953 283.669846 
L 277.186428 284.503232 
L 280.103327 283.669846 
L 283.020226 283.669846 
L 285.937124 283.669846 
L 288.854023 283.669846 
L 291.770922 283.669846 
L 294.68782 283.669846 
L 297.604719 283.669846 
L 300.521618 283.503169 
L 303.438516 304.004462 
L 306.355415 303.837785 
L 309.272314 304.837848 
L 312.189212 345.007048 
L 315.106111 348.673946 
L 318.02301 349.173977 
L 320.939908 349.674009 
L 323.856807 349.340655 
L 326.773706 349.340655 
L 329.690604 349.173977 
L 332.607503 349.340655 
L 335.524402 349.340655 
L 338.4413 349.173977 
L 341.358199 349.340655 
L 344.275098 349.340655 
L 347.191996 349.340655 
L 350.108895 349.340655 
L 353.025794 349.340655 
L 355.942693 349.340655 
L 358.859591 349.340655 
L 361.77649 349.507332 
L 364.693389 349.507332 
L 367.610287 349.507332 
L 370.527186 349.340655 
L 373.444085 352.007489 
L 376.360983 349.507332 
L 379.277882 349.507332 
L 382.194781 349.840686 
L 385.111679 349.507332 
L 388.028578 349.674009 
L 390.945477 349.507332 
L 393.862375 349.674009 
L 396.779274 349.507332 
L 399.696173 349.674009 
L 402.613071 350.007363 
L 405.52997 349.507332 
L 408.446869 349.840686 
L 411.363767 349.674009 
L 414.280666 349.507332 
L 417.197565 349.674009 
L 420.114463 349.674009 
L 423.031362 350.007363 
L 425.948261 349.674009 
L 428.865159 349.507332 
L 431.782058 349.674009 
L 434.698957 350.174041 
L 437.615855 349.840686 
L 440.532754 349.674009 
L 443.449653 349.674009 
L 446.366551 349.674009 
L 449.28345 349.674009 
L 452.200349 349.840686 
L 455.117247 349.507332 
L 458.034146 349.674009 
L 460.951045 349.674009 
L 463.867943 349.507332 
L 466.784842 349.674009 
L 469.701741 349.840686 
L 472.618639 349.674009 
L 475.535538 349.507332 
L 478.452437 349.507332 
L 481.369335 349.674009 
L 484.286234 349.507332 
L 487.203133 349.840686 
L 490.120031 349.674009 
L 493.03693 352.007489 
L 495.953829 349.340655 
L 498.870728 349.340655 
L 501.787626 349.507332 
L 504.704525 349.340655 
L 507.621424 349.173977 
" style="fill:none;stroke:#d62728;stroke-linecap:square;stroke-width:1.5;"/>
   </g>
   <g id="line2d_18">
    <path clip-path="url(#p874397f942)" d="M 189.813645 350.840749 
L 192.730544 349.173977 
L 195.647443 346.340465 
L 198.564341 342.340213 
L 201.48124 334.83974 
L 204.398139 318.338699 
L 207.315037 274.669278 
L 210.231936 222.665999 
L 213.148835 178.163192 
L 216.065734 148.494654 
L 218.982632 118.159408 
L 221.899531 97.658115 
L 224.81643 86.490744 
L 227.733328 69.156317 
L 230.650227 64.156002 
L 233.567126 58.488977 
L 236.484024 54.655402 
L 239.400923 50.155119 
L 242.317822 125.659881 
L 245.23472 222.165967 
L 248.151619 267.335483 
L 251.068518 352.007489 
L 253.985416 234.166724 
L 256.902315 174.662971 
L 259.819214 174.662971 
L 262.736112 174.662971 
L 265.653011 174.829648 
L 268.56991 174.662971 
L 271.486808 174.662971 
L 274.403707 174.662971 
L 277.320606 174.662971 
L 280.237504 174.496294 
L 283.154403 174.662971 
L 286.071302 174.496294 
L 288.9882 236.666882 
L 291.905099 251.001119 
L 294.821998 250.834442 
L 297.738896 246.334158 
L 300.655795 246.334158 
L 303.572694 246.500835 
L 306.489592 246.334158 
L 309.406491 246.167481 
L 312.32339 332.50626 
L 315.240288 347.673883 
L 318.157187 348.673946 
L 321.074086 348.840623 
L 323.990984 349.173977 
L 326.907883 349.340655 
L 329.824782 349.340655 
L 332.74168 349.507332 
L 335.658579 349.674009 
L 338.575478 349.674009 
L 341.492376 349.340655 
L 344.409275 349.340655 
L 347.326174 349.173977 
L 350.243072 349.340655 
L 353.159971 349.340655 
L 356.07687 349.173977 
L 358.993769 349.674009 
L 361.910667 349.340655 
L 364.827566 349.340655 
L 367.744465 349.340655 
L 370.661363 349.507332 
L 373.578262 352.007489 
L 376.495161 349.674009 
L 379.412059 349.674009 
L 382.328958 349.674009 
L 385.245857 349.674009 
L 388.162755 349.507332 
L 391.079654 349.674009 
L 393.996553 350.007363 
L 396.913451 349.674009 
L 399.83035 349.674009 
L 402.747249 349.674009 
L 405.664147 349.674009 
L 408.581046 349.674009 
L 411.497945 349.507332 
L 414.414843 349.840686 
L 417.331742 349.507332 
L 420.248641 349.674009 
L 423.165539 349.674009 
L 426.082438 349.507332 
L 428.999337 349.840686 
L 431.916235 349.340655 
L 434.833134 350.007363 
L 437.750033 349.507332 
L 440.666931 349.507332 
L 443.58383 349.674009 
L 446.500729 349.507332 
L 449.417627 349.674009 
L 452.334526 350.007363 
L 455.251425 349.674009 
L 458.168323 349.507332 
L 461.085222 349.674009 
L 464.002121 349.674009 
L 466.919019 349.507332 
L 469.835918 349.840686 
L 472.752817 349.507332 
L 475.669715 349.507332 
L 478.586614 349.507332 
L 481.503513 349.507332 
L 484.420411 349.507332 
L 487.33731 349.507332 
L 490.254209 350.007363 
L 493.171107 352.007489 
L 496.088006 349.340655 
L 499.004905 349.674009 
L 501.921804 349.507332 
L 504.838702 349.507332 
L 507.755601 349.507332 
L 510.6725 349.507332 
L 513.589398 349.340655 
L 516.506297 349.173977 
L 519.423196 349.340655 
L 522.340094 349.0073 
L 525.256993 349.0073 
" style="fill:none;stroke:#9467bd;stroke-linecap:square;stroke-width:1.5;"/>
   </g>
   <g id="line2d_19">
    <path clip-path="url(#p874397f942)" d="M 160.516315 318.005345 
L 163.433214 333.006291 
L 166.350113 324.672432 
L 169.267011 326.339204 
L 172.18391 331.339519 
L 175.100809 338.006606 
L 178.017707 337.839929 
L 180.934606 337.839929 
L 183.851505 338.006606 
L 186.768403 340.673441 
L 189.685302 347.340528 
L 192.602201 347.340528 
L 195.519099 347.340528 
L 198.435998 347.340528 
L 201.352897 347.340528 
L 204.269795 347.340528 
L 207.186694 347.340528 
L 210.103593 347.340528 
L 213.020491 348.340592 
L 215.93739 348.840623 
L 218.854289 349.0073 
L 221.771187 351.840812 
L 224.688086 351.674135 
L 227.604985 348.173914 
L 230.521883 348.007237 
L 233.438782 345.840434 
L 236.355681 343.506953 
L 239.272579 343.673631 
L 242.189478 343.840308 
L 245.106377 343.006922 
L 248.023275 345.673757 
L 250.940174 348.507269 
L 253.857073 346.340465 
L 256.773971 345.340402 
L 259.69087 344.673694 
L 262.607769 344.673694 
L 265.524667 343.840308 
L 268.441566 344.673694 
L 271.358465 344.340339 
L 274.275363 344.340339 
L 277.192262 344.340339 
L 280.109161 344.673694 
L 283.026059 344.840371 
L 285.942958 344.673694 
L 288.859857 344.673694 
L 291.776755 344.340339 
L 294.693654 344.673694 
L 297.610553 344.673694 
L 300.527452 344.673694 
L 303.44435 344.673694 
L 306.361249 347.173851 
L 309.278148 346.507143 
L 312.195046 351.507458 
L 315.111945 351.340781 
L 318.028844 350.674072 
L 320.945742 349.840686 
L 323.862641 349.840686 
L 326.77954 350.007363 
L 329.696438 349.674009 
L 332.613337 349.674009 
L 335.530236 349.674009 
L 338.447134 349.507332 
L 341.364033 349.507332 
L 344.280932 349.674009 
L 347.19783 349.840686 
L 350.114729 349.840686 
L 353.031628 349.674009 
L 355.948526 350.007363 
L 358.865425 349.674009 
L 361.782324 349.840686 
L 364.699222 349.840686 
L 367.616121 349.507332 
L 370.53302 349.674009 
L 373.449918 351.674135 
L 376.366817 349.340655 
L 379.283716 349.507332 
L 382.200614 349.507332 
L 385.117513 349.674009 
L 388.034412 349.507332 
L 390.95131 349.674009 
L 393.868209 350.007363 
L 396.785108 349.674009 
L 399.702006 349.507332 
L 402.618905 349.674009 
L 405.535804 349.674009 
L 408.452702 349.674009 
L 411.369601 349.674009 
L 414.2865 349.674009 
L 417.203398 349.674009 
L 420.120297 349.674009 
L 423.037196 349.674009 
L 425.954094 349.840686 
L 428.870993 349.674009 
L 431.787892 349.507332 
L 434.70479 349.340655 
L 437.621689 349.507332 
L 440.538588 349.674009 
L 443.455487 349.674009 
L 446.372385 349.507332 
L 449.289284 349.674009 
L 452.206183 349.507332 
L 455.123081 349.674009 
L 458.03998 349.674009 
L 460.956879 350.007363 
L 463.873777 349.674009 
L 466.790676 349.674009 
L 469.707575 349.674009 
L 472.624473 349.674009 
L 475.541372 349.674009 
L 478.458271 349.507332 
L 481.375169 349.674009 
" style="fill:none;stroke:#8c564b;stroke-linecap:square;stroke-width:1.5;"/>
   </g>
   <g id="line2d_20">
    <path clip-path="url(#p874397f942)" d="M 166.344279 315.671864 
L 169.261177 303.671108 
L 172.178076 314.005093 
L 175.094975 314.005093 
L 178.011873 314.005093 
L 180.928772 314.005093 
L 183.845671 318.672054 
L 186.762569 326.00585 
L 189.679468 326.00585 
L 192.596367 336.673189 
L 195.513265 336.673189 
L 198.430164 336.673189 
L 201.347063 336.673189 
L 204.263961 336.673189 
L 207.18086 336.673189 
L 210.097759 338.339961 
L 213.014658 338.339961 
L 215.931556 344.840371 
L 218.848455 344.673694 
L 221.765354 344.840371 
L 224.682252 349.340655 
L 227.599151 351.840812 
L 230.51605 346.67382 
L 233.432948 344.173662 
L 236.349847 338.006606 
L 239.266746 335.839803 
L 242.183644 339.673378 
L 245.100543 321.005534 
L 248.017442 337.673252 
L 250.93434 343.506953 
L 253.851239 339.506701 
L 256.768138 332.672937 
L 259.685036 332.339582 
L 262.601935 332.672937 
L 265.518834 332.672937 
L 268.435732 332.672937 
L 271.352631 332.672937 
L 274.26953 332.672937 
L 277.186428 332.672937 
L 280.103327 332.672937 
L 283.020226 332.50626 
L 285.937124 332.672937 
L 288.854023 332.672937 
L 291.770922 332.672937 
L 294.68782 338.339961 
L 297.604719 341.506827 
L 300.521618 338.006606 
L 303.438516 338.006606 
L 306.355415 339.673378 
L 309.272314 339.840055 
L 312.189212 351.007426 
L 315.106111 350.840749 
L 318.02301 350.174041 
L 320.939908 349.840686 
L 323.856807 349.674009 
L 326.773706 349.674009 
L 329.690604 349.840686 
L 332.607503 349.840686 
L 335.524402 349.674009 
L 338.4413 349.674009 
L 341.358199 349.674009 
L 344.275098 349.507332 
L 347.191996 349.674009 
L 350.108895 349.674009 
L 353.025794 349.840686 
L 355.942693 349.674009 
L 358.859591 350.007363 
L 361.77649 349.674009 
L 364.693389 350.007363 
L 367.610287 349.840686 
L 370.527186 349.507332 
L 373.444085 352.007489 
L 376.360983 349.674009 
L 379.277882 349.674009 
L 382.194781 350.007363 
L 385.111679 349.840686 
L 388.028578 349.840686 
L 390.945477 349.674009 
L 393.862375 349.507332 
L 396.779274 349.674009 
L 399.696173 349.674009 
L 402.613071 349.507332 
L 405.52997 349.507332 
L 408.446869 349.674009 
L 411.363767 349.674009 
L 414.280666 349.674009 
L 417.197565 349.674009 
L 420.114463 349.840686 
L 423.031362 349.674009 
L 425.948261 349.840686 
L 428.865159 349.674009 
L 431.782058 349.507332 
L 434.698957 349.674009 
L 437.615855 349.507332 
L 440.532754 349.674009 
L 443.449653 349.840686 
L 446.366551 349.674009 
L 449.28345 350.007363 
L 452.200349 349.674009 
L 455.117247 349.674009 
L 458.034146 349.674009 
L 460.951045 349.674009 
L 463.867943 350.007363 
L 466.784842 349.674009 
L 469.701741 349.674009 
L 472.618639 349.507332 
L 475.535538 349.674009 
L 478.452437 349.674009 
L 481.369335 349.674009 
L 484.286234 349.507332 
L 487.203133 349.507332 
L 490.120031 349.674009 
" style="fill:none;stroke:#e377c2;stroke-linecap:square;stroke-width:1.5;"/>
   </g>
   <g id="line2d_21">
    <path clip-path="url(#p874397f942)" d="M 201.487074 352.007489 
L 204.403973 350.674072 
L 207.320871 348.007237 
L 210.23777 344.507016 
L 213.154669 341.173473 
L 216.071567 338.673315 
L 218.988466 334.506386 
L 221.905365 333.506323 
L 224.822263 330.839488 
L 227.739162 329.006039 
L 230.656061 328.005976 
L 233.572959 326.172527 
L 236.489858 325.672495 
L 239.406757 323.672369 
L 242.323655 323.339015 
L 245.240554 320.67218 
L 248.157453 321.338889 
L 251.074351 313.00503 
L 253.99125 248.500961 
L 256.908149 234.333401 
L 259.825047 234.333401 
L 262.741946 234.333401 
L 265.658845 234.333401 
L 268.575743 234.333401 
L 271.492642 261.00175 
L 274.409541 299.670855 
L 277.326439 303.171076 
L 280.243338 304.504494 
L 283.160237 305.004525 
L 286.077135 304.671171 
L 288.994034 304.837848 
L 291.910933 304.837848 
L 294.827831 281.66972 
L 297.74473 270.335672 
L 300.661629 270.002317 
L 303.578528 290.170256 
L 306.495426 288.003453 
L 309.412325 296.003957 
L 312.329224 343.006922 
L 315.246122 348.340592 
L 318.163021 348.840623 
L 321.07992 349.173977 
L 323.996818 349.340655 
L 326.913717 349.674009 
L 329.830616 349.507332 
L 332.747514 349.840686 
L 335.664413 349.507332 
L 338.581312 349.507332 
L 341.49821 349.674009 
L 344.415109 349.674009 
L 347.332008 349.674009 
L 350.248906 349.507332 
L 353.165805 349.674009 
L 356.082704 350.007363 
L 358.999602 349.840686 
L 361.916501 349.674009 
L 364.8334 350.007363 
L 367.750298 349.674009 
L 370.667197 349.674009 
L 373.584096 352.007489 
L 376.500994 349.674009 
L 379.417893 349.674009 
L 382.334792 349.674009 
L 385.25169 349.674009 
L 388.168589 349.674009 
L 391.085488 349.674009 
L 394.002386 349.674009 
L 396.919285 349.840686 
L 399.836184 349.674009 
L 402.753082 349.674009 
L 405.669981 349.507332 
L 408.58688 349.840686 
L 411.503778 349.674009 
L 414.420677 349.507332 
L 417.337576 349.674009 
L 420.254474 350.007363 
L 423.171373 349.507332 
L 426.088272 349.507332 
L 429.00517 349.674009 
L 431.922069 349.507332 
L 434.838968 349.674009 
L 437.755866 349.674009 
L 440.672765 349.507332 
L 443.589664 349.674009 
L 446.506563 349.674009 
L 449.423461 349.674009 
L 452.34036 350.007363 
L 455.257259 349.674009 
L 458.174157 349.507332 
L 461.091056 349.507332 
L 464.007955 349.674009 
L 466.924853 349.507332 
L 469.841752 349.674009 
L 472.758651 349.674009 
L 475.675549 349.507332 
L 478.592448 349.674009 
L 481.509347 349.674009 
L 484.426245 349.674009 
L 487.343144 349.507332 
L 490.260043 349.674009 
L 493.176941 351.507458 
L 496.09384 349.674009 
L 499.010739 349.674009 
L 501.927637 349.507332 
L 504.844536 349.674009 
L 507.761435 349.674009 
L 510.678333 349.674009 
L 513.595232 349.674009 
L 516.512131 349.340655 
L 519.429029 348.840623 
L 522.345928 349.340655 
L 525.262827 349.0073 
" style="fill:none;stroke:#7f7f7f;stroke-linecap:square;stroke-width:1.5;"/>
   </g>
   <g id="line2d_22">
    <path clip-path="url(#p874397f942)" d="M 166.548462 320.838857 
L 169.46536 338.173284 
L 172.382259 325.672495 
L 175.299158 325.672495 
L 178.216056 325.672495 
L 181.132955 328.672684 
L 184.049854 328.672684 
L 186.966752 330.006102 
L 189.883651 341.34015 
L 192.80055 341.34015 
L 195.717448 341.506827 
L 198.634347 341.34015 
L 201.551246 341.34015 
L 204.468144 341.34015 
L 207.385043 341.173473 
L 210.301942 341.173473 
L 213.21884 343.006922 
L 216.135739 344.173662 
L 219.052638 344.173662 
L 221.969536 349.340655 
L 224.886435 349.173977 
L 227.803334 351.840812 
L 230.720232 351.674135 
L 233.637131 348.507269 
L 236.55403 348.340592 
L 239.470928 344.507016 
L 242.387827 344.673694 
L 245.304726 341.006796 
L 248.221624 342.006859 
L 251.138523 346.173788 
L 254.055422 343.340276 
L 256.972321 340.006733 
L 259.889219 339.340024 
L 262.806118 339.173347 
L 265.723017 339.340024 
L 268.639915 339.340024 
L 271.556814 339.340024 
L 274.473713 339.340024 
L 277.390611 339.340024 
L 280.30751 339.340024 
L 283.224409 339.340024 
L 286.141307 339.340024 
L 289.058206 339.340024 
L 291.975105 339.340024 
L 294.892003 339.340024 
L 297.808902 339.173347 
L 300.725801 340.340087 
L 303.642699 342.340213 
L 306.559598 343.006922 
L 309.476497 342.673567 
L 312.393395 350.840749 
L 315.310294 350.674072 
L 318.227193 350.507395 
L 321.144091 349.840686 
L 324.06099 349.507332 
L 326.977889 349.674009 
L 329.894787 349.674009 
L 332.811686 349.674009 
L 335.728585 349.507332 
L 338.645483 349.674009 
L 341.562382 349.674009 
L 344.479281 349.674009 
L 347.396179 349.507332 
L 350.313078 349.674009 
L 353.229977 349.507332 
L 356.146875 349.674009 
L 359.063774 349.674009 
L 361.980673 349.507332 
L 364.897571 349.507332 
L 367.81447 349.674009 
L 370.731369 349.674009 
L 373.648267 351.674135 
L 376.565166 349.674009 
L 379.482065 349.507332 
L 382.398963 349.840686 
L 385.315862 349.507332 
L 388.232761 349.507332 
L 391.149659 349.674009 
L 394.066558 349.674009 
L 396.983457 349.507332 
L 399.900356 349.507332 
L 402.817254 349.674009 
L 405.734153 349.674009 
L 408.651052 349.674009 
L 411.56795 349.674009 
L 414.484849 349.674009 
L 417.401748 349.674009 
L 420.318646 350.007363 
L 423.235545 349.507332 
L 426.152444 349.507332 
L 429.069342 349.674009 
L 431.986241 349.507332 
L 434.90314 349.840686 
L 437.820038 349.674009 
L 440.736937 349.674009 
L 443.653836 349.674009 
L 446.570734 349.674009 
L 449.487633 349.674009 
L 452.404532 349.674009 
L 455.32143 349.840686 
L 458.238329 349.674009 
L 461.155228 350.007363 
L 464.072126 349.674009 
L 466.989025 350.007363 
L 469.905924 349.840686 
L 472.822822 349.507332 
L 475.739721 349.674009 
L 478.65662 350.007363 
L 481.573518 349.674009 
L 484.490417 349.507332 
L 487.407316 349.674009 
" style="fill:none;stroke:#bcbd22;stroke-linecap:square;stroke-width:1.5;"/>
   </g>
   <g id="line2d_23">
    <path clip-path="url(#p874397f942)" d="M 178.017707 350.840749 
L 180.934606 347.507206 
L 183.851505 339.506701 
L 186.768403 300.170887 
L 189.685302 252.501214 
L 192.602201 226.332897 
L 195.519099 214.33214 
L 198.435998 211.331951 
L 201.352897 286.170004 
L 204.269795 262.335167 
L 207.186694 254.668017 
L 210.103593 254.668017 
L 213.020491 254.668017 
L 215.93739 254.668017 
L 218.854289 254.668017 
L 221.771187 254.668017 
L 224.688086 254.668017 
L 227.604985 254.668017 
L 230.521883 254.668017 
L 233.438782 254.834694 
L 236.355681 255.66808 
L 239.272579 275.335987 
L 242.189478 275.335987 
L 245.106377 334.506386 
L 248.023275 352.007489 
L 250.940174 295.83728 
L 253.857073 286.336681 
L 256.773971 242.333906 
L 259.69087 242.333906 
L 262.607769 242.333906 
L 265.524667 242.333906 
L 268.441566 242.333906 
L 271.358465 242.333906 
L 274.275363 242.333906 
L 277.192262 242.000551 
L 280.109161 242.333906 
L 283.026059 242.333906 
L 285.942958 242.333906 
L 288.859857 242.500583 
L 291.776755 242.333906 
L 294.693654 242.333906 
L 297.610553 242.333906 
L 300.527452 242.333906 
L 303.44435 249.000993 
L 306.361249 294.170508 
L 309.278148 283.003137 
L 312.195046 340.673441 
L 315.111945 348.007237 
L 318.028844 349.0073 
L 320.945742 349.340655 
L 323.862641 349.674009 
L 326.77954 349.340655 
L 329.696438 349.507332 
L 332.613337 349.340655 
L 335.530236 349.340655 
L 338.447134 349.340655 
L 341.364033 349.340655 
L 344.280932 349.173977 
L 347.19783 349.340655 
L 350.114729 349.340655 
L 353.031628 349.173977 
L 355.948526 349.173977 
L 358.865425 349.340655 
L 361.782324 349.173977 
L 364.699222 349.674009 
L 367.616121 349.340655 
L 370.53302 349.173977 
L 373.449918 352.007489 
L 376.366817 349.674009 
L 379.283716 349.674009 
L 382.200614 349.674009 
L 385.117513 349.507332 
L 388.034412 349.674009 
L 390.95131 349.507332 
L 393.868209 349.674009 
L 396.785108 350.007363 
L 399.702006 349.507332 
L 402.618905 349.507332 
L 405.535804 349.674009 
L 408.452702 349.507332 
L 411.369601 349.674009 
L 414.2865 349.674009 
L 417.203398 349.507332 
L 420.120297 349.674009 
L 423.037196 349.840686 
L 425.954094 350.007363 
L 428.870993 349.674009 
L 431.787892 349.507332 
L 434.70479 349.340655 
L 437.621689 349.173977 
L 440.538588 349.674009 
L 443.455487 349.674009 
L 446.372385 349.674009 
L 449.289284 349.674009 
L 452.206183 349.674009 
L 455.123081 349.674009 
L 458.03998 349.674009 
L 460.956879 349.674009 
L 463.873777 349.674009 
L 466.790676 349.507332 
L 469.707575 349.674009 
L 472.624473 349.674009 
L 475.541372 349.840686 
L 478.458271 349.840686 
L 481.375169 349.507332 
L 484.292068 349.674009 
L 487.208967 349.674009 
L 490.125865 349.674009 
L 493.042764 352.007489 
L 495.959663 349.674009 
L 498.876561 349.340655 
L 501.79346 349.173977 
L 504.710359 349.173977 
L 507.627257 349.340655 
L 510.544156 349.340655 
L 513.461055 349.340655 
L 516.377953 349.340655 
" style="fill:none;stroke:#17becf;stroke-linecap:square;stroke-width:1.5;"/>
   </g>
   <g id="line2d_24">
    <path clip-path="url(#p874397f942)" d="M 172.288918 343.506953 
L 175.205817 266.835451 
L 178.122716 242.500583 
L 181.039614 240.33378 
L 183.956513 279.002885 
L 186.873412 275.002633 
L 189.79031 275.335987 
L 192.707209 275.335987 
L 195.624108 275.335987 
L 198.541006 275.335987 
L 201.457905 282.169752 
L 204.374804 287.00339 
L 207.291702 287.00339 
L 210.208601 287.00339 
L 213.1255 301.337627 
L 216.042398 301.337627 
L 218.959297 301.337627 
L 221.876196 302.671045 
L 224.793094 318.005345 
L 227.709993 318.005345 
L 230.626892 328.672684 
L 233.54379 333.673 
L 236.460689 351.840812 
L 239.377588 351.674135 
L 242.294486 317.171959 
L 245.211385 312.838352 
L 248.128284 283.836523 
L 251.045182 318.338699 
L 253.962081 283.003137 
L 256.87898 249.334347 
L 259.795878 249.334347 
L 262.712777 249.334347 
L 265.629676 249.334347 
L 268.546574 249.334347 
L 271.463473 249.334347 
L 274.380372 249.334347 
L 277.29727 249.501024 
L 280.214169 249.501024 
L 283.131068 249.501024 
L 286.047966 249.334347 
L 288.964865 249.334347 
L 291.881764 249.334347 
L 294.798663 249.334347 
L 297.715561 255.501403 
L 300.63246 249.334347 
L 303.549359 280.50298 
L 306.466257 280.669657 
L 309.383156 287.00339 
L 312.300055 343.840308 
L 315.216953 348.507269 
L 318.133852 349.0073 
L 321.050751 349.173977 
L 323.967649 349.340655 
L 326.884548 349.674009 
L 329.801447 349.507332 
L 332.718345 349.840686 
L 335.635244 350.007363 
L 338.552143 349.507332 
L 341.469041 350.007363 
L 344.38594 349.840686 
L 347.302839 349.507332 
L 350.219737 349.674009 
L 353.136636 349.674009 
L 356.053535 350.007363 
L 358.970433 349.840686 
L 361.887332 350.007363 
L 364.804231 349.674009 
L 367.721129 349.674009 
L 370.638028 350.007363 
L 373.554927 352.007489 
L 376.471825 349.340655 
L 379.388724 349.507332 
L 382.305623 349.507332 
L 385.222521 350.007363 
L 388.13942 349.507332 
L 391.056319 349.507332 
L 393.973217 349.674009 
L 396.890116 350.007363 
L 399.807015 349.674009 
L 402.723913 349.674009 
L 405.640812 349.674009 
L 408.557711 349.507332 
L 411.474609 349.674009 
L 414.391508 349.507332 
L 417.308407 349.674009 
L 420.225305 349.674009 
L 423.142204 349.507332 
L 426.059103 349.674009 
L 428.976001 349.507332 
L 431.8929 349.674009 
L 434.809799 349.840686 
L 437.726698 349.840686 
L 440.643596 349.674009 
L 443.560495 349.674009 
L 446.477394 349.674009 
L 449.394292 349.674009 
L 452.311191 349.507332 
L 455.22809 349.674009 
L 458.144988 349.674009 
L 461.061887 349.507332 
L 463.978786 349.674009 
L 466.895684 349.674009 
L 469.812583 349.840686 
L 472.729482 349.674009 
L 475.64638 349.840686 
L 478.563279 349.674009 
L 481.480178 349.674009 
L 484.397076 349.507332 
L 487.313975 349.674009 
L 490.230874 349.674009 
L 493.147772 352.007489 
L 496.064671 349.507332 
L 498.98157 349.674009 
L 501.898468 349.674009 
L 504.815367 349.674009 
L 507.732266 349.674009 
L 510.649164 349.674009 
" style="fill:none;stroke:#1f77b4;stroke-linecap:square;stroke-width:1.5;"/>
   </g>
   <g id="line2d_25">
    <path clip-path="url(#p874397f942)" d="M 183.956513 350.507395 
L 186.873412 345.173725 
L 189.79031 337.673252 
L 192.707209 333.172968 
L 195.624108 330.339456 
L 198.541006 329.006039 
L 201.457905 331.839551 
L 204.374804 338.006606 
L 207.291702 334.339709 
L 210.208601 334.339709 
L 213.1255 334.339709 
L 216.042398 334.339709 
L 218.959297 334.339709 
L 221.876196 334.339709 
L 224.793094 334.339709 
L 227.709993 334.339709 
L 230.626892 334.506386 
L 233.54379 334.339709 
L 236.460689 334.339709 
L 239.377588 334.339709 
L 242.294486 335.006417 
L 245.211385 346.007111 
L 248.128284 352.007489 
L 251.045182 343.340276 
L 253.962081 339.673378 
L 256.87898 333.673 
L 259.795878 333.339645 
L 262.712777 333.673 
L 265.629676 333.673 
L 268.546574 333.673 
L 271.463473 333.673 
L 274.380372 333.673 
L 277.29727 333.673 
L 280.214169 333.673 
L 283.131068 333.506323 
L 286.047966 333.673 
L 288.964865 333.839677 
L 291.881764 333.673 
L 294.798663 333.673 
L 297.715561 333.839677 
L 300.63246 333.673 
L 303.549359 333.673 
L 306.466257 339.840055 
L 309.383156 340.340087 
L 312.300055 350.174041 
L 315.216953 350.840749 
L 318.133852 350.340718 
L 321.050751 349.674009 
L 323.967649 349.507332 
L 326.884548 349.674009 
L 329.801447 349.507332 
L 332.718345 349.507332 
L 335.635244 349.507332 
L 338.552143 349.674009 
L 341.469041 349.674009 
L 344.38594 349.674009 
L 347.302839 349.507332 
L 350.219737 349.674009 
L 353.136636 349.507332 
L 356.053535 349.674009 
L 358.970433 349.674009 
L 361.887332 349.840686 
L 364.804231 349.840686 
L 367.721129 349.840686 
L 370.638028 349.840686 
L 373.554927 352.007489 
L 376.471825 349.340655 
L 379.388724 349.340655 
L 382.305623 349.674009 
L 385.222521 349.674009 
L 388.13942 349.674009 
L 391.056319 349.840686 
L 393.973217 350.007363 
L 396.890116 349.674009 
L 399.807015 349.507332 
L 402.723913 349.507332 
L 405.640812 349.674009 
L 408.557711 350.174041 
L 411.474609 349.507332 
L 414.391508 350.007363 
L 417.308407 349.674009 
L 420.225305 349.507332 
L 423.142204 349.674009 
L 426.059103 349.674009 
L 428.976001 349.674009 
L 431.8929 349.674009 
L 434.809799 349.674009 
L 437.726698 349.674009 
L 440.643596 349.507332 
L 443.560495 349.840686 
L 446.477394 349.674009 
L 449.394292 349.507332 
L 452.311191 349.674009 
L 455.22809 349.674009 
L 458.144988 350.007363 
L 461.061887 349.674009 
L 463.978786 350.007363 
L 466.895684 349.674009 
L 469.812583 349.507332 
L 472.729482 349.674009 
L 475.64638 349.507332 
L 478.563279 349.674009 
L 481.480178 349.674009 
L 484.397076 350.007363 
L 487.313975 349.674009 
L 490.230874 350.007363 
L 493.147772 352.007489 
L 496.064671 349.507332 
L 498.98157 349.674009 
" style="fill:none;stroke:#ff7f0e;stroke-linecap:square;stroke-width:1.5;"/>
   </g>
   <g id="line2d_26">
    <path clip-path="url(#p874397f942)" d="M 149.041236 337.173221 
L 151.958134 338.006606 
L 154.875033 333.172968 
L 157.791932 338.506638 
L 160.70883 338.839992 
L 163.625729 347.173851 
L 166.542628 347.340528 
L 169.459527 348.673946 
L 172.376425 350.007363 
L 175.293324 350.340718 
L 178.210223 350.340718 
L 181.127121 350.340718 
L 184.04402 350.674072 
L 186.960919 350.840749 
L 189.877817 350.840749 
L 192.794716 350.840749 
L 195.711615 351.174104 
L 198.628513 351.174104 
L 201.545412 351.174104 
L 204.462311 351.174104 
L 207.379209 351.840812 
L 210.296108 350.674072 
L 213.213007 350.174041 
L 216.129905 348.507269 
L 219.046804 349.840686 
L 221.963703 349.173977 
L 224.880601 348.173914 
L 227.7975 348.340592 
L 230.714399 348.173914 
L 233.631297 348.007237 
L 236.548196 347.673883 
L 239.465095 348.173914 
L 242.381993 348.173914 
L 245.298892 347.507206 
L 248.215791 350.174041 
L 251.132689 350.674072 
L 254.049588 350.007363 
L 256.966487 348.673946 
L 259.883385 348.507269 
L 262.800284 348.673946 
L 265.717183 348.507269 
L 268.634081 348.673946 
L 271.55098 348.673946 
L 274.467879 348.840623 
L 277.384777 348.673946 
L 280.301676 348.673946 
L 283.218575 348.673946 
L 286.135473 348.507269 
L 289.052372 348.507269 
L 291.969271 348.340592 
L 294.886169 349.0073 
L 297.803068 349.173977 
L 300.719967 349.340655 
L 303.636865 349.173977 
L 306.553764 349.173977 
L 309.470663 350.174041 
L 312.387562 352.007489 
L 315.30446 351.174104 
L 318.221359 350.507395 
L 321.138258 350.174041 
L 324.055156 350.007363 
L 326.972055 350.007363 
L 329.888954 349.674009 
L 332.805852 349.340655 
L 335.722751 349.674009 
L 338.63965 349.674009 
L 341.556548 349.674009 
L 344.473447 349.674009 
L 347.390346 350.007363 
L 350.307244 349.674009 
L 353.224143 349.674009 
L 356.141042 349.674009 
L 359.05794 349.507332 
L 361.974839 349.507332 
L 364.891738 349.840686 
L 367.808636 349.674009 
L 370.725535 349.674009 
L 373.642434 351.340781 
L 376.559332 349.173977 
L 379.476231 349.674009 
L 382.39313 349.674009 
L 385.310028 349.674009 
L 388.226927 349.674009 
L 391.143826 349.507332 
L 394.060724 349.674009 
L 396.977623 349.674009 
L 399.894522 349.674009 
L 402.81142 349.674009 
L 405.728319 349.507332 
L 408.645218 350.007363 
L 411.562116 349.674009 
L 414.479015 349.507332 
L 417.395914 349.674009 
L 420.312812 349.507332 
L 423.229711 349.674009 
L 426.14661 349.507332 
L 429.063508 349.674009 
L 431.980407 349.507332 
L 434.897306 349.507332 
L 437.814204 350.007363 
L 440.731103 349.674009 
L 443.648002 349.674009 
L 446.5649 349.674009 
L 449.481799 349.507332 
L 452.398698 349.840686 
L 455.315597 349.507332 
L 458.232495 350.007363 
L 461.149394 349.674009 
L 464.066293 349.507332 
L 466.983191 349.507332 
L 469.90009 349.674009 
L 472.816989 349.507332 
L 475.733887 349.674009 
" style="fill:none;stroke:#2ca02c;stroke-linecap:square;stroke-width:1.5;"/>
   </g>
   <g id="line2d_27">
    <path clip-path="url(#p874397f942)" d="M 178.116882 350.840749 
L 181.03378 347.507206 
L 183.950679 339.173347 
L 186.867578 300.504241 
L 189.784476 251.834505 
L 192.701375 224.832802 
L 195.618274 212.832045 
L 198.535172 209.998533 
L 201.452071 290.336933 
L 204.36897 256.001434 
L 207.285869 253.667954 
L 210.202767 253.667954 
L 213.119666 253.667954 
L 216.036565 253.667954 
L 218.953463 253.667954 
L 221.870362 253.667954 
L 224.787261 253.667954 
L 227.704159 253.667954 
L 230.621058 253.667954 
L 233.537957 253.667954 
L 236.454855 256.001434 
L 239.371754 275.335987 
L 242.288653 275.335987 
L 245.205551 328.506007 
L 248.12245 352.007489 
L 251.039349 297.504052 
L 253.956247 277.502791 
L 256.873146 245.834127 
L 259.790045 245.667449 
L 262.706943 245.667449 
L 265.623842 245.667449 
L 268.540741 245.667449 
L 271.457639 245.667449 
L 274.374538 245.667449 
L 277.291437 245.667449 
L 280.208335 245.667449 
L 283.125234 245.667449 
L 286.042133 245.667449 
L 288.959031 245.667449 
L 291.87593 245.667449 
L 294.792829 245.667449 
L 297.709727 245.667449 
L 300.626626 245.667449 
L 303.543525 255.001371 
L 306.460423 300.00421 
L 309.377322 282.83646 
L 312.294221 340.340087 
L 315.211119 348.007237 
L 318.128018 349.0073 
L 321.044917 349.340655 
L 323.961815 349.340655 
L 326.878714 349.507332 
L 329.795613 349.340655 
L 332.712511 349.340655 
L 335.62941 349.340655 
L 338.546309 349.674009 
L 341.463207 349.507332 
L 344.380106 349.340655 
L 347.297005 349.507332 
L 350.213904 349.674009 
L 353.130802 349.507332 
L 356.047701 349.674009 
L 358.9646 349.674009 
L 361.881498 349.674009 
L 364.798397 349.674009 
L 367.715296 349.674009 
L 370.632194 349.674009 
L 373.549093 352.007489 
L 376.465992 349.674009 
L 379.38289 349.674009 
L 382.299789 349.674009 
L 385.216688 349.840686 
L 388.133586 349.840686 
L 391.050485 349.507332 
L 393.967384 349.674009 
L 396.884282 349.507332 
L 399.801181 349.674009 
L 402.71808 349.507332 
L 405.634978 349.674009 
L 408.551877 349.507332 
L 411.468776 349.674009 
L 414.385674 349.507332 
L 417.302573 349.674009 
L 420.219472 349.674009 
L 423.13637 349.674009 
L 426.053269 349.674009 
L 428.970168 349.507332 
L 431.887066 349.507332 
L 434.803965 349.840686 
L 437.720864 349.507332 
L 440.637762 349.507332 
L 443.554661 349.507332 
L 446.47156 349.507332 
L 449.388458 349.674009 
L 452.305357 350.007363 
L 455.222256 349.674009 
L 458.139154 349.674009 
L 461.056053 349.674009 
L 463.972952 349.674009 
L 466.88985 349.507332 
L 469.806749 349.674009 
L 472.723648 350.007363 
L 475.640546 349.674009 
L 478.557445 349.507332 
L 481.474344 349.507332 
L 484.391242 349.674009 
L 487.308141 350.007363 
L 490.22504 349.507332 
L 493.141939 352.007489 
L 496.058837 349.674009 
L 498.975736 349.674009 
L 501.892635 349.507332 
L 504.809533 350.007363 
L 507.726432 349.674009 
L 510.643331 350.007363 
L 513.560229 349.340655 
L 516.477128 349.340655 
" style="fill:none;stroke:#d62728;stroke-linecap:square;stroke-width:1.5;"/>
   </g>
   <g id="line2d_28">
    <path clip-path="url(#p874397f942)" d="M 195.653277 351.507458 
L 198.570175 350.507395 
L 201.487074 349.0073 
L 204.403973 346.507143 
L 207.320871 338.506638 
L 210.23777 328.672684 
L 213.154669 320.338826 
L 216.071567 313.171707 
L 218.988466 304.671171 
L 221.905365 301.837659 
L 224.822263 296.503989 
L 227.739162 291.670351 
L 230.656061 289.836902 
L 233.572959 286.170004 
L 236.489858 285.669972 
L 239.406757 282.669783 
L 242.323655 281.336366 
L 245.240554 276.669405 
L 248.157453 331.506196 
L 251.074351 330.839488 
L 253.99125 317.005282 
L 256.908149 307.338006 
L 259.825047 307.338006 
L 262.741946 307.338006 
L 265.658845 307.338006 
L 268.575743 307.338006 
L 271.492642 307.171328 
L 274.409541 307.338006 
L 277.326439 307.338006 
L 280.243338 307.338006 
L 283.160237 307.338006 
L 286.077135 307.338006 
L 288.994034 307.838037 
L 291.910933 307.67136 
L 294.827831 307.67136 
L 297.74473 308.171391 
L 300.661629 307.67136 
L 303.578528 320.338826 
L 306.495426 320.338826 
L 309.412325 323.839046 
L 312.329224 347.173851 
L 315.246122 349.840686 
L 318.163021 349.674009 
L 321.07992 349.840686 
L 323.996818 349.674009 
L 326.913717 349.840686 
L 329.830616 349.674009 
L 332.747514 349.507332 
L 335.664413 349.674009 
L 338.581312 349.507332 
L 341.49821 349.674009 
L 344.415109 349.674009 
L 347.332008 349.674009 
L 350.248906 349.674009 
L 353.165805 349.674009 
L 356.082704 349.674009 
L 358.999602 349.674009 
L 361.916501 349.507332 
L 364.8334 349.840686 
L 367.750298 349.674009 
L 370.667197 349.507332 
L 373.584096 352.007489 
L 376.500994 349.340655 
L 379.417893 349.507332 
L 382.334792 349.674009 
L 385.25169 349.507332 
L 388.168589 349.840686 
L 391.085488 349.507332 
L 394.002386 349.840686 
L 396.919285 349.674009 
L 399.836184 349.840686 
L 402.753082 349.507332 
L 405.669981 349.674009 
L 408.58688 349.674009 
L 411.503778 350.007363 
L 414.420677 349.507332 
L 417.337576 350.007363 
L 420.254474 349.507332 
L 423.171373 349.674009 
L 426.088272 349.674009 
L 429.00517 350.007363 
L 431.922069 349.674009 
L 434.838968 349.507332 
L 437.755866 349.674009 
L 440.672765 349.507332 
L 443.589664 349.674009 
L 446.506563 349.507332 
L 449.423461 349.674009 
L 452.34036 349.674009 
L 455.257259 349.674009 
L 458.174157 349.507332 
L 461.091056 349.507332 
L 464.007955 349.674009 
L 466.924853 349.507332 
L 469.841752 349.507332 
L 472.758651 349.840686 
L 475.675549 349.674009 
L 478.592448 349.507332 
L 481.509347 349.507332 
L 484.426245 349.507332 
L 487.343144 349.674009 
L 490.260043 349.674009 
L 493.176941 352.007489 
L 496.09384 349.340655 
L 499.010739 349.840686 
L 501.927637 349.674009 
L 504.844536 349.674009 
L 507.761435 350.007363 
L 510.678333 349.674009 
L 513.595232 349.173977 
L 516.512131 349.340655 
" style="fill:none;stroke:#9467bd;stroke-linecap:square;stroke-width:1.5;"/>
   </g>
   <g id="line2d_29">
    <path clip-path="url(#p874397f942)" d="M 183.985682 350.507395 
L 186.902581 345.173725 
L 189.819479 337.506575 
L 192.736378 332.50626 
L 195.653277 329.50607 
L 198.570175 328.172653 
L 201.487074 327.672621 
L 204.403973 324.005723 
L 207.320871 318.672054 
L 210.23777 317.671991 
L 213.154669 317.671991 
L 216.071567 319.005408 
L 218.988466 330.506133 
L 221.905365 333.506323 
L 224.822263 333.006291 
L 227.739162 332.672937 
L 230.656061 332.006228 
L 233.572959 331.172842 
L 236.489858 331.006165 
L 239.406757 331.506196 
L 242.323655 333.172968 
L 245.240554 344.507016 
L 248.157453 352.007489 
L 251.074351 336.00648 
L 253.99125 326.505881 
L 256.908149 319.672117 
L 259.825047 319.672117 
L 262.741946 319.672117 
L 265.658845 319.672117 
L 268.575743 319.672117 
L 271.492642 319.672117 
L 274.409541 319.672117 
L 277.326439 319.672117 
L 280.243338 319.672117 
L 283.160237 319.672117 
L 286.077135 319.672117 
L 288.994034 319.672117 
L 291.910933 319.672117 
L 294.827831 319.672117 
L 297.74473 320.005471 
L 300.661629 319.838794 
L 303.578528 319.672117 
L 306.495426 332.339582 
L 309.412325 329.839425 
L 312.329224 348.507269 
L 315.246122 349.840686 
L 318.163021 349.840686 
L 321.07992 349.840686 
L 323.996818 349.507332 
L 326.913717 349.674009 
L 329.830616 349.674009 
L 332.747514 349.507332 
L 335.664413 349.674009 
L 338.581312 350.007363 
L 341.49821 349.674009 
L 344.415109 349.507332 
L 347.332008 349.674009 
L 350.248906 349.507332 
L 353.165805 349.674009 
L 356.082704 349.674009 
L 358.999602 349.840686 
L 361.916501 349.507332 
L 364.8334 349.674009 
L 367.750298 349.674009 
L 370.667197 349.674009 
L 373.584096 351.674135 
L 376.500994 349.674009 
L 379.417893 349.674009 
L 382.334792 349.674009 
L 385.25169 349.674009 
L 388.168589 349.674009 
L 391.085488 349.507332 
L 394.002386 349.674009 
L 396.919285 349.674009 
L 399.836184 349.674009 
L 402.753082 349.674009 
L 405.669981 349.507332 
L 408.58688 349.674009 
L 411.503778 349.674009 
L 414.420677 349.507332 
L 417.337576 349.674009 
L 420.254474 349.674009 
L 423.171373 350.007363 
L 426.088272 349.674009 
L 429.00517 350.007363 
L 431.922069 349.674009 
L 434.838968 349.507332 
L 437.755866 349.674009 
L 440.672765 349.507332 
L 443.589664 349.507332 
L 446.506563 350.007363 
L 449.423461 349.674009 
L 452.34036 350.007363 
L 455.257259 349.674009 
L 458.174157 349.674009 
L 461.091056 349.674009 
L 464.007955 349.507332 
L 466.924853 349.674009 
L 469.841752 349.674009 
L 472.758651 349.507332 
L 475.675549 349.507332 
L 478.592448 349.674009 
L 481.509347 349.674009 
L 484.426245 350.007363 
L 487.343144 349.507332 
L 490.260043 349.674009 
L 493.176941 351.840812 
L 496.09384 349.674009 
L 499.010739 349.674009 
L 501.927637 350.007363 
" style="fill:none;stroke:#8c564b;stroke-linecap:square;stroke-width:1.5;"/>
   </g>
   <g id="patch_3">
    <path d="M 130.230156 352.174167 
L 130.230156 35.0625 
" style="fill:none;stroke:#000000;stroke-linecap:square;stroke-linejoin:miter;stroke-width:0.8;"/>
   </g>
   <g id="patch_4">
    <path d="M 544.073906 352.174167 
L 544.073906 35.0625 
" style="fill:none;stroke:#000000;stroke-linecap:square;stroke-linejoin:miter;stroke-width:0.8;"/>
   </g>
   <g id="patch_5">
    <path d="M 130.230156 352.174167 
L 544.073906 352.174167 
" style="fill:none;stroke:#000000;stroke-linecap:square;stroke-linejoin:miter;stroke-width:0.8;"/>
   </g>
   <g id="patch_6">
    <path d="M 130.230156 35.0625 
L 544.073906 35.0625 
" style="fill:none;stroke:#000000;stroke-linecap:square;stroke-linejoin:miter;stroke-width:0.8;"/>
   </g>
   <g id="legend_1">
    <g id="patch_7">
     <path d="M 566.766094 272.9125 
L 628.298906 272.9125 
Q 630.298906 272.9125 630.298906 270.9125 
L 630.298906 37.0625 
Q 630.298906 35.0625 628.298906 35.0625 
L 566.766094 35.0625 
Q 564.766094 35.0625 564.766094 37.0625 
L 564.766094 270.9125 
Q 564.766094 272.9125 566.766094 272.9125 
z
" style="fill:#ffffff;opacity:0.8;stroke:#cccccc;stroke-linejoin:miter;"/>
    </g>
    <g id="line2d_30">
     <path d="M 568.766094 43.160937 
L 588.766094 43.160937 
" style="fill:none;stroke:#1f77b4;stroke-linecap:square;stroke-width:1.5;"/>
    </g>
    <g id="line2d_31"/>
    <g id="text_15">
     <!-- bbr-pi -->
     <defs>
      <path d="M 41.109375 46.296875 
Q 39.59375 47.171875 37.8125 47.578125 
Q 36.03125 48 33.890625 48 
Q 26.265625 48 22.1875 43.046875 
Q 18.109375 38.09375 18.109375 28.8125 
L 18.109375 0 
L 9.078125 0 
L 9.078125 54.6875 
L 18.109375 54.6875 
L 18.109375 46.1875 
Q 20.953125 51.171875 25.484375 53.578125 
Q 30.03125 56 36.53125 56 
Q 37.453125 56 38.578125 55.875 
Q 39.703125 55.765625 41.0625 55.515625 
z
" id="DejaVuSans-114"/>
      <path d="M 4.890625 31.390625 
L 31.203125 31.390625 
L 31.203125 23.390625 
L 4.890625 23.390625 
z
" id="DejaVuSans-45"/>
      <path d="M 18.109375 8.203125 
L 18.109375 -20.796875 
L 9.078125 -20.796875 
L 9.078125 54.6875 
L 18.109375 54.6875 
L 18.109375 46.390625 
Q 20.953125 51.265625 25.265625 53.625 
Q 29.59375 56 35.59375 56 
Q 45.5625 56 51.78125 48.09375 
Q 58.015625 40.1875 58.015625 27.296875 
Q 58.015625 14.40625 51.78125 6.484375 
Q 45.5625 -1.421875 35.59375 -1.421875 
Q 29.59375 -1.421875 25.265625 0.953125 
Q 20.953125 3.328125 18.109375 8.203125 
z
M 48.6875 27.296875 
Q 48.6875 37.203125 44.609375 42.84375 
Q 40.53125 48.484375 33.40625 48.484375 
Q 26.265625 48.484375 22.1875 42.84375 
Q 18.109375 37.203125 18.109375 27.296875 
Q 18.109375 17.390625 22.1875 11.75 
Q 26.265625 6.109375 33.40625 6.109375 
Q 40.53125 6.109375 44.609375 11.75 
Q 48.6875 17.390625 48.6875 27.296875 
z
" id="DejaVuSans-112"/>
     </defs>
     <g transform="translate(596.766094 46.660937)scale(0.1 -0.1)">
      <use xlink:href="#DejaVuSans-98"/>
      <use x="63.476562" xlink:href="#DejaVuSans-98"/>
      <use x="126.953125" xlink:href="#DejaVuSans-114"/>
      <use x="167.972656" xlink:href="#DejaVuSans-45"/>
      <use x="204.056641" xlink:href="#DejaVuSans-112"/>
      <use x="267.533203" xlink:href="#DejaVuSans-105"/>
     </g>
    </g>
    <g id="line2d_32">
     <path d="M 568.766094 57.839063 
L 588.766094 57.839063 
" style="fill:none;stroke:#ff7f0e;stroke-linecap:square;stroke-width:1.5;"/>
    </g>
    <g id="line2d_33"/>
    <g id="text_16">
     <!-- bbr-pi -->
     <g transform="translate(596.766094 61.339063)scale(0.1 -0.1)">
      <use xlink:href="#DejaVuSans-98"/>
      <use x="63.476562" xlink:href="#DejaVuSans-98"/>
      <use x="126.953125" xlink:href="#DejaVuSans-114"/>
      <use x="167.972656" xlink:href="#DejaVuSans-45"/>
      <use x="204.056641" xlink:href="#DejaVuSans-112"/>
      <use x="267.533203" xlink:href="#DejaVuSans-105"/>
     </g>
    </g>
    <g id="line2d_34">
     <path d="M 568.766094 72.517187 
L 588.766094 72.517187 
" style="fill:none;stroke:#2ca02c;stroke-linecap:square;stroke-width:1.5;"/>
    </g>
    <g id="line2d_35"/>
    <g id="text_17">
     <!-- bbr-pi -->
     <g transform="translate(596.766094 76.017187)scale(0.1 -0.1)">
      <use xlink:href="#DejaVuSans-98"/>
      <use x="63.476562" xlink:href="#DejaVuSans-98"/>
      <use x="126.953125" xlink:href="#DejaVuSans-114"/>
      <use x="167.972656" xlink:href="#DejaVuSans-45"/>
      <use x="204.056641" xlink:href="#DejaVuSans-112"/>
      <use x="267.533203" xlink:href="#DejaVuSans-105"/>
     </g>
    </g>
    <g id="line2d_36">
     <path d="M 568.766094 87.195312 
L 588.766094 87.195312 
" style="fill:none;stroke:#d62728;stroke-linecap:square;stroke-width:1.5;"/>
    </g>
    <g id="line2d_37"/>
    <g id="text_18">
     <!-- bbr-pi -->
     <g transform="translate(596.766094 90.695312)scale(0.1 -0.1)">
      <use xlink:href="#DejaVuSans-98"/>
      <use x="63.476562" xlink:href="#DejaVuSans-98"/>
      <use x="126.953125" xlink:href="#DejaVuSans-114"/>
      <use x="167.972656" xlink:href="#DejaVuSans-45"/>
      <use x="204.056641" xlink:href="#DejaVuSans-112"/>
      <use x="267.533203" xlink:href="#DejaVuSans-105"/>
     </g>
    </g>
    <g id="line2d_38">
     <path d="M 568.766094 101.873438 
L 588.766094 101.873438 
" style="fill:none;stroke:#9467bd;stroke-linecap:square;stroke-width:1.5;"/>
    </g>
    <g id="line2d_39"/>
    <g id="text_19">
     <!-- bbr-pi -->
     <g transform="translate(596.766094 105.373438)scale(0.1 -0.1)">
      <use xlink:href="#DejaVuSans-98"/>
      <use x="63.476562" xlink:href="#DejaVuSans-98"/>
      <use x="126.953125" xlink:href="#DejaVuSans-114"/>
      <use x="167.972656" xlink:href="#DejaVuSans-45"/>
      <use x="204.056641" xlink:href="#DejaVuSans-112"/>
      <use x="267.533203" xlink:href="#DejaVuSans-105"/>
     </g>
    </g>
    <g id="line2d_40">
     <path d="M 568.766094 116.551563 
L 588.766094 116.551563 
" style="fill:none;stroke:#8c564b;stroke-linecap:square;stroke-width:1.5;"/>
    </g>
    <g id="line2d_41"/>
    <g id="text_20">
     <!-- bbr-pi -->
     <g transform="translate(596.766094 120.051563)scale(0.1 -0.1)">
      <use xlink:href="#DejaVuSans-98"/>
      <use x="63.476562" xlink:href="#DejaVuSans-98"/>
      <use x="126.953125" xlink:href="#DejaVuSans-114"/>
      <use x="167.972656" xlink:href="#DejaVuSans-45"/>
      <use x="204.056641" xlink:href="#DejaVuSans-112"/>
      <use x="267.533203" xlink:href="#DejaVuSans-105"/>
     </g>
    </g>
    <g id="line2d_42">
     <path d="M 568.766094 131.229687 
L 588.766094 131.229687 
" style="fill:none;stroke:#e377c2;stroke-linecap:square;stroke-width:1.5;"/>
    </g>
    <g id="line2d_43"/>
    <g id="text_21">
     <!-- bbr-pi -->
     <g transform="translate(596.766094 134.729687)scale(0.1 -0.1)">
      <use xlink:href="#DejaVuSans-98"/>
      <use x="63.476562" xlink:href="#DejaVuSans-98"/>
      <use x="126.953125" xlink:href="#DejaVuSans-114"/>
      <use x="167.972656" xlink:href="#DejaVuSans-45"/>
      <use x="204.056641" xlink:href="#DejaVuSans-112"/>
      <use x="267.533203" xlink:href="#DejaVuSans-105"/>
     </g>
    </g>
    <g id="line2d_44">
     <path d="M 568.766094 145.907812 
L 588.766094 145.907812 
" style="fill:none;stroke:#7f7f7f;stroke-linecap:square;stroke-width:1.5;"/>
    </g>
    <g id="line2d_45"/>
    <g id="text_22">
     <!-- bbr-pi -->
     <g transform="translate(596.766094 149.407812)scale(0.1 -0.1)">
      <use xlink:href="#DejaVuSans-98"/>
      <use x="63.476562" xlink:href="#DejaVuSans-98"/>
      <use x="126.953125" xlink:href="#DejaVuSans-114"/>
      <use x="167.972656" xlink:href="#DejaVuSans-45"/>
      <use x="204.056641" xlink:href="#DejaVuSans-112"/>
      <use x="267.533203" xlink:href="#DejaVuSans-105"/>
     </g>
    </g>
    <g id="line2d_46">
     <path d="M 568.766094 160.585938 
L 588.766094 160.585938 
" style="fill:none;stroke:#bcbd22;stroke-linecap:square;stroke-width:1.5;"/>
    </g>
    <g id="line2d_47"/>
    <g id="text_23">
     <!-- bbr-pi -->
     <g transform="translate(596.766094 164.085938)scale(0.1 -0.1)">
      <use xlink:href="#DejaVuSans-98"/>
      <use x="63.476562" xlink:href="#DejaVuSans-98"/>
      <use x="126.953125" xlink:href="#DejaVuSans-114"/>
      <use x="167.972656" xlink:href="#DejaVuSans-45"/>
      <use x="204.056641" xlink:href="#DejaVuSans-112"/>
      <use x="267.533203" xlink:href="#DejaVuSans-105"/>
     </g>
    </g>
    <g id="line2d_48">
     <path d="M 568.766094 175.264062 
L 588.766094 175.264062 
" style="fill:none;stroke:#17becf;stroke-linecap:square;stroke-width:1.5;"/>
    </g>
    <g id="line2d_49"/>
    <g id="text_24">
     <!-- bbr-pi -->
     <g transform="translate(596.766094 178.764062)scale(0.1 -0.1)">
      <use xlink:href="#DejaVuSans-98"/>
      <use x="63.476562" xlink:href="#DejaVuSans-98"/>
      <use x="126.953125" xlink:href="#DejaVuSans-114"/>
      <use x="167.972656" xlink:href="#DejaVuSans-45"/>
      <use x="204.056641" xlink:href="#DejaVuSans-112"/>
      <use x="267.533203" xlink:href="#DejaVuSans-105"/>
     </g>
    </g>
    <g id="line2d_50">
     <path d="M 568.766094 189.942187 
L 588.766094 189.942187 
" style="fill:none;stroke:#1f77b4;stroke-linecap:square;stroke-width:1.5;"/>
    </g>
    <g id="line2d_51"/>
    <g id="text_25">
     <!-- bbr-pi -->
     <g transform="translate(596.766094 193.442187)scale(0.1 -0.1)">
      <use xlink:href="#DejaVuSans-98"/>
      <use x="63.476562" xlink:href="#DejaVuSans-98"/>
      <use x="126.953125" xlink:href="#DejaVuSans-114"/>
      <use x="167.972656" xlink:href="#DejaVuSans-45"/>
      <use x="204.056641" xlink:href="#DejaVuSans-112"/>
      <use x="267.533203" xlink:href="#DejaVuSans-105"/>
     </g>
    </g>
    <g id="line2d_52">
     <path d="M 568.766094 204.620312 
L 588.766094 204.620312 
" style="fill:none;stroke:#ff7f0e;stroke-linecap:square;stroke-width:1.5;"/>
    </g>
    <g id="line2d_53"/>
    <g id="text_26">
     <!-- bbr-pi -->
     <g transform="translate(596.766094 208.120312)scale(0.1 -0.1)">
      <use xlink:href="#DejaVuSans-98"/>
      <use x="63.476562" xlink:href="#DejaVuSans-98"/>
      <use x="126.953125" xlink:href="#DejaVuSans-114"/>
      <use x="167.972656" xlink:href="#DejaVuSans-45"/>
      <use x="204.056641" xlink:href="#DejaVuSans-112"/>
      <use x="267.533203" xlink:href="#DejaVuSans-105"/>
     </g>
    </g>
    <g id="line2d_54">
     <path d="M 568.766094 219.298437 
L 588.766094 219.298437 
" style="fill:none;stroke:#2ca02c;stroke-linecap:square;stroke-width:1.5;"/>
    </g>
    <g id="line2d_55"/>
    <g id="text_27">
     <!-- bbr-pi -->
     <g transform="translate(596.766094 222.798437)scale(0.1 -0.1)">
      <use xlink:href="#DejaVuSans-98"/>
      <use x="63.476562" xlink:href="#DejaVuSans-98"/>
      <use x="126.953125" xlink:href="#DejaVuSans-114"/>
      <use x="167.972656" xlink:href="#DejaVuSans-45"/>
      <use x="204.056641" xlink:href="#DejaVuSans-112"/>
      <use x="267.533203" xlink:href="#DejaVuSans-105"/>
     </g>
    </g>
    <g id="line2d_56">
     <path d="M 568.766094 233.976562 
L 588.766094 233.976562 
" style="fill:none;stroke:#d62728;stroke-linecap:square;stroke-width:1.5;"/>
    </g>
    <g id="line2d_57"/>
    <g id="text_28">
     <!-- bbr-pi -->
     <g transform="translate(596.766094 237.476562)scale(0.1 -0.1)">
      <use xlink:href="#DejaVuSans-98"/>
      <use x="63.476562" xlink:href="#DejaVuSans-98"/>
      <use x="126.953125" xlink:href="#DejaVuSans-114"/>
      <use x="167.972656" xlink:href="#DejaVuSans-45"/>
      <use x="204.056641" xlink:href="#DejaVuSans-112"/>
      <use x="267.533203" xlink:href="#DejaVuSans-105"/>
     </g>
    </g>
    <g id="line2d_58">
     <path d="M 568.766094 248.654687 
L 588.766094 248.654687 
" style="fill:none;stroke:#9467bd;stroke-linecap:square;stroke-width:1.5;"/>
    </g>
    <g id="line2d_59"/>
    <g id="text_29">
     <!-- bbr-pi -->
     <g transform="translate(596.766094 252.154687)scale(0.1 -0.1)">
      <use xlink:href="#DejaVuSans-98"/>
      <use x="63.476562" xlink:href="#DejaVuSans-98"/>
      <use x="126.953125" xlink:href="#DejaVuSans-114"/>
      <use x="167.972656" xlink:href="#DejaVuSans-45"/>
      <use x="204.056641" xlink:href="#DejaVuSans-112"/>
      <use x="267.533203" xlink:href="#DejaVuSans-105"/>
     </g>
    </g>
    <g id="line2d_60">
     <path d="M 568.766094 263.332812 
L 588.766094 263.332812 
" style="fill:none;stroke:#8c564b;stroke-linecap:square;stroke-width:1.5;"/>
    </g>
    <g id="line2d_61"/>
    <g id="text_30">
     <!-- bbr-pi -->
     <g transform="translate(596.766094 266.832812)scale(0.1 -0.1)">
      <use xlink:href="#DejaVuSans-98"/>
      <use x="63.476562" xlink:href="#DejaVuSans-98"/>
      <use x="126.953125" xlink:href="#DejaVuSans-114"/>
      <use x="167.972656" xlink:href="#DejaVuSans-45"/>
      <use x="204.056641" xlink:href="#DejaVuSans-112"/>
      <use x="267.533203" xlink:href="#DejaVuSans-105"/>
     </g>
    </g>
   </g>
  </g>
  <g id="text_31">
   <!-- 16 inflight -->
   <defs>
    <path id="DejaVuSans-32"/>
   </defs>
   <g transform="translate(311.579063 17.038125)scale(0.12 -0.12)">
    <use xlink:href="#DejaVuSans-49"/>
    <use x="63.623047" xlink:href="#DejaVuSans-54"/>
    <use x="127.246094" xlink:href="#DejaVuSans-32"/>
    <use x="159.033203" xlink:href="#DejaVuSans-105"/>
    <use x="186.816406" xlink:href="#DejaVuSans-110"/>
    <use x="250.195312" xlink:href="#DejaVuSans-102"/>
    <use x="285.400391" xlink:href="#DejaVuSans-108"/>
    <use x="313.183594" xlink:href="#DejaVuSans-105"/>
    <use x="340.966797" xlink:href="#DejaVuSans-103"/>
    <use x="404.443359" xlink:href="#DejaVuSans-104"/>
    <use x="467.822266" xlink:href="#DejaVuSans-116"/>
   </g>
  </g>
 </g>
 <defs>
  <clipPath id="p874397f942">
   <rect height="317.111667" width="413.84375" x="130.230156" y="35.0625"/>
  </clipPath>
 </defs>
</svg>
