<?xml version="1.0" encoding="utf-8" standalone="no"?>
<!DOCTYPE svg PUBLIC "-//W3C//DTD SVG 1.1//EN"
  "http://www.w3.org/Graphics/SVG/1.1/DTD/svg11.dtd">
<!-- Created with matplotlib (https://matplotlib.org/) -->
<svg height="396pt" version="1.1" viewBox="0 0 684 396" width="684pt" xmlns="http://www.w3.org/2000/svg" xmlns:xlink="http://www.w3.org/1999/xlink">
 <defs>
  <style type="text/css">
*{stroke-linecap:butt;stroke-linejoin:round;}
  </style>
 </defs>
 <g id="figure_1">
  <g id="patch_1">
   <path d="M 0 396 
L 684 396 
L 684 0 
L 0 0 
z
" style="fill:#ffffff;"/>
  </g>
  <g id="axes_1">
   <g id="patch_2">
    <path d="M 92.823906 352.174167 
L 544.073906 352.174167 
L 544.073906 35.0625 
L 92.823906 35.0625 
z
" style="fill:#ffffff;"/>
   </g>
   <g id="matplotlib.axis_1">
    <g id="xtick_1">
     <g id="line2d_1">
      <defs>
       <path d="M 0 0 
L 0 3.5 
" id="m9084e5f1fd" style="stroke:#000000;stroke-width:0.8;"/>
      </defs>
      <g>
       <use style="stroke:#000000;stroke-width:0.8;" x="111.178857" xlink:href="#m9084e5f1fd" y="352.174167"/>
      </g>
     </g>
     <g id="text_1">
      <!-- 0 -->
      <defs>
       <path d="M 31.78125 66.40625 
Q 24.171875 66.40625 20.328125 58.90625 
Q 16.5 51.421875 16.5 36.375 
Q 16.5 21.390625 20.328125 13.890625 
Q 24.171875 6.390625 31.78125 6.390625 
Q 39.453125 6.390625 43.28125 13.890625 
Q 47.125 21.390625 47.125 36.375 
Q 47.125 51.421875 43.28125 58.90625 
Q 39.453125 66.40625 31.78125 66.40625 
z
M 31.78125 74.21875 
Q 44.046875 74.21875 50.515625 64.515625 
Q 56.984375 54.828125 56.984375 36.375 
Q 56.984375 17.96875 50.515625 8.265625 
Q 44.046875 -1.421875 31.78125 -1.421875 
Q 19.53125 -1.421875 13.0625 8.265625 
Q 6.59375 17.96875 6.59375 36.375 
Q 6.59375 54.828125 13.0625 64.515625 
Q 19.53125 74.21875 31.78125 74.21875 
z
" id="DejaVuSans-48"/>
      </defs>
      <g transform="translate(107.997607 366.772604)scale(0.1 -0.1)">
       <use xlink:href="#DejaVuSans-48"/>
      </g>
     </g>
    </g>
    <g id="xtick_2">
     <g id="line2d_2">
      <g>
       <use style="stroke:#000000;stroke-width:0.8;" x="174.789847" xlink:href="#m9084e5f1fd" y="352.174167"/>
      </g>
     </g>
     <g id="text_2">
      <!-- 10 -->
      <defs>
       <path d="M 12.40625 8.296875 
L 28.515625 8.296875 
L 28.515625 63.921875 
L 10.984375 60.40625 
L 10.984375 69.390625 
L 28.421875 72.90625 
L 38.28125 72.90625 
L 38.28125 8.296875 
L 54.390625 8.296875 
L 54.390625 0 
L 12.40625 0 
z
" id="DejaVuSans-49"/>
      </defs>
      <g transform="translate(168.427347 366.772604)scale(0.1 -0.1)">
       <use xlink:href="#DejaVuSans-49"/>
       <use x="63.623047" xlink:href="#DejaVuSans-48"/>
      </g>
     </g>
    </g>
    <g id="xtick_3">
     <g id="line2d_3">
      <g>
       <use style="stroke:#000000;stroke-width:0.8;" x="238.400837" xlink:href="#m9084e5f1fd" y="352.174167"/>
      </g>
     </g>
     <g id="text_3">
      <!-- 20 -->
      <defs>
       <path d="M 19.1875 8.296875 
L 53.609375 8.296875 
L 53.609375 0 
L 7.328125 0 
L 7.328125 8.296875 
Q 12.9375 14.109375 22.625 23.890625 
Q 32.328125 33.6875 34.8125 36.53125 
Q 39.546875 41.84375 41.421875 45.53125 
Q 43.3125 49.21875 43.3125 52.78125 
Q 43.3125 58.59375 39.234375 62.25 
Q 35.15625 65.921875 28.609375 65.921875 
Q 23.96875 65.921875 18.8125 64.3125 
Q 13.671875 62.703125 7.8125 59.421875 
L 7.8125 69.390625 
Q 13.765625 71.78125 18.9375 73 
Q 24.125 74.21875 28.421875 74.21875 
Q 39.75 74.21875 46.484375 68.546875 
Q 53.21875 62.890625 53.21875 53.421875 
Q 53.21875 48.921875 51.53125 44.890625 
Q 49.859375 40.875 45.40625 35.40625 
Q 44.1875 33.984375 37.640625 27.21875 
Q 31.109375 20.453125 19.1875 8.296875 
z
" id="DejaVuSans-50"/>
      </defs>
      <g transform="translate(232.038337 366.772604)scale(0.1 -0.1)">
       <use xlink:href="#DejaVuSans-50"/>
       <use x="63.623047" xlink:href="#DejaVuSans-48"/>
      </g>
     </g>
    </g>
    <g id="xtick_4">
     <g id="line2d_4">
      <g>
       <use style="stroke:#000000;stroke-width:0.8;" x="302.011827" xlink:href="#m9084e5f1fd" y="352.174167"/>
      </g>
     </g>
     <g id="text_4">
      <!-- 30 -->
      <defs>
       <path d="M 40.578125 39.3125 
Q 47.65625 37.796875 51.625 33 
Q 55.609375 28.21875 55.609375 21.1875 
Q 55.609375 10.40625 48.1875 4.484375 
Q 40.765625 -1.421875 27.09375 -1.421875 
Q 22.515625 -1.421875 17.65625 -0.515625 
Q 12.796875 0.390625 7.625 2.203125 
L 7.625 11.71875 
Q 11.71875 9.328125 16.59375 8.109375 
Q 21.484375 6.890625 26.8125 6.890625 
Q 36.078125 6.890625 40.9375 10.546875 
Q 45.796875 14.203125 45.796875 21.1875 
Q 45.796875 27.640625 41.28125 31.265625 
Q 36.765625 34.90625 28.71875 34.90625 
L 20.21875 34.90625 
L 20.21875 43.015625 
L 29.109375 43.015625 
Q 36.375 43.015625 40.234375 45.921875 
Q 44.09375 48.828125 44.09375 54.296875 
Q 44.09375 59.90625 40.109375 62.90625 
Q 36.140625 65.921875 28.71875 65.921875 
Q 24.65625 65.921875 20.015625 65.03125 
Q 15.375 64.15625 9.8125 62.3125 
L 9.8125 71.09375 
Q 15.4375 72.65625 20.34375 73.4375 
Q 25.25 74.21875 29.59375 74.21875 
Q 40.828125 74.21875 47.359375 69.109375 
Q 53.90625 64.015625 53.90625 55.328125 
Q 53.90625 49.265625 50.4375 45.09375 
Q 46.96875 40.921875 40.578125 39.3125 
z
" id="DejaVuSans-51"/>
      </defs>
      <g transform="translate(295.649327 366.772604)scale(0.1 -0.1)">
       <use xlink:href="#DejaVuSans-51"/>
       <use x="63.623047" xlink:href="#DejaVuSans-48"/>
      </g>
     </g>
    </g>
    <g id="xtick_5">
     <g id="line2d_5">
      <g>
       <use style="stroke:#000000;stroke-width:0.8;" x="365.622816" xlink:href="#m9084e5f1fd" y="352.174167"/>
      </g>
     </g>
     <g id="text_5">
      <!-- 40 -->
      <defs>
       <path d="M 37.796875 64.3125 
L 12.890625 25.390625 
L 37.796875 25.390625 
z
M 35.203125 72.90625 
L 47.609375 72.90625 
L 47.609375 25.390625 
L 58.015625 25.390625 
L 58.015625 17.1875 
L 47.609375 17.1875 
L 47.609375 0 
L 37.796875 0 
L 37.796875 17.1875 
L 4.890625 17.1875 
L 4.890625 26.703125 
z
" id="DejaVuSans-52"/>
      </defs>
      <g transform="translate(359.260316 366.772604)scale(0.1 -0.1)">
       <use xlink:href="#DejaVuSans-52"/>
       <use x="63.623047" xlink:href="#DejaVuSans-48"/>
      </g>
     </g>
    </g>
    <g id="xtick_6">
     <g id="line2d_6">
      <g>
       <use style="stroke:#000000;stroke-width:0.8;" x="429.233806" xlink:href="#m9084e5f1fd" y="352.174167"/>
      </g>
     </g>
     <g id="text_6">
      <!-- 50 -->
      <defs>
       <path d="M 10.796875 72.90625 
L 49.515625 72.90625 
L 49.515625 64.59375 
L 19.828125 64.59375 
L 19.828125 46.734375 
Q 21.96875 47.46875 24.109375 47.828125 
Q 26.265625 48.1875 28.421875 48.1875 
Q 40.625 48.1875 47.75 41.5 
Q 54.890625 34.8125 54.890625 23.390625 
Q 54.890625 11.625 47.5625 5.09375 
Q 40.234375 -1.421875 26.90625 -1.421875 
Q 22.3125 -1.421875 17.546875 -0.640625 
Q 12.796875 0.140625 7.71875 1.703125 
L 7.71875 11.625 
Q 12.109375 9.234375 16.796875 8.0625 
Q 21.484375 6.890625 26.703125 6.890625 
Q 35.15625 6.890625 40.078125 11.328125 
Q 45.015625 15.765625 45.015625 23.390625 
Q 45.015625 31 40.078125 35.4375 
Q 35.15625 39.890625 26.703125 39.890625 
Q 22.75 39.890625 18.8125 39.015625 
Q 14.890625 38.140625 10.796875 36.28125 
z
" id="DejaVuSans-53"/>
      </defs>
      <g transform="translate(422.871306 366.772604)scale(0.1 -0.1)">
       <use xlink:href="#DejaVuSans-53"/>
       <use x="63.623047" xlink:href="#DejaVuSans-48"/>
      </g>
     </g>
    </g>
    <g id="xtick_7">
     <g id="line2d_7">
      <g>
       <use style="stroke:#000000;stroke-width:0.8;" x="492.844796" xlink:href="#m9084e5f1fd" y="352.174167"/>
      </g>
     </g>
     <g id="text_7">
      <!-- 60 -->
      <defs>
       <path d="M 33.015625 40.375 
Q 26.375 40.375 22.484375 35.828125 
Q 18.609375 31.296875 18.609375 23.390625 
Q 18.609375 15.53125 22.484375 10.953125 
Q 26.375 6.390625 33.015625 6.390625 
Q 39.65625 6.390625 43.53125 10.953125 
Q 47.40625 15.53125 47.40625 23.390625 
Q 47.40625 31.296875 43.53125 35.828125 
Q 39.65625 40.375 33.015625 40.375 
z
M 52.59375 71.296875 
L 52.59375 62.3125 
Q 48.875 64.0625 45.09375 64.984375 
Q 41.3125 65.921875 37.59375 65.921875 
Q 27.828125 65.921875 22.671875 59.328125 
Q 17.53125 52.734375 16.796875 39.40625 
Q 19.671875 43.65625 24.015625 45.921875 
Q 28.375 48.1875 33.59375 48.1875 
Q 44.578125 48.1875 50.953125 41.515625 
Q 57.328125 34.859375 57.328125 23.390625 
Q 57.328125 12.15625 50.6875 5.359375 
Q 44.046875 -1.421875 33.015625 -1.421875 
Q 20.359375 -1.421875 13.671875 8.265625 
Q 6.984375 17.96875 6.984375 36.375 
Q 6.984375 53.65625 15.1875 63.9375 
Q 23.390625 74.21875 37.203125 74.21875 
Q 40.921875 74.21875 44.703125 73.484375 
Q 48.484375 72.75 52.59375 71.296875 
z
" id="DejaVuSans-54"/>
      </defs>
      <g transform="translate(486.482296 366.772604)scale(0.1 -0.1)">
       <use xlink:href="#DejaVuSans-54"/>
       <use x="63.623047" xlink:href="#DejaVuSans-48"/>
      </g>
     </g>
    </g>
   </g>
   <g id="matplotlib.axis_2">
    <g id="ytick_1">
     <g id="line2d_8">
      <defs>
       <path d="M 0 0 
L -3.5 0 
" id="m71a00ceffb" style="stroke:#000000;stroke-width:0.8;"/>
      </defs>
      <g>
       <use style="stroke:#000000;stroke-width:0.8;" x="92.823906" xlink:href="#m71a00ceffb" y="352.174167"/>
      </g>
     </g>
     <g id="text_8">
      <!-- 0 -->
      <g transform="translate(79.461406 355.973385)scale(0.1 -0.1)">
       <use xlink:href="#DejaVuSans-48"/>
      </g>
     </g>
    </g>
    <g id="ytick_2">
     <g id="line2d_9">
      <g>
       <use style="stroke:#000000;stroke-width:0.8;" x="92.823906" xlink:href="#m71a00ceffb" y="286.332139"/>
      </g>
     </g>
     <g id="text_9">
      <!-- 200 -->
      <g transform="translate(66.736406 290.131358)scale(0.1 -0.1)">
       <use xlink:href="#DejaVuSans-50"/>
       <use x="63.623047" xlink:href="#DejaVuSans-48"/>
       <use x="127.246094" xlink:href="#DejaVuSans-48"/>
      </g>
     </g>
    </g>
    <g id="ytick_3">
     <g id="line2d_10">
      <g>
       <use style="stroke:#000000;stroke-width:0.8;" x="92.823906" xlink:href="#m71a00ceffb" y="220.490111"/>
      </g>
     </g>
     <g id="text_10">
      <!-- 400 -->
      <g transform="translate(66.736406 224.28933)scale(0.1 -0.1)">
       <use xlink:href="#DejaVuSans-52"/>
       <use x="63.623047" xlink:href="#DejaVuSans-48"/>
       <use x="127.246094" xlink:href="#DejaVuSans-48"/>
      </g>
     </g>
    </g>
    <g id="ytick_4">
     <g id="line2d_11">
      <g>
       <use style="stroke:#000000;stroke-width:0.8;" x="92.823906" xlink:href="#m71a00ceffb" y="154.648083"/>
      </g>
     </g>
     <g id="text_11">
      <!-- 600 -->
      <g transform="translate(66.736406 158.447302)scale(0.1 -0.1)">
       <use xlink:href="#DejaVuSans-54"/>
       <use x="63.623047" xlink:href="#DejaVuSans-48"/>
       <use x="127.246094" xlink:href="#DejaVuSans-48"/>
      </g>
     </g>
    </g>
    <g id="ytick_5">
     <g id="line2d_12">
      <g>
       <use style="stroke:#000000;stroke-width:0.8;" x="92.823906" xlink:href="#m71a00ceffb" y="88.806055"/>
      </g>
     </g>
     <g id="text_12">
      <!-- 800 -->
      <defs>
       <path d="M 31.78125 34.625 
Q 24.75 34.625 20.71875 30.859375 
Q 16.703125 27.09375 16.703125 20.515625 
Q 16.703125 13.921875 20.71875 10.15625 
Q 24.75 6.390625 31.78125 6.390625 
Q 38.8125 6.390625 42.859375 10.171875 
Q 46.921875 13.96875 46.921875 20.515625 
Q 46.921875 27.09375 42.890625 30.859375 
Q 38.875 34.625 31.78125 34.625 
z
M 21.921875 38.8125 
Q 15.578125 40.375 12.03125 44.71875 
Q 8.5 49.078125 8.5 55.328125 
Q 8.5 64.0625 14.71875 69.140625 
Q 20.953125 74.21875 31.78125 74.21875 
Q 42.671875 74.21875 48.875 69.140625 
Q 55.078125 64.0625 55.078125 55.328125 
Q 55.078125 49.078125 51.53125 44.71875 
Q 48 40.375 41.703125 38.8125 
Q 48.828125 37.15625 52.796875 32.3125 
Q 56.78125 27.484375 56.78125 20.515625 
Q 56.78125 9.90625 50.3125 4.234375 
Q 43.84375 -1.421875 31.78125 -1.421875 
Q 19.734375 -1.421875 13.25 4.234375 
Q 6.78125 9.90625 6.78125 20.515625 
Q 6.78125 27.484375 10.78125 32.3125 
Q 14.796875 37.15625 21.921875 38.8125 
z
M 18.3125 54.390625 
Q 18.3125 48.734375 21.84375 45.5625 
Q 25.390625 42.390625 31.78125 42.390625 
Q 38.140625 42.390625 41.71875 45.5625 
Q 45.3125 48.734375 45.3125 54.390625 
Q 45.3125 60.0625 41.71875 63.234375 
Q 38.140625 66.40625 31.78125 66.40625 
Q 25.390625 66.40625 21.84375 63.234375 
Q 18.3125 60.0625 18.3125 54.390625 
z
" id="DejaVuSans-56"/>
      </defs>
      <g transform="translate(66.736406 92.605274)scale(0.1 -0.1)">
       <use xlink:href="#DejaVuSans-56"/>
       <use x="63.623047" xlink:href="#DejaVuSans-48"/>
       <use x="127.246094" xlink:href="#DejaVuSans-48"/>
      </g>
     </g>
    </g>
    <g id="text_13">
     <!-- rtt -->
     <defs>
      <path d="M 41.109375 46.296875 
Q 39.59375 47.171875 37.8125 47.578125 
Q 36.03125 48 33.890625 48 
Q 26.265625 48 22.1875 43.046875 
Q 18.109375 38.09375 18.109375 28.8125 
L 18.109375 0 
L 9.078125 0 
L 9.078125 54.6875 
L 18.109375 54.6875 
L 18.109375 46.1875 
Q 20.953125 51.171875 25.484375 53.578125 
Q 30.03125 56 36.53125 56 
Q 37.453125 56 38.578125 55.875 
Q 39.703125 55.765625 41.0625 55.515625 
z
" id="DejaVuSans-114"/>
      <path d="M 18.3125 70.21875 
L 18.3125 54.6875 
L 36.8125 54.6875 
L 36.8125 47.703125 
L 18.3125 47.703125 
L 18.3125 18.015625 
Q 18.3125 11.328125 20.140625 9.421875 
Q 21.96875 7.515625 27.59375 7.515625 
L 36.8125 7.515625 
L 36.8125 0 
L 27.59375 0 
Q 17.1875 0 13.234375 3.875 
Q 9.28125 7.765625 9.28125 18.015625 
L 9.28125 47.703125 
L 2.6875 47.703125 
L 2.6875 54.6875 
L 9.28125 54.6875 
L 9.28125 70.21875 
z
" id="DejaVuSans-116"/>
     </defs>
     <g transform="translate(49.458906 199.594115)rotate(-90)scale(0.1 -0.1)">
      <use xlink:href="#DejaVuSans-114"/>
      <use x="41.113281" xlink:href="#DejaVuSans-116"/>
      <use x="80.322266" xlink:href="#DejaVuSans-116"/>
     </g>
     <!-- (ms) -->
     <defs>
      <path d="M 31 75.875 
Q 24.46875 64.65625 21.28125 53.65625 
Q 18.109375 42.671875 18.109375 31.390625 
Q 18.109375 20.125 21.3125 9.0625 
Q 24.515625 -2 31 -13.1875 
L 23.1875 -13.1875 
Q 15.875 -1.703125 12.234375 9.375 
Q 8.59375 20.453125 8.59375 31.390625 
Q 8.59375 42.28125 12.203125 53.3125 
Q 15.828125 64.359375 23.1875 75.875 
z
" id="DejaVuSans-40"/>
      <path d="M 52 44.1875 
Q 55.375 50.25 60.0625 53.125 
Q 64.75 56 71.09375 56 
Q 79.640625 56 84.28125 50.015625 
Q 88.921875 44.046875 88.921875 33.015625 
L 88.921875 0 
L 79.890625 0 
L 79.890625 32.71875 
Q 79.890625 40.578125 77.09375 44.375 
Q 74.3125 48.1875 68.609375 48.1875 
Q 61.625 48.1875 57.5625 43.546875 
Q 53.515625 38.921875 53.515625 30.90625 
L 53.515625 0 
L 44.484375 0 
L 44.484375 32.71875 
Q 44.484375 40.625 41.703125 44.40625 
Q 38.921875 48.1875 33.109375 48.1875 
Q 26.21875 48.1875 22.15625 43.53125 
Q 18.109375 38.875 18.109375 30.90625 
L 18.109375 0 
L 9.078125 0 
L 9.078125 54.6875 
L 18.109375 54.6875 
L 18.109375 46.1875 
Q 21.1875 51.21875 25.484375 53.609375 
Q 29.78125 56 35.6875 56 
Q 41.65625 56 45.828125 52.96875 
Q 50 49.953125 52 44.1875 
z
" id="DejaVuSans-109"/>
      <path d="M 44.28125 53.078125 
L 44.28125 44.578125 
Q 40.484375 46.53125 36.375 47.5 
Q 32.28125 48.484375 27.875 48.484375 
Q 21.1875 48.484375 17.84375 46.4375 
Q 14.5 44.390625 14.5 40.28125 
Q 14.5 37.15625 16.890625 35.375 
Q 19.28125 33.59375 26.515625 31.984375 
L 29.59375 31.296875 
Q 39.15625 29.25 43.1875 25.515625 
Q 47.21875 21.78125 47.21875 15.09375 
Q 47.21875 7.46875 41.1875 3.015625 
Q 35.15625 -1.421875 24.609375 -1.421875 
Q 20.21875 -1.421875 15.453125 -0.5625 
Q 10.6875 0.296875 5.421875 2 
L 5.421875 11.28125 
Q 10.40625 8.6875 15.234375 7.390625 
Q 20.0625 6.109375 24.8125 6.109375 
Q 31.15625 6.109375 34.5625 8.28125 
Q 37.984375 10.453125 37.984375 14.40625 
Q 37.984375 18.0625 35.515625 20.015625 
Q 33.0625 21.96875 24.703125 23.78125 
L 21.578125 24.515625 
Q 13.234375 26.265625 9.515625 29.90625 
Q 5.8125 33.546875 5.8125 39.890625 
Q 5.8125 47.609375 11.28125 51.796875 
Q 16.75 56 26.8125 56 
Q 31.78125 56 36.171875 55.265625 
Q 40.578125 54.546875 44.28125 53.078125 
z
" id="DejaVuSans-115"/>
      <path d="M 8.015625 75.875 
L 15.828125 75.875 
Q 23.140625 64.359375 26.78125 53.3125 
Q 30.421875 42.28125 30.421875 31.390625 
Q 30.421875 20.453125 26.78125 9.375 
Q 23.140625 -1.703125 15.828125 -13.1875 
L 8.015625 -13.1875 
Q 14.5 -2 17.703125 9.0625 
Q 20.90625 20.125 20.90625 31.390625 
Q 20.90625 42.671875 17.703125 53.65625 
Q 14.5 64.65625 8.015625 75.875 
z
" id="DejaVuSans-41"/>
     </defs>
     <g transform="translate(60.656719 204.994896)rotate(-90)scale(0.1 -0.1)">
      <use xlink:href="#DejaVuSans-40"/>
      <use x="39.013672" xlink:href="#DejaVuSans-109"/>
      <use x="136.425781" xlink:href="#DejaVuSans-115"/>
      <use x="188.525391" xlink:href="#DejaVuSans-41"/>
     </g>
    </g>
   </g>
   <g id="line2d_13">
    <path clip-path="url(#p0722cafc3b)" d="M 119.70273 339.334971 
L 122.883279 343.285493 
L 126.063829 336.04287 
L 129.244378 331.433928 
L 132.424928 332.092348 
L 135.605477 313.32737 
L 138.786027 317.936312 
L 141.966576 310.364479 
L 145.147126 273.163733 
L 148.327675 261.970589 
L 151.508225 272.176103 
L 154.688774 280.735566 
L 157.869324 258.349277 
L 161.049873 240.90114 
L 164.230423 223.782212 
L 167.410972 217.85643 
L 170.591522 211.272227 
L 173.772071 238.267458 
L 176.952621 227.732734 
L 180.13317 200.408292 
L 183.31372 161.232286 
L 186.494269 189.215148 
L 189.674819 190.202778 
L 192.855368 98.023939 
L 196.035918 110.204714 
L 199.216467 85.184744 
L 202.397017 86.830794 
L 205.577566 76.29607 
L 208.758116 70.699498 
L 211.938665 66.090556 
L 215.119215 73.333179 
L 218.299764 76.29607 
L 221.480314 115.472077 
L 224.660863 229.707995 
L 227.841412 265.92111 
L 231.021962 195.47014 
L 234.202511 122.056279 
L 237.383061 60.493983 
L 240.56361 55.885041 
L 243.74416 55.226621 
L 246.924709 56.543462 
L 250.105259 56.543462 
L 253.285808 62.469244 
L 256.466358 74.650019 
L 259.646907 76.62528 
L 262.827457 78.600541 
L 266.008006 75.63765 
L 269.188556 79.258961 
L 272.369105 111.192345 
L 275.549655 123.04391 
L 278.730204 121.397859 
L 281.910754 112.838395 
L 285.091303 119.751808 
L 288.271853 157.610974 
L 291.452402 186.581467 
L 294.632952 342.297862 
L 297.813501 339.005761 
L 300.994051 339.334971 
L 304.1746 339.005761 
L 307.35515 339.334971 
L 310.535699 339.334971 
L 313.716249 339.005761 
L 316.896798 339.334971 
L 320.077348 339.005761 
L 323.257897 339.005761 
L 326.438447 339.334971 
L 329.618996 339.334971 
L 332.799546 339.334971 
L 335.980095 339.334971 
L 339.160645 339.334971 
L 342.341194 339.334971 
L 345.521743 339.005761 
L 348.702293 339.005761 
L 351.882842 339.334971 
L 355.063392 339.334971 
L 358.243941 343.943913 
L 361.424491 341.310232 
L 364.60504 339.005761 
L 367.78559 339.334971 
L 370.966139 339.334971 
L 374.146689 339.334971 
L 377.327238 339.334971 
L 380.507788 339.334971 
L 383.688337 339.005761 
L 386.868887 339.334971 
L 390.049436 339.005761 
L 393.229986 339.334971 
L 396.410535 339.334971 
L 399.591085 339.334971 
L 402.771634 339.334971 
L 405.952184 339.334971 
L 409.132733 339.005761 
L 412.313283 339.334971 
L 415.493832 339.334971 
L 418.674382 339.334971 
L 421.854931 339.334971 
L 425.035481 345.260754 
L 428.21603 338.676551 
L 431.39658 339.005761 
L 434.577129 339.334971 
L 437.757679 339.334971 
L 440.938228 339.334971 
L 444.118778 339.334971 
L 447.299327 339.334971 
L 450.479877 339.334971 
L 453.660426 339.334971 
L 456.840975 339.334971 
L 460.021525 339.334971 
L 463.202074 339.334971 
L 466.382624 339.334971 
" style="fill:none;stroke:#1f77b4;stroke-linecap:square;stroke-width:1.5;"/>
   </g>
   <g id="line2d_14">
    <path clip-path="url(#p0722cafc3b)" d="M 126.063829 330.775508 
L 129.244378 331.763138 
L 132.424928 331.433928 
L 135.605477 312.99816 
L 138.786027 317.277892 
L 141.966576 309.706059 
L 145.147126 271.846893 
L 148.327675 259.007697 
L 151.508225 272.834523 
L 154.688774 276.785045 
L 157.869324 256.374016 
L 161.049873 237.938248 
L 164.230423 216.868799 
L 167.410972 207.650916 
L 170.591522 200.079082 
L 173.772071 225.099053 
L 176.952621 224.111422 
L 180.13317 194.81172 
L 183.31372 155.306503 
L 186.494269 212.589068 
L 189.674819 135.883105 
L 192.855368 135.883105 
L 196.035918 150.697561 
L 199.216467 91.110526 
L 202.397017 68.724237 
L 205.577566 69.711867 
L 208.758116 69.711867 
L 211.938665 63.786085 
L 215.119215 69.382657 
L 218.299764 77.2837 
L 221.480314 118.105758 
L 224.660863 219.502481 
L 227.841412 266.25032 
L 231.021962 194.81172 
L 234.202511 118.764178 
L 237.383061 60.823193 
L 240.56361 56.543462 
L 243.74416 54.568201 
L 246.924709 56.543462 
L 250.105259 54.568201 
L 253.285808 61.810824 
L 256.466358 71.357918 
L 259.646907 74.979229 
L 262.827457 77.612911 
L 266.008006 74.979229 
L 269.188556 76.95449 
L 272.369105 104.278932 
L 275.549655 120.081018 
L 278.730204 116.459707 
L 281.910754 111.521555 
L 285.091303 115.472077 
L 288.271853 154.318873 
L 291.452402 171.76701 
L 294.632952 344.273123 
L 297.813501 339.334971 
L 300.994051 339.334971 
L 304.1746 339.005761 
L 307.35515 339.334971 
L 310.535699 339.005761 
L 313.716249 339.005761 
L 316.896798 339.334971 
L 320.077348 339.334971 
L 323.257897 339.005761 
L 326.438447 339.005761 
L 329.618996 339.005761 
L 332.799546 339.005761 
L 335.980095 339.334971 
L 339.160645 339.334971 
L 342.341194 339.005761 
L 345.521743 339.334971 
L 348.702293 339.334971 
L 351.882842 339.334971 
L 355.063392 339.334971 
L 358.243941 343.614703 
L 361.424491 341.310232 
L 364.60504 339.005761 
L 367.78559 339.334971 
L 370.966139 339.334971 
L 374.146689 339.005761 
L 377.327238 339.334971 
L 380.507788 339.334971 
L 383.688337 339.334971 
L 386.868887 339.334971 
L 390.049436 339.334971 
L 393.229986 339.334971 
L 396.410535 339.334971 
L 399.591085 339.334971 
L 402.771634 339.334971 
L 405.952184 339.334971 
L 409.132733 339.334971 
L 412.313283 339.334971 
L 415.493832 339.005761 
L 418.674382 339.334971 
L 421.854931 339.005761 
L 425.035481 345.919174 
L 428.21603 338.676551 
L 431.39658 339.334971 
L 434.577129 339.334971 
L 437.757679 339.664181 
L 440.938228 339.334971 
L 444.118778 339.334971 
L 447.299327 339.664181 
L 450.479877 339.664181 
L 453.660426 339.664181 
L 456.840975 339.334971 
L 460.021525 339.334971 
L 463.202074 339.334971 
L 466.382624 339.664181 
L 469.563173 339.334971 
L 472.743723 339.334971 
" style="fill:none;stroke:#ff7f0e;stroke-linecap:square;stroke-width:1.5;"/>
   </g>
   <g id="line2d_15">
    <path clip-path="url(#p0722cafc3b)" d="M 157.767546 239.913509 
L 160.948096 241.23035 
L 164.128645 217.19801 
L 167.309195 202.054343 
L 170.489744 193.165669 
L 173.670294 219.831691 
L 176.850843 221.806952 
L 180.031393 191.519619 
L 183.211942 164.195177 
L 186.392492 135.883105 
L 189.573041 117.776547 
L 192.753591 100.32841 
L 195.93414 85.843164 
L 199.11469 77.942121 
L 202.295239 75.96686 
L 205.475789 67.736606 
L 208.656338 60.823193 
L 211.836887 59.506353 
L 215.017437 66.419766 
L 218.197986 72.016338 
L 221.378536 91.110526 
L 224.559085 188.885938 
L 227.739635 251.435864 
L 230.920184 198.433032 
L 234.100734 124.68996 
L 237.281283 62.469244 
L 240.461833 49.959259 
L 243.642382 49.959259 
L 246.822932 49.959259 
L 250.003481 50.288469 
L 253.184031 54.568201 
L 256.36458 66.748976 
L 259.54513 70.699498 
L 262.725679 71.357918 
L 265.906229 71.028708 
L 269.086778 71.028708 
L 272.267328 110.204714 
L 275.447877 115.142866 
L 278.628427 111.521555 
L 281.808976 106.912613 
L 284.989526 110.204714 
L 288.170075 145.430199 
L 291.350625 168.804119 
L 294.531174 287.648979 
L 297.711724 338.676551 
L 300.892273 339.334971 
L 304.072823 338.676551 
L 307.253372 339.005761 
L 310.433922 339.005761 
L 313.614471 339.005761 
L 316.795021 339.005761 
L 319.97557 339.005761 
L 323.156119 339.005761 
L 326.336669 339.334971 
L 329.517218 339.334971 
L 332.697768 339.005761 
L 335.878317 339.334971 
L 339.058867 339.334971 
L 342.239416 339.334971 
L 345.419966 339.334971 
L 348.600515 339.334971 
L 351.781065 339.334971 
L 354.961614 339.334971 
L 358.142164 342.956283 
L 361.322713 341.639442 
L 364.503263 339.005761 
L 367.683812 339.005761 
L 370.864362 339.334971 
L 374.044911 339.334971 
L 377.225461 339.334971 
L 380.40601 339.334971 
L 383.58656 339.334971 
L 386.767109 339.334971 
L 389.947659 339.334971 
L 393.128208 339.334971 
L 396.308758 339.334971 
L 399.489307 339.334971 
L 402.669857 339.334971 
L 405.850406 339.334971 
L 409.030956 339.334971 
L 412.211505 339.334971 
L 415.392055 339.334971 
L 418.572604 339.334971 
L 421.753154 339.334971 
L 424.933703 345.589964 
L 428.114253 338.676551 
L 431.294802 339.334971 
L 434.475352 339.334971 
L 437.655901 339.334971 
L 440.83645 339.334971 
L 444.017 339.334971 
L 447.197549 339.334971 
L 450.378099 339.334971 
L 453.558648 339.664181 
L 456.739198 339.334971 
L 459.919747 339.664181 
L 463.100297 339.334971 
L 466.280846 339.664181 
L 469.461396 339.334971 
L 472.641945 339.334971 
L 475.822495 339.334971 
L 479.003044 339.664181 
L 482.183594 339.334971 
L 485.364143 339.334971 
L 488.544693 342.956283 
L 491.725242 341.639442 
L 494.905792 339.005761 
L 498.086341 339.334971 
L 501.266891 339.334971 
L 504.44744 339.334971 
L 507.62799 339.334971 
L 510.808539 339.993392 
L 513.989089 340.322602 
L 517.169638 340.322602 
L 520.350188 340.981022 
L 523.530737 340.322602 
" style="fill:none;stroke:#2ca02c;stroke-linecap:square;stroke-width:1.5;"/>
   </g>
   <g id="line2d_16">
    <path clip-path="url(#p0722cafc3b)" d="M 138.563388 319.911573 
L 141.743938 305.755537 
L 144.924487 273.492943 
L 148.105037 258.678487 
L 151.285586 263.616639 
L 154.466136 278.760306 
L 157.646685 253.081915 
L 160.827235 229.707995 
L 164.007784 209.626176 
L 167.188334 198.433032 
L 170.368883 191.190409 
L 173.549433 213.247488 
L 176.729982 224.111422 
L 179.910532 192.178039 
L 183.091081 166.828858 
L 186.271631 138.516786 
L 189.45218 114.813656 
L 192.63273 104.937352 
L 195.813279 87.160005 
L 198.993829 85.843164 
L 202.174378 77.942121 
L 205.354928 62.798454 
L 208.535477 64.444505 
L 211.716027 64.444505 
L 214.896576 140.162837 
L 218.077126 68.724237 
L 221.257675 80.246592 
L 224.438225 210.943017 
L 227.618774 263.287429 
L 230.799324 202.383553 
L 233.979873 124.03154 
L 237.160422 61.152404 
L 240.340972 50.288469 
L 243.521521 50.288469 
L 246.702071 50.617679 
L 249.88262 50.288469 
L 253.06317 55.885041 
L 256.243719 66.748976 
L 259.424269 71.028708 
L 262.604818 71.687128 
L 265.785368 71.357918 
L 268.965917 71.687128 
L 272.146467 96.048678 
L 275.327016 116.459707 
L 278.507566 111.850765 
L 281.688115 108.229453 
L 284.868665 109.217084 
L 288.049214 147.73467 
L 291.229764 168.804119 
L 294.410313 312.99816 
L 297.590863 339.005761 
L 300.771412 339.334971 
L 303.951962 339.005761 
L 307.132511 339.005761 
L 310.313061 339.005761 
L 313.49361 339.005761 
L 316.67416 339.005761 
L 319.854709 339.005761 
L 323.035259 339.005761 
L 326.215808 339.005761 
L 329.396358 339.005761 
L 332.576907 339.005761 
L 335.757457 339.005761 
L 338.938006 339.334971 
L 342.118556 339.005761 
L 345.299105 339.005761 
L 348.479654 339.005761 
L 351.660204 339.334971 
L 354.840753 339.005761 
L 358.021303 342.627073 
L 361.201852 341.310232 
L 364.382402 339.005761 
L 367.562951 339.334971 
L 370.743501 339.334971 
L 373.92405 339.334971 
L 377.1046 339.334971 
L 380.285149 339.334971 
L 383.465699 339.334971 
L 386.646248 339.334971 
L 389.826798 339.334971 
L 393.007347 339.334971 
L 396.187897 339.334971 
L 399.368446 339.334971 
L 402.548996 339.334971 
L 405.729545 339.334971 
L 408.910095 339.334971 
L 412.090644 339.334971 
L 415.271194 339.334971 
L 418.451743 339.334971 
L 421.632293 339.334971 
L 424.812842 345.589964 
L 427.993392 338.676551 
L 431.173941 339.334971 
L 434.354491 339.334971 
L 437.53504 339.664181 
L 440.71559 339.664181 
L 443.896139 339.334971 
L 447.076689 339.334971 
L 450.257238 339.664181 
L 453.437788 339.664181 
L 456.618337 339.334971 
L 459.798887 339.664181 
L 462.979436 339.334971 
L 466.159985 339.664181 
L 469.340535 339.664181 
L 472.521084 339.334971 
L 475.701634 339.664181 
L 478.882183 339.664181 
L 482.062733 339.664181 
L 485.243282 339.334971 
L 488.423832 342.956283 
L 491.604381 341.639442 
L 494.784931 339.005761 
L 497.96548 339.005761 
L 501.14603 339.334971 
L 504.326579 339.334971 
" style="fill:none;stroke:#d62728;stroke-linecap:square;stroke-width:1.5;"/>
   </g>
   <g id="line2d_17">
    <path clip-path="url(#p0722cafc3b)" d="M 157.792991 239.584299 
L 160.97354 240.90114 
L 164.15409 216.868799 
L 167.334639 202.054343 
L 170.515189 193.165669 
L 173.695738 220.160901 
L 176.876288 221.806952 
L 180.056837 191.190409 
L 183.237386 163.865967 
L 186.417936 136.212315 
L 189.598485 117.776547 
L 192.779035 99.9992 
L 195.959584 86.172374 
L 199.140134 77.612911 
L 202.320683 75.96686 
L 205.501233 68.065816 
L 208.681782 60.823193 
L 211.862332 59.177143 
L 215.042881 66.748976 
L 218.223431 72.016338 
L 221.40398 93.414997 
L 224.58453 188.885938 
L 227.765079 251.106654 
L 230.945629 197.774611 
L 234.126178 124.03154 
L 237.306728 62.140034 
L 240.487277 49.959259 
L 243.667827 49.959259 
L 246.848376 49.959259 
L 250.028926 49.959259 
L 253.209475 54.568201 
L 256.390025 66.748976 
L 259.570574 70.699498 
L 262.751124 71.028708 
L 265.931673 71.028708 
L 269.112223 71.028708 
L 272.292772 110.204714 
L 275.473322 114.813656 
L 278.653871 111.521555 
L 281.834421 106.912613 
L 285.01497 110.204714 
L 288.19552 145.759409 
L 291.376069 168.804119 
L 294.556619 284.686088 
L 297.737168 338.676551 
L 300.917717 339.334971 
L 304.098267 339.005761 
L 307.278816 339.005761 
L 310.459366 339.005761 
L 313.639915 339.005761 
L 316.820465 339.005761 
L 320.001014 339.334971 
L 323.181564 339.005761 
L 326.362113 339.005761 
L 329.542663 339.334971 
L 332.723212 339.005761 
L 335.903762 339.005761 
L 339.084311 339.005761 
L 342.264861 339.334971 
L 345.44541 339.334971 
L 348.62596 339.334971 
L 351.806509 339.005761 
L 354.987059 339.005761 
L 358.167608 342.627073 
L 361.348158 341.310232 
L 364.528707 339.005761 
L 367.709257 339.334971 
L 370.889806 339.334971 
L 374.070356 339.334971 
L 377.250905 339.334971 
L 380.431455 339.334971 
L 383.612004 339.334971 
L 386.792554 339.334971 
L 389.973103 339.334971 
L 393.153653 339.334971 
L 396.334202 339.334971 
L 399.514752 339.334971 
L 402.695301 339.334971 
L 405.875851 339.334971 
L 409.0564 339.334971 
L 412.236949 339.334971 
L 415.417499 339.334971 
L 418.598048 339.334971 
L 421.778598 339.334971 
L 424.959147 345.260754 
L 428.139697 338.676551 
L 431.320246 339.334971 
L 434.500796 339.664181 
L 437.681345 339.664181 
L 440.861895 339.334971 
L 444.042444 339.334971 
L 447.222994 339.664181 
L 450.403543 339.664181 
L 453.584093 339.664181 
L 456.764642 339.334971 
L 459.945192 339.334971 
L 463.125741 339.664181 
L 466.306291 339.334971 
L 469.48684 339.664181 
L 472.66739 339.334971 
L 475.847939 339.334971 
L 479.028489 339.664181 
L 482.209038 339.334971 
L 485.389588 339.334971 
L 488.570137 342.956283 
L 491.750687 341.310232 
L 494.931236 339.005761 
L 498.111786 339.334971 
L 501.292335 339.334971 
L 504.472885 339.334971 
L 507.653434 339.005761 
L 510.833984 339.993392 
L 514.014533 340.322602 
L 517.195083 340.651812 
L 520.375632 340.981022 
L 523.556182 340.322602 
" style="fill:none;stroke:#9467bd;stroke-linecap:square;stroke-width:1.5;"/>
   </g>
   <g id="line2d_18">
    <path clip-path="url(#p0722cafc3b)" d="M 125.847552 331.104718 
L 129.028101 331.104718 
L 132.208651 332.092348 
L 135.3892 312.99816 
L 138.56975 317.277892 
L 141.750299 312.33974 
L 144.930848 275.468204 
L 148.111398 258.349277 
L 151.291947 271.188472 
L 154.472497 280.406356 
L 157.653046 258.678487 
L 160.833596 231.354046 
L 164.014145 212.259857 
L 167.194695 200.079082 
L 170.375244 196.128561 
L 173.555794 223.123792 
L 176.736343 230.366415 
L 179.916893 202.383553 
L 183.097442 173.083851 
L 186.277992 138.516786 
L 189.458541 111.850765 
L 192.639091 118.105758 
L 195.81964 118.105758 
L 199.00019 147.40546 
L 202.180739 79.917381 
L 205.361289 81.234222 
L 208.541838 64.115295 
L 211.722388 62.140034 
L 214.902937 69.053447 
L 218.083487 74.979229 
L 221.264036 109.546294 
L 224.444586 217.85643 
L 227.625135 265.26269 
L 230.805685 200.408292 
L 233.986234 125.677591 
L 237.166784 58.847933 
L 240.347333 57.201882 
L 243.527883 52.92215 
L 246.708432 56.214251 
L 249.888982 53.90978 
L 253.069531 61.152404 
L 256.25008 71.357918 
L 259.43063 74.320809 
L 262.611179 76.95449 
L 265.791729 73.662389 
L 268.972278 75.96686 
L 272.152828 103.291301 
L 275.333377 120.081018 
L 278.513927 114.484446 
L 281.694476 109.875504 
L 284.875026 116.130497 
L 288.055575 152.672822 
L 291.236125 171.10859 
L 294.416674 326.824986 
L 297.597224 339.334971 
L 300.777773 339.334971 
L 303.958323 339.005761 
L 307.138872 339.334971 
L 310.319422 339.005761 
L 313.499971 339.005761 
L 316.680521 339.334971 
L 319.86107 339.334971 
L 323.04162 339.334971 
L 326.222169 339.334971 
L 329.402719 339.005761 
L 332.583268 339.005761 
L 335.763818 339.005761 
L 338.944367 339.334971 
L 342.124917 339.334971 
L 345.305466 339.334971 
L 348.486016 339.334971 
L 351.666565 339.334971 
L 354.847115 339.334971 
L 358.027664 342.956283 
L 361.208214 341.310232 
L 364.388763 339.005761 
L 367.569313 339.334971 
L 370.749862 339.334971 
L 373.930411 339.334971 
L 377.110961 339.334971 
L 380.29151 339.334971 
L 383.47206 339.334971 
L 386.652609 339.334971 
L 389.833159 339.334971 
L 393.013708 339.664181 
L 396.194258 339.334971 
L 399.374807 339.334971 
L 402.555357 339.334971 
L 405.735906 339.334971 
L 408.916456 339.334971 
L 412.097005 339.334971 
L 415.277555 339.334971 
L 418.458104 339.334971 
L 421.638654 339.334971 
L 424.819203 345.589964 
L 427.999753 338.676551 
L 431.180302 339.334971 
L 434.360852 339.334971 
L 437.541401 339.664181 
L 440.721951 339.334971 
L 443.9025 339.664181 
L 447.08305 339.664181 
L 450.263599 339.664181 
L 453.444149 339.664181 
L 456.624698 339.334971 
L 459.805248 339.664181 
L 462.985797 339.334971 
L 466.166347 339.334971 
L 469.346896 339.334971 
L 472.527446 339.334971 
L 475.707995 339.334971 
" style="fill:none;stroke:#8c564b;stroke-linecap:square;stroke-width:1.5;"/>
   </g>
   <g id="line2d_19">
    <path clip-path="url(#p0722cafc3b)" d="M 132.202289 326.824986 
L 135.382839 312.99816 
L 138.563388 316.948682 
L 141.743938 310.693689 
L 144.924487 274.480574 
L 148.105037 258.678487 
L 151.285586 267.896371 
L 154.466136 280.735566 
L 157.646685 253.411125 
L 160.827235 229.378785 
L 164.007784 208.967756 
L 167.188334 197.445401 
L 170.368883 191.848829 
L 173.549433 217.85643 
L 176.729982 227.403524 
L 179.910532 198.103821 
L 183.091081 171.10859 
L 186.271631 135.224685 
L 189.45218 135.224685 
L 192.63273 108.558664 
L 195.813279 84.526323 
L 198.993829 96.048678 
L 202.174378 167.158068 
L 205.354928 62.798454 
L 208.535477 67.407396 
L 211.716027 65.432135 
L 214.896576 67.407396 
L 218.077126 68.724237 
L 221.257675 107.241823 
L 224.438225 219.831691 
L 227.618774 264.275059 
L 230.799324 198.103821 
L 233.979873 126.665221 
L 237.160422 62.140034 
L 240.340972 50.946889 
L 243.521521 52.26373 
L 246.702071 52.26373 
L 249.88262 52.26373 
L 253.06317 57.860302 
L 256.243719 69.053447 
L 259.424269 72.674758 
L 262.604818 73.333179 
L 265.785368 73.003969 
L 268.965917 73.333179 
L 272.146467 99.66999 
L 275.327016 118.764178 
L 278.507566 110.204714 
L 281.688115 109.875504 
L 284.868665 115.142866 
L 288.049214 155.964924 
L 291.229764 171.10859 
L 294.410313 332.421558 
L 297.590863 339.005761 
L 300.771412 339.334971 
L 303.951962 339.005761 
L 307.132511 339.334971 
L 310.313061 339.005761 
L 313.49361 339.005761 
L 316.67416 339.005761 
L 319.854709 339.005761 
L 323.035259 339.005761 
L 326.215808 339.005761 
L 329.396358 339.005761 
L 332.576907 339.334971 
L 335.757457 339.005761 
L 338.938006 339.334971 
L 342.118556 339.334971 
L 345.299105 339.334971 
L 348.479654 339.334971 
L 351.660204 339.334971 
L 354.840753 339.005761 
L 358.021303 342.627073 
L 361.201852 341.639442 
L 364.382402 339.005761 
L 367.562951 339.334971 
L 370.743501 339.334971 
L 373.92405 339.334971 
L 377.1046 339.334971 
L 380.285149 339.334971 
L 383.465699 339.334971 
L 386.646248 339.334971 
L 389.826798 339.334971 
L 393.007347 339.334971 
L 396.187897 339.334971 
L 399.368446 339.334971 
L 402.548996 339.334971 
L 405.729545 339.334971 
L 408.910095 339.334971 
L 412.090644 339.334971 
L 415.271194 339.334971 
L 418.451743 339.334971 
L 421.632293 339.334971 
L 424.812842 345.260754 
L 427.993392 338.676551 
L 431.173941 339.334971 
L 434.354491 339.334971 
L 437.53504 339.334971 
L 440.71559 339.334971 
L 443.896139 339.334971 
L 447.076689 339.664181 
L 450.257238 339.664181 
L 453.437788 339.664181 
L 456.618337 339.334971 
L 459.798887 339.664181 
L 462.979436 339.334971 
L 466.159985 339.334971 
L 469.340535 339.334971 
L 472.521084 339.334971 
L 475.701634 339.334971 
L 478.882183 339.334971 
L 482.062733 339.334971 
L 485.243282 339.334971 
" style="fill:none;stroke:#e377c2;stroke-linecap:square;stroke-width:1.5;"/>
   </g>
   <g id="line2d_20">
    <path clip-path="url(#p0722cafc3b)" d="M 170.52155 188.885938 
L 173.702099 251.435864 
L 176.882649 220.819321 
L 180.063198 195.47014 
L 183.243748 166.499648 
L 186.424297 140.821257 
L 189.604847 119.422598 
L 192.785396 99.66999 
L 195.965946 88.147635 
L 199.146495 77.612911 
L 202.327045 78.929751 
L 205.507594 67.407396 
L 208.688143 62.140034 
L 211.868693 58.518722 
L 215.049242 69.053447 
L 218.229792 74.320809 
L 221.410341 112.509185 
L 224.590891 217.85643 
L 227.77144 262.629009 
L 230.95199 198.103821 
L 234.132539 126.665221 
L 237.313089 61.152404 
L 240.493638 50.288469 
L 243.674188 50.288469 
L 246.854737 49.959259 
L 250.035287 50.288469 
L 253.215836 55.226621 
L 256.396386 67.078186 
L 259.576935 71.028708 
L 262.757485 71.357918 
L 265.938034 71.687128 
L 269.118584 71.357918 
L 272.299133 99.34078 
L 275.479683 116.459707 
L 278.660232 112.179975 
L 281.840782 107.571033 
L 285.021331 112.509185 
L 288.201881 150.697561 
L 291.38243 168.804119 
L 294.56298 308.060008 
L 297.743529 339.005761 
L 300.924079 339.334971 
L 304.104628 339.005761 
L 307.285178 339.334971 
L 310.465727 339.005761 
L 313.646277 339.005761 
L 316.826826 339.334971 
L 320.007375 339.334971 
L 323.187925 339.334971 
L 326.368474 339.334971 
L 329.549024 339.334971 
L 332.729573 339.334971 
L 335.910123 339.334971 
L 339.090672 339.334971 
L 342.271222 339.334971 
L 345.451771 339.334971 
L 348.632321 339.334971 
L 351.81287 339.334971 
L 354.99342 339.334971 
L 358.173969 342.956283 
L 361.354519 341.310232 
L 364.535068 339.005761 
L 367.715618 339.334971 
L 370.896167 339.334971 
L 374.076717 339.334971 
L 377.257266 339.334971 
L 380.437816 339.334971 
L 383.618365 339.334971 
L 386.798915 339.005761 
L 389.979464 339.334971 
L 393.160014 339.334971 
L 396.340563 339.334971 
L 399.521113 339.334971 
L 402.701662 339.334971 
L 405.882212 339.334971 
L 409.062761 339.005761 
L 412.243311 339.334971 
L 415.42386 339.334971 
L 418.60441 339.334971 
L 421.784959 339.334971 
L 424.965509 345.589964 
L 428.146058 338.676551 
L 431.326608 339.005761 
L 434.507157 339.334971 
L 437.687706 339.334971 
L 440.868256 339.334971 
L 444.048805 339.334971 
L 447.229355 339.334971 
L 450.409904 339.334971 
L 453.590454 339.334971 
L 456.771003 339.334971 
L 459.951553 339.334971 
L 463.132102 339.334971 
L 466.312652 339.334971 
L 469.493201 339.334971 
L 472.673751 339.334971 
L 475.8543 339.334971 
L 479.03485 339.664181 
L 482.215399 339.334971 
L 485.395949 339.334971 
L 488.576498 343.285493 
L 491.757048 341.639442 
L 494.937597 339.005761 
L 498.118147 339.334971 
L 501.298696 339.334971 
L 504.479246 339.334971 
L 507.659795 339.334971 
L 510.840345 339.993392 
L 514.020894 340.322602 
L 517.201444 340.651812 
L 520.381993 340.981022 
L 523.562543 340.322602 
" style="fill:none;stroke:#7f7f7f;stroke-linecap:square;stroke-width:1.5;"/>
   </g>
   <g id="line2d_21">
    <path clip-path="url(#p0722cafc3b)" d="M 132.424928 326.166566 
L 135.605477 312.66895 
L 138.786027 317.936312 
L 141.966576 310.035269 
L 145.147126 273.822154 
L 148.327675 259.007697 
L 151.508225 270.859262 
L 154.688774 278.101885 
L 157.869324 256.374016 
L 161.049873 233.329306 
L 164.230423 211.272227 
L 167.410972 200.408292 
L 170.591522 193.165669 
L 173.772071 223.782212 
L 176.952621 222.465372 
L 180.13317 192.507249 
L 183.31372 161.561496 
L 186.494269 126.006801 
L 189.674819 126.006801 
L 192.855368 102.632881 
L 196.035918 77.942121 
L 199.216467 91.439736 
L 202.397017 91.439736 
L 205.577566 137.199946 
L 208.758116 137.199946 
L 211.938665 70.041077 
L 215.119215 74.650019 
L 218.299764 77.2837 
L 221.480314 134.895475 
L 224.660863 218.84406 
L 227.841412 263.287429 
L 231.021962 193.49488 
L 234.202511 124.68996 
L 237.383061 58.189512 
L 240.56361 54.897411 
L 243.74416 52.59294 
L 246.924709 54.568201 
L 250.105259 53.25136 
L 253.285808 60.823193 
L 256.466358 70.041077 
L 259.646907 73.991599 
L 262.827457 74.979229 
L 266.008006 73.991599 
L 269.188556 74.320809 
L 272.369105 101.974461 
L 275.549655 118.764178 
L 278.730204 114.155236 
L 281.910754 110.863135 
L 285.091303 116.788917 
L 288.271853 154.648083 
L 291.452402 171.10859 
L 294.632952 330.446297 
L 297.813501 339.334971 
L 300.994051 339.334971 
L 304.1746 339.005761 
L 307.35515 339.334971 
L 310.535699 339.005761 
L 313.716249 339.005761 
L 316.896798 339.005761 
L 320.077348 339.005761 
L 323.257897 339.005761 
L 326.438447 339.005761 
L 329.618996 339.005761 
L 332.799546 339.334971 
L 335.980095 339.005761 
L 339.160645 339.334971 
L 342.341194 339.334971 
L 345.521743 339.334971 
L 348.702293 339.334971 
L 351.882842 339.334971 
L 355.063392 339.334971 
L 358.243941 343.285493 
L 361.424491 341.310232 
L 364.60504 339.005761 
L 367.78559 339.334971 
L 370.966139 339.334971 
L 374.146689 339.334971 
L 377.327238 339.334971 
L 380.507788 339.334971 
L 383.688337 339.334971 
L 386.868887 339.334971 
L 390.049436 339.334971 
L 393.229986 339.664181 
L 396.410535 339.334971 
L 399.591085 339.334971 
L 402.771634 339.334971 
L 405.952184 339.334971 
L 409.132733 339.334971 
L 412.313283 339.334971 
L 415.493832 339.334971 
L 418.674382 339.334971 
L 421.854931 339.334971 
L 425.035481 345.589964 
L 428.21603 338.676551 
L 431.39658 339.334971 
L 434.577129 339.334971 
L 437.757679 339.664181 
L 440.938228 339.334971 
L 444.118778 339.664181 
L 447.299327 339.334971 
L 450.479877 339.334971 
L 453.660426 339.664181 
L 456.840975 339.664181 
L 460.021525 339.664181 
L 463.202074 339.334971 
L 466.382624 339.664181 
L 469.563173 339.664181 
L 472.743723 339.334971 
L 475.924272 339.664181 
L 479.104822 339.664181 
L 482.285371 339.664181 
" style="fill:none;stroke:#bcbd22;stroke-linecap:square;stroke-width:1.5;"/>
   </g>
   <g id="line2d_22">
    <path clip-path="url(#p0722cafc3b)" d="M 144.930848 264.93348 
L 148.111398 264.60427 
L 151.291947 274.480574 
L 154.472497 275.797414 
L 157.653046 252.094284 
L 160.833596 229.378785 
L 164.014145 209.296966 
L 167.194695 198.433032 
L 170.375244 191.190409 
L 173.555794 216.210379 
L 176.736343 223.453002 
L 179.916893 192.507249 
L 183.097442 166.170438 
L 186.277992 137.858366 
L 189.458541 117.118127 
L 192.639091 100.98683 
L 195.81964 86.501584 
L 199.00019 77.612911 
L 202.180739 76.62528 
L 205.361289 67.078186 
L 208.541838 61.152404 
L 211.722388 59.506353 
L 214.902937 66.748976 
L 218.083487 72.674758 
L 221.264036 62.140034 
L 224.444586 270.530052 
L 227.625135 263.287429 
L 230.805685 203.041974 
L 233.986234 125.019171 
L 237.166784 61.810824 
L 240.347333 50.288469 
L 243.527883 50.288469 
L 246.708432 50.288469 
L 249.888982 50.288469 
L 253.069531 55.555831 
L 256.25008 67.078186 
L 259.43063 70.699498 
L 262.611179 71.357918 
L 265.791729 71.028708 
L 268.972278 71.357918 
L 272.152828 97.365519 
L 275.333377 116.130497 
L 278.513927 111.521555 
L 281.694476 107.900243 
L 284.875026 110.863135 
L 288.055575 154.648083 
L 291.236125 169.462539 
L 294.416674 303.780276 
L 297.597224 339.005761 
L 300.777773 339.334971 
L 303.958323 339.005761 
L 307.138872 339.005761 
L 310.319422 339.005761 
L 313.499971 339.005761 
L 316.680521 339.005761 
L 319.86107 339.005761 
L 323.04162 339.005761 
L 326.222169 339.005761 
L 329.402719 339.005761 
L 332.583268 339.005761 
L 335.763818 339.005761 
L 338.944367 339.334971 
L 342.124917 339.005761 
L 345.305466 339.334971 
L 348.486016 339.005761 
L 351.666565 339.334971 
L 354.847115 339.005761 
L 358.027664 342.627073 
L 361.208214 341.639442 
L 364.388763 339.005761 
L 367.569313 339.334971 
L 370.749862 339.334971 
L 373.930411 339.334971 
L 377.110961 339.664181 
L 380.29151 339.334971 
L 383.47206 339.334971 
L 386.652609 339.334971 
L 389.833159 339.334971 
L 393.013708 339.664181 
L 396.194258 339.334971 
L 399.374807 339.334971 
L 402.555357 339.334971 
L 405.735906 339.334971 
L 408.916456 339.334971 
L 412.097005 339.334971 
L 415.277555 339.334971 
L 418.458104 339.334971 
L 421.638654 339.334971 
L 424.819203 345.260754 
L 427.999753 338.676551 
L 431.180302 339.334971 
L 434.360852 339.334971 
L 437.541401 339.334971 
L 440.721951 339.334971 
L 443.9025 339.664181 
L 447.08305 339.334971 
L 450.263599 339.334971 
L 453.444149 339.334971 
L 456.624698 339.334971 
L 459.805248 339.664181 
L 462.985797 339.334971 
L 466.166347 339.664181 
L 469.346896 339.334971 
L 472.527446 339.334971 
L 475.707995 339.334971 
L 478.888545 339.664181 
L 482.069094 339.334971 
L 485.249644 339.664181 
L 488.430193 343.285493 
L 491.610742 341.310232 
L 494.791292 339.005761 
L 497.971841 339.334971 
L 501.152391 339.334971 
L 504.33294 339.334971 
L 507.51349 339.334971 
L 510.694039 339.993392 
L 513.874589 340.322602 
" style="fill:none;stroke:#17becf;stroke-linecap:square;stroke-width:1.5;"/>
   </g>
   <g id="line2d_23">
    <path clip-path="url(#p0722cafc3b)" d="M 138.684249 319.911573 
L 141.864799 305.755537 
L 145.045348 273.492943 
L 148.225898 258.678487 
L 151.406447 263.287429 
L 154.586997 278.431095 
L 157.767546 253.411125 
L 160.948096 230.366415 
L 164.128645 209.626176 
L 167.309195 198.433032 
L 170.489744 191.190409 
L 173.670294 215.222749 
L 176.850843 224.111422 
L 180.031393 193.49488 
L 183.211942 166.170438 
L 186.392492 136.212315 
L 189.573041 115.472077 
L 192.753591 104.937352 
L 195.93414 86.501584 
L 199.11469 84.526323 
L 202.295239 77.2837 
L 205.475789 62.140034 
L 208.656338 63.456875 
L 211.836887 63.456875 
L 215.017437 140.162837 
L 218.197986 68.395027 
L 221.378536 84.526323 
L 224.559085 217.85643 
L 227.739635 262.958219 
L 230.920184 198.103821 
L 234.100734 126.665221 
L 237.281283 61.481614 
L 240.461833 49.959259 
L 243.642382 50.288469 
L 246.822932 50.288469 
L 250.003481 50.288469 
L 253.184031 55.555831 
L 256.36458 67.078186 
L 259.54513 70.699498 
L 262.725679 71.357918 
L 265.906229 71.357918 
L 269.086778 71.357918 
L 272.267328 98.682359 
L 275.447877 116.459707 
L 278.628427 111.850765 
L 281.808976 107.900243 
L 284.989526 109.217084 
L 288.170075 146.088619 
L 291.350625 169.133329 
L 294.531174 310.693689 
L 297.711724 339.005761 
L 300.892273 339.334971 
L 304.072823 338.676551 
L 307.253372 339.334971 
L 310.433922 339.005761 
L 313.614471 339.005761 
L 316.795021 339.005761 
L 319.97557 339.334971 
L 323.156119 339.005761 
L 326.336669 339.334971 
L 329.517218 339.334971 
L 332.697768 339.334971 
L 335.878317 339.005761 
L 339.058867 339.005761 
L 342.239416 339.005761 
L 345.419966 339.334971 
L 348.600515 339.334971 
L 351.781065 339.334971 
L 354.961614 339.334971 
L 358.142164 342.956283 
L 361.322713 341.310232 
L 364.503263 339.005761 
L 367.683812 339.334971 
L 370.864362 339.334971 
L 374.044911 339.005761 
L 377.225461 339.334971 
L 380.40601 339.334971 
L 383.58656 339.334971 
L 386.767109 339.334971 
L 389.947659 339.334971 
L 393.128208 339.334971 
L 396.308758 339.334971 
L 399.489307 339.334971 
L 402.669857 339.334971 
L 405.850406 339.334971 
L 409.030956 339.334971 
L 412.211505 339.334971 
L 415.392055 339.334971 
L 418.572604 339.334971 
L 421.753154 339.005761 
L 424.933703 345.589964 
L 428.114253 338.676551 
L 431.294802 339.334971 
L 434.475352 339.334971 
L 437.655901 339.334971 
L 440.83645 339.334971 
L 444.017 339.334971 
L 447.197549 339.664181 
L 450.378099 339.664181 
L 453.558648 339.334971 
L 456.739198 339.334971 
L 459.919747 339.334971 
L 463.100297 339.334971 
L 466.280846 339.334971 
L 469.461396 339.334971 
L 472.641945 339.334971 
L 475.822495 339.334971 
L 479.003044 339.334971 
L 482.183594 339.334971 
L 485.364143 339.334971 
L 488.544693 343.285493 
L 491.725242 341.639442 
L 494.905792 339.334971 
L 498.086341 339.334971 
L 501.266891 339.334971 
L 504.44744 339.334971 
L 507.62799 339.334971 
" style="fill:none;stroke:#1f77b4;stroke-linecap:square;stroke-width:1.5;"/>
   </g>
   <g id="line2d_24">
    <path clip-path="url(#p0722cafc3b)" d="M 151.406447 292.587131 
L 154.586997 279.747936 
L 157.767546 252.752705 
L 160.948096 230.366415 
L 164.128645 209.955386 
L 167.309195 198.762242 
L 170.489744 191.519619 
L 173.670294 207.321705 
L 176.850843 221.477741 
L 180.031393 193.165669 
L 183.211942 166.499648 
L 186.392492 138.516786 
L 189.573041 119.093388 
L 192.753591 102.632881 
L 195.93414 88.147635 
L 199.11469 79.917381 
L 202.295239 78.600541 
L 205.475789 69.382657 
L 208.656338 63.456875 
L 211.836887 61.810824 
L 215.017437 69.382657 
L 218.197986 74.320809 
L 221.378536 79.917381 
L 224.559085 268.225581 
L 227.739635 264.275059 
L 230.920184 198.762242 
L 234.100734 125.348381 
L 237.281283 62.140034 
L 240.461833 50.946889 
L 243.642382 52.26373 
L 246.822932 52.59294 
L 250.003481 52.26373 
L 253.184031 58.518722 
L 256.36458 69.053447 
L 259.54513 72.674758 
L 262.725679 73.662389 
L 265.906229 73.333179 
L 269.086778 73.333179 
L 272.267328 99.01157 
L 275.447877 117.447337 
L 278.628427 113.496816 
L 281.808976 109.875504 
L 284.989526 113.826026 
L 288.170075 152.672822 
L 291.350625 169.79175 
L 294.531174 323.862095 
L 297.711724 339.005761 
L 300.892273 339.334971 
L 304.072823 339.005761 
L 307.253372 339.334971 
L 310.433922 339.005761 
L 313.614471 339.005761 
L 316.795021 339.334971 
L 319.97557 339.005761 
L 323.156119 339.005761 
L 326.336669 339.334971 
L 329.517218 339.005761 
L 332.697768 339.334971 
L 335.878317 339.005761 
L 339.058867 339.334971 
L 342.239416 339.005761 
L 345.419966 339.005761 
L 348.600515 339.334971 
L 351.781065 339.005761 
L 354.961614 339.005761 
L 358.142164 342.627073 
L 361.322713 341.310232 
L 364.503263 339.005761 
L 367.683812 339.334971 
L 370.864362 339.334971 
L 374.044911 339.334971 
L 377.225461 339.334971 
L 380.40601 339.334971 
L 383.58656 339.334971 
L 386.767109 339.334971 
L 389.947659 339.334971 
L 393.128208 339.334971 
L 396.308758 339.334971 
L 399.489307 339.334971 
L 402.669857 339.334971 
L 405.850406 339.334971 
L 409.030956 339.334971 
L 412.211505 339.334971 
L 415.392055 339.334971 
L 418.572604 339.334971 
L 421.753154 339.005761 
L 424.933703 345.589964 
L 428.114253 338.676551 
L 431.294802 339.334971 
L 434.475352 339.334971 
L 437.655901 339.334971 
L 440.83645 339.334971 
L 444.017 339.334971 
L 447.197549 339.334971 
L 450.378099 339.334971 
L 453.558648 339.664181 
L 456.739198 339.334971 
L 459.919747 339.664181 
L 463.100297 339.664181 
L 466.280846 339.664181 
L 469.461396 339.664181 
L 472.641945 339.334971 
L 475.822495 339.664181 
L 479.003044 339.664181 
L 482.183594 339.334971 
L 485.364143 339.664181 
L 488.544693 343.285493 
L 491.725242 341.639442 
L 494.905792 339.005761 
" style="fill:none;stroke:#ff7f0e;stroke-linecap:square;stroke-width:1.5;"/>
   </g>
   <g id="line2d_25">
    <path clip-path="url(#p0722cafc3b)" d="M 113.33527 345.589964 
L 116.515819 347.894435 
L 119.696369 341.310232 
L 122.876918 343.285493 
L 126.057468 336.37208 
L 129.238017 331.433928 
L 132.418567 332.750768 
L 135.599116 314.315001 
L 138.779666 318.923943 
L 141.960215 311.68132 
L 145.140765 276.785045 
L 148.321314 264.275059 
L 151.501864 281.723197 
L 154.682413 280.077146 
L 157.862963 259.666118 
L 161.043512 245.180871 
L 164.224062 226.086683 
L 167.404611 219.502481 
L 170.585161 211.601437 
L 173.76571 236.621408 
L 176.94626 232.670886 
L 180.126809 235.633777 
L 183.307359 155.635714 
L 186.487908 159.915445 
L 189.668458 119.751808 
L 192.849007 120.410229 
L 196.029557 99.66999 
L 199.210106 83.538693 
L 202.390655 80.905012 
L 205.571205 70.699498 
L 208.751754 66.419766 
L 211.932304 65.432135 
L 215.112853 73.003969 
L 218.293403 76.29607 
L 221.473952 115.142866 
L 224.654502 229.049575 
L 227.835051 267.237951 
L 231.015601 199.420662 
L 234.19615 121.727069 
L 237.3767 59.835563 
L 240.557249 54.897411 
L 243.737799 55.226621 
L 246.918348 56.214251 
L 250.098898 54.568201 
L 253.279447 64.444505 
L 256.459997 73.333179 
L 259.640546 76.29607 
L 262.821096 76.62528 
L 266.001645 75.30844 
L 269.182195 77.612911 
L 272.362744 107.241823 
L 275.543294 122.385489 
L 278.723843 118.105758 
L 281.904393 113.167606 
L 285.084942 118.105758 
L 288.265492 158.269395 
L 291.446041 173.742271 
L 294.626591 342.297862 
L 297.80714 339.334971 
L 300.98769 339.334971 
L 304.168239 339.005761 
L 307.348789 339.334971 
L 310.529338 339.005761 
L 313.709888 339.005761 
L 316.890437 339.334971 
L 320.070986 339.334971 
L 323.251536 339.334971 
L 326.432085 339.334971 
L 329.612635 339.005761 
L 332.793184 339.334971 
L 335.973734 339.005761 
L 339.154283 339.334971 
L 342.334833 339.005761 
L 345.515382 339.334971 
L 348.695932 339.334971 
L 351.876481 339.334971 
L 355.057031 339.334971 
L 358.23758 342.956283 
L 361.41813 341.310232 
L 364.598679 339.005761 
L 367.779229 339.334971 
L 370.959778 339.334971 
L 374.140328 339.334971 
L 377.320877 339.334971 
L 380.501427 339.334971 
L 383.681976 339.334971 
L 386.862526 339.334971 
L 390.043075 339.334971 
L 393.223625 339.664181 
L 396.404174 339.334971 
L 399.584724 339.334971 
L 402.765273 339.334971 
L 405.945823 339.334971 
L 409.126372 339.334971 
L 412.306922 339.334971 
L 415.487471 339.334971 
L 418.668021 339.334971 
L 421.84857 339.334971 
L 425.02912 345.589964 
L 428.209669 338.676551 
L 431.390219 339.334971 
L 434.570768 339.334971 
L 437.751317 339.334971 
L 440.931867 339.664181 
L 444.112416 339.334971 
L 447.292966 339.664181 
L 450.473515 339.664181 
L 453.654065 339.334971 
L 456.834614 339.334971 
L 460.015164 339.664181 
L 463.195713 339.334971 
L 466.376263 339.664181 
L 469.556812 339.664181 
" style="fill:none;stroke:#2ca02c;stroke-linecap:square;stroke-width:1.5;"/>
   </g>
   <g id="line2d_26">
    <path clip-path="url(#p0722cafc3b)" d="M 145.038987 264.60427 
L 148.219537 264.93348 
L 151.400086 274.480574 
L 154.580636 275.797414 
L 157.761185 252.094284 
L 160.941735 229.378785 
L 164.122284 209.296966 
L 167.302834 198.433032 
L 170.483383 191.190409 
L 173.663933 216.539589 
L 176.844482 223.123792 
L 180.025032 191.848829 
L 183.205581 164.524387 
L 186.38613 137.529156 
L 189.56668 118.105758 
L 192.747229 100.65762 
L 195.927779 86.501584 
L 199.108328 77.612911 
L 202.288878 76.29607 
L 205.469427 67.736606 
L 208.649977 61.481614 
L 211.830526 59.506353 
L 215.011076 66.748976 
L 218.191625 72.345548 
L 221.372175 60.493983 
L 224.552724 270.530052 
L 227.733274 263.945849 
L 230.913823 199.091452 
L 234.094373 125.677591 
L 237.274922 60.823193 
L 240.455472 49.959259 
L 243.636021 50.288469 
L 246.816571 50.288469 
L 249.99712 50.288469 
L 253.17767 54.568201 
L 256.358219 67.078186 
L 259.538769 71.028708 
L 262.719318 71.357918 
L 265.899868 71.357918 
L 269.080417 71.357918 
L 272.260967 100.98683 
L 275.441516 116.459707 
L 278.622066 112.509185 
L 281.802615 107.900243 
L 284.983165 112.838395 
L 288.163714 151.355982 
L 291.344264 169.133329 
L 294.524813 300.817385 
L 297.705363 339.005761 
L 300.885912 339.334971 
L 304.066461 339.005761 
L 307.247011 339.005761 
L 310.42756 339.005761 
L 313.60811 339.005761 
L 316.788659 339.005761 
L 319.969209 339.005761 
L 323.149758 339.005761 
L 326.330308 339.005761 
L 329.510857 339.005761 
L 332.691407 339.334971 
L 335.871956 339.334971 
L 339.052506 339.334971 
L 342.233055 339.334971 
L 345.413605 339.334971 
L 348.594154 339.334971 
L 351.774704 339.005761 
L 354.955253 339.005761 
L 358.135803 342.627073 
L 361.316352 341.310232 
L 364.496902 339.005761 
L 367.677451 339.334971 
L 370.858001 339.334971 
L 374.03855 339.334971 
L 377.2191 339.334971 
L 380.399649 339.334971 
L 383.580199 339.334971 
L 386.760748 339.334971 
L 389.941298 339.334971 
L 393.121847 339.334971 
L 396.302397 339.334971 
L 399.482946 339.334971 
L 402.663496 339.334971 
L 405.844045 339.334971 
L 409.024595 339.334971 
L 412.205144 339.334971 
L 415.385693 339.334971 
L 418.566243 339.334971 
L 421.746792 339.334971 
L 424.927342 345.589964 
L 428.107891 338.676551 
L 431.288441 339.334971 
L 434.46899 339.334971 
L 437.64954 339.664181 
L 440.830089 339.664181 
L 444.010639 339.664181 
L 447.191188 339.664181 
L 450.371738 339.664181 
L 453.552287 339.664181 
L 456.732837 339.334971 
L 459.913386 339.664181 
L 463.093936 339.334971 
L 466.274485 339.334971 
L 469.455035 339.334971 
L 472.635584 339.664181 
L 475.816134 339.664181 
L 478.996683 339.664181 
L 482.177233 339.334971 
L 485.357782 339.664181 
L 488.538332 342.956283 
L 491.718881 341.639442 
L 494.899431 339.334971 
L 498.07998 339.334971 
L 501.26053 339.334971 
L 504.441079 339.334971 
L 507.621629 339.334971 
L 510.802178 339.993392 
L 513.982728 340.322602 
" style="fill:none;stroke:#d62728;stroke-linecap:square;stroke-width:1.5;"/>
   </g>
   <g id="line2d_27">
    <path clip-path="url(#p0722cafc3b)" d="M 164.160451 204.358814 
L 167.341 197.774611 
L 170.52155 205.675655 
L 173.702099 225.428263 
L 176.882649 223.782212 
L 180.063198 191.519619 
L 183.243748 163.536757 
L 186.424297 138.187576 
L 189.604847 118.105758 
L 192.785396 99.66999 
L 195.965946 87.160005 
L 199.146495 77.612911 
L 202.327045 76.95449 
L 205.507594 67.407396 
L 208.688143 61.481614 
L 211.868693 58.847933 
L 215.049242 67.078186 
L 218.229792 73.333179 
L 221.410341 107.241823 
L 224.590891 231.683256 
L 227.77144 263.616639 
L 230.95199 196.128561 
L 234.132539 128.640482 
L 237.313089 59.177143 
L 240.493638 50.617679 
L 243.674188 50.288469 
L 246.854737 50.946889 
L 250.035287 50.617679 
L 253.215836 57.201882 
L 256.396386 66.748976 
L 259.576935 71.357918 
L 262.757485 72.016338 
L 265.938034 71.357918 
L 269.118584 72.016338 
L 272.299133 96.048678 
L 275.479683 116.788917 
L 278.660232 112.179975 
L 281.840782 108.558664 
L 285.021331 109.217084 
L 288.201881 152.014402 
L 291.38243 169.133329 
L 294.56298 314.644211 
L 297.743529 339.005761 
L 300.924079 339.334971 
L 304.104628 339.005761 
L 307.285178 339.334971 
L 310.465727 339.005761 
L 313.646277 339.005761 
L 316.826826 339.334971 
L 320.007375 339.005761 
L 323.187925 339.334971 
L 326.368474 339.334971 
L 329.549024 339.334971 
L 332.729573 339.334971 
L 335.910123 339.005761 
L 339.090672 339.334971 
L 342.271222 339.334971 
L 345.451771 339.334971 
L 348.632321 339.334971 
L 351.81287 339.334971 
L 354.99342 339.334971 
L 358.173969 342.956283 
L 361.354519 341.310232 
L 364.535068 339.005761 
L 367.715618 339.334971 
L 370.896167 339.334971 
L 374.076717 339.334971 
L 377.257266 339.334971 
L 380.437816 339.334971 
L 383.618365 339.334971 
L 386.798915 339.334971 
L 389.979464 339.334971 
L 393.160014 339.334971 
L 396.340563 339.334971 
L 399.521113 339.334971 
L 402.701662 339.334971 
L 405.882212 339.334971 
L 409.062761 339.334971 
L 412.243311 339.334971 
L 415.42386 339.334971 
L 418.60441 339.334971 
L 421.784959 339.334971 
L 424.965509 345.589964 
L 428.146058 338.676551 
L 431.326608 339.334971 
L 434.507157 339.334971 
L 437.687706 339.664181 
L 440.868256 339.334971 
L 444.048805 339.334971 
L 447.229355 339.664181 
L 450.409904 339.334971 
L 453.590454 339.334971 
L 456.771003 339.334971 
L 459.951553 339.334971 
L 463.132102 339.664181 
L 466.312652 339.664181 
L 469.493201 339.664181 
L 472.673751 339.334971 
L 475.8543 339.664181 
L 479.03485 339.334971 
L 482.215399 339.334971 
L 485.395949 339.334971 
L 488.576498 343.285493 
L 491.757048 341.310232 
L 494.937597 339.005761 
L 498.118147 339.334971 
L 501.298696 339.334971 
L 504.479246 339.334971 
L 507.659795 339.334971 
L 510.840345 339.993392 
L 514.020894 340.322602 
" style="fill:none;stroke:#9467bd;stroke-linecap:square;stroke-width:1.5;"/>
   </g>
   <g id="line2d_28">
    <path clip-path="url(#p0722cafc3b)" d="M 151.438253 292.587131 
L 154.618802 279.418726 
L 157.799352 252.423494 
L 160.979901 230.037205 
L 164.160451 209.955386 
L 167.341 198.433032 
L 170.52155 191.190409 
L 173.702099 218.51485 
L 176.882649 221.148531 
L 180.063198 191.190409 
L 183.243748 164.524387 
L 186.424297 137.199946 
L 189.604847 119.093388 
L 192.785396 103.620512 
L 195.965946 87.489215 
L 199.146495 78.929751 
L 202.327045 77.612911 
L 205.507594 68.395027 
L 208.688143 62.798454 
L 211.868693 60.493983 
L 215.049242 68.065816 
L 218.229792 73.003969 
L 221.410341 75.63765 
L 224.590891 268.554791 
L 227.77144 263.287429 
L 230.95199 195.799351 
L 234.132539 129.957323 
L 237.313089 58.518722 
L 240.493638 49.959259 
L 243.674188 50.617679 
L 246.854737 51.93452 
L 250.035287 50.946889 
L 253.215836 57.531092 
L 256.396386 67.407396 
L 259.576935 72.016338 
L 262.757485 71.357918 
L 265.938034 71.357918 
L 269.118584 72.674758 
L 272.299133 97.036309 
L 275.479683 117.118127 
L 278.660232 112.838395 
L 281.840782 108.887874 
L 285.021331 112.838395 
L 288.201881 147.40546 
L 291.38243 169.133329 
L 294.56298 321.228414 
L 297.743529 339.005761 
L 300.924079 339.334971 
L 304.104628 339.005761 
L 307.285178 339.334971 
L 310.465727 339.005761 
L 313.646277 339.005761 
L 316.826826 339.005761 
L 320.007375 339.005761 
L 323.187925 339.005761 
L 326.368474 339.005761 
L 329.549024 339.334971 
L 332.729573 339.334971 
L 335.910123 339.005761 
L 339.090672 339.334971 
L 342.271222 339.005761 
L 345.451771 339.005761 
L 348.632321 339.334971 
L 351.81287 339.334971 
L 354.99342 339.334971 
L 358.173969 342.956283 
L 361.354519 341.310232 
L 364.535068 339.005761 
L 367.715618 339.334971 
L 370.896167 339.334971 
L 374.076717 339.334971 
L 377.257266 339.334971 
L 380.437816 339.334971 
L 383.618365 339.334971 
L 386.798915 339.334971 
L 389.979464 339.334971 
L 393.160014 339.664181 
L 396.340563 339.334971 
L 399.521113 339.334971 
L 402.701662 339.334971 
L 405.882212 339.334971 
L 409.062761 339.334971 
L 412.243311 339.334971 
L 415.42386 339.334971 
L 418.60441 339.334971 
L 421.784959 339.334971 
L 424.965509 345.589964 
L 428.146058 338.676551 
L 431.326608 339.334971 
L 434.507157 339.334971 
L 437.687706 339.334971 
L 440.868256 339.334971 
L 444.048805 339.334971 
L 447.229355 339.664181 
L 450.409904 339.334971 
L 453.590454 339.334971 
L 456.771003 339.334971 
L 459.951553 339.664181 
L 463.132102 339.334971 
L 466.312652 339.334971 
L 469.493201 339.334971 
L 472.673751 339.664181 
L 475.8543 339.664181 
L 479.03485 339.664181 
L 482.215399 339.334971 
L 485.395949 339.334971 
L 488.576498 342.956283 
L 491.757048 341.310232 
L 494.937597 339.334971 
L 498.118147 339.334971 
" style="fill:none;stroke:#8c564b;stroke-linecap:square;stroke-width:1.5;"/>
   </g>
   <g id="patch_3">
    <path d="M 92.823906 352.174167 
L 92.823906 35.0625 
" style="fill:none;stroke:#000000;stroke-linecap:square;stroke-linejoin:miter;stroke-width:0.8;"/>
   </g>
   <g id="patch_4">
    <path d="M 544.073906 352.174167 
L 544.073906 35.0625 
" style="fill:none;stroke:#000000;stroke-linecap:square;stroke-linejoin:miter;stroke-width:0.8;"/>
   </g>
   <g id="patch_5">
    <path d="M 92.823906 352.174167 
L 544.073906 352.174167 
" style="fill:none;stroke:#000000;stroke-linecap:square;stroke-linejoin:miter;stroke-width:0.8;"/>
   </g>
   <g id="patch_6">
    <path d="M 92.823906 35.0625 
L 544.073906 35.0625 
" style="fill:none;stroke:#000000;stroke-linecap:square;stroke-linejoin:miter;stroke-width:0.8;"/>
   </g>
   <g id="legend_1">
    <g id="patch_7">
     <path d="M 568.636406 272.9125 
L 630.169219 272.9125 
Q 632.169219 272.9125 632.169219 270.9125 
L 632.169219 37.0625 
Q 632.169219 35.0625 630.169219 35.0625 
L 568.636406 35.0625 
Q 566.636406 35.0625 566.636406 37.0625 
L 566.636406 270.9125 
Q 566.636406 272.9125 568.636406 272.9125 
z
" style="fill:#ffffff;opacity:0.8;stroke:#cccccc;stroke-linejoin:miter;"/>
    </g>
    <g id="line2d_29">
     <path d="M 570.636406 43.160937 
L 590.636406 43.160937 
" style="fill:none;stroke:#1f77b4;stroke-linecap:square;stroke-width:1.5;"/>
    </g>
    <g id="line2d_30"/>
    <g id="text_14">
     <!-- bbr-pi -->
     <defs>
      <path d="M 48.6875 27.296875 
Q 48.6875 37.203125 44.609375 42.84375 
Q 40.53125 48.484375 33.40625 48.484375 
Q 26.265625 48.484375 22.1875 42.84375 
Q 18.109375 37.203125 18.109375 27.296875 
Q 18.109375 17.390625 22.1875 11.75 
Q 26.265625 6.109375 33.40625 6.109375 
Q 40.53125 6.109375 44.609375 11.75 
Q 48.6875 17.390625 48.6875 27.296875 
z
M 18.109375 46.390625 
Q 20.953125 51.265625 25.265625 53.625 
Q 29.59375 56 35.59375 56 
Q 45.5625 56 51.78125 48.09375 
Q 58.015625 40.1875 58.015625 27.296875 
Q 58.015625 14.40625 51.78125 6.484375 
Q 45.5625 -1.421875 35.59375 -1.421875 
Q 29.59375 -1.421875 25.265625 0.953125 
Q 20.953125 3.328125 18.109375 8.203125 
L 18.109375 0 
L 9.078125 0 
L 9.078125 75.984375 
L 18.109375 75.984375 
z
" id="DejaVuSans-98"/>
      <path d="M 4.890625 31.390625 
L 31.203125 31.390625 
L 31.203125 23.390625 
L 4.890625 23.390625 
z
" id="DejaVuSans-45"/>
      <path d="M 18.109375 8.203125 
L 18.109375 -20.796875 
L 9.078125 -20.796875 
L 9.078125 54.6875 
L 18.109375 54.6875 
L 18.109375 46.390625 
Q 20.953125 51.265625 25.265625 53.625 
Q 29.59375 56 35.59375 56 
Q 45.5625 56 51.78125 48.09375 
Q 58.015625 40.1875 58.015625 27.296875 
Q 58.015625 14.40625 51.78125 6.484375 
Q 45.5625 -1.421875 35.59375 -1.421875 
Q 29.59375 -1.421875 25.265625 0.953125 
Q 20.953125 3.328125 18.109375 8.203125 
z
M 48.6875 27.296875 
Q 48.6875 37.203125 44.609375 42.84375 
Q 40.53125 48.484375 33.40625 48.484375 
Q 26.265625 48.484375 22.1875 42.84375 
Q 18.109375 37.203125 18.109375 27.296875 
Q 18.109375 17.390625 22.1875 11.75 
Q 26.265625 6.109375 33.40625 6.109375 
Q 40.53125 6.109375 44.609375 11.75 
Q 48.6875 17.390625 48.6875 27.296875 
z
" id="DejaVuSans-112"/>
      <path d="M 9.421875 54.6875 
L 18.40625 54.6875 
L 18.40625 0 
L 9.421875 0 
z
M 9.421875 75.984375 
L 18.40625 75.984375 
L 18.40625 64.59375 
L 9.421875 64.59375 
z
" id="DejaVuSans-105"/>
     </defs>
     <g transform="translate(598.636406 46.660937)scale(0.1 -0.1)">
      <use xlink:href="#DejaVuSans-98"/>
      <use x="63.476562" xlink:href="#DejaVuSans-98"/>
      <use x="126.953125" xlink:href="#DejaVuSans-114"/>
      <use x="167.972656" xlink:href="#DejaVuSans-45"/>
      <use x="204.056641" xlink:href="#DejaVuSans-112"/>
      <use x="267.533203" xlink:href="#DejaVuSans-105"/>
     </g>
    </g>
    <g id="line2d_31">
     <path d="M 570.636406 57.839063 
L 590.636406 57.839063 
" style="fill:none;stroke:#ff7f0e;stroke-linecap:square;stroke-width:1.5;"/>
    </g>
    <g id="line2d_32"/>
    <g id="text_15">
     <!-- bbr-pi -->
     <g transform="translate(598.636406 61.339063)scale(0.1 -0.1)">
      <use xlink:href="#DejaVuSans-98"/>
      <use x="63.476562" xlink:href="#DejaVuSans-98"/>
      <use x="126.953125" xlink:href="#DejaVuSans-114"/>
      <use x="167.972656" xlink:href="#DejaVuSans-45"/>
      <use x="204.056641" xlink:href="#DejaVuSans-112"/>
      <use x="267.533203" xlink:href="#DejaVuSans-105"/>
     </g>
    </g>
    <g id="line2d_33">
     <path d="M 570.636406 72.517187 
L 590.636406 72.517187 
" style="fill:none;stroke:#2ca02c;stroke-linecap:square;stroke-width:1.5;"/>
    </g>
    <g id="line2d_34"/>
    <g id="text_16">
     <!-- bbr-pi -->
     <g transform="translate(598.636406 76.017187)scale(0.1 -0.1)">
      <use xlink:href="#DejaVuSans-98"/>
      <use x="63.476562" xlink:href="#DejaVuSans-98"/>
      <use x="126.953125" xlink:href="#DejaVuSans-114"/>
      <use x="167.972656" xlink:href="#DejaVuSans-45"/>
      <use x="204.056641" xlink:href="#DejaVuSans-112"/>
      <use x="267.533203" xlink:href="#DejaVuSans-105"/>
     </g>
    </g>
    <g id="line2d_35">
     <path d="M 570.636406 87.195312 
L 590.636406 87.195312 
" style="fill:none;stroke:#d62728;stroke-linecap:square;stroke-width:1.5;"/>
    </g>
    <g id="line2d_36"/>
    <g id="text_17">
     <!-- bbr-pi -->
     <g transform="translate(598.636406 90.695312)scale(0.1 -0.1)">
      <use xlink:href="#DejaVuSans-98"/>
      <use x="63.476562" xlink:href="#DejaVuSans-98"/>
      <use x="126.953125" xlink:href="#DejaVuSans-114"/>
      <use x="167.972656" xlink:href="#DejaVuSans-45"/>
      <use x="204.056641" xlink:href="#DejaVuSans-112"/>
      <use x="267.533203" xlink:href="#DejaVuSans-105"/>
     </g>
    </g>
    <g id="line2d_37">
     <path d="M 570.636406 101.873438 
L 590.636406 101.873438 
" style="fill:none;stroke:#9467bd;stroke-linecap:square;stroke-width:1.5;"/>
    </g>
    <g id="line2d_38"/>
    <g id="text_18">
     <!-- bbr-pi -->
     <g transform="translate(598.636406 105.373438)scale(0.1 -0.1)">
      <use xlink:href="#DejaVuSans-98"/>
      <use x="63.476562" xlink:href="#DejaVuSans-98"/>
      <use x="126.953125" xlink:href="#DejaVuSans-114"/>
      <use x="167.972656" xlink:href="#DejaVuSans-45"/>
      <use x="204.056641" xlink:href="#DejaVuSans-112"/>
      <use x="267.533203" xlink:href="#DejaVuSans-105"/>
     </g>
    </g>
    <g id="line2d_39">
     <path d="M 570.636406 116.551563 
L 590.636406 116.551563 
" style="fill:none;stroke:#8c564b;stroke-linecap:square;stroke-width:1.5;"/>
    </g>
    <g id="line2d_40"/>
    <g id="text_19">
     <!-- bbr-pi -->
     <g transform="translate(598.636406 120.051563)scale(0.1 -0.1)">
      <use xlink:href="#DejaVuSans-98"/>
      <use x="63.476562" xlink:href="#DejaVuSans-98"/>
      <use x="126.953125" xlink:href="#DejaVuSans-114"/>
      <use x="167.972656" xlink:href="#DejaVuSans-45"/>
      <use x="204.056641" xlink:href="#DejaVuSans-112"/>
      <use x="267.533203" xlink:href="#DejaVuSans-105"/>
     </g>
    </g>
    <g id="line2d_41">
     <path d="M 570.636406 131.229687 
L 590.636406 131.229687 
" style="fill:none;stroke:#e377c2;stroke-linecap:square;stroke-width:1.5;"/>
    </g>
    <g id="line2d_42"/>
    <g id="text_20">
     <!-- bbr-pi -->
     <g transform="translate(598.636406 134.729687)scale(0.1 -0.1)">
      <use xlink:href="#DejaVuSans-98"/>
      <use x="63.476562" xlink:href="#DejaVuSans-98"/>
      <use x="126.953125" xlink:href="#DejaVuSans-114"/>
      <use x="167.972656" xlink:href="#DejaVuSans-45"/>
      <use x="204.056641" xlink:href="#DejaVuSans-112"/>
      <use x="267.533203" xlink:href="#DejaVuSans-105"/>
     </g>
    </g>
    <g id="line2d_43">
     <path d="M 570.636406 145.907812 
L 590.636406 145.907812 
" style="fill:none;stroke:#7f7f7f;stroke-linecap:square;stroke-width:1.5;"/>
    </g>
    <g id="line2d_44"/>
    <g id="text_21">
     <!-- bbr-pi -->
     <g transform="translate(598.636406 149.407812)scale(0.1 -0.1)">
      <use xlink:href="#DejaVuSans-98"/>
      <use x="63.476562" xlink:href="#DejaVuSans-98"/>
      <use x="126.953125" xlink:href="#DejaVuSans-114"/>
      <use x="167.972656" xlink:href="#DejaVuSans-45"/>
      <use x="204.056641" xlink:href="#DejaVuSans-112"/>
      <use x="267.533203" xlink:href="#DejaVuSans-105"/>
     </g>
    </g>
    <g id="line2d_45">
     <path d="M 570.636406 160.585938 
L 590.636406 160.585938 
" style="fill:none;stroke:#bcbd22;stroke-linecap:square;stroke-width:1.5;"/>
    </g>
    <g id="line2d_46"/>
    <g id="text_22">
     <!-- bbr-pi -->
     <g transform="translate(598.636406 164.085938)scale(0.1 -0.1)">
      <use xlink:href="#DejaVuSans-98"/>
      <use x="63.476562" xlink:href="#DejaVuSans-98"/>
      <use x="126.953125" xlink:href="#DejaVuSans-114"/>
      <use x="167.972656" xlink:href="#DejaVuSans-45"/>
      <use x="204.056641" xlink:href="#DejaVuSans-112"/>
      <use x="267.533203" xlink:href="#DejaVuSans-105"/>
     </g>
    </g>
    <g id="line2d_47">
     <path d="M 570.636406 175.264062 
L 590.636406 175.264062 
" style="fill:none;stroke:#17becf;stroke-linecap:square;stroke-width:1.5;"/>
    </g>
    <g id="line2d_48"/>
    <g id="text_23">
     <!-- bbr-pi -->
     <g transform="translate(598.636406 178.764062)scale(0.1 -0.1)">
      <use xlink:href="#DejaVuSans-98"/>
      <use x="63.476562" xlink:href="#DejaVuSans-98"/>
      <use x="126.953125" xlink:href="#DejaVuSans-114"/>
      <use x="167.972656" xlink:href="#DejaVuSans-45"/>
      <use x="204.056641" xlink:href="#DejaVuSans-112"/>
      <use x="267.533203" xlink:href="#DejaVuSans-105"/>
     </g>
    </g>
    <g id="line2d_49">
     <path d="M 570.636406 189.942187 
L 590.636406 189.942187 
" style="fill:none;stroke:#1f77b4;stroke-linecap:square;stroke-width:1.5;"/>
    </g>
    <g id="line2d_50"/>
    <g id="text_24">
     <!-- bbr-pi -->
     <g transform="translate(598.636406 193.442187)scale(0.1 -0.1)">
      <use xlink:href="#DejaVuSans-98"/>
      <use x="63.476562" xlink:href="#DejaVuSans-98"/>
      <use x="126.953125" xlink:href="#DejaVuSans-114"/>
      <use x="167.972656" xlink:href="#DejaVuSans-45"/>
      <use x="204.056641" xlink:href="#DejaVuSans-112"/>
      <use x="267.533203" xlink:href="#DejaVuSans-105"/>
     </g>
    </g>
    <g id="line2d_51">
     <path d="M 570.636406 204.620312 
L 590.636406 204.620312 
" style="fill:none;stroke:#ff7f0e;stroke-linecap:square;stroke-width:1.5;"/>
    </g>
    <g id="line2d_52"/>
    <g id="text_25">
     <!-- bbr-pi -->
     <g transform="translate(598.636406 208.120312)scale(0.1 -0.1)">
      <use xlink:href="#DejaVuSans-98"/>
      <use x="63.476562" xlink:href="#DejaVuSans-98"/>
      <use x="126.953125" xlink:href="#DejaVuSans-114"/>
      <use x="167.972656" xlink:href="#DejaVuSans-45"/>
      <use x="204.056641" xlink:href="#DejaVuSans-112"/>
      <use x="267.533203" xlink:href="#DejaVuSans-105"/>
     </g>
    </g>
    <g id="line2d_53">
     <path d="M 570.636406 219.298437 
L 590.636406 219.298437 
" style="fill:none;stroke:#2ca02c;stroke-linecap:square;stroke-width:1.5;"/>
    </g>
    <g id="line2d_54"/>
    <g id="text_26">
     <!-- bbr-pi -->
     <g transform="translate(598.636406 222.798437)scale(0.1 -0.1)">
      <use xlink:href="#DejaVuSans-98"/>
      <use x="63.476562" xlink:href="#DejaVuSans-98"/>
      <use x="126.953125" xlink:href="#DejaVuSans-114"/>
      <use x="167.972656" xlink:href="#DejaVuSans-45"/>
      <use x="204.056641" xlink:href="#DejaVuSans-112"/>
      <use x="267.533203" xlink:href="#DejaVuSans-105"/>
     </g>
    </g>
    <g id="line2d_55">
     <path d="M 570.636406 233.976562 
L 590.636406 233.976562 
" style="fill:none;stroke:#d62728;stroke-linecap:square;stroke-width:1.5;"/>
    </g>
    <g id="line2d_56"/>
    <g id="text_27">
     <!-- bbr-pi -->
     <g transform="translate(598.636406 237.476562)scale(0.1 -0.1)">
      <use xlink:href="#DejaVuSans-98"/>
      <use x="63.476562" xlink:href="#DejaVuSans-98"/>
      <use x="126.953125" xlink:href="#DejaVuSans-114"/>
      <use x="167.972656" xlink:href="#DejaVuSans-45"/>
      <use x="204.056641" xlink:href="#DejaVuSans-112"/>
      <use x="267.533203" xlink:href="#DejaVuSans-105"/>
     </g>
    </g>
    <g id="line2d_57">
     <path d="M 570.636406 248.654687 
L 590.636406 248.654687 
" style="fill:none;stroke:#9467bd;stroke-linecap:square;stroke-width:1.5;"/>
    </g>
    <g id="line2d_58"/>
    <g id="text_28">
     <!-- bbr-pi -->
     <g transform="translate(598.636406 252.154687)scale(0.1 -0.1)">
      <use xlink:href="#DejaVuSans-98"/>
      <use x="63.476562" xlink:href="#DejaVuSans-98"/>
      <use x="126.953125" xlink:href="#DejaVuSans-114"/>
      <use x="167.972656" xlink:href="#DejaVuSans-45"/>
      <use x="204.056641" xlink:href="#DejaVuSans-112"/>
      <use x="267.533203" xlink:href="#DejaVuSans-105"/>
     </g>
    </g>
    <g id="line2d_59">
     <path d="M 570.636406 263.332812 
L 590.636406 263.332812 
" style="fill:none;stroke:#8c564b;stroke-linecap:square;stroke-width:1.5;"/>
    </g>
    <g id="line2d_60"/>
    <g id="text_29">
     <!-- bbr-pi -->
     <g transform="translate(598.636406 266.832812)scale(0.1 -0.1)">
      <use xlink:href="#DejaVuSans-98"/>
      <use x="63.476562" xlink:href="#DejaVuSans-98"/>
      <use x="126.953125" xlink:href="#DejaVuSans-114"/>
      <use x="167.972656" xlink:href="#DejaVuSans-45"/>
      <use x="204.056641" xlink:href="#DejaVuSans-112"/>
      <use x="267.533203" xlink:href="#DejaVuSans-105"/>
     </g>
    </g>
   </g>
  </g>
  <g id="text_30">
   <!-- 16 rtt -->
   <defs>
    <path id="DejaVuSans-32"/>
   </defs>
   <g transform="translate(325.287188 17.038125)scale(0.12 -0.12)">
    <use xlink:href="#DejaVuSans-49"/>
    <use x="63.623047" xlink:href="#DejaVuSans-54"/>
    <use x="127.246094" xlink:href="#DejaVuSans-32"/>
    <use x="159.033203" xlink:href="#DejaVuSans-114"/>
    <use x="200.146484" xlink:href="#DejaVuSans-116"/>
    <use x="239.355469" xlink:href="#DejaVuSans-116"/>
   </g>
  </g>
 </g>
 <defs>
  <clipPath id="p0722cafc3b">
   <rect height="317.111667" width="451.25" x="92.823906" y="35.0625"/>
  </clipPath>
 </defs>
</svg>
