<?xml version="1.0" encoding="utf-8" standalone="no"?>
<!DOCTYPE svg PUBLIC "-//W3C//DTD SVG 1.1//EN"
  "http://www.w3.org/Graphics/SVG/1.1/DTD/svg11.dtd">
<!-- Created with matplotlib (https://matplotlib.org/) -->
<svg height="396pt" version="1.1" viewBox="0 0 684 396" width="684pt" xmlns="http://www.w3.org/2000/svg" xmlns:xlink="http://www.w3.org/1999/xlink">
 <defs>
  <style type="text/css">
*{stroke-linecap:butt;stroke-linejoin:round;}
  </style>
 </defs>
 <g id="figure_1">
  <g id="patch_1">
   <path d="M 0 396 
L 684 396 
L 684 0 
L 0 0 
z
" style="fill:#ffffff;"/>
  </g>
  <g id="axes_1">
   <g id="patch_2">
    <path d="M 83.472344 352.174167 
L 544.073906 352.174167 
L 544.073906 35.0625 
L 83.472344 35.0625 
z
" style="fill:#ffffff;"/>
   </g>
   <g id="matplotlib.axis_1">
    <g id="xtick_1">
     <g id="line2d_1">
      <defs>
       <path d="M 0 0 
L 0 3.5 
" id="m648bbd57e5" style="stroke:#000000;stroke-width:0.8;"/>
      </defs>
      <g>
       <use style="stroke:#000000;stroke-width:0.8;" x="104.408778" xlink:href="#m648bbd57e5" y="352.174167"/>
      </g>
     </g>
     <g id="text_1">
      <!-- 0 -->
      <defs>
       <path d="M 31.78125 66.40625 
Q 24.171875 66.40625 20.328125 58.90625 
Q 16.5 51.421875 16.5 36.375 
Q 16.5 21.390625 20.328125 13.890625 
Q 24.171875 6.390625 31.78125 6.390625 
Q 39.453125 6.390625 43.28125 13.890625 
Q 47.125 21.390625 47.125 36.375 
Q 47.125 51.421875 43.28125 58.90625 
Q 39.453125 66.40625 31.78125 66.40625 
z
M 31.78125 74.21875 
Q 44.046875 74.21875 50.515625 64.515625 
Q 56.984375 54.828125 56.984375 36.375 
Q 56.984375 17.96875 50.515625 8.265625 
Q 44.046875 -1.421875 31.78125 -1.421875 
Q 19.53125 -1.421875 13.0625 8.265625 
Q 6.59375 17.96875 6.59375 36.375 
Q 6.59375 54.828125 13.0625 64.515625 
Q 19.53125 74.21875 31.78125 74.21875 
z
" id="DejaVuSans-48"/>
      </defs>
      <g transform="translate(101.227528 366.772604)scale(0.1 -0.1)">
       <use xlink:href="#DejaVuSans-48"/>
      </g>
     </g>
    </g>
    <g id="xtick_2">
     <g id="line2d_2">
      <g>
       <use style="stroke:#000000;stroke-width:0.8;" x="167.969047" xlink:href="#m648bbd57e5" y="352.174167"/>
      </g>
     </g>
     <g id="text_2">
      <!-- 10 -->
      <defs>
       <path d="M 12.40625 8.296875 
L 28.515625 8.296875 
L 28.515625 63.921875 
L 10.984375 60.40625 
L 10.984375 69.390625 
L 28.421875 72.90625 
L 38.28125 72.90625 
L 38.28125 8.296875 
L 54.390625 8.296875 
L 54.390625 0 
L 12.40625 0 
z
" id="DejaVuSans-49"/>
      </defs>
      <g transform="translate(161.606547 366.772604)scale(0.1 -0.1)">
       <use xlink:href="#DejaVuSans-49"/>
       <use x="63.623047" xlink:href="#DejaVuSans-48"/>
      </g>
     </g>
    </g>
    <g id="xtick_3">
     <g id="line2d_3">
      <g>
       <use style="stroke:#000000;stroke-width:0.8;" x="231.529316" xlink:href="#m648bbd57e5" y="352.174167"/>
      </g>
     </g>
     <g id="text_3">
      <!-- 20 -->
      <defs>
       <path d="M 19.1875 8.296875 
L 53.609375 8.296875 
L 53.609375 0 
L 7.328125 0 
L 7.328125 8.296875 
Q 12.9375 14.109375 22.625 23.890625 
Q 32.328125 33.6875 34.8125 36.53125 
Q 39.546875 41.84375 41.421875 45.53125 
Q 43.3125 49.21875 43.3125 52.78125 
Q 43.3125 58.59375 39.234375 62.25 
Q 35.15625 65.921875 28.609375 65.921875 
Q 23.96875 65.921875 18.8125 64.3125 
Q 13.671875 62.703125 7.8125 59.421875 
L 7.8125 69.390625 
Q 13.765625 71.78125 18.9375 73 
Q 24.125 74.21875 28.421875 74.21875 
Q 39.75 74.21875 46.484375 68.546875 
Q 53.21875 62.890625 53.21875 53.421875 
Q 53.21875 48.921875 51.53125 44.890625 
Q 49.859375 40.875 45.40625 35.40625 
Q 44.1875 33.984375 37.640625 27.21875 
Q 31.109375 20.453125 19.1875 8.296875 
z
" id="DejaVuSans-50"/>
      </defs>
      <g transform="translate(225.166816 366.772604)scale(0.1 -0.1)">
       <use xlink:href="#DejaVuSans-50"/>
       <use x="63.623047" xlink:href="#DejaVuSans-48"/>
      </g>
     </g>
    </g>
    <g id="xtick_4">
     <g id="line2d_4">
      <g>
       <use style="stroke:#000000;stroke-width:0.8;" x="295.089584" xlink:href="#m648bbd57e5" y="352.174167"/>
      </g>
     </g>
     <g id="text_4">
      <!-- 30 -->
      <defs>
       <path d="M 40.578125 39.3125 
Q 47.65625 37.796875 51.625 33 
Q 55.609375 28.21875 55.609375 21.1875 
Q 55.609375 10.40625 48.1875 4.484375 
Q 40.765625 -1.421875 27.09375 -1.421875 
Q 22.515625 -1.421875 17.65625 -0.515625 
Q 12.796875 0.390625 7.625 2.203125 
L 7.625 11.71875 
Q 11.71875 9.328125 16.59375 8.109375 
Q 21.484375 6.890625 26.8125 6.890625 
Q 36.078125 6.890625 40.9375 10.546875 
Q 45.796875 14.203125 45.796875 21.1875 
Q 45.796875 27.640625 41.28125 31.265625 
Q 36.765625 34.90625 28.71875 34.90625 
L 20.21875 34.90625 
L 20.21875 43.015625 
L 29.109375 43.015625 
Q 36.375 43.015625 40.234375 45.921875 
Q 44.09375 48.828125 44.09375 54.296875 
Q 44.09375 59.90625 40.109375 62.90625 
Q 36.140625 65.921875 28.71875 65.921875 
Q 24.65625 65.921875 20.015625 65.03125 
Q 15.375 64.15625 9.8125 62.3125 
L 9.8125 71.09375 
Q 15.4375 72.65625 20.34375 73.4375 
Q 25.25 74.21875 29.59375 74.21875 
Q 40.828125 74.21875 47.359375 69.109375 
Q 53.90625 64.015625 53.90625 55.328125 
Q 53.90625 49.265625 50.4375 45.09375 
Q 46.96875 40.921875 40.578125 39.3125 
z
" id="DejaVuSans-51"/>
      </defs>
      <g transform="translate(288.727084 366.772604)scale(0.1 -0.1)">
       <use xlink:href="#DejaVuSans-51"/>
       <use x="63.623047" xlink:href="#DejaVuSans-48"/>
      </g>
     </g>
    </g>
    <g id="xtick_5">
     <g id="line2d_5">
      <g>
       <use style="stroke:#000000;stroke-width:0.8;" x="358.649853" xlink:href="#m648bbd57e5" y="352.174167"/>
      </g>
     </g>
     <g id="text_5">
      <!-- 40 -->
      <defs>
       <path d="M 37.796875 64.3125 
L 12.890625 25.390625 
L 37.796875 25.390625 
z
M 35.203125 72.90625 
L 47.609375 72.90625 
L 47.609375 25.390625 
L 58.015625 25.390625 
L 58.015625 17.1875 
L 47.609375 17.1875 
L 47.609375 0 
L 37.796875 0 
L 37.796875 17.1875 
L 4.890625 17.1875 
L 4.890625 26.703125 
z
" id="DejaVuSans-52"/>
      </defs>
      <g transform="translate(352.287353 366.772604)scale(0.1 -0.1)">
       <use xlink:href="#DejaVuSans-52"/>
       <use x="63.623047" xlink:href="#DejaVuSans-48"/>
      </g>
     </g>
    </g>
    <g id="xtick_6">
     <g id="line2d_6">
      <g>
       <use style="stroke:#000000;stroke-width:0.8;" x="422.210121" xlink:href="#m648bbd57e5" y="352.174167"/>
      </g>
     </g>
     <g id="text_6">
      <!-- 50 -->
      <defs>
       <path d="M 10.796875 72.90625 
L 49.515625 72.90625 
L 49.515625 64.59375 
L 19.828125 64.59375 
L 19.828125 46.734375 
Q 21.96875 47.46875 24.109375 47.828125 
Q 26.265625 48.1875 28.421875 48.1875 
Q 40.625 48.1875 47.75 41.5 
Q 54.890625 34.8125 54.890625 23.390625 
Q 54.890625 11.625 47.5625 5.09375 
Q 40.234375 -1.421875 26.90625 -1.421875 
Q 22.3125 -1.421875 17.546875 -0.640625 
Q 12.796875 0.140625 7.71875 1.703125 
L 7.71875 11.625 
Q 12.109375 9.234375 16.796875 8.0625 
Q 21.484375 6.890625 26.703125 6.890625 
Q 35.15625 6.890625 40.078125 11.328125 
Q 45.015625 15.765625 45.015625 23.390625 
Q 45.015625 31 40.078125 35.4375 
Q 35.15625 39.890625 26.703125 39.890625 
Q 22.75 39.890625 18.8125 39.015625 
Q 14.890625 38.140625 10.796875 36.28125 
z
" id="DejaVuSans-53"/>
      </defs>
      <g transform="translate(415.847621 366.772604)scale(0.1 -0.1)">
       <use xlink:href="#DejaVuSans-53"/>
       <use x="63.623047" xlink:href="#DejaVuSans-48"/>
      </g>
     </g>
    </g>
    <g id="xtick_7">
     <g id="line2d_7">
      <g>
       <use style="stroke:#000000;stroke-width:0.8;" x="485.77039" xlink:href="#m648bbd57e5" y="352.174167"/>
      </g>
     </g>
     <g id="text_7">
      <!-- 60 -->
      <defs>
       <path d="M 33.015625 40.375 
Q 26.375 40.375 22.484375 35.828125 
Q 18.609375 31.296875 18.609375 23.390625 
Q 18.609375 15.53125 22.484375 10.953125 
Q 26.375 6.390625 33.015625 6.390625 
Q 39.65625 6.390625 43.53125 10.953125 
Q 47.40625 15.53125 47.40625 23.390625 
Q 47.40625 31.296875 43.53125 35.828125 
Q 39.65625 40.375 33.015625 40.375 
z
M 52.59375 71.296875 
L 52.59375 62.3125 
Q 48.875 64.0625 45.09375 64.984375 
Q 41.3125 65.921875 37.59375 65.921875 
Q 27.828125 65.921875 22.671875 59.328125 
Q 17.53125 52.734375 16.796875 39.40625 
Q 19.671875 43.65625 24.015625 45.921875 
Q 28.375 48.1875 33.59375 48.1875 
Q 44.578125 48.1875 50.953125 41.515625 
Q 57.328125 34.859375 57.328125 23.390625 
Q 57.328125 12.15625 50.6875 5.359375 
Q 44.046875 -1.421875 33.015625 -1.421875 
Q 20.359375 -1.421875 13.671875 8.265625 
Q 6.984375 17.96875 6.984375 36.375 
Q 6.984375 53.65625 15.1875 63.9375 
Q 23.390625 74.21875 37.203125 74.21875 
Q 40.921875 74.21875 44.703125 73.484375 
Q 48.484375 72.75 52.59375 71.296875 
z
" id="DejaVuSans-54"/>
      </defs>
      <g transform="translate(479.40789 366.772604)scale(0.1 -0.1)">
       <use xlink:href="#DejaVuSans-54"/>
       <use x="63.623047" xlink:href="#DejaVuSans-48"/>
      </g>
     </g>
    </g>
   </g>
   <g id="matplotlib.axis_2">
    <g id="ytick_1">
     <g id="line2d_8">
      <defs>
       <path d="M 0 0 
L -3.5 0 
" id="mf844ae3774" style="stroke:#000000;stroke-width:0.8;"/>
      </defs>
      <g>
       <use style="stroke:#000000;stroke-width:0.8;" x="83.472344" xlink:href="#mf844ae3774" y="352.174167"/>
      </g>
     </g>
     <g id="text_8">
      <!-- 0 -->
      <g transform="translate(70.109844 355.973385)scale(0.1 -0.1)">
       <use xlink:href="#DejaVuSans-48"/>
      </g>
     </g>
    </g>
    <g id="ytick_2">
     <g id="line2d_9">
      <g>
       <use style="stroke:#000000;stroke-width:0.8;" x="83.472344" xlink:href="#mf844ae3774" y="313.944912"/>
      </g>
     </g>
     <g id="text_9">
      <!-- 10 -->
      <g transform="translate(63.747344 317.744131)scale(0.1 -0.1)">
       <use xlink:href="#DejaVuSans-49"/>
       <use x="63.623047" xlink:href="#DejaVuSans-48"/>
      </g>
     </g>
    </g>
    <g id="ytick_3">
     <g id="line2d_10">
      <g>
       <use style="stroke:#000000;stroke-width:0.8;" x="83.472344" xlink:href="#mf844ae3774" y="275.715658"/>
      </g>
     </g>
     <g id="text_10">
      <!-- 20 -->
      <g transform="translate(63.747344 279.514876)scale(0.1 -0.1)">
       <use xlink:href="#DejaVuSans-50"/>
       <use x="63.623047" xlink:href="#DejaVuSans-48"/>
      </g>
     </g>
    </g>
    <g id="ytick_4">
     <g id="line2d_11">
      <g>
       <use style="stroke:#000000;stroke-width:0.8;" x="83.472344" xlink:href="#mf844ae3774" y="237.486403"/>
      </g>
     </g>
     <g id="text_11">
      <!-- 30 -->
      <g transform="translate(63.747344 241.285622)scale(0.1 -0.1)">
       <use xlink:href="#DejaVuSans-51"/>
       <use x="63.623047" xlink:href="#DejaVuSans-48"/>
      </g>
     </g>
    </g>
    <g id="ytick_5">
     <g id="line2d_12">
      <g>
       <use style="stroke:#000000;stroke-width:0.8;" x="83.472344" xlink:href="#mf844ae3774" y="199.257148"/>
      </g>
     </g>
     <g id="text_12">
      <!-- 40 -->
      <g transform="translate(63.747344 203.056367)scale(0.1 -0.1)">
       <use xlink:href="#DejaVuSans-52"/>
       <use x="63.623047" xlink:href="#DejaVuSans-48"/>
      </g>
     </g>
    </g>
    <g id="ytick_6">
     <g id="line2d_13">
      <g>
       <use style="stroke:#000000;stroke-width:0.8;" x="83.472344" xlink:href="#mf844ae3774" y="161.027894"/>
      </g>
     </g>
     <g id="text_13">
      <!-- 50 -->
      <g transform="translate(63.747344 164.827113)scale(0.1 -0.1)">
       <use xlink:href="#DejaVuSans-53"/>
       <use x="63.623047" xlink:href="#DejaVuSans-48"/>
      </g>
     </g>
    </g>
    <g id="ytick_7">
     <g id="line2d_14">
      <g>
       <use style="stroke:#000000;stroke-width:0.8;" x="83.472344" xlink:href="#mf844ae3774" y="122.798639"/>
      </g>
     </g>
     <g id="text_14">
      <!-- 60 -->
      <g transform="translate(63.747344 126.597858)scale(0.1 -0.1)">
       <use xlink:href="#DejaVuSans-54"/>
       <use x="63.623047" xlink:href="#DejaVuSans-48"/>
      </g>
     </g>
    </g>
    <g id="ytick_8">
     <g id="line2d_15">
      <g>
       <use style="stroke:#000000;stroke-width:0.8;" x="83.472344" xlink:href="#mf844ae3774" y="84.569385"/>
      </g>
     </g>
     <g id="text_15">
      <!-- 70 -->
      <defs>
       <path d="M 8.203125 72.90625 
L 55.078125 72.90625 
L 55.078125 68.703125 
L 28.609375 0 
L 18.3125 0 
L 43.21875 64.59375 
L 8.203125 64.59375 
z
" id="DejaVuSans-55"/>
      </defs>
      <g transform="translate(63.747344 88.368603)scale(0.1 -0.1)">
       <use xlink:href="#DejaVuSans-55"/>
       <use x="63.623047" xlink:href="#DejaVuSans-48"/>
      </g>
     </g>
    </g>
    <g id="ytick_9">
     <g id="line2d_16">
      <g>
       <use style="stroke:#000000;stroke-width:0.8;" x="83.472344" xlink:href="#mf844ae3774" y="46.34013"/>
      </g>
     </g>
     <g id="text_16">
      <!-- 80 -->
      <defs>
       <path d="M 31.78125 34.625 
Q 24.75 34.625 20.71875 30.859375 
Q 16.703125 27.09375 16.703125 20.515625 
Q 16.703125 13.921875 20.71875 10.15625 
Q 24.75 6.390625 31.78125 6.390625 
Q 38.8125 6.390625 42.859375 10.171875 
Q 46.921875 13.96875 46.921875 20.515625 
Q 46.921875 27.09375 42.890625 30.859375 
Q 38.875 34.625 31.78125 34.625 
z
M 21.921875 38.8125 
Q 15.578125 40.375 12.03125 44.71875 
Q 8.5 49.078125 8.5 55.328125 
Q 8.5 64.0625 14.71875 69.140625 
Q 20.953125 74.21875 31.78125 74.21875 
Q 42.671875 74.21875 48.875 69.140625 
Q 55.078125 64.0625 55.078125 55.328125 
Q 55.078125 49.078125 51.53125 44.71875 
Q 48 40.375 41.703125 38.8125 
Q 48.828125 37.15625 52.796875 32.3125 
Q 56.78125 27.484375 56.78125 20.515625 
Q 56.78125 9.90625 50.3125 4.234375 
Q 43.84375 -1.421875 31.78125 -1.421875 
Q 19.734375 -1.421875 13.25 4.234375 
Q 6.78125 9.90625 6.78125 20.515625 
Q 6.78125 27.484375 10.78125 32.3125 
Q 14.796875 37.15625 21.921875 38.8125 
z
M 18.3125 54.390625 
Q 18.3125 48.734375 21.84375 45.5625 
Q 25.390625 42.390625 31.78125 42.390625 
Q 38.140625 42.390625 41.71875 45.5625 
Q 45.3125 48.734375 45.3125 54.390625 
Q 45.3125 60.0625 41.71875 63.234375 
Q 38.140625 66.40625 31.78125 66.40625 
Q 25.390625 66.40625 21.84375 63.234375 
Q 18.3125 60.0625 18.3125 54.390625 
z
" id="DejaVuSans-56"/>
      </defs>
      <g transform="translate(63.747344 50.139349)scale(0.1 -0.1)">
       <use xlink:href="#DejaVuSans-56"/>
       <use x="63.623047" xlink:href="#DejaVuSans-48"/>
      </g>
     </g>
    </g>
    <g id="text_17">
     <!-- throughput -->
     <defs>
      <path d="M 18.3125 70.21875 
L 18.3125 54.6875 
L 36.8125 54.6875 
L 36.8125 47.703125 
L 18.3125 47.703125 
L 18.3125 18.015625 
Q 18.3125 11.328125 20.140625 9.421875 
Q 21.96875 7.515625 27.59375 7.515625 
L 36.8125 7.515625 
L 36.8125 0 
L 27.59375 0 
Q 17.1875 0 13.234375 3.875 
Q 9.28125 7.765625 9.28125 18.015625 
L 9.28125 47.703125 
L 2.6875 47.703125 
L 2.6875 54.6875 
L 9.28125 54.6875 
L 9.28125 70.21875 
z
" id="DejaVuSans-116"/>
      <path d="M 54.890625 33.015625 
L 54.890625 0 
L 45.90625 0 
L 45.90625 32.71875 
Q 45.90625 40.484375 42.875 44.328125 
Q 39.84375 48.1875 33.796875 48.1875 
Q 26.515625 48.1875 22.3125 43.546875 
Q 18.109375 38.921875 18.109375 30.90625 
L 18.109375 0 
L 9.078125 0 
L 9.078125 75.984375 
L 18.109375 75.984375 
L 18.109375 46.1875 
Q 21.34375 51.125 25.703125 53.5625 
Q 30.078125 56 35.796875 56 
Q 45.21875 56 50.046875 50.171875 
Q 54.890625 44.34375 54.890625 33.015625 
z
" id="DejaVuSans-104"/>
      <path d="M 41.109375 46.296875 
Q 39.59375 47.171875 37.8125 47.578125 
Q 36.03125 48 33.890625 48 
Q 26.265625 48 22.1875 43.046875 
Q 18.109375 38.09375 18.109375 28.8125 
L 18.109375 0 
L 9.078125 0 
L 9.078125 54.6875 
L 18.109375 54.6875 
L 18.109375 46.1875 
Q 20.953125 51.171875 25.484375 53.578125 
Q 30.03125 56 36.53125 56 
Q 37.453125 56 38.578125 55.875 
Q 39.703125 55.765625 41.0625 55.515625 
z
" id="DejaVuSans-114"/>
      <path d="M 30.609375 48.390625 
Q 23.390625 48.390625 19.1875 42.75 
Q 14.984375 37.109375 14.984375 27.296875 
Q 14.984375 17.484375 19.15625 11.84375 
Q 23.34375 6.203125 30.609375 6.203125 
Q 37.796875 6.203125 41.984375 11.859375 
Q 46.1875 17.53125 46.1875 27.296875 
Q 46.1875 37.015625 41.984375 42.703125 
Q 37.796875 48.390625 30.609375 48.390625 
z
M 30.609375 56 
Q 42.328125 56 49.015625 48.375 
Q 55.71875 40.765625 55.71875 27.296875 
Q 55.71875 13.875 49.015625 6.21875 
Q 42.328125 -1.421875 30.609375 -1.421875 
Q 18.84375 -1.421875 12.171875 6.21875 
Q 5.515625 13.875 5.515625 27.296875 
Q 5.515625 40.765625 12.171875 48.375 
Q 18.84375 56 30.609375 56 
z
" id="DejaVuSans-111"/>
      <path d="M 8.5 21.578125 
L 8.5 54.6875 
L 17.484375 54.6875 
L 17.484375 21.921875 
Q 17.484375 14.15625 20.5 10.265625 
Q 23.53125 6.390625 29.59375 6.390625 
Q 36.859375 6.390625 41.078125 11.03125 
Q 45.3125 15.671875 45.3125 23.6875 
L 45.3125 54.6875 
L 54.296875 54.6875 
L 54.296875 0 
L 45.3125 0 
L 45.3125 8.40625 
Q 42.046875 3.421875 37.71875 1 
Q 33.40625 -1.421875 27.6875 -1.421875 
Q 18.265625 -1.421875 13.375 4.4375 
Q 8.5 10.296875 8.5 21.578125 
z
M 31.109375 56 
z
" id="DejaVuSans-117"/>
      <path d="M 45.40625 27.984375 
Q 45.40625 37.75 41.375 43.109375 
Q 37.359375 48.484375 30.078125 48.484375 
Q 22.859375 48.484375 18.828125 43.109375 
Q 14.796875 37.75 14.796875 27.984375 
Q 14.796875 18.265625 18.828125 12.890625 
Q 22.859375 7.515625 30.078125 7.515625 
Q 37.359375 7.515625 41.375 12.890625 
Q 45.40625 18.265625 45.40625 27.984375 
z
M 54.390625 6.78125 
Q 54.390625 -7.171875 48.1875 -13.984375 
Q 42 -20.796875 29.203125 -20.796875 
Q 24.46875 -20.796875 20.265625 -20.09375 
Q 16.0625 -19.390625 12.109375 -17.921875 
L 12.109375 -9.1875 
Q 16.0625 -11.328125 19.921875 -12.34375 
Q 23.78125 -13.375 27.78125 -13.375 
Q 36.625 -13.375 41.015625 -8.765625 
Q 45.40625 -4.15625 45.40625 5.171875 
L 45.40625 9.625 
Q 42.625 4.78125 38.28125 2.390625 
Q 33.9375 0 27.875 0 
Q 17.828125 0 11.671875 7.65625 
Q 5.515625 15.328125 5.515625 27.984375 
Q 5.515625 40.671875 11.671875 48.328125 
Q 17.828125 56 27.875 56 
Q 33.9375 56 38.28125 53.609375 
Q 42.625 51.21875 45.40625 46.390625 
L 45.40625 54.6875 
L 54.390625 54.6875 
z
" id="DejaVuSans-103"/>
      <path d="M 18.109375 8.203125 
L 18.109375 -20.796875 
L 9.078125 -20.796875 
L 9.078125 54.6875 
L 18.109375 54.6875 
L 18.109375 46.390625 
Q 20.953125 51.265625 25.265625 53.625 
Q 29.59375 56 35.59375 56 
Q 45.5625 56 51.78125 48.09375 
Q 58.015625 40.1875 58.015625 27.296875 
Q 58.015625 14.40625 51.78125 6.484375 
Q 45.5625 -1.421875 35.59375 -1.421875 
Q 29.59375 -1.421875 25.265625 0.953125 
Q 20.953125 3.328125 18.109375 8.203125 
z
M 48.6875 27.296875 
Q 48.6875 37.203125 44.609375 42.84375 
Q 40.53125 48.484375 33.40625 48.484375 
Q 26.265625 48.484375 22.1875 42.84375 
Q 18.109375 37.203125 18.109375 27.296875 
Q 18.109375 17.390625 22.1875 11.75 
Q 26.265625 6.109375 33.40625 6.109375 
Q 40.53125 6.109375 44.609375 11.75 
Q 48.6875 17.390625 48.6875 27.296875 
z
" id="DejaVuSans-112"/>
     </defs>
     <g transform="translate(46.469844 221.675365)rotate(-90)scale(0.1 -0.1)">
      <use xlink:href="#DejaVuSans-116"/>
      <use x="39.208984" xlink:href="#DejaVuSans-104"/>
      <use x="102.587891" xlink:href="#DejaVuSans-114"/>
      <use x="143.669922" xlink:href="#DejaVuSans-111"/>
      <use x="204.851562" xlink:href="#DejaVuSans-117"/>
      <use x="268.230469" xlink:href="#DejaVuSans-103"/>
      <use x="331.707031" xlink:href="#DejaVuSans-104"/>
      <use x="395.085938" xlink:href="#DejaVuSans-112"/>
      <use x="458.5625" xlink:href="#DejaVuSans-117"/>
      <use x="521.941406" xlink:href="#DejaVuSans-116"/>
     </g>
     <!-- (mbit / second) -->
     <defs>
      <path d="M 31 75.875 
Q 24.46875 64.65625 21.28125 53.65625 
Q 18.109375 42.671875 18.109375 31.390625 
Q 18.109375 20.125 21.3125 9.0625 
Q 24.515625 -2 31 -13.1875 
L 23.1875 -13.1875 
Q 15.875 -1.703125 12.234375 9.375 
Q 8.59375 20.453125 8.59375 31.390625 
Q 8.59375 42.28125 12.203125 53.3125 
Q 15.828125 64.359375 23.1875 75.875 
z
" id="DejaVuSans-40"/>
      <path d="M 52 44.1875 
Q 55.375 50.25 60.0625 53.125 
Q 64.75 56 71.09375 56 
Q 79.640625 56 84.28125 50.015625 
Q 88.921875 44.046875 88.921875 33.015625 
L 88.921875 0 
L 79.890625 0 
L 79.890625 32.71875 
Q 79.890625 40.578125 77.09375 44.375 
Q 74.3125 48.1875 68.609375 48.1875 
Q 61.625 48.1875 57.5625 43.546875 
Q 53.515625 38.921875 53.515625 30.90625 
L 53.515625 0 
L 44.484375 0 
L 44.484375 32.71875 
Q 44.484375 40.625 41.703125 44.40625 
Q 38.921875 48.1875 33.109375 48.1875 
Q 26.21875 48.1875 22.15625 43.53125 
Q 18.109375 38.875 18.109375 30.90625 
L 18.109375 0 
L 9.078125 0 
L 9.078125 54.6875 
L 18.109375 54.6875 
L 18.109375 46.1875 
Q 21.1875 51.21875 25.484375 53.609375 
Q 29.78125 56 35.6875 56 
Q 41.65625 56 45.828125 52.96875 
Q 50 49.953125 52 44.1875 
z
" id="DejaVuSans-109"/>
      <path d="M 48.6875 27.296875 
Q 48.6875 37.203125 44.609375 42.84375 
Q 40.53125 48.484375 33.40625 48.484375 
Q 26.265625 48.484375 22.1875 42.84375 
Q 18.109375 37.203125 18.109375 27.296875 
Q 18.109375 17.390625 22.1875 11.75 
Q 26.265625 6.109375 33.40625 6.109375 
Q 40.53125 6.109375 44.609375 11.75 
Q 48.6875 17.390625 48.6875 27.296875 
z
M 18.109375 46.390625 
Q 20.953125 51.265625 25.265625 53.625 
Q 29.59375 56 35.59375 56 
Q 45.5625 56 51.78125 48.09375 
Q 58.015625 40.1875 58.015625 27.296875 
Q 58.015625 14.40625 51.78125 6.484375 
Q 45.5625 -1.421875 35.59375 -1.421875 
Q 29.59375 -1.421875 25.265625 0.953125 
Q 20.953125 3.328125 18.109375 8.203125 
L 18.109375 0 
L 9.078125 0 
L 9.078125 75.984375 
L 18.109375 75.984375 
z
" id="DejaVuSans-98"/>
      <path d="M 9.421875 54.6875 
L 18.40625 54.6875 
L 18.40625 0 
L 9.421875 0 
z
M 9.421875 75.984375 
L 18.40625 75.984375 
L 18.40625 64.59375 
L 9.421875 64.59375 
z
" id="DejaVuSans-105"/>
      <path id="DejaVuSans-32"/>
      <path d="M 25.390625 72.90625 
L 33.6875 72.90625 
L 8.296875 -9.28125 
L 0 -9.28125 
z
" id="DejaVuSans-47"/>
      <path d="M 44.28125 53.078125 
L 44.28125 44.578125 
Q 40.484375 46.53125 36.375 47.5 
Q 32.28125 48.484375 27.875 48.484375 
Q 21.1875 48.484375 17.84375 46.4375 
Q 14.5 44.390625 14.5 40.28125 
Q 14.5 37.15625 16.890625 35.375 
Q 19.28125 33.59375 26.515625 31.984375 
L 29.59375 31.296875 
Q 39.15625 29.25 43.1875 25.515625 
Q 47.21875 21.78125 47.21875 15.09375 
Q 47.21875 7.46875 41.1875 3.015625 
Q 35.15625 -1.421875 24.609375 -1.421875 
Q 20.21875 -1.421875 15.453125 -0.5625 
Q 10.6875 0.296875 5.421875 2 
L 5.421875 11.28125 
Q 10.40625 8.6875 15.234375 7.390625 
Q 20.0625 6.109375 24.8125 6.109375 
Q 31.15625 6.109375 34.5625 8.28125 
Q 37.984375 10.453125 37.984375 14.40625 
Q 37.984375 18.0625 35.515625 20.015625 
Q 33.0625 21.96875 24.703125 23.78125 
L 21.578125 24.515625 
Q 13.234375 26.265625 9.515625 29.90625 
Q 5.8125 33.546875 5.8125 39.890625 
Q 5.8125 47.609375 11.28125 51.796875 
Q 16.75 56 26.8125 56 
Q 31.78125 56 36.171875 55.265625 
Q 40.578125 54.546875 44.28125 53.078125 
z
" id="DejaVuSans-115"/>
      <path d="M 56.203125 29.59375 
L 56.203125 25.203125 
L 14.890625 25.203125 
Q 15.484375 15.921875 20.484375 11.0625 
Q 25.484375 6.203125 34.421875 6.203125 
Q 39.59375 6.203125 44.453125 7.46875 
Q 49.3125 8.734375 54.109375 11.28125 
L 54.109375 2.78125 
Q 49.265625 0.734375 44.1875 -0.34375 
Q 39.109375 -1.421875 33.890625 -1.421875 
Q 20.796875 -1.421875 13.15625 6.1875 
Q 5.515625 13.8125 5.515625 26.8125 
Q 5.515625 40.234375 12.765625 48.109375 
Q 20.015625 56 32.328125 56 
Q 43.359375 56 49.78125 48.890625 
Q 56.203125 41.796875 56.203125 29.59375 
z
M 47.21875 32.234375 
Q 47.125 39.59375 43.09375 43.984375 
Q 39.0625 48.390625 32.421875 48.390625 
Q 24.90625 48.390625 20.390625 44.140625 
Q 15.875 39.890625 15.1875 32.171875 
z
" id="DejaVuSans-101"/>
      <path d="M 48.78125 52.59375 
L 48.78125 44.1875 
Q 44.96875 46.296875 41.140625 47.34375 
Q 37.3125 48.390625 33.40625 48.390625 
Q 24.65625 48.390625 19.8125 42.84375 
Q 14.984375 37.3125 14.984375 27.296875 
Q 14.984375 17.28125 19.8125 11.734375 
Q 24.65625 6.203125 33.40625 6.203125 
Q 37.3125 6.203125 41.140625 7.25 
Q 44.96875 8.296875 48.78125 10.40625 
L 48.78125 2.09375 
Q 45.015625 0.34375 40.984375 -0.53125 
Q 36.96875 -1.421875 32.421875 -1.421875 
Q 20.0625 -1.421875 12.78125 6.34375 
Q 5.515625 14.109375 5.515625 27.296875 
Q 5.515625 40.671875 12.859375 48.328125 
Q 20.21875 56 33.015625 56 
Q 37.15625 56 41.109375 55.140625 
Q 45.0625 54.296875 48.78125 52.59375 
z
" id="DejaVuSans-99"/>
      <path d="M 54.890625 33.015625 
L 54.890625 0 
L 45.90625 0 
L 45.90625 32.71875 
Q 45.90625 40.484375 42.875 44.328125 
Q 39.84375 48.1875 33.796875 48.1875 
Q 26.515625 48.1875 22.3125 43.546875 
Q 18.109375 38.921875 18.109375 30.90625 
L 18.109375 0 
L 9.078125 0 
L 9.078125 54.6875 
L 18.109375 54.6875 
L 18.109375 46.1875 
Q 21.34375 51.125 25.703125 53.5625 
Q 30.078125 56 35.796875 56 
Q 45.21875 56 50.046875 50.171875 
Q 54.890625 44.34375 54.890625 33.015625 
z
" id="DejaVuSans-110"/>
      <path d="M 45.40625 46.390625 
L 45.40625 75.984375 
L 54.390625 75.984375 
L 54.390625 0 
L 45.40625 0 
L 45.40625 8.203125 
Q 42.578125 3.328125 38.25 0.953125 
Q 33.9375 -1.421875 27.875 -1.421875 
Q 17.96875 -1.421875 11.734375 6.484375 
Q 5.515625 14.40625 5.515625 27.296875 
Q 5.515625 40.1875 11.734375 48.09375 
Q 17.96875 56 27.875 56 
Q 33.9375 56 38.25 53.625 
Q 42.578125 51.265625 45.40625 46.390625 
z
M 14.796875 27.296875 
Q 14.796875 17.390625 18.875 11.75 
Q 22.953125 6.109375 30.078125 6.109375 
Q 37.203125 6.109375 41.296875 11.75 
Q 45.40625 17.390625 45.40625 27.296875 
Q 45.40625 37.203125 41.296875 42.84375 
Q 37.203125 48.484375 30.078125 48.484375 
Q 22.953125 48.484375 18.875 42.84375 
Q 14.796875 37.203125 14.796875 27.296875 
z
" id="DejaVuSans-100"/>
      <path d="M 8.015625 75.875 
L 15.828125 75.875 
Q 23.140625 64.359375 26.78125 53.3125 
Q 30.421875 42.28125 30.421875 31.390625 
Q 30.421875 20.453125 26.78125 9.375 
Q 23.140625 -1.703125 15.828125 -13.1875 
L 8.015625 -13.1875 
Q 14.5 -2 17.703125 9.0625 
Q 20.90625 20.125 20.90625 31.390625 
Q 20.90625 42.671875 17.703125 53.65625 
Q 14.5 64.65625 8.015625 75.875 
z
" id="DejaVuSans-41"/>
     </defs>
     <g transform="translate(57.667656 231.608958)rotate(-90)scale(0.1 -0.1)">
      <use xlink:href="#DejaVuSans-40"/>
      <use x="39.013672" xlink:href="#DejaVuSans-109"/>
      <use x="136.425781" xlink:href="#DejaVuSans-98"/>
      <use x="199.902344" xlink:href="#DejaVuSans-105"/>
      <use x="227.685547" xlink:href="#DejaVuSans-116"/>
      <use x="266.894531" xlink:href="#DejaVuSans-32"/>
      <use x="298.681641" xlink:href="#DejaVuSans-47"/>
      <use x="332.373047" xlink:href="#DejaVuSans-32"/>
      <use x="364.160156" xlink:href="#DejaVuSans-115"/>
      <use x="416.259766" xlink:href="#DejaVuSans-101"/>
      <use x="477.783203" xlink:href="#DejaVuSans-99"/>
      <use x="532.763672" xlink:href="#DejaVuSans-111"/>
      <use x="593.945312" xlink:href="#DejaVuSans-110"/>
      <use x="657.324219" xlink:href="#DejaVuSans-100"/>
      <use x="720.800781" xlink:href="#DejaVuSans-41"/>
     </g>
    </g>
   </g>
   <g id="line2d_17">
    <path clip-path="url(#pc430ed2d6b)" d="M 154.487914 352.174167 
L 157.665927 352.174167 
L 160.843941 352.174167 
L 164.021954 348.351241 
L 167.199968 344.528316 
L 170.377981 336.882465 
L 173.555995 321.590763 
L 176.734008 306.299061 
L 179.912021 294.830285 
L 183.090035 283.361508 
L 186.268048 275.715658 
L 189.446062 279.538583 
L 192.624075 260.423956 
L 195.802089 275.715658 
L 198.980102 260.423956 
L 202.158115 264.246881 
L 205.336129 268.069807 
L 208.514142 252.778105 
L 211.692156 264.246881 
L 214.870169 271.892732 
L 218.048183 283.361508 
L 221.226196 352.174167 
L 224.404209 306.299061 
L 227.582223 302.476136 
L 230.760236 302.476136 
L 233.93825 302.476136 
L 237.116263 302.476136 
L 240.294277 298.65321 
L 243.47229 302.476136 
L 246.650303 294.830285 
L 249.828317 302.476136 
L 253.00633 294.830285 
L 256.184344 298.65321 
L 259.362357 298.65321 
L 262.540371 294.830285 
L 265.718384 325.413688 
L 268.896397 302.476136 
L 272.074411 321.590763 
L 275.252424 321.590763 
L 278.430438 302.476136 
L 281.608451 306.299061 
L 284.786465 306.299061 
L 287.964478 313.944912 
L 291.142491 317.767838 
L 294.320505 325.413688 
L 297.498518 329.236614 
L 300.676532 333.059539 
L 303.854545 333.059539 
L 307.032559 333.059539 
L 310.210572 336.882465 
L 313.388585 336.882465 
L 316.566599 336.882465 
L 319.744612 336.882465 
L 322.922626 336.882465 
L 326.100639 336.882465 
L 329.278653 336.882465 
L 332.456666 336.882465 
L 335.634679 336.882465 
L 338.812693 336.882465 
L 341.990706 336.882465 
L 345.16872 336.882465 
L 348.346733 336.882465 
L 351.524747 336.882465 
L 354.70276 336.882465 
L 357.880773 336.882465 
L 361.058787 336.882465 
L 364.2368 336.882465 
L 367.414814 336.882465 
L 370.592827 336.882465 
L 373.77084 336.882465 
L 376.948854 336.882465 
L 380.126867 336.882465 
L 383.304881 336.882465 
L 386.482894 336.882465 
L 389.660908 336.882465 
L 392.838921 336.882465 
L 396.016934 336.882465 
L 399.194948 336.882465 
L 402.372961 336.882465 
L 405.550975 336.882465 
L 408.728988 336.882465 
L 411.907002 336.882465 
L 415.085015 336.882465 
L 418.263028 336.882465 
L 421.441042 336.882465 
L 424.619055 336.882465 
L 427.797069 336.882465 
L 430.975082 336.882465 
L 434.153096 336.882465 
L 437.331109 336.882465 
L 440.509122 336.882465 
L 443.687136 336.882465 
L 446.865149 336.882465 
L 450.043163 336.882465 
L 453.221176 336.882465 
L 456.39919 336.882465 
L 459.577203 336.882465 
L 462.755216 336.882465 
L 465.93323 336.882465 
L 469.111243 336.882465 
L 472.289257 336.882465 
L 475.46727 336.882465 
L 478.645284 336.882465 
L 481.823297 336.882465 
L 485.00131 336.882465 
L 488.179324 336.882465 
L 491.357337 336.882465 
L 494.535351 336.882465 
L 497.713364 336.882465 
L 500.891378 336.882465 
L 504.069391 333.059539 
L 507.247404 333.059539 
L 510.425418 333.059539 
L 513.603431 329.236614 
L 516.781445 329.236614 
L 519.959458 329.236614 
L 523.137472 325.413688 
" style="fill:none;stroke:#1f77b4;stroke-linecap:square;stroke-width:1.5;"/>
   </g>
   <g id="line2d_18">
    <path clip-path="url(#pc430ed2d6b)" d="M 130.900698 344.528316 
L 134.078712 283.361508 
L 137.256725 252.778105 
L 140.434739 248.955179 
L 143.612752 271.892732 
L 146.790765 275.715658 
L 149.968779 291.007359 
L 153.146792 302.476136 
L 156.324806 306.299061 
L 159.502819 310.121987 
L 162.680833 310.121987 
L 165.858846 298.65321 
L 169.036859 317.767838 
L 172.214873 321.590763 
L 175.392886 329.236614 
L 178.5709 333.059539 
L 181.748913 333.059539 
L 184.926927 340.70539 
L 188.10494 333.059539 
L 191.282953 348.351241 
L 194.460967 340.70539 
L 197.63898 344.528316 
L 200.816994 348.351241 
L 203.995007 352.174167 
L 207.173021 352.174167 
L 210.351034 344.528316 
L 213.529047 325.413688 
L 216.707061 310.121987 
L 219.885074 325.413688 
L 223.063088 333.059539 
L 226.241101 336.882465 
L 229.419115 333.059539 
L 232.597128 333.059539 
L 235.775141 333.059539 
L 238.953155 333.059539 
L 242.131168 333.059539 
L 245.309182 329.236614 
L 248.487195 336.882465 
L 251.665209 329.236614 
L 254.843222 333.059539 
L 258.021235 329.236614 
L 261.199249 329.236614 
L 264.377262 329.236614 
L 267.555276 325.413688 
L 270.733289 329.236614 
L 273.911303 329.236614 
L 277.089316 333.059539 
L 280.267329 329.236614 
L 283.445343 329.236614 
L 286.623356 333.059539 
L 289.80137 329.236614 
L 292.979383 333.059539 
L 296.157397 333.059539 
L 299.33541 333.059539 
L 302.513423 333.059539 
L 305.691437 333.059539 
L 308.86945 333.059539 
L 312.047464 333.059539 
L 315.225477 333.059539 
L 318.403491 333.059539 
L 321.581504 333.059539 
L 324.759517 333.059539 
L 327.937531 333.059539 
L 331.115544 333.059539 
L 334.293558 333.059539 
L 337.471571 333.059539 
L 340.649585 333.059539 
L 343.827598 333.059539 
L 347.005611 333.059539 
L 350.183625 336.882465 
L 353.361638 336.882465 
L 356.539652 336.882465 
L 359.717665 336.882465 
L 362.895679 336.882465 
L 366.073692 336.882465 
L 369.251705 336.882465 
L 372.429719 336.882465 
L 375.607732 336.882465 
L 378.785746 336.882465 
L 381.963759 336.882465 
L 385.141773 336.882465 
L 388.319786 336.882465 
L 391.497799 336.882465 
L 394.675813 336.882465 
L 397.853826 336.882465 
L 401.03184 336.882465 
L 404.209853 336.882465 
L 407.387867 336.882465 
L 410.56588 336.882465 
L 413.743893 336.882465 
L 416.921907 336.882465 
L 420.09992 336.882465 
L 423.277934 336.882465 
L 426.455947 336.882465 
L 429.633961 336.882465 
L 432.811974 336.882465 
L 435.989987 336.882465 
L 439.168001 336.882465 
L 442.346014 336.882465 
L 445.524028 336.882465 
L 448.702041 336.882465 
L 451.880055 336.882465 
L 455.058068 336.882465 
L 458.236081 336.882465 
L 461.414095 336.882465 
L 464.592108 336.882465 
L 467.770122 336.882465 
L 470.948135 336.882465 
L 474.126149 336.882465 
L 477.304162 336.882465 
L 480.482175 336.882465 
L 483.660189 333.059539 
L 486.838202 333.059539 
L 490.016216 333.059539 
L 493.194229 333.059539 
L 496.372243 333.059539 
L 499.550256 333.059539 
" style="fill:none;stroke:#ff7f0e;stroke-linecap:square;stroke-width:1.5;"/>
   </g>
   <g id="line2d_19">
    <path clip-path="url(#pc430ed2d6b)" d="M 117.680162 271.892732 
L 120.858176 237.486403 
L 124.036189 252.778105 
L 127.214203 291.007359 
L 130.392216 287.184434 
L 133.57023 325.413688 
L 136.748243 336.882465 
L 139.926256 336.882465 
L 143.10427 336.882465 
L 146.282283 340.70539 
L 149.460297 348.351241 
L 152.63831 348.351241 
L 155.816324 352.174167 
L 158.994337 352.174167 
L 162.17235 352.174167 
L 165.350364 352.174167 
L 168.528377 352.174167 
L 171.706391 352.174167 
L 174.884404 352.174167 
L 178.062418 352.174167 
L 181.240431 352.174167 
L 184.418444 352.174167 
L 187.596458 352.174167 
L 190.774471 352.174167 
L 193.952485 352.174167 
L 197.130498 352.174167 
L 200.308512 352.174167 
L 203.486525 352.174167 
L 206.664538 352.174167 
L 209.842552 352.174167 
L 213.020565 348.351241 
L 216.198579 348.351241 
L 219.376592 352.174167 
L 222.554606 352.174167 
L 225.732619 352.174167 
L 228.910632 352.174167 
L 232.088646 352.174167 
L 235.266659 352.174167 
L 238.444673 352.174167 
L 241.622686 352.174167 
L 244.8007 352.174167 
L 247.978713 352.174167 
L 251.156726 352.174167 
L 254.33474 352.174167 
L 257.512753 352.174167 
L 260.690767 352.174167 
L 263.86878 352.174167 
L 267.046794 352.174167 
L 270.224807 352.174167 
L 273.40282 352.174167 
L 276.580834 352.174167 
L 279.758847 352.174167 
L 282.936861 352.174167 
L 286.114874 348.351241 
L 289.292888 344.528316 
L 292.470901 340.70539 
L 295.648914 336.882465 
L 298.826928 336.882465 
L 302.004941 336.882465 
L 305.182955 336.882465 
L 308.360968 336.882465 
L 311.538982 336.882465 
L 314.716995 336.882465 
L 317.895008 336.882465 
L 321.073022 336.882465 
L 324.251035 336.882465 
L 327.429049 336.882465 
L 330.607062 336.882465 
L 333.785076 336.882465 
L 336.963089 336.882465 
L 340.141102 336.882465 
L 343.319116 336.882465 
L 346.497129 336.882465 
L 349.675143 336.882465 
L 352.853156 333.059539 
L 356.03117 333.059539 
L 359.209183 336.882465 
L 362.387196 336.882465 
L 365.56521 336.882465 
L 368.743223 336.882465 
L 371.921237 336.882465 
L 375.09925 336.882465 
L 378.277264 336.882465 
L 381.455277 336.882465 
L 384.63329 336.882465 
L 387.811304 336.882465 
L 390.989317 336.882465 
L 394.167331 336.882465 
L 397.345344 336.882465 
L 400.523358 336.882465 
L 403.701371 336.882465 
L 406.879384 336.882465 
L 410.057398 336.882465 
L 413.235411 336.882465 
L 416.413425 336.882465 
L 419.591438 333.059539 
L 422.769452 336.882465 
L 425.947465 336.882465 
L 429.125478 336.882465 
L 432.303492 336.882465 
L 435.481505 336.882465 
L 438.659519 336.882465 
L 441.837532 333.059539 
L 445.015546 336.882465 
L 448.193559 336.882465 
L 451.371572 336.882465 
L 454.549586 336.882465 
L 457.727599 336.882465 
L 460.905613 336.882465 
L 464.083626 336.882465 
L 467.26164 336.882465 
L 470.439653 336.882465 
L 473.617666 336.882465 
" style="fill:none;stroke:#2ca02c;stroke-linecap:square;stroke-width:1.5;"/>
   </g>
   <g id="line2d_20">
    <path clip-path="url(#pc430ed2d6b)" d="M 148.030191 352.174167 
L 151.208204 348.351241 
L 154.386218 344.528316 
L 157.564231 340.70539 
L 160.742244 340.70539 
L 163.920258 340.70539 
L 167.098271 336.882465 
L 170.276285 348.351241 
L 173.454298 344.528316 
L 176.632312 344.528316 
L 179.810325 344.528316 
L 182.988338 348.351241 
L 186.166352 348.351241 
L 189.344365 348.351241 
L 192.522379 348.351241 
L 195.700392 348.351241 
L 198.878406 348.351241 
L 202.056419 348.351241 
L 205.234432 348.351241 
L 208.412446 348.351241 
L 211.590459 348.351241 
L 214.768473 348.351241 
L 217.946486 352.174167 
L 221.1245 348.351241 
L 224.302513 348.351241 
L 227.480526 348.351241 
L 230.65854 348.351241 
L 233.836553 348.351241 
L 237.014567 348.351241 
L 240.19258 348.351241 
L 243.370594 348.351241 
L 246.548607 348.351241 
L 249.72662 348.351241 
L 252.904634 348.351241 
L 256.082647 348.351241 
L 259.260661 348.351241 
L 262.438674 348.351241 
L 265.616688 344.528316 
L 268.794701 348.351241 
L 271.972714 348.351241 
L 275.150728 344.528316 
L 278.328741 348.351241 
L 281.506755 344.528316 
L 284.684768 348.351241 
L 287.862782 348.351241 
L 291.040795 344.528316 
L 294.218808 340.70539 
L 297.396822 336.882465 
L 300.574835 336.882465 
L 303.752849 336.882465 
L 306.930862 336.882465 
L 310.108876 336.882465 
L 313.286889 336.882465 
L 316.464902 336.882465 
L 319.642916 336.882465 
L 322.820929 336.882465 
L 325.998943 336.882465 
L 329.176956 336.882465 
L 332.35497 336.882465 
L 335.532983 336.882465 
L 338.710996 336.882465 
L 341.88901 336.882465 
L 345.067023 336.882465 
L 348.245037 336.882465 
L 351.42305 336.882465 
L 354.601064 336.882465 
L 357.779077 333.059539 
L 360.95709 333.059539 
L 364.135104 336.882465 
L 367.313117 336.882465 
L 370.491131 336.882465 
L 373.669144 336.882465 
L 376.847157 336.882465 
L 380.025171 336.882465 
L 383.203184 336.882465 
L 386.381198 336.882465 
L 389.559211 336.882465 
L 392.737225 336.882465 
L 395.915238 336.882465 
L 399.093251 336.882465 
L 402.271265 336.882465 
L 405.449278 336.882465 
L 408.627292 336.882465 
L 411.805305 336.882465 
L 414.983319 336.882465 
L 418.161332 336.882465 
L 421.339345 336.882465 
L 424.517359 336.882465 
L 427.695372 336.882465 
L 430.873386 336.882465 
L 434.051399 336.882465 
L 437.229413 336.882465 
L 440.407426 336.882465 
L 443.585439 336.882465 
L 446.763453 336.882465 
L 449.941466 336.882465 
L 453.11948 336.882465 
L 456.297493 336.882465 
L 459.475507 336.882465 
L 462.65352 336.882465 
L 465.831533 336.882465 
L 469.009547 336.882465 
L 472.18756 336.882465 
L 475.365574 336.882465 
L 478.543587 336.882465 
L 481.721601 336.882465 
L 484.899614 336.882465 
L 488.077627 336.882465 
L 491.255641 336.882465 
L 494.433654 336.882465 
L 497.611668 336.882465 
" style="fill:none;stroke:#d62728;stroke-linecap:square;stroke-width:1.5;"/>
   </g>
   <g id="line2d_21">
    <path clip-path="url(#pc430ed2d6b)" d="M 124.137886 306.299061 
L 127.315899 252.778105 
L 130.493913 252.778105 
L 133.671926 283.361508 
L 136.849939 313.944912 
L 140.027953 317.767838 
L 143.205966 310.121987 
L 146.38398 321.590763 
L 149.561993 329.236614 
L 152.740007 336.882465 
L 155.91802 344.528316 
L 159.096033 344.528316 
L 162.274047 344.528316 
L 165.45206 344.528316 
L 168.630074 344.528316 
L 171.808087 344.528316 
L 174.986101 348.351241 
L 178.164114 344.528316 
L 181.342127 352.174167 
L 184.520141 348.351241 
L 187.698154 352.174167 
L 190.876168 352.174167 
L 194.054181 352.174167 
L 197.232195 352.174167 
L 200.410208 348.351241 
L 203.588221 352.174167 
L 206.766235 344.528316 
L 209.944248 352.174167 
L 213.122262 336.882465 
L 216.300275 340.70539 
L 219.478289 344.528316 
L 222.656302 348.351241 
L 225.834315 348.351241 
L 229.012329 348.351241 
L 232.190342 348.351241 
L 235.368356 348.351241 
L 238.546369 348.351241 
L 241.724383 348.351241 
L 244.902396 348.351241 
L 248.080409 348.351241 
L 251.258423 348.351241 
L 254.436436 348.351241 
L 257.61445 348.351241 
L 260.792463 348.351241 
L 263.970477 348.351241 
L 267.14849 344.528316 
L 270.326503 352.174167 
L 273.504517 348.351241 
L 276.68253 348.351241 
L 279.860544 348.351241 
L 283.038557 348.351241 
L 286.216571 344.528316 
L 289.394584 340.70539 
L 292.572597 336.882465 
L 295.750611 336.882465 
L 298.928624 336.882465 
L 302.106638 336.882465 
L 305.284651 336.882465 
L 308.462665 336.882465 
L 311.640678 336.882465 
L 314.818691 336.882465 
L 317.996705 336.882465 
L 321.174718 336.882465 
L 324.352732 336.882465 
L 327.530745 336.882465 
L 330.708759 336.882465 
L 333.886772 336.882465 
L 337.064785 336.882465 
L 340.242799 336.882465 
L 343.420812 336.882465 
L 346.598826 336.882465 
L 349.776839 336.882465 
L 352.954853 336.882465 
L 356.132866 336.882465 
L 359.310879 336.882465 
L 362.488893 336.882465 
L 365.666906 336.882465 
L 368.84492 336.882465 
L 372.022933 336.882465 
L 375.200947 336.882465 
L 378.37896 336.882465 
L 381.556973 336.882465 
L 384.734987 336.882465 
L 387.913 336.882465 
L 391.091014 336.882465 
L 394.269027 336.882465 
L 397.447041 336.882465 
L 400.625054 336.882465 
L 403.803067 336.882465 
L 406.981081 336.882465 
L 410.159094 336.882465 
L 413.337108 336.882465 
L 416.515121 336.882465 
L 419.693135 336.882465 
L 422.871148 336.882465 
L 426.049161 336.882465 
L 429.227175 336.882465 
L 432.405188 336.882465 
L 435.583202 336.882465 
L 438.761215 336.882465 
L 441.939229 336.882465 
L 445.117242 336.882465 
L 448.295255 336.882465 
L 451.473269 336.882465 
L 454.651282 336.882465 
L 457.829296 336.882465 
L 461.007309 336.882465 
L 464.185323 336.882465 
L 467.363336 336.882465 
L 470.541349 336.882465 
L 473.719363 336.882465 
L 476.897376 336.882465 
L 480.07539 336.882465 
L 483.253403 336.882465 
" style="fill:none;stroke:#9467bd;stroke-linecap:square;stroke-width:1.5;"/>
   </g>
   <g id="line2d_22">
    <path clip-path="url(#pc430ed2d6b)" d="M 117.216173 294.830285 
L 120.394186 275.715658 
L 123.572199 291.007359 
L 126.750213 317.767838 
L 129.928226 317.767838 
L 133.10624 336.882465 
L 136.284253 344.528316 
L 139.462267 344.528316 
L 142.64028 340.70539 
L 145.818293 348.351241 
L 148.996307 352.174167 
L 152.17432 352.174167 
L 155.352334 352.174167 
L 158.530347 352.174167 
L 161.708361 352.174167 
L 164.886374 352.174167 
L 168.064387 352.174167 
L 171.242401 352.174167 
L 174.420414 352.174167 
L 177.598428 352.174167 
L 180.776441 352.174167 
L 183.954454 352.174167 
L 187.132468 352.174167 
L 190.310481 352.174167 
L 193.488495 352.174167 
L 196.666508 352.174167 
L 199.844522 352.174167 
L 203.022535 352.174167 
L 206.200548 352.174167 
L 209.378562 352.174167 
L 212.556575 348.351241 
L 215.734589 348.351241 
L 218.912602 352.174167 
L 222.090616 352.174167 
L 225.268629 352.174167 
L 228.446642 352.174167 
L 231.624656 352.174167 
L 234.802669 352.174167 
L 237.980683 352.174167 
L 241.158696 352.174167 
L 244.33671 352.174167 
L 247.514723 352.174167 
L 250.692736 352.174167 
L 253.87075 352.174167 
L 257.048763 352.174167 
L 260.226777 352.174167 
L 263.40479 352.174167 
L 266.582804 352.174167 
L 269.760817 352.174167 
L 272.93883 352.174167 
L 276.116844 352.174167 
L 279.294857 352.174167 
L 282.472871 352.174167 
L 285.650884 344.528316 
L 288.828898 340.70539 
L 292.006911 336.882465 
L 295.184924 336.882465 
L 298.362938 336.882465 
L 301.540951 336.882465 
L 304.718965 336.882465 
L 307.896978 336.882465 
L 311.074992 336.882465 
L 314.253005 336.882465 
L 317.431018 336.882465 
L 320.609032 336.882465 
L 323.787045 336.882465 
L 326.965059 336.882465 
L 330.143072 336.882465 
L 333.321086 336.882465 
L 336.499099 336.882465 
L 339.677112 336.882465 
L 342.855126 336.882465 
L 346.033139 336.882465 
L 349.211153 336.882465 
L 352.389166 329.236614 
L 355.56718 333.059539 
L 358.745193 333.059539 
L 361.923206 333.059539 
L 365.10122 333.059539 
L 368.279233 333.059539 
L 371.457247 333.059539 
L 374.63526 333.059539 
L 377.813274 333.059539 
L 380.991287 333.059539 
L 384.1693 333.059539 
L 387.347314 333.059539 
L 390.525327 333.059539 
L 393.703341 333.059539 
L 396.881354 333.059539 
L 400.059368 333.059539 
L 403.237381 333.059539 
L 406.415394 333.059539 
L 409.593408 333.059539 
L 412.771421 333.059539 
L 415.949435 336.882465 
L 419.127448 333.059539 
L 422.305462 333.059539 
L 425.483475 336.882465 
L 428.661488 336.882465 
L 431.839502 336.882465 
L 435.017515 336.882465 
L 438.195529 336.882465 
L 441.373542 336.882465 
L 444.551556 336.882465 
L 447.729569 336.882465 
L 450.907582 336.882465 
L 454.085596 336.882465 
L 457.263609 333.059539 
L 460.441623 336.882465 
L 463.619636 333.059539 
L 466.79765 336.882465 
L 469.975663 336.882465 
" style="fill:none;stroke:#8c564b;stroke-linecap:square;stroke-width:1.5;"/>
   </g>
   <g id="line2d_23">
    <path clip-path="url(#pc430ed2d6b)" d="M 164.568573 352.174167 
L 167.746586 352.174167 
L 170.924599 352.174167 
L 174.102613 348.351241 
L 177.280626 348.351241 
L 180.45864 344.528316 
L 183.636653 344.528316 
L 186.814667 336.882465 
L 189.99268 340.70539 
L 193.170693 336.882465 
L 196.348707 336.882465 
L 199.52672 336.882465 
L 202.704734 329.236614 
L 205.882747 340.70539 
L 209.060761 325.413688 
L 212.238774 336.882465 
L 215.416787 325.413688 
L 218.594801 313.944912 
L 221.772814 329.236614 
L 224.950828 333.059539 
L 228.128841 340.70539 
L 231.306855 340.70539 
L 234.484868 336.882465 
L 237.662881 344.528316 
L 240.840895 336.882465 
L 244.018908 344.528316 
L 247.196922 336.882465 
L 250.374935 340.70539 
L 253.552949 336.882465 
L 256.730962 340.70539 
L 259.908975 340.70539 
L 263.086989 336.882465 
L 266.265002 340.70539 
L 269.443016 333.059539 
L 272.621029 336.882465 
L 275.799043 340.70539 
L 278.977056 336.882465 
L 282.155069 340.70539 
L 285.333083 336.882465 
L 288.511096 340.70539 
L 291.68911 336.882465 
L 294.867123 336.882465 
L 298.045137 336.882465 
L 301.22315 336.882465 
L 304.401163 336.882465 
L 307.579177 336.882465 
L 310.75719 336.882465 
L 313.935204 336.882465 
L 317.113217 336.882465 
L 320.291231 336.882465 
L 323.469244 336.882465 
L 326.647257 336.882465 
L 329.825271 336.882465 
L 333.003284 336.882465 
L 336.181298 336.882465 
L 339.359311 336.882465 
L 342.537325 336.882465 
L 345.715338 336.882465 
L 348.893351 336.882465 
L 352.071365 336.882465 
L 355.249378 336.882465 
L 358.427392 336.882465 
L 361.605405 336.882465 
L 364.783419 336.882465 
L 367.961432 336.882465 
L 371.139445 336.882465 
L 374.317459 336.882465 
L 377.495472 336.882465 
L 380.673486 336.882465 
L 383.851499 336.882465 
L 387.029513 336.882465 
L 390.207526 336.882465 
L 393.385539 336.882465 
L 396.563553 336.882465 
L 399.741566 336.882465 
L 402.91958 336.882465 
L 406.097593 336.882465 
L 409.275607 336.882465 
L 412.45362 336.882465 
L 415.631633 336.882465 
L 418.809647 336.882465 
L 421.98766 336.882465 
L 425.165674 336.882465 
L 428.343687 336.882465 
L 431.521701 336.882465 
L 434.699714 336.882465 
L 437.877727 336.882465 
L 441.055741 336.882465 
L 444.233754 336.882465 
L 447.411768 336.882465 
L 450.589781 336.882465 
L 453.767794 336.882465 
L 456.945808 336.882465 
L 460.123821 336.882465 
L 463.301835 336.882465 
L 466.479848 336.882465 
L 469.657862 336.882465 
L 472.835875 336.882465 
L 476.013888 336.882465 
L 479.191902 336.882465 
L 482.369915 336.882465 
L 485.547929 336.882465 
L 488.725942 333.059539 
L 491.903956 333.059539 
L 495.081969 336.882465 
L 498.259982 336.882465 
L 501.437996 336.882465 
L 504.616009 336.882465 
L 507.794023 336.882465 
L 510.972036 333.059539 
L 514.15005 333.059539 
" style="fill:none;stroke:#e377c2;stroke-linecap:square;stroke-width:1.5;"/>
   </g>
   <g id="line2d_24">
    <path clip-path="url(#pc430ed2d6b)" d="M 104.408778 69.277683 
L 107.586792 50.163056 
L 110.764805 168.673745 
L 113.942819 199.257148 
L 117.120832 283.361508 
L 120.298846 310.121987 
L 123.476859 333.059539 
L 126.654872 344.528316 
L 129.832886 344.528316 
L 133.010899 348.351241 
L 136.188913 352.174167 
L 139.366926 352.174167 
L 142.54494 352.174167 
L 145.722953 352.174167 
L 148.900966 352.174167 
L 152.07898 352.174167 
L 155.256993 352.174167 
L 158.435007 352.174167 
L 161.61302 352.174167 
L 164.791034 352.174167 
L 167.969047 352.174167 
L 171.14706 352.174167 
L 174.325074 352.174167 
L 177.503087 352.174167 
L 180.681101 352.174167 
L 183.859114 352.174167 
L 187.037128 352.174167 
L 190.215141 352.174167 
L 193.393154 352.174167 
L 196.571168 352.174167 
L 199.749181 352.174167 
L 202.927195 352.174167 
L 206.105208 352.174167 
L 209.283222 352.174167 
L 212.461235 352.174167 
L 215.639248 352.174167 
L 218.817262 352.174167 
L 221.995275 352.174167 
L 225.173289 352.174167 
L 228.351302 352.174167 
L 231.529316 352.174167 
L 234.707329 352.174167 
L 237.885342 352.174167 
L 241.063356 352.174167 
L 244.241369 352.174167 
L 247.419383 352.174167 
L 250.597396 352.174167 
L 253.77541 352.174167 
L 256.953423 352.174167 
L 260.131436 352.174167 
L 263.30945 352.174167 
L 266.487463 352.174167 
L 269.665477 352.174167 
L 272.84349 352.174167 
L 276.021503 352.174167 
L 279.199517 352.174167 
L 282.37753 352.174167 
L 285.555544 352.174167 
L 288.733557 344.528316 
L 291.911571 340.70539 
L 295.089584 336.882465 
L 298.267597 336.882465 
L 301.445611 336.882465 
L 304.623624 336.882465 
L 307.801638 336.882465 
L 310.979651 336.882465 
L 314.157665 336.882465 
L 317.335678 336.882465 
L 320.513691 336.882465 
L 323.691705 336.882465 
L 326.869718 336.882465 
L 330.047732 336.882465 
L 333.225745 336.882465 
L 336.403759 336.882465 
L 339.581772 336.882465 
L 342.759785 336.882465 
L 345.937799 336.882465 
L 349.115812 336.882465 
L 352.293826 333.059539 
L 355.471839 333.059539 
L 358.649853 336.882465 
L 361.827866 336.882465 
L 365.005879 336.882465 
L 368.183893 336.882465 
L 371.361906 336.882465 
L 374.53992 336.882465 
L 377.717933 336.882465 
L 380.895947 336.882465 
L 384.07396 336.882465 
L 387.251973 336.882465 
L 390.429987 336.882465 
L 393.608 336.882465 
L 396.786014 336.882465 
L 399.964027 336.882465 
L 403.142041 336.882465 
L 406.320054 336.882465 
L 409.498067 336.882465 
L 412.676081 336.882465 
L 415.854094 336.882465 
L 419.032108 336.882465 
L 422.210121 336.882465 
L 425.388135 336.882465 
L 428.566148 336.882465 
L 431.744161 336.882465 
L 434.922175 336.882465 
L 438.100188 336.882465 
L 441.278202 336.882465 
L 444.456215 336.882465 
L 447.634229 336.882465 
L 450.812242 336.882465 
L 453.990255 336.882465 
L 457.168269 336.882465 
L 460.346282 336.882465 
L 463.524296 336.882465 
L 466.702309 336.882465 
" style="fill:none;stroke:#7f7f7f;stroke-linecap:square;stroke-width:1.5;"/>
   </g>
   <g id="line2d_25">
    <path clip-path="url(#pc430ed2d6b)" d="M 141.330938 352.174167 
L 144.508952 352.174167 
L 147.686965 340.70539 
L 150.864979 317.767838 
L 154.042992 291.007359 
L 157.221006 279.538583 
L 160.399019 271.892732 
L 163.577032 275.715658 
L 166.755046 291.007359 
L 169.933059 298.65321 
L 173.111073 298.65321 
L 176.289086 306.299061 
L 179.4671 310.121987 
L 182.645113 317.767838 
L 185.823126 321.590763 
L 189.00114 317.767838 
L 192.179153 325.413688 
L 195.357167 321.590763 
L 198.53518 325.413688 
L 201.713194 325.413688 
L 204.891207 321.590763 
L 208.06922 321.590763 
L 211.247234 333.059539 
L 214.425247 325.413688 
L 217.603261 352.174167 
L 220.781274 321.590763 
L 223.959288 317.767838 
L 227.137301 317.767838 
L 230.315314 325.413688 
L 233.493328 317.767838 
L 236.671341 325.413688 
L 239.849355 317.767838 
L 243.027368 325.413688 
L 246.205382 313.944912 
L 249.383395 325.413688 
L 252.561408 317.767838 
L 255.739422 321.590763 
L 258.917435 321.590763 
L 262.095449 313.944912 
L 265.273462 317.767838 
L 268.451476 317.767838 
L 271.629489 306.299061 
L 274.807502 313.944912 
L 277.985516 321.590763 
L 281.163529 313.944912 
L 284.341543 321.590763 
L 287.519556 329.236614 
L 290.69757 325.413688 
L 293.875583 329.236614 
L 297.053596 333.059539 
L 300.23161 333.059539 
L 303.409623 333.059539 
L 306.587637 333.059539 
L 309.76565 333.059539 
L 312.943663 333.059539 
L 316.121677 333.059539 
L 319.29969 333.059539 
L 322.477704 333.059539 
L 325.655717 336.882465 
L 328.833731 336.882465 
L 332.011744 336.882465 
L 335.189757 336.882465 
L 338.367771 336.882465 
L 341.545784 336.882465 
L 344.723798 336.882465 
L 347.901811 336.882465 
L 351.079825 336.882465 
L 354.257838 336.882465 
L 357.435851 336.882465 
L 360.613865 336.882465 
L 363.791878 336.882465 
L 366.969892 336.882465 
L 370.147905 336.882465 
L 373.325919 336.882465 
L 376.503932 336.882465 
L 379.681945 336.882465 
L 382.859959 336.882465 
L 386.037972 336.882465 
L 389.215986 336.882465 
L 392.393999 336.882465 
L 395.572013 336.882465 
L 398.750026 336.882465 
L 401.928039 336.882465 
L 405.106053 336.882465 
L 408.284066 336.882465 
L 411.46208 336.882465 
L 414.640093 336.882465 
L 417.818107 336.882465 
L 420.99612 336.882465 
L 424.174133 336.882465 
L 427.352147 336.882465 
L 430.53016 336.882465 
L 433.708174 336.882465 
L 436.886187 336.882465 
L 440.064201 336.882465 
L 443.242214 336.882465 
L 446.420227 336.882465 
L 449.598241 336.882465 
L 452.776254 336.882465 
L 455.954268 336.882465 
L 459.132281 336.882465 
L 462.310295 336.882465 
L 465.488308 336.882465 
L 468.666321 336.882465 
L 471.844335 333.059539 
L 475.022348 336.882465 
L 478.200362 336.882465 
L 481.378375 336.882465 
L 484.556389 336.882465 
L 487.734402 336.882465 
L 490.912415 336.882465 
L 494.090429 336.882465 
L 497.268442 336.882465 
L 500.446456 336.882465 
L 503.624469 336.882465 
L 506.802483 333.059539 
L 509.980496 333.059539 
L 513.158509 329.236614 
" style="fill:none;stroke:#bcbd22;stroke-linecap:square;stroke-width:1.5;"/>
   </g>
   <g id="line2d_26">
    <path clip-path="url(#pc430ed2d6b)" d="M 134.116848 344.528316 
L 137.294861 283.361508 
L 140.472875 252.778105 
L 143.650888 248.955179 
L 146.828902 268.069807 
L 150.006915 275.715658 
L 153.184928 291.007359 
L 156.362942 302.476136 
L 159.540955 306.299061 
L 162.718969 310.121987 
L 165.896982 310.121987 
L 169.074996 302.476136 
L 172.253009 313.944912 
L 175.431022 321.590763 
L 178.609036 325.413688 
L 181.787049 333.059539 
L 184.965063 336.882465 
L 188.143076 340.70539 
L 191.32109 329.236614 
L 194.499103 352.174167 
L 197.677116 336.882465 
L 200.85513 344.528316 
L 204.033143 348.351241 
L 207.211157 352.174167 
L 210.38917 352.174167 
L 213.567184 340.70539 
L 216.745197 325.413688 
L 219.92321 294.830285 
L 223.101224 329.236614 
L 226.279237 325.413688 
L 229.457251 325.413688 
L 232.635264 321.590763 
L 235.813278 321.590763 
L 238.991291 321.590763 
L 242.169304 321.590763 
L 245.347318 325.413688 
L 248.525331 321.590763 
L 251.703345 321.590763 
L 254.881358 321.590763 
L 258.059372 321.590763 
L 261.237385 321.590763 
L 264.415398 317.767838 
L 267.593412 317.767838 
L 270.771425 310.121987 
L 273.949439 317.767838 
L 277.127452 317.767838 
L 280.305466 325.413688 
L 283.483479 317.767838 
L 286.661492 325.413688 
L 289.839506 329.236614 
L 293.017519 329.236614 
L 296.195533 333.059539 
L 299.373546 333.059539 
L 302.55156 336.882465 
L 305.729573 336.882465 
L 308.907586 336.882465 
L 312.0856 336.882465 
L 315.263613 336.882465 
L 318.441627 336.882465 
L 321.61964 336.882465 
L 324.797654 336.882465 
L 327.975667 336.882465 
L 331.15368 336.882465 
L 334.331694 336.882465 
L 337.509707 336.882465 
L 340.687721 336.882465 
L 343.865734 336.882465 
L 347.043748 336.882465 
L 350.221761 336.882465 
L 353.399774 336.882465 
L 356.577788 333.059539 
L 359.755801 336.882465 
L 362.933815 336.882465 
L 366.111828 336.882465 
L 369.289842 336.882465 
L 372.467855 336.882465 
L 375.645868 336.882465 
L 378.823882 336.882465 
L 382.001895 336.882465 
L 385.179909 336.882465 
L 388.357922 336.882465 
L 391.535936 336.882465 
L 394.713949 336.882465 
L 397.891962 336.882465 
L 401.069976 336.882465 
L 404.247989 336.882465 
L 407.426003 336.882465 
L 410.604016 336.882465 
L 413.78203 336.882465 
L 416.960043 336.882465 
L 420.138056 336.882465 
L 423.31607 336.882465 
L 426.494083 336.882465 
L 429.672097 336.882465 
L 432.85011 336.882465 
L 436.028124 336.882465 
L 439.206137 336.882465 
L 442.38415 336.882465 
L 445.562164 336.882465 
L 448.740177 336.882465 
L 451.918191 336.882465 
L 455.096204 336.882465 
L 458.274218 336.882465 
L 461.452231 336.882465 
L 464.630244 336.882465 
L 467.808258 336.882465 
L 470.986271 336.882465 
L 474.164285 336.882465 
L 477.342298 336.882465 
L 480.520312 336.882465 
L 483.698325 336.882465 
L 486.876338 336.882465 
L 490.054352 336.882465 
L 493.232365 336.882465 
L 496.410379 336.882465 
L 499.588392 336.882465 
L 502.766406 336.882465 
L 505.944419 333.059539 
L 509.122432 333.059539 
" style="fill:none;stroke:#17becf;stroke-linecap:square;stroke-width:1.5;"/>
   </g>
   <g id="line2d_27">
    <path clip-path="url(#pc430ed2d6b)" d="M 123.680252 317.767838 
L 126.858265 275.715658 
L 130.036279 287.184434 
L 133.214292 306.299061 
L 136.392306 325.413688 
L 139.570319 329.236614 
L 142.748332 325.413688 
L 145.926346 329.236614 
L 149.104359 340.70539 
L 152.282373 344.528316 
L 155.460386 344.528316 
L 158.6384 348.351241 
L 161.816413 348.351241 
L 164.994426 344.528316 
L 168.17244 348.351241 
L 171.350453 348.351241 
L 174.528467 348.351241 
L 177.70648 352.174167 
L 180.884494 352.174167 
L 184.062507 348.351241 
L 187.24052 352.174167 
L 190.418534 352.174167 
L 193.596547 352.174167 
L 196.774561 352.174167 
L 199.952574 352.174167 
L 203.130588 352.174167 
L 206.308601 352.174167 
L 209.486614 352.174167 
L 212.664628 348.351241 
L 215.842641 344.528316 
L 219.020655 348.351241 
L 222.198668 348.351241 
L 225.376682 352.174167 
L 228.554695 348.351241 
L 231.732708 352.174167 
L 234.910722 348.351241 
L 238.088735 352.174167 
L 241.266749 348.351241 
L 244.444762 348.351241 
L 247.622776 348.351241 
L 250.800789 348.351241 
L 253.978802 348.351241 
L 257.156816 348.351241 
L 260.334829 348.351241 
L 263.512843 348.351241 
L 266.690856 348.351241 
L 269.868869 348.351241 
L 273.046883 348.351241 
L 276.224896 348.351241 
L 279.40291 348.351241 
L 282.580923 348.351241 
L 285.758937 344.528316 
L 288.93695 340.70539 
L 292.114963 340.70539 
L 295.292977 336.882465 
L 298.47099 336.882465 
L 301.649004 336.882465 
L 304.827017 336.882465 
L 308.005031 336.882465 
L 311.183044 336.882465 
L 314.361057 336.882465 
L 317.539071 336.882465 
L 320.717084 336.882465 
L 323.895098 336.882465 
L 327.073111 336.882465 
L 330.251125 336.882465 
L 333.429138 336.882465 
L 336.607151 336.882465 
L 339.785165 336.882465 
L 342.963178 336.882465 
L 346.141192 336.882465 
L 349.319205 336.882465 
L 352.497219 336.882465 
L 355.675232 336.882465 
L 358.853245 336.882465 
L 362.031259 336.882465 
L 365.209272 336.882465 
L 368.387286 336.882465 
L 371.565299 336.882465 
L 374.743313 336.882465 
L 377.921326 336.882465 
L 381.099339 336.882465 
L 384.277353 336.882465 
L 387.455366 336.882465 
L 390.63338 336.882465 
L 393.811393 336.882465 
L 396.989407 336.882465 
L 400.16742 336.882465 
L 403.345433 336.882465 
L 406.523447 336.882465 
L 409.70146 336.882465 
L 412.879474 336.882465 
L 416.057487 336.882465 
L 419.235501 336.882465 
L 422.413514 336.882465 
L 425.591527 336.882465 
L 428.769541 336.882465 
L 431.947554 336.882465 
L 435.125568 336.882465 
L 438.303581 336.882465 
L 441.481595 336.882465 
L 444.659608 336.882465 
L 447.837621 336.882465 
L 451.015635 336.882465 
L 454.193648 336.882465 
L 457.371662 336.882465 
L 460.549675 336.882465 
L 463.727689 336.882465 
L 466.905702 336.882465 
L 470.083715 336.882465 
L 473.261729 336.882465 
L 476.439742 336.882465 
L 479.617756 336.882465 
" style="fill:none;stroke:#1f77b4;stroke-linecap:square;stroke-width:1.5;"/>
   </g>
   <g id="line2d_28">
    <path clip-path="url(#pc430ed2d6b)" d="M 171.223333 352.174167 
L 174.401346 352.174167 
L 177.57936 352.174167 
L 180.757373 352.174167 
L 183.935386 352.174167 
L 187.1134 348.351241 
L 190.291413 348.351241 
L 193.469427 348.351241 
L 196.64744 348.351241 
L 199.825454 348.351241 
L 203.003467 344.528316 
L 206.18148 348.351241 
L 209.359494 344.528316 
L 212.537507 348.351241 
L 215.715521 344.528316 
L 218.893534 336.882465 
L 222.071548 333.059539 
L 225.249561 313.944912 
L 228.427574 306.299061 
L 231.605588 317.767838 
L 234.783601 317.767838 
L 237.961615 321.590763 
L 241.139628 317.767838 
L 244.317642 321.590763 
L 247.495655 317.767838 
L 250.673668 336.882465 
L 253.851682 336.882465 
L 257.029695 336.882465 
L 260.207709 336.882465 
L 263.385722 340.70539 
L 266.563736 336.882465 
L 269.741749 333.059539 
L 272.919762 336.882465 
L 276.097776 317.767838 
L 279.275789 321.590763 
L 282.453803 325.413688 
L 285.631816 321.590763 
L 288.80983 325.413688 
L 291.987843 329.236614 
L 295.165856 329.236614 
L 298.34387 333.059539 
L 301.521883 333.059539 
L 304.699897 333.059539 
L 307.87791 336.882465 
L 311.055924 336.882465 
L 314.233937 336.882465 
L 317.41195 336.882465 
L 320.589964 336.882465 
L 323.767977 336.882465 
L 326.945991 336.882465 
L 330.124004 336.882465 
L 333.302018 336.882465 
L 336.480031 336.882465 
L 339.658044 336.882465 
L 342.836058 336.882465 
L 346.014071 336.882465 
L 349.192085 336.882465 
L 352.370098 336.882465 
L 355.548112 336.882465 
L 358.726125 336.882465 
L 361.904138 336.882465 
L 365.082152 336.882465 
L 368.260165 336.882465 
L 371.438179 336.882465 
L 374.616192 336.882465 
L 377.794205 336.882465 
L 380.972219 336.882465 
L 384.150232 336.882465 
L 387.328246 336.882465 
L 390.506259 336.882465 
L 393.684273 336.882465 
L 396.862286 336.882465 
L 400.040299 336.882465 
L 403.218313 336.882465 
L 406.396326 336.882465 
L 409.57434 336.882465 
L 412.752353 336.882465 
L 415.930367 336.882465 
L 419.10838 336.882465 
L 422.286393 336.882465 
L 425.464407 336.882465 
L 428.64242 336.882465 
L 431.820434 336.882465 
L 434.998447 336.882465 
L 438.176461 336.882465 
L 441.354474 336.882465 
L 444.532487 336.882465 
L 447.710501 336.882465 
L 450.888514 336.882465 
L 454.066528 336.882465 
L 457.244541 336.882465 
L 460.422555 336.882465 
L 463.600568 336.882465 
L 466.778581 336.882465 
L 469.956595 333.059539 
L 473.134608 336.882465 
L 476.312622 336.882465 
L 479.490635 336.882465 
L 482.668649 336.882465 
L 485.846662 336.882465 
L 489.024675 336.882465 
L 492.202689 336.882465 
L 495.380702 336.882465 
L 498.558716 336.882465 
L 501.736729 336.882465 
L 504.914743 336.882465 
L 508.092756 333.059539 
L 511.270769 333.059539 
L 514.448783 329.236614 
L 517.626796 329.236614 
L 520.80481 329.236614 
" style="fill:none;stroke:#ff7f0e;stroke-linecap:square;stroke-width:1.5;"/>
   </g>
   <g id="line2d_29">
    <path clip-path="url(#pc430ed2d6b)" d="M 110.777517 237.486403 
L 113.955531 206.902999 
L 117.133544 264.246881 
L 120.311558 291.007359 
L 123.489571 317.767838 
L 126.667584 336.882465 
L 129.845598 340.70539 
L 133.023611 344.528316 
L 136.201625 352.174167 
L 139.379638 352.174167 
L 142.557652 352.174167 
L 145.735665 352.174167 
L 148.913678 352.174167 
L 152.091692 352.174167 
L 155.269705 352.174167 
L 158.447719 352.174167 
L 161.625732 352.174167 
L 164.803746 352.174167 
L 167.981759 352.174167 
L 171.159772 352.174167 
L 174.337786 352.174167 
L 177.515799 352.174167 
L 180.693813 352.174167 
L 183.871826 352.174167 
L 187.04984 352.174167 
L 190.227853 352.174167 
L 193.405866 352.174167 
L 196.58388 352.174167 
L 199.761893 352.174167 
L 202.939907 352.174167 
L 206.11792 352.174167 
L 209.295934 352.174167 
L 212.473947 352.174167 
L 215.65196 352.174167 
L 218.829974 352.174167 
L 222.007987 352.174167 
L 225.186001 352.174167 
L 228.364014 352.174167 
L 231.542028 352.174167 
L 234.720041 352.174167 
L 237.898054 352.174167 
L 241.076068 352.174167 
L 244.254081 352.174167 
L 247.432095 352.174167 
L 250.610108 352.174167 
L 253.788122 352.174167 
L 256.966135 352.174167 
L 260.144148 352.174167 
L 263.322162 352.174167 
L 266.500175 352.174167 
L 269.678189 352.174167 
L 272.856202 352.174167 
L 276.034216 352.174167 
L 279.212229 352.174167 
L 282.390242 352.174167 
L 285.568256 352.174167 
L 288.746269 344.528316 
L 291.924283 340.70539 
L 295.102296 336.882465 
L 298.28031 336.882465 
L 301.458323 336.882465 
L 304.636336 336.882465 
L 307.81435 336.882465 
L 310.992363 336.882465 
L 314.170377 336.882465 
L 317.34839 336.882465 
L 320.526404 336.882465 
L 323.704417 336.882465 
L 326.88243 336.882465 
L 330.060444 336.882465 
L 333.238457 336.882465 
L 336.416471 336.882465 
L 339.594484 336.882465 
L 342.772498 336.882465 
L 345.950511 336.882465 
L 349.128524 336.882465 
L 352.306538 329.236614 
L 355.484551 333.059539 
L 358.662565 333.059539 
L 361.840578 333.059539 
L 365.018592 333.059539 
L 368.196605 333.059539 
L 371.374618 333.059539 
L 374.552632 333.059539 
L 377.730645 333.059539 
L 380.908659 333.059539 
L 384.086672 333.059539 
L 387.264686 333.059539 
L 390.442699 333.059539 
L 393.620712 333.059539 
L 396.798726 333.059539 
L 399.976739 333.059539 
L 403.154753 333.059539 
L 406.332766 333.059539 
L 409.51078 333.059539 
L 412.688793 333.059539 
L 415.866806 325.413688 
L 419.04482 325.413688 
L 422.222833 329.236614 
L 425.400847 333.059539 
L 428.57886 333.059539 
L 431.756873 333.059539 
L 434.934887 333.059539 
L 438.1129 333.059539 
L 441.290914 333.059539 
L 444.468927 333.059539 
L 447.646941 333.059539 
L 450.824954 333.059539 
L 454.002967 333.059539 
L 457.180981 333.059539 
L 460.358994 333.059539 
L 463.537008 333.059539 
" style="fill:none;stroke:#2ca02c;stroke-linecap:square;stroke-width:1.5;"/>
   </g>
   <g id="line2d_30">
    <path clip-path="url(#pc430ed2d6b)" d="M 157.34177 352.174167 
L 160.519783 352.174167 
L 163.697797 352.174167 
L 166.87581 348.351241 
L 170.053824 344.528316 
L 173.231837 336.882465 
L 176.409851 321.590763 
L 179.587864 306.299061 
L 182.765877 294.830285 
L 185.943891 279.538583 
L 189.121904 279.538583 
L 192.299918 271.892732 
L 195.477931 264.246881 
L 198.655945 271.892732 
L 201.833958 256.60103 
L 205.011971 275.715658 
L 208.189985 256.60103 
L 211.367998 264.246881 
L 214.546012 256.60103 
L 217.724025 279.538583 
L 220.902039 279.538583 
L 224.080052 352.174167 
L 227.258065 306.299061 
L 230.436079 302.476136 
L 233.614092 298.65321 
L 236.792106 298.65321 
L 239.970119 302.476136 
L 243.148133 298.65321 
L 246.326146 302.476136 
L 249.504159 294.830285 
L 252.682173 302.476136 
L 255.860186 294.830285 
L 259.0382 298.65321 
L 262.216213 298.65321 
L 265.394227 294.830285 
L 268.57224 325.413688 
L 271.750253 298.65321 
L 274.928267 321.590763 
L 278.10628 321.590763 
L 281.284294 302.476136 
L 284.462307 306.299061 
L 287.640321 306.299061 
L 290.818334 313.944912 
L 293.996347 321.590763 
L 297.174361 329.236614 
L 300.352374 333.059539 
L 303.530388 333.059539 
L 306.708401 333.059539 
L 309.886415 333.059539 
L 313.064428 333.059539 
L 316.242441 333.059539 
L 319.420455 333.059539 
L 322.598468 333.059539 
L 325.776482 333.059539 
L 328.954495 333.059539 
L 332.132509 333.059539 
L 335.310522 333.059539 
L 338.488535 333.059539 
L 341.666549 333.059539 
L 344.844562 333.059539 
L 348.022576 333.059539 
L 351.200589 333.059539 
L 354.378603 333.059539 
L 357.556616 336.882465 
L 360.734629 336.882465 
L 363.912643 336.882465 
L 367.090656 336.882465 
L 370.26867 336.882465 
L 373.446683 336.882465 
L 376.624697 336.882465 
L 379.80271 336.882465 
L 382.980723 336.882465 
L 386.158737 336.882465 
L 389.33675 336.882465 
L 392.514764 336.882465 
L 395.692777 336.882465 
L 398.870791 336.882465 
L 402.048804 336.882465 
L 405.226817 336.882465 
L 408.404831 336.882465 
L 411.582844 336.882465 
L 414.760858 336.882465 
L 417.938871 336.882465 
L 421.116885 336.882465 
L 424.294898 336.882465 
L 427.472911 336.882465 
L 430.650925 336.882465 
L 433.828938 336.882465 
L 437.006952 336.882465 
L 440.184965 336.882465 
L 443.362979 336.882465 
L 446.540992 336.882465 
L 449.719005 336.882465 
L 452.897019 336.882465 
L 456.075032 336.882465 
L 459.253046 336.882465 
L 462.431059 336.882465 
L 465.609073 336.882465 
L 468.787086 336.882465 
L 471.965099 336.882465 
L 475.143113 336.882465 
L 478.321126 336.882465 
L 481.49914 336.882465 
L 484.677153 336.882465 
L 487.855167 333.059539 
L 491.03318 333.059539 
L 494.211193 336.882465 
L 497.389207 336.882465 
L 500.56722 336.882465 
L 503.745234 336.882465 
L 506.923247 336.882465 
L 510.101261 333.059539 
L 513.279274 333.059539 
L 516.457287 333.059539 
L 519.635301 329.236614 
" style="fill:none;stroke:#d62728;stroke-linecap:square;stroke-width:1.5;"/>
   </g>
   <g id="line2d_31">
    <path clip-path="url(#pc430ed2d6b)" d="M 138.121145 352.174167 
L 141.299158 352.174167 
L 144.477172 340.70539 
L 147.655185 317.767838 
L 150.833199 291.007359 
L 154.011212 279.538583 
L 157.189225 275.715658 
L 160.367239 275.715658 
L 163.545252 287.184434 
L 166.723266 294.830285 
L 169.901279 298.65321 
L 173.079293 306.299061 
L 176.257306 313.944912 
L 179.435319 317.767838 
L 182.613333 317.767838 
L 185.791346 321.590763 
L 188.96936 325.413688 
L 192.147373 317.767838 
L 195.325387 329.236614 
L 198.5034 317.767838 
L 201.681413 325.413688 
L 204.859427 321.590763 
L 208.03744 333.059539 
L 211.215454 329.236614 
L 214.393467 352.174167 
L 217.571481 321.590763 
L 220.749494 313.944912 
L 223.927507 325.413688 
L 227.105521 321.590763 
L 230.283534 321.590763 
L 233.461548 317.767838 
L 236.639561 325.413688 
L 239.817575 317.767838 
L 242.995588 321.590763 
L 246.173601 317.767838 
L 249.351615 317.767838 
L 252.529628 317.767838 
L 255.707642 313.944912 
L 258.885655 321.590763 
L 262.063669 310.121987 
L 265.241682 317.767838 
L 268.419695 310.121987 
L 271.597709 306.299061 
L 274.775722 321.590763 
L 277.953736 313.944912 
L 281.131749 313.944912 
L 284.309763 329.236614 
L 287.487776 325.413688 
L 290.665789 329.236614 
L 293.843803 333.059539 
L 297.021816 333.059539 
L 300.19983 333.059539 
L 303.377843 333.059539 
L 306.555857 333.059539 
L 309.73387 333.059539 
L 312.911883 333.059539 
L 316.089897 333.059539 
L 319.26791 333.059539 
L 322.445924 333.059539 
L 325.623937 333.059539 
L 328.80195 333.059539 
L 331.979964 333.059539 
L 335.157977 333.059539 
L 338.335991 333.059539 
L 341.514004 333.059539 
L 344.692018 333.059539 
L 347.870031 333.059539 
L 351.048044 336.882465 
L 354.226058 336.882465 
L 357.404071 336.882465 
L 360.582085 336.882465 
L 363.760098 336.882465 
L 366.938112 336.882465 
L 370.116125 336.882465 
L 373.294138 336.882465 
L 376.472152 336.882465 
L 379.650165 336.882465 
L 382.828179 336.882465 
L 386.006192 336.882465 
L 389.184206 336.882465 
L 392.362219 336.882465 
L 395.540232 336.882465 
L 398.718246 336.882465 
L 401.896259 336.882465 
L 405.074273 336.882465 
L 408.252286 336.882465 
L 411.4303 336.882465 
L 414.608313 336.882465 
L 417.786326 333.059539 
L 420.96434 333.059539 
L 424.142353 336.882465 
L 427.320367 336.882465 
L 430.49838 336.882465 
L 433.676394 336.882465 
L 436.854407 336.882465 
L 440.03242 336.882465 
L 443.210434 336.882465 
L 446.388447 336.882465 
L 449.566461 336.882465 
L 452.744474 336.882465 
L 455.922488 336.882465 
L 459.100501 336.882465 
L 462.278514 336.882465 
L 465.456528 336.882465 
L 468.634541 336.882465 
L 471.812555 333.059539 
L 474.990568 336.882465 
L 478.168582 336.882465 
L 481.346595 333.059539 
L 484.524608 333.059539 
L 487.702622 333.059539 
L 490.880635 333.059539 
L 494.058649 333.059539 
L 497.236662 333.059539 
L 500.414676 333.059539 
L 503.592689 333.059539 
L 506.770702 333.059539 
" style="fill:none;stroke:#9467bd;stroke-linecap:square;stroke-width:1.5;"/>
   </g>
   <g id="line2d_32">
    <path clip-path="url(#pc430ed2d6b)" d="M 150.884047 352.174167 
L 154.06206 348.351241 
L 157.240074 344.528316 
L 160.418087 340.70539 
L 163.5961 340.70539 
L 166.774114 340.70539 
L 169.952127 336.882465 
L 173.130141 336.882465 
L 176.308154 336.882465 
L 179.486168 336.882465 
L 182.664181 340.70539 
L 185.842194 340.70539 
L 189.020208 344.528316 
L 192.198221 348.351241 
L 195.376235 348.351241 
L 198.554248 348.351241 
L 201.732262 348.351241 
L 204.910275 348.351241 
L 208.088288 348.351241 
L 211.266302 348.351241 
L 214.444315 348.351241 
L 217.622329 348.351241 
L 220.800342 352.174167 
L 223.978356 344.528316 
L 227.156369 344.528316 
L 230.334382 344.528316 
L 233.512396 344.528316 
L 236.690409 344.528316 
L 239.868423 344.528316 
L 243.046436 344.528316 
L 246.22445 344.528316 
L 249.402463 344.528316 
L 252.580476 340.70539 
L 255.75849 344.528316 
L 258.936503 340.70539 
L 262.114517 344.528316 
L 265.29253 344.528316 
L 268.470544 340.70539 
L 271.648557 344.528316 
L 274.82657 340.70539 
L 278.004584 340.70539 
L 281.182597 344.528316 
L 284.360611 340.70539 
L 287.538624 344.528316 
L 290.716638 340.70539 
L 293.894651 336.882465 
L 297.072664 336.882465 
L 300.250678 336.882465 
L 303.428691 336.882465 
L 306.606705 336.882465 
L 309.784718 336.882465 
L 312.962732 336.882465 
L 316.140745 336.882465 
L 319.318758 336.882465 
L 322.496772 336.882465 
L 325.674785 336.882465 
L 328.852799 336.882465 
L 332.030812 336.882465 
L 335.208826 336.882465 
L 338.386839 336.882465 
L 341.564852 336.882465 
L 344.742866 336.882465 
L 347.920879 336.882465 
L 351.098893 336.882465 
L 354.276906 336.882465 
L 357.45492 336.882465 
L 360.632933 336.882465 
L 363.810946 336.882465 
L 366.98896 336.882465 
L 370.166973 336.882465 
L 373.344987 336.882465 
L 376.523 336.882465 
L 379.701014 336.882465 
L 382.879027 336.882465 
L 386.05704 336.882465 
L 389.235054 336.882465 
L 392.413067 336.882465 
L 395.591081 336.882465 
L 398.769094 336.882465 
L 401.947108 336.882465 
L 405.125121 336.882465 
L 408.303134 336.882465 
L 411.481148 336.882465 
L 414.659161 336.882465 
L 417.837175 336.882465 
L 421.015188 336.882465 
L 424.193202 336.882465 
L 427.371215 336.882465 
L 430.549228 336.882465 
L 433.727242 336.882465 
L 436.905255 336.882465 
L 440.083269 336.882465 
L 443.261282 336.882465 
L 446.439296 336.882465 
L 449.617309 336.882465 
L 452.795322 336.882465 
L 455.973336 336.882465 
L 459.151349 336.882465 
L 462.329363 336.882465 
L 465.507376 336.882465 
L 468.68539 336.882465 
L 471.863403 336.882465 
L 475.041416 336.882465 
L 478.21943 336.882465 
L 481.397443 336.882465 
L 484.575457 336.882465 
L 487.75347 336.882465 
L 490.931484 336.882465 
L 494.109497 336.882465 
" style="fill:none;stroke:#8c564b;stroke-linecap:square;stroke-width:1.5;"/>
   </g>
   <g id="patch_3">
    <path d="M 83.472344 352.174167 
L 83.472344 35.0625 
" style="fill:none;stroke:#000000;stroke-linecap:square;stroke-linejoin:miter;stroke-width:0.8;"/>
   </g>
   <g id="patch_4">
    <path d="M 544.073906 352.174167 
L 544.073906 35.0625 
" style="fill:none;stroke:#000000;stroke-linecap:square;stroke-linejoin:miter;stroke-width:0.8;"/>
   </g>
   <g id="patch_5">
    <path d="M 83.472344 352.174167 
L 544.073906 352.174167 
" style="fill:none;stroke:#000000;stroke-linecap:square;stroke-linejoin:miter;stroke-width:0.8;"/>
   </g>
   <g id="patch_6">
    <path d="M 83.472344 35.0625 
L 544.073906 35.0625 
" style="fill:none;stroke:#000000;stroke-linecap:square;stroke-linejoin:miter;stroke-width:0.8;"/>
   </g>
   <g id="legend_1">
    <g id="patch_7">
     <path d="M 569.103984 272.9125 
L 630.636797 272.9125 
Q 632.636797 272.9125 632.636797 270.9125 
L 632.636797 37.0625 
Q 632.636797 35.0625 630.636797 35.0625 
L 569.103984 35.0625 
Q 567.103984 35.0625 567.103984 37.0625 
L 567.103984 270.9125 
Q 567.103984 272.9125 569.103984 272.9125 
z
" style="fill:#ffffff;opacity:0.8;stroke:#cccccc;stroke-linejoin:miter;"/>
    </g>
    <g id="line2d_33">
     <path d="M 571.103984 43.160937 
L 591.103984 43.160937 
" style="fill:none;stroke:#1f77b4;stroke-linecap:square;stroke-width:1.5;"/>
    </g>
    <g id="line2d_34"/>
    <g id="text_18">
     <!-- bbr-pi -->
     <defs>
      <path d="M 4.890625 31.390625 
L 31.203125 31.390625 
L 31.203125 23.390625 
L 4.890625 23.390625 
z
" id="DejaVuSans-45"/>
     </defs>
     <g transform="translate(599.103984 46.660937)scale(0.1 -0.1)">
      <use xlink:href="#DejaVuSans-98"/>
      <use x="63.476562" xlink:href="#DejaVuSans-98"/>
      <use x="126.953125" xlink:href="#DejaVuSans-114"/>
      <use x="167.972656" xlink:href="#DejaVuSans-45"/>
      <use x="204.056641" xlink:href="#DejaVuSans-112"/>
      <use x="267.533203" xlink:href="#DejaVuSans-105"/>
     </g>
    </g>
    <g id="line2d_35">
     <path d="M 571.103984 57.839063 
L 591.103984 57.839063 
" style="fill:none;stroke:#ff7f0e;stroke-linecap:square;stroke-width:1.5;"/>
    </g>
    <g id="line2d_36"/>
    <g id="text_19">
     <!-- bbr-pi -->
     <g transform="translate(599.103984 61.339063)scale(0.1 -0.1)">
      <use xlink:href="#DejaVuSans-98"/>
      <use x="63.476562" xlink:href="#DejaVuSans-98"/>
      <use x="126.953125" xlink:href="#DejaVuSans-114"/>
      <use x="167.972656" xlink:href="#DejaVuSans-45"/>
      <use x="204.056641" xlink:href="#DejaVuSans-112"/>
      <use x="267.533203" xlink:href="#DejaVuSans-105"/>
     </g>
    </g>
    <g id="line2d_37">
     <path d="M 571.103984 72.517187 
L 591.103984 72.517187 
" style="fill:none;stroke:#2ca02c;stroke-linecap:square;stroke-width:1.5;"/>
    </g>
    <g id="line2d_38"/>
    <g id="text_20">
     <!-- bbr-pi -->
     <g transform="translate(599.103984 76.017187)scale(0.1 -0.1)">
      <use xlink:href="#DejaVuSans-98"/>
      <use x="63.476562" xlink:href="#DejaVuSans-98"/>
      <use x="126.953125" xlink:href="#DejaVuSans-114"/>
      <use x="167.972656" xlink:href="#DejaVuSans-45"/>
      <use x="204.056641" xlink:href="#DejaVuSans-112"/>
      <use x="267.533203" xlink:href="#DejaVuSans-105"/>
     </g>
    </g>
    <g id="line2d_39">
     <path d="M 571.103984 87.195312 
L 591.103984 87.195312 
" style="fill:none;stroke:#d62728;stroke-linecap:square;stroke-width:1.5;"/>
    </g>
    <g id="line2d_40"/>
    <g id="text_21">
     <!-- bbr-pi -->
     <g transform="translate(599.103984 90.695312)scale(0.1 -0.1)">
      <use xlink:href="#DejaVuSans-98"/>
      <use x="63.476562" xlink:href="#DejaVuSans-98"/>
      <use x="126.953125" xlink:href="#DejaVuSans-114"/>
      <use x="167.972656" xlink:href="#DejaVuSans-45"/>
      <use x="204.056641" xlink:href="#DejaVuSans-112"/>
      <use x="267.533203" xlink:href="#DejaVuSans-105"/>
     </g>
    </g>
    <g id="line2d_41">
     <path d="M 571.103984 101.873438 
L 591.103984 101.873438 
" style="fill:none;stroke:#9467bd;stroke-linecap:square;stroke-width:1.5;"/>
    </g>
    <g id="line2d_42"/>
    <g id="text_22">
     <!-- bbr-pi -->
     <g transform="translate(599.103984 105.373438)scale(0.1 -0.1)">
      <use xlink:href="#DejaVuSans-98"/>
      <use x="63.476562" xlink:href="#DejaVuSans-98"/>
      <use x="126.953125" xlink:href="#DejaVuSans-114"/>
      <use x="167.972656" xlink:href="#DejaVuSans-45"/>
      <use x="204.056641" xlink:href="#DejaVuSans-112"/>
      <use x="267.533203" xlink:href="#DejaVuSans-105"/>
     </g>
    </g>
    <g id="line2d_43">
     <path d="M 571.103984 116.551563 
L 591.103984 116.551563 
" style="fill:none;stroke:#8c564b;stroke-linecap:square;stroke-width:1.5;"/>
    </g>
    <g id="line2d_44"/>
    <g id="text_23">
     <!-- bbr-pi -->
     <g transform="translate(599.103984 120.051563)scale(0.1 -0.1)">
      <use xlink:href="#DejaVuSans-98"/>
      <use x="63.476562" xlink:href="#DejaVuSans-98"/>
      <use x="126.953125" xlink:href="#DejaVuSans-114"/>
      <use x="167.972656" xlink:href="#DejaVuSans-45"/>
      <use x="204.056641" xlink:href="#DejaVuSans-112"/>
      <use x="267.533203" xlink:href="#DejaVuSans-105"/>
     </g>
    </g>
    <g id="line2d_45">
     <path d="M 571.103984 131.229687 
L 591.103984 131.229687 
" style="fill:none;stroke:#e377c2;stroke-linecap:square;stroke-width:1.5;"/>
    </g>
    <g id="line2d_46"/>
    <g id="text_24">
     <!-- bbr-pi -->
     <g transform="translate(599.103984 134.729687)scale(0.1 -0.1)">
      <use xlink:href="#DejaVuSans-98"/>
      <use x="63.476562" xlink:href="#DejaVuSans-98"/>
      <use x="126.953125" xlink:href="#DejaVuSans-114"/>
      <use x="167.972656" xlink:href="#DejaVuSans-45"/>
      <use x="204.056641" xlink:href="#DejaVuSans-112"/>
      <use x="267.533203" xlink:href="#DejaVuSans-105"/>
     </g>
    </g>
    <g id="line2d_47">
     <path d="M 571.103984 145.907812 
L 591.103984 145.907812 
" style="fill:none;stroke:#7f7f7f;stroke-linecap:square;stroke-width:1.5;"/>
    </g>
    <g id="line2d_48"/>
    <g id="text_25">
     <!-- bbr-pi -->
     <g transform="translate(599.103984 149.407812)scale(0.1 -0.1)">
      <use xlink:href="#DejaVuSans-98"/>
      <use x="63.476562" xlink:href="#DejaVuSans-98"/>
      <use x="126.953125" xlink:href="#DejaVuSans-114"/>
      <use x="167.972656" xlink:href="#DejaVuSans-45"/>
      <use x="204.056641" xlink:href="#DejaVuSans-112"/>
      <use x="267.533203" xlink:href="#DejaVuSans-105"/>
     </g>
    </g>
    <g id="line2d_49">
     <path d="M 571.103984 160.585938 
L 591.103984 160.585938 
" style="fill:none;stroke:#bcbd22;stroke-linecap:square;stroke-width:1.5;"/>
    </g>
    <g id="line2d_50"/>
    <g id="text_26">
     <!-- bbr-pi -->
     <g transform="translate(599.103984 164.085938)scale(0.1 -0.1)">
      <use xlink:href="#DejaVuSans-98"/>
      <use x="63.476562" xlink:href="#DejaVuSans-98"/>
      <use x="126.953125" xlink:href="#DejaVuSans-114"/>
      <use x="167.972656" xlink:href="#DejaVuSans-45"/>
      <use x="204.056641" xlink:href="#DejaVuSans-112"/>
      <use x="267.533203" xlink:href="#DejaVuSans-105"/>
     </g>
    </g>
    <g id="line2d_51">
     <path d="M 571.103984 175.264062 
L 591.103984 175.264062 
" style="fill:none;stroke:#17becf;stroke-linecap:square;stroke-width:1.5;"/>
    </g>
    <g id="line2d_52"/>
    <g id="text_27">
     <!-- bbr-pi -->
     <g transform="translate(599.103984 178.764062)scale(0.1 -0.1)">
      <use xlink:href="#DejaVuSans-98"/>
      <use x="63.476562" xlink:href="#DejaVuSans-98"/>
      <use x="126.953125" xlink:href="#DejaVuSans-114"/>
      <use x="167.972656" xlink:href="#DejaVuSans-45"/>
      <use x="204.056641" xlink:href="#DejaVuSans-112"/>
      <use x="267.533203" xlink:href="#DejaVuSans-105"/>
     </g>
    </g>
    <g id="line2d_53">
     <path d="M 571.103984 189.942187 
L 591.103984 189.942187 
" style="fill:none;stroke:#1f77b4;stroke-linecap:square;stroke-width:1.5;"/>
    </g>
    <g id="line2d_54"/>
    <g id="text_28">
     <!-- bbr-pi -->
     <g transform="translate(599.103984 193.442187)scale(0.1 -0.1)">
      <use xlink:href="#DejaVuSans-98"/>
      <use x="63.476562" xlink:href="#DejaVuSans-98"/>
      <use x="126.953125" xlink:href="#DejaVuSans-114"/>
      <use x="167.972656" xlink:href="#DejaVuSans-45"/>
      <use x="204.056641" xlink:href="#DejaVuSans-112"/>
      <use x="267.533203" xlink:href="#DejaVuSans-105"/>
     </g>
    </g>
    <g id="line2d_55">
     <path d="M 571.103984 204.620312 
L 591.103984 204.620312 
" style="fill:none;stroke:#ff7f0e;stroke-linecap:square;stroke-width:1.5;"/>
    </g>
    <g id="line2d_56"/>
    <g id="text_29">
     <!-- bbr-pi -->
     <g transform="translate(599.103984 208.120312)scale(0.1 -0.1)">
      <use xlink:href="#DejaVuSans-98"/>
      <use x="63.476562" xlink:href="#DejaVuSans-98"/>
      <use x="126.953125" xlink:href="#DejaVuSans-114"/>
      <use x="167.972656" xlink:href="#DejaVuSans-45"/>
      <use x="204.056641" xlink:href="#DejaVuSans-112"/>
      <use x="267.533203" xlink:href="#DejaVuSans-105"/>
     </g>
    </g>
    <g id="line2d_57">
     <path d="M 571.103984 219.298437 
L 591.103984 219.298437 
" style="fill:none;stroke:#2ca02c;stroke-linecap:square;stroke-width:1.5;"/>
    </g>
    <g id="line2d_58"/>
    <g id="text_30">
     <!-- bbr-pi -->
     <g transform="translate(599.103984 222.798437)scale(0.1 -0.1)">
      <use xlink:href="#DejaVuSans-98"/>
      <use x="63.476562" xlink:href="#DejaVuSans-98"/>
      <use x="126.953125" xlink:href="#DejaVuSans-114"/>
      <use x="167.972656" xlink:href="#DejaVuSans-45"/>
      <use x="204.056641" xlink:href="#DejaVuSans-112"/>
      <use x="267.533203" xlink:href="#DejaVuSans-105"/>
     </g>
    </g>
    <g id="line2d_59">
     <path d="M 571.103984 233.976562 
L 591.103984 233.976562 
" style="fill:none;stroke:#d62728;stroke-linecap:square;stroke-width:1.5;"/>
    </g>
    <g id="line2d_60"/>
    <g id="text_31">
     <!-- bbr-pi -->
     <g transform="translate(599.103984 237.476562)scale(0.1 -0.1)">
      <use xlink:href="#DejaVuSans-98"/>
      <use x="63.476562" xlink:href="#DejaVuSans-98"/>
      <use x="126.953125" xlink:href="#DejaVuSans-114"/>
      <use x="167.972656" xlink:href="#DejaVuSans-45"/>
      <use x="204.056641" xlink:href="#DejaVuSans-112"/>
      <use x="267.533203" xlink:href="#DejaVuSans-105"/>
     </g>
    </g>
    <g id="line2d_61">
     <path d="M 571.103984 248.654687 
L 591.103984 248.654687 
" style="fill:none;stroke:#9467bd;stroke-linecap:square;stroke-width:1.5;"/>
    </g>
    <g id="line2d_62"/>
    <g id="text_32">
     <!-- bbr-pi -->
     <g transform="translate(599.103984 252.154687)scale(0.1 -0.1)">
      <use xlink:href="#DejaVuSans-98"/>
      <use x="63.476562" xlink:href="#DejaVuSans-98"/>
      <use x="126.953125" xlink:href="#DejaVuSans-114"/>
      <use x="167.972656" xlink:href="#DejaVuSans-45"/>
      <use x="204.056641" xlink:href="#DejaVuSans-112"/>
      <use x="267.533203" xlink:href="#DejaVuSans-105"/>
     </g>
    </g>
    <g id="line2d_63">
     <path d="M 571.103984 263.332812 
L 591.103984 263.332812 
" style="fill:none;stroke:#8c564b;stroke-linecap:square;stroke-width:1.5;"/>
    </g>
    <g id="line2d_64"/>
    <g id="text_33">
     <!-- bbr-pi -->
     <g transform="translate(599.103984 266.832812)scale(0.1 -0.1)">
      <use xlink:href="#DejaVuSans-98"/>
      <use x="63.476562" xlink:href="#DejaVuSans-98"/>
      <use x="126.953125" xlink:href="#DejaVuSans-114"/>
      <use x="167.972656" xlink:href="#DejaVuSans-45"/>
      <use x="204.056641" xlink:href="#DejaVuSans-112"/>
      <use x="267.533203" xlink:href="#DejaVuSans-105"/>
     </g>
    </g>
   </g>
  </g>
  <g id="text_34">
   <!-- 16 throughput -->
   <g transform="translate(298.789688 17.038125)scale(0.12 -0.12)">
    <use xlink:href="#DejaVuSans-49"/>
    <use x="63.623047" xlink:href="#DejaVuSans-54"/>
    <use x="127.246094" xlink:href="#DejaVuSans-32"/>
    <use x="159.033203" xlink:href="#DejaVuSans-116"/>
    <use x="198.242188" xlink:href="#DejaVuSans-104"/>
    <use x="261.621094" xlink:href="#DejaVuSans-114"/>
    <use x="302.703125" xlink:href="#DejaVuSans-111"/>
    <use x="363.884766" xlink:href="#DejaVuSans-117"/>
    <use x="427.263672" xlink:href="#DejaVuSans-103"/>
    <use x="490.740234" xlink:href="#DejaVuSans-104"/>
    <use x="554.119141" xlink:href="#DejaVuSans-112"/>
    <use x="617.595703" xlink:href="#DejaVuSans-117"/>
    <use x="680.974609" xlink:href="#DejaVuSans-116"/>
   </g>
  </g>
 </g>
 <defs>
  <clipPath id="pc430ed2d6b">
   <rect height="317.111667" width="460.601562" x="83.472344" y="35.0625"/>
  </clipPath>
 </defs>
</svg>
