<?xml version="1.0" encoding="utf-8" standalone="no"?>
<!DOCTYPE svg PUBLIC "-//W3C//DTD SVG 1.1//EN"
  "http://www.w3.org/Graphics/SVG/1.1/DTD/svg11.dtd">
<!-- Created with matplotlib (https://matplotlib.org/) -->
<svg height="396pt" version="1.1" viewBox="0 0 684 396" width="684pt" xmlns="http://www.w3.org/2000/svg" xmlns:xlink="http://www.w3.org/1999/xlink">
 <defs>
  <style type="text/css">
*{stroke-linecap:butt;stroke-linejoin:round;}
  </style>
 </defs>
 <g id="figure_1">
  <g id="patch_1">
   <path d="M 0 396 
L 684 396 
L 684 0 
L 0 0 
z
" style="fill:#ffffff;"/>
  </g>
  <g id="axes_1">
   <g id="patch_2">
    <path d="M 66.158594 352.174167 
L 516.019219 352.174167 
L 516.019219 35.0625 
L 66.158594 35.0625 
z
" style="fill:#ffffff;"/>
   </g>
   <g id="matplotlib.axis_1">
    <g id="xtick_1">
     <g id="line2d_1">
      <defs>
       <path d="M 0 0 
L 0 3.5 
" id="m5320d06d33" style="stroke:#000000;stroke-width:0.8;"/>
      </defs>
      <g>
       <use style="stroke:#000000;stroke-width:0.8;" x="91.933145" xlink:href="#m5320d06d33" y="352.174167"/>
      </g>
     </g>
     <g id="text_1">
      <!-- 0 -->
      <defs>
       <path d="M 31.78125 66.40625 
Q 24.171875 66.40625 20.328125 58.90625 
Q 16.5 51.421875 16.5 36.375 
Q 16.5 21.390625 20.328125 13.890625 
Q 24.171875 6.390625 31.78125 6.390625 
Q 39.453125 6.390625 43.28125 13.890625 
Q 47.125 21.390625 47.125 36.375 
Q 47.125 51.421875 43.28125 58.90625 
Q 39.453125 66.40625 31.78125 66.40625 
z
M 31.78125 74.21875 
Q 44.046875 74.21875 50.515625 64.515625 
Q 56.984375 54.828125 56.984375 36.375 
Q 56.984375 17.96875 50.515625 8.265625 
Q 44.046875 -1.421875 31.78125 -1.421875 
Q 19.53125 -1.421875 13.0625 8.265625 
Q 6.59375 17.96875 6.59375 36.375 
Q 6.59375 54.828125 13.0625 64.515625 
Q 19.53125 74.21875 31.78125 74.21875 
z
" id="DejaVuSans-48"/>
      </defs>
      <g transform="translate(88.751895 366.772604)scale(0.1 -0.1)">
       <use xlink:href="#DejaVuSans-48"/>
      </g>
     </g>
    </g>
    <g id="xtick_2">
     <g id="line2d_2">
      <g>
       <use style="stroke:#000000;stroke-width:0.8;" x="163.269277" xlink:href="#m5320d06d33" y="352.174167"/>
      </g>
     </g>
     <g id="text_2">
      <!-- 50 -->
      <defs>
       <path d="M 10.796875 72.90625 
L 49.515625 72.90625 
L 49.515625 64.59375 
L 19.828125 64.59375 
L 19.828125 46.734375 
Q 21.96875 47.46875 24.109375 47.828125 
Q 26.265625 48.1875 28.421875 48.1875 
Q 40.625 48.1875 47.75 41.5 
Q 54.890625 34.8125 54.890625 23.390625 
Q 54.890625 11.625 47.5625 5.09375 
Q 40.234375 -1.421875 26.90625 -1.421875 
Q 22.3125 -1.421875 17.546875 -0.640625 
Q 12.796875 0.140625 7.71875 1.703125 
L 7.71875 11.625 
Q 12.109375 9.234375 16.796875 8.0625 
Q 21.484375 6.890625 26.703125 6.890625 
Q 35.15625 6.890625 40.078125 11.328125 
Q 45.015625 15.765625 45.015625 23.390625 
Q 45.015625 31 40.078125 35.4375 
Q 35.15625 39.890625 26.703125 39.890625 
Q 22.75 39.890625 18.8125 39.015625 
Q 14.890625 38.140625 10.796875 36.28125 
z
" id="DejaVuSans-53"/>
      </defs>
      <g transform="translate(156.906777 366.772604)scale(0.1 -0.1)">
       <use xlink:href="#DejaVuSans-53"/>
       <use x="63.623047" xlink:href="#DejaVuSans-48"/>
      </g>
     </g>
    </g>
    <g id="xtick_3">
     <g id="line2d_3">
      <g>
       <use style="stroke:#000000;stroke-width:0.8;" x="234.605408" xlink:href="#m5320d06d33" y="352.174167"/>
      </g>
     </g>
     <g id="text_3">
      <!-- 100 -->
      <defs>
       <path d="M 12.40625 8.296875 
L 28.515625 8.296875 
L 28.515625 63.921875 
L 10.984375 60.40625 
L 10.984375 69.390625 
L 28.421875 72.90625 
L 38.28125 72.90625 
L 38.28125 8.296875 
L 54.390625 8.296875 
L 54.390625 0 
L 12.40625 0 
z
" id="DejaVuSans-49"/>
      </defs>
      <g transform="translate(225.061658 366.772604)scale(0.1 -0.1)">
       <use xlink:href="#DejaVuSans-49"/>
       <use x="63.623047" xlink:href="#DejaVuSans-48"/>
       <use x="127.246094" xlink:href="#DejaVuSans-48"/>
      </g>
     </g>
    </g>
    <g id="xtick_4">
     <g id="line2d_4">
      <g>
       <use style="stroke:#000000;stroke-width:0.8;" x="305.941539" xlink:href="#m5320d06d33" y="352.174167"/>
      </g>
     </g>
     <g id="text_4">
      <!-- 150 -->
      <g transform="translate(296.397789 366.772604)scale(0.1 -0.1)">
       <use xlink:href="#DejaVuSans-49"/>
       <use x="63.623047" xlink:href="#DejaVuSans-53"/>
       <use x="127.246094" xlink:href="#DejaVuSans-48"/>
      </g>
     </g>
    </g>
    <g id="xtick_5">
     <g id="line2d_5">
      <g>
       <use style="stroke:#000000;stroke-width:0.8;" x="377.277671" xlink:href="#m5320d06d33" y="352.174167"/>
      </g>
     </g>
     <g id="text_5">
      <!-- 200 -->
      <defs>
       <path d="M 19.1875 8.296875 
L 53.609375 8.296875 
L 53.609375 0 
L 7.328125 0 
L 7.328125 8.296875 
Q 12.9375 14.109375 22.625 23.890625 
Q 32.328125 33.6875 34.8125 36.53125 
Q 39.546875 41.84375 41.421875 45.53125 
Q 43.3125 49.21875 43.3125 52.78125 
Q 43.3125 58.59375 39.234375 62.25 
Q 35.15625 65.921875 28.609375 65.921875 
Q 23.96875 65.921875 18.8125 64.3125 
Q 13.671875 62.703125 7.8125 59.421875 
L 7.8125 69.390625 
Q 13.765625 71.78125 18.9375 73 
Q 24.125 74.21875 28.421875 74.21875 
Q 39.75 74.21875 46.484375 68.546875 
Q 53.21875 62.890625 53.21875 53.421875 
Q 53.21875 48.921875 51.53125 44.890625 
Q 49.859375 40.875 45.40625 35.40625 
Q 44.1875 33.984375 37.640625 27.21875 
Q 31.109375 20.453125 19.1875 8.296875 
z
" id="DejaVuSans-50"/>
      </defs>
      <g transform="translate(367.733921 366.772604)scale(0.1 -0.1)">
       <use xlink:href="#DejaVuSans-50"/>
       <use x="63.623047" xlink:href="#DejaVuSans-48"/>
       <use x="127.246094" xlink:href="#DejaVuSans-48"/>
      </g>
     </g>
    </g>
    <g id="xtick_6">
     <g id="line2d_6">
      <g>
       <use style="stroke:#000000;stroke-width:0.8;" x="448.613802" xlink:href="#m5320d06d33" y="352.174167"/>
      </g>
     </g>
     <g id="text_6">
      <!-- 250 -->
      <g transform="translate(439.070052 366.772604)scale(0.1 -0.1)">
       <use xlink:href="#DejaVuSans-50"/>
       <use x="63.623047" xlink:href="#DejaVuSans-53"/>
       <use x="127.246094" xlink:href="#DejaVuSans-48"/>
      </g>
     </g>
    </g>
   </g>
   <g id="matplotlib.axis_2">
    <g id="ytick_1">
     <g id="line2d_7">
      <defs>
       <path d="M 0 0 
L -3.5 0 
" id="m4a5dda8392" style="stroke:#000000;stroke-width:0.8;"/>
      </defs>
      <g>
       <use style="stroke:#000000;stroke-width:0.8;" x="66.158594" xlink:href="#m4a5dda8392" y="352.174167"/>
      </g>
     </g>
     <g id="text_7">
      <!-- 0 -->
      <g transform="translate(52.796094 355.973385)scale(0.1 -0.1)">
       <use xlink:href="#DejaVuSans-48"/>
      </g>
     </g>
    </g>
    <g id="ytick_2">
     <g id="line2d_8">
      <g>
       <use style="stroke:#000000;stroke-width:0.8;" x="66.158594" xlink:href="#m4a5dda8392" y="297.843302"/>
      </g>
     </g>
     <g id="text_8">
      <!-- 10 -->
      <g transform="translate(46.433594 301.642521)scale(0.1 -0.1)">
       <use xlink:href="#DejaVuSans-49"/>
       <use x="63.623047" xlink:href="#DejaVuSans-48"/>
      </g>
     </g>
    </g>
    <g id="ytick_3">
     <g id="line2d_9">
      <g>
       <use style="stroke:#000000;stroke-width:0.8;" x="66.158594" xlink:href="#m4a5dda8392" y="243.512437"/>
      </g>
     </g>
     <g id="text_9">
      <!-- 20 -->
      <g transform="translate(46.433594 247.311656)scale(0.1 -0.1)">
       <use xlink:href="#DejaVuSans-50"/>
       <use x="63.623047" xlink:href="#DejaVuSans-48"/>
      </g>
     </g>
    </g>
    <g id="ytick_4">
     <g id="line2d_10">
      <g>
       <use style="stroke:#000000;stroke-width:0.8;" x="66.158594" xlink:href="#m4a5dda8392" y="189.181572"/>
      </g>
     </g>
     <g id="text_10">
      <!-- 30 -->
      <defs>
       <path d="M 40.578125 39.3125 
Q 47.65625 37.796875 51.625 33 
Q 55.609375 28.21875 55.609375 21.1875 
Q 55.609375 10.40625 48.1875 4.484375 
Q 40.765625 -1.421875 27.09375 -1.421875 
Q 22.515625 -1.421875 17.65625 -0.515625 
Q 12.796875 0.390625 7.625 2.203125 
L 7.625 11.71875 
Q 11.71875 9.328125 16.59375 8.109375 
Q 21.484375 6.890625 26.8125 6.890625 
Q 36.078125 6.890625 40.9375 10.546875 
Q 45.796875 14.203125 45.796875 21.1875 
Q 45.796875 27.640625 41.28125 31.265625 
Q 36.765625 34.90625 28.71875 34.90625 
L 20.21875 34.90625 
L 20.21875 43.015625 
L 29.109375 43.015625 
Q 36.375 43.015625 40.234375 45.921875 
Q 44.09375 48.828125 44.09375 54.296875 
Q 44.09375 59.90625 40.109375 62.90625 
Q 36.140625 65.921875 28.71875 65.921875 
Q 24.65625 65.921875 20.015625 65.03125 
Q 15.375 64.15625 9.8125 62.3125 
L 9.8125 71.09375 
Q 15.4375 72.65625 20.34375 73.4375 
Q 25.25 74.21875 29.59375 74.21875 
Q 40.828125 74.21875 47.359375 69.109375 
Q 53.90625 64.015625 53.90625 55.328125 
Q 53.90625 49.265625 50.4375 45.09375 
Q 46.96875 40.921875 40.578125 39.3125 
z
" id="DejaVuSans-51"/>
      </defs>
      <g transform="translate(46.433594 192.980791)scale(0.1 -0.1)">
       <use xlink:href="#DejaVuSans-51"/>
       <use x="63.623047" xlink:href="#DejaVuSans-48"/>
      </g>
     </g>
    </g>
    <g id="ytick_5">
     <g id="line2d_11">
      <g>
       <use style="stroke:#000000;stroke-width:0.8;" x="66.158594" xlink:href="#m4a5dda8392" y="134.850707"/>
      </g>
     </g>
     <g id="text_11">
      <!-- 40 -->
      <defs>
       <path d="M 37.796875 64.3125 
L 12.890625 25.390625 
L 37.796875 25.390625 
z
M 35.203125 72.90625 
L 47.609375 72.90625 
L 47.609375 25.390625 
L 58.015625 25.390625 
L 58.015625 17.1875 
L 47.609375 17.1875 
L 47.609375 0 
L 37.796875 0 
L 37.796875 17.1875 
L 4.890625 17.1875 
L 4.890625 26.703125 
z
" id="DejaVuSans-52"/>
      </defs>
      <g transform="translate(46.433594 138.649926)scale(0.1 -0.1)">
       <use xlink:href="#DejaVuSans-52"/>
       <use x="63.623047" xlink:href="#DejaVuSans-48"/>
      </g>
     </g>
    </g>
    <g id="ytick_6">
     <g id="line2d_12">
      <g>
       <use style="stroke:#000000;stroke-width:0.8;" x="66.158594" xlink:href="#m4a5dda8392" y="80.519842"/>
      </g>
     </g>
     <g id="text_12">
      <!-- 50 -->
      <g transform="translate(46.433594 84.319061)scale(0.1 -0.1)">
       <use xlink:href="#DejaVuSans-53"/>
       <use x="63.623047" xlink:href="#DejaVuSans-48"/>
      </g>
     </g>
    </g>
    <g id="text_13">
     <!-- droprate -->
     <defs>
      <path d="M 45.40625 46.390625 
L 45.40625 75.984375 
L 54.390625 75.984375 
L 54.390625 0 
L 45.40625 0 
L 45.40625 8.203125 
Q 42.578125 3.328125 38.25 0.953125 
Q 33.9375 -1.421875 27.875 -1.421875 
Q 17.96875 -1.421875 11.734375 6.484375 
Q 5.515625 14.40625 5.515625 27.296875 
Q 5.515625 40.1875 11.734375 48.09375 
Q 17.96875 56 27.875 56 
Q 33.9375 56 38.25 53.625 
Q 42.578125 51.265625 45.40625 46.390625 
z
M 14.796875 27.296875 
Q 14.796875 17.390625 18.875 11.75 
Q 22.953125 6.109375 30.078125 6.109375 
Q 37.203125 6.109375 41.296875 11.75 
Q 45.40625 17.390625 45.40625 27.296875 
Q 45.40625 37.203125 41.296875 42.84375 
Q 37.203125 48.484375 30.078125 48.484375 
Q 22.953125 48.484375 18.875 42.84375 
Q 14.796875 37.203125 14.796875 27.296875 
z
" id="DejaVuSans-100"/>
      <path d="M 41.109375 46.296875 
Q 39.59375 47.171875 37.8125 47.578125 
Q 36.03125 48 33.890625 48 
Q 26.265625 48 22.1875 43.046875 
Q 18.109375 38.09375 18.109375 28.8125 
L 18.109375 0 
L 9.078125 0 
L 9.078125 54.6875 
L 18.109375 54.6875 
L 18.109375 46.1875 
Q 20.953125 51.171875 25.484375 53.578125 
Q 30.03125 56 36.53125 56 
Q 37.453125 56 38.578125 55.875 
Q 39.703125 55.765625 41.0625 55.515625 
z
" id="DejaVuSans-114"/>
      <path d="M 30.609375 48.390625 
Q 23.390625 48.390625 19.1875 42.75 
Q 14.984375 37.109375 14.984375 27.296875 
Q 14.984375 17.484375 19.15625 11.84375 
Q 23.34375 6.203125 30.609375 6.203125 
Q 37.796875 6.203125 41.984375 11.859375 
Q 46.1875 17.53125 46.1875 27.296875 
Q 46.1875 37.015625 41.984375 42.703125 
Q 37.796875 48.390625 30.609375 48.390625 
z
M 30.609375 56 
Q 42.328125 56 49.015625 48.375 
Q 55.71875 40.765625 55.71875 27.296875 
Q 55.71875 13.875 49.015625 6.21875 
Q 42.328125 -1.421875 30.609375 -1.421875 
Q 18.84375 -1.421875 12.171875 6.21875 
Q 5.515625 13.875 5.515625 27.296875 
Q 5.515625 40.765625 12.171875 48.375 
Q 18.84375 56 30.609375 56 
z
" id="DejaVuSans-111"/>
      <path d="M 18.109375 8.203125 
L 18.109375 -20.796875 
L 9.078125 -20.796875 
L 9.078125 54.6875 
L 18.109375 54.6875 
L 18.109375 46.390625 
Q 20.953125 51.265625 25.265625 53.625 
Q 29.59375 56 35.59375 56 
Q 45.5625 56 51.78125 48.09375 
Q 58.015625 40.1875 58.015625 27.296875 
Q 58.015625 14.40625 51.78125 6.484375 
Q 45.5625 -1.421875 35.59375 -1.421875 
Q 29.59375 -1.421875 25.265625 0.953125 
Q 20.953125 3.328125 18.109375 8.203125 
z
M 48.6875 27.296875 
Q 48.6875 37.203125 44.609375 42.84375 
Q 40.53125 48.484375 33.40625 48.484375 
Q 26.265625 48.484375 22.1875 42.84375 
Q 18.109375 37.203125 18.109375 27.296875 
Q 18.109375 17.390625 22.1875 11.75 
Q 26.265625 6.109375 33.40625 6.109375 
Q 40.53125 6.109375 44.609375 11.75 
Q 48.6875 17.390625 48.6875 27.296875 
z
" id="DejaVuSans-112"/>
      <path d="M 34.28125 27.484375 
Q 23.390625 27.484375 19.1875 25 
Q 14.984375 22.515625 14.984375 16.5 
Q 14.984375 11.71875 18.140625 8.90625 
Q 21.296875 6.109375 26.703125 6.109375 
Q 34.1875 6.109375 38.703125 11.40625 
Q 43.21875 16.703125 43.21875 25.484375 
L 43.21875 27.484375 
z
M 52.203125 31.203125 
L 52.203125 0 
L 43.21875 0 
L 43.21875 8.296875 
Q 40.140625 3.328125 35.546875 0.953125 
Q 30.953125 -1.421875 24.3125 -1.421875 
Q 15.921875 -1.421875 10.953125 3.296875 
Q 6 8.015625 6 15.921875 
Q 6 25.140625 12.171875 29.828125 
Q 18.359375 34.515625 30.609375 34.515625 
L 43.21875 34.515625 
L 43.21875 35.40625 
Q 43.21875 41.609375 39.140625 45 
Q 35.0625 48.390625 27.6875 48.390625 
Q 23 48.390625 18.546875 47.265625 
Q 14.109375 46.140625 10.015625 43.890625 
L 10.015625 52.203125 
Q 14.9375 54.109375 19.578125 55.046875 
Q 24.21875 56 28.609375 56 
Q 40.484375 56 46.34375 49.84375 
Q 52.203125 43.703125 52.203125 31.203125 
z
" id="DejaVuSans-97"/>
      <path d="M 18.3125 70.21875 
L 18.3125 54.6875 
L 36.8125 54.6875 
L 36.8125 47.703125 
L 18.3125 47.703125 
L 18.3125 18.015625 
Q 18.3125 11.328125 20.140625 9.421875 
Q 21.96875 7.515625 27.59375 7.515625 
L 36.8125 7.515625 
L 36.8125 0 
L 27.59375 0 
Q 17.1875 0 13.234375 3.875 
Q 9.28125 7.765625 9.28125 18.015625 
L 9.28125 47.703125 
L 2.6875 47.703125 
L 2.6875 54.6875 
L 9.28125 54.6875 
L 9.28125 70.21875 
z
" id="DejaVuSans-116"/>
      <path d="M 56.203125 29.59375 
L 56.203125 25.203125 
L 14.890625 25.203125 
Q 15.484375 15.921875 20.484375 11.0625 
Q 25.484375 6.203125 34.421875 6.203125 
Q 39.59375 6.203125 44.453125 7.46875 
Q 49.3125 8.734375 54.109375 11.28125 
L 54.109375 2.78125 
Q 49.265625 0.734375 44.1875 -0.34375 
Q 39.109375 -1.421875 33.890625 -1.421875 
Q 20.796875 -1.421875 13.15625 6.1875 
Q 5.515625 13.8125 5.515625 26.8125 
Q 5.515625 40.234375 12.765625 48.109375 
Q 20.015625 56 32.328125 56 
Q 43.359375 56 49.78125 48.890625 
Q 56.203125 41.796875 56.203125 29.59375 
z
M 47.21875 32.234375 
Q 47.125 39.59375 43.09375 43.984375 
Q 39.0625 48.390625 32.421875 48.390625 
Q 24.90625 48.390625 20.390625 44.140625 
Q 15.875 39.890625 15.1875 32.171875 
z
" id="DejaVuSans-101"/>
     </defs>
     <g transform="translate(40.353906 215.236302)rotate(-90)scale(0.1 -0.1)">
      <use xlink:href="#DejaVuSans-100"/>
      <use x="63.476562" xlink:href="#DejaVuSans-114"/>
      <use x="104.558594" xlink:href="#DejaVuSans-111"/>
      <use x="165.740234" xlink:href="#DejaVuSans-112"/>
      <use x="229.216797" xlink:href="#DejaVuSans-114"/>
      <use x="270.330078" xlink:href="#DejaVuSans-97"/>
      <use x="331.609375" xlink:href="#DejaVuSans-116"/>
      <use x="370.818359" xlink:href="#DejaVuSans-101"/>
     </g>
    </g>
   </g>
   <g id="line2d_13">
    <path clip-path="url(#p789a059b31)" d="M 86.606804 352.174167 
L 91.495655 352.174167 
L 91.646005 105.987435 
L 92.102427 352.174167 
L 92.255815 352.174167 
L 92.407125 346.756559 
L 92.559757 352.174167 
L 92.712775 339.165368 
L 92.865877 352.174167 
L 93.018175 327.548279 
L 93.169975 352.174167 
L 94.234252 352.174167 
L 94.687614 55.540135 
L 94.990008 272.23018 
L 95.140781 275.89301 
L 95.291857 271.338545 
L 95.595926 277.55667 
L 95.747636 285.614988 
L 95.898532 285.329326 
L 96.054609 279.632261 
L 96.20537 284.744991 
L 96.356323 279.888467 
L 96.507096 282.120043 
L 96.657834 275.89301 
L 96.808548 279.784905 
L 96.960609 280.19738 
L 97.112562 262.135765 
L 97.412844 274.781999 
L 97.716534 310.920072 
L 97.869438 305.297466 
L 98.020752 278.333935 
L 98.172915 307.539745 
L 98.323643 257.990289 
L 98.474366 307.806555 
L 98.625175 264.343155 
L 98.775902 326.413843 
L 98.926403 281.442998 
L 99.076846 310.741996 
L 99.227536 277.449768 
L 99.378099 293.711974 
L 99.528294 274.781999 
L 99.678739 292.152982 
L 99.829179 278.122055 
L 99.98069 284.936823 
L 100.131585 281.644799 
L 100.432927 297.609453 
L 100.584178 264.593743 
L 100.735974 264.195209 
L 100.886266 259.147218 
L 101.187272 299.947941 
L 101.337806 285.23356 
L 101.488731 250.984877 
L 101.639126 263.964573 
L 101.789373 253.816567 
L 101.943773 267.591754 
L 102.094486 293.879247 
L 102.244672 283.578527 
L 102.395697 296.130868 
L 102.547362 284.0671 
L 102.699025 300.319922 
L 102.849591 281.966882 
L 102.999819 309.240294 
L 103.149991 309.116565 
L 103.300184 305.269823 
L 103.451403 283.096353 
L 103.604835 300.138972 
L 103.757453 273.567809 
L 103.90817 306.381009 
L 104.060236 274.999643 
L 104.215818 316.609394 
L 104.37053 270.107965 
L 104.521807 305.030742 
L 104.672687 276.563064 
L 104.824389 302.010726 
L 104.975311 294.656513 
L 105.126025 302.357901 
L 105.276464 303.84542 
L 105.42653 303.706345 
L 105.579331 315.95359 
L 105.737655 348.251361 
L 105.896861 352.174167 
L 106.053829 263.297219 
L 106.20384 252.541635 
L 106.354551 202.510952 
L 106.50498 222.591932 
L 106.655422 347.490471 
L 106.806143 352.174167 
L 107.411355 352.174167 
L 107.562046 349.835679 
L 107.71247 334.245761 
L 107.862996 349.835679 
L 108.014552 342.127207 
L 108.164974 352.174167 
L 108.31629 342.84698 
L 108.46648 347.497191 
L 108.616983 343.587392 
L 108.767358 352.174167 
L 109.218582 336.628855 
L 109.371925 340.679625 
L 109.521904 351.394671 
L 109.823017 331.097538 
L 109.974585 335.123111 
L 110.126937 352.174167 
L 110.432587 298.532974 
L 110.587152 321.694018 
L 110.740395 321.608279 
L 110.890472 342.806776 
L 111.345819 272.115811 
L 111.497288 287.936819 
L 111.648164 264.995702 
L 111.798542 294.491469 
L 111.949634 282.220263 
L 112.100887 311.096623 
L 112.253645 313.750641 
L 112.404953 330.472823 
L 112.5558 262.788624 
L 112.706003 295.888954 
L 112.858354 255.706012 
L 113.010145 294.21094 
L 113.16049 253.178186 
L 113.313716 295.38767 
L 113.464799 268.349404 
L 113.615896 305.604854 
L 113.766732 255.015968 
L 113.918112 283.872508 
L 114.069286 260.325427 
L 114.220676 289.573881 
L 114.371695 287.661123 
L 114.522777 312.590251 
L 114.673627 279.006526 
L 114.824992 326.597583 
L 114.974982 298.156448 
L 115.125354 346.709856 
L 115.278047 294.457242 
L 115.42899 318.751746 
L 115.579342 279.681047 
L 115.733161 307.85363 
L 115.883383 272.665584 
L 116.033463 338.102864 
L 116.184017 331.036799 
L 116.334906 351.399119 
L 116.485172 312.248027 
L 116.635483 337.342465 
L 116.787512 303.554217 
L 116.939112 329.697775 
L 117.094642 310.497771 
L 117.244595 318.023337 
L 117.394538 251.184519 
L 117.544759 292.761998 
L 117.694861 241.16722 
L 117.844723 295.024986 
L 117.994617 254.174771 
L 118.144564 313.868953 
L 118.294461 276.236214 
L 118.445382 324.930896 
L 118.595741 299.947941 
L 118.746839 327.266034 
L 118.897595 314.088153 
L 119.050557 332.165633 
L 119.20328 323.013533 
L 119.354115 352.174167 
L 119.504821 326.487655 
L 119.655495 346.717695 
L 119.806245 322.595759 
L 119.956634 349.835679 
L 120.107589 316.368726 
L 120.261648 352.174167 
L 120.727307 352.174167 
L 120.878185 322.595759 
L 121.028889 350.617408 
L 121.179643 325.633227 
L 121.330631 352.174167 
L 121.481009 332.686769 
L 121.631953 343.611996 
L 121.782805 335.074324 
L 121.933564 334.271446 
L 122.084524 325.709275 
L 122.235349 294.656513 
L 122.386089 293.79573 
L 122.536912 297.687626 
L 122.840567 314.918716 
L 122.990665 275.004072 
L 123.142388 270.794127 
L 123.4458 293.521528 
L 123.598676 296.155055 
L 123.749931 307.157164 
L 123.901028 300.874638 
L 124.052531 323.578975 
L 124.203712 300.874638 
L 124.354995 304.896239 
L 124.50596 293.101982 
L 124.655917 311.523735 
L 124.808369 290.522121 
L 124.959333 302.357901 
L 125.111267 288.891057 
L 125.263064 311.986329 
L 125.414414 279.215577 
L 125.565257 304.052544 
L 125.716079 277.235043 
L 125.866816 293.017351 
L 126.018061 256.205118 
L 126.168274 299.872903 
L 126.319338 262.660564 
L 126.473941 299.669549 
L 126.625522 280.19738 
L 126.776593 290.170327 
L 126.927625 248.797843 
L 127.081002 296.234066 
L 127.233526 256.748852 
L 127.384818 283.969943 
L 127.537416 282.913857 
L 127.687816 289.125455 
L 127.83877 274.447608 
L 127.989661 304.693038 
L 128.140614 282.997529 
L 128.29207 330.41073 
L 128.443875 306.641198 
L 128.595032 324.152517 
L 128.89589 296.050461 
L 129.046574 283.47997 
L 129.197838 308.771479 
L 129.348927 261.103806 
L 129.49897 313.978867 
L 129.649164 291.980259 
L 129.799491 323.291379 
L 129.95354 283.40092 
L 130.108687 315.044287 
L 130.259725 292.580483 
L 130.409791 323.249821 
L 130.560003 291.286128 
L 130.71219 315.95359 
L 130.862327 263.710367 
L 131.012198 306.833301 
L 131.163132 261.882185 
L 131.313429 309.960257 
L 131.464811 272.23018 
L 131.615866 324.232579 
L 131.767203 318.072055 
L 131.917267 339.648319 
L 132.070891 275.759448 
L 132.221857 295.514836 
L 132.373096 255.154765 
L 132.523848 304.624916 
L 132.674386 249.428119 
L 132.825332 316.368726 
L 132.975924 283.578527 
L 133.126347 327.230298 
L 133.276435 289.635042 
L 133.426944 331.097538 
L 133.576873 267.867652 
L 133.726814 322.425278 
L 133.876622 267.624694 
L 134.026479 306.702447 
L 134.176402 281.035912 
L 134.326686 338.102864 
L 134.47768 302.286429 
L 134.628025 310.081388 
L 134.778399 295.189208 
L 134.935128 352.174167 
L 135.251581 352.174167 
L 135.401958 303.276388 
L 135.552864 316.471027 
L 135.704491 260.456827 
L 135.854822 270.444356 
L 136.005458 263.311633 
L 136.306281 280.460543 
L 136.456581 275.783568 
L 136.607 251.474719 
L 136.757508 280.460543 
L 136.907591 242.265244 
L 137.059403 315.694872 
L 137.211621 271.255857 
L 137.363126 336.717306 
L 137.51739 285.02366 
L 137.671615 342.281992 
L 137.825062 304.996105 
L 137.975455 350.610689 
L 138.125962 300.727437 
L 138.276026 351.393551 
L 138.42633 319.341126 
L 138.577205 335.049825 
L 138.727736 276.671389 
L 138.878052 329.568785 
L 139.029122 283.676801 
L 139.180201 326.561045 
L 139.331266 300.171767 
L 139.48236 336.651062 
L 139.633604 300.947923 
L 139.788583 321.779277 
L 139.940509 300.467236 
L 140.091965 308.833306 
L 140.242544 307.7429 
L 140.393241 296.98831 
L 140.545345 305.030742 
L 140.695822 306.963404 
L 140.846135 324.071995 
L 140.997043 323.41534 
L 141.147951 313.255209 
L 141.299995 349.087186 
L 141.452256 325.972047 
L 141.604166 341.354364 
L 141.755015 311.03794 
L 141.90574 309.301892 
L 142.056522 312.533622 
L 142.206833 306.767968 
L 142.357676 290.08175 
L 142.508129 297.452432 
L 142.658002 287.289824 
L 142.809496 288.620231 
L 142.960589 281.341664 
L 143.111332 287.661123 
L 143.261823 299.092287 
L 143.712589 273.887618 
L 143.862359 310.682296 
L 144.012288 307.550834 
L 144.162254 348.265471 
L 144.312719 299.797649 
L 144.463246 335.000617 
L 144.613681 292.932478 
L 144.764223 352.174167 
L 144.914428 301.506933 
L 145.065288 352.174167 
L 145.215285 296.75044 
L 145.372801 340.183907 
L 145.52651 330.137872 
L 145.677612 309.60725 
L 145.830274 264.444442 
L 145.983886 307.215948 
L 146.135877 254.023102 
L 146.28776 325.086129 
L 146.437751 283.47997 
L 146.587872 317.777648 
L 146.737943 278.690695 
L 146.888256 313.143373 
L 147.040573 289.751471 
L 147.19057 312.305474 
L 147.340937 288.853303 
L 147.490817 302.142867 
L 147.641043 271.539021 
L 147.791387 296.829957 
L 147.941841 282.699354 
L 148.091758 290.416781 
L 148.242509 279.472434 
L 148.393109 293.186371 
L 148.544493 269.125559 
L 148.694675 279.681047 
L 148.846496 256.068215 
L 148.997493 274.558645 
L 149.147963 277.235043 
L 149.298492 296.130868 
L 149.448768 281.918738 
L 149.601782 298.258041 
L 149.759776 352.174167 
L 150.076641 352.174167 
L 150.234941 338.542767 
L 150.384829 296.211044 
L 150.536063 293.962526 
L 150.685982 295.807852 
L 150.83586 290.327793 
L 151.138695 316.673886 
L 151.441692 283.293156 
L 151.743002 315.642684 
L 151.893978 308.647294 
L 152.197314 270.910053 
L 152.349001 295.676259 
L 152.501834 273.133502 
L 152.65259 306.249797 
L 152.805198 299.918172 
L 153.107641 328.88951 
L 153.259636 297.302312 
L 153.410574 315.590347 
L 153.560896 285.041201 
L 153.712745 311.986329 
L 153.863261 311.698451 
L 154.014058 324.112314 
L 154.31708 287.845183 
L 154.468225 294.820615 
L 154.620012 280.971324 
L 154.772014 304.257899 
L 154.922963 276.779404 
L 155.074659 296.450203 
L 155.225228 285.23356 
L 155.377153 305.671287 
L 155.529443 285.317233 
L 155.68369 304.235168 
L 155.834741 297.067147 
L 155.985273 311.523735 
L 156.136188 295.433778 
L 156.288657 315.287582 
L 156.440535 304.257899 
L 156.591979 316.521959 
L 156.742935 303.206434 
L 156.894334 305.604854 
L 157.049035 304.302216 
L 157.201426 292.918124 
L 157.503474 311.871671 
L 157.65542 315.130395 
L 157.810379 280.746177 
L 157.96052 292.152982 
L 158.110966 290.682214 
L 158.56922 319.989451 
L 158.871763 299.947941 
L 159.022444 299.244384 
L 159.174937 312.100337 
L 159.325791 293.017351 
L 159.475995 307.679062 
L 159.627652 302.641754 
L 159.780285 334.499345 
L 159.932573 312.100337 
L 160.084118 325.124661 
L 160.38746 275.334801 
L 160.539774 249.53205 
L 160.690265 272.551348 
L 160.841858 258.52695 
L 160.991823 320.122865 
L 161.145309 299.373749 
L 161.296532 332.797967 
L 161.448311 339.791064 
L 161.600194 298.152 
L 161.751784 293.270519 
L 161.903655 293.521528 
L 162.054269 284.358023 
L 162.205399 295.514836 
L 162.355223 297.373583 
L 162.813567 335.243869 
L 162.965885 336.739262 
L 163.117078 328.113355 
L 163.269067 349.862215 
L 163.42252 317.690543 
L 163.573725 347.523879 
L 163.723977 337.321124 
L 163.875414 345.208671 
L 164.02732 335.17162 
L 164.179551 352.174167 
L 164.333956 309.096296 
L 164.492019 352.174167 
L 164.9607 352.174167 
L 165.114217 325.429015 
L 165.264806 341.276859 
L 165.719204 302.08188 
L 165.870644 274.447608 
L 166.02238 271.798492 
L 166.173943 276.43555 
L 166.478256 298.999278 
L 166.629785 300.245951 
L 166.78039 285.23356 
L 166.931088 309.301892 
L 167.084858 291.891325 
L 167.236459 302.571095 
L 167.387407 284.648663 
L 167.537996 298.466005 
L 167.688944 293.962526 
L 167.839924 309.363313 
L 167.990739 308.584934 
L 168.143172 302.152832 
L 168.295602 288.21017 
L 168.448276 302.152832 
L 168.599194 282.997529 
L 168.749624 292.238972 
L 168.899723 285.041201 
L 169.049871 304.556598 
L 169.200287 273.887618 
L 169.354401 327.028044 
L 169.505363 304.828699 
L 169.656292 314.865418 
L 169.807036 276.671389 
L 169.962083 317.220044 
L 170.420533 276.43555 
L 170.571713 305.671287 
L 170.722097 287.383049 
L 170.872459 324.071995 
L 171.022767 285.726346 
L 171.173234 329.568785 
L 171.325785 277.632528 
L 171.477388 331.217976 
L 171.629935 275.327116 
L 171.7805 321.81738 
L 171.931013 280.357506 
L 172.081336 326.413843 
L 172.231826 299.947941 
L 172.381801 352.174167 
L 172.531858 303.706345 
L 172.681948 349.042705 
L 172.833116 320.351803 
L 172.983795 352.174167 
L 173.133947 342.793298 
L 173.284047 352.174167 
L 173.434618 298.311671 
L 173.584961 327.975075 
L 173.735149 328.75569 
L 173.885471 324.071995 
L 174.035277 340.431184 
L 174.18956 310.086877 
L 174.344265 319.590803 
L 174.500127 271.656126 
L 174.654287 269.115762 
L 174.810285 273.913641 
L 174.961462 294.293274 
L 175.112176 290.59399 
L 175.264286 293.438097 
L 175.414183 265.525805 
L 175.564841 299.01591 
L 175.715774 268.349404 
L 175.867205 293.270519 
L 176.017902 265.774081 
L 176.16805 292.761998 
L 176.318345 267.867652 
L 176.469969 295.595663 
L 176.622014 270.252806 
L 176.772254 310.020909 
L 176.921993 277.908956 
L 177.073249 309.48563 
L 177.223501 287.289824 
L 177.373904 315.432431 
L 177.524222 286.69651 
L 177.675162 304.052544 
L 177.825322 272.436782 
L 177.975421 295.107215 
L 178.125256 277.801945 
L 178.27506 301.998476 
L 178.426291 273.006335 
L 178.57716 300.874638 
L 178.727111 269.97329 
L 178.877026 298.939314 
L 179.027348 287.979197 
L 179.182053 338.59145 
L 179.340235 352.174167 
L 179.498692 352.174167 
L 179.659591 323.003233 
L 179.810894 264.320002 
L 179.962683 300.245951 
L 180.113752 246.143846 
L 180.264136 295.888954 
L 180.415405 263.692473 
L 180.566209 315.642684 
L 180.716899 284.45518 
L 180.868876 316.673886 
L 181.020167 297.765575 
L 181.171417 332.022919 
L 181.322016 297.609453 
L 181.472832 307.028176 
L 181.624409 267.934277 
L 181.774454 313.813758 
L 181.925281 311.756356 
L 182.076293 320.306277 
L 182.227162 285.23356 
L 182.377987 313.255209 
L 182.679083 327.975075 
L 183.131335 246.617058 
L 183.282634 272.23018 
L 183.433837 245.369902 
L 183.585291 289.395279 
L 183.736503 266.143839 
L 183.887643 290.857905 
L 184.038792 293.879247 
L 184.340593 230.747019 
L 184.492138 279.215577 
L 184.795873 255.431174 
L 184.947287 252.968023 
L 185.098562 260.718503 
L 185.249732 303.276388 
L 185.400917 296.211044 
L 185.701843 293.543737 
L 185.852392 286.790318 
L 186.007281 308.921942 
L 186.314375 281.644799 
L 186.464629 279.57689 
L 186.764962 291.286128 
L 186.915064 287.383049 
L 187.065979 299.244384 
L 187.216339 296.829957 
L 187.366449 297.452432 
L 187.516327 323.166346 
L 187.817586 299.01591 
L 187.967615 315.379489 
L 188.118353 307.028176 
L 188.268199 269.97329 
L 188.418912 264.091129 
L 188.569081 284.944607 
L 188.719018 274.781999 
L 188.869133 295.888954 
L 189.019543 275.563739 
L 189.169986 305.471418 
L 189.320116 273.104752 
L 189.470482 309.960257 
L 189.620745 289.814494 
L 189.921877 310.920072 
L 190.222198 275.673811 
L 190.372046 277.01908 
L 190.523388 270.677869 
L 190.673388 282.499138 
L 191.124317 270.990116 
L 191.276054 267.814277 
L 191.426717 268.109218 
L 191.580922 271.938712 
L 191.731264 279.006526 
L 191.881477 274.224576 
L 192.031888 287.383049 
L 192.182078 288.163665 
L 192.332555 279.472434 
L 192.482865 278.901551 
L 192.632699 280.933407 
L 192.791749 296.809834 
L 192.942956 287.753284 
L 193.093004 295.107215 
L 193.243367 283.182592 
L 193.394258 283.282004 
L 193.545155 265.12042 
L 194.00729 352.174167 
L 194.323257 352.174167 
L 194.474314 325.086129 
L 194.624326 202.295919 
L 194.774246 206.561186 
L 194.924426 189.806065 
L 195.227234 352.174167 
L 195.529727 348.276687 
L 195.681833 352.174167 
L 195.984111 352.174167 
L 196.13431 338.123081 
L 196.284711 341.22982 
L 196.435036 349.051703 
L 196.58593 335.049825 
L 196.739767 341.476106 
L 196.890556 339.755683 
L 197.193731 345.982615 
L 197.344024 342.820216 
L 197.643829 352.174167 
L 197.794033 340.448081 
L 197.944021 341.22982 
L 198.093903 324.773875 
L 198.243758 349.82557 
L 198.394379 302.142867 
L 198.545452 345.956042 
L 198.696252 297.843302 
L 198.851149 325.615783 
L 199.002083 320.306277 
L 199.152762 326.487655 
L 199.303621 301.651903 
L 199.454132 327.975075 
L 199.604497 299.947941 
L 199.905371 334.220002 
L 200.206087 305.337214 
L 200.357453 303.276388 
L 200.510255 313.859029 
L 200.660961 246.314602 
L 200.81197 285.329326 
L 200.964517 275.10911 
L 201.116547 318.989121 
L 201.269881 280.807353 
L 201.420742 304.963586 
L 201.572199 276.887111 
L 201.723108 306.249797 
L 201.873504 281.240039 
L 202.024717 317.297007 
L 202.176106 296.290991 
L 202.326387 320.949532 
L 202.477336 322.638074 
L 202.630157 335.291695 
L 202.781886 312.703026 
L 202.933023 311.756356 
L 203.083818 285.329326 
L 203.235706 283.293156 
L 203.386561 284.55206 
L 203.539464 288.391115 
L 203.689411 286.508085 
L 203.840136 289.034998 
L 204.145068 330.5653 
L 204.29648 319.668521 
L 204.447711 331.217976 
L 204.598 324.03156 
L 204.748501 305.404412 
L 204.89904 303.065924 
L 205.049458 322.510763 
L 205.20022 321.860809 
L 205.501578 266.020938 
L 205.802827 251.906905 
L 206.104541 291.110659 
L 206.25555 289.305595 
L 206.406897 293.186371 
L 206.556841 276.345478 
L 206.707272 301.434135 
L 206.858946 277.769559 
L 207.163275 337.531806 
L 207.315803 333.704751 
L 207.467035 314.304858 
L 207.618264 321.127958 
L 208.072387 264.091129 
L 208.222524 289.635042 
L 208.374443 276.43555 
L 208.532501 339.217681 
L 208.686193 352.174167 
L 208.996136 352.174167 
L 209.148522 144.980191 
L 209.298813 202.862006 
L 209.449682 100.340115 
L 209.600492 83.642306 
L 209.755174 320.723594 
L 209.906974 352.174167 
L 210.66504 352.174167 
L 210.815572 341.22982 
L 210.966906 349.078391 
L 211.119277 345.238312 
L 211.272933 337.634921 
L 211.425232 352.174167 
L 211.575079 352.174167 
L 211.726901 343.660783 
L 211.877743 347.517235 
L 212.030886 346.035086 
L 212.181339 334.245761 
L 212.332377 346.74108 
L 212.4838 348.293391 
L 212.938542 307.476434 
L 213.088943 332.686769 
L 213.543612 274.00026 
L 213.693253 287.979197 
L 213.998024 281.574738 
L 214.301212 296.050461 
L 214.45197 299.244384 
L 214.604223 299.69549 
L 214.907144 313.310887 
L 215.058651 302.571095 
L 215.209177 320.214834 
L 215.513047 290.522121 
L 215.665583 310.617981 
L 215.816856 276.219463 
L 215.969235 310.559036 
L 216.27868 301.545962 
L 216.431071 276.310195 
L 216.582264 285.23356 
L 216.733936 281.173605 
L 216.88491 318.751746 
L 217.035885 310.201825 
L 217.33779 326.413843 
L 217.488054 291.286128 
L 217.638293 284.162868 
L 217.788499 305.337214 
L 217.938699 266.18287 
L 218.08934 303.065924 
L 218.243341 283.497512 
L 218.396224 296.234066 
L 218.547213 295.433778 
L 218.698926 301.020999 
L 218.850973 301.311229 
L 219.001412 278.122055 
L 219.152058 291.460593 
L 219.30345 280.767887 
L 219.758351 352.174167 
L 219.911364 316.056053 
L 220.062294 322.638074 
L 220.218641 344.638679 
L 220.377033 322.485169 
L 220.535535 324.786673 
L 220.693855 352.174167 
L 220.843657 323.41534 
L 220.994394 331.097538 
L 221.14443 324.071995 
L 221.296113 297.224147 
L 221.447269 304.189642 
L 221.749102 321.81738 
L 221.900707 328.88951 
L 222.201453 295.107215 
L 222.35543 294.180547 
L 222.658099 290.857905 
L 222.809107 290.857905 
L 222.959327 292.761998 
L 223.111933 299.844155 
L 223.266472 352.174167 
L 223.742091 352.174167 
L 223.892101 291.982538 
L 224.342599 274.00026 
L 224.492795 306.898446 
L 224.642821 305.985103 
L 224.793287 338.884603 
L 224.943521 313.923989 
L 225.093906 332.63069 
L 225.24416 331.907273 
L 225.545234 278.228147 
L 225.696275 265.897686 
L 225.846498 263.837653 
L 225.99654 300.653519 
L 226.146608 284.944607 
L 226.296609 326.339606 
L 226.446745 310.682296 
L 226.598246 352.174167 
L 226.749129 313.255209 
L 227.053127 343.636459 
L 227.205605 334.499345 
L 227.356349 335.000617 
L 227.506811 313.978867 
L 227.659566 329.120051 
L 227.809506 285.821817 
L 227.959663 292.67639 
L 228.109532 266.18287 
L 228.259925 290.505513 
L 228.414319 275.103698 
L 228.564819 299.947941 
L 228.714852 279.57689 
L 228.864827 295.107215 
L 229.015442 280.357506 
L 229.165807 292.932478 
L 229.315983 285.726346 
L 229.621692 303.130791 
L 229.773305 301.93937 
L 229.924761 283.096353 
L 230.076458 306.641198 
L 230.227753 279.991732 
L 230.378893 314.142561 
L 230.532611 290.278245 
L 230.684022 323.538241 
L 230.986388 300.171767 
L 231.13847 262.008051 
L 231.290805 282.815616 
L 231.441422 261.103806 
L 231.591531 303.706345 
L 231.741684 293.543737 
L 231.892191 306.833301 
L 232.043788 287.255352 
L 232.195312 296.370711 
L 232.346771 291.032595 
L 232.497886 301.579522 
L 232.651793 300.357914 
L 232.803146 301.020999 
L 232.954605 290.258651 
L 233.255614 302.214751 
L 233.407561 321.304357 
L 233.558115 310.801525 
L 233.710027 308.184688 
L 233.860936 259.547048 
L 234.011518 275.89301 
L 234.162621 269.006748 
L 234.314519 277.101604 
L 234.46527 307.028176 
L 234.615336 288.163665 
L 234.765299 284.162868 
L 234.915555 300.579389 
L 235.065344 275.453349 
L 235.215345 287.196331 
L 235.365713 278.901551 
L 235.516408 289.034998 
L 235.666848 268.648268 
L 235.817126 289.724897 
L 235.967159 252.255335 
L 236.117612 292.066744 
L 236.267965 264.870625 
L 236.418708 298.311671 
L 236.569092 268.887597 
L 236.719266 287.979197 
L 236.869745 271.106592 
L 237.020897 312.590251 
L 237.171485 291.373486 
L 237.321929 296.829957 
L 237.472191 272.551348 
L 237.622471 311.523735 
L 237.772886 265.650121 
L 237.923233 302.924606 
L 238.076264 307.238865 
L 238.233977 352.174167 
L 238.701417 352.174167 
L 238.851639 292.066744 
L 239.001739 298.311671 
L 239.152322 283.381129 
L 239.60494 288.071564 
L 239.755447 296.829957 
L 239.906327 286.790318 
L 240.05635 294.408592 
L 240.208959 290.434548 
L 240.359164 303.065924 
L 240.660707 297.452432 
L 240.811055 267.209113 
L 240.961169 287.289824 
L 241.11135 270.873304 
L 241.265365 287.312881 
L 241.417649 264.568529 
L 241.567427 298.0785 
L 241.717162 271.539021 
L 241.866889 310.622423 
L 242.016741 286.413466 
L 242.166429 345.902205 
L 242.316134 309.054433 
L 242.466039 311.465161 
L 242.615739 258.878742 
L 242.766384 322.553322 
L 242.918466 308.894957 
L 243.068677 345.92924 
L 243.21877 324.03156 
L 243.369272 324.112314 
L 243.819636 248.98461 
L 243.969342 308.270438 
L 244.121159 268.468983 
L 244.271153 320.99433 
L 244.420892 298.0785 
L 244.570534 322.339299 
L 244.720157 305.134457 
L 244.869915 319.24637 
L 245.019548 270.63867 
L 245.169194 336.494263 
L 245.318886 290.238549 
L 245.468553 352.174167 
L 245.621927 307.665831 
L 245.773696 352.174167 
L 245.926459 334.499345 
L 246.078921 343.709018 
L 246.230381 332.853091 
L 246.381086 342.820216 
L 246.530939 321.642413 
L 246.681001 342.011559 
L 246.830837 325.518331 
L 246.982784 322.764297 
L 247.133349 315.590347 
L 247.283413 280.357506 
L 247.433853 292.67639 
L 247.584683 269.006748 
L 247.735959 287.845183 
L 247.88716 276.110956 
L 248.038587 278.439422 
L 248.189598 267.693935 
L 248.340883 301.506933 
L 248.491836 276.994511 
L 248.643346 297.920807 
L 248.794643 283.872508 
L 248.945971 301.093866 
L 249.097339 272.344223 
L 249.248246 308.584934 
L 249.399228 279.888467 
L 249.549154 309.960257 
L 249.700426 279.888467 
L 249.851359 299.320106 
L 250.002492 279.215577 
L 250.153813 293.962526 
L 250.304927 279.991732 
L 250.455794 289.992919 
L 250.606663 265.650121 
L 250.756967 280.460543 
L 251.058839 271.569175 
L 251.210245 281.644799 
L 251.363456 270.295258 
L 251.514676 292.410215 
L 251.666204 286.977129 
L 251.817672 311.929082 
L 251.969361 283.48884 
L 252.120685 299.320106 
L 252.271889 281.644799 
L 252.422797 295.433778 
L 252.573196 274.893195 
L 252.887777 352.174167 
L 253.205175 352.174167 
L 253.523549 207.63776 
L 253.684356 169.126555 
L 253.844944 190.78813 
L 253.996877 352.174167 
L 254.30065 352.174167 
L 254.452762 350.632866 
L 254.604282 344.434727 
L 254.755618 352.174167 
L 254.907091 342.873591 
L 255.210501 352.174167 
L 255.361342 331.187996 
L 255.663899 351.395788 
L 255.814457 343.611996 
L 256.115378 352.174167 
L 256.418917 352.174167 
L 256.569733 328.113355 
L 256.720546 325.671306 
L 256.871512 352.174167 
L 257.02189 314.758363 
L 257.322404 345.158703 
L 257.474559 311.986329 
L 257.626396 314.35865 
L 257.927397 284.260586 
L 258.077699 324.112314 
L 258.228016 296.670693 
L 258.381643 334.549203 
L 258.533402 310.440643 
L 258.684662 332.022919 
L 258.835753 328.147679 
L 258.986917 345.956042 
L 259.137474 298.388949 
L 259.28798 352.174167 
L 259.438267 304.693038 
L 259.588587 352.174167 
L 259.738461 302.924606 
L 259.88918 346.717695 
L 260.039872 323.291379 
L 260.190622 352.174167 
L 260.340835 317.876347 
L 260.491158 352.174167 
L 260.641598 313.868953 
L 260.79179 352.174167 
L 260.942909 327.301668 
L 261.093054 341.245544 
L 261.246359 329.152614 
L 261.399894 342.226262 
L 261.550734 307.157164 
L 261.701597 346.733308 
L 261.852031 336.561849 
L 262.003511 352.174167 
L 262.162451 322.485169 
L 262.315075 321.608279 
L 262.467914 302.992054 
L 262.622853 336.997947 
L 262.776668 315.597988 
L 262.928171 267.28219 
L 263.079389 266.020938 
L 263.2307 263.565889 
L 263.381183 282.019535 
L 263.532455 285.520039 
L 263.682572 301.361128 
L 263.98223 262.927501 
L 264.133222 298.466005 
L 264.283509 263.183957 
L 264.433846 306.833301 
L 264.583792 291.19852 
L 264.733842 303.706345 
L 264.88492 279.991732 
L 265.03503 301.28791 
L 265.185697 285.23356 
L 265.33599 294.408592 
L 265.486983 281.240039 
L 265.639434 288.21017 
L 265.941835 285.127568 
L 266.092482 266.674952 
L 266.247787 277.706688 
L 266.398137 265.897686 
L 266.548621 288.944281 
L 266.699052 265.650121 
L 266.849524 284.260586 
L 267.00004 282.898422 
L 267.150124 285.6306 
L 267.300758 278.122055 
L 267.451739 297.067147 
L 267.602385 284.45518 
L 267.758066 352.174167 
L 268.058369 352.174167 
L 268.209066 195.044615 
L 268.512169 152.336503 
L 268.965944 352.174167 
L 269.417905 352.174167 
L 269.568183 340.464929 
L 269.719557 352.174167 
L 269.874283 338.515569 
L 270.027337 352.174167 
L 270.178629 337.384963 
L 270.330035 352.174167 
L 270.481856 348.309952 
L 270.632906 340.548447 
L 270.783645 347.503892 
L 270.93395 347.483732 
L 271.084084 352.174167 
L 271.236727 340.630782 
L 271.387331 352.174167 
L 271.540702 322.246148 
L 271.691073 335.049825 
L 271.840931 296.670693 
L 271.99156 330.348281 
L 272.141905 306.833301 
L 272.444652 319.668521 
L 272.596027 319.668521 
L 272.748414 322.118795 
L 272.89861 329.568785 
L 273.049092 327.940256 
L 273.200735 342.90005 
L 273.352163 321.860809 
L 273.502699 350.621856 
L 273.653201 297.531055 
L 273.803817 291.373486 
L 273.954408 233.082156 
L 274.105573 268.109218 
L 274.258241 222.888256 
L 274.408842 284.45518 
L 274.562461 273.356151 
L 274.713426 314.971863 
L 274.864216 285.23356 
L 275.170846 352.174167 
L 275.646633 352.174167 
L 275.797827 217.321374 
L 275.949346 239.792207 
L 276.099741 200.172464 
L 276.250029 209.321462 
L 276.400496 350.615175 
L 276.553079 352.174167 
L 276.703946 345.964925 
L 277.007307 352.174167 
L 277.157663 341.245544 
L 277.310737 343.732931 
L 277.463036 343.709018 
L 277.613728 350.615175 
L 277.764515 351.395788 
L 277.915632 342.860304 
L 278.066376 344.390375 
L 278.21656 340.464929 
L 278.367925 350.621856 
L 278.518683 322.595759 
L 278.820878 345.947133 
L 278.974756 346.825136 
L 279.126203 338.262992 
L 279.27638 352.174167 
L 279.431273 320.975771 
L 279.585257 352.174167 
L 279.735857 312.703026 
L 279.886043 352.174167 
L 280.036438 315.537859 
L 280.18719 343.611996 
L 280.340979 321.608279 
L 280.492621 343.672893 
L 280.644846 319.806843 
L 280.796766 320.487603 
L 280.947547 352.174167 
L 281.10082 312.326424 
L 281.253701 350.64372 
L 281.405995 323.619593 
L 281.557619 352.174167 
L 281.708859 311.814096 
L 281.86181 351.407864 
L 282.015272 299.373749 
L 282.167687 352.174167 
L 282.32095 318.409222 
L 282.478879 352.174167 
L 282.643998 352.174167 
L 282.799093 223.356217 
L 282.951142 235.970759 
L 283.102085 229.96864 
L 283.254955 188.951681 
L 283.40891 338.4581 
L 283.560942 352.174167 
L 283.71212 352.174167 
L 283.864831 351.406782 
L 284.01594 342.84698 
L 284.17006 352.174167 
L 284.32187 345.257932 
L 284.627305 343.709018 
L 284.781375 352.174167 
L 284.934863 339.220104 
L 285.085828 352.174167 
L 285.236499 339.702232 
L 285.388055 348.304447 
L 285.539813 338.262992 
L 285.690519 352.174167 
L 285.841529 352.174167 
L 285.992715 321.127958 
L 286.145776 352.174167 
L 286.297118 312.590251 
L 286.447497 333.466265 
L 286.600341 324.430746 
L 286.75477 339.27438 
L 286.907881 320.800005 
L 287.059949 347.543695 
L 287.211464 331.247871 
L 287.36258 331.217976 
L 287.817252 298.772035 
L 287.970239 322.288359 
L 288.121031 321.083543 
L 288.27359 318.265542 
L 288.424568 305.538231 
L 288.576575 281.845451 
L 288.728367 315.077701 
L 288.880133 303.485056 
L 289.031188 308.709475 
L 289.182577 293.270519 
L 289.3339 307.870028 
L 289.486134 298.305037 
L 289.641335 297.615976 
L 289.943903 302.286429 
L 290.098321 352.174167 
L 290.411814 352.174167 
L 290.564185 332.962404 
L 290.715183 164.612551 
L 291.01766 160.009602 
L 291.322731 352.174167 
L 291.624666 352.174167 
L 291.92775 345.257932 
L 292.078022 352.174167 
L 292.228179 342.779781 
L 292.378717 340.481728 
L 292.681912 348.298927 
L 292.831999 347.503892 
L 292.981871 348.259839 
L 293.132425 349.832319 
L 293.282258 341.996915 
L 293.432203 352.174167 
L 293.584017 345.973783 
L 293.73434 328.009793 
L 293.885341 341.292448 
L 294.035742 324.071995 
L 294.186016 352.174167 
L 294.336423 320.949532 
L 294.48679 352.174167 
L 294.637584 322.595759 
L 294.788419 352.174167 
L 294.939599 340.515183 
L 295.089737 352.174167 
L 295.240439 336.584248 
L 295.390865 352.174167 
L 295.543728 329.856956 
L 295.694804 332.742527 
L 295.848312 345.296842 
L 295.999041 342.84698 
L 296.151901 329.152614 
L 296.453295 333.439386 
L 296.60288 316.843402 
L 296.75274 351.391301 
L 296.904489 329.729792 
L 297.056975 352.174167 
L 297.213513 352.174167 
L 297.363272 291.537041 
L 297.512986 182.047216 
L 297.662782 165.852181 
L 297.812474 165.069315 
L 298.11171 352.174167 
L 298.719058 352.174167 
L 299.023149 334.524309 
L 299.173561 343.611996 
L 299.3232 340.414239 
L 299.472872 340.397245 
L 299.625093 342.155709 
L 299.775651 340.481728 
L 299.927245 342.860304 
L 300.077661 337.342465 
L 300.228288 351.395788 
L 300.379467 346.756559 
L 300.529468 352.174167 
L 300.679193 330.222302 
L 300.828837 352.174167 
L 300.978535 319.24637 
L 301.130128 345.208671 
L 301.27997 316.162354 
L 301.429731 334.926273 
L 301.580513 301.579522 
L 301.730251 316.894384 
L 301.88079 291.373486 
L 302.032244 309.48563 
L 302.18199 295.807852 
L 302.334166 308.956433 
L 302.483789 302.853641 
L 302.635189 316.419949 
L 302.785889 308.584934 
L 302.936433 313.978867 
L 303.086438 342.011559 
L 303.236488 331.067212 
L 303.386554 302.924606 
L 303.686718 346.701993 
L 303.836533 310.682296 
L 303.987748 336.651062 
L 304.138545 319.435339 
L 304.289916 326.597583 
L 304.740249 276.454427 
L 304.893245 340.708237 
L 305.047672 352.174167 
L 305.197967 352.174167 
L 305.498128 233.520554 
L 305.648597 126.576179 
L 305.798408 130.623234 
L 305.95468 151.172636 
L 306.254098 349.822181 
L 306.403995 344.345512 
L 306.553866 350.608436 
L 306.855457 338.223303 
L 307.305466 352.174167 
L 307.454992 340.397245 
L 307.754442 352.174167 
L 308.0537 338.846249 
L 308.203536 352.174167 
L 308.35482 337.427218 
L 308.505839 352.174167 
L 308.655962 336.539385 
L 308.807096 352.174167 
L 308.958316 319.575648 
L 309.108692 352.174167 
L 309.258827 309.178518 
L 309.409241 350.612935 
L 309.559494 312.362757 
L 309.710339 331.936309 
L 309.861359 324.232579 
L 310.011541 326.376778 
L 310.161731 333.412429 
L 310.461521 271.539021 
L 310.611581 268.528087 
L 310.761465 246.967001 
L 310.911418 284.260586 
L 311.061383 262.927501 
L 311.21211 296.829957 
L 311.362141 288.853303 
L 311.51203 299.722179 
L 311.662939 301.571891 
L 311.813698 352.174167 
L 311.96383 352.174167 
L 312.264383 158.859181 
L 312.865866 307.61504 
L 313.016069 295.888954 
L 313.165996 321.642413 
L 313.315868 307.550834 
L 313.465849 329.471068 
L 313.615853 309.960257 
L 313.765731 333.385395 
L 313.915521 320.030365 
L 314.066871 321.947295 
L 314.217577 284.45518 
L 314.367543 313.030892 
L 314.517609 282.499138 
L 314.667739 306.833301 
L 314.818749 291.63406 
L 314.968719 337.299722 
L 315.118632 345.911243 
L 315.268538 331.036799 
L 315.420156 292.580483 
L 315.57022 307.61504 
L 315.72044 273.887618 
L 315.870275 303.706345 
L 316.020389 276.236214 
L 316.170559 281.817651 
L 316.32071 266.18287 
L 316.47084 263.837653 
L 317.076208 292.495471 
L 317.380524 278.649492 
L 317.531879 291.63406 
L 317.683434 294.902315 
L 317.834617 280.094703 
L 317.984627 299.01591 
L 318.134556 280.933407 
L 318.286612 282.618294 
L 318.587078 277.235043 
L 318.738081 272.665584 
L 318.89117 290.956291 
L 319.044 280.60518 
L 319.194365 318.703863 
L 319.344552 302.924606 
L 319.494709 311.523735 
L 319.645004 312.66081 
L 319.796431 352.174167 
L 319.94663 352.174167 
L 320.246826 118.434187 
L 320.54712 156.239582 
L 320.704946 317.001293 
L 320.858176 326.229653 
L 321.012402 309.621321 
L 321.16304 328.078933 
L 321.313567 305.269823 
L 321.464851 319.622151 
L 321.615241 301.434135 
L 321.765206 310.741996 
L 321.916811 298.772035 
L 322.067066 307.679062 
L 322.217232 294.325476 
L 322.367473 295.888954 
L 322.518908 275.444415 
L 322.671674 309.200601 
L 322.823815 287.255352 
L 322.975742 305.097707 
L 323.126409 288.438388 
L 323.279869 301.455113 
L 323.431242 296.608509 
L 323.583753 313.641638 
L 323.735291 287.936819 
L 323.885942 283.578527 
L 324.038481 291.464997 
L 324.18929 289.215654 
L 324.341688 304.393832 
L 324.49312 297.067147 
L 324.643183 295.969824 
L 324.793169 296.670693 
L 324.943042 301.214481 
L 325.092852 291.893524 
L 325.242643 298.862496 
L 325.3938 287.661123 
L 325.544905 309.48563 
L 325.69583 296.98831 
L 325.846936 298.619457 
L 325.997725 273.557872 
L 326.452003 352.174167 
L 326.923163 352.174167 
L 327.075211 165.411819 
L 327.2259 166.65414 
L 327.376912 158.135364 
L 327.527399 208.746919 
L 327.680792 352.174167 
L 328.141399 352.174167 
L 328.443971 344.401511 
L 328.594884 352.174167 
L 328.745863 335.851589 
L 328.896795 350.619635 
L 329.047663 341.276859 
L 329.351195 346.77195 
L 329.501966 338.998351 
L 329.804915 342.90005 
L 329.955701 343.611996 
L 330.106161 341.245544 
L 330.256461 334.245761 
L 330.40694 347.490471 
L 330.707294 337.299722 
L 330.85794 335.049825 
L 331.010106 310.440643 
L 331.166558 329.630239 
L 331.317938 307.412943 
L 331.468263 352.174167 
L 331.619123 319.482242 
L 331.769659 352.174167 
L 331.92336 327.687016 
L 332.074261 352.174167 
L 332.225402 339.737917 
L 332.376253 352.174167 
L 332.530977 317.932025 
L 332.68256 352.174167 
L 332.833108 306.315497 
L 333.134738 349.845701 
L 333.435192 324.852611 
L 333.585358 331.036799 
L 333.735445 342.793298 
L 333.885674 323.249821 
L 334.037513 321.304357 
L 334.188644 324.232579 
L 334.339563 333.519792 
L 334.490595 296.98831 
L 334.641382 298.466005 
L 334.792607 314.142561 
L 334.943376 294.574109 
L 335.094119 300.801143 
L 335.395647 281.544042 
L 335.546939 291.63406 
L 335.697173 328.75569 
L 335.848155 296.98831 
L 335.999505 300.171767 
L 336.150461 297.765575 
L 336.302296 288.028195 
L 336.454136 288.028195 
L 336.60588 298.772035 
L 336.757517 293.354427 
L 336.90857 328.113355 
L 337.059802 314.142561 
L 337.210674 317.147105 
L 337.361797 323.456424 
L 337.664663 289.484707 
L 337.96753 285.520039 
L 338.118714 291.63406 
L 338.271281 285.317233 
L 338.422433 288.620231 
L 338.573297 287.661123 
L 338.724283 287.661123 
L 338.875068 300.801143 
L 339.025542 285.041201 
L 339.176497 300.097372 
L 339.328966 272.140032 
L 339.479813 276.671389 
L 339.63061 249.575109 
L 339.782428 246.143846 
L 340.084329 272.893076 
L 340.235914 276.32766 
L 340.538394 294.820615 
L 340.689706 297.843302 
L 340.841524 309.546527 
L 340.993617 296.765919 
L 341.144191 297.609453 
L 341.296216 294.272712 
L 341.450658 352.174167 
L 341.772119 352.174167 
L 341.92333 205.333991 
L 342.07488 206.106834 
L 342.226328 138.260919 
L 342.377461 170.553847 
L 342.527724 352.174167 
L 342.829489 352.174167 
L 342.979937 349.828949 
L 343.130259 342.04072 
L 343.285811 341.56563 
L 343.436101 349.84237 
L 343.587744 342.873591 
L 343.888363 352.174167 
L 344.039092 342.04072 
L 344.189372 342.820216 
L 344.339504 341.22982 
L 344.639285 345.911243 
L 344.789325 351.392428 
L 344.940027 345.168754 
L 345.090796 349.056183 
L 345.240566 329.471068 
L 345.391094 352.174167 
L 345.542005 318.559387 
L 345.692302 352.174167 
L 345.842553 313.143373 
L 345.993031 352.174167 
L 346.296735 352.174167 
L 346.451061 262.57304 
L 346.609224 307.021813 
L 346.765617 316.103883 
L 347.219541 287.289824 
L 347.370132 236.808772 
L 347.520255 224.336838 
L 347.670778 258.365479 
L 347.820802 246.162723 
L 347.972963 300.319922 
L 348.123723 288.438388 
L 348.276783 297.689825 
L 348.427181 282.019535 
L 348.577464 302.924606 
L 348.727549 297.452432 
L 348.878047 317.046452 
L 349.028343 314.704605 
L 349.179102 314.811967 
L 349.329573 267.209113 
L 349.480202 282.120043 
L 349.631609 274.558645 
L 349.782643 286.106591 
L 349.933254 282.898422 
L 350.083337 276.345478 
L 350.234079 301.506933 
L 350.535051 286.69651 
L 350.68542 293.627976 
L 350.836041 310.141692 
L 350.986245 292.761998 
L 351.13722 328.044413 
L 351.287756 322.553322 
L 351.595526 280.039968 
L 351.752921 318.544333 
L 352.059761 281.644799 
L 352.360362 284.944607 
L 352.51211 267.693935 
L 352.662317 296.909247 
L 352.812783 253.035951 
L 352.964631 307.996431 
L 353.122596 278.290161 
L 353.279988 307.518661 
L 353.43097 278.649492 
L 353.58177 328.789289 
L 353.735087 307.791207 
L 353.888153 311.560121 
L 354.041733 281.872626 
L 354.192477 314.865418 
L 354.343289 280.563285 
L 354.493742 300.801143 
L 354.643973 277.235043 
L 354.794159 288.163665 
L 354.944322 277.801945 
L 355.094964 312.362757 
L 355.397023 297.920807 
L 355.547696 300.801143 
L 355.698763 325.784889 
L 355.85044 298.772035 
L 356.000449 295.888954 
L 356.150721 299.01591 
L 356.301585 297.687626 
L 356.453337 295.065019 
L 356.603385 323.249821 
L 356.754825 308.833306 
L 356.910707 305.951255 
L 357.065697 306.015632 
L 357.220729 281.143551 
L 357.524 297.998091 
L 357.675554 331.27768 
L 357.827128 318.072055 
L 357.977318 324.852611 
L 358.127476 282.699354 
L 358.278385 279.681047 
L 358.428528 294.491469 
L 358.57899 296.670693 
L 358.729392 302.214751 
L 358.881583 269.597426 
L 359.184569 280.460543 
L 359.334678 277.127217 
L 359.638156 308.294614 
L 359.794791 352.174167 
L 359.945445 352.174167 
L 360.095854 343.55022 
L 360.24623 199.954071 
L 360.396682 172.890108 
L 360.547526 177.038857 
L 360.698246 215.40376 
L 360.856529 352.174167 
L 361.490832 352.174167 
L 361.792751 330.441821 
L 361.94779 350.654422 
L 362.098209 344.401511 
L 362.24873 352.174167 
L 362.403611 337.736594 
L 362.555986 352.174167 
L 362.707961 340.597988 
L 362.85989 339.826243 
L 363.011885 351.401324 
L 363.162757 350.617408 
L 363.314452 339.035835 
L 363.466275 352.174167 
L 363.618105 336.673207 
L 363.769536 352.174167 
L 363.921637 315.130395 
L 364.073196 352.174167 
L 364.223828 309.301892 
L 364.374106 352.174167 
L 364.5245 329.536306 
L 364.675893 352.174167 
L 364.828773 317.876347 
L 364.979178 352.174167 
L 365.281333 334.297058 
L 365.432569 343.648639 
L 365.583531 287.753284 
L 365.733992 304.624916 
L 365.885414 254.37861 
L 366.03631 293.017351 
L 366.18676 261.103806 
L 366.336978 300.653519 
L 366.487376 270.756156 
L 366.637753 297.609453 
L 366.788678 286.106591 
L 366.939217 306.183908 
L 367.089538 297.531055 
L 367.240053 317.876347 
L 367.540986 289.125455 
L 367.691656 294.491469 
L 367.842626 283.676801 
L 367.99262 281.138122 
L 368.143295 289.814494 
L 368.299158 291.638384 
L 368.454787 287.368974 
L 368.610246 297.088706 
L 368.765743 279.733014 
L 368.921485 300.179303 
L 369.232352 288.788158 
L 369.533696 299.872903 
L 369.684836 293.101982 
L 370.137929 314.250913 
L 370.288201 296.050461 
L 370.438713 299.872903 
L 370.58908 299.947941 
L 370.739344 283.381129 
L 370.890303 295.514836 
L 371.041205 288.438388 
L 371.192501 325.747137 
L 371.342936 275.783568 
L 371.493569 287.476006 
L 371.643995 267.867652 
L 371.794361 306.183908 
L 371.945209 280.460543 
L 372.095536 319.435339 
L 372.245863 289.724897 
L 372.396405 294.491469 
L 372.558895 264.031008 
L 372.710452 312.703026 
L 373.013677 294.902315 
L 373.163924 273.331963 
L 373.314756 290.08175 
L 373.465269 286.790318 
L 373.766992 351.396901 
L 374.071048 286.464271 
L 374.222061 290.770185 
L 374.373656 321.990353 
L 374.828627 287.255352 
L 374.982347 316.309691 
L 375.136074 296.312855 
L 375.289294 326.156569 
L 375.443191 327.78415 
L 375.596996 352.174167 
L 375.903549 352.174167 
L 376.364335 184.524641 
L 376.515566 175.734877 
L 376.818325 352.174167 
L 377.571 352.174167 
L 377.721439 339.684313 
L 377.871752 339.702232 
L 378.022033 345.920254 
L 378.173115 345.178776 
L 378.323556 339.702232 
L 378.473832 352.174167 
L 378.624152 338.102864 
L 378.774236 342.02616 
L 378.924605 339.648319 
L 379.078747 322.456022 
L 379.384304 352.174167 
L 379.846987 352.174167 
L 380.00023 227.857781 
L 380.156313 201.464417 
L 380.306306 147.753316 
L 380.456838 198.392839 
L 380.608025 352.174167 
L 381.215175 352.174167 
L 381.367494 345.238312 
L 381.517737 352.174167 
L 381.669039 336.628855 
L 381.819199 352.174167 
L 381.970559 352.174167 
L 382.124412 340.728058 
L 382.275164 352.174167 
L 382.425528 337.363744 
L 382.579507 350.64372 
L 382.733024 340.711959 
L 382.887587 349.89455 
L 383.040868 335.339251 
L 383.194043 336.081809 
L 383.495307 314.758363 
L 383.6457 274.224576 
L 383.796485 296.909247 
L 383.947536 274.558645 
L 384.097878 312.362757 
L 384.249484 285.424818 
L 384.400653 326.597583 
L 384.701045 292.066744 
L 384.851292 296.670693 
L 385.002988 260.848781 
L 385.308384 281.108478 
L 385.460385 288.710763 
L 385.612233 276.43555 
L 385.763742 294.983783 
L 385.915169 272.344223 
L 386.06676 315.746911 
L 386.218563 315.077701 
L 386.370623 342.913224 
L 386.521881 301.020999 
L 386.676557 296.703493 
L 386.827266 286.106591 
L 386.977777 284.260586 
L 387.127707 298.311671 
L 387.427955 281.817651 
L 387.578672 290.59399 
L 387.729633 282.997529 
L 388.185037 342.268118 
L 388.496696 330.137872 
L 388.647541 295.433778 
L 388.798887 315.850544 
L 388.949339 299.01591 
L 389.100386 311.756356 
L 389.250718 282.699354 
L 389.40109 291.286128 
L 389.551196 271.770732 
L 389.701692 285.917014 
L 389.852177 270.873304 
L 390.002685 296.050461 
L 390.152987 276.563064 
L 390.45449 352.174167 
L 390.906388 352.174167 
L 391.058774 195.287032 
L 391.209601 185.300796 
L 391.359693 157.800814 
L 391.66064 352.174167 
L 391.961857 352.174167 
L 392.111875 345.920254 
L 392.412629 352.174167 
L 392.869421 352.174167 
L 393.021122 335.898159 
L 393.172613 352.174167 
L 393.324466 341.354364 
L 393.476169 352.174167 
L 393.626547 340.498479 
L 393.777072 352.174167 
L 393.930762 336.104474 
L 394.086937 335.596094 
L 394.238067 352.174167 
L 394.551885 352.174167 
L 394.710367 267.79108 
L 394.861911 251.847286 
L 395.012608 279.888467 
L 395.162886 263.964573 
L 395.313836 310.141692 
L 395.465849 294.293274 
L 395.616152 324.89181 
L 395.766618 290.505513 
L 395.917016 320.214834 
L 396.06809 297.687626 
L 396.218396 302.214751 
L 396.36871 251.619194 
L 396.519196 282.699354 
L 396.669119 255.098846 
L 396.819797 303.13628 
L 396.970431 245.229792 
L 397.120642 290.59399 
L 397.2712 267.087036 
L 397.421695 302.995367 
L 397.57197 284.358023 
L 397.722402 315.485221 
L 397.87402 323.497391 
L 398.025098 338.223303 
L 398.176101 307.806555 
L 398.329223 316.874452 
L 398.479782 316.368726 
L 398.630314 305.404412 
L 398.780426 313.143373 
L 398.93054 298.156448 
L 399.232615 243.048071 
L 399.383086 260.842109 
L 399.533739 259.414154 
L 399.684858 284.55206 
L 399.836248 280.869751 
L 399.986772 307.806555 
L 400.137258 283.47997 
L 400.28985 315.95359 
L 400.4403 279.784905 
L 400.590684 299.168445 
L 400.742959 271.140917 
L 400.893545 297.687626 
L 401.044361 272.665584 
L 401.196572 297.457977 
L 401.346797 266.429617 
L 401.496916 313.087214 
L 401.647362 271.655043 
L 401.7975 316.317355 
L 401.948291 297.531055 
L 402.098666 317.876347 
L 402.249361 300.022763 
L 402.406223 324.33148 
L 402.55676 263.818695 
L 402.707389 308.522396 
L 402.857417 281.918738 
L 403.007545 305.269823 
L 403.157893 274.00026 
L 403.308346 313.143373 
L 403.458963 278.901551 
L 403.611443 323.700484 
L 403.763274 315.024857 
L 403.914787 346.748831 
L 404.065092 317.925484 
L 404.216119 332.742527 
L 404.367671 332.825568 
L 404.518019 334.975907 
L 404.669576 316.521959 
L 404.820049 352.174167 
L 404.975345 312.771029 
L 405.282362 352.174167 
L 405.892248 352.174167 
L 406.042683 200.95196 
L 406.193302 203.290448 
L 406.343712 152.336503 
L 406.495739 217.69948 
L 406.646046 352.174167 
L 407.4131 352.174167 
L 407.715067 344.401511 
L 407.869477 352.174167 
L 408.020938 339.01712 
L 408.172211 352.174167 
L 408.323823 337.511007 
L 408.47494 345.956042 
L 408.625769 345.956042 
L 408.777059 341.292448 
L 408.927854 352.174167 
L 409.084838 352.174167 
L 409.536897 214.785773 
L 409.689687 272.90959 
L 409.840311 244.911515 
L 409.990579 300.727437 
L 410.141185 281.035912 
L 410.291734 324.89181 
L 410.441893 286.602433 
L 410.592047 323.249821 
L 410.744535 303.623181 
L 410.894759 337.363744 
L 411.046908 311.871671 
L 411.198277 348.309952 
L 411.651536 288.255502 
L 411.803552 313.532015 
L 411.95413 252.39869 
L 412.104284 287.383049 
L 412.254889 233.690789 
L 412.405581 305.471418 
L 412.556964 276.002139 
L 412.707992 342.098543 
L 412.8624 314.020469 
L 413.013297 323.538241 
L 413.163564 279.472434 
L 413.313968 308.396779 
L 413.465203 263.818695 
L 413.615904 296.829957 
L 413.767383 271.569175 
L 413.921918 310.381194 
L 414.072779 276.887111 
L 414.228358 300.718752 
L 414.37915 273.894319 
L 414.530597 304.896239 
L 414.681754 284.648663 
L 414.83207 303.775982 
L 414.982651 267.087036 
L 415.133563 292.410215 
L 415.284347 268.768104 
L 415.434479 291.373486 
L 415.584544 264.619392 
L 415.73489 296.590717 
L 415.884977 256.29617 
L 416.035067 286.508085 
L 416.186587 264.468628 
L 416.33872 305.097707 
L 416.489517 269.784014 
L 416.64333 327.721457 
L 416.796668 314.625332 
L 416.949188 352.174167 
L 417.099268 328.789289 
L 417.250364 331.187996 
L 417.40143 315.642684 
L 417.552397 331.187996 
L 417.705987 291.042392 
L 417.856673 352.174167 
L 418.007305 336.606584 
L 418.159723 352.174167 
L 418.310472 335.851589 
L 418.461283 352.174167 
L 418.611843 319.435339 
L 418.762547 352.174167 
L 418.913483 306.315497 
L 419.065252 352.174167 
L 419.217926 305.935133 
L 419.374696 352.174167 
L 419.679993 336.673207 
L 419.980951 330.316922 
L 420.131043 336.561849 
L 420.28208 335.049825 
L 420.432299 346.701993 
L 420.582864 299.244384 
L 420.733974 292.324716 
L 420.885166 264.593743 
L 421.035941 287.568697 
L 421.189351 257.018415 
L 421.340935 298.847998 
L 421.49093 274.781999 
L 421.640928 294.325476 
L 421.792419 265.244783 
L 421.943827 296.450203 
L 422.095324 298.619457 
L 422.247451 294.375374 
L 422.401112 267.114562 
L 422.554639 317.072765 
L 422.70623 272.571335 
L 422.861088 347.602144 
L 423.011857 303.346143 
L 423.163987 352.174167 
L 423.31475 303.914659 
L 423.464741 352.174167 
L 423.777014 352.174167 
L 423.927939 198.714663 
L 424.078344 184.582546 
L 424.228998 182.244059 
L 424.381783 185.179865 
L 424.534405 352.174167 
L 425.302399 352.174167 
L 425.45485 340.66339 
L 425.607408 349.862215 
L 425.75819 343.636459 
L 425.909101 349.839029 
L 426.06086 339.01712 
L 426.211166 344.368008 
L 426.362946 337.511007 
L 426.51348 344.356776 
L 426.665869 343.684969 
L 426.817437 349.858931 
L 426.97011 338.302456 
L 427.121676 346.77195 
L 427.274028 312.870988 
L 427.424908 345.168754 
L 427.575447 323.332818 
L 427.727434 335.17162 
L 427.879098 334.398777 
L 428.030405 338.979528 
L 428.334879 318.456846 
L 428.485599 329.633465 
L 428.63653 289.125455 
L 428.788167 287.255352 
L 428.938693 319.435339 
L 429.090136 295.514836 
L 429.240072 291.980259 
L 429.389979 280.150542 
L 429.692196 286.106591 
L 429.842158 312.248027 
L 429.992198 288.853303 
L 430.142884 288.347076 
L 430.59543 301.434135 
L 430.745798 312.47683 
L 430.899375 341.430775 
L 431.050755 329.729792 
L 431.201978 350.624071 
L 431.353461 313.532015 
L 431.503673 331.848951 
L 431.654213 300.653519 
L 431.804224 309.960257 
L 431.954369 286.508085 
L 432.104668 297.452432 
L 432.254601 294.325476 
L 432.406375 301.93937 
L 432.559328 302.992054 
L 433.011002 282.898422 
L 433.161251 307.7429 
L 433.312273 314.088153 
L 433.462636 352.174167 
L 433.614094 302.571095 
L 433.765171 337.448255 
L 433.916816 299.470903 
L 434.067373 325.671306 
L 434.2179 316.265836 
L 434.368713 319.482242 
L 434.519126 315.537859 
L 434.669209 326.413843 
L 434.819694 288.163665 
L 434.970954 285.424818 
L 435.122188 300.874638 
L 435.273906 297.224147 
L 435.424471 319.482242 
L 435.57505 317.876347 
L 435.875629 282.699354 
L 436.025611 294.325476 
L 436.177046 286.883857 
L 436.328571 285.614988 
L 436.479055 296.75044 
L 436.631597 292.233467 
L 436.783468 312.759172 
L 436.934253 305.538231 
L 437.084165 304.419372 
L 437.235113 312.590251 
L 437.385966 308.584934 
L 437.536115 319.341126 
L 437.686403 304.556598 
L 437.83756 352.174167 
L 438.460986 352.174167 
L 438.611067 50.163056 
L 439.061157 189.338145 
L 439.214427 352.174167 
L 439.520963 352.174167 
L 439.823588 342.806776 
L 439.97444 352.174167 
L 440.126282 336.739262 
L 440.276957 352.174167 
L 440.426862 338.082588 
L 440.577057 352.174167 
L 440.727189 332.63069 
L 440.877258 351.392428 
L 441.02905 336.695288 
L 441.179297 347.490471 
L 441.479514 336.516857 
L 441.62955 348.265471 
L 441.77983 337.321124 
L 441.929833 335.757646 
L 442.080534 301.506933 
L 442.230532 317.777648 
L 442.382269 283.969943 
L 442.682572 291.980259 
L 442.835311 304.393832 
L 442.986346 307.157164 
L 443.13629 326.376778 
L 443.286281 323.991009 
L 443.589203 296.687326 
L 443.740032 342.069714 
L 443.894447 326.26604 
L 444.046902 288.119312 
L 444.197457 305.671287 
L 444.34774 288.853303 
L 444.499738 307.412943 
L 444.654165 291.384388 
L 444.806101 328.181904 
L 445.107684 336.561849 
L 445.258619 293.79573 
L 445.410293 310.381194 
L 445.566227 263.886511 
L 445.72383 296.947738 
L 445.875754 279.169469 
L 446.03052 305.82196 
L 446.186447 279.933682 
L 446.337132 303.206434 
L 446.798426 273.894319 
L 446.948834 300.801143 
L 447.098816 270.873304 
L 447.248539 292.67639 
L 447.398884 265.525805 
L 447.5494 313.199371 
L 447.70189 312.100337 
L 447.856471 313.311977 
L 448.012314 330.321253 
L 448.317944 299.844155 
L 448.469874 280.299765 
L 448.923737 283.872508 
L 449.074914 293.101982 
L 449.228658 270.410418 
L 449.378846 277.55667 
L 449.529667 266.674952 
L 449.6803 293.711974 
L 449.832914 276.757385 
L 449.983381 299.947941 
L 450.133659 286.602433 
L 450.433896 288.163665 
L 450.584343 270.2095 
L 450.735395 301.724078 
L 450.890551 300.502855 
L 451.042027 301.166527 
L 451.195179 294.620284 
L 451.345762 306.315497 
L 451.496582 300.022763 
L 451.649256 309.848422 
L 451.949906 351.393551 
L 452.10348 297.078078 
L 452.254581 286.388931 
L 452.557517 291.206293 
L 452.711752 352.174167 
L 453.028254 352.174167 
L 453.186032 262.491741 
L 453.338315 323.740758 
L 453.490033 266.388591 
L 453.640363 265.650121 
L 453.791308 245.688781 
L 453.946132 271.5149 
L 454.096563 269.665977 
L 454.24694 288.944281 
L 454.398605 283.391137 
L 454.549729 307.870028 
L 454.70163 291.892411 
L 454.853028 293.270519 
L 455.006595 278.609103 
L 455.157642 277.101604 
L 455.308632 276.779404 
L 455.459892 263.818695 
L 455.611142 265.12042 
L 455.762386 319.575648 
L 455.913659 315.694872 
L 456.064933 329.697775 
L 456.217331 318.989121 
L 456.370576 332.278357 
L 456.523112 319.898405 
L 456.676621 322.330452 
L 456.828438 307.412943 
L 456.979673 318.023337 
L 457.131771 306.641198 
L 457.284367 333.704751 
L 457.435015 313.199371 
L 457.585444 328.044413 
L 457.740202 319.408007 
L 457.891106 326.561045 
L 458.04192 319.575648 
L 458.494409 277.449768 
L 458.645132 310.141692 
L 458.796174 283.872508 
L 458.946722 311.582141 
L 459.09791 276.994511 
L 459.249023 297.067147 
L 459.400389 260.718503 
L 459.553739 291.464997 
L 459.704515 258.768668 
L 459.855036 286.883857 
L 460.005878 262.660564 
L 460.157007 285.424818 
L 460.308393 287.070135 
L 460.76004 324.930896 
L 460.910951 322.595759 
L 461.220247 287.347567 
L 461.371828 294.902315 
L 461.522134 327.194459 
L 461.673401 301.651903 
L 461.825183 295.836764 
L 461.976747 276.994511 
L 462.127285 280.357506 
L 462.278208 289.992919 
L 462.440418 318.895608 
L 462.594928 267.205596 
L 462.746629 293.627976 
L 462.897395 299.947941 
L 463.048016 329.306314 
L 463.199031 333.519792 
L 463.349828 330.37955 
L 463.500098 338.941721 
L 463.804436 312.2137 
L 463.956832 329.856956 
L 464.108538 331.27768 
L 464.410929 273.78249 
L 464.561619 268.109218 
L 464.711775 272.551348 
L 464.86202 272.551348 
L 465.318489 305.454144 
L 465.476192 282.117907 
L 465.626479 300.097372 
L 465.777908 283.194895 
L 465.929566 293.354427 
L 466.081308 291.806539 
L 466.231763 298.388949 
L 466.383296 311.03794 
L 466.691214 304.393832 
L 466.994011 317.974481 
L 467.14518 307.221383 
L 467.296541 325.784889 
L 467.44976 317.804277 
L 467.606837 352.174167 
L 467.920666 352.174167 
L 468.073536 310.257179 
L 468.22518 321.348144 
L 468.375471 303.636506 
L 468.52663 252.192975 
L 468.676885 260.710696 
L 468.82826 260.718503 
L 468.979588 264.468628 
L 469.28188 284.744991 
L 469.43292 321.947295 
L 469.585628 316.724241 
L 469.736479 328.88951 
L 469.886803 316.995909 
L 470.037782 278.439422 
L 470.188008 343.575037 
L 470.338773 328.789289 
L 470.489672 327.301668 
L 470.640661 299.395612 
L 470.794171 309.967986 
L 470.946341 268.292237 
L 471.098798 301.311229 
L 471.249492 266.55246 
L 471.402454 303.130791 
L 471.554102 287.162875 
L 471.705828 311.213486 
L 471.858109 298.923745 
L 472.161687 324.430746 
L 472.313102 286.200974 
L 472.464347 283.194895 
L 472.765206 269.428884 
L 472.916448 266.797093 
L 473.067222 270.56128 
L 473.218267 293.962526 
L 473.368588 294.325476 
L 473.520697 325.897504 
L 473.670655 304.305563 
L 473.824704 352.174167 
L 473.978371 326.992727 
L 474.129155 326.524402 
L 474.279887 339.7201 
L 474.430017 305.269823 
L 474.579838 352.174167 
L 474.880233 290.416781 
L 475.030067 258.094747 
L 475.180854 293.627976 
L 475.33148 264.217322 
L 475.482289 326.487655 
L 475.632393 297.531055 
L 475.783276 307.7429 
L 475.934312 291.63406 
L 476.084141 294.325476 
L 476.234934 287.476006 
L 476.385254 288.255502 
L 476.536217 279.784905 
L 476.689277 291.63625 
L 476.839314 289.635042 
L 476.989774 265.525805 
L 477.140134 289.724897 
L 477.290927 268.768104 
L 477.441609 280.767887 
L 477.592513 271.106592 
L 477.746485 301.740452 
L 477.898779 276.970427 
L 478.049752 303.206434 
L 478.199792 283.47997 
L 478.350641 326.524402 
L 478.501433 292.152982 
L 478.651723 317.777648 
L 478.801959 262.403341 
L 478.95196 318.559387 
L 479.102465 266.306421 
L 479.252836 345.92924 
L 479.403225 330.348281 
L 479.557598 327.098383 
L 479.710083 337.552546 
L 479.860773 296.130868 
L 480.011149 301.506933 
L 480.16129 311.582141 
L 480.311686 265.401131 
L 480.462629 286.011939 
L 480.6131 273.557872 
L 480.763442 270.990116 
L 480.914893 279.991732 
L 481.065647 297.687626 
L 481.216354 300.022763 
L 481.366684 327.975075 
L 481.667024 284.944607 
L 481.817386 291.19852 
L 481.967949 289.814494 
L 482.120438 308.310716 
L 482.273256 352.174167 
L 482.588186 352.174167 
L 482.747044 331.386705 
L 483.06288 257.88093 
L 483.212873 294.408592 
L 483.364418 258.393359 
L 483.517014 312.982171 
L 483.974817 268.887597 
L 484.125636 286.790318 
L 484.275896 281.918738 
L 484.425904 300.579389 
L 484.576393 279.57689 
L 484.879418 311.756356 
L 485.029807 332.714688 
L 485.184009 320.844132 
L 485.334265 324.930896 
L 485.484564 343.587392 
L 485.634312 298.939314 
L 485.783993 305.918452 
L 485.93368 323.166346 
L 486.083928 320.904604 
L 486.233596 274.558645 
L 486.383211 287.886563 
L 486.685929 294.538879 
L 486.835779 291.19852 
L 487.135079 299.646491 
L 487.284692 313.868953 
L 487.434399 311.406418 
L 487.584653 315.485221 
L 487.734347 291.806539 
L 488.185846 284.358023 
L 488.335715 295.726515 
L 488.485737 267.746348 
L 488.635505 302.070775 
L 488.785138 280.830607 
L 488.934754 293.289559 
L 489.084786 266.964609 
L 489.241817 307.776369 
L 489.398973 287.245798 
L 489.550969 296.92244 
L 489.704656 274.231154 
L 489.854509 306.11783 
L 490.004167 289.454554 
L 490.153745 303.566467 
L 490.303344 269.854674 
L 490.453133 326.302326 
L 490.60279 324.734336 
L 490.752348 339.630244 
L 490.906569 333.070487 
L 491.06194 334.770129 
L 491.367736 306.11783 
L 491.517488 280.254173 
L 491.667118 323.166346 
L 491.81671 284.65315 
L 491.966531 301.28791 
L 492.116179 271.305972 
L 492.265732 305.134457 
L 492.415792 268.40756 
L 492.565612 294.242121 
L 492.715439 260.578905 
L 492.865053 272.0911 
L 493.014699 262.014723 
L 493.164869 304.419372 
L 493.315952 307.221383 
L 493.616052 256.802001 
L 493.770887 288.344899 
L 493.920751 272.551348 
L 494.07147 288.255502 
L 494.221884 279.57689 
L 494.371744 295.807852 
L 494.521491 266.841829 
L 494.820867 304.350462 
L 494.970945 295.107215 
L 495.120926 295.024986 
L 495.271261 301.434135 
L 495.421058 295.726515 
L 495.571009 300.579389 
L 495.571009 300.579389 
" style="fill:none;stroke:#1f77b4;stroke-linecap:square;stroke-width:1.5;"/>
   </g>
   <g id="patch_3">
    <path d="M 66.158594 352.174167 
L 66.158594 35.0625 
" style="fill:none;stroke:#000000;stroke-linecap:square;stroke-linejoin:miter;stroke-width:0.8;"/>
   </g>
   <g id="patch_4">
    <path d="M 516.019219 352.174167 
L 516.019219 35.0625 
" style="fill:none;stroke:#000000;stroke-linecap:square;stroke-linejoin:miter;stroke-width:0.8;"/>
   </g>
   <g id="patch_5">
    <path d="M 66.158594 352.174167 
L 516.019219 352.174167 
" style="fill:none;stroke:#000000;stroke-linecap:square;stroke-linejoin:miter;stroke-width:0.8;"/>
   </g>
   <g id="patch_6">
    <path d="M 66.158594 35.0625 
L 516.019219 35.0625 
" style="fill:none;stroke:#000000;stroke-linecap:square;stroke-linejoin:miter;stroke-width:0.8;"/>
   </g>
   <g id="legend_1">
    <g id="patch_7">
     <path d="M 540.51225 53.01875 
L 620.748187 53.01875 
Q 622.748187 53.01875 622.748187 51.01875 
L 622.748187 37.0625 
Q 622.748187 35.0625 620.748187 35.0625 
L 540.51225 35.0625 
Q 538.51225 35.0625 538.51225 37.0625 
L 538.51225 51.01875 
Q 538.51225 53.01875 540.51225 53.01875 
z
" style="fill:#ffffff;opacity:0.8;stroke:#cccccc;stroke-linejoin:miter;"/>
    </g>
    <g id="line2d_14">
     <path d="M 542.51225 43.160937 
L 562.51225 43.160937 
" style="fill:none;stroke:#1f77b4;stroke-linecap:square;stroke-width:1.5;"/>
    </g>
    <g id="line2d_15"/>
    <g id="text_14">
     <!-- drop_rate -->
     <defs>
      <path d="M 50.984375 -16.609375 
L 50.984375 -23.578125 
L -0.984375 -23.578125 
L -0.984375 -16.609375 
z
" id="DejaVuSans-95"/>
     </defs>
     <g transform="translate(570.51225 46.660937)scale(0.1 -0.1)">
      <use xlink:href="#DejaVuSans-100"/>
      <use x="63.476562" xlink:href="#DejaVuSans-114"/>
      <use x="104.558594" xlink:href="#DejaVuSans-111"/>
      <use x="165.740234" xlink:href="#DejaVuSans-112"/>
      <use x="229.216797" xlink:href="#DejaVuSans-95"/>
      <use x="279.216797" xlink:href="#DejaVuSans-114"/>
      <use x="320.330078" xlink:href="#DejaVuSans-97"/>
      <use x="381.609375" xlink:href="#DejaVuSans-116"/>
      <use x="420.818359" xlink:href="#DejaVuSans-101"/>
     </g>
    </g>
   </g>
  </g>
  <g id="text_15">
   <!-- result droprate -->
   <defs>
    <path d="M 44.28125 53.078125 
L 44.28125 44.578125 
Q 40.484375 46.53125 36.375 47.5 
Q 32.28125 48.484375 27.875 48.484375 
Q 21.1875 48.484375 17.84375 46.4375 
Q 14.5 44.390625 14.5 40.28125 
Q 14.5 37.15625 16.890625 35.375 
Q 19.28125 33.59375 26.515625 31.984375 
L 29.59375 31.296875 
Q 39.15625 29.25 43.1875 25.515625 
Q 47.21875 21.78125 47.21875 15.09375 
Q 47.21875 7.46875 41.1875 3.015625 
Q 35.15625 -1.421875 24.609375 -1.421875 
Q 20.21875 -1.421875 15.453125 -0.5625 
Q 10.6875 0.296875 5.421875 2 
L 5.421875 11.28125 
Q 10.40625 8.6875 15.234375 7.390625 
Q 20.0625 6.109375 24.8125 6.109375 
Q 31.15625 6.109375 34.5625 8.28125 
Q 37.984375 10.453125 37.984375 14.40625 
Q 37.984375 18.0625 35.515625 20.015625 
Q 33.0625 21.96875 24.703125 23.78125 
L 21.578125 24.515625 
Q 13.234375 26.265625 9.515625 29.90625 
Q 5.8125 33.546875 5.8125 39.890625 
Q 5.8125 47.609375 11.28125 51.796875 
Q 16.75 56 26.8125 56 
Q 31.78125 56 36.171875 55.265625 
Q 40.578125 54.546875 44.28125 53.078125 
z
" id="DejaVuSans-115"/>
    <path d="M 8.5 21.578125 
L 8.5 54.6875 
L 17.484375 54.6875 
L 17.484375 21.921875 
Q 17.484375 14.15625 20.5 10.265625 
Q 23.53125 6.390625 29.59375 6.390625 
Q 36.859375 6.390625 41.078125 11.03125 
Q 45.3125 15.671875 45.3125 23.6875 
L 45.3125 54.6875 
L 54.296875 54.6875 
L 54.296875 0 
L 45.3125 0 
L 45.3125 8.40625 
Q 42.046875 3.421875 37.71875 1 
Q 33.40625 -1.421875 27.6875 -1.421875 
Q 18.265625 -1.421875 13.375 4.4375 
Q 8.5 10.296875 8.5 21.578125 
z
M 31.109375 56 
z
" id="DejaVuSans-117"/>
    <path d="M 9.421875 75.984375 
L 18.40625 75.984375 
L 18.40625 0 
L 9.421875 0 
z
" id="DejaVuSans-108"/>
    <path id="DejaVuSans-32"/>
   </defs>
   <g transform="translate(297.047813 17.038125)scale(0.12 -0.12)">
    <use xlink:href="#DejaVuSans-114"/>
    <use x="41.082031" xlink:href="#DejaVuSans-101"/>
    <use x="102.605469" xlink:href="#DejaVuSans-115"/>
    <use x="154.705078" xlink:href="#DejaVuSans-117"/>
    <use x="218.083984" xlink:href="#DejaVuSans-108"/>
    <use x="245.867188" xlink:href="#DejaVuSans-116"/>
    <use x="285.076172" xlink:href="#DejaVuSans-32"/>
    <use x="316.863281" xlink:href="#DejaVuSans-100"/>
    <use x="380.339844" xlink:href="#DejaVuSans-114"/>
    <use x="421.421875" xlink:href="#DejaVuSans-111"/>
    <use x="482.603516" xlink:href="#DejaVuSans-112"/>
    <use x="546.080078" xlink:href="#DejaVuSans-114"/>
    <use x="587.193359" xlink:href="#DejaVuSans-97"/>
    <use x="648.472656" xlink:href="#DejaVuSans-116"/>
    <use x="687.681641" xlink:href="#DejaVuSans-101"/>
   </g>
  </g>
 </g>
 <defs>
  <clipPath id="p789a059b31">
   <rect height="317.111667" width="449.860625" x="66.158594" y="35.0625"/>
  </clipPath>
 </defs>
</svg>
