<?xml version="1.0" encoding="utf-8" standalone="no"?>
<!DOCTYPE svg PUBLIC "-//W3C//DTD SVG 1.1//EN"
  "http://www.w3.org/Graphics/SVG/1.1/DTD/svg11.dtd">
<!-- Created with matplotlib (https://matplotlib.org/) -->
<svg height="396pt" version="1.1" viewBox="0 0 684 396" width="684pt" xmlns="http://www.w3.org/2000/svg" xmlns:xlink="http://www.w3.org/1999/xlink">
 <defs>
  <style type="text/css">
*{stroke-linecap:butt;stroke-linejoin:round;}
  </style>
 </defs>
 <g id="figure_1">
  <g id="patch_1">
   <path d="M 0 396 
L 684 396 
L 684 0 
L 0 0 
z
" style="fill:#ffffff;"/>
  </g>
  <g id="axes_1">
   <g id="patch_2">
    <path d="M 83.472344 352.174167 
L 529.912969 352.174167 
L 529.912969 35.0625 
L 83.472344 35.0625 
z
" style="fill:#ffffff;"/>
   </g>
   <g id="matplotlib.axis_1">
    <g id="xtick_1">
     <g id="line2d_1">
      <defs>
       <path d="M 0 0 
L 0 3.5 
" id="m47fca1a035" style="stroke:#000000;stroke-width:0.8;"/>
      </defs>
      <g>
       <use style="stroke:#000000;stroke-width:0.8;" x="103.765099" xlink:href="#m47fca1a035" y="352.174167"/>
      </g>
     </g>
     <g id="text_1">
      <!-- 0 -->
      <defs>
       <path d="M 31.78125 66.40625 
Q 24.171875 66.40625 20.328125 58.90625 
Q 16.5 51.421875 16.5 36.375 
Q 16.5 21.390625 20.328125 13.890625 
Q 24.171875 6.390625 31.78125 6.390625 
Q 39.453125 6.390625 43.28125 13.890625 
Q 47.125 21.390625 47.125 36.375 
Q 47.125 51.421875 43.28125 58.90625 
Q 39.453125 66.40625 31.78125 66.40625 
z
M 31.78125 74.21875 
Q 44.046875 74.21875 50.515625 64.515625 
Q 56.984375 54.828125 56.984375 36.375 
Q 56.984375 17.96875 50.515625 8.265625 
Q 44.046875 -1.421875 31.78125 -1.421875 
Q 19.53125 -1.421875 13.0625 8.265625 
Q 6.59375 17.96875 6.59375 36.375 
Q 6.59375 54.828125 13.0625 64.515625 
Q 19.53125 74.21875 31.78125 74.21875 
z
" id="DejaVuSans-48"/>
      </defs>
      <g transform="translate(100.583849 366.772604)scale(0.1 -0.1)">
       <use xlink:href="#DejaVuSans-48"/>
      </g>
     </g>
    </g>
    <g id="xtick_2">
     <g id="line2d_2">
      <g>
       <use style="stroke:#000000;stroke-width:0.8;" x="177.394418" xlink:href="#m47fca1a035" y="352.174167"/>
      </g>
     </g>
     <g id="text_2">
      <!-- 50 -->
      <defs>
       <path d="M 10.796875 72.90625 
L 49.515625 72.90625 
L 49.515625 64.59375 
L 19.828125 64.59375 
L 19.828125 46.734375 
Q 21.96875 47.46875 24.109375 47.828125 
Q 26.265625 48.1875 28.421875 48.1875 
Q 40.625 48.1875 47.75 41.5 
Q 54.890625 34.8125 54.890625 23.390625 
Q 54.890625 11.625 47.5625 5.09375 
Q 40.234375 -1.421875 26.90625 -1.421875 
Q 22.3125 -1.421875 17.546875 -0.640625 
Q 12.796875 0.140625 7.71875 1.703125 
L 7.71875 11.625 
Q 12.109375 9.234375 16.796875 8.0625 
Q 21.484375 6.890625 26.703125 6.890625 
Q 35.15625 6.890625 40.078125 11.328125 
Q 45.015625 15.765625 45.015625 23.390625 
Q 45.015625 31 40.078125 35.4375 
Q 35.15625 39.890625 26.703125 39.890625 
Q 22.75 39.890625 18.8125 39.015625 
Q 14.890625 38.140625 10.796875 36.28125 
z
" id="DejaVuSans-53"/>
      </defs>
      <g transform="translate(171.031918 366.772604)scale(0.1 -0.1)">
       <use xlink:href="#DejaVuSans-53"/>
       <use x="63.623047" xlink:href="#DejaVuSans-48"/>
      </g>
     </g>
    </g>
    <g id="xtick_3">
     <g id="line2d_3">
      <g>
       <use style="stroke:#000000;stroke-width:0.8;" x="251.023737" xlink:href="#m47fca1a035" y="352.174167"/>
      </g>
     </g>
     <g id="text_3">
      <!-- 100 -->
      <defs>
       <path d="M 12.40625 8.296875 
L 28.515625 8.296875 
L 28.515625 63.921875 
L 10.984375 60.40625 
L 10.984375 69.390625 
L 28.421875 72.90625 
L 38.28125 72.90625 
L 38.28125 8.296875 
L 54.390625 8.296875 
L 54.390625 0 
L 12.40625 0 
z
" id="DejaVuSans-49"/>
      </defs>
      <g transform="translate(241.479987 366.772604)scale(0.1 -0.1)">
       <use xlink:href="#DejaVuSans-49"/>
       <use x="63.623047" xlink:href="#DejaVuSans-48"/>
       <use x="127.246094" xlink:href="#DejaVuSans-48"/>
      </g>
     </g>
    </g>
    <g id="xtick_4">
     <g id="line2d_4">
      <g>
       <use style="stroke:#000000;stroke-width:0.8;" x="324.653056" xlink:href="#m47fca1a035" y="352.174167"/>
      </g>
     </g>
     <g id="text_4">
      <!-- 150 -->
      <g transform="translate(315.109306 366.772604)scale(0.1 -0.1)">
       <use xlink:href="#DejaVuSans-49"/>
       <use x="63.623047" xlink:href="#DejaVuSans-53"/>
       <use x="127.246094" xlink:href="#DejaVuSans-48"/>
      </g>
     </g>
    </g>
    <g id="xtick_5">
     <g id="line2d_5">
      <g>
       <use style="stroke:#000000;stroke-width:0.8;" x="398.282375" xlink:href="#m47fca1a035" y="352.174167"/>
      </g>
     </g>
     <g id="text_5">
      <!-- 200 -->
      <defs>
       <path d="M 19.1875 8.296875 
L 53.609375 8.296875 
L 53.609375 0 
L 7.328125 0 
L 7.328125 8.296875 
Q 12.9375 14.109375 22.625 23.890625 
Q 32.328125 33.6875 34.8125 36.53125 
Q 39.546875 41.84375 41.421875 45.53125 
Q 43.3125 49.21875 43.3125 52.78125 
Q 43.3125 58.59375 39.234375 62.25 
Q 35.15625 65.921875 28.609375 65.921875 
Q 23.96875 65.921875 18.8125 64.3125 
Q 13.671875 62.703125 7.8125 59.421875 
L 7.8125 69.390625 
Q 13.765625 71.78125 18.9375 73 
Q 24.125 74.21875 28.421875 74.21875 
Q 39.75 74.21875 46.484375 68.546875 
Q 53.21875 62.890625 53.21875 53.421875 
Q 53.21875 48.921875 51.53125 44.890625 
Q 49.859375 40.875 45.40625 35.40625 
Q 44.1875 33.984375 37.640625 27.21875 
Q 31.109375 20.453125 19.1875 8.296875 
z
" id="DejaVuSans-50"/>
      </defs>
      <g transform="translate(388.738625 366.772604)scale(0.1 -0.1)">
       <use xlink:href="#DejaVuSans-50"/>
       <use x="63.623047" xlink:href="#DejaVuSans-48"/>
       <use x="127.246094" xlink:href="#DejaVuSans-48"/>
      </g>
     </g>
    </g>
    <g id="xtick_6">
     <g id="line2d_6">
      <g>
       <use style="stroke:#000000;stroke-width:0.8;" x="471.911694" xlink:href="#m47fca1a035" y="352.174167"/>
      </g>
     </g>
     <g id="text_6">
      <!-- 250 -->
      <g transform="translate(462.367944 366.772604)scale(0.1 -0.1)">
       <use xlink:href="#DejaVuSans-50"/>
       <use x="63.623047" xlink:href="#DejaVuSans-53"/>
       <use x="127.246094" xlink:href="#DejaVuSans-48"/>
      </g>
     </g>
    </g>
   </g>
   <g id="matplotlib.axis_2">
    <g id="ytick_1">
     <g id="line2d_7">
      <defs>
       <path d="M 0 0 
L -3.5 0 
" id="m549418a349" style="stroke:#000000;stroke-width:0.8;"/>
      </defs>
      <g>
       <use style="stroke:#000000;stroke-width:0.8;" x="83.472344" xlink:href="#m549418a349" y="352.174167"/>
      </g>
     </g>
     <g id="text_7">
      <!-- 0 -->
      <g transform="translate(70.109844 355.973385)scale(0.1 -0.1)">
       <use xlink:href="#DejaVuSans-48"/>
      </g>
     </g>
    </g>
    <g id="ytick_2">
     <g id="line2d_8">
      <g>
       <use style="stroke:#000000;stroke-width:0.8;" x="83.472344" xlink:href="#m549418a349" y="313.944912"/>
      </g>
     </g>
     <g id="text_8">
      <!-- 10 -->
      <g transform="translate(63.747344 317.744131)scale(0.1 -0.1)">
       <use xlink:href="#DejaVuSans-49"/>
       <use x="63.623047" xlink:href="#DejaVuSans-48"/>
      </g>
     </g>
    </g>
    <g id="ytick_3">
     <g id="line2d_9">
      <g>
       <use style="stroke:#000000;stroke-width:0.8;" x="83.472344" xlink:href="#m549418a349" y="275.715658"/>
      </g>
     </g>
     <g id="text_9">
      <!-- 20 -->
      <g transform="translate(63.747344 279.514876)scale(0.1 -0.1)">
       <use xlink:href="#DejaVuSans-50"/>
       <use x="63.623047" xlink:href="#DejaVuSans-48"/>
      </g>
     </g>
    </g>
    <g id="ytick_4">
     <g id="line2d_10">
      <g>
       <use style="stroke:#000000;stroke-width:0.8;" x="83.472344" xlink:href="#m549418a349" y="237.486403"/>
      </g>
     </g>
     <g id="text_10">
      <!-- 30 -->
      <defs>
       <path d="M 40.578125 39.3125 
Q 47.65625 37.796875 51.625 33 
Q 55.609375 28.21875 55.609375 21.1875 
Q 55.609375 10.40625 48.1875 4.484375 
Q 40.765625 -1.421875 27.09375 -1.421875 
Q 22.515625 -1.421875 17.65625 -0.515625 
Q 12.796875 0.390625 7.625 2.203125 
L 7.625 11.71875 
Q 11.71875 9.328125 16.59375 8.109375 
Q 21.484375 6.890625 26.8125 6.890625 
Q 36.078125 6.890625 40.9375 10.546875 
Q 45.796875 14.203125 45.796875 21.1875 
Q 45.796875 27.640625 41.28125 31.265625 
Q 36.765625 34.90625 28.71875 34.90625 
L 20.21875 34.90625 
L 20.21875 43.015625 
L 29.109375 43.015625 
Q 36.375 43.015625 40.234375 45.921875 
Q 44.09375 48.828125 44.09375 54.296875 
Q 44.09375 59.90625 40.109375 62.90625 
Q 36.140625 65.921875 28.71875 65.921875 
Q 24.65625 65.921875 20.015625 65.03125 
Q 15.375 64.15625 9.8125 62.3125 
L 9.8125 71.09375 
Q 15.4375 72.65625 20.34375 73.4375 
Q 25.25 74.21875 29.59375 74.21875 
Q 40.828125 74.21875 47.359375 69.109375 
Q 53.90625 64.015625 53.90625 55.328125 
Q 53.90625 49.265625 50.4375 45.09375 
Q 46.96875 40.921875 40.578125 39.3125 
z
" id="DejaVuSans-51"/>
      </defs>
      <g transform="translate(63.747344 241.285622)scale(0.1 -0.1)">
       <use xlink:href="#DejaVuSans-51"/>
       <use x="63.623047" xlink:href="#DejaVuSans-48"/>
      </g>
     </g>
    </g>
    <g id="ytick_5">
     <g id="line2d_11">
      <g>
       <use style="stroke:#000000;stroke-width:0.8;" x="83.472344" xlink:href="#m549418a349" y="199.257148"/>
      </g>
     </g>
     <g id="text_11">
      <!-- 40 -->
      <defs>
       <path d="M 37.796875 64.3125 
L 12.890625 25.390625 
L 37.796875 25.390625 
z
M 35.203125 72.90625 
L 47.609375 72.90625 
L 47.609375 25.390625 
L 58.015625 25.390625 
L 58.015625 17.1875 
L 47.609375 17.1875 
L 47.609375 0 
L 37.796875 0 
L 37.796875 17.1875 
L 4.890625 17.1875 
L 4.890625 26.703125 
z
" id="DejaVuSans-52"/>
      </defs>
      <g transform="translate(63.747344 203.056367)scale(0.1 -0.1)">
       <use xlink:href="#DejaVuSans-52"/>
       <use x="63.623047" xlink:href="#DejaVuSans-48"/>
      </g>
     </g>
    </g>
    <g id="ytick_6">
     <g id="line2d_12">
      <g>
       <use style="stroke:#000000;stroke-width:0.8;" x="83.472344" xlink:href="#m549418a349" y="161.027894"/>
      </g>
     </g>
     <g id="text_12">
      <!-- 50 -->
      <g transform="translate(63.747344 164.827113)scale(0.1 -0.1)">
       <use xlink:href="#DejaVuSans-53"/>
       <use x="63.623047" xlink:href="#DejaVuSans-48"/>
      </g>
     </g>
    </g>
    <g id="ytick_7">
     <g id="line2d_13">
      <g>
       <use style="stroke:#000000;stroke-width:0.8;" x="83.472344" xlink:href="#m549418a349" y="122.798639"/>
      </g>
     </g>
     <g id="text_13">
      <!-- 60 -->
      <defs>
       <path d="M 33.015625 40.375 
Q 26.375 40.375 22.484375 35.828125 
Q 18.609375 31.296875 18.609375 23.390625 
Q 18.609375 15.53125 22.484375 10.953125 
Q 26.375 6.390625 33.015625 6.390625 
Q 39.65625 6.390625 43.53125 10.953125 
Q 47.40625 15.53125 47.40625 23.390625 
Q 47.40625 31.296875 43.53125 35.828125 
Q 39.65625 40.375 33.015625 40.375 
z
M 52.59375 71.296875 
L 52.59375 62.3125 
Q 48.875 64.0625 45.09375 64.984375 
Q 41.3125 65.921875 37.59375 65.921875 
Q 27.828125 65.921875 22.671875 59.328125 
Q 17.53125 52.734375 16.796875 39.40625 
Q 19.671875 43.65625 24.015625 45.921875 
Q 28.375 48.1875 33.59375 48.1875 
Q 44.578125 48.1875 50.953125 41.515625 
Q 57.328125 34.859375 57.328125 23.390625 
Q 57.328125 12.15625 50.6875 5.359375 
Q 44.046875 -1.421875 33.015625 -1.421875 
Q 20.359375 -1.421875 13.671875 8.265625 
Q 6.984375 17.96875 6.984375 36.375 
Q 6.984375 53.65625 15.1875 63.9375 
Q 23.390625 74.21875 37.203125 74.21875 
Q 40.921875 74.21875 44.703125 73.484375 
Q 48.484375 72.75 52.59375 71.296875 
z
" id="DejaVuSans-54"/>
      </defs>
      <g transform="translate(63.747344 126.597858)scale(0.1 -0.1)">
       <use xlink:href="#DejaVuSans-54"/>
       <use x="63.623047" xlink:href="#DejaVuSans-48"/>
      </g>
     </g>
    </g>
    <g id="ytick_8">
     <g id="line2d_14">
      <g>
       <use style="stroke:#000000;stroke-width:0.8;" x="83.472344" xlink:href="#m549418a349" y="84.569385"/>
      </g>
     </g>
     <g id="text_14">
      <!-- 70 -->
      <defs>
       <path d="M 8.203125 72.90625 
L 55.078125 72.90625 
L 55.078125 68.703125 
L 28.609375 0 
L 18.3125 0 
L 43.21875 64.59375 
L 8.203125 64.59375 
z
" id="DejaVuSans-55"/>
      </defs>
      <g transform="translate(63.747344 88.368603)scale(0.1 -0.1)">
       <use xlink:href="#DejaVuSans-55"/>
       <use x="63.623047" xlink:href="#DejaVuSans-48"/>
      </g>
     </g>
    </g>
    <g id="ytick_9">
     <g id="line2d_15">
      <g>
       <use style="stroke:#000000;stroke-width:0.8;" x="83.472344" xlink:href="#m549418a349" y="46.34013"/>
      </g>
     </g>
     <g id="text_15">
      <!-- 80 -->
      <defs>
       <path d="M 31.78125 34.625 
Q 24.75 34.625 20.71875 30.859375 
Q 16.703125 27.09375 16.703125 20.515625 
Q 16.703125 13.921875 20.71875 10.15625 
Q 24.75 6.390625 31.78125 6.390625 
Q 38.8125 6.390625 42.859375 10.171875 
Q 46.921875 13.96875 46.921875 20.515625 
Q 46.921875 27.09375 42.890625 30.859375 
Q 38.875 34.625 31.78125 34.625 
z
M 21.921875 38.8125 
Q 15.578125 40.375 12.03125 44.71875 
Q 8.5 49.078125 8.5 55.328125 
Q 8.5 64.0625 14.71875 69.140625 
Q 20.953125 74.21875 31.78125 74.21875 
Q 42.671875 74.21875 48.875 69.140625 
Q 55.078125 64.0625 55.078125 55.328125 
Q 55.078125 49.078125 51.53125 44.71875 
Q 48 40.375 41.703125 38.8125 
Q 48.828125 37.15625 52.796875 32.3125 
Q 56.78125 27.484375 56.78125 20.515625 
Q 56.78125 9.90625 50.3125 4.234375 
Q 43.84375 -1.421875 31.78125 -1.421875 
Q 19.734375 -1.421875 13.25 4.234375 
Q 6.78125 9.90625 6.78125 20.515625 
Q 6.78125 27.484375 10.78125 32.3125 
Q 14.796875 37.15625 21.921875 38.8125 
z
M 18.3125 54.390625 
Q 18.3125 48.734375 21.84375 45.5625 
Q 25.390625 42.390625 31.78125 42.390625 
Q 38.140625 42.390625 41.71875 45.5625 
Q 45.3125 48.734375 45.3125 54.390625 
Q 45.3125 60.0625 41.71875 63.234375 
Q 38.140625 66.40625 31.78125 66.40625 
Q 25.390625 66.40625 21.84375 63.234375 
Q 18.3125 60.0625 18.3125 54.390625 
z
" id="DejaVuSans-56"/>
      </defs>
      <g transform="translate(63.747344 50.139349)scale(0.1 -0.1)">
       <use xlink:href="#DejaVuSans-56"/>
       <use x="63.623047" xlink:href="#DejaVuSans-48"/>
      </g>
     </g>
    </g>
    <g id="text_16">
     <!-- throughput -->
     <defs>
      <path d="M 18.3125 70.21875 
L 18.3125 54.6875 
L 36.8125 54.6875 
L 36.8125 47.703125 
L 18.3125 47.703125 
L 18.3125 18.015625 
Q 18.3125 11.328125 20.140625 9.421875 
Q 21.96875 7.515625 27.59375 7.515625 
L 36.8125 7.515625 
L 36.8125 0 
L 27.59375 0 
Q 17.1875 0 13.234375 3.875 
Q 9.28125 7.765625 9.28125 18.015625 
L 9.28125 47.703125 
L 2.6875 47.703125 
L 2.6875 54.6875 
L 9.28125 54.6875 
L 9.28125 70.21875 
z
" id="DejaVuSans-116"/>
      <path d="M 54.890625 33.015625 
L 54.890625 0 
L 45.90625 0 
L 45.90625 32.71875 
Q 45.90625 40.484375 42.875 44.328125 
Q 39.84375 48.1875 33.796875 48.1875 
Q 26.515625 48.1875 22.3125 43.546875 
Q 18.109375 38.921875 18.109375 30.90625 
L 18.109375 0 
L 9.078125 0 
L 9.078125 75.984375 
L 18.109375 75.984375 
L 18.109375 46.1875 
Q 21.34375 51.125 25.703125 53.5625 
Q 30.078125 56 35.796875 56 
Q 45.21875 56 50.046875 50.171875 
Q 54.890625 44.34375 54.890625 33.015625 
z
" id="DejaVuSans-104"/>
      <path d="M 41.109375 46.296875 
Q 39.59375 47.171875 37.8125 47.578125 
Q 36.03125 48 33.890625 48 
Q 26.265625 48 22.1875 43.046875 
Q 18.109375 38.09375 18.109375 28.8125 
L 18.109375 0 
L 9.078125 0 
L 9.078125 54.6875 
L 18.109375 54.6875 
L 18.109375 46.1875 
Q 20.953125 51.171875 25.484375 53.578125 
Q 30.03125 56 36.53125 56 
Q 37.453125 56 38.578125 55.875 
Q 39.703125 55.765625 41.0625 55.515625 
z
" id="DejaVuSans-114"/>
      <path d="M 30.609375 48.390625 
Q 23.390625 48.390625 19.1875 42.75 
Q 14.984375 37.109375 14.984375 27.296875 
Q 14.984375 17.484375 19.15625 11.84375 
Q 23.34375 6.203125 30.609375 6.203125 
Q 37.796875 6.203125 41.984375 11.859375 
Q 46.1875 17.53125 46.1875 27.296875 
Q 46.1875 37.015625 41.984375 42.703125 
Q 37.796875 48.390625 30.609375 48.390625 
z
M 30.609375 56 
Q 42.328125 56 49.015625 48.375 
Q 55.71875 40.765625 55.71875 27.296875 
Q 55.71875 13.875 49.015625 6.21875 
Q 42.328125 -1.421875 30.609375 -1.421875 
Q 18.84375 -1.421875 12.171875 6.21875 
Q 5.515625 13.875 5.515625 27.296875 
Q 5.515625 40.765625 12.171875 48.375 
Q 18.84375 56 30.609375 56 
z
" id="DejaVuSans-111"/>
      <path d="M 8.5 21.578125 
L 8.5 54.6875 
L 17.484375 54.6875 
L 17.484375 21.921875 
Q 17.484375 14.15625 20.5 10.265625 
Q 23.53125 6.390625 29.59375 6.390625 
Q 36.859375 6.390625 41.078125 11.03125 
Q 45.3125 15.671875 45.3125 23.6875 
L 45.3125 54.6875 
L 54.296875 54.6875 
L 54.296875 0 
L 45.3125 0 
L 45.3125 8.40625 
Q 42.046875 3.421875 37.71875 1 
Q 33.40625 -1.421875 27.6875 -1.421875 
Q 18.265625 -1.421875 13.375 4.4375 
Q 8.5 10.296875 8.5 21.578125 
z
M 31.109375 56 
z
" id="DejaVuSans-117"/>
      <path d="M 45.40625 27.984375 
Q 45.40625 37.75 41.375 43.109375 
Q 37.359375 48.484375 30.078125 48.484375 
Q 22.859375 48.484375 18.828125 43.109375 
Q 14.796875 37.75 14.796875 27.984375 
Q 14.796875 18.265625 18.828125 12.890625 
Q 22.859375 7.515625 30.078125 7.515625 
Q 37.359375 7.515625 41.375 12.890625 
Q 45.40625 18.265625 45.40625 27.984375 
z
M 54.390625 6.78125 
Q 54.390625 -7.171875 48.1875 -13.984375 
Q 42 -20.796875 29.203125 -20.796875 
Q 24.46875 -20.796875 20.265625 -20.09375 
Q 16.0625 -19.390625 12.109375 -17.921875 
L 12.109375 -9.1875 
Q 16.0625 -11.328125 19.921875 -12.34375 
Q 23.78125 -13.375 27.78125 -13.375 
Q 36.625 -13.375 41.015625 -8.765625 
Q 45.40625 -4.15625 45.40625 5.171875 
L 45.40625 9.625 
Q 42.625 4.78125 38.28125 2.390625 
Q 33.9375 0 27.875 0 
Q 17.828125 0 11.671875 7.65625 
Q 5.515625 15.328125 5.515625 27.984375 
Q 5.515625 40.671875 11.671875 48.328125 
Q 17.828125 56 27.875 56 
Q 33.9375 56 38.28125 53.609375 
Q 42.625 51.21875 45.40625 46.390625 
L 45.40625 54.6875 
L 54.390625 54.6875 
z
" id="DejaVuSans-103"/>
      <path d="M 18.109375 8.203125 
L 18.109375 -20.796875 
L 9.078125 -20.796875 
L 9.078125 54.6875 
L 18.109375 54.6875 
L 18.109375 46.390625 
Q 20.953125 51.265625 25.265625 53.625 
Q 29.59375 56 35.59375 56 
Q 45.5625 56 51.78125 48.09375 
Q 58.015625 40.1875 58.015625 27.296875 
Q 58.015625 14.40625 51.78125 6.484375 
Q 45.5625 -1.421875 35.59375 -1.421875 
Q 29.59375 -1.421875 25.265625 0.953125 
Q 20.953125 3.328125 18.109375 8.203125 
z
M 48.6875 27.296875 
Q 48.6875 37.203125 44.609375 42.84375 
Q 40.53125 48.484375 33.40625 48.484375 
Q 26.265625 48.484375 22.1875 42.84375 
Q 18.109375 37.203125 18.109375 27.296875 
Q 18.109375 17.390625 22.1875 11.75 
Q 26.265625 6.109375 33.40625 6.109375 
Q 40.53125 6.109375 44.609375 11.75 
Q 48.6875 17.390625 48.6875 27.296875 
z
" id="DejaVuSans-112"/>
     </defs>
     <g transform="translate(46.469844 221.675365)rotate(-90)scale(0.1 -0.1)">
      <use xlink:href="#DejaVuSans-116"/>
      <use x="39.208984" xlink:href="#DejaVuSans-104"/>
      <use x="102.587891" xlink:href="#DejaVuSans-114"/>
      <use x="143.669922" xlink:href="#DejaVuSans-111"/>
      <use x="204.851562" xlink:href="#DejaVuSans-117"/>
      <use x="268.230469" xlink:href="#DejaVuSans-103"/>
      <use x="331.707031" xlink:href="#DejaVuSans-104"/>
      <use x="395.085938" xlink:href="#DejaVuSans-112"/>
      <use x="458.5625" xlink:href="#DejaVuSans-117"/>
      <use x="521.941406" xlink:href="#DejaVuSans-116"/>
     </g>
     <!-- (mbit / second) -->
     <defs>
      <path d="M 31 75.875 
Q 24.46875 64.65625 21.28125 53.65625 
Q 18.109375 42.671875 18.109375 31.390625 
Q 18.109375 20.125 21.3125 9.0625 
Q 24.515625 -2 31 -13.1875 
L 23.1875 -13.1875 
Q 15.875 -1.703125 12.234375 9.375 
Q 8.59375 20.453125 8.59375 31.390625 
Q 8.59375 42.28125 12.203125 53.3125 
Q 15.828125 64.359375 23.1875 75.875 
z
" id="DejaVuSans-40"/>
      <path d="M 52 44.1875 
Q 55.375 50.25 60.0625 53.125 
Q 64.75 56 71.09375 56 
Q 79.640625 56 84.28125 50.015625 
Q 88.921875 44.046875 88.921875 33.015625 
L 88.921875 0 
L 79.890625 0 
L 79.890625 32.71875 
Q 79.890625 40.578125 77.09375 44.375 
Q 74.3125 48.1875 68.609375 48.1875 
Q 61.625 48.1875 57.5625 43.546875 
Q 53.515625 38.921875 53.515625 30.90625 
L 53.515625 0 
L 44.484375 0 
L 44.484375 32.71875 
Q 44.484375 40.625 41.703125 44.40625 
Q 38.921875 48.1875 33.109375 48.1875 
Q 26.21875 48.1875 22.15625 43.53125 
Q 18.109375 38.875 18.109375 30.90625 
L 18.109375 0 
L 9.078125 0 
L 9.078125 54.6875 
L 18.109375 54.6875 
L 18.109375 46.1875 
Q 21.1875 51.21875 25.484375 53.609375 
Q 29.78125 56 35.6875 56 
Q 41.65625 56 45.828125 52.96875 
Q 50 49.953125 52 44.1875 
z
" id="DejaVuSans-109"/>
      <path d="M 48.6875 27.296875 
Q 48.6875 37.203125 44.609375 42.84375 
Q 40.53125 48.484375 33.40625 48.484375 
Q 26.265625 48.484375 22.1875 42.84375 
Q 18.109375 37.203125 18.109375 27.296875 
Q 18.109375 17.390625 22.1875 11.75 
Q 26.265625 6.109375 33.40625 6.109375 
Q 40.53125 6.109375 44.609375 11.75 
Q 48.6875 17.390625 48.6875 27.296875 
z
M 18.109375 46.390625 
Q 20.953125 51.265625 25.265625 53.625 
Q 29.59375 56 35.59375 56 
Q 45.5625 56 51.78125 48.09375 
Q 58.015625 40.1875 58.015625 27.296875 
Q 58.015625 14.40625 51.78125 6.484375 
Q 45.5625 -1.421875 35.59375 -1.421875 
Q 29.59375 -1.421875 25.265625 0.953125 
Q 20.953125 3.328125 18.109375 8.203125 
L 18.109375 0 
L 9.078125 0 
L 9.078125 75.984375 
L 18.109375 75.984375 
z
" id="DejaVuSans-98"/>
      <path d="M 9.421875 54.6875 
L 18.40625 54.6875 
L 18.40625 0 
L 9.421875 0 
z
M 9.421875 75.984375 
L 18.40625 75.984375 
L 18.40625 64.59375 
L 9.421875 64.59375 
z
" id="DejaVuSans-105"/>
      <path id="DejaVuSans-32"/>
      <path d="M 25.390625 72.90625 
L 33.6875 72.90625 
L 8.296875 -9.28125 
L 0 -9.28125 
z
" id="DejaVuSans-47"/>
      <path d="M 44.28125 53.078125 
L 44.28125 44.578125 
Q 40.484375 46.53125 36.375 47.5 
Q 32.28125 48.484375 27.875 48.484375 
Q 21.1875 48.484375 17.84375 46.4375 
Q 14.5 44.390625 14.5 40.28125 
Q 14.5 37.15625 16.890625 35.375 
Q 19.28125 33.59375 26.515625 31.984375 
L 29.59375 31.296875 
Q 39.15625 29.25 43.1875 25.515625 
Q 47.21875 21.78125 47.21875 15.09375 
Q 47.21875 7.46875 41.1875 3.015625 
Q 35.15625 -1.421875 24.609375 -1.421875 
Q 20.21875 -1.421875 15.453125 -0.5625 
Q 10.6875 0.296875 5.421875 2 
L 5.421875 11.28125 
Q 10.40625 8.6875 15.234375 7.390625 
Q 20.0625 6.109375 24.8125 6.109375 
Q 31.15625 6.109375 34.5625 8.28125 
Q 37.984375 10.453125 37.984375 14.40625 
Q 37.984375 18.0625 35.515625 20.015625 
Q 33.0625 21.96875 24.703125 23.78125 
L 21.578125 24.515625 
Q 13.234375 26.265625 9.515625 29.90625 
Q 5.8125 33.546875 5.8125 39.890625 
Q 5.8125 47.609375 11.28125 51.796875 
Q 16.75 56 26.8125 56 
Q 31.78125 56 36.171875 55.265625 
Q 40.578125 54.546875 44.28125 53.078125 
z
" id="DejaVuSans-115"/>
      <path d="M 56.203125 29.59375 
L 56.203125 25.203125 
L 14.890625 25.203125 
Q 15.484375 15.921875 20.484375 11.0625 
Q 25.484375 6.203125 34.421875 6.203125 
Q 39.59375 6.203125 44.453125 7.46875 
Q 49.3125 8.734375 54.109375 11.28125 
L 54.109375 2.78125 
Q 49.265625 0.734375 44.1875 -0.34375 
Q 39.109375 -1.421875 33.890625 -1.421875 
Q 20.796875 -1.421875 13.15625 6.1875 
Q 5.515625 13.8125 5.515625 26.8125 
Q 5.515625 40.234375 12.765625 48.109375 
Q 20.015625 56 32.328125 56 
Q 43.359375 56 49.78125 48.890625 
Q 56.203125 41.796875 56.203125 29.59375 
z
M 47.21875 32.234375 
Q 47.125 39.59375 43.09375 43.984375 
Q 39.0625 48.390625 32.421875 48.390625 
Q 24.90625 48.390625 20.390625 44.140625 
Q 15.875 39.890625 15.1875 32.171875 
z
" id="DejaVuSans-101"/>
      <path d="M 48.78125 52.59375 
L 48.78125 44.1875 
Q 44.96875 46.296875 41.140625 47.34375 
Q 37.3125 48.390625 33.40625 48.390625 
Q 24.65625 48.390625 19.8125 42.84375 
Q 14.984375 37.3125 14.984375 27.296875 
Q 14.984375 17.28125 19.8125 11.734375 
Q 24.65625 6.203125 33.40625 6.203125 
Q 37.3125 6.203125 41.140625 7.25 
Q 44.96875 8.296875 48.78125 10.40625 
L 48.78125 2.09375 
Q 45.015625 0.34375 40.984375 -0.53125 
Q 36.96875 -1.421875 32.421875 -1.421875 
Q 20.0625 -1.421875 12.78125 6.34375 
Q 5.515625 14.109375 5.515625 27.296875 
Q 5.515625 40.671875 12.859375 48.328125 
Q 20.21875 56 33.015625 56 
Q 37.15625 56 41.109375 55.140625 
Q 45.0625 54.296875 48.78125 52.59375 
z
" id="DejaVuSans-99"/>
      <path d="M 54.890625 33.015625 
L 54.890625 0 
L 45.90625 0 
L 45.90625 32.71875 
Q 45.90625 40.484375 42.875 44.328125 
Q 39.84375 48.1875 33.796875 48.1875 
Q 26.515625 48.1875 22.3125 43.546875 
Q 18.109375 38.921875 18.109375 30.90625 
L 18.109375 0 
L 9.078125 0 
L 9.078125 54.6875 
L 18.109375 54.6875 
L 18.109375 46.1875 
Q 21.34375 51.125 25.703125 53.5625 
Q 30.078125 56 35.796875 56 
Q 45.21875 56 50.046875 50.171875 
Q 54.890625 44.34375 54.890625 33.015625 
z
" id="DejaVuSans-110"/>
      <path d="M 45.40625 46.390625 
L 45.40625 75.984375 
L 54.390625 75.984375 
L 54.390625 0 
L 45.40625 0 
L 45.40625 8.203125 
Q 42.578125 3.328125 38.25 0.953125 
Q 33.9375 -1.421875 27.875 -1.421875 
Q 17.96875 -1.421875 11.734375 6.484375 
Q 5.515625 14.40625 5.515625 27.296875 
Q 5.515625 40.1875 11.734375 48.09375 
Q 17.96875 56 27.875 56 
Q 33.9375 56 38.25 53.625 
Q 42.578125 51.265625 45.40625 46.390625 
z
M 14.796875 27.296875 
Q 14.796875 17.390625 18.875 11.75 
Q 22.953125 6.109375 30.078125 6.109375 
Q 37.203125 6.109375 41.296875 11.75 
Q 45.40625 17.390625 45.40625 27.296875 
Q 45.40625 37.203125 41.296875 42.84375 
Q 37.203125 48.484375 30.078125 48.484375 
Q 22.953125 48.484375 18.875 42.84375 
Q 14.796875 37.203125 14.796875 27.296875 
z
" id="DejaVuSans-100"/>
      <path d="M 8.015625 75.875 
L 15.828125 75.875 
Q 23.140625 64.359375 26.78125 53.3125 
Q 30.421875 42.28125 30.421875 31.390625 
Q 30.421875 20.453125 26.78125 9.375 
Q 23.140625 -1.703125 15.828125 -13.1875 
L 8.015625 -13.1875 
Q 14.5 -2 17.703125 9.0625 
Q 20.90625 20.125 20.90625 31.390625 
Q 20.90625 42.671875 17.703125 53.65625 
Q 14.5 64.65625 8.015625 75.875 
z
" id="DejaVuSans-41"/>
     </defs>
     <g transform="translate(57.667656 231.608958)rotate(-90)scale(0.1 -0.1)">
      <use xlink:href="#DejaVuSans-40"/>
      <use x="39.013672" xlink:href="#DejaVuSans-109"/>
      <use x="136.425781" xlink:href="#DejaVuSans-98"/>
      <use x="199.902344" xlink:href="#DejaVuSans-105"/>
      <use x="227.685547" xlink:href="#DejaVuSans-116"/>
      <use x="266.894531" xlink:href="#DejaVuSans-32"/>
      <use x="298.681641" xlink:href="#DejaVuSans-47"/>
      <use x="332.373047" xlink:href="#DejaVuSans-32"/>
      <use x="364.160156" xlink:href="#DejaVuSans-115"/>
      <use x="416.259766" xlink:href="#DejaVuSans-101"/>
      <use x="477.783203" xlink:href="#DejaVuSans-99"/>
      <use x="532.763672" xlink:href="#DejaVuSans-111"/>
      <use x="593.945312" xlink:href="#DejaVuSans-110"/>
      <use x="657.324219" xlink:href="#DejaVuSans-100"/>
      <use x="720.800781" xlink:href="#DejaVuSans-41"/>
     </g>
    </g>
   </g>
   <g id="line2d_16">
    <path clip-path="url(#pc7ded8cd33)" d="M 106.828079 279.538583 
L 107.564372 256.60103 
L 108.300665 248.955179 
L 109.036959 245.132254 
L 109.773252 260.423956 
L 110.509545 268.069807 
L 111.245838 287.184434 
L 111.982131 294.830285 
L 112.718425 313.944912 
L 113.454718 325.413688 
L 114.927304 340.70539 
L 115.663597 340.70539 
L 117.136184 348.351241 
L 120.081356 348.351241 
L 120.81765 352.174167 
L 121.553943 352.174167 
L 122.290236 348.351241 
L 123.026529 348.351241 
L 125.235409 336.882465 
L 125.971702 329.236614 
L 126.707995 325.413688 
L 128.180582 325.413688 
L 128.916875 321.590763 
L 129.653168 313.944912 
L 130.389461 313.944912 
L 131.125754 306.299061 
L 131.862048 302.476136 
L 133.334634 302.476136 
L 134.070927 287.184434 
L 134.80722 298.65321 
L 136.279807 291.007359 
L 137.0161 291.007359 
L 137.752393 287.184434 
L 138.488686 287.184434 
L 139.961273 279.538583 
L 140.697566 279.538583 
L 142.170152 271.892732 
L 143.642739 271.892732 
L 144.379032 264.246881 
L 146.587911 264.246881 
L 147.324204 260.423956 
L 148.060498 260.423956 
L 148.796791 256.60103 
L 149.533084 298.65321 
L 151.00567 291.007359 
L 151.741964 298.65321 
L 152.478257 298.65321 
L 153.21455 310.121987 
L 153.950843 310.121987 
L 154.687136 313.944912 
L 155.42343 313.944912 
L 156.159723 317.767838 
L 157.632309 317.767838 
L 158.368602 321.590763 
L 159.841189 321.590763 
L 160.577482 325.413688 
L 162.786361 325.413688 
L 163.522655 329.236614 
L 164.258948 329.236614 
L 164.995241 348.351241 
L 165.731534 329.236614 
L 166.467827 329.236614 
L 167.204121 325.413688 
L 167.940414 325.413688 
L 169.413 317.767838 
L 170.885587 317.767838 
L 171.62188 313.944912 
L 172.358173 313.944912 
L 173.094466 310.121987 
L 173.830759 313.944912 
L 176.039639 313.944912 
L 176.775932 306.299061 
L 177.512225 306.299061 
L 178.984812 298.65321 
L 179.721105 302.476136 
L 180.457398 340.70539 
L 181.193691 306.299061 
L 181.929984 298.65321 
L 183.402571 291.007359 
L 184.138864 294.830285 
L 184.875157 294.830285 
L 185.61145 291.007359 
L 186.347743 283.361508 
L 187.084037 283.361508 
L 189.292916 271.892732 
L 190.029209 275.715658 
L 190.765503 268.069807 
L 191.501796 268.069807 
L 192.974382 252.778105 
L 193.710675 256.60103 
L 194.446969 256.60103 
L 195.183262 252.778105 
L 195.919555 317.767838 
L 196.655848 279.538583 
L 198.128434 294.830285 
L 198.864728 294.830285 
L 199.601021 302.476136 
L 200.337314 302.476136 
L 201.8099 310.121987 
L 203.282487 310.121987 
L 204.01878 313.944912 
L 204.755073 313.944912 
L 205.491366 317.767838 
L 206.22766 317.767838 
L 206.963953 321.590763 
L 207.700246 321.590763 
L 209.172832 329.236614 
L 209.909125 329.236614 
L 210.645419 333.059539 
L 211.381712 348.351241 
L 212.118005 329.236614 
L 212.854298 329.236614 
L 213.590591 325.413688 
L 214.326885 325.413688 
L 215.063178 321.590763 
L 215.799471 321.590763 
L 216.535764 317.767838 
L 217.272057 317.767838 
L 218.008351 313.944912 
L 218.744644 306.299061 
L 220.21723 306.299061 
L 220.953523 302.476136 
L 221.689817 302.476136 
L 222.42611 294.830285 
L 223.162403 294.830285 
L 223.898696 287.184434 
L 225.371282 279.538583 
L 226.107576 287.184434 
L 226.843869 336.882465 
L 227.580162 275.715658 
L 228.316455 275.715658 
L 229.052748 279.538583 
L 231.997921 279.538583 
L 232.734214 283.361508 
L 233.470508 283.361508 
L 234.206801 279.538583 
L 235.679387 287.184434 
L 236.41568 283.361508 
L 237.151973 287.184434 
L 238.62456 287.184434 
L 239.360853 291.007359 
L 240.833439 291.007359 
L 241.569733 298.65321 
L 242.306026 344.528316 
L 243.042319 291.007359 
L 245.251199 279.538583 
L 245.987492 283.361508 
L 246.723785 268.069807 
L 247.460078 271.892732 
L 248.196371 264.246881 
L 248.932664 264.246881 
L 249.668958 260.423956 
L 250.405251 248.955179 
L 251.141544 256.60103 
L 252.61413 248.955179 
L 253.350424 248.955179 
L 254.086717 241.309328 
L 254.82301 245.132254 
L 255.559303 241.309328 
L 257.03189 248.955179 
L 257.768183 310.121987 
L 258.504476 291.007359 
L 259.240769 302.476136 
L 259.977062 310.121987 
L 260.713356 310.121987 
L 262.922235 321.590763 
L 264.394821 321.590763 
L 265.131115 325.413688 
L 266.603701 325.413688 
L 267.339994 329.236614 
L 268.812581 329.236614 
L 269.548874 333.059539 
L 270.285167 333.059539 
L 271.02146 336.882465 
L 271.757753 336.882465 
L 272.494047 344.528316 
L 274.702926 333.059539 
L 276.175512 333.059539 
L 276.911806 329.236614 
L 277.648099 329.236614 
L 278.384392 333.059539 
L 279.120685 329.236614 
L 280.593272 329.236614 
L 281.329565 325.413688 
L 282.065858 329.236614 
L 284.274738 329.236614 
L 285.011031 325.413688 
L 285.747324 325.413688 
L 286.483617 321.590763 
L 287.21991 321.590763 
L 287.956203 336.882465 
L 288.692497 333.059539 
L 289.42879 321.590763 
L 290.165083 313.944912 
L 291.637669 313.944912 
L 292.373963 306.299061 
L 293.110256 302.476136 
L 294.582842 302.476136 
L 295.319135 298.65321 
L 296.055429 291.007359 
L 296.791722 294.830285 
L 298.264308 294.830285 
L 299.000601 291.007359 
L 299.736894 283.361508 
L 300.473188 287.184434 
L 301.209481 275.715658 
L 302.682067 275.715658 
L 303.41836 313.944912 
L 304.154654 294.830285 
L 304.890947 279.538583 
L 305.62724 279.538583 
L 306.363533 291.007359 
L 307.099826 287.184434 
L 308.572413 287.184434 
L 309.308706 294.830285 
L 310.044999 291.007359 
L 310.781292 294.830285 
L 313.726465 294.830285 
L 314.462758 298.65321 
L 315.199051 298.65321 
L 315.935345 302.476136 
L 316.671638 302.476136 
L 317.407931 306.299061 
L 318.144224 306.299061 
L 318.880517 340.70539 
L 319.616811 310.121987 
L 320.353104 302.476136 
L 321.089397 291.007359 
L 321.82569 291.007359 
L 324.03457 279.538583 
L 324.770863 268.069807 
L 325.507156 268.069807 
L 327.716036 256.60103 
L 328.452329 256.60103 
L 329.188622 245.132254 
L 329.924915 252.778105 
L 330.661208 248.955179 
L 331.397502 248.955179 
L 332.133795 245.132254 
L 332.870088 245.132254 
L 333.606381 237.486403 
L 334.342674 321.590763 
L 335.078968 279.538583 
L 335.815261 302.476136 
L 336.551554 298.65321 
L 337.287847 310.121987 
L 338.02414 310.121987 
L 338.760433 313.944912 
L 339.496727 313.944912 
L 340.23302 317.767838 
L 340.969313 317.767838 
L 341.705606 321.590763 
L 343.914486 321.590763 
L 344.650779 325.413688 
L 345.387072 325.413688 
L 346.123365 329.236614 
L 346.859659 329.236614 
L 347.595952 333.059539 
L 348.332245 333.059539 
L 349.068538 340.70539 
L 349.804831 340.70539 
L 350.541125 329.236614 
L 352.013711 329.236614 
L 352.750004 325.413688 
L 354.22259 325.413688 
L 354.958884 321.590763 
L 355.695177 325.413688 
L 356.43147 321.590763 
L 359.376643 321.590763 
L 360.112936 313.944912 
L 360.849229 317.767838 
L 361.585522 313.944912 
L 362.321816 313.944912 
L 363.058109 310.121987 
L 363.794402 310.121987 
L 364.530695 321.590763 
L 365.266988 336.882465 
L 366.003281 310.121987 
L 367.475868 302.476136 
L 368.212161 291.007359 
L 368.948454 298.65321 
L 371.157334 287.184434 
L 371.893627 275.715658 
L 372.62992 283.361508 
L 373.366213 279.538583 
L 374.102507 279.538583 
L 374.8388 271.892732 
L 375.575093 275.715658 
L 376.311386 264.246881 
L 377.047679 256.60103 
L 377.783972 252.778105 
L 378.520266 245.132254 
L 379.256559 248.955179 
L 379.992852 275.715658 
L 380.729145 294.830285 
L 381.465438 283.361508 
L 382.201732 294.830285 
L 382.938025 298.65321 
L 383.674318 306.299061 
L 384.410611 306.299061 
L 385.883198 313.944912 
L 386.619491 313.944912 
L 387.355784 317.767838 
L 388.092077 317.767838 
L 388.82837 321.590763 
L 390.300957 321.590763 
L 391.03725 325.413688 
L 392.509836 325.413688 
L 393.246129 329.236614 
L 393.982423 329.236614 
L 394.718716 333.059539 
L 395.455009 348.351241 
L 396.191302 333.059539 
L 397.663889 325.413688 
L 399.136475 325.413688 
L 399.872768 321.590763 
L 401.345355 321.590763 
L 402.081648 317.767838 
L 402.817941 317.767838 
L 403.554234 313.944912 
L 404.290527 313.944912 
L 405.02682 310.121987 
L 407.2357 310.121987 
L 407.971993 306.299061 
L 408.708286 310.121987 
L 410.180873 310.121987 
L 410.917166 340.70539 
L 411.653459 317.767838 
L 412.389752 310.121987 
L 413.126046 306.299061 
L 413.862339 306.299061 
L 414.598632 294.830285 
L 415.334925 298.65321 
L 416.071218 298.65321 
L 418.280098 287.184434 
L 419.016391 291.007359 
L 419.752684 287.184434 
L 420.488977 287.184434 
L 421.225271 283.361508 
L 421.961564 275.715658 
L 422.697857 279.538583 
L 424.170443 271.892732 
L 424.906737 271.892732 
L 425.64303 260.423956 
L 426.379323 321.590763 
L 427.115616 291.007359 
L 427.851909 302.476136 
L 428.588202 306.299061 
L 429.324496 306.299061 
L 430.060789 313.944912 
L 430.797082 310.121987 
L 431.533375 317.767838 
L 434.478548 317.767838 
L 435.214841 321.590763 
L 437.423721 321.590763 
L 438.160014 325.413688 
L 439.6326 325.413688 
L 441.105187 333.059539 
L 441.84148 340.70539 
L 442.577773 325.413688 
L 443.314066 325.413688 
L 444.050359 321.590763 
L 444.786653 321.590763 
L 445.522946 317.767838 
L 446.259239 321.590763 
L 447.731825 313.944912 
L 452.149585 313.944912 
L 452.885878 306.299061 
L 453.622171 310.121987 
L 455.094757 302.476136 
L 455.83105 302.476136 
L 457.303637 333.059539 
L 458.03993 302.476136 
L 460.24881 291.007359 
L 461.721396 291.007359 
L 463.930276 279.538583 
L 464.666569 268.069807 
L 465.402862 275.715658 
L 466.139155 268.069807 
L 466.875448 268.069807 
L 467.611741 264.246881 
L 468.348035 256.60103 
L 469.084328 260.423956 
L 469.820621 260.423956 
L 471.293207 252.778105 
L 472.029501 283.361508 
L 472.765794 294.830285 
L 473.502087 294.830285 
L 474.974673 302.476136 
L 475.710967 310.121987 
L 476.44726 310.121987 
L 477.183553 317.767838 
L 478.656139 317.767838 
L 479.392433 321.590763 
L 481.601312 321.590763 
L 482.337605 325.413688 
L 483.810192 325.413688 
L 484.546485 329.236614 
L 486.019071 329.236614 
L 486.755364 333.059539 
L 487.491658 348.351241 
L 488.227951 333.059539 
L 488.964244 329.236614 
L 489.700537 329.236614 
L 490.43683 325.413688 
L 491.173124 325.413688 
L 491.909417 321.590763 
L 492.64571 321.590763 
L 493.382003 325.413688 
L 494.118296 321.590763 
L 495.590883 321.590763 
L 496.327176 317.767838 
L 497.063469 317.767838 
L 497.799762 321.590763 
L 499.272349 321.590763 
L 500.008642 317.767838 
L 502.217521 317.767838 
L 502.953815 344.528316 
L 503.690108 321.590763 
L 504.426401 310.121987 
L 505.162694 313.944912 
L 506.63528 298.65321 
L 507.371574 302.476136 
L 508.107867 298.65321 
L 508.84416 291.007359 
L 508.84416 291.007359 
" style="fill:none;stroke:#1f77b4;stroke-linecap:square;stroke-width:1.5;"/>
   </g>
   <g id="line2d_17">
    <path clip-path="url(#pc7ded8cd33)" d="M 109.676061 310.121987 
L 110.412354 260.423956 
L 111.884941 187.788372 
L 112.621234 161.027894 
L 113.357527 157.204968 
L 114.09382 141.913267 
L 114.830113 130.44449 
L 115.566407 122.798639 
L 118.511579 107.506937 
L 119.247873 115.152788 
L 119.984166 118.975714 
L 120.720459 118.975714 
L 122.193045 126.621565 
L 122.929339 134.267416 
L 123.665632 145.736192 
L 124.401925 145.736192 
L 125.138218 153.382043 
L 126.610804 161.027894 
L 127.347098 161.027894 
L 128.083391 164.850819 
L 128.819684 164.850819 
L 129.555977 176.319596 
L 130.29227 176.319596 
L 131.764857 191.611297 
L 132.50115 191.611297 
L 133.237443 199.257148 
L 133.973736 187.788372 
L 134.71003 191.611297 
L 135.446323 203.080074 
L 136.182616 210.725925 
L 136.918909 210.725925 
L 137.655202 218.371776 
L 138.391496 218.371776 
L 139.127789 222.194701 
L 139.864082 233.663477 
L 140.600375 233.663477 
L 142.809255 245.132254 
L 143.545548 245.132254 
L 144.281841 252.778105 
L 145.018134 256.60103 
L 146.490721 256.60103 
L 147.227014 260.423956 
L 147.963307 260.423956 
L 148.6996 268.069807 
L 149.435893 222.194701 
L 150.172187 214.54885 
L 150.90848 226.017627 
L 151.644773 218.371776 
L 152.381066 214.54885 
L 153.117359 203.080074 
L 153.853652 206.902999 
L 154.589946 199.257148 
L 155.326239 199.257148 
L 156.798825 191.611297 
L 157.535118 191.611297 
L 158.271412 187.788372 
L 159.007705 191.611297 
L 159.743998 187.788372 
L 164.161757 187.788372 
L 164.89805 168.673745 
L 165.634343 191.611297 
L 166.370637 199.257148 
L 168.579516 210.725925 
L 169.315809 218.371776 
L 170.052103 218.371776 
L 172.260982 229.840552 
L 175.942448 229.840552 
L 176.678741 233.663477 
L 177.415034 233.663477 
L 178.887621 241.309328 
L 179.623914 241.309328 
L 180.360207 203.080074 
L 181.0965 229.840552 
L 181.832794 245.132254 
L 183.30538 245.132254 
L 184.041673 248.955179 
L 184.777966 248.955179 
L 186.250553 256.60103 
L 186.986846 256.60103 
L 187.723139 264.246881 
L 188.459432 268.069807 
L 189.195726 268.069807 
L 190.668312 275.715658 
L 191.404605 275.715658 
L 192.140898 283.361508 
L 192.877191 287.184434 
L 193.613485 279.538583 
L 194.349778 275.715658 
L 195.086071 283.361508 
L 195.822364 206.902999 
L 196.558657 248.955179 
L 197.294951 241.309328 
L 198.031244 229.840552 
L 198.767537 229.840552 
L 199.50383 222.194701 
L 200.240123 222.194701 
L 200.976417 218.371776 
L 202.449003 218.371776 
L 203.185296 214.54885 
L 203.921589 214.54885 
L 204.657882 210.725925 
L 205.394176 214.54885 
L 206.130469 210.725925 
L 209.075642 210.725925 
L 209.811935 206.902999 
L 210.548228 206.902999 
L 211.284521 195.434223 
L 212.020814 218.371776 
L 212.757108 218.371776 
L 213.493401 226.017627 
L 214.229694 226.017627 
L 214.965987 229.840552 
L 215.70228 229.840552 
L 216.438573 233.663477 
L 217.174867 233.663477 
L 218.647453 241.309328 
L 220.120039 241.309328 
L 220.856333 248.955179 
L 221.592626 248.955179 
L 222.328919 252.778105 
L 223.065212 252.778105 
L 223.801505 260.423956 
L 224.537799 264.246881 
L 225.274092 264.246881 
L 226.010385 260.423956 
L 226.746678 218.371776 
L 227.482971 268.069807 
L 228.219265 268.069807 
L 228.955558 264.246881 
L 231.90073 264.246881 
L 232.637024 260.423956 
L 237.054783 260.423956 
L 237.791076 256.60103 
L 239.999956 256.60103 
L 240.736249 252.778105 
L 241.472542 245.132254 
L 242.208835 214.54885 
L 242.945128 256.60103 
L 243.681421 256.60103 
L 245.154008 264.246881 
L 245.890301 264.246881 
L 246.626594 271.892732 
L 248.099181 271.892732 
L 249.571767 279.538583 
L 250.30806 287.184434 
L 251.044353 283.361508 
L 253.253233 294.830285 
L 253.989526 306.299061 
L 254.725819 302.476136 
L 255.462112 310.121987 
L 256.198406 313.944912 
L 256.934699 298.65321 
L 257.670992 248.955179 
L 258.407285 264.246881 
L 259.879872 248.955179 
L 262.825044 233.663477 
L 263.561338 233.663477 
L 264.297631 229.840552 
L 267.242804 229.840552 
L 267.979097 226.017627 
L 268.71539 226.017627 
L 269.451683 222.194701 
L 270.924269 222.194701 
L 271.660563 218.371776 
L 272.396856 206.902999 
L 273.133149 218.371776 
L 273.869442 222.194701 
L 274.605735 222.194701 
L 275.342029 226.017627 
L 278.287201 226.017627 
L 279.023495 229.840552 
L 284.177547 229.840552 
L 284.91384 241.309328 
L 285.650133 233.663477 
L 286.386426 237.486403 
L 287.12272 237.486403 
L 287.859013 218.371776 
L 288.595306 226.017627 
L 289.331599 241.309328 
L 290.804186 241.309328 
L 293.013065 252.778105 
L 294.485651 252.778105 
L 295.221945 256.60103 
L 295.958238 264.246881 
L 297.430824 264.246881 
L 298.903411 271.892732 
L 299.639704 271.892732 
L 300.375997 275.715658 
L 301.11229 283.361508 
L 302.584877 283.361508 
L 303.32117 237.486403 
L 304.057463 268.069807 
L 304.793756 275.715658 
L 305.530049 275.715658 
L 306.266342 268.069807 
L 308.475222 268.069807 
L 309.211515 264.246881 
L 310.684102 264.246881 
L 311.420395 260.423956 
L 314.365568 260.423956 
L 315.101861 256.60103 
L 316.574447 256.60103 
L 318.047034 248.955179 
L 318.783327 214.54885 
L 319.51962 245.132254 
L 320.255913 252.778105 
L 320.992206 264.246881 
L 321.728499 260.423956 
L 322.464793 264.246881 
L 323.201086 264.246881 
L 323.937379 271.892732 
L 324.673672 287.184434 
L 326.146259 294.830285 
L 326.882552 294.830285 
L 329.091431 306.299061 
L 330.564018 306.299061 
L 331.300311 310.121987 
L 332.036604 310.121987 
L 333.50919 317.767838 
L 334.245484 260.423956 
L 334.981777 287.184434 
L 335.71807 275.715658 
L 336.454363 271.892732 
L 337.190656 264.246881 
L 337.92695 264.246881 
L 338.663243 260.423956 
L 339.399536 260.423956 
L 340.135829 256.60103 
L 341.608416 256.60103 
L 342.344709 252.778105 
L 343.081002 252.778105 
L 343.817295 248.955179 
L 344.553588 248.955179 
L 345.289881 245.132254 
L 346.026175 245.132254 
L 348.235054 233.663477 
L 348.971347 226.017627 
L 349.707641 222.194701 
L 350.443934 229.840552 
L 354.861693 229.840552 
L 355.597986 233.663477 
L 357.806866 233.663477 
L 358.543159 237.486403 
L 359.279452 233.663477 
L 360.015745 237.486403 
L 360.752038 237.486403 
L 361.488332 241.309328 
L 362.960918 241.309328 
L 363.697211 245.132254 
L 364.433504 229.840552 
L 365.169798 222.194701 
L 365.906091 245.132254 
L 368.11497 256.60103 
L 368.851264 252.778105 
L 371.060143 264.246881 
L 371.796436 271.892732 
L 372.532729 268.069807 
L 373.269023 271.892732 
L 374.005316 271.892732 
L 378.423075 294.830285 
L 379.159368 294.830285 
L 379.895661 271.892732 
L 380.631955 256.60103 
L 381.368248 260.423956 
L 385.049714 241.309328 
L 386.5223 241.309328 
L 387.258593 237.486403 
L 387.994886 237.486403 
L 388.73118 233.663477 
L 390.940059 233.663477 
L 391.676352 229.840552 
L 393.148939 229.840552 
L 393.885232 226.017627 
L 394.621525 226.017627 
L 395.357818 210.725925 
L 396.094111 226.017627 
L 396.830405 229.840552 
L 397.566698 229.840552 
L 398.302991 233.663477 
L 399.039284 233.663477 
L 399.775577 237.486403 
L 401.248164 237.486403 
L 401.984457 245.132254 
L 402.72075 264.246881 
L 403.457043 264.246881 
L 404.193337 268.069807 
L 404.92963 268.069807 
L 405.665923 271.892732 
L 407.138509 271.892732 
L 407.874803 275.715658 
L 410.083682 275.715658 
L 410.819975 252.778105 
L 411.556268 268.069807 
L 412.292562 275.715658 
L 413.028855 279.538583 
L 413.765148 279.538583 
L 414.501441 283.361508 
L 415.974028 283.361508 
L 416.710321 287.184434 
L 417.446614 287.184434 
L 418.182907 294.830285 
L 418.9192 291.007359 
L 419.655494 294.830285 
L 420.391787 294.830285 
L 421.12808 302.476136 
L 423.336959 302.476136 
L 424.809546 310.121987 
L 425.545839 317.767838 
L 426.282132 264.246881 
L 427.018425 291.007359 
L 427.754719 283.361508 
L 429.963598 271.892732 
L 430.699891 271.892732 
L 431.436185 268.069807 
L 433.645064 268.069807 
L 434.381357 264.246881 
L 435.853944 264.246881 
L 436.590237 260.423956 
L 437.32653 260.423956 
L 438.062823 256.60103 
L 438.799116 256.60103 
L 441.007996 245.132254 
L 441.744289 233.663477 
L 442.480582 245.132254 
L 443.216876 241.309328 
L 443.953169 245.132254 
L 445.425755 245.132254 
L 446.162048 241.309328 
L 447.634635 241.309328 
L 448.370928 245.132254 
L 452.052394 245.132254 
L 452.788687 248.955179 
L 454.261273 248.955179 
L 454.997567 252.778105 
L 455.73386 252.778105 
L 456.470153 241.309328 
L 457.206446 226.017627 
L 457.942739 252.778105 
L 459.415326 260.423956 
L 460.151619 268.069807 
L 460.887912 264.246881 
L 461.624205 264.246881 
L 462.360498 268.069807 
L 463.096792 268.069807 
L 463.833085 271.892732 
L 464.569378 279.538583 
L 465.305671 275.715658 
L 466.041964 279.538583 
L 466.778258 279.538583 
L 467.514551 283.361508 
L 468.250844 291.007359 
L 468.987137 287.184434 
L 470.459724 294.830285 
L 471.196017 294.830285 
L 471.93231 271.892732 
L 472.668603 256.60103 
L 473.404896 260.423956 
L 474.141189 252.778105 
L 475.613776 245.132254 
L 476.350069 245.132254 
L 477.086362 237.486403 
L 477.822655 237.486403 
L 478.558949 233.663477 
L 480.767828 233.663477 
L 481.504121 229.840552 
L 483.713001 229.840552 
L 484.449294 226.017627 
L 485.185587 226.017627 
L 485.921881 222.194701 
L 486.658174 222.194701 
L 487.394467 210.725925 
L 488.13076 222.194701 
L 488.867053 226.017627 
L 489.603346 226.017627 
L 490.33964 229.840552 
L 491.075933 229.840552 
L 491.812226 233.663477 
L 492.548519 233.663477 
L 493.284812 229.840552 
L 494.021106 229.840552 
L 495.493692 237.486403 
L 496.229985 233.663477 
L 496.966278 237.486403 
L 497.702572 233.663477 
L 499.175158 233.663477 
L 499.911451 241.309328 
L 500.647744 237.486403 
L 501.384037 237.486403 
L 502.120331 241.309328 
L 502.856624 210.725925 
L 503.592917 233.663477 
L 504.32921 245.132254 
L 505.065503 245.132254 
L 505.801797 248.955179 
L 506.53809 256.60103 
L 506.53809 256.60103 
" style="fill:none;stroke:#ff7f0e;stroke-linecap:square;stroke-width:1.5;"/>
   </g>
   <g id="line2d_18">
    <path clip-path="url(#pc7ded8cd33)" d="M 112.758184 336.882465 
L 113.494478 313.944912 
L 114.230771 310.121987 
L 114.967064 310.121987 
L 115.703357 306.299061 
L 117.912237 306.299061 
L 118.64853 302.476136 
L 119.384823 306.299061 
L 120.121116 302.476136 
L 121.593703 302.476136 
L 122.329996 306.299061 
L 123.802582 291.007359 
L 124.538875 291.007359 
L 126.011462 298.65321 
L 126.747755 298.65321 
L 127.484048 302.476136 
L 128.956635 302.476136 
L 129.692928 306.299061 
L 130.429221 302.476136 
L 131.165514 306.299061 
L 131.901807 302.476136 
L 132.638101 302.476136 
L 133.374394 306.299061 
L 134.110687 298.65321 
L 135.583273 306.299061 
L 137.05586 306.299061 
L 137.792153 310.121987 
L 138.528446 310.121987 
L 139.264739 313.944912 
L 143.682498 313.944912 
L 144.418792 317.767838 
L 148.100257 317.767838 
L 148.836551 321.590763 
L 149.572844 298.65321 
L 151.04543 298.65321 
L 153.25431 287.184434 
L 153.990603 287.184434 
L 154.726896 283.361508 
L 156.199483 283.361508 
L 156.935776 279.538583 
L 159.144655 279.538583 
L 159.880949 275.715658 
L 161.353535 275.715658 
L 162.089828 271.892732 
L 162.826121 271.892732 
L 164.298708 264.246881 
L 165.035001 248.955179 
L 165.771294 260.423956 
L 167.24388 260.423956 
L 167.980174 256.60103 
L 169.45276 256.60103 
L 170.189053 252.778105 
L 170.925346 252.778105 
L 171.66164 256.60103 
L 173.134226 256.60103 
L 173.870519 260.423956 
L 174.606812 256.60103 
L 176.079399 256.60103 
L 176.815692 260.423956 
L 177.551985 260.423956 
L 178.288278 264.246881 
L 179.760865 264.246881 
L 180.497158 229.840552 
L 181.233451 260.423956 
L 181.969744 268.069807 
L 182.706037 268.069807 
L 183.442331 279.538583 
L 184.178624 271.892732 
L 184.914917 271.892732 
L 185.65121 275.715658 
L 186.387503 275.715658 
L 188.596383 287.184434 
L 190.068969 287.184434 
L 190.805262 294.830285 
L 191.541556 291.007359 
L 193.014142 306.299061 
L 193.750435 310.121987 
L 194.486728 310.121987 
L 195.223022 313.944912 
L 195.959315 268.069807 
L 196.695608 294.830285 
L 198.168194 287.184434 
L 198.904487 287.184434 
L 199.640781 279.538583 
L 201.113367 279.538583 
L 201.84966 275.715658 
L 202.585953 275.715658 
L 203.322247 271.892732 
L 204.05854 271.892732 
L 204.794833 268.069807 
L 205.531126 268.069807 
L 207.740006 256.60103 
L 208.476299 248.955179 
L 209.212592 248.955179 
L 209.948885 241.309328 
L 210.685179 237.486403 
L 211.421472 226.017627 
L 212.157765 237.486403 
L 214.366644 237.486403 
L 215.102938 241.309328 
L 215.839231 237.486403 
L 216.575524 241.309328 
L 217.311817 241.309328 
L 218.784404 248.955179 
L 220.25699 248.955179 
L 220.993283 256.60103 
L 221.729576 256.60103 
L 222.46587 260.423956 
L 223.202163 260.423956 
L 223.938456 268.069807 
L 224.674749 271.892732 
L 225.411042 271.892732 
L 226.147335 260.423956 
L 226.883629 233.663477 
L 227.619922 271.892732 
L 228.356215 275.715658 
L 229.092508 271.892732 
L 230.565095 271.892732 
L 231.301388 268.069807 
L 234.982854 268.069807 
L 235.719147 264.246881 
L 238.66432 264.246881 
L 239.400613 260.423956 
L 240.873199 260.423956 
L 241.609492 245.132254 
L 242.345786 226.017627 
L 243.082079 260.423956 
L 243.818372 260.423956 
L 245.290958 268.069807 
L 246.027252 268.069807 
L 246.763545 275.715658 
L 248.236131 275.715658 
L 249.708718 283.361508 
L 250.445011 291.007359 
L 251.181304 287.184434 
L 253.390183 298.65321 
L 254.126477 306.299061 
L 254.86277 302.476136 
L 256.335356 317.767838 
L 257.807943 260.423956 
L 258.544236 268.069807 
L 260.016822 252.778105 
L 262.961995 237.486403 
L 264.434581 237.486403 
L 265.170874 233.663477 
L 267.379754 233.663477 
L 268.116047 229.840552 
L 268.85234 229.840552 
L 269.588634 226.017627 
L 270.324927 226.017627 
L 271.06122 222.194701 
L 271.797513 222.194701 
L 272.533806 210.725925 
L 273.2701 222.194701 
L 274.006393 222.194701 
L 274.742686 226.017627 
L 276.215272 226.017627 
L 276.951565 229.840552 
L 277.687859 226.017627 
L 278.424152 229.840552 
L 280.633031 229.840552 
L 281.369325 233.663477 
L 282.105618 229.840552 
L 283.578204 229.840552 
L 284.314497 226.017627 
L 286.523377 237.486403 
L 287.25967 237.486403 
L 287.995963 214.54885 
L 288.732257 229.840552 
L 289.46855 241.309328 
L 290.204843 241.309328 
L 290.941136 245.132254 
L 291.677429 245.132254 
L 292.413722 252.778105 
L 293.150016 248.955179 
L 294.622602 256.60103 
L 295.358895 256.60103 
L 296.095188 264.246881 
L 297.567775 264.246881 
L 299.040361 271.892732 
L 299.776654 271.892732 
L 300.512948 275.715658 
L 301.249241 283.361508 
L 301.985534 279.538583 
L 302.721827 283.361508 
L 303.45812 229.840552 
L 304.194413 271.892732 
L 304.930707 275.715658 
L 305.667 275.715658 
L 306.403293 268.069807 
L 308.612173 268.069807 
L 309.348466 264.246881 
L 310.821052 264.246881 
L 311.557345 260.423956 
L 313.766225 260.423956 
L 314.502518 256.60103 
L 315.975104 256.60103 
L 316.711398 252.778105 
L 317.447691 252.778105 
L 318.183984 248.955179 
L 318.920277 214.54885 
L 319.65657 248.955179 
L 320.392864 252.778105 
L 321.129157 260.423956 
L 321.86545 264.246881 
L 322.601743 264.246881 
L 324.07433 271.892732 
L 324.810623 271.892732 
L 325.546916 264.246881 
L 328.492089 279.538583 
L 329.228382 291.007359 
L 329.964675 287.184434 
L 330.700968 287.184434 
L 332.173555 294.830285 
L 332.909848 302.476136 
L 333.646141 302.476136 
L 334.382434 218.371776 
L 335.118727 260.423956 
L 335.855021 241.309328 
L 336.591314 241.309328 
L 337.327607 229.840552 
L 338.0639 229.840552 
L 338.800193 222.194701 
L 339.536487 222.194701 
L 340.27278 218.371776 
L 343.954246 218.371776 
L 344.690539 214.54885 
L 346.899418 214.54885 
L 347.635712 210.725925 
L 348.372005 210.725925 
L 349.108298 206.902999 
L 349.844591 206.902999 
L 350.580884 218.371776 
L 351.317178 222.194701 
L 352.053471 222.194701 
L 352.789764 226.017627 
L 354.26235 226.017627 
L 354.998643 233.663477 
L 355.734937 229.840552 
L 356.47123 233.663477 
L 359.416403 233.663477 
L 360.152696 237.486403 
L 360.888989 237.486403 
L 361.625282 241.309328 
L 362.361575 241.309328 
L 363.097869 245.132254 
L 363.834162 245.132254 
L 364.570455 229.840552 
L 365.306748 222.194701 
L 366.043041 245.132254 
L 367.515628 252.778105 
L 368.251921 260.423956 
L 368.988214 256.60103 
L 369.724507 256.60103 
L 371.933387 268.069807 
L 372.66968 268.069807 
L 373.405973 271.892732 
L 374.142266 271.892732 
L 375.614853 279.538583 
L 376.351146 287.184434 
L 377.087439 291.007359 
L 378.560026 291.007359 
L 379.296319 294.830285 
L 380.032612 256.60103 
L 380.768905 264.246881 
L 382.241491 256.60103 
L 382.977785 248.955179 
L 383.714078 245.132254 
L 384.450371 245.132254 
L 385.186664 241.309328 
L 385.922957 241.309328 
L 386.659251 237.486403 
L 387.395544 237.486403 
L 388.131837 233.663477 
L 389.604423 233.663477 
L 390.340717 229.840552 
L 391.07701 233.663477 
L 391.813303 229.840552 
L 392.549596 229.840552 
L 393.285889 226.017627 
L 394.758476 226.017627 
L 395.494769 206.902999 
L 396.231062 226.017627 
L 396.967355 229.840552 
L 397.703648 229.840552 
L 398.439942 233.663477 
L 399.176235 233.663477 
L 399.912528 237.486403 
L 400.648821 233.663477 
L 402.121408 233.663477 
L 402.857701 218.371776 
L 403.593994 218.371776 
L 404.330287 222.194701 
L 406.539167 222.194701 
L 407.27546 226.017627 
L 408.011753 222.194701 
L 410.220633 222.194701 
L 410.956926 176.319596 
L 411.693219 214.54885 
L 412.429512 222.194701 
L 413.902099 229.840552 
L 414.638392 237.486403 
L 415.374685 237.486403 
L 416.847271 245.132254 
L 417.583564 245.132254 
L 418.319858 252.778105 
L 419.056151 252.778105 
L 420.528737 260.423956 
L 422.001324 275.715658 
L 422.737617 271.892732 
L 424.210203 279.538583 
L 425.68279 294.830285 
L 426.419083 206.902999 
L 427.155376 256.60103 
L 427.891669 241.309328 
L 429.364256 233.663477 
L 430.100549 226.017627 
L 430.836842 226.017627 
L 431.573135 218.371776 
L 432.309428 218.371776 
L 433.045721 214.54885 
L 435.254601 214.54885 
L 435.990894 210.725925 
L 436.727187 214.54885 
L 437.463481 210.725925 
L 440.408653 210.725925 
L 441.88124 203.080074 
L 442.617533 218.371776 
L 444.090119 226.017627 
L 444.826412 226.017627 
L 445.562706 229.840552 
L 446.298999 229.840552 
L 447.035292 233.663477 
L 447.771585 233.663477 
L 448.507878 237.486403 
L 449.244172 237.486403 
L 449.980465 241.309328 
L 450.716758 237.486403 
L 452.189344 237.486403 
L 452.925638 241.309328 
L 453.661931 241.309328 
L 454.398224 245.132254 
L 455.87081 245.132254 
L 456.607103 229.840552 
L 457.343397 222.194701 
L 458.07969 248.955179 
L 460.288569 260.423956 
L 461.024863 260.423956 
L 463.233742 271.892732 
L 463.970035 271.892732 
L 464.706329 279.538583 
L 465.442622 275.715658 
L 468.387795 291.007359 
L 469.124088 291.007359 
L 470.596674 298.65321 
L 471.332967 298.65321 
L 472.06926 264.246881 
L 473.541847 264.246881 
L 474.27814 256.60103 
L 477.223313 241.309328 
L 477.959606 241.309328 
L 478.695899 237.486403 
L 480.904779 237.486403 
L 481.641072 233.663477 
L 483.849951 233.663477 
L 484.586245 229.840552 
L 485.322538 229.840552 
L 486.058831 226.017627 
L 486.795124 226.017627 
L 487.531417 210.725925 
L 488.267711 226.017627 
L 489.740297 226.017627 
L 490.47659 229.840552 
L 491.212883 229.840552 
L 491.949177 233.663477 
L 492.68547 229.840552 
L 493.421763 229.840552 
L 494.894349 237.486403 
L 496.366936 237.486403 
L 497.103229 233.663477 
L 497.839522 237.486403 
L 498.575815 237.486403 
L 499.312108 233.663477 
L 500.048402 237.486403 
L 501.520988 237.486403 
L 502.257281 241.309328 
L 502.993574 210.725925 
L 503.729868 237.486403 
L 504.466161 245.132254 
L 505.202454 245.132254 
L 505.938747 248.955179 
L 506.67504 256.60103 
L 508.147627 256.60103 
L 508.88392 264.246881 
L 509.620213 264.246881 
L 509.620213 264.246881 
" style="fill:none;stroke:#2ca02c;stroke-linecap:square;stroke-width:1.5;"/>
   </g>
   <g id="line2d_19">
    <path clip-path="url(#pc7ded8cd33)" d="M 103.765099 118.975714 
L 104.501393 50.163056 
L 105.973979 50.163056 
L 106.710272 115.152788 
L 107.446565 149.559117 
L 108.182859 157.204968 
L 108.919152 157.204968 
L 110.391738 226.017627 
L 111.128031 248.955179 
L 111.864325 275.715658 
L 112.600618 294.830285 
L 113.336911 317.767838 
L 115.54579 340.70539 
L 116.282084 340.70539 
L 117.018377 348.351241 
L 117.75467 344.528316 
L 118.490963 352.174167 
L 119.227256 344.528316 
L 120.699843 336.882465 
L 122.172429 336.882465 
L 122.908722 333.059539 
L 124.381309 333.059539 
L 125.117602 329.236614 
L 126.590188 329.236614 
L 127.326481 325.413688 
L 128.799068 325.413688 
L 129.535361 317.767838 
L 130.271654 317.767838 
L 131.007947 313.944912 
L 132.480534 313.944912 
L 133.216827 310.121987 
L 133.95312 333.059539 
L 134.689413 325.413688 
L 135.425707 306.299061 
L 136.162 302.476136 
L 136.898293 302.476136 
L 137.634586 298.65321 
L 138.370879 298.65321 
L 139.107172 294.830285 
L 139.843466 287.184434 
L 142.052345 287.184434 
L 142.788638 283.361508 
L 143.524932 283.361508 
L 144.997518 275.715658 
L 146.470104 275.715658 
L 147.206398 271.892732 
L 147.942691 275.715658 
L 148.678984 271.892732 
L 150.15157 310.121987 
L 150.887863 298.65321 
L 152.36045 306.299061 
L 153.096743 313.944912 
L 153.833036 313.944912 
L 154.569329 317.767838 
L 156.041916 317.767838 
L 156.778209 321.590763 
L 158.987089 321.590763 
L 159.723382 325.413688 
L 161.932261 325.413688 
L 162.668555 329.236614 
L 164.141141 329.236614 
L 164.877434 344.528316 
L 165.613727 333.059539 
L 167.086314 325.413688 
L 167.822607 325.413688 
L 168.5589 321.590763 
L 170.76778 321.590763 
L 172.240366 313.944912 
L 175.921832 313.944912 
L 176.658125 310.121987 
L 178.130711 310.121987 
L 178.867005 306.299061 
L 179.603298 306.299061 
L 180.339591 333.059539 
L 181.075884 321.590763 
L 181.812177 306.299061 
L 182.548471 302.476136 
L 183.284764 294.830285 
L 184.021057 298.65321 
L 184.75735 298.65321 
L 185.493643 294.830285 
L 186.229937 294.830285 
L 188.438816 283.361508 
L 189.911402 283.361508 
L 190.647696 275.715658 
L 191.383989 279.538583 
L 192.856575 264.246881 
L 193.592868 264.246881 
L 194.329162 268.069807 
L 195.065455 264.246881 
L 195.801748 317.767838 
L 196.538041 287.184434 
L 197.274334 291.007359 
L 198.010628 302.476136 
L 198.746921 302.476136 
L 199.483214 306.299061 
L 200.219507 306.299061 
L 200.9558 310.121987 
L 201.692094 310.121987 
L 202.428387 313.944912 
L 203.900973 313.944912 
L 204.637266 317.767838 
L 205.373559 317.767838 
L 206.109853 321.590763 
L 207.582439 321.590763 
L 209.791319 333.059539 
L 210.527612 333.059539 
L 211.263905 348.351241 
L 212.000198 329.236614 
L 212.736491 329.236614 
L 213.472785 325.413688 
L 214.209078 325.413688 
L 214.945371 321.590763 
L 216.417957 321.590763 
L 217.15425 317.767838 
L 218.626837 317.767838 
L 219.36313 313.944912 
L 220.099423 313.944912 
L 221.57201 306.299061 
L 222.308303 306.299061 
L 223.780889 298.65321 
L 224.517182 291.007359 
L 225.989769 298.65321 
L 226.726062 329.236614 
L 227.462355 298.65321 
L 228.198648 294.830285 
L 228.934941 294.830285 
L 229.671235 298.65321 
L 232.616407 298.65321 
L 233.352701 302.476136 
L 237.77046 302.476136 
L 238.506753 306.299061 
L 239.979339 306.299061 
L 240.715633 310.121987 
L 241.451926 317.767838 
L 242.188219 329.236614 
L 242.924512 310.121987 
L 243.660805 306.299061 
L 245.133392 306.299061 
L 246.605978 298.65321 
L 248.078564 298.65321 
L 248.814858 294.830285 
L 249.551151 294.830285 
L 250.287444 287.184434 
L 251.76003 279.538583 
L 252.496324 279.538583 
L 253.232617 271.892732 
L 253.96891 256.60103 
L 254.705203 264.246881 
L 255.441496 256.60103 
L 256.177789 237.486403 
L 256.914083 264.246881 
L 257.650376 298.65321 
L 258.386669 291.007359 
L 259.122962 294.830285 
L 259.859255 306.299061 
L 262.068135 317.767838 
L 262.804428 317.767838 
L 263.540721 321.590763 
L 265.013308 321.590763 
L 265.749601 325.413688 
L 267.222187 325.413688 
L 267.95848 329.236614 
L 269.431067 329.236614 
L 270.16736 333.059539 
L 270.903653 333.059539 
L 271.639946 336.882465 
L 272.37624 348.351241 
L 273.112533 336.882465 
L 273.848826 333.059539 
L 274.585119 333.059539 
L 275.321412 329.236614 
L 276.057706 329.236614 
L 276.793999 325.413688 
L 277.530292 325.413688 
L 278.266585 329.236614 
L 279.002878 325.413688 
L 279.739171 325.413688 
L 280.475465 321.590763 
L 281.211758 321.590763 
L 281.948051 325.413688 
L 284.156931 325.413688 
L 284.893224 321.590763 
L 285.629517 321.590763 
L 286.36581 317.767838 
L 287.102103 317.767838 
L 287.838397 340.70539 
L 288.57469 329.236614 
L 289.310983 313.944912 
L 290.783569 313.944912 
L 292.256156 306.299061 
L 292.992449 306.299061 
L 293.728742 302.476136 
L 294.465035 302.476136 
L 296.673915 291.007359 
L 297.410208 291.007359 
L 298.146501 283.361508 
L 299.619088 283.361508 
L 300.355381 275.715658 
L 301.091674 271.892732 
L 301.827967 271.892732 
L 302.56426 268.069807 
L 303.300554 325.413688 
L 304.036847 291.007359 
L 304.77314 279.538583 
L 306.245726 287.184434 
L 307.718313 287.184434 
L 308.454606 291.007359 
L 310.663485 291.007359 
L 311.399779 294.830285 
L 312.872365 294.830285 
L 313.608658 298.65321 
L 315.817538 298.65321 
L 317.290124 306.299061 
L 318.026417 306.299061 
L 318.76271 340.70539 
L 319.499004 310.121987 
L 320.235297 306.299061 
L 320.97159 294.830285 
L 321.707883 302.476136 
L 322.444176 294.830285 
L 323.18047 298.65321 
L 323.916763 287.184434 
L 324.653056 291.007359 
L 326.125642 291.007359 
L 326.861936 283.361508 
L 327.598229 283.361508 
L 329.070815 275.715658 
L 329.807108 268.069807 
L 330.543402 271.892732 
L 331.279695 264.246881 
L 332.015988 264.246881 
L 332.752281 252.778105 
L 333.488574 256.60103 
L 334.224867 310.121987 
L 334.961161 287.184434 
L 336.433747 302.476136 
L 338.642627 313.944912 
L 339.37892 313.944912 
L 340.115213 317.767838 
L 340.851506 317.767838 
L 341.587799 321.590763 
L 343.796679 321.590763 
L 344.532972 325.413688 
L 345.269265 325.413688 
L 346.005558 329.236614 
L 346.741852 329.236614 
L 347.478145 333.059539 
L 348.214438 333.059539 
L 348.950731 340.70539 
L 349.687024 340.70539 
L 350.423318 333.059539 
L 351.895904 333.059539 
L 352.632197 329.236614 
L 355.57737 329.236614 
L 356.313663 325.413688 
L 357.049956 325.413688 
L 357.786249 321.590763 
L 359.258836 321.590763 
L 359.995129 317.767838 
L 360.731422 321.590763 
L 362.204009 313.944912 
L 363.676595 313.944912 
L 365.149181 336.882465 
L 365.885475 310.121987 
L 366.621768 310.121987 
L 368.094354 302.476136 
L 368.830647 306.299061 
L 369.566941 302.476136 
L 370.303234 302.476136 
L 371.039527 298.65321 
L 371.77582 298.65321 
L 372.512113 294.830285 
L 373.248406 294.830285 
L 373.9847 287.184434 
L 374.720993 287.184434 
L 376.193579 279.538583 
L 376.929872 279.538583 
L 377.666166 283.361508 
L 379.138752 275.715658 
L 379.875045 302.476136 
L 380.611338 306.299061 
L 382.083925 306.299061 
L 384.292804 317.767838 
L 385.029097 317.767838 
L 385.765391 321.590763 
L 386.501684 321.590763 
L 387.237977 325.413688 
L 387.97427 321.590763 
L 388.710563 325.413688 
L 391.655736 325.413688 
L 392.392029 329.236614 
L 394.600909 329.236614 
L 395.337202 344.528316 
L 396.073495 329.236614 
L 396.809788 325.413688 
L 397.546082 325.413688 
L 398.282375 321.590763 
L 399.018668 321.590763 
L 399.754961 317.767838 
L 400.491254 317.767838 
L 401.227548 321.590763 
L 401.963841 313.944912 
L 404.17272 313.944912 
L 404.909014 310.121987 
L 405.645307 310.121987 
L 406.3816 306.299061 
L 410.063066 306.299061 
L 410.799359 340.70539 
L 411.535652 317.767838 
L 412.271945 306.299061 
L 414.480825 294.830285 
L 415.217118 294.830285 
L 416.689705 287.184434 
L 417.425998 291.007359 
L 418.162291 275.715658 
L 418.898584 279.538583 
L 419.634877 275.715658 
L 420.371171 268.069807 
L 421.843757 260.423956 
L 423.316343 260.423956 
L 425.525223 237.486403 
L 426.261516 313.944912 
L 426.997809 275.715658 
L 428.470396 291.007359 
L 429.206689 291.007359 
L 429.942982 306.299061 
L 430.679275 302.476136 
L 432.151862 310.121987 
L 432.888155 310.121987 
L 433.624448 313.944912 
L 434.360741 313.944912 
L 435.097034 317.767838 
L 437.305914 317.767838 
L 438.042207 321.590763 
L 438.7785 321.590763 
L 439.514793 325.413688 
L 440.251087 325.413688 
L 440.98738 329.236614 
L 441.723673 340.70539 
L 442.459966 325.413688 
L 443.196259 325.413688 
L 443.932553 321.590763 
L 446.877725 321.590763 
L 447.614018 317.767838 
L 452.031778 317.767838 
L 452.768071 313.944912 
L 453.504364 313.944912 
L 454.240657 310.121987 
L 455.713244 310.121987 
L 456.449537 317.767838 
L 457.18583 340.70539 
L 457.922123 306.299061 
L 458.658416 306.299061 
L 459.39471 298.65321 
L 460.131003 294.830285 
L 462.339882 294.830285 
L 463.812469 287.184434 
L 466.021348 287.184434 
L 466.757641 279.538583 
L 467.493935 279.538583 
L 468.966521 271.892732 
L 469.702814 271.892732 
L 470.439107 264.246881 
L 471.175401 264.246881 
L 471.911694 283.361508 
L 472.647987 306.299061 
L 473.38428 294.830285 
L 474.120573 306.299061 
L 474.856866 306.299061 
L 475.59316 313.944912 
L 476.329453 313.944912 
L 477.065746 317.767838 
L 477.802039 317.767838 
L 478.538332 321.590763 
L 480.010919 321.590763 
L 480.747212 325.413688 
L 482.956092 325.413688 
L 483.692385 329.236614 
L 485.164971 329.236614 
L 486.637557 336.882465 
L 487.373851 344.528316 
L 488.110144 333.059539 
L 488.846437 333.059539 
L 489.58273 329.236614 
L 491.055317 329.236614 
L 491.79161 325.413688 
L 492.527903 329.236614 
L 493.264196 329.236614 
L 494.000489 325.413688 
L 494.736783 325.413688 
L 495.473076 321.590763 
L 498.418248 321.590763 
L 499.154542 325.413688 
L 499.890835 317.767838 
L 501.363421 317.767838 
L 502.099714 313.944912 
L 502.836008 344.528316 
L 503.572301 321.590763 
L 504.308594 313.944912 
L 504.308594 313.944912 
" style="fill:none;stroke:#d62728;stroke-linecap:square;stroke-width:1.5;"/>
   </g>
   <g id="patch_3">
    <path d="M 83.472344 352.174167 
L 83.472344 35.0625 
" style="fill:none;stroke:#000000;stroke-linecap:square;stroke-linejoin:miter;stroke-width:0.8;"/>
   </g>
   <g id="patch_4">
    <path d="M 529.912969 352.174167 
L 529.912969 35.0625 
" style="fill:none;stroke:#000000;stroke-linecap:square;stroke-linejoin:miter;stroke-width:0.8;"/>
   </g>
   <g id="patch_5">
    <path d="M 83.472344 352.174167 
L 529.912969 352.174167 
" style="fill:none;stroke:#000000;stroke-linecap:square;stroke-linejoin:miter;stroke-width:0.8;"/>
   </g>
   <g id="patch_6">
    <path d="M 83.472344 35.0625 
L 529.912969 35.0625 
" style="fill:none;stroke:#000000;stroke-linecap:square;stroke-linejoin:miter;stroke-width:0.8;"/>
   </g>
   <g id="legend_1">
    <g id="patch_7">
     <path d="M 554.235 96.775 
L 625.430312 96.775 
Q 627.430312 96.775 627.430312 94.775 
L 627.430312 37.0625 
Q 627.430312 35.0625 625.430312 35.0625 
L 554.235 35.0625 
Q 552.235 35.0625 552.235 37.0625 
L 552.235 94.775 
Q 552.235 96.775 554.235 96.775 
z
" style="fill:#ffffff;opacity:0.8;stroke:#cccccc;stroke-linejoin:miter;"/>
    </g>
    <g id="line2d_20">
     <path d="M 556.235 43.160937 
L 576.235 43.160937 
" style="fill:none;stroke:#1f77b4;stroke-linecap:square;stroke-width:1.5;"/>
    </g>
    <g id="line2d_21"/>
    <g id="text_17">
     <!-- bbr-pi -->
     <defs>
      <path d="M 4.890625 31.390625 
L 31.203125 31.390625 
L 31.203125 23.390625 
L 4.890625 23.390625 
z
" id="DejaVuSans-45"/>
     </defs>
     <g transform="translate(584.235 46.660937)scale(0.1 -0.1)">
      <use xlink:href="#DejaVuSans-98"/>
      <use x="63.476562" xlink:href="#DejaVuSans-98"/>
      <use x="126.953125" xlink:href="#DejaVuSans-114"/>
      <use x="167.972656" xlink:href="#DejaVuSans-45"/>
      <use x="204.056641" xlink:href="#DejaVuSans-112"/>
      <use x="267.533203" xlink:href="#DejaVuSans-105"/>
     </g>
    </g>
    <g id="line2d_22">
     <path d="M 556.235 57.839063 
L 576.235 57.839063 
" style="fill:none;stroke:#ff7f0e;stroke-linecap:square;stroke-width:1.5;"/>
    </g>
    <g id="line2d_23"/>
    <g id="text_18">
     <!-- cubic-pi -->
     <g transform="translate(584.235 61.339063)scale(0.1 -0.1)">
      <use xlink:href="#DejaVuSans-99"/>
      <use x="54.980469" xlink:href="#DejaVuSans-117"/>
      <use x="118.359375" xlink:href="#DejaVuSans-98"/>
      <use x="181.835938" xlink:href="#DejaVuSans-105"/>
      <use x="209.619141" xlink:href="#DejaVuSans-99"/>
      <use x="264.599609" xlink:href="#DejaVuSans-45"/>
      <use x="300.683594" xlink:href="#DejaVuSans-112"/>
      <use x="364.160156" xlink:href="#DejaVuSans-105"/>
     </g>
    </g>
    <g id="line2d_24">
     <path d="M 556.235 72.517187 
L 576.235 72.517187 
" style="fill:none;stroke:#2ca02c;stroke-linecap:square;stroke-width:1.5;"/>
    </g>
    <g id="line2d_25"/>
    <g id="text_19">
     <!-- cubic-pi -->
     <g transform="translate(584.235 76.017187)scale(0.1 -0.1)">
      <use xlink:href="#DejaVuSans-99"/>
      <use x="54.980469" xlink:href="#DejaVuSans-117"/>
      <use x="118.359375" xlink:href="#DejaVuSans-98"/>
      <use x="181.835938" xlink:href="#DejaVuSans-105"/>
      <use x="209.619141" xlink:href="#DejaVuSans-99"/>
      <use x="264.599609" xlink:href="#DejaVuSans-45"/>
      <use x="300.683594" xlink:href="#DejaVuSans-112"/>
      <use x="364.160156" xlink:href="#DejaVuSans-105"/>
     </g>
    </g>
    <g id="line2d_26">
     <path d="M 556.235 87.195312 
L 576.235 87.195312 
" style="fill:none;stroke:#d62728;stroke-linecap:square;stroke-width:1.5;"/>
    </g>
    <g id="line2d_27"/>
    <g id="text_20">
     <!-- bbr-pi -->
     <g transform="translate(584.235 90.695312)scale(0.1 -0.1)">
      <use xlink:href="#DejaVuSans-98"/>
      <use x="63.476562" xlink:href="#DejaVuSans-98"/>
      <use x="126.953125" xlink:href="#DejaVuSans-114"/>
      <use x="167.972656" xlink:href="#DejaVuSans-45"/>
      <use x="204.056641" xlink:href="#DejaVuSans-112"/>
      <use x="267.533203" xlink:href="#DejaVuSans-105"/>
     </g>
    </g>
   </g>
  </g>
  <g id="text_21">
   <!-- result throughput -->
   <defs>
    <path d="M 9.421875 75.984375 
L 18.40625 75.984375 
L 18.40625 0 
L 9.421875 0 
z
" id="DejaVuSans-108"/>
   </defs>
   <g transform="translate(289.320938 17.038125)scale(0.12 -0.12)">
    <use xlink:href="#DejaVuSans-114"/>
    <use x="41.082031" xlink:href="#DejaVuSans-101"/>
    <use x="102.605469" xlink:href="#DejaVuSans-115"/>
    <use x="154.705078" xlink:href="#DejaVuSans-117"/>
    <use x="218.083984" xlink:href="#DejaVuSans-108"/>
    <use x="245.867188" xlink:href="#DejaVuSans-116"/>
    <use x="285.076172" xlink:href="#DejaVuSans-32"/>
    <use x="316.863281" xlink:href="#DejaVuSans-116"/>
    <use x="356.072266" xlink:href="#DejaVuSans-104"/>
    <use x="419.451172" xlink:href="#DejaVuSans-114"/>
    <use x="460.533203" xlink:href="#DejaVuSans-111"/>
    <use x="521.714844" xlink:href="#DejaVuSans-117"/>
    <use x="585.09375" xlink:href="#DejaVuSans-103"/>
    <use x="648.570312" xlink:href="#DejaVuSans-104"/>
    <use x="711.949219" xlink:href="#DejaVuSans-112"/>
    <use x="775.425781" xlink:href="#DejaVuSans-117"/>
    <use x="838.804688" xlink:href="#DejaVuSans-116"/>
   </g>
  </g>
 </g>
 <defs>
  <clipPath id="pc7ded8cd33">
   <rect height="317.111667" width="446.440625" x="83.472344" y="35.0625"/>
  </clipPath>
 </defs>
</svg>
