<?xml version="1.0" encoding="utf-8" standalone="no"?>
<!DOCTYPE svg PUBLIC "-//W3C//DTD SVG 1.1//EN"
  "http://www.w3.org/Graphics/SVG/1.1/DTD/svg11.dtd">
<!-- Created with matplotlib (https://matplotlib.org/) -->
<svg height="396pt" version="1.1" viewBox="0 0 684 396" width="684pt" xmlns="http://www.w3.org/2000/svg" xmlns:xlink="http://www.w3.org/1999/xlink">
 <defs>
  <style type="text/css">
*{stroke-linecap:butt;stroke-linejoin:round;}
  </style>
 </defs>
 <g id="figure_1">
  <g id="patch_1">
   <path d="M 0 396 
L 684 396 
L 684 0 
L 0 0 
z
" style="fill:#ffffff;"/>
  </g>
  <g id="axes_1">
   <g id="patch_2">
    <path d="M 83.472344 352.174167 
L 529.912969 352.174167 
L 529.912969 35.0625 
L 83.472344 35.0625 
z
" style="fill:#ffffff;"/>
   </g>
   <g id="matplotlib.axis_1">
    <g id="xtick_1">
     <g id="line2d_1">
      <defs>
       <path d="M 0 0 
L 0 3.5 
" id="m83f18135d2" style="stroke:#000000;stroke-width:0.8;"/>
      </defs>
      <g>
       <use style="stroke:#000000;stroke-width:0.8;" x="103.736024" xlink:href="#m83f18135d2" y="352.174167"/>
      </g>
     </g>
     <g id="text_1">
      <!-- 0 -->
      <defs>
       <path d="M 31.78125 66.40625 
Q 24.171875 66.40625 20.328125 58.90625 
Q 16.5 51.421875 16.5 36.375 
Q 16.5 21.390625 20.328125 13.890625 
Q 24.171875 6.390625 31.78125 6.390625 
Q 39.453125 6.390625 43.28125 13.890625 
Q 47.125 21.390625 47.125 36.375 
Q 47.125 51.421875 43.28125 58.90625 
Q 39.453125 66.40625 31.78125 66.40625 
z
M 31.78125 74.21875 
Q 44.046875 74.21875 50.515625 64.515625 
Q 56.984375 54.828125 56.984375 36.375 
Q 56.984375 17.96875 50.515625 8.265625 
Q 44.046875 -1.421875 31.78125 -1.421875 
Q 19.53125 -1.421875 13.0625 8.265625 
Q 6.59375 17.96875 6.59375 36.375 
Q 6.59375 54.828125 13.0625 64.515625 
Q 19.53125 74.21875 31.78125 74.21875 
z
" id="DejaVuSans-48"/>
      </defs>
      <g transform="translate(100.554774 366.772604)scale(0.1 -0.1)">
       <use xlink:href="#DejaVuSans-48"/>
      </g>
     </g>
    </g>
    <g id="xtick_2">
     <g id="line2d_2">
      <g>
       <use style="stroke:#000000;stroke-width:0.8;" x="164.309245" xlink:href="#m83f18135d2" y="352.174167"/>
      </g>
     </g>
     <g id="text_2">
      <!-- 25 -->
      <defs>
       <path d="M 19.1875 8.296875 
L 53.609375 8.296875 
L 53.609375 0 
L 7.328125 0 
L 7.328125 8.296875 
Q 12.9375 14.109375 22.625 23.890625 
Q 32.328125 33.6875 34.8125 36.53125 
Q 39.546875 41.84375 41.421875 45.53125 
Q 43.3125 49.21875 43.3125 52.78125 
Q 43.3125 58.59375 39.234375 62.25 
Q 35.15625 65.921875 28.609375 65.921875 
Q 23.96875 65.921875 18.8125 64.3125 
Q 13.671875 62.703125 7.8125 59.421875 
L 7.8125 69.390625 
Q 13.765625 71.78125 18.9375 73 
Q 24.125 74.21875 28.421875 74.21875 
Q 39.75 74.21875 46.484375 68.546875 
Q 53.21875 62.890625 53.21875 53.421875 
Q 53.21875 48.921875 51.53125 44.890625 
Q 49.859375 40.875 45.40625 35.40625 
Q 44.1875 33.984375 37.640625 27.21875 
Q 31.109375 20.453125 19.1875 8.296875 
z
" id="DejaVuSans-50"/>
       <path d="M 10.796875 72.90625 
L 49.515625 72.90625 
L 49.515625 64.59375 
L 19.828125 64.59375 
L 19.828125 46.734375 
Q 21.96875 47.46875 24.109375 47.828125 
Q 26.265625 48.1875 28.421875 48.1875 
Q 40.625 48.1875 47.75 41.5 
Q 54.890625 34.8125 54.890625 23.390625 
Q 54.890625 11.625 47.5625 5.09375 
Q 40.234375 -1.421875 26.90625 -1.421875 
Q 22.3125 -1.421875 17.546875 -0.640625 
Q 12.796875 0.140625 7.71875 1.703125 
L 7.71875 11.625 
Q 12.109375 9.234375 16.796875 8.0625 
Q 21.484375 6.890625 26.703125 6.890625 
Q 35.15625 6.890625 40.078125 11.328125 
Q 45.015625 15.765625 45.015625 23.390625 
Q 45.015625 31 40.078125 35.4375 
Q 35.15625 39.890625 26.703125 39.890625 
Q 22.75 39.890625 18.8125 39.015625 
Q 14.890625 38.140625 10.796875 36.28125 
z
" id="DejaVuSans-53"/>
      </defs>
      <g transform="translate(157.946745 366.772604)scale(0.1 -0.1)">
       <use xlink:href="#DejaVuSans-50"/>
       <use x="63.623047" xlink:href="#DejaVuSans-53"/>
      </g>
     </g>
    </g>
    <g id="xtick_3">
     <g id="line2d_3">
      <g>
       <use style="stroke:#000000;stroke-width:0.8;" x="224.882465" xlink:href="#m83f18135d2" y="352.174167"/>
      </g>
     </g>
     <g id="text_3">
      <!-- 50 -->
      <g transform="translate(218.519965 366.772604)scale(0.1 -0.1)">
       <use xlink:href="#DejaVuSans-53"/>
       <use x="63.623047" xlink:href="#DejaVuSans-48"/>
      </g>
     </g>
    </g>
    <g id="xtick_4">
     <g id="line2d_4">
      <g>
       <use style="stroke:#000000;stroke-width:0.8;" x="285.455685" xlink:href="#m83f18135d2" y="352.174167"/>
      </g>
     </g>
     <g id="text_4">
      <!-- 75 -->
      <defs>
       <path d="M 8.203125 72.90625 
L 55.078125 72.90625 
L 55.078125 68.703125 
L 28.609375 0 
L 18.3125 0 
L 43.21875 64.59375 
L 8.203125 64.59375 
z
" id="DejaVuSans-55"/>
      </defs>
      <g transform="translate(279.093185 366.772604)scale(0.1 -0.1)">
       <use xlink:href="#DejaVuSans-55"/>
       <use x="63.623047" xlink:href="#DejaVuSans-53"/>
      </g>
     </g>
    </g>
    <g id="xtick_5">
     <g id="line2d_5">
      <g>
       <use style="stroke:#000000;stroke-width:0.8;" x="346.028906" xlink:href="#m83f18135d2" y="352.174167"/>
      </g>
     </g>
     <g id="text_5">
      <!-- 100 -->
      <defs>
       <path d="M 12.40625 8.296875 
L 28.515625 8.296875 
L 28.515625 63.921875 
L 10.984375 60.40625 
L 10.984375 69.390625 
L 28.421875 72.90625 
L 38.28125 72.90625 
L 38.28125 8.296875 
L 54.390625 8.296875 
L 54.390625 0 
L 12.40625 0 
z
" id="DejaVuSans-49"/>
      </defs>
      <g transform="translate(336.485156 366.772604)scale(0.1 -0.1)">
       <use xlink:href="#DejaVuSans-49"/>
       <use x="63.623047" xlink:href="#DejaVuSans-48"/>
       <use x="127.246094" xlink:href="#DejaVuSans-48"/>
      </g>
     </g>
    </g>
    <g id="xtick_6">
     <g id="line2d_6">
      <g>
       <use style="stroke:#000000;stroke-width:0.8;" x="406.602126" xlink:href="#m83f18135d2" y="352.174167"/>
      </g>
     </g>
     <g id="text_6">
      <!-- 125 -->
      <g transform="translate(397.058376 366.772604)scale(0.1 -0.1)">
       <use xlink:href="#DejaVuSans-49"/>
       <use x="63.623047" xlink:href="#DejaVuSans-50"/>
       <use x="127.246094" xlink:href="#DejaVuSans-53"/>
      </g>
     </g>
    </g>
    <g id="xtick_7">
     <g id="line2d_7">
      <g>
       <use style="stroke:#000000;stroke-width:0.8;" x="467.175346" xlink:href="#m83f18135d2" y="352.174167"/>
      </g>
     </g>
     <g id="text_7">
      <!-- 150 -->
      <g transform="translate(457.631596 366.772604)scale(0.1 -0.1)">
       <use xlink:href="#DejaVuSans-49"/>
       <use x="63.623047" xlink:href="#DejaVuSans-53"/>
       <use x="127.246094" xlink:href="#DejaVuSans-48"/>
      </g>
     </g>
    </g>
    <g id="xtick_8">
     <g id="line2d_8">
      <g>
       <use style="stroke:#000000;stroke-width:0.8;" x="527.748566" xlink:href="#m83f18135d2" y="352.174167"/>
      </g>
     </g>
     <g id="text_8">
      <!-- 175 -->
      <g transform="translate(518.204816 366.772604)scale(0.1 -0.1)">
       <use xlink:href="#DejaVuSans-49"/>
       <use x="63.623047" xlink:href="#DejaVuSans-55"/>
       <use x="127.246094" xlink:href="#DejaVuSans-53"/>
      </g>
     </g>
    </g>
   </g>
   <g id="matplotlib.axis_2">
    <g id="ytick_1">
     <g id="line2d_9">
      <defs>
       <path d="M 0 0 
L -3.5 0 
" id="m444e84d410" style="stroke:#000000;stroke-width:0.8;"/>
      </defs>
      <g>
       <use style="stroke:#000000;stroke-width:0.8;" x="83.472344" xlink:href="#m444e84d410" y="352.174167"/>
      </g>
     </g>
     <g id="text_9">
      <!-- 0 -->
      <g transform="translate(70.109844 355.973385)scale(0.1 -0.1)">
       <use xlink:href="#DejaVuSans-48"/>
      </g>
     </g>
    </g>
    <g id="ytick_2">
     <g id="line2d_10">
      <g>
       <use style="stroke:#000000;stroke-width:0.8;" x="83.472344" xlink:href="#m444e84d410" y="311.752029"/>
      </g>
     </g>
     <g id="text_10">
      <!-- 10 -->
      <g transform="translate(63.747344 315.551248)scale(0.1 -0.1)">
       <use xlink:href="#DejaVuSans-49"/>
       <use x="63.623047" xlink:href="#DejaVuSans-48"/>
      </g>
     </g>
    </g>
    <g id="ytick_3">
     <g id="line2d_11">
      <g>
       <use style="stroke:#000000;stroke-width:0.8;" x="83.472344" xlink:href="#m444e84d410" y="271.329892"/>
      </g>
     </g>
     <g id="text_11">
      <!-- 20 -->
      <g transform="translate(63.747344 275.129111)scale(0.1 -0.1)">
       <use xlink:href="#DejaVuSans-50"/>
       <use x="63.623047" xlink:href="#DejaVuSans-48"/>
      </g>
     </g>
    </g>
    <g id="ytick_4">
     <g id="line2d_12">
      <g>
       <use style="stroke:#000000;stroke-width:0.8;" x="83.472344" xlink:href="#m444e84d410" y="230.907755"/>
      </g>
     </g>
     <g id="text_12">
      <!-- 30 -->
      <defs>
       <path d="M 40.578125 39.3125 
Q 47.65625 37.796875 51.625 33 
Q 55.609375 28.21875 55.609375 21.1875 
Q 55.609375 10.40625 48.1875 4.484375 
Q 40.765625 -1.421875 27.09375 -1.421875 
Q 22.515625 -1.421875 17.65625 -0.515625 
Q 12.796875 0.390625 7.625 2.203125 
L 7.625 11.71875 
Q 11.71875 9.328125 16.59375 8.109375 
Q 21.484375 6.890625 26.8125 6.890625 
Q 36.078125 6.890625 40.9375 10.546875 
Q 45.796875 14.203125 45.796875 21.1875 
Q 45.796875 27.640625 41.28125 31.265625 
Q 36.765625 34.90625 28.71875 34.90625 
L 20.21875 34.90625 
L 20.21875 43.015625 
L 29.109375 43.015625 
Q 36.375 43.015625 40.234375 45.921875 
Q 44.09375 48.828125 44.09375 54.296875 
Q 44.09375 59.90625 40.109375 62.90625 
Q 36.140625 65.921875 28.71875 65.921875 
Q 24.65625 65.921875 20.015625 65.03125 
Q 15.375 64.15625 9.8125 62.3125 
L 9.8125 71.09375 
Q 15.4375 72.65625 20.34375 73.4375 
Q 25.25 74.21875 29.59375 74.21875 
Q 40.828125 74.21875 47.359375 69.109375 
Q 53.90625 64.015625 53.90625 55.328125 
Q 53.90625 49.265625 50.4375 45.09375 
Q 46.96875 40.921875 40.578125 39.3125 
z
" id="DejaVuSans-51"/>
      </defs>
      <g transform="translate(63.747344 234.706974)scale(0.1 -0.1)">
       <use xlink:href="#DejaVuSans-51"/>
       <use x="63.623047" xlink:href="#DejaVuSans-48"/>
      </g>
     </g>
    </g>
    <g id="ytick_5">
     <g id="line2d_13">
      <g>
       <use style="stroke:#000000;stroke-width:0.8;" x="83.472344" xlink:href="#m444e84d410" y="190.485618"/>
      </g>
     </g>
     <g id="text_13">
      <!-- 40 -->
      <defs>
       <path d="M 37.796875 64.3125 
L 12.890625 25.390625 
L 37.796875 25.390625 
z
M 35.203125 72.90625 
L 47.609375 72.90625 
L 47.609375 25.390625 
L 58.015625 25.390625 
L 58.015625 17.1875 
L 47.609375 17.1875 
L 47.609375 0 
L 37.796875 0 
L 37.796875 17.1875 
L 4.890625 17.1875 
L 4.890625 26.703125 
z
" id="DejaVuSans-52"/>
      </defs>
      <g transform="translate(63.747344 194.284836)scale(0.1 -0.1)">
       <use xlink:href="#DejaVuSans-52"/>
       <use x="63.623047" xlink:href="#DejaVuSans-48"/>
      </g>
     </g>
    </g>
    <g id="ytick_6">
     <g id="line2d_14">
      <g>
       <use style="stroke:#000000;stroke-width:0.8;" x="83.472344" xlink:href="#m444e84d410" y="150.06348"/>
      </g>
     </g>
     <g id="text_14">
      <!-- 50 -->
      <g transform="translate(63.747344 153.862699)scale(0.1 -0.1)">
       <use xlink:href="#DejaVuSans-53"/>
       <use x="63.623047" xlink:href="#DejaVuSans-48"/>
      </g>
     </g>
    </g>
    <g id="ytick_7">
     <g id="line2d_15">
      <g>
       <use style="stroke:#000000;stroke-width:0.8;" x="83.472344" xlink:href="#m444e84d410" y="109.641343"/>
      </g>
     </g>
     <g id="text_15">
      <!-- 60 -->
      <defs>
       <path d="M 33.015625 40.375 
Q 26.375 40.375 22.484375 35.828125 
Q 18.609375 31.296875 18.609375 23.390625 
Q 18.609375 15.53125 22.484375 10.953125 
Q 26.375 6.390625 33.015625 6.390625 
Q 39.65625 6.390625 43.53125 10.953125 
Q 47.40625 15.53125 47.40625 23.390625 
Q 47.40625 31.296875 43.53125 35.828125 
Q 39.65625 40.375 33.015625 40.375 
z
M 52.59375 71.296875 
L 52.59375 62.3125 
Q 48.875 64.0625 45.09375 64.984375 
Q 41.3125 65.921875 37.59375 65.921875 
Q 27.828125 65.921875 22.671875 59.328125 
Q 17.53125 52.734375 16.796875 39.40625 
Q 19.671875 43.65625 24.015625 45.921875 
Q 28.375 48.1875 33.59375 48.1875 
Q 44.578125 48.1875 50.953125 41.515625 
Q 57.328125 34.859375 57.328125 23.390625 
Q 57.328125 12.15625 50.6875 5.359375 
Q 44.046875 -1.421875 33.015625 -1.421875 
Q 20.359375 -1.421875 13.671875 8.265625 
Q 6.984375 17.96875 6.984375 36.375 
Q 6.984375 53.65625 15.1875 63.9375 
Q 23.390625 74.21875 37.203125 74.21875 
Q 40.921875 74.21875 44.703125 73.484375 
Q 48.484375 72.75 52.59375 71.296875 
z
" id="DejaVuSans-54"/>
      </defs>
      <g transform="translate(63.747344 113.440562)scale(0.1 -0.1)">
       <use xlink:href="#DejaVuSans-54"/>
       <use x="63.623047" xlink:href="#DejaVuSans-48"/>
      </g>
     </g>
    </g>
    <g id="ytick_8">
     <g id="line2d_16">
      <g>
       <use style="stroke:#000000;stroke-width:0.8;" x="83.472344" xlink:href="#m444e84d410" y="69.219206"/>
      </g>
     </g>
     <g id="text_16">
      <!-- 70 -->
      <g transform="translate(63.747344 73.018425)scale(0.1 -0.1)">
       <use xlink:href="#DejaVuSans-55"/>
       <use x="63.623047" xlink:href="#DejaVuSans-48"/>
      </g>
     </g>
    </g>
    <g id="text_17">
     <!-- throughput -->
     <defs>
      <path d="M 18.3125 70.21875 
L 18.3125 54.6875 
L 36.8125 54.6875 
L 36.8125 47.703125 
L 18.3125 47.703125 
L 18.3125 18.015625 
Q 18.3125 11.328125 20.140625 9.421875 
Q 21.96875 7.515625 27.59375 7.515625 
L 36.8125 7.515625 
L 36.8125 0 
L 27.59375 0 
Q 17.1875 0 13.234375 3.875 
Q 9.28125 7.765625 9.28125 18.015625 
L 9.28125 47.703125 
L 2.6875 47.703125 
L 2.6875 54.6875 
L 9.28125 54.6875 
L 9.28125 70.21875 
z
" id="DejaVuSans-116"/>
      <path d="M 54.890625 33.015625 
L 54.890625 0 
L 45.90625 0 
L 45.90625 32.71875 
Q 45.90625 40.484375 42.875 44.328125 
Q 39.84375 48.1875 33.796875 48.1875 
Q 26.515625 48.1875 22.3125 43.546875 
Q 18.109375 38.921875 18.109375 30.90625 
L 18.109375 0 
L 9.078125 0 
L 9.078125 75.984375 
L 18.109375 75.984375 
L 18.109375 46.1875 
Q 21.34375 51.125 25.703125 53.5625 
Q 30.078125 56 35.796875 56 
Q 45.21875 56 50.046875 50.171875 
Q 54.890625 44.34375 54.890625 33.015625 
z
" id="DejaVuSans-104"/>
      <path d="M 41.109375 46.296875 
Q 39.59375 47.171875 37.8125 47.578125 
Q 36.03125 48 33.890625 48 
Q 26.265625 48 22.1875 43.046875 
Q 18.109375 38.09375 18.109375 28.8125 
L 18.109375 0 
L 9.078125 0 
L 9.078125 54.6875 
L 18.109375 54.6875 
L 18.109375 46.1875 
Q 20.953125 51.171875 25.484375 53.578125 
Q 30.03125 56 36.53125 56 
Q 37.453125 56 38.578125 55.875 
Q 39.703125 55.765625 41.0625 55.515625 
z
" id="DejaVuSans-114"/>
      <path d="M 30.609375 48.390625 
Q 23.390625 48.390625 19.1875 42.75 
Q 14.984375 37.109375 14.984375 27.296875 
Q 14.984375 17.484375 19.15625 11.84375 
Q 23.34375 6.203125 30.609375 6.203125 
Q 37.796875 6.203125 41.984375 11.859375 
Q 46.1875 17.53125 46.1875 27.296875 
Q 46.1875 37.015625 41.984375 42.703125 
Q 37.796875 48.390625 30.609375 48.390625 
z
M 30.609375 56 
Q 42.328125 56 49.015625 48.375 
Q 55.71875 40.765625 55.71875 27.296875 
Q 55.71875 13.875 49.015625 6.21875 
Q 42.328125 -1.421875 30.609375 -1.421875 
Q 18.84375 -1.421875 12.171875 6.21875 
Q 5.515625 13.875 5.515625 27.296875 
Q 5.515625 40.765625 12.171875 48.375 
Q 18.84375 56 30.609375 56 
z
" id="DejaVuSans-111"/>
      <path d="M 8.5 21.578125 
L 8.5 54.6875 
L 17.484375 54.6875 
L 17.484375 21.921875 
Q 17.484375 14.15625 20.5 10.265625 
Q 23.53125 6.390625 29.59375 6.390625 
Q 36.859375 6.390625 41.078125 11.03125 
Q 45.3125 15.671875 45.3125 23.6875 
L 45.3125 54.6875 
L 54.296875 54.6875 
L 54.296875 0 
L 45.3125 0 
L 45.3125 8.40625 
Q 42.046875 3.421875 37.71875 1 
Q 33.40625 -1.421875 27.6875 -1.421875 
Q 18.265625 -1.421875 13.375 4.4375 
Q 8.5 10.296875 8.5 21.578125 
z
M 31.109375 56 
z
" id="DejaVuSans-117"/>
      <path d="M 45.40625 27.984375 
Q 45.40625 37.75 41.375 43.109375 
Q 37.359375 48.484375 30.078125 48.484375 
Q 22.859375 48.484375 18.828125 43.109375 
Q 14.796875 37.75 14.796875 27.984375 
Q 14.796875 18.265625 18.828125 12.890625 
Q 22.859375 7.515625 30.078125 7.515625 
Q 37.359375 7.515625 41.375 12.890625 
Q 45.40625 18.265625 45.40625 27.984375 
z
M 54.390625 6.78125 
Q 54.390625 -7.171875 48.1875 -13.984375 
Q 42 -20.796875 29.203125 -20.796875 
Q 24.46875 -20.796875 20.265625 -20.09375 
Q 16.0625 -19.390625 12.109375 -17.921875 
L 12.109375 -9.1875 
Q 16.0625 -11.328125 19.921875 -12.34375 
Q 23.78125 -13.375 27.78125 -13.375 
Q 36.625 -13.375 41.015625 -8.765625 
Q 45.40625 -4.15625 45.40625 5.171875 
L 45.40625 9.625 
Q 42.625 4.78125 38.28125 2.390625 
Q 33.9375 0 27.875 0 
Q 17.828125 0 11.671875 7.65625 
Q 5.515625 15.328125 5.515625 27.984375 
Q 5.515625 40.671875 11.671875 48.328125 
Q 17.828125 56 27.875 56 
Q 33.9375 56 38.28125 53.609375 
Q 42.625 51.21875 45.40625 46.390625 
L 45.40625 54.6875 
L 54.390625 54.6875 
z
" id="DejaVuSans-103"/>
      <path d="M 18.109375 8.203125 
L 18.109375 -20.796875 
L 9.078125 -20.796875 
L 9.078125 54.6875 
L 18.109375 54.6875 
L 18.109375 46.390625 
Q 20.953125 51.265625 25.265625 53.625 
Q 29.59375 56 35.59375 56 
Q 45.5625 56 51.78125 48.09375 
Q 58.015625 40.1875 58.015625 27.296875 
Q 58.015625 14.40625 51.78125 6.484375 
Q 45.5625 -1.421875 35.59375 -1.421875 
Q 29.59375 -1.421875 25.265625 0.953125 
Q 20.953125 3.328125 18.109375 8.203125 
z
M 48.6875 27.296875 
Q 48.6875 37.203125 44.609375 42.84375 
Q 40.53125 48.484375 33.40625 48.484375 
Q 26.265625 48.484375 22.1875 42.84375 
Q 18.109375 37.203125 18.109375 27.296875 
Q 18.109375 17.390625 22.1875 11.75 
Q 26.265625 6.109375 33.40625 6.109375 
Q 40.53125 6.109375 44.609375 11.75 
Q 48.6875 17.390625 48.6875 27.296875 
z
" id="DejaVuSans-112"/>
     </defs>
     <g transform="translate(46.469844 221.675365)rotate(-90)scale(0.1 -0.1)">
      <use xlink:href="#DejaVuSans-116"/>
      <use x="39.208984" xlink:href="#DejaVuSans-104"/>
      <use x="102.587891" xlink:href="#DejaVuSans-114"/>
      <use x="143.669922" xlink:href="#DejaVuSans-111"/>
      <use x="204.851562" xlink:href="#DejaVuSans-117"/>
      <use x="268.230469" xlink:href="#DejaVuSans-103"/>
      <use x="331.707031" xlink:href="#DejaVuSans-104"/>
      <use x="395.085938" xlink:href="#DejaVuSans-112"/>
      <use x="458.5625" xlink:href="#DejaVuSans-117"/>
      <use x="521.941406" xlink:href="#DejaVuSans-116"/>
     </g>
     <!-- (mbit / second) -->
     <defs>
      <path d="M 31 75.875 
Q 24.46875 64.65625 21.28125 53.65625 
Q 18.109375 42.671875 18.109375 31.390625 
Q 18.109375 20.125 21.3125 9.0625 
Q 24.515625 -2 31 -13.1875 
L 23.1875 -13.1875 
Q 15.875 -1.703125 12.234375 9.375 
Q 8.59375 20.453125 8.59375 31.390625 
Q 8.59375 42.28125 12.203125 53.3125 
Q 15.828125 64.359375 23.1875 75.875 
z
" id="DejaVuSans-40"/>
      <path d="M 52 44.1875 
Q 55.375 50.25 60.0625 53.125 
Q 64.75 56 71.09375 56 
Q 79.640625 56 84.28125 50.015625 
Q 88.921875 44.046875 88.921875 33.015625 
L 88.921875 0 
L 79.890625 0 
L 79.890625 32.71875 
Q 79.890625 40.578125 77.09375 44.375 
Q 74.3125 48.1875 68.609375 48.1875 
Q 61.625 48.1875 57.5625 43.546875 
Q 53.515625 38.921875 53.515625 30.90625 
L 53.515625 0 
L 44.484375 0 
L 44.484375 32.71875 
Q 44.484375 40.625 41.703125 44.40625 
Q 38.921875 48.1875 33.109375 48.1875 
Q 26.21875 48.1875 22.15625 43.53125 
Q 18.109375 38.875 18.109375 30.90625 
L 18.109375 0 
L 9.078125 0 
L 9.078125 54.6875 
L 18.109375 54.6875 
L 18.109375 46.1875 
Q 21.1875 51.21875 25.484375 53.609375 
Q 29.78125 56 35.6875 56 
Q 41.65625 56 45.828125 52.96875 
Q 50 49.953125 52 44.1875 
z
" id="DejaVuSans-109"/>
      <path d="M 48.6875 27.296875 
Q 48.6875 37.203125 44.609375 42.84375 
Q 40.53125 48.484375 33.40625 48.484375 
Q 26.265625 48.484375 22.1875 42.84375 
Q 18.109375 37.203125 18.109375 27.296875 
Q 18.109375 17.390625 22.1875 11.75 
Q 26.265625 6.109375 33.40625 6.109375 
Q 40.53125 6.109375 44.609375 11.75 
Q 48.6875 17.390625 48.6875 27.296875 
z
M 18.109375 46.390625 
Q 20.953125 51.265625 25.265625 53.625 
Q 29.59375 56 35.59375 56 
Q 45.5625 56 51.78125 48.09375 
Q 58.015625 40.1875 58.015625 27.296875 
Q 58.015625 14.40625 51.78125 6.484375 
Q 45.5625 -1.421875 35.59375 -1.421875 
Q 29.59375 -1.421875 25.265625 0.953125 
Q 20.953125 3.328125 18.109375 8.203125 
L 18.109375 0 
L 9.078125 0 
L 9.078125 75.984375 
L 18.109375 75.984375 
z
" id="DejaVuSans-98"/>
      <path d="M 9.421875 54.6875 
L 18.40625 54.6875 
L 18.40625 0 
L 9.421875 0 
z
M 9.421875 75.984375 
L 18.40625 75.984375 
L 18.40625 64.59375 
L 9.421875 64.59375 
z
" id="DejaVuSans-105"/>
      <path id="DejaVuSans-32"/>
      <path d="M 25.390625 72.90625 
L 33.6875 72.90625 
L 8.296875 -9.28125 
L 0 -9.28125 
z
" id="DejaVuSans-47"/>
      <path d="M 44.28125 53.078125 
L 44.28125 44.578125 
Q 40.484375 46.53125 36.375 47.5 
Q 32.28125 48.484375 27.875 48.484375 
Q 21.1875 48.484375 17.84375 46.4375 
Q 14.5 44.390625 14.5 40.28125 
Q 14.5 37.15625 16.890625 35.375 
Q 19.28125 33.59375 26.515625 31.984375 
L 29.59375 31.296875 
Q 39.15625 29.25 43.1875 25.515625 
Q 47.21875 21.78125 47.21875 15.09375 
Q 47.21875 7.46875 41.1875 3.015625 
Q 35.15625 -1.421875 24.609375 -1.421875 
Q 20.21875 -1.421875 15.453125 -0.5625 
Q 10.6875 0.296875 5.421875 2 
L 5.421875 11.28125 
Q 10.40625 8.6875 15.234375 7.390625 
Q 20.0625 6.109375 24.8125 6.109375 
Q 31.15625 6.109375 34.5625 8.28125 
Q 37.984375 10.453125 37.984375 14.40625 
Q 37.984375 18.0625 35.515625 20.015625 
Q 33.0625 21.96875 24.703125 23.78125 
L 21.578125 24.515625 
Q 13.234375 26.265625 9.515625 29.90625 
Q 5.8125 33.546875 5.8125 39.890625 
Q 5.8125 47.609375 11.28125 51.796875 
Q 16.75 56 26.8125 56 
Q 31.78125 56 36.171875 55.265625 
Q 40.578125 54.546875 44.28125 53.078125 
z
" id="DejaVuSans-115"/>
      <path d="M 56.203125 29.59375 
L 56.203125 25.203125 
L 14.890625 25.203125 
Q 15.484375 15.921875 20.484375 11.0625 
Q 25.484375 6.203125 34.421875 6.203125 
Q 39.59375 6.203125 44.453125 7.46875 
Q 49.3125 8.734375 54.109375 11.28125 
L 54.109375 2.78125 
Q 49.265625 0.734375 44.1875 -0.34375 
Q 39.109375 -1.421875 33.890625 -1.421875 
Q 20.796875 -1.421875 13.15625 6.1875 
Q 5.515625 13.8125 5.515625 26.8125 
Q 5.515625 40.234375 12.765625 48.109375 
Q 20.015625 56 32.328125 56 
Q 43.359375 56 49.78125 48.890625 
Q 56.203125 41.796875 56.203125 29.59375 
z
M 47.21875 32.234375 
Q 47.125 39.59375 43.09375 43.984375 
Q 39.0625 48.390625 32.421875 48.390625 
Q 24.90625 48.390625 20.390625 44.140625 
Q 15.875 39.890625 15.1875 32.171875 
z
" id="DejaVuSans-101"/>
      <path d="M 48.78125 52.59375 
L 48.78125 44.1875 
Q 44.96875 46.296875 41.140625 47.34375 
Q 37.3125 48.390625 33.40625 48.390625 
Q 24.65625 48.390625 19.8125 42.84375 
Q 14.984375 37.3125 14.984375 27.296875 
Q 14.984375 17.28125 19.8125 11.734375 
Q 24.65625 6.203125 33.40625 6.203125 
Q 37.3125 6.203125 41.140625 7.25 
Q 44.96875 8.296875 48.78125 10.40625 
L 48.78125 2.09375 
Q 45.015625 0.34375 40.984375 -0.53125 
Q 36.96875 -1.421875 32.421875 -1.421875 
Q 20.0625 -1.421875 12.78125 6.34375 
Q 5.515625 14.109375 5.515625 27.296875 
Q 5.515625 40.671875 12.859375 48.328125 
Q 20.21875 56 33.015625 56 
Q 37.15625 56 41.109375 55.140625 
Q 45.0625 54.296875 48.78125 52.59375 
z
" id="DejaVuSans-99"/>
      <path d="M 54.890625 33.015625 
L 54.890625 0 
L 45.90625 0 
L 45.90625 32.71875 
Q 45.90625 40.484375 42.875 44.328125 
Q 39.84375 48.1875 33.796875 48.1875 
Q 26.515625 48.1875 22.3125 43.546875 
Q 18.109375 38.921875 18.109375 30.90625 
L 18.109375 0 
L 9.078125 0 
L 9.078125 54.6875 
L 18.109375 54.6875 
L 18.109375 46.1875 
Q 21.34375 51.125 25.703125 53.5625 
Q 30.078125 56 35.796875 56 
Q 45.21875 56 50.046875 50.171875 
Q 54.890625 44.34375 54.890625 33.015625 
z
" id="DejaVuSans-110"/>
      <path d="M 45.40625 46.390625 
L 45.40625 75.984375 
L 54.390625 75.984375 
L 54.390625 0 
L 45.40625 0 
L 45.40625 8.203125 
Q 42.578125 3.328125 38.25 0.953125 
Q 33.9375 -1.421875 27.875 -1.421875 
Q 17.96875 -1.421875 11.734375 6.484375 
Q 5.515625 14.40625 5.515625 27.296875 
Q 5.515625 40.1875 11.734375 48.09375 
Q 17.96875 56 27.875 56 
Q 33.9375 56 38.25 53.625 
Q 42.578125 51.265625 45.40625 46.390625 
z
M 14.796875 27.296875 
Q 14.796875 17.390625 18.875 11.75 
Q 22.953125 6.109375 30.078125 6.109375 
Q 37.203125 6.109375 41.296875 11.75 
Q 45.40625 17.390625 45.40625 27.296875 
Q 45.40625 37.203125 41.296875 42.84375 
Q 37.203125 48.484375 30.078125 48.484375 
Q 22.953125 48.484375 18.875 42.84375 
Q 14.796875 37.203125 14.796875 27.296875 
z
" id="DejaVuSans-100"/>
      <path d="M 8.015625 75.875 
L 15.828125 75.875 
Q 23.140625 64.359375 26.78125 53.3125 
Q 30.421875 42.28125 30.421875 31.390625 
Q 30.421875 20.453125 26.78125 9.375 
Q 23.140625 -1.703125 15.828125 -13.1875 
L 8.015625 -13.1875 
Q 14.5 -2 17.703125 9.0625 
Q 20.90625 20.125 20.90625 31.390625 
Q 20.90625 42.671875 17.703125 53.65625 
Q 14.5 64.65625 8.015625 75.875 
z
" id="DejaVuSans-41"/>
     </defs>
     <g transform="translate(57.667656 231.608958)rotate(-90)scale(0.1 -0.1)">
      <use xlink:href="#DejaVuSans-40"/>
      <use x="39.013672" xlink:href="#DejaVuSans-109"/>
      <use x="136.425781" xlink:href="#DejaVuSans-98"/>
      <use x="199.902344" xlink:href="#DejaVuSans-105"/>
      <use x="227.685547" xlink:href="#DejaVuSans-116"/>
      <use x="266.894531" xlink:href="#DejaVuSans-32"/>
      <use x="298.681641" xlink:href="#DejaVuSans-47"/>
      <use x="332.373047" xlink:href="#DejaVuSans-32"/>
      <use x="364.160156" xlink:href="#DejaVuSans-115"/>
      <use x="416.259766" xlink:href="#DejaVuSans-101"/>
      <use x="477.783203" xlink:href="#DejaVuSans-99"/>
      <use x="532.763672" xlink:href="#DejaVuSans-111"/>
      <use x="593.945312" xlink:href="#DejaVuSans-110"/>
      <use x="657.324219" xlink:href="#DejaVuSans-100"/>
      <use x="720.800781" xlink:href="#DejaVuSans-41"/>
     </g>
    </g>
   </g>
   <g id="line2d_17">
    <path clip-path="url(#p5ff7cf32ae)" d="M 113.352629 283.456533 
L 114.564093 271.329892 
L 115.775558 255.161037 
L 116.987022 243.034396 
L 118.198486 255.161037 
L 119.409951 251.118824 
L 123.044344 226.865541 
L 124.255808 210.696686 
L 125.467273 206.654473 
L 126.678737 206.654473 
L 127.890202 218.781114 
L 129.101666 206.654473 
L 130.31313 238.992182 
L 131.524595 259.203251 
L 132.736059 255.161037 
L 133.947524 283.456533 
L 135.158988 295.583175 
L 136.370452 291.540961 
L 137.581917 295.583175 
L 138.793381 307.709816 
L 140.004846 311.752029 
L 141.21631 307.709816 
L 142.427774 307.709816 
L 143.639239 299.625388 
L 144.850703 287.498747 
L 148.485097 311.752029 
L 149.696561 299.625388 
L 150.908025 291.540961 
L 152.11949 291.540961 
L 153.330954 299.625388 
L 154.542419 287.498747 
L 155.753883 291.540961 
L 156.965347 291.540961 
L 158.176812 275.372106 
L 159.388276 295.583175 
L 161.811205 295.583175 
L 163.022669 299.625388 
L 164.234134 291.540961 
L 165.445598 291.540961 
L 166.657063 295.583175 
L 167.868527 291.540961 
L 170.291456 299.625388 
L 171.50292 295.583175 
L 172.714385 303.667602 
L 173.925849 299.625388 
L 175.137313 307.709816 
L 176.348778 311.752029 
L 177.560242 311.752029 
L 178.771707 299.625388 
L 179.983171 299.625388 
L 181.194635 307.709816 
L 182.4061 303.667602 
L 186.040493 303.667602 
L 187.251958 315.794243 
L 188.463422 311.752029 
L 189.674886 299.625388 
L 190.886351 295.583175 
L 192.097815 295.583175 
L 193.30928 299.625388 
L 194.520744 259.203251 
L 195.732208 283.456533 
L 196.943673 267.287678 
L 198.155137 255.161037 
L 199.366602 247.07661 
L 200.578066 234.949969 
L 201.78953 226.865541 
L 203.000995 243.034396 
L 204.212459 238.992182 
L 205.423924 226.865541 
L 206.635388 222.823327 
L 209.058317 198.570045 
L 210.269781 222.823327 
L 211.481246 222.823327 
L 212.69271 206.654473 
L 213.904174 218.781114 
L 215.115639 222.823327 
L 216.327103 222.823327 
L 217.538568 226.865541 
L 218.750032 210.696686 
L 219.961496 247.07661 
L 221.172961 287.498747 
L 222.384425 303.667602 
L 223.59589 311.752029 
L 224.807354 299.625388 
L 226.018819 303.667602 
L 227.230283 295.583175 
L 228.441747 311.752029 
L 229.653212 307.709816 
L 230.864676 311.752029 
L 233.287605 311.752029 
L 234.499069 307.709816 
L 238.133463 307.709816 
L 239.344927 303.667602 
L 241.767856 311.752029 
L 242.97932 319.836457 
L 245.402249 303.667602 
L 246.613713 299.625388 
L 247.825178 291.540961 
L 250.248107 299.625388 
L 251.459571 299.625388 
L 252.671035 295.583175 
L 253.8825 299.625388 
L 255.093964 299.625388 
L 256.305429 251.118824 
L 257.516893 271.329892 
L 258.728357 259.203251 
L 259.939822 251.118824 
L 261.151286 247.07661 
L 262.362751 251.118824 
L 264.78568 243.034396 
L 265.997144 263.245465 
L 267.208608 279.41432 
L 268.420073 263.245465 
L 269.631537 255.161037 
L 270.843002 255.161037 
L 272.054466 259.203251 
L 274.477395 234.949969 
L 275.688859 234.949969 
L 276.900324 238.992182 
L 278.111788 238.992182 
L 279.323252 247.07661 
L 280.534717 234.949969 
L 281.746181 243.034396 
L 284.16911 283.456533 
L 285.380574 291.540961 
L 286.592039 307.709816 
L 287.803503 295.583175 
L 289.014968 303.667602 
L 290.226432 303.667602 
L 291.437896 295.583175 
L 292.649361 303.667602 
L 293.860825 307.709816 
L 295.07229 295.583175 
L 296.283754 295.583175 
L 297.495218 303.667602 
L 298.706683 291.540961 
L 299.918147 287.498747 
L 301.129612 291.540961 
L 302.341076 287.498747 
L 303.552541 303.667602 
L 304.764005 303.667602 
L 305.975469 299.625388 
L 307.186934 299.625388 
L 308.398398 303.667602 
L 309.609863 295.583175 
L 310.821327 279.41432 
L 312.032791 267.287678 
L 313.244256 275.372106 
L 314.45572 287.498747 
L 315.667185 279.41432 
L 316.878649 279.41432 
L 318.090113 275.372106 
L 319.301578 267.287678 
L 320.513042 251.118824 
L 321.724507 255.161037 
L 322.935971 263.245465 
L 324.147435 275.372106 
L 325.3589 279.41432 
L 326.570364 279.41432 
L 328.993293 255.161037 
L 330.204757 255.161037 
L 331.416222 259.203251 
L 332.627686 259.203251 
L 333.839151 271.329892 
L 335.050615 275.372106 
L 336.262079 291.540961 
L 337.473544 271.329892 
L 338.685008 295.583175 
L 339.896473 295.583175 
L 341.107937 303.667602 
L 344.74233 303.667602 
L 345.953795 307.709816 
L 347.165259 303.667602 
L 348.376724 319.836457 
L 349.588188 319.836457 
L 350.799652 303.667602 
L 352.011117 303.667602 
L 353.222581 299.625388 
L 354.434046 303.667602 
L 355.64551 299.625388 
L 356.856974 307.709816 
L 358.068439 295.583175 
L 359.279903 299.625388 
L 360.491368 315.794243 
L 361.702832 311.752029 
L 362.914296 311.752029 
L 365.337225 319.836457 
L 366.54869 319.836457 
L 367.760154 311.752029 
L 368.971618 311.752029 
L 370.183083 303.667602 
L 371.394547 307.709816 
L 372.606012 307.709816 
L 373.817476 295.583175 
L 375.02894 295.583175 
L 376.240405 291.540961 
L 377.451869 299.625388 
L 379.874798 275.372106 
L 382.297727 291.540961 
L 383.509191 307.709816 
L 385.93212 315.794243 
L 387.143585 303.667602 
L 388.355049 303.667602 
L 389.566513 291.540961 
L 390.777978 247.07661 
L 391.989442 287.498747 
L 393.200907 275.372106 
L 394.412371 279.41432 
L 395.623835 299.625388 
L 396.8353 303.667602 
L 398.046764 295.583175 
L 399.258229 291.540961 
L 400.469693 295.583175 
L 401.681157 303.667602 
L 402.892622 319.836457 
L 405.315551 303.667602 
L 406.527015 311.752029 
L 407.738479 303.667602 
L 408.949944 291.540961 
L 410.161408 299.625388 
L 411.372873 303.667602 
L 412.584337 291.540961 
L 413.795801 291.540961 
L 415.007266 251.118824 
L 416.21873 267.287678 
L 417.430195 263.245465 
L 421.064588 226.865541 
L 423.487517 234.949969 
L 424.698981 234.949969 
L 425.910446 222.823327 
L 427.12191 243.034396 
L 429.544839 243.034396 
L 430.756303 247.07661 
L 431.967768 247.07661 
L 433.179232 255.161037 
L 434.390696 251.118824 
L 435.602161 267.287678 
L 436.813625 255.161037 
L 438.02509 251.118824 
L 439.236554 234.949969 
L 440.448018 210.696686 
L 441.659483 259.203251 
L 442.870947 279.41432 
L 444.082412 279.41432 
L 445.293876 295.583175 
L 446.50534 295.583175 
L 447.716805 291.540961 
L 448.928269 299.625388 
L 450.139734 295.583175 
L 451.351198 283.456533 
L 452.562662 283.456533 
L 453.774127 291.540961 
L 454.985591 307.709816 
L 456.197056 299.625388 
L 457.40852 299.625388 
L 458.619984 295.583175 
L 461.042913 295.583175 
L 462.254378 283.456533 
L 463.465842 291.540961 
L 464.677307 291.540961 
L 465.888771 303.667602 
L 467.100235 303.667602 
L 469.523164 319.836457 
L 470.734629 311.752029 
L 473.157557 319.836457 
L 475.580486 311.752029 
L 476.791951 279.41432 
L 478.003415 291.540961 
L 479.214879 275.372106 
L 480.426344 263.245465 
L 481.637808 255.161037 
L 482.849273 238.992182 
L 484.060737 234.949969 
L 485.272201 218.781114 
L 486.483666 218.781114 
L 487.69513 226.865541 
L 488.906595 226.865541 
L 491.329523 210.696686 
L 492.540988 206.654473 
L 493.752452 222.823327 
L 494.963917 222.823327 
L 496.175381 206.654473 
L 497.386845 226.865541 
L 499.809774 234.949969 
L 501.021239 230.907755 
L 502.232703 263.245465 
L 503.444168 279.41432 
L 504.655632 303.667602 
L 504.655632 303.667602 
" style="fill:none;stroke:#1f77b4;stroke-linecap:square;stroke-width:1.5;"/>
   </g>
   <g id="line2d_18">
    <path clip-path="url(#p5ff7cf32ae)" d="M 108.484965 226.865541 
L 109.696429 190.485618 
L 110.907894 202.612259 
L 112.119358 182.40119 
L 113.330822 202.612259 
L 114.542287 218.781114 
L 115.753751 218.781114 
L 116.965216 226.865541 
L 119.388144 251.118824 
L 120.599609 271.329892 
L 123.022538 295.583175 
L 125.445466 303.667602 
L 130.291324 287.498747 
L 131.502788 287.498747 
L 132.714253 311.752029 
L 133.925717 259.203251 
L 135.137182 243.034396 
L 136.348646 251.118824 
L 137.560111 247.07661 
L 138.771575 251.118824 
L 139.983039 251.118824 
L 142.405968 243.034396 
L 143.617433 251.118824 
L 144.828897 255.161037 
L 146.040361 243.034396 
L 147.251826 247.07661 
L 148.46329 243.034396 
L 149.674755 251.118824 
L 150.886219 251.118824 
L 153.309148 243.034396 
L 154.520612 247.07661 
L 156.943541 247.07661 
L 158.155005 230.907755 
L 159.36647 247.07661 
L 160.577934 251.118824 
L 161.789399 247.07661 
L 163.000863 238.992182 
L 164.212327 251.118824 
L 165.423792 247.07661 
L 167.846721 247.07661 
L 169.058185 243.034396 
L 171.481114 243.034396 
L 172.692578 238.992182 
L 173.904043 247.07661 
L 176.326972 247.07661 
L 177.538436 243.034396 
L 178.7499 255.161037 
L 179.961365 247.07661 
L 181.172829 251.118824 
L 182.384294 247.07661 
L 183.595758 247.07661 
L 184.807222 243.034396 
L 186.018687 263.245465 
L 187.230151 247.07661 
L 188.441616 243.034396 
L 189.65308 247.07661 
L 190.864544 238.992182 
L 192.076009 247.07661 
L 193.287473 247.07661 
L 194.498938 291.540961 
L 195.710402 263.245465 
L 198.133331 287.498747 
L 200.55626 303.667602 
L 202.979188 303.667602 
L 204.190653 307.709816 
L 207.825046 307.709816 
L 210.247975 299.625388 
L 211.459439 303.667602 
L 212.670904 303.667602 
L 213.882368 295.583175 
L 215.093833 291.540961 
L 216.305297 299.625388 
L 217.516761 299.625388 
L 218.728226 315.794243 
L 219.93969 287.498747 
L 221.151155 255.161037 
L 222.362619 247.07661 
L 223.574083 247.07661 
L 225.997012 238.992182 
L 228.419941 238.992182 
L 230.84287 247.07661 
L 233.265799 238.992182 
L 236.900192 251.118824 
L 238.111656 243.034396 
L 239.323121 247.07661 
L 240.534585 243.034396 
L 241.746049 251.118824 
L 242.957514 247.07661 
L 244.168978 251.118824 
L 245.380443 247.07661 
L 252.649229 247.07661 
L 253.860693 251.118824 
L 255.072158 243.034396 
L 256.283622 295.583175 
L 257.495087 271.329892 
L 258.706551 287.498747 
L 259.918016 295.583175 
L 261.12948 299.625388 
L 262.340944 295.583175 
L 263.552409 299.625388 
L 264.763873 307.709816 
L 265.975338 307.709816 
L 268.398266 299.625388 
L 270.821195 299.625388 
L 272.03266 295.583175 
L 273.244124 303.667602 
L 275.667053 303.667602 
L 276.878517 299.625388 
L 278.089982 303.667602 
L 279.301446 303.667602 
L 280.51291 323.878671 
L 281.724375 299.625388 
L 282.935839 279.41432 
L 284.147304 263.245465 
L 285.358768 251.118824 
L 286.570232 243.034396 
L 288.993161 234.949969 
L 290.204626 238.992182 
L 291.41609 247.07661 
L 292.627554 243.034396 
L 293.839019 243.034396 
L 295.050483 251.118824 
L 297.473412 243.034396 
L 299.896341 251.118824 
L 301.107805 247.07661 
L 302.31927 255.161037 
L 303.530734 238.992182 
L 304.742199 243.034396 
L 305.953663 251.118824 
L 307.165127 267.287678 
L 308.376592 247.07661 
L 310.799521 255.161037 
L 312.010985 275.372106 
L 313.222449 279.41432 
L 314.433914 271.329892 
L 315.645378 279.41432 
L 316.856843 275.372106 
L 318.068307 279.41432 
L 319.279771 287.498747 
L 320.491236 287.498747 
L 321.7027 291.540961 
L 324.125629 291.540961 
L 326.548558 283.456533 
L 327.760022 287.498747 
L 330.182951 287.498747 
L 331.394415 283.456533 
L 333.817344 291.540961 
L 336.240273 291.540961 
L 337.451738 315.794243 
L 338.663202 275.372106 
L 341.086131 251.118824 
L 342.297595 247.07661 
L 343.50906 251.118824 
L 344.720524 251.118824 
L 345.931988 247.07661 
L 347.143453 251.118824 
L 348.354917 238.992182 
L 349.566382 243.034396 
L 350.777846 243.034396 
L 353.200775 251.118824 
L 354.412239 243.034396 
L 355.623704 238.992182 
L 358.046632 247.07661 
L 359.258097 238.992182 
L 360.469561 238.992182 
L 361.681026 247.07661 
L 362.89249 247.07661 
L 364.103954 251.118824 
L 365.315419 247.07661 
L 366.526883 238.992182 
L 367.738348 243.034396 
L 372.584205 243.034396 
L 373.79567 251.118824 
L 376.218599 259.203251 
L 377.430063 255.161037 
L 378.641527 263.245465 
L 379.852992 259.203251 
L 383.487385 259.203251 
L 384.698849 263.245465 
L 385.910314 259.203251 
L 387.121778 259.203251 
L 388.333243 255.161037 
L 389.544707 259.203251 
L 390.756171 303.667602 
L 391.967636 263.245465 
L 395.602029 251.118824 
L 396.813493 243.034396 
L 398.024958 247.07661 
L 399.236422 247.07661 
L 401.659351 255.161037 
L 402.870815 238.992182 
L 404.08228 243.034396 
L 405.293744 251.118824 
L 406.505209 243.034396 
L 407.716673 251.118824 
L 408.928137 251.118824 
L 410.139602 247.07661 
L 411.351066 247.07661 
L 413.773995 255.161037 
L 414.98546 283.456533 
L 416.196924 275.372106 
L 418.619853 291.540961 
L 419.831317 291.540961 
L 421.042782 295.583175 
L 423.46571 287.498747 
L 424.677175 291.540961 
L 427.100104 291.540961 
L 428.311568 295.583175 
L 429.523032 295.583175 
L 430.734497 291.540961 
L 431.945961 291.540961 
L 433.157426 287.498747 
L 434.36889 291.540961 
L 435.580354 291.540961 
L 436.791819 295.583175 
L 439.214748 295.583175 
L 440.426212 315.794243 
L 441.637676 275.372106 
L 442.849141 255.161037 
L 444.060605 251.118824 
L 445.27207 243.034396 
L 446.483534 247.07661 
L 447.694998 247.07661 
L 448.906463 238.992182 
L 450.117927 247.07661 
L 456.175249 247.07661 
L 457.386714 243.034396 
L 458.598178 251.118824 
L 461.021107 234.949969 
L 462.232571 247.07661 
L 463.444036 247.07661 
L 464.6555 251.118824 
L 465.866965 243.034396 
L 468.289893 251.118824 
L 470.712822 243.034396 
L 471.924287 243.034396 
L 473.135751 238.992182 
L 474.347215 251.118824 
L 475.55868 251.118824 
L 476.770144 291.540961 
L 477.981609 267.287678 
L 480.404537 291.540961 
L 482.827466 307.709816 
L 484.038931 307.709816 
L 485.250395 303.667602 
L 486.461859 307.709816 
L 487.673324 299.625388 
L 488.884788 303.667602 
L 492.519182 303.667602 
L 493.730646 295.583175 
L 494.94211 299.625388 
L 496.153575 295.583175 
L 497.365039 295.583175 
L 499.787968 303.667602 
L 499.787968 303.667602 
" style="fill:none;stroke:#ff7f0e;stroke-linecap:square;stroke-width:1.5;"/>
   </g>
   <g id="line2d_19">
    <path clip-path="url(#p5ff7cf32ae)" d="M 118.31721 319.836457 
L 119.528674 303.667602 
L 123.163068 267.287678 
L 124.374532 283.456533 
L 126.797461 291.540961 
L 128.008925 291.540961 
L 129.22039 279.41432 
L 130.431854 303.667602 
L 131.643318 299.625388 
L 132.854783 291.540961 
L 134.066247 307.709816 
L 135.277712 311.752029 
L 136.489176 303.667602 
L 137.70064 307.709816 
L 138.912105 291.540961 
L 140.123569 279.41432 
L 142.546498 295.583175 
L 143.757962 295.583175 
L 144.969427 303.667602 
L 146.180891 315.794243 
L 147.392356 299.625388 
L 148.60382 295.583175 
L 149.815284 299.625388 
L 151.026749 307.709816 
L 153.449678 307.709816 
L 154.661142 315.794243 
L 157.084071 307.709816 
L 158.295535 291.540961 
L 159.507 303.667602 
L 160.718464 291.540961 
L 161.929929 303.667602 
L 163.141393 303.667602 
L 164.352857 311.752029 
L 166.775786 311.752029 
L 167.987251 303.667602 
L 169.198715 303.667602 
L 170.410179 315.794243 
L 172.833108 307.709816 
L 174.044573 299.625388 
L 175.256037 283.456533 
L 177.678966 299.625388 
L 178.89043 287.498747 
L 180.101895 291.540961 
L 181.313359 299.625388 
L 184.947752 299.625388 
L 186.159217 287.498747 
L 187.370681 295.583175 
L 188.582145 299.625388 
L 189.79361 299.625388 
L 191.005074 319.836457 
L 192.216539 311.752029 
L 193.428003 295.583175 
L 194.639467 255.161037 
L 195.850932 275.372106 
L 198.273861 251.118824 
L 199.485325 247.07661 
L 201.908254 255.161037 
L 203.119718 234.949969 
L 204.331183 238.992182 
L 205.542647 255.161037 
L 206.754112 255.161037 
L 207.965576 267.287678 
L 209.17704 283.456533 
L 210.388505 267.287678 
L 211.599969 263.245465 
L 212.811434 275.372106 
L 214.022898 279.41432 
L 215.234362 275.372106 
L 216.445827 267.287678 
L 217.657291 267.287678 
L 218.868756 247.07661 
L 220.08022 271.329892 
L 221.291684 279.41432 
L 222.503149 295.583175 
L 223.714613 291.540961 
L 224.926078 307.709816 
L 226.137542 303.667602 
L 227.349006 303.667602 
L 228.560471 299.625388 
L 229.771935 299.625388 
L 230.9834 291.540961 
L 234.617793 303.667602 
L 235.829257 291.540961 
L 237.040722 283.456533 
L 238.252186 307.709816 
L 240.675115 299.625388 
L 241.886579 287.498747 
L 243.098044 291.540961 
L 244.309508 283.456533 
L 245.520973 303.667602 
L 246.732437 303.667602 
L 247.943901 311.752029 
L 249.155366 307.709816 
L 251.578295 307.709816 
L 252.789759 299.625388 
L 254.001223 303.667602 
L 255.212688 291.540961 
L 256.424152 263.245465 
L 257.635617 271.329892 
L 258.847081 259.203251 
L 260.058545 251.118824 
L 262.481474 251.118824 
L 263.692939 247.07661 
L 264.904403 234.949969 
L 266.115867 226.865541 
L 267.327332 214.7389 
L 268.538796 234.949969 
L 269.750261 234.949969 
L 272.173189 243.034396 
L 273.384654 243.034396 
L 274.596118 255.161037 
L 275.807583 255.161037 
L 277.019047 259.203251 
L 278.230511 251.118824 
L 279.441976 234.949969 
L 280.65344 210.696686 
L 281.864905 259.203251 
L 283.076369 275.372106 
L 284.287834 287.498747 
L 285.499298 303.667602 
L 286.710762 311.752029 
L 287.922227 311.752029 
L 289.133691 319.836457 
L 290.345156 315.794243 
L 291.55662 307.709816 
L 293.979549 307.709816 
L 295.191013 303.667602 
L 296.402478 303.667602 
L 297.613942 307.709816 
L 301.248335 307.709816 
L 302.4598 303.667602 
L 303.671264 307.709816 
L 304.882728 299.625388 
L 306.094193 287.498747 
L 308.517122 295.583175 
L 310.94005 311.752029 
L 312.151515 271.329892 
L 313.362979 271.329892 
L 314.574444 267.287678 
L 315.785908 259.203251 
L 316.997372 263.245465 
L 318.208837 263.245465 
L 319.420301 259.203251 
L 320.631766 271.329892 
L 321.84323 255.161037 
L 323.054695 247.07661 
L 324.266159 230.907755 
L 325.477623 243.034396 
L 326.689088 243.034396 
L 327.900552 255.161037 
L 330.323481 263.245465 
L 331.534945 263.245465 
L 332.74641 255.161037 
L 335.169339 230.907755 
L 336.380803 222.823327 
L 337.592267 190.485618 
L 338.803732 247.07661 
L 340.015196 275.372106 
L 341.226661 291.540961 
L 342.438125 295.583175 
L 344.861054 295.583175 
L 346.072518 303.667602 
L 347.283983 299.625388 
L 348.495447 303.667602 
L 349.706911 303.667602 
L 350.918376 307.709816 
L 352.12984 307.709816 
L 353.341305 299.625388 
L 354.552769 303.667602 
L 355.764233 311.752029 
L 356.975698 307.709816 
L 358.187162 311.752029 
L 359.398627 311.752029 
L 360.610091 299.625388 
L 361.821556 283.456533 
L 363.03302 287.498747 
L 364.244484 283.456533 
L 365.455949 291.540961 
L 366.667413 295.583175 
L 367.878878 291.540961 
L 369.090342 295.583175 
L 370.301806 291.540961 
L 371.513271 295.583175 
L 372.724735 295.583175 
L 373.9362 299.625388 
L 375.147664 291.540961 
L 376.359128 295.583175 
L 377.570593 287.498747 
L 379.993522 311.752029 
L 381.204986 311.752029 
L 383.627915 279.41432 
L 384.839379 271.329892 
L 386.050844 271.329892 
L 387.262308 279.41432 
L 388.473772 283.456533 
L 389.685237 295.583175 
L 390.896701 247.07661 
L 392.108166 279.41432 
L 393.31963 299.625388 
L 394.531094 307.709816 
L 395.742559 299.625388 
L 396.954023 303.667602 
L 398.165488 299.625388 
L 399.376952 311.752029 
L 400.588417 303.667602 
L 401.799881 287.498747 
L 403.011345 307.709816 
L 404.22281 295.583175 
L 405.434274 291.540961 
L 406.645739 291.540961 
L 409.068667 307.709816 
L 410.280132 295.583175 
L 412.703061 303.667602 
L 413.914525 295.583175 
L 415.125989 267.287678 
L 416.337454 283.456533 
L 417.548918 275.372106 
L 418.760383 271.329892 
L 419.971847 275.372106 
L 421.183311 287.498747 
L 422.394776 291.540961 
L 423.60624 287.498747 
L 424.817705 279.41432 
L 426.029169 291.540961 
L 427.240633 275.372106 
L 428.452098 267.287678 
L 429.663562 271.329892 
L 430.875027 271.329892 
L 432.086491 267.287678 
L 433.297955 271.329892 
L 434.50942 263.245465 
L 435.720884 247.07661 
L 438.143813 263.245465 
L 439.355278 275.372106 
L 440.566742 255.161037 
L 441.778206 291.540961 
L 444.201135 315.794243 
L 445.4126 315.794243 
L 446.624064 311.752029 
L 447.835528 311.752029 
L 449.046993 315.794243 
L 450.258457 311.752029 
L 451.469922 315.794243 
L 452.681386 323.878671 
L 453.89285 307.709816 
L 455.104315 303.667602 
L 456.315779 307.709816 
L 457.527244 303.667602 
L 458.738708 303.667602 
L 459.950172 319.836457 
L 461.161637 319.836457 
L 462.373101 315.794243 
L 463.584566 315.794243 
L 464.79603 307.709816 
L 466.007494 303.667602 
L 467.218959 291.540961 
L 468.430423 275.372106 
L 469.641888 291.540961 
L 470.853352 299.625388 
L 472.064816 291.540961 
L 473.276281 291.540961 
L 474.487745 275.372106 
L 475.69921 291.540961 
L 476.910674 251.118824 
L 478.122139 271.329892 
L 480.545067 247.07661 
L 481.756532 243.034396 
L 484.179461 251.118824 
L 485.390925 271.329892 
L 486.602389 267.287678 
L 487.813854 271.329892 
L 489.025318 267.287678 
L 490.236783 275.372106 
L 491.448247 287.498747 
L 492.659711 291.540961 
L 493.871176 291.540961 
L 495.08264 283.456533 
L 496.294105 291.540961 
L 497.505569 275.372106 
L 498.717033 267.287678 
L 499.928498 251.118824 
L 501.139962 222.823327 
L 502.351427 243.034396 
L 503.562891 279.41432 
L 504.774355 291.540961 
L 507.197284 291.540961 
L 508.408749 303.667602 
L 509.620213 311.752029 
L 509.620213 311.752029 
" style="fill:none;stroke:#2ca02c;stroke-linecap:square;stroke-width:1.5;"/>
   </g>
   <g id="line2d_20">
    <path clip-path="url(#p5ff7cf32ae)" d="M 103.765099 69.219206 
L 104.976564 49.008137 
L 106.188028 53.050351 
L 107.399493 53.050351 
L 108.610957 194.527831 
L 109.822421 198.570045 
L 111.033886 198.570045 
L 112.24535 222.823327 
L 113.456815 255.161037 
L 114.668279 255.161037 
L 115.879743 267.287678 
L 117.091208 275.372106 
L 118.302672 279.41432 
L 120.725601 295.583175 
L 123.14853 303.667602 
L 125.571459 303.667602 
L 126.782923 299.625388 
L 127.994388 291.540961 
L 129.205852 319.836457 
L 130.417316 263.245465 
L 131.628781 247.07661 
L 132.840245 238.992182 
L 134.05171 247.07661 
L 135.263174 243.034396 
L 136.474638 255.161037 
L 137.686103 247.07661 
L 138.897567 243.034396 
L 140.109032 255.161037 
L 142.53196 247.07661 
L 143.743425 247.07661 
L 144.954889 251.118824 
L 146.166354 243.034396 
L 148.589282 243.034396 
L 149.800747 251.118824 
L 151.012211 243.034396 
L 152.223676 251.118824 
L 153.43514 247.07661 
L 154.646604 247.07661 
L 155.858069 243.034396 
L 157.069533 251.118824 
L 158.280998 295.583175 
L 159.492462 251.118824 
L 160.703927 255.161037 
L 161.915391 255.161037 
L 164.33832 247.07661 
L 165.549784 247.07661 
L 166.761249 243.034396 
L 167.972713 255.161037 
L 169.184177 251.118824 
L 170.395642 243.034396 
L 171.607106 247.07661 
L 174.030035 247.07661 
L 175.241499 259.203251 
L 176.452964 247.07661 
L 177.664428 243.034396 
L 178.875893 251.118824 
L 180.087357 255.161037 
L 181.298821 238.992182 
L 182.510286 251.118824 
L 184.933215 243.034396 
L 186.144679 243.034396 
L 187.356143 238.992182 
L 188.567608 243.034396 
L 189.779072 251.118824 
L 190.990537 238.992182 
L 192.202001 243.034396 
L 193.413465 251.118824 
L 194.62493 303.667602 
L 195.836394 279.41432 
L 197.047859 291.540961 
L 199.470788 307.709816 
L 200.682252 311.752029 
L 207.951038 311.752029 
L 209.162503 307.709816 
L 210.373967 307.709816 
L 211.585432 311.752029 
L 214.00836 303.667602 
L 215.219825 303.667602 
L 216.431289 307.709816 
L 217.642754 303.667602 
L 218.854218 323.878671 
L 220.065682 291.540961 
L 221.277147 271.329892 
L 222.488611 247.07661 
L 226.123004 247.07661 
L 227.334469 259.203251 
L 228.545933 247.07661 
L 229.757398 243.034396 
L 230.968862 247.07661 
L 232.180326 247.07661 
L 233.391791 243.034396 
L 234.603255 243.034396 
L 235.81472 247.07661 
L 237.026184 255.161037 
L 238.237649 238.992182 
L 239.449113 243.034396 
L 240.660577 243.034396 
L 241.872042 251.118824 
L 243.083506 243.034396 
L 244.294971 255.161037 
L 245.506435 243.034396 
L 246.717899 247.07661 
L 249.140828 247.07661 
L 250.352293 243.034396 
L 251.563757 243.034396 
L 252.775221 251.118824 
L 253.986686 247.07661 
L 255.19815 259.203251 
L 256.409615 291.540961 
L 257.621079 279.41432 
L 258.832543 291.540961 
L 260.044008 299.625388 
L 261.255472 299.625388 
L 262.466937 295.583175 
L 263.678401 303.667602 
L 264.889865 307.709816 
L 267.312794 299.625388 
L 268.524259 299.625388 
L 269.735723 307.709816 
L 272.158652 299.625388 
L 273.370116 303.667602 
L 275.793045 303.667602 
L 277.00451 299.625388 
L 279.427438 307.709816 
L 280.638903 327.920884 
L 281.850367 295.583175 
L 283.061832 275.372106 
L 285.48476 251.118824 
L 286.696225 230.907755 
L 287.907689 251.118824 
L 289.119154 238.992182 
L 290.330618 238.992182 
L 291.542082 247.07661 
L 292.753547 238.992182 
L 295.176476 247.07661 
L 297.599404 247.07661 
L 298.810869 251.118824 
L 300.022333 247.07661 
L 301.233798 251.118824 
L 302.445262 247.07661 
L 304.868191 247.07661 
L 306.079655 251.118824 
L 307.29112 243.034396 
L 308.502584 251.118824 
L 309.714048 251.118824 
L 310.925513 247.07661 
L 312.136977 279.41432 
L 313.348442 271.329892 
L 314.559906 271.329892 
L 315.771371 279.41432 
L 316.982835 275.372106 
L 318.194299 279.41432 
L 319.405764 287.498747 
L 320.617228 287.498747 
L 321.828693 291.540961 
L 323.040157 291.540961 
L 324.251621 295.583175 
L 325.463086 291.540961 
L 327.886015 291.540961 
L 329.097479 295.583175 
L 331.520408 287.498747 
L 332.731872 291.540961 
L 333.943337 291.540961 
L 335.154801 295.583175 
L 336.366265 295.583175 
L 337.57773 319.836457 
L 338.789194 283.456533 
L 340.000659 263.245465 
L 341.212123 251.118824 
L 342.423587 251.118824 
L 343.635052 247.07661 
L 344.846516 247.07661 
L 346.057981 234.949969 
L 347.269445 243.034396 
L 348.480909 234.949969 
L 349.692374 230.907755 
L 350.903838 243.034396 
L 352.115303 243.034396 
L 353.326767 247.07661 
L 354.538232 247.07661 
L 355.749696 243.034396 
L 356.96116 243.034396 
L 358.172625 247.07661 
L 359.384089 247.07661 
L 360.595554 238.992182 
L 361.807018 255.161037 
L 363.018482 247.07661 
L 364.229947 247.07661 
L 365.441411 238.992182 
L 366.652876 243.034396 
L 367.86434 251.118824 
L 369.075804 247.07661 
L 370.287269 255.161037 
L 371.498733 251.118824 
L 379.978984 251.118824 
L 381.190448 247.07661 
L 383.613377 247.07661 
L 384.824842 255.161037 
L 386.036306 251.118824 
L 387.24777 255.161037 
L 388.459235 251.118824 
L 389.670699 251.118824 
L 390.882164 299.625388 
L 392.093628 267.287678 
L 393.305093 263.245465 
L 394.516557 251.118824 
L 395.728021 247.07661 
L 396.939486 247.07661 
L 398.15095 255.161037 
L 399.362415 247.07661 
L 400.573879 247.07661 
L 401.785343 251.118824 
L 402.996808 234.949969 
L 405.419737 251.118824 
L 407.842665 243.034396 
L 410.265594 251.118824 
L 411.477059 247.07661 
L 413.899987 255.161037 
L 415.111452 295.583175 
L 416.322916 267.287678 
L 417.534381 279.41432 
L 418.745845 287.498747 
L 421.168774 287.498747 
L 422.380238 283.456533 
L 423.591703 283.456533 
L 424.803167 287.498747 
L 427.226096 287.498747 
L 428.43756 291.540961 
L 429.649025 287.498747 
L 432.071954 287.498747 
L 433.283418 283.456533 
L 434.494882 287.498747 
L 435.706347 287.498747 
L 436.917811 291.540961 
L 439.34074 291.540961 
L 440.552204 315.794243 
L 441.763669 271.329892 
L 442.975133 255.161037 
L 444.186598 251.118824 
L 445.398062 243.034396 
L 446.609526 247.07661 
L 447.820991 247.07661 
L 449.032455 238.992182 
L 451.455384 247.07661 
L 452.666848 243.034396 
L 453.878313 247.07661 
L 455.089777 243.034396 
L 456.301242 247.07661 
L 458.72417 247.07661 
L 459.935635 243.034396 
L 461.147099 243.034396 
L 462.358564 247.07661 
L 463.570028 238.992182 
L 464.781492 247.07661 
L 465.992957 247.07661 
L 467.204421 251.118824 
L 468.415886 251.118824 
L 469.62735 243.034396 
L 472.050279 243.034396 
L 473.261743 251.118824 
L 474.473208 251.118824 
L 475.684672 247.07661 
L 476.896137 291.540961 
L 478.107601 267.287678 
L 480.53053 291.540961 
L 481.741994 299.625388 
L 482.953459 303.667602 
L 486.587852 303.667602 
L 487.799316 295.583175 
L 489.010781 299.625388 
L 491.433709 299.625388 
L 492.645174 291.540961 
L 493.856638 287.498747 
L 495.068103 295.583175 
L 496.279567 299.625388 
L 496.279567 299.625388 
" style="fill:none;stroke:#d62728;stroke-linecap:square;stroke-width:1.5;"/>
   </g>
   <g id="patch_3">
    <path d="M 83.472344 352.174167 
L 83.472344 35.0625 
" style="fill:none;stroke:#000000;stroke-linecap:square;stroke-linejoin:miter;stroke-width:0.8;"/>
   </g>
   <g id="patch_4">
    <path d="M 529.912969 352.174167 
L 529.912969 35.0625 
" style="fill:none;stroke:#000000;stroke-linecap:square;stroke-linejoin:miter;stroke-width:0.8;"/>
   </g>
   <g id="patch_5">
    <path d="M 83.472344 352.174167 
L 529.912969 352.174167 
" style="fill:none;stroke:#000000;stroke-linecap:square;stroke-linejoin:miter;stroke-width:0.8;"/>
   </g>
   <g id="patch_6">
    <path d="M 83.472344 35.0625 
L 529.912969 35.0625 
" style="fill:none;stroke:#000000;stroke-linecap:square;stroke-linejoin:miter;stroke-width:0.8;"/>
   </g>
   <g id="legend_1">
    <g id="patch_7">
     <path d="M 554.235 96.775 
L 625.430312 96.775 
Q 627.430312 96.775 627.430312 94.775 
L 627.430312 37.0625 
Q 627.430312 35.0625 625.430312 35.0625 
L 554.235 35.0625 
Q 552.235 35.0625 552.235 37.0625 
L 552.235 94.775 
Q 552.235 96.775 554.235 96.775 
z
" style="fill:#ffffff;opacity:0.8;stroke:#cccccc;stroke-linejoin:miter;"/>
    </g>
    <g id="line2d_21">
     <path d="M 556.235 43.160937 
L 576.235 43.160937 
" style="fill:none;stroke:#1f77b4;stroke-linecap:square;stroke-width:1.5;"/>
    </g>
    <g id="line2d_22"/>
    <g id="text_18">
     <!-- cubic-pi -->
     <defs>
      <path d="M 4.890625 31.390625 
L 31.203125 31.390625 
L 31.203125 23.390625 
L 4.890625 23.390625 
z
" id="DejaVuSans-45"/>
     </defs>
     <g transform="translate(584.235 46.660937)scale(0.1 -0.1)">
      <use xlink:href="#DejaVuSans-99"/>
      <use x="54.980469" xlink:href="#DejaVuSans-117"/>
      <use x="118.359375" xlink:href="#DejaVuSans-98"/>
      <use x="181.835938" xlink:href="#DejaVuSans-105"/>
      <use x="209.619141" xlink:href="#DejaVuSans-99"/>
      <use x="264.599609" xlink:href="#DejaVuSans-45"/>
      <use x="300.683594" xlink:href="#DejaVuSans-112"/>
      <use x="364.160156" xlink:href="#DejaVuSans-105"/>
     </g>
    </g>
    <g id="line2d_23">
     <path d="M 556.235 57.839063 
L 576.235 57.839063 
" style="fill:none;stroke:#ff7f0e;stroke-linecap:square;stroke-width:1.5;"/>
    </g>
    <g id="line2d_24"/>
    <g id="text_19">
     <!-- bbr-pi -->
     <g transform="translate(584.235 61.339063)scale(0.1 -0.1)">
      <use xlink:href="#DejaVuSans-98"/>
      <use x="63.476562" xlink:href="#DejaVuSans-98"/>
      <use x="126.953125" xlink:href="#DejaVuSans-114"/>
      <use x="167.972656" xlink:href="#DejaVuSans-45"/>
      <use x="204.056641" xlink:href="#DejaVuSans-112"/>
      <use x="267.533203" xlink:href="#DejaVuSans-105"/>
     </g>
    </g>
    <g id="line2d_25">
     <path d="M 556.235 72.517187 
L 576.235 72.517187 
" style="fill:none;stroke:#2ca02c;stroke-linecap:square;stroke-width:1.5;"/>
    </g>
    <g id="line2d_26"/>
    <g id="text_20">
     <!-- cubic-pi -->
     <g transform="translate(584.235 76.017187)scale(0.1 -0.1)">
      <use xlink:href="#DejaVuSans-99"/>
      <use x="54.980469" xlink:href="#DejaVuSans-117"/>
      <use x="118.359375" xlink:href="#DejaVuSans-98"/>
      <use x="181.835938" xlink:href="#DejaVuSans-105"/>
      <use x="209.619141" xlink:href="#DejaVuSans-99"/>
      <use x="264.599609" xlink:href="#DejaVuSans-45"/>
      <use x="300.683594" xlink:href="#DejaVuSans-112"/>
      <use x="364.160156" xlink:href="#DejaVuSans-105"/>
     </g>
    </g>
    <g id="line2d_27">
     <path d="M 556.235 87.195312 
L 576.235 87.195312 
" style="fill:none;stroke:#d62728;stroke-linecap:square;stroke-width:1.5;"/>
    </g>
    <g id="line2d_28"/>
    <g id="text_21">
     <!-- bbr-pi -->
     <g transform="translate(584.235 90.695312)scale(0.1 -0.1)">
      <use xlink:href="#DejaVuSans-98"/>
      <use x="63.476562" xlink:href="#DejaVuSans-98"/>
      <use x="126.953125" xlink:href="#DejaVuSans-114"/>
      <use x="167.972656" xlink:href="#DejaVuSans-45"/>
      <use x="204.056641" xlink:href="#DejaVuSans-112"/>
      <use x="267.533203" xlink:href="#DejaVuSans-105"/>
     </g>
    </g>
   </g>
  </g>
  <g id="text_22">
   <!-- 80m shallow throughput -->
   <defs>
    <path d="M 31.78125 34.625 
Q 24.75 34.625 20.71875 30.859375 
Q 16.703125 27.09375 16.703125 20.515625 
Q 16.703125 13.921875 20.71875 10.15625 
Q 24.75 6.390625 31.78125 6.390625 
Q 38.8125 6.390625 42.859375 10.171875 
Q 46.921875 13.96875 46.921875 20.515625 
Q 46.921875 27.09375 42.890625 30.859375 
Q 38.875 34.625 31.78125 34.625 
z
M 21.921875 38.8125 
Q 15.578125 40.375 12.03125 44.71875 
Q 8.5 49.078125 8.5 55.328125 
Q 8.5 64.0625 14.71875 69.140625 
Q 20.953125 74.21875 31.78125 74.21875 
Q 42.671875 74.21875 48.875 69.140625 
Q 55.078125 64.0625 55.078125 55.328125 
Q 55.078125 49.078125 51.53125 44.71875 
Q 48 40.375 41.703125 38.8125 
Q 48.828125 37.15625 52.796875 32.3125 
Q 56.78125 27.484375 56.78125 20.515625 
Q 56.78125 9.90625 50.3125 4.234375 
Q 43.84375 -1.421875 31.78125 -1.421875 
Q 19.734375 -1.421875 13.25 4.234375 
Q 6.78125 9.90625 6.78125 20.515625 
Q 6.78125 27.484375 10.78125 32.3125 
Q 14.796875 37.15625 21.921875 38.8125 
z
M 18.3125 54.390625 
Q 18.3125 48.734375 21.84375 45.5625 
Q 25.390625 42.390625 31.78125 42.390625 
Q 38.140625 42.390625 41.71875 45.5625 
Q 45.3125 48.734375 45.3125 54.390625 
Q 45.3125 60.0625 41.71875 63.234375 
Q 38.140625 66.40625 31.78125 66.40625 
Q 25.390625 66.40625 21.84375 63.234375 
Q 18.3125 60.0625 18.3125 54.390625 
z
" id="DejaVuSans-56"/>
    <path d="M 34.28125 27.484375 
Q 23.390625 27.484375 19.1875 25 
Q 14.984375 22.515625 14.984375 16.5 
Q 14.984375 11.71875 18.140625 8.90625 
Q 21.296875 6.109375 26.703125 6.109375 
Q 34.1875 6.109375 38.703125 11.40625 
Q 43.21875 16.703125 43.21875 25.484375 
L 43.21875 27.484375 
z
M 52.203125 31.203125 
L 52.203125 0 
L 43.21875 0 
L 43.21875 8.296875 
Q 40.140625 3.328125 35.546875 0.953125 
Q 30.953125 -1.421875 24.3125 -1.421875 
Q 15.921875 -1.421875 10.953125 3.296875 
Q 6 8.015625 6 15.921875 
Q 6 25.140625 12.171875 29.828125 
Q 18.359375 34.515625 30.609375 34.515625 
L 43.21875 34.515625 
L 43.21875 35.40625 
Q 43.21875 41.609375 39.140625 45 
Q 35.0625 48.390625 27.6875 48.390625 
Q 23 48.390625 18.546875 47.265625 
Q 14.109375 46.140625 10.015625 43.890625 
L 10.015625 52.203125 
Q 14.9375 54.109375 19.578125 55.046875 
Q 24.21875 56 28.609375 56 
Q 40.484375 56 46.34375 49.84375 
Q 52.203125 43.703125 52.203125 31.203125 
z
" id="DejaVuSans-97"/>
    <path d="M 9.421875 75.984375 
L 18.40625 75.984375 
L 18.40625 0 
L 9.421875 0 
z
" id="DejaVuSans-108"/>
    <path d="M 4.203125 54.6875 
L 13.1875 54.6875 
L 24.421875 12.015625 
L 35.59375 54.6875 
L 46.1875 54.6875 
L 57.421875 12.015625 
L 68.609375 54.6875 
L 77.59375 54.6875 
L 63.28125 0 
L 52.6875 0 
L 40.921875 44.828125 
L 29.109375 0 
L 18.5 0 
z
" id="DejaVuSans-119"/>
   </defs>
   <g transform="translate(268.521563 17.038125)scale(0.12 -0.12)">
    <use xlink:href="#DejaVuSans-56"/>
    <use x="63.623047" xlink:href="#DejaVuSans-48"/>
    <use x="127.246094" xlink:href="#DejaVuSans-109"/>
    <use x="224.658203" xlink:href="#DejaVuSans-32"/>
    <use x="256.445312" xlink:href="#DejaVuSans-115"/>
    <use x="308.544922" xlink:href="#DejaVuSans-104"/>
    <use x="371.923828" xlink:href="#DejaVuSans-97"/>
    <use x="433.203125" xlink:href="#DejaVuSans-108"/>
    <use x="460.986328" xlink:href="#DejaVuSans-108"/>
    <use x="488.769531" xlink:href="#DejaVuSans-111"/>
    <use x="549.951172" xlink:href="#DejaVuSans-119"/>
    <use x="631.738281" xlink:href="#DejaVuSans-32"/>
    <use x="663.525391" xlink:href="#DejaVuSans-116"/>
    <use x="702.734375" xlink:href="#DejaVuSans-104"/>
    <use x="766.113281" xlink:href="#DejaVuSans-114"/>
    <use x="807.195312" xlink:href="#DejaVuSans-111"/>
    <use x="868.376953" xlink:href="#DejaVuSans-117"/>
    <use x="931.755859" xlink:href="#DejaVuSans-103"/>
    <use x="995.232422" xlink:href="#DejaVuSans-104"/>
    <use x="1058.611328" xlink:href="#DejaVuSans-112"/>
    <use x="1122.087891" xlink:href="#DejaVuSans-117"/>
    <use x="1185.466797" xlink:href="#DejaVuSans-116"/>
   </g>
  </g>
 </g>
 <defs>
  <clipPath id="p5ff7cf32ae">
   <rect height="317.111667" width="446.440625" x="83.472344" y="35.0625"/>
  </clipPath>
 </defs>
</svg>
